<?xml version="1.0" standalone="no"?>
<!DOCTYPE svg PUBLIC "-//W3C//DTD SVG 20010904//EN"
 "http://www.w3.org/TR/2001/REC-SVG-20010904/DTD/svg10.dtd">
<svg version="1.0" xmlns="http://www.w3.org/2000/svg"
 width="1242.000000pt" height="828.000000pt" viewBox="0 0 1242.000000 828.000000"
 preserveAspectRatio="xMidYMid meet">
<metadata>
Created by potrace 1.16, written by Peter Selinger 2001-2019
</metadata>
<g transform="translate(0.000000,828.000000) scale(0.100000,-0.100000)"
fill="#000000" stroke="none">
<path d="M3660 5427 c-106 -24 -189 -91 -236 -191 -19 -41 -24 -68 -24 -136 0
-91 17 -143 66 -208 l26 -33 -44 -72 c-23 -40 -45 -76 -47 -80 -2 -5 -36 -61
-76 -125 l-72 -117 -80 -3 -79 -3 -13 38 c-18 49 -103 133 -166 163 -42 21
-65 25 -140 25 -76 0 -99 -4 -146 -26 -66 -31 -122 -85 -157 -154 -21 -41 -26
-64 -26 -130 -1 -68 3 -89 28 -142 31 -69 88 -128 158 -164 36 -19 59 -23 138
-24 84 0 101 3 152 28 77 38 141 112 164 189 l18 58 75 0 76 -1 123 -265 123
-265 -31 -39 c-54 -68 -74 -126 -74 -215 0 -98 22 -152 88 -223 66 -71 148
-106 246 -105 134 0 234 63 296 187 34 71 36 78 32 158 -6 136 -67 231 -187
287 -48 22 -70 26 -149 26 l-92 0 -126 263 -125 262 17 32 c9 18 53 92 97 163
44 72 88 143 98 160 l18 29 118 1 c104 0 123 3 161 23 63 34 114 84 147 144
25 45 30 67 33 146 4 88 3 96 -27 157 -70 141 -227 216 -381 182z"/>
<path d="M8362 4838 c-38 -10 -72 -58 -72 -101 0 -94 115 -143 181 -78 23 24
29 38 29 75 0 76 -63 124 -138 104z"/>
<path d="M4850 4431 l0 -409 -25 -30 c-13 -16 -38 -35 -55 -42 -42 -17 -137
-8 -190 18 -24 12 -45 20 -47 19 -1 -2 -16 -36 -32 -76 l-30 -72 52 -24 c100
-47 216 -56 319 -25 47 14 116 66 145 110 50 73 53 104 53 537 l0 403 -95 0
-95 0 0 -409z"/>
<path d="M5240 4316 l0 -526 90 0 90 0 0 190 0 190 113 0 c146 0 236 14 295
45 87 45 140 108 166 194 49 166 -22 326 -176 397 l-63 29 -257 3 -258 4 0
-526z m458 359 c40 -7 95 -54 112 -95 18 -43 9 -144 -16 -178 -11 -15 -40 -37
-65 -50 -40 -20 -55 -22 -174 -20 l-130 3 -3 165 c-1 90 -1 169 1 175 5 10
214 11 275 0z"/>
<path d="M7903 4752 l-83 -3 0 -97 0 -97 -51 0 -51 0 -1 -73 -2 -72 53 0 52 0
0 -227 c0 -126 5 -246 10 -267 20 -89 84 -130 200 -131 41 0 92 4 113 8 l37 8
0 71 0 71 -54 -7 c-65 -7 -109 7 -125 40 -7 16 -11 98 -11 229 l0 205 95 0 96
0 -3 73 -3 72 -90 0 -90 0 -5 100 -5 100 -82 -3z"/>
<path d="M6327 4560 c-141 -36 -241 -143 -269 -289 -28 -149 16 -305 110 -393
63 -59 113 -84 193 -98 155 -27 314 41 373 159 47 94 49 91 -46 91 -82 -1 -83
-1 -103 -32 -32 -49 -68 -71 -130 -76 -106 -9 -180 41 -210 143 l-14 45 276 0
276 0 -5 103 c-4 86 -9 111 -33 160 -36 72 -117 149 -182 172 -58 20 -184 28
-236 15z m176 -154 c57 -24 107 -93 107 -147 0 -19 -7 -19 -187 -17 l-188 3 3
30 c5 46 40 100 81 123 43 26 134 29 184 8z"/>
<path d="M7259 4559 c-55 -8 -96 -29 -144 -70 l-35 -31 0 46 0 46 -80 0 -80 0
0 -525 0 -525 80 0 80 0 0 185 0 185 45 -35 c82 -62 190 -80 295 -49 74 22
167 114 200 199 32 82 38 225 15 315 -48 188 -192 287 -376 259z m108 -168
c26 -12 52 -35 70 -62 25 -38 28 -52 31 -144 5 -121 -13 -175 -73 -220 -73
-56 -201 -42 -264 30 -79 90 -57 320 37 381 57 38 136 43 199 15z"/>
<path d="M8841 4540 c-67 -24 -113 -59 -155 -117 -55 -75 -71 -134 -71 -253 0
-116 15 -171 67 -248 39 -57 63 -79 123 -110 46 -25 60 -27 165 -27 130 0 158
9 234 76 41 36 74 90 91 147 6 22 5 22 -78 22 l-85 0 -20 -34 c-27 -46 -75
-70 -138 -69 -121 1 -184 86 -184 248 0 39 7 92 15 117 52 150 266 172 317 33
l12 -35 84 0 85 0 -6 34 c-14 85 -77 162 -167 205 -75 35 -209 41 -289 11z"/>
<path d="M9552 4542 c-65 -24 -126 -81 -148 -139 -23 -58 -15 -160 15 -202 30
-42 127 -86 236 -107 103 -19 138 -35 160 -68 40 -60 -46 -133 -146 -124 -58
6 -98 31 -119 76 l-15 32 -83 0 -82 0 6 -27 c12 -52 45 -112 77 -139 64 -54
112 -69 232 -69 94 0 117 3 162 24 95 42 153 127 153 223 0 50 -15 87 -53 126
-46 48 -89 68 -229 102 -129 32 -158 49 -158 96 0 12 11 36 24 51 22 26 30 28
94 28 65 0 73 -3 102 -30 17 -16 33 -40 36 -52 6 -22 11 -23 86 -23 l80 0 -7
33 c-17 78 -65 137 -145 178 -63 32 -203 37 -278 11z"/>
<path d="M8310 4170 l0 -380 85 0 85 0 0 380 0 380 -85 0 -85 0 0 -380z"/>
<path d="M5688 3474 c-31 -16 -37 -36 -10 -32 14 2 18 -6 20 -49 l3 -53 -34 0
c-97 0 -153 -117 -85 -180 25 -23 55 -25 93 -8 22 10 28 9 35 -3 8 -12 13 -12
36 1 34 19 43 41 15 33 -21 -5 -21 -2 -21 151 0 168 0 169 -52 140z m-10 -170
c17 -12 22 -25 22 -61 0 -46 -17 -72 -49 -73 -50 -1 -73 104 -29 134 12 9 25
16 28 16 3 0 16 -7 28 -16z"/>
<path d="M7358 3474 c-29 -15 -39 -41 -13 -30 12 4 15 -5 15 -49 0 -55 0 -55
-30 -55 -68 0 -110 -45 -110 -116 0 -64 65 -103 121 -73 15 7 24 7 34 -1 10
-8 21 -7 45 5 30 15 34 40 5 28 -18 -6 -17 -10 -21 137 -1 63 -3 127 -3 143
-1 31 -5 32 -43 11z m0 -225 c3 -54 -11 -79 -45 -79 -25 0 -53 39 -53 73 0 53
33 82 75 67 16 -6 21 -18 23 -61z"/>
<path d="M4580 3446 c0 -6 -3 -28 -6 -48 -8 -45 7 -50 23 -8 10 26 16 30 47
30 l36 0 0 -125 c0 -118 -1 -125 -20 -125 -11 0 -20 -4 -20 -10 0 -6 29 -10
66 -10 41 0 63 4 59 10 -3 6 -13 10 -21 10 -11 0 -14 23 -14 126 l0 125 32 -3
c24 -2 36 -10 46 -30 7 -16 17 -28 23 -28 9 0 13 82 4 91 -2 3 -39 0 -81 -5
-50 -6 -93 -6 -125 1 -35 7 -49 6 -49 -1z"/>
<path d="M6026 3443 c-9 -22 -7 -83 2 -83 4 0 13 14 19 31 10 27 16 30 45 27
l33 -3 3 -122 c2 -117 2 -123 -17 -123 -11 0 -23 -4 -26 -10 -4 -6 20 -10 64
-10 76 0 86 5 46 20 l-26 10 3 117 3 118 28 3 c33 4 57 -13 57 -39 0 -11 4
-19 9 -19 10 0 24 77 16 89 -2 5 -24 5 -47 0 -58 -11 -136 -11 -175 0 -25 7
-33 6 -37 -6z"/>
<path d="M7690 3447 c0 -6 -3 -29 -6 -49 -8 -46 5 -49 28 -7 15 25 23 30 50
27 l33 -3 0 -120 c0 -117 -1 -120 -22 -123 -49 -7 -20 -22 42 -22 37 0 65 4
65 10 0 6 -9 10 -20 10 -19 0 -20 7 -20 125 l0 125 28 0 c34 0 49 -10 53 -34
2 -11 10 -21 17 -24 8 -2 12 11 12 46 l0 50 -35 -8 c-47 -11 -174 -10 -202 1
-16 6 -23 5 -23 -4z"/>
<path d="M9830 3350 c-6 -11 -17 -20 -25 -20 -19 0 -19 -16 0 -24 11 -4 15
-23 15 -80 0 -78 5 -86 53 -86 22 1 57 21 57 34 0 3 -15 5 -32 4 l-33 -3 -3
63 -3 62 31 0 c20 0 30 5 30 15 0 10 -10 15 -30 15 -19 0 -30 5 -30 14 0 24
-18 28 -30 6z"/>
<path d="M5230 3345 c-7 -8 -19 -15 -26 -15 -19 0 -18 -16 1 -24 11 -4 15 -22
15 -74 0 -39 5 -73 12 -80 15 -15 53 -16 79 -2 29 16 23 28 -13 26 l-33 -1 -3
62 -3 62 33 3 c42 4 43 22 1 26 -21 2 -33 9 -33 18 0 18 -14 18 -30 -1z"/>
<path d="M6896 3345 c-3 -8 -12 -15 -21 -15 -8 0 -15 -4 -15 -10 0 -5 5 -10
10 -10 6 0 10 -30 10 -69 0 -76 13 -101 55 -101 12 0 33 9 46 20 l24 20 -35
-3 -35 -2 -3 62 c-3 60 -2 62 24 65 39 4 44 28 6 28 -17 0 -32 6 -36 15 -3 8
-10 15 -15 15 -5 0 -11 -7 -15 -15z"/>
<path d="M4868 3311 c-28 -25 -33 -36 -33 -74 0 -79 59 -117 130 -85 37 17 34
40 -4 25 -41 -15 -81 11 -81 53 0 30 1 30 55 30 51 0 55 2 55 23 0 59 -70 74
-122 28z m72 -16 c0 -10 -10 -15 -30 -15 -29 0 -38 9 -23 23 13 13 53 7 53 -8z"/>
<path d="M5057 3322 c-30 -33 -22 -69 23 -97 22 -14 40 -32 40 -40 0 -23 -47
-19 -60 5 -15 29 -32 25 -28 -7 2 -19 11 -30 29 -37 87 -30 137 71 54 111 -35
17 -52 41 -38 54 10 9 53 -7 53 -21 0 -5 5 -10 10 -10 16 0 11 47 -6 54 -29
11 -61 6 -77 -12z"/>
<path d="M5414 3329 c-45 -22 -67 -96 -42 -142 26 -50 88 -63 129 -27 l24 20
-35 -6 c-43 -7 -77 17 -82 56 -3 24 0 25 55 28 53 3 57 5 57 27 0 43 -57 67
-106 44z m56 -34 c0 -10 -10 -15 -30 -15 -29 0 -38 9 -23 23 13 13 53 7 53 -8z"/>
<path d="M6298 3324 c-32 -17 -38 -38 -8 -29 19 6 20 2 20 -56 0 -47 -4 -65
-17 -75 -16 -12 -10 -13 40 -14 31 0 57 4 57 10 0 6 -9 10 -20 10 -17 0 -20 7
-20 53 0 65 9 80 42 72 32 -8 46 11 25 33 -13 13 -21 13 -41 4 -16 -7 -28 -8
-31 -2 -8 13 -15 12 -47 -6z"/>
<path d="M6465 3323 c-24 -14 -26 -18 -12 -21 13 -3 17 -14 17 -52 0 -91 31
-124 94 -100 20 7 32 7 41 0 9 -7 21 -7 39 1 27 13 38 43 11 33 -13 -5 -15 6
-15 69 0 42 -4 79 -10 82 -5 3 -24 -2 -42 -11 -31 -16 -32 -17 -10 -25 18 -7
22 -16 22 -53 0 -48 -16 -66 -58 -66 -24 0 -32 25 -32 103 0 31 -3 57 -7 57
-5 -1 -21 -8 -38 -17z"/>
<path d="M6723 3325 c-35 -25 -29 -59 15 -92 58 -43 67 -63 30 -63 -12 0 -32
10 -45 22 l-23 21 0 -30 c0 -44 53 -59 98 -27 41 28 24 88 -31 107 -22 8 -33
35 -19 49 7 7 17 3 31 -11 28 -28 33 -27 29 7 -2 22 -9 28 -33 30 -16 1 -40
-4 -52 -13z"/>
<path d="M7085 3331 c-39 -16 -60 -51 -60 -98 0 -37 5 -49 29 -70 24 -21 37
-24 69 -20 22 3 47 13 56 22 15 16 13 16 -26 10 -34 -5 -45 -3 -62 14 -12 12
-21 32 -21 46 0 22 4 24 57 27 66 3 79 22 44 57 -22 22 -52 26 -86 12z m53
-38 c2 -9 -8 -13 -32 -13 -28 0 -34 3 -29 16 7 18 54 16 61 -3z"/>
<path d="M7957 3324 c-28 -15 -29 -38 -2 -27 11 4 15 -3 16 -23 3 -58 -2 -99
-14 -106 -21 -13 0 -19 54 -15 43 3 49 5 31 12 -21 7 -23 13 -20 69 3 61 3 61
33 59 33 -3 49 15 33 34 -13 16 -40 17 -56 1 -9 -9 -15 -9 -24 0 -15 15 -17
15 -51 -4z"/>
<path d="M8163 3325 c-22 -9 -33 -21 -33 -34 0 -31 17 -34 36 -6 19 28 39 32
48 9 12 -32 5 -43 -38 -62 -47 -21 -64 -53 -39 -77 17 -18 28 -19 54 -4 15 7
24 7 33 -1 9 -7 22 -7 39 -1 33 13 44 31 18 31 -19 0 -21 6 -21 64 0 92 -25
113 -97 81z m55 -122 c-4 -23 -48 -31 -48 -9 0 13 14 21 43 25 5 0 7 -7 5 -16z"/>
<path d="M8338 3328 c-31 -11 -38 -37 -10 -34 14 1 17 -9 20 -61 2 -52 0 -63
-13 -63 -8 0 -15 -4 -15 -10 0 -5 24 -10 53 -10 46 1 50 2 34 14 -14 11 -17
25 -15 71 3 49 6 59 25 66 34 13 53 -13 53 -73 0 -37 -5 -55 -17 -64 -16 -12
-11 -13 37 -13 48 0 53 1 38 13 -14 10 -18 28 -18 72 0 92 -39 127 -103 93
-16 -9 -22 -9 -25 0 -4 13 -8 13 -44 -1z"/>
<path d="M8590 3320 c-30 -30 -25 -56 18 -87 59 -44 67 -63 27 -63 -14 0 -30
9 -37 20 -18 28 -28 25 -28 -9 0 -42 54 -56 98 -25 41 28 24 88 -31 107 -22 8
-33 35 -20 48 6 6 19 2 35 -11 23 -18 27 -18 32 -4 16 42 -58 60 -94 24z"/>
<path d="M8737 3324 c-28 -15 -29 -38 -2 -27 13 4 15 -15 15 -126 0 -110 -2
-131 -15 -131 -8 0 -15 -4 -15 -10 0 -6 27 -10 60 -10 58 0 84 15 38 22 -20 3
-23 10 -26 51 l-3 47 41 0 c91 0 146 114 85 175 -28 28 -70 32 -102 10 -19
-13 -22 -13 -27 0 -7 18 -13 18 -49 -1z m137 -29 c23 -24 28 -52 16 -90 -10
-30 -16 -35 -44 -35 -43 0 -56 16 -56 66 0 33 5 47 22 58 28 20 43 20 62 1z"/>
<path d="M9025 3328 c-29 -15 -44 -38 -38 -54 8 -23 32 -16 39 11 8 34 40 33
48 -1 8 -31 10 -29 -45 -57 -51 -26 -63 -59 -28 -77 16 -9 28 -9 46 -1 18 8
29 8 38 1 8 -7 21 -7 38 -1 33 13 44 31 19 31 -17 0 -20 9 -24 71 -4 73 -13
89 -53 89 -11 -1 -29 -6 -40 -12z m53 -125 c-2 -11 -14 -19 -31 -21 -30 -4
-36 12 -9 27 26 16 44 13 40 -6z"/>
<path d="M9190 3325 c-30 -16 -32 -30 -5 -30 18 0 20 -8 23 -62 2 -52 0 -63
-13 -63 -8 0 -15 -4 -15 -10 0 -5 25 -10 56 -10 34 0 53 4 49 10 -3 6 -13 10
-21 10 -12 0 -14 12 -12 63 3 62 3 62 33 62 20 0 31 6 33 18 5 23 -25 33 -51
18 -14 -9 -22 -10 -30 -2 -14 14 -16 13 -47 -4z"/>
<path d="M9394 3321 c-84 -51 -54 -181 41 -181 33 0 79 26 70 40 -3 4 -18 3
-35 -3 -26 -10 -32 -8 -55 13 -14 13 -25 34 -25 47 0 22 4 23 60 23 53 0 60 2
60 20 0 27 -35 60 -62 60 -13 0 -37 -9 -54 -19z m64 -28 c2 -9 -7 -13 -27 -13
-30 0 -39 9 -24 24 11 10 46 3 51 -11z"/>
<path d="M9560 3325 c-30 -16 -32 -30 -5 -30 18 0 20 -8 23 -62 2 -52 0 -63
-13 -63 -8 0 -15 -4 -15 -10 0 -5 20 -10 45 -10 25 0 45 5 45 10 0 6 -7 10
-15 10 -12 0 -15 13 -15 55 0 46 4 57 24 70 43 28 66 2 66 -78 0 -24 -5 -40
-15 -43 -31 -12 -13 -24 38 -24 45 1 50 2 35 14 -14 10 -18 28 -18 72 0 91
-39 127 -102 93 -14 -8 -23 -8 -31 0 -14 14 -16 13 -47 -4z"/>
<path d="M5807 3176 c-7 -19 18 -40 39 -32 8 3 14 14 12 23 -4 22 -43 29 -51
9z"/>
<path d="M7477 3183 c-12 -11 -7 -33 8 -39 20 -8 45 13 38 32 -5 14 -34 19
-46 7z"/>
<path d="M9966 3181 c-10 -16 5 -41 24 -41 19 0 30 17 23 38 -5 14 -39 16 -47
3z"/>
</g>
</svg>
