<?xml version="1.0" standalone="no"?>
<!DOCTYPE svg PUBLIC "-//W3C//DTD SVG 20010904//EN"
 "http://www.w3.org/TR/2001/REC-SVG-20010904/DTD/svg10.dtd">
<svg version="1.0" xmlns="http://www.w3.org/2000/svg"
 width="246.000000pt" height="294.000000pt" viewBox="0 0 246.000000 294.000000"
 preserveAspectRatio="xMidYMid meet">
<metadata>
Created by potrace 1.16, written by Peter Selinger 2001-2019
</metadata>
<g transform="translate(0.000000,294.000000) scale(0.100000,-0.100000)"
fill="#000000" stroke="none">
<path d="M1577 2704 c-71 -23 -86 -32 -145 -92 -51 -52 -72 -82 -90 -129 -48
-127 -27 -268 55 -370 l34 -43 -37 -72 c-21 -40 -73 -137 -116 -215 -43 -78
-78 -146 -78 -152 0 -7 -36 -11 -102 -11 l-103 0 -18 43 c-26 64 -96 138 -163
172 -54 27 -68 30 -159 30 -86 0 -107 -4 -150 -25 -65 -32 -134 -102 -165
-165 -22 -44 -25 -63 -25 -160 0 -96 4 -116 25 -160 33 -67 102 -132 178 -168
59 -27 69 -29 155 -25 74 3 102 9 143 31 66 34 135 111 164 184 13 32 26 61
29 64 3 4 46 9 95 11 l88 5 18 -41 c9 -23 34 -77 55 -121 21 -44 62 -132 91
-195 30 -63 63 -132 74 -154 l20 -38 -34 -42 c-44 -54 -61 -89 -80 -163 -21
-81 -20 -98 9 -190 31 -98 94 -174 181 -218 54 -27 68 -30 159 -30 89 0 107 3
162 29 146 67 232 231 204 390 -16 91 -51 154 -120 219 -51 46 -74 60 -133 78
-71 21 -157 23 -200 5 -14 -6 -23 6 -49 61 -17 37 -51 109 -74 158 -23 50 -68
147 -100 217 l-58 126 20 29 c11 15 49 82 83 148 35 66 66 122 69 125 3 3 14
21 23 40 9 19 25 49 35 65 10 17 18 31 19 32 0 2 27 -2 60 -8 158 -30 321 56
400 209 27 53 29 65 29 167 0 103 -2 113 -28 159 -63 110 -128 163 -234 195
-88 26 -119 25 -216 -5z m202 -10 c9 -8 -65 -2 -84 6 -13 6 -2 7 30 3 28 -3
52 -7 54 -9z m-126 -1 c-7 -2 -21 -2 -30 0 -10 3 -4 5 12 5 17 0 24 -2 18 -5z
m-53 -7 c0 -2 -9 -6 -20 -9 -11 -3 -18 -1 -14 4 5 9 34 13 34 5z m210 0 c0 -3
-4 -8 -10 -11 -5 -3 -10 -1 -10 4 0 6 5 11 10 11 6 0 10 -2 10 -4z m-260 -20
c0 -2 -7 -7 -16 -10 -8 -3 -12 -2 -9 4 6 10 25 14 25 6z m-157 -151 c-3 -9 -8
-14 -10 -11 -3 3 -2 9 2 15 9 16 15 13 8 -4z m-43 -155 c-7 -85 -7 -85 -8 -20
-2 56 6 117 13 108 1 -2 -1 -41 -5 -88z m7 -122 c-3 -7 -5 -2 -5 12 0 14 2 19
5 13 2 -7 2 -19 0 -25z m23 -38 c0 -5 -2 -10 -4 -10 -3 0 -8 5 -11 10 -3 6 -1
10 4 10 6 0 11 -4 11 -10z m387 -196 c-3 -3 -12 -4 -19 -1 -8 3 -5 6 6 6 11 1
17 -2 13 -5z m-50 -10 c-3 -3 -12 -4 -19 -1 -8 3 -5 6 6 6 11 1 17 -2 13 -5z
m-1087 -153 c0 -5 -11 -8 -25 -8 -14 0 -25 3 -25 8 0 5 11 9 25 9 14 0 25 -4
25 -9z m100 -1 c0 -5 -7 -7 -15 -4 -8 4 -15 8 -15 10 0 2 7 4 15 4 8 0 15 -4
15 -10z m-195 -20 c-3 -5 -12 -10 -18 -10 -7 0 -6 4 3 10 19 12 23 12 15 0z
m836 -137 c-12 -20 -14 -14 -5 12 4 9 9 14 11 11 3 -2 0 -13 -6 -23z m-991 -4
c-7 -11 -14 -18 -17 -15 -3 3 0 12 7 21 18 21 23 19 10 -6z m871 -12 c-10 -9
-11 -8 -5 6 3 10 9 15 12 12 3 -3 0 -11 -7 -18z m69 -86 c0 -6 -4 -12 -8 -15
-5 -3 -9 1 -9 9 0 8 4 15 9 15 4 0 8 -4 8 -9z m-162 -98 c-21 -2 -57 -2 -80 0
-24 2 -7 4 37 4 44 0 63 -2 43 -4z m-188 -80 c-11 -17 -11 -17 -6 0 3 10 7 26
7 35 1 15 2 15 6 0 2 -10 -1 -25 -7 -35z m448 -128 c-3 -3 -9 2 -12 12 -6 14
-5 15 5 6 7 -7 10 -15 7 -18z m-98 -30 c0 -5 -5 -3 -10 5 -5 8 -10 20 -10 25
0 6 5 3 10 -5 5 -8 10 -19 10 -25z m-733 -51 c-3 -3 -12 -4 -19 -1 -8 3 -5 6
6 6 11 1 17 -2 13 -5z m46 -11 c-7 -2 -19 -2 -25 0 -7 3 -2 5 12 5 14 0 19 -2
13 -5z m65 0 c-10 -2 -26 -2 -35 0 -10 3 -2 5 17 5 19 0 27 -2 18 -5z m709
-135 c-3 -8 -6 -5 -6 6 -1 11 2 17 5 13 3 -3 4 -12 1 -19z m300 -74 c-3 -3
-12 -4 -19 -1 -8 3 -5 6 6 6 11 1 17 -2 13 -5z m-79 -11 c-10 -2 -26 -2 -35 0
-10 3 -2 5 17 5 19 0 27 -2 18 -5z m155 0 c-7 -2 -21 -2 -30 0 -10 3 -4 5 12
5 17 0 24 -2 18 -5z m102 -51 c-3 -3 -11 0 -18 7 -9 10 -8 11 6 5 10 -3 15 -9
12 -12z m-518 -199 c-3 -10 -5 -4 -5 12 0 17 2 24 5 18 2 -7 2 -21 0 -30z
m-10 -75 c-2 -13 -4 -5 -4 17 -1 22 1 32 4 23 2 -10 2 -28 0 -40z m670 -10
c-3 -7 -5 -2 -5 12 0 14 2 19 5 13 2 -7 2 -19 0 -25z m-670 -55 c-3 -10 -5 -4
-5 12 0 17 2 24 5 18 2 -7 2 -21 0 -30z m670 5 c-3 -7 -5 -2 -5 12 0 14 2 19
5 13 2 -7 2 -19 0 -25z m-10 -60 c-3 -8 -6 -5 -6 6 -1 11 2 17 5 13 3 -3 4
-12 1 -19z m-650 -10 c-3 -8 -6 -5 -6 6 -1 11 2 17 5 13 3 -3 4 -12 1 -19z
m450 -204 c-3 -3 -12 -4 -19 -1 -8 3 -5 6 6 6 11 1 17 -2 13 -5z"/>
</g>
</svg>
