<?xml version="1.0" standalone="no"?>
<!DOCTYPE svg PUBLIC "-//W3C//DTD SVG 20010904//EN"
 "http://www.w3.org/TR/2001/REC-SVG-20010904/DTD/svg10.dtd">
<svg version="1.0" xmlns="http://www.w3.org/2000/svg"
 width="1023.000000pt" height="387.000000pt" viewBox="0 0 1023.000000 387.000000"
 preserveAspectRatio="xMidYMid meet">
<metadata>
Created by potrace 1.16, written by Peter Selinger 2001-2019
</metadata>
<g transform="translate(0.000000,387.000000) scale(0.100000,-0.100000)"
fill="#000000" stroke="none">
<path d="M1989 3399 c-111 -31 -199 -103 -241 -198 -11 -25 -25 -54 -29 -63
-12 -23 -12 -191 0 -204 5 -5 14 -26 21 -47 6 -20 29 -59 50 -86 24 -30 35
-52 29 -58 -5 -5 -17 -25 -27 -44 -38 -72 -106 -197 -141 -259 -21 -36 -44
-80 -52 -97 l-14 -33 -101 0 -101 0 -17 43 c-41 108 -163 196 -286 205 -155
11 -276 -55 -347 -190 -25 -49 -28 -62 -28 -163 0 -107 1 -112 34 -168 45 -78
93 -124 169 -160 59 -27 69 -29 155 -25 77 4 100 9 142 33 88 49 137 106 170
196 l21 60 92 5 91 5 41 -88 c23 -48 50 -106 60 -128 31 -68 111 -237 138
-294 20 -39 23 -56 14 -59 -26 -8 -85 -114 -104 -189 -19 -77 -19 -77 1 -160
29 -121 84 -193 186 -246 55 -29 68 -31 160 -32 94 0 104 2 167 34 217 108
270 391 108 573 -96 107 -226 147 -367 111 -16 -3 -23 -1 -23 8 0 8 -7 28 -16
44 -9 17 -47 98 -84 180 -38 83 -75 164 -83 180 -64 129 -70 148 -57 169 7 11
25 43 40 71 28 53 90 166 154 280 l39 70 116 0 c103 0 122 3 166 24 74 37 148
111 181 184 26 55 29 73 29 162 0 91 -3 105 -29 154 -60 115 -127 170 -244
202 -81 22 -98 22 -183 -2z m161 -10 c197 -44 314 -229 270 -428 -23 -107 -92
-192 -193 -241 -73 -35 -138 -45 -212 -31 -70 13 -71 12 -123 -82 -196 -357
-206 -378 -193 -399 7 -11 9 -29 6 -41 -4 -13 -3 -17 2 -10 6 8 17 -5 33 -40
13 -29 46 -99 73 -157 27 -58 57 -123 67 -145 10 -22 30 -65 44 -97 l27 -56
107 1 c91 2 114 -1 152 -20 230 -109 285 -392 111 -576 -19 -20 -41 -37 -48
-37 -7 0 -13 -4 -13 -10 0 -15 -127 -50 -180 -50 -26 0 -77 9 -113 20 -79 25
-155 89 -195 164 -24 46 -27 61 -27 161 0 109 1 111 37 171 21 33 44 67 53 74
25 21 18 53 -41 177 -119 251 -164 350 -164 363 0 6 -4 10 -8 10 -4 0 -13 13
-19 30 l-11 30 -95 0 c-103 0 -118 -7 -131 -65 -12 -51 -85 -149 -134 -181
-248 -158 -555 43 -510 335 18 118 75 196 181 250 55 28 73 32 142 32 66 0 90
-5 133 -26 72 -35 133 -93 166 -160 16 -30 31 -55 35 -56 11 -1 155 -1 189 0
21 1 35 7 39 19 4 9 9 19 12 22 3 3 22 37 42 75 44 84 94 177 143 266 20 37
36 71 36 76 0 5 -18 32 -39 61 -56 75 -74 136 -69 237 3 63 11 95 32 138 72
148 234 230 386 196z"/>
<path d="M7518 2743 c-42 -6 -88 -66 -88 -113 0 -21 4 -50 10 -64 13 -36 67
-66 117 -66 35 0 48 6 78 35 31 31 35 42 35 85 0 43 -4 54 -35 85 -20 19 -42
35 -50 35 -7 0 -19 2 -27 3 -7 2 -25 2 -40 0z m99 -47 c24 -21 28 -32 28 -75
0 -69 -26 -96 -94 -96 -58 0 -88 22 -97 71 -14 75 23 124 92 124 31 0 51 -7
71 -24z"/>
<path d="M3360 2718 c0 -2 -1 -205 -3 -453 l-2 -450 -25 -50 c-49 -98 -165
-122 -283 -58 l-54 30 -37 -77 c-20 -42 -36 -81 -36 -86 0 -18 124 -73 189
-84 86 -15 216 2 290 38 64 32 127 100 143 156 6 23 16 47 22 55 7 9 12 173
14 498 l3 483 -110 0 c-61 0 -111 -1 -111 -2z m193 -479 c-1 -254 -5 -465 -10
-468 -4 -3 -9 -23 -10 -43 -3 -41 -35 -98 -80 -140 -78 -74 -264 -107 -382
-69 -88 29 -132 57 -122 79 4 9 17 38 29 64 l21 48 50 -26 c39 -20 63 -26 118
-26 89 0 131 18 168 72 l30 43 3 464 3 463 92 0 92 0 -2 -461z"/>
<path d="M3780 2116 c0 -333 1 -609 3 -612 1 -3 48 -6 105 -7 l102 -2 0 223 0
222 173 0 c94 0 190 5 212 11 122 32 208 101 258 207 29 61 32 76 32 167 0
137 -26 205 -109 290 -92 92 -112 96 -478 102 l-298 5 0 -606z m666 553 c65
-28 97 -55 142 -121 43 -64 55 -122 50 -240 -3 -89 -7 -110 -32 -158 -34 -67
-65 -102 -84 -95 -7 2 -11 1 -8 -4 10 -16 -59 -54 -143 -78 -74 -20 -107 -23
-234 -22 -82 0 -152 -2 -155 -6 -4 -4 -9 -102 -12 -218 l-5 -212 -82 0 -83 -1
-2 593 -3 594 295 -3 c292 -3 296 -3 356 -29z"/>
<path d="M4013 2552 c-12 -2 -26 -9 -32 -16 -6 -7 -11 -90 -11 -211 -1 -182 0
-200 17 -213 14 -11 49 -13 158 -9 164 5 226 24 274 86 66 85 69 211 6 296
-38 51 -67 59 -235 65 -85 3 -165 4 -177 2z m365 -50 c47 -34 72 -89 72 -162
0 -157 -96 -220 -336 -220 l-124 0 0 206 0 205 178 -3 c167 -3 179 -4 210 -26z"/>
<path d="M6870 2498 l0 -118 -80 0 -80 0 0 -84 0 -84 78 2 77 1 5 -280 c6
-316 7 -322 84 -393 45 -42 107 -62 186 -62 53 0 143 20 152 34 4 6 8 46 8 89
0 77 0 78 -22 70 -13 -4 -49 -8 -80 -8 -46 0 -62 4 -80 23 -23 22 -23 27 -26
278 l-3 256 96 -4 95 -3 0 83 0 82 -95 0 -95 0 0 118 0 117 -110 0 -110 0 0
-117z m193 -3 c0 -55 3 -108 8 -117 8 -15 24 -18 99 -18 l90 0 0 -66 0 -66
-81 5 c-123 8 -118 19 -115 -265 2 -198 5 -238 19 -265 24 -45 77 -66 145 -60
l52 6 0 -60 c0 -59 -1 -60 -35 -75 -19 -8 -64 -14 -102 -13 -116 1 -195 47
-234 137 -17 39 -19 71 -19 302 0 142 -3 265 -6 274 -5 13 -22 16 -80 16 l-74
0 0 65 0 65 68 0 c40 0 73 5 80 12 8 8 12 49 12 120 l0 109 88 -3 87 -3 -2
-100z"/>
<path d="M5037 2376 c-83 -30 -107 -45 -165 -104 -94 -98 -134 -239 -114 -408
28 -241 186 -384 422 -384 133 0 253 42 328 113 30 29 92 116 92 129 0 3 -42
15 -94 28 l-93 22 -47 -50 c-50 -54 -96 -72 -178 -72 -82 0 -132 25 -184 91
-17 22 -34 79 -34 113 l0 31 315 -2 c173 0 316 2 318 5 11 21 -14 217 -34 272
-31 85 -101 160 -187 202 -60 29 -78 33 -172 35 -91 3 -114 0 -173 -21z m281
-10 c28 -8 71 -26 95 -42 53 -34 116 -108 124 -145 3 -16 9 -29 13 -29 10 0
30 -121 30 -189 l0 -61 -306 0 c-352 0 -341 3 -319 -79 28 -103 64 -147 140
-176 66 -26 176 -17 231 17 44 28 69 50 82 74 8 14 15 14 73 -1 95 -24 92 -22
78 -46 -6 -12 -29 -41 -50 -64 -33 -36 -60 -53 -178 -109 -14 -6 -74 -11 -140
-11 -99 0 -125 3 -176 24 -77 31 -140 82 -167 134 -11 23 -24 44 -29 47 -4 3
-16 32 -26 65 -25 86 -24 250 2 333 11 34 23 62 27 62 4 0 8 6 8 13 0 20 66
94 114 126 96 66 250 90 374 57z"/>
<path d="M5120 2246 c-25 -7 -55 -18 -66 -24 -32 -17 -73 -77 -94 -136 -29
-85 -27 -86 221 -86 112 0 210 4 218 9 12 8 12 18 1 72 -12 54 -21 71 -59 109
-67 65 -129 81 -221 56z m177 -40 c46 -31 79 -85 89 -144 l7 -42 -213 0 -213
0 6 41 c9 70 83 152 153 172 44 13 131 -1 171 -27z"/>
<path d="M6126 2376 c-60 -25 -126 -79 -126 -103 0 -7 -4 -13 -10 -13 -6 0
-10 28 -10 64 l0 64 -100 1 -100 2 0 -616 0 -615 100 0 100 0 0 215 c0 118 3
215 6 215 3 0 16 -13 30 -29 39 -47 104 -73 197 -78 109 -7 182 9 255 57 69
44 114 104 150 199 22 58 25 82 25 196 0 123 -1 134 -31 211 -41 101 -106 177
-188 219 -50 25 -73 30 -149 32 -78 3 -98 0 -149 -21z m286 -29 c31 -15 72
-44 92 -64 44 -46 92 -134 106 -198 26 -114 5 -349 -35 -395 -7 -8 -16 -25
-19 -37 -11 -36 -92 -99 -161 -127 -53 -21 -82 -26 -153 -26 -101 0 -171 26
-220 81 -19 22 -34 30 -45 26 -15 -6 -17 -30 -17 -212 l0 -205 -80 0 -80 0 -2
585 -3 585 83 0 82 0 0 -50 c0 -65 21 -77 60 -34 73 80 136 105 255 101 64 -2
91 -7 137 -30z"/>
<path d="M6125 2228 c-16 -6 -42 -22 -57 -35 -14 -14 -31 -22 -37 -18 -7 3
-10 3 -9 -2 3 -12 -25 -83 -33 -83 -4 0 -13 -33 -19 -72 -10 -56 -10 -90 -1
-146 24 -159 100 -234 238 -235 122 -1 207 68 239 195 18 71 15 187 -8 250
-19 53 -72 113 -121 137 -48 23 -139 27 -192 9z m181 -27 c48 -23 75 -52 106
-111 20 -39 23 -59 23 -150 0 -90 -3 -112 -24 -153 -45 -93 -98 -127 -198
-127 -87 0 -107 7 -156 56 -48 48 -67 112 -67 225 0 134 39 217 123 258 55 26
140 27 193 2z"/>
<path d="M8100 2391 c-162 -53 -264 -182 -290 -368 -32 -221 51 -415 212 -496
72 -37 196 -53 284 -38 125 22 233 103 280 209 13 30 24 56 24 57 0 2 -15 6
-32 10 -18 4 -62 15 -97 26 -75 23 -71 22 -71 6 0 -25 -51 -82 -93 -104 -57
-31 -138 -31 -189 1 -75 45 -108 122 -108 247 0 146 47 230 151 263 49 17 56
17 105 1 58 -18 118 -74 130 -121 5 -21 11 -24 28 -19 11 4 55 14 96 23 41 9
77 17 79 19 2 1 -10 31 -26 65 -42 87 -103 153 -177 190 -56 29 -71 32 -171
34 -60 2 -121 0 -135 -5z m245 -26 c54 -17 109 -49 148 -89 25 -25 94 -144 86
-149 -12 -8 -79 -27 -115 -33 -37 -5 -43 -4 -49 15 -22 70 -105 121 -197 121
-88 0 -151 -44 -194 -137 -33 -72 -35 -230 -3 -301 25 -55 62 -97 104 -119 39
-21 161 -21 202 0 30 16 87 74 95 98 3 10 13 10 49 1 24 -6 59 -14 77 -17 17
-4 32 -12 32 -19 0 -19 -59 -108 -90 -136 -50 -44 -58 -49 -112 -70 -83 -33
-179 -37 -268 -11 -182 51 -276 180 -287 391 -6 109 16 205 68 297 26 44 47
67 118 125 53 43 241 61 336 33z"/>
<path d="M8980 2394 c-50 -10 -156 -55 -180 -77 -14 -12 -38 -40 -55 -62 -26
-35 -30 -49 -33 -120 -4 -77 -2 -82 30 -130 40 -61 106 -99 198 -115 36 -6 76
-15 90 -20 14 -5 52 -14 85 -21 69 -13 125 -59 125 -102 0 -78 -135 -131 -241
-96 -42 14 -99 67 -99 91 0 16 -10 18 -105 18 l-105 0 6 -27 c28 -121 123
-208 254 -233 69 -13 227 3 307 31 89 32 156 102 173 182 26 129 -35 235 -163
281 -41 14 -120 33 -240 56 -75 15 -117 49 -117 97 0 49 42 89 103 98 99 15
172 -14 214 -86 17 -29 18 -29 115 -29 l97 0 -20 60 c-26 76 -80 132 -166 172
-55 26 -79 31 -157 34 -50 1 -102 0 -116 -2z m245 -39 c67 -23 130 -76 160
-136 14 -26 25 -53 25 -59 0 -6 -31 -10 -78 -10 l-77 0 -19 35 c-39 72 -177
108 -264 68 -71 -32 -107 -95 -81 -141 30 -54 68 -70 229 -98 47 -9 104 -24
127 -35 24 -10 46 -19 51 -19 16 0 82 -67 101 -105 67 -128 -36 -293 -199
-319 -19 -3 -48 -8 -65 -11 -100 -16 -127 -16 -191 0 -102 25 -180 81 -209
151 -31 74 -31 72 27 69 29 -1 68 -3 86 -4 18 0 32 -6 32 -13 1 -14 45 -68 56
-68 4 0 16 -8 27 -17 15 -14 37 -18 106 -18 78 0 92 3 129 27 81 54 73 149
-16 195 -23 12 -82 29 -130 38 -114 21 -226 60 -262 92 -56 49 -75 135 -50
223 20 72 111 141 220 166 70 17 200 11 265 -11z"/>
<path d="M7458 2004 c1 -210 -2 -409 -6 -443 l-9 -61 106 0 106 0 -3 442 -2
443 -98 1 -97 1 3 -383z m182 -66 l0 -423 -85 3 -85 3 0 420 0 419 85 0 85 0
0 -422z"/>
<path d="M4147 1158 c-8 -6 -5 -10 11 -14 20 -6 22 -13 22 -69 l0 -62 -45 -1
c-25 0 -56 -7 -69 -16 -51 -33 -59 -145 -15 -192 27 -29 83 -32 111 -7 18 16
19 15 34 -5 15 -22 16 -22 45 -5 33 20 39 38 9 28 -19 -6 -20 -2 -20 175 l0
181 -35 -3 c-20 -1 -41 -6 -48 -10z m14 -178 c16 -9 19 -22 19 -81 0 -65 -2
-70 -26 -81 -57 -26 -104 38 -83 114 14 52 48 70 90 48z"/>
<path d="M6055 1159 c-4 -6 2 -13 14 -16 19 -5 21 -13 21 -68 l0 -63 -45 0
c-57 1 -93 -24 -112 -77 -15 -45 -4 -95 30 -132 24 -27 87 -32 107 -8 16 19
30 19 30 1 0 -25 18 -28 50 -9 34 20 40 38 10 30 -19 -5 -20 0 -20 174 l0 179
-39 0 c-22 0 -43 -5 -46 -11z m16 -179 c16 -9 19 -22 19 -72 0 -67 -17 -98
-53 -98 -63 0 -92 106 -42 155 26 27 46 31 76 15z"/>
<path d="M2880 1089 c0 -31 4 -48 10 -44 6 3 10 14 10 24 0 26 20 41 57 41
l33 0 0 -149 c0 -146 -1 -150 -22 -153 -12 -2 -23 -9 -26 -15 -3 -10 14 -13
62 -13 52 0 66 3 66 15 0 8 -7 15 -15 15 -13 0 -15 23 -15 151 l0 150 38 -3
c32 -3 38 -7 48 -36 13 -42 24 -31 24 25 l0 43 -135 0 -135 0 0 -51z"/>
<path d="M4520 1090 c0 -27 2 -50 5 -50 3 0 11 16 19 35 13 31 19 35 50 35
l36 0 0 -150 c0 -143 -1 -150 -20 -150 -11 0 -20 -7 -20 -15 0 -12 13 -15 60
-15 47 0 60 3 60 15 0 8 -7 15 -15 15 -13 0 -15 23 -15 150 l0 150 39 0 c36 0
40 -3 46 -30 7 -30 25 -42 25 -16 0 7 3 28 6 45 l7 31 -142 0 -141 0 0 -50z"/>
<path d="M6430 1090 c0 -57 11 -65 25 -17 9 28 15 32 48 35 l37 3 0 -150 c0
-144 -1 -151 -20 -151 -11 0 -20 -7 -20 -15 0 -12 14 -15 65 -15 51 0 65 3 65
15 0 8 -9 15 -20 15 -19 0 -20 7 -20 150 l0 150 40 0 c37 0 41 -3 47 -30 8
-40 23 -49 23 -13 0 15 3 38 6 51 l6 22 -141 0 -141 0 0 -50z"/>
<path d="M3648 1072 c-10 -2 -18 -15 -20 -30 -2 -19 -10 -28 -25 -30 -13 -2
-23 -10 -23 -18 0 -10 7 -13 25 -8 l25 6 0 -94 c0 -60 4 -98 12 -106 19 -19
73 -14 93 8 22 24 14 36 -13 19 -41 -25 -52 -7 -52 86 l0 86 32 -3 c18 -2 33
2 35 10 3 8 -7 12 -31 12 -32 0 -35 3 -38 33 -2 24 -7 32 -20 29z"/>
<path d="M8988 1072 c-12 -2 -18 -13 -18 -33 0 -26 -3 -29 -31 -29 -20 0 -29
-4 -26 -12 2 -7 15 -13 28 -13 23 0 24 -2 27 -89 2 -50 8 -96 14 -103 15 -19
69 -16 97 6 28 21 13 38 -17 20 -11 -7 -27 -9 -36 -6 -13 5 -16 22 -16 93 l0
87 29 -6 c19 -4 33 -1 41 8 11 13 6 15 -28 15 -39 0 -41 2 -44 33 -2 25 -7 32
-20 29z"/>
<path d="M5538 1043 c-2 -19 -10 -29 -26 -33 -28 -6 -25 -25 3 -25 18 0 20 -8
23 -90 2 -49 8 -95 14 -102 24 -30 114 -1 101 33 -5 13 -8 13 -24 -2 -35 -32
-49 -12 -49 71 0 41 1 78 3 83 1 4 15 7 31 7 45 0 44 23 -1 27 -35 3 -38 5
-35 31 2 21 -1 27 -17 27 -14 0 -21 -8 -23 -27z"/>
<path d="M3245 1013 c-83 -19 -111 -171 -40 -217 34 -22 91 -20 126 5 36 25
29 43 -9 23 -49 -25 -85 -16 -108 28 -8 16 -12 33 -9 39 4 6 39 9 81 8 41 -1
77 1 80 4 7 6 -30 92 -42 99 -17 10 -59 15 -79 11z m57 -40 c10 -9 18 -24 18
-35 0 -15 -8 -18 -55 -18 -61 0 -68 10 -33 47 25 27 45 29 70 6z"/>
<path d="M3848 1009 c-72 -27 -92 -158 -32 -206 36 -29 99 -31 134 -3 28 21
19 41 -10 22 -45 -28 -106 -2 -112 48 -3 25 -2 25 72 26 45 1 76 6 78 13 5 15
-16 77 -31 89 -20 16 -70 21 -99 11z m63 -29 c11 -6 19 -21 19 -35 0 -23 -4
-25 -50 -25 -43 0 -50 3 -50 19 0 19 34 51 53 51 5 0 17 -5 28 -10z"/>
<path d="M4843 1005 c-36 -10 -45 -35 -13 -35 18 0 20 -7 20 -79 0 -71 -2 -80
-20 -86 -39 -12 -19 -25 41 -25 44 0 60 3 57 13 -3 6 -13 13 -24 15 -17 2 -19
10 -16 73 3 61 7 72 28 86 23 15 39 12 39 -8 0 -5 3 -9 8 -9 4 0 11 0 15 0 5
0 9 14 9 30 0 27 -3 30 -32 30 -20 0 -39 -8 -51 -21 l-19 -21 -5 23 c-5 22 -8
23 -37 14z"/>
<path d="M5050 1011 c-19 -3 -33 -10 -30 -16 3 -5 11 -9 18 -7 9 2 12 -19 12
-80 0 -102 14 -128 67 -128 24 0 45 8 60 22 16 15 23 17 23 7 0 -8 4 -20 9
-28 7 -11 14 -10 40 5 34 20 41 37 14 32 -16 -3 -18 7 -18 95 l0 97 -37 0
c-27 0 -38 -4 -38 -15 0 -9 6 -12 15 -8 14 5 15 -5 13 -67 -3 -67 -5 -75 -31
-94 -21 -16 -32 -18 -45 -10 -14 9 -18 29 -20 100 -2 49 -6 91 -10 94 -4 4
-23 4 -42 1z"/>
<path d="M5763 1013 c-12 -2 -34 -18 -48 -34 -20 -24 -25 -41 -25 -84 0 -114
91 -152 189 -79 1 1 0 7 -4 13 -4 7 -14 5 -30 -5 -37 -24 -89 -11 -105 26 -18
44 -7 52 70 49 38 -2 72 -1 75 3 10 10 -13 73 -33 90 -20 18 -58 26 -89 21z
m59 -40 c10 -9 18 -24 18 -35 0 -15 -8 -18 -55 -18 -30 0 -55 4 -55 9 0 16 42
61 57 61 9 0 25 -7 35 -17z"/>
<path d="M7307 1007 c-15 -5 -27 -13 -27 -18 0 -5 -7 -9 -16 -9 -10 0 -14 6
-10 15 6 17 -11 19 -48 5 -31 -11 -34 -30 -6 -30 18 0 20 -7 20 -79 0 -71 -2
-80 -20 -86 -38 -12 -20 -25 35 -25 53 0 76 16 38 26 -15 4 -17 14 -15 57 4
83 10 97 45 112 51 21 67 0 67 -90 0 -64 -2 -73 -20 -78 -41 -11 -20 -27 35
-27 42 0 55 3 55 15 0 8 -7 15 -15 15 -11 0 -14 16 -13 80 1 63 -2 83 -16 99
-21 23 -53 30 -89 18z"/>
<path d="M8018 1012 c-30 -4 -58 -35 -58 -65 0 -27 34 -17 38 11 4 26 45 40
67 22 8 -7 15 -25 15 -40 0 -25 -4 -29 -42 -35 -102 -18 -121 -125 -21 -125
21 0 44 5 51 12 10 10 16 9 29 -4 14 -15 19 -15 45 -2 35 18 37 39 3 30 l-25
-6 0 82 c0 46 -4 89 -8 96 -11 16 -59 29 -94 24z m62 -156 c0 -31 -22 -48 -57
-44 -37 4 -44 40 -11 56 41 19 68 15 68 -12z"/>
<path d="M8470 1007 c-48 -16 -73 -65 -67 -131 3 -38 11 -55 31 -73 35 -29
101 -31 134 -3 30 25 20 47 -11 25 -44 -31 -104 -6 -109 45 -3 25 -2 25 72 25
58 1 76 4 78 16 3 16 -23 85 -35 92 -23 12 -62 14 -93 4z m62 -29 c9 -7 19
-23 23 -35 6 -22 4 -23 -49 -23 -62 0 -72 14 -36 50 23 23 40 25 62 8z"/>
<path d="M3420 988 c-11 -12 -20 -27 -20 -34 0 -23 40 -62 80 -78 33 -13 41
-21 38 -39 -2 -17 -10 -23 -40 -25 -32 -3 -37 0 -40 20 -5 38 -33 28 -33 -12
l0 -35 56 -3 c51 -3 59 0 78 24 38 48 24 79 -51 112 -48 21 -58 38 -36 60 20
20 48 14 58 -13 14 -36 30 -31 30 10 l0 35 -50 0 c-38 0 -54 -5 -70 -22z"/>
<path d="M5326 991 c-10 -11 -16 -31 -14 -48 2 -22 14 -34 56 -56 42 -23 53
-33 50 -50 -2 -18 -10 -22 -38 -22 -28 0 -35 4 -35 20 0 11 -8 21 -18 23 -16
3 -18 -2 -15 -35 3 -38 3 -38 51 -41 65 -4 97 16 97 62 0 36 -19 58 -64 73
-39 12 -54 36 -37 57 20 24 48 20 55 -9 10 -39 38 -32 34 8 -3 31 -5 32 -54
35 -39 2 -54 -1 -68 -17z"/>
<path d="M6751 1001 c-31 -8 -40 -31 -12 -31 20 0 21 -6 21 -81 0 -72 -2 -81
-20 -86 -40 -11 -18 -23 40 -23 59 0 79 13 40 25 -29 9 -29 111 1 149 24 31
45 34 52 6 8 -33 27 -23 27 15 0 31 -3 35 -27 35 -15 0 -37 -10 -50 -22 l-23
-21 0 21 c0 23 -8 25 -49 13z"/>
<path d="M6962 997 c-6 -6 -13 -24 -17 -40 -10 -37 19 -37 37 1 17 35 51 40
72 10 27 -38 21 -55 -25 -62 -56 -9 -78 -22 -90 -53 -15 -41 11 -73 60 -73 22
0 44 6 51 15 11 14 14 13 27 -5 13 -19 16 -19 44 -5 34 18 39 38 6 30 -22 -6
-22 -4 -23 79 0 54 -5 90 -13 100 -17 20 -113 22 -129 3z m108 -135 c0 -46
-80 -71 -88 -28 -5 25 23 46 60 46 21 0 28 -5 28 -18z"/>
<path d="M7494 985 c-26 -40 -11 -71 47 -100 40 -21 50 -30 47 -48 -2 -17 -11
-23 -35 -25 -26 -3 -32 1 -35 20 -5 38 -33 28 -33 -12 0 -35 0 -35 48 -38 69
-4 99 17 95 66 -3 33 -8 40 -53 63 -52 26 -64 53 -34 72 22 14 49 2 49 -23 0
-11 7 -20 15 -20 10 0 15 11 15 35 l0 35 -55 0 c-47 0 -57 -3 -71 -25z"/>
<path d="M7693 1000 c-26 -11 -31 -30 -8 -30 13 0 15 -23 15 -145 0 -120 -3
-147 -15 -151 -29 -11 -15 -19 40 -21 57 -3 82 11 39 21 -23 6 -25 10 -22 59
l3 52 42 -3 c23 -2 51 2 63 8 57 31 80 142 39 194 -26 33 -84 36 -123 5 l-26
-20 0 20 c0 22 -12 25 -47 11z m153 -41 c24 -26 24 -87 1 -123 -16 -23 -24
-27 -60 -24 l-42 3 -3 61 c-3 57 -1 64 24 83 34 27 56 27 80 0z"/>
<path d="M8213 1000 c-27 -11 -30 -30 -5 -30 15 0 17 -11 19 -81 2 -73 0 -82
-18 -86 -40 -11 -16 -23 46 -23 66 0 86 12 40 24 -23 6 -25 10 -25 71 0 52 4
69 20 85 24 24 55 27 46 5 -4 -10 1 -15 14 -15 16 0 20 7 20 30 0 26 -4 30
-28 30 -15 0 -38 -7 -50 -16 -20 -14 -22 -14 -22 0 0 18 -23 20 -57 6z"/>
<path d="M8663 1000 c-28 -12 -30 -30 -3 -30 18 0 20 -7 20 -81 0 -72 -2 -81
-20 -86 -40 -11 -18 -23 40 -23 60 0 82 16 39 27 -19 5 -21 12 -17 74 4 73 20
98 64 99 35 0 44 -20 44 -96 0 -64 -2 -72 -21 -77 -38 -10 -9 -27 47 -27 54 0
75 16 34 27 -18 5 -20 14 -20 88 0 63 -4 88 -16 99 -23 24 -83 20 -111 -6
l-23 -21 0 21 c0 24 -18 27 -57 12z"/>
<path d="M9142 838 c-18 -18 -14 -46 6 -57 22 -12 42 3 42 31 0 23 -33 41 -48
26z"/>
<path d="M4306 825 c-9 -24 4 -45 29 -45 25 0 39 32 22 49 -16 16 -44 13 -51
-4z"/>
<path d="M6217 833 c-13 -13 -7 -42 12 -52 26 -15 60 21 41 44 -13 15 -42 20
-53 8z"/>
</g>
</svg>
