<?xml version="1.0" standalone="no"?>
<!DOCTYPE svg PUBLIC "-//W3C//DTD SVG 20010904//EN"
 "http://www.w3.org/TR/2001/REC-SVG-20010904/DTD/svg10.dtd">
<svg version="1.0" xmlns="http://www.w3.org/2000/svg"
 width="1024.000000pt" height="1024.000000pt" viewBox="0 0 1024.000000 1024.000000"
 preserveAspectRatio="xMidYMid meet">
<metadata>
Created by potrace 1.16, written by Peter Selinger 2001-2019
</metadata>
<g transform="translate(0.000000,1024.000000) scale(0.100000,-0.100000)"
fill="#000000" stroke="none">
<path d="M6167 7969 c-242 -16 -456 -68 -541 -132 -52 -40 -66 -81 -66 -189
l0 -93 88 -23 c162 -43 289 -118 307 -182 5 -19 4 -21 -4 -10 -9 12 -11 11
-11 -8 0 -74 -211 -162 -490 -207 -85 -13 -420 -17 -525 -6 -174 19 -408 76
-446 108 -8 7 -22 13 -29 13 -7 0 -22 7 -32 17 -10 9 -18 11 -18 5 0 -6 -6 -9
-13 -7 -9 4 -12 -10 -12 -55 0 -36 -4 -59 -10 -57 -14 5 -18 69 -10 145 6 54
12 70 41 102 34 37 116 83 171 96 16 3 0 -8 -35 -26 -94 -48 -135 -118 -96
-166 15 -19 16 -19 9 1 -8 23 -8 25 -6 47 2 25 48 71 62 62 7 -4 9 -3 6 3 -8
13 41 36 55 27 6 -4 8 -2 5 3 -8 13 39 27 55 17 6 -4 8 -3 5 3 -6 9 34 21 123
37 14 3 50 10 80 16 121 24 546 21 695 -5 80 -15 149 -37 160 -52 7 -9 19 -14
28 -10 9 3 19 2 22 -4 4 -5 11 -6 17 -3 7 5 9 1 5 -9 -3 -9 -2 -19 4 -22 5 -4
8 -3 7 2 -2 4 0 9 5 11 17 5 27 1 27 -12 0 -8 7 -17 16 -20 14 -5 15 -4 4 9
-11 13 -10 14 4 9 9 -3 16 -10 16 -16 0 -14 27 -38 34 -31 3 4 6 -8 6 -25 0
-23 -8 -37 -32 -56 -18 -14 -30 -26 -26 -26 4 0 23 14 43 31 94 83 -5 186
-230 239 -28 7 -68 18 -90 26 -50 17 -237 34 -375 34 -305 0 -614 -60 -737
-143 -74 -50 -93 -92 -93 -211 l0 -98 -42 6 c-201 30 -417 34 -629 11 -271
-28 -441 -83 -540 -172 -65 -59 -69 -73 -69 -244 0 -134 2 -155 20 -184 92
-148 555 -243 975 -201 88 9 174 19 190 21 23 4 21 2 -9 -8 -22 -8 -42 -19
-44 -27 -3 -7 0 -10 7 -6 6 4 21 -3 33 -15 13 -12 17 -18 9 -14 -8 4 -17 2
-22 -6 -13 -21 -11 -27 8 -25 10 0 18 -6 18 -14 1 -8 6 -14 13 -12 7 1 12 -10
13 -25 1 -16 5 -39 9 -53 5 -15 8 44 8 142 0 195 8 217 92 280 95 69 333 147
497 163 92 8 115 14 108 25 -3 6 2 11 12 11 10 1 -8 7 -40 13 -50 9 -21 11
195 11 139 0 273 3 298 7 39 6 42 6 20 -5 -14 -6 -29 -17 -33 -24 -4 -7 -18
-13 -30 -14 -44 -1 14 -16 111 -29 244 -31 445 -121 498 -222 18 -35 18 -47 0
-23 -13 18 -14 17 -11 -7 3 -29 -32 -83 -77 -118 -39 -30 -210 -96 -308 -119
-147 -34 -259 -45 -465 -45 -227 0 -356 16 -530 65 -60 17 -121 31 -134 31
-14 0 -19 3 -13 7 7 4 -10 15 -40 26 -44 16 -105 58 -106 75 0 3 -4 13 -7 23
-4 9 -5 31 -3 49 5 28 4 29 -9 13 -14 -20 -19 -150 -5 -141 5 3 24 -11 43 -31
19 -20 28 -33 21 -29 -10 6 -11 -2 -6 -36 4 -24 8 -45 10 -47 2 -2 -2 -13 -8
-25 -10 -18 -9 -19 4 -9 13 11 15 6 13 -40 -1 -28 3 -55 8 -58 5 -4 8 -12 5
-19 -3 -9 -9 -8 -21 4 -9 10 -17 13 -17 8 0 -26 78 -74 189 -117 254 -98 673
-123 1031 -60 47 8 94 17 105 20 19 6 20 1 20 -77 1 -100 16 -134 83 -183 146
-106 388 -174 706 -197 326 -23 676 31 886 137 52 26 140 101 140 118 0 7 -5
4 -10 -5 -6 -9 -25 -27 -43 -40 -28 -19 -30 -20 -17 -3 8 11 23 27 34 37 17
14 18 19 7 32 -7 9 -9 16 -4 16 5 0 10 11 11 26 1 14 -2 23 -7 20 -12 -8 -1
35 13 53 9 12 7 13 -8 7 -19 -7 -19 -6 -3 12 10 11 15 26 11 36 -3 9 -2 16 4
16 5 0 8 12 6 27 -1 15 4 39 12 54 20 40 -2 133 -38 155 -6 4 -4 -3 5 -17 21
-30 21 -52 1 -92 -19 -36 -38 -57 -53 -57 -5 0 -16 -6 -23 -14 -56 -55 -307
-133 -503 -155 -346 -40 -677 -8 -984 96 -73 25 -83 30 -121 65 -10 9 -22 13
-27 10 -4 -4 -5 -3 -1 2 4 5 -5 24 -21 41 -21 25 -27 40 -24 61 4 23 2 26 -6
14 -21 -29 -11 4 14 45 63 108 289 198 575 230 129 14 617 26 568 14 -15 -4
-2 -8 42 -13 254 -30 496 -127 575 -230 15 -20 30 -59 37 -94 9 -48 16 -62 32
-66 133 -32 519 -38 701 -11 245 36 418 104 475 186 l23 34 -39 -35 c-21 -19
-31 -26 -21 -14 9 11 17 35 17 52 0 18 4 32 9 32 5 0 9 12 9 28 2 88 13 163
31 201 l19 45 5 -35 c4 -33 4 -33 5 6 1 22 -5 51 -13 65 l-14 25 -2 -25 c-1
-14 -1 -28 0 -32 0 -4 -15 -15 -34 -24 -19 -9 -35 -20 -35 -24 0 -12 -98 -70
-118 -70 -10 0 -22 -4 -28 -9 -16 -17 -189 -56 -333 -77 -121 -17 -395 -20
-496 -5 -38 5 -93 12 -122 15 -147 16 -411 91 -443 126 -3 3 -20 16 -37 29
-23 15 -37 36 -46 69 -12 42 -15 44 -21 24 -5 -13 -10 -21 -12 -19 -11 11 26
75 62 106 53 47 203 115 299 137 75 17 134 41 72 30 -23 -4 -26 -2 -17 9 8 10
8 14 -2 18 -9 3 -6 7 7 13 16 7 9 11 -35 20 -50 10 -39 11 105 10 88 0 216 2
285 6 69 3 115 4 103 1 -13 -2 -23 -9 -23 -14 0 -6 6 -7 13 -3 10 6 10 4 0 -7
-7 -7 -13 -16 -13 -20 0 -4 39 -8 86 -8 84 -1 85 -1 80 22 -3 12 -3 16 0 10 9
-20 24 -15 24 7 0 11 5 20 10 20 6 0 15 10 20 23 5 12 9 16 9 8 1 -11 5 -10
16 5 13 17 14 13 15 -47 l0 -66 63 -7 c34 -3 108 -17 164 -31 216 -52 348
-123 394 -210 l24 -47 270 5 c280 5 375 15 520 59 78 23 190 76 181 85 -3 4 2
15 11 25 13 14 17 42 20 121 3 110 9 151 21 143 4 -2 9 6 10 19 1 13 2 28 3
32 1 4 1 18 0 31 -1 27 -21 30 -21 2 0 -11 -4 -20 -8 -20 -5 0 -19 -9 -32 -20
-13 -11 -29 -20 -36 -20 -7 0 -14 -3 -16 -7 -6 -14 -92 -50 -169 -72 -146 -41
-281 -55 -504 -55 -334 1 -590 44 -745 127 -73 39 -88 54 -96 93 -3 19 -10 31
-15 28 -5 -3 -9 -1 -9 4 0 21 89 90 153 117 l67 29 0 65 c0 152 -87 218 -362
277 -108 23 -154 27 -368 31 -298 6 -436 -8 -599 -63 -186 -63 -221 -88 -221
-160 0 -22 9 -39 32 -60 27 -23 29 -24 10 -3 -22 26 -30 69 -12 69 6 0 10 7
10 15 0 8 6 15 14 15 7 0 19 6 25 14 34 41 194 90 381 117 127 19 513 15 630
-6 112 -19 240 -55 240 -66 0 -4 12 -10 28 -13 33 -8 92 -61 92 -83 0 -8 -15
-30 -34 -49 -41 -41 -31 -46 13 -5 59 55 31 123 -74 176 -27 14 -39 23 -25 20
57 -13 155 -71 177 -104 23 -34 31 -67 14 -56 -6 3 -15 -3 -20 -14 -16 -29
-185 -108 -281 -131 -272 -65 -682 -68 -955 -9 -202 45 -305 98 -305 157 0 13
-4 20 -10 17 -19 -12 -10 14 16 44 36 43 93 74 199 110 l90 30 0 78 c0 98 -18
126 -112 176 -123 64 -297 102 -546 117 -84 5 -156 9 -162 8 -5 0 -68 -5 -138
-9z m256 -16 c-46 -2 -120 -2 -165 0 -46 1 -9 3 82 3 91 0 128 -2 83 -3z
m-305 -10 c-10 -2 -28 -2 -40 0 -13 2 -5 4 17 4 22 1 32 -1 23 -4z m480 0
c-16 -2 -40 -2 -55 0 -16 2 -3 4 27 4 30 0 43 -2 28 -4z m85 -10 c-7 -2 -21
-2 -30 0 -10 3 -4 5 12 5 17 0 24 -2 18 -5z m-78 -16 c11 -2 45 -8 75 -11 30
-4 66 -11 80 -15 14 -5 53 -17 88 -26 34 -10 62 -22 62 -27 0 -4 7 -8 15 -8
24 0 76 -30 70 -40 -3 -5 0 -12 6 -16 8 -5 9 -3 4 6 -5 8 -3 11 6 8 24 -8 35
-55 18 -76 -8 -10 -4 -8 8 5 41 43 -1 103 -105 148 -68 29 -41 29 33 -1 89
-36 145 -89 144 -135 -1 -19 -3 -26 -6 -16 -4 15 -8 13 -33 -12 -112 -111
-508 -181 -868 -152 -86 7 -202 21 -257 32 -111 22 -285 77 -285 90 0 4 -9 10
-19 14 -10 3 -26 20 -35 38 -15 31 -16 30 -16 -65 0 -54 -4 -98 -8 -98 -4 0
-7 12 -6 28 0 15 2 62 2 104 2 71 5 80 32 112 29 32 158 97 192 96 7 -1 -7 -9
-32 -19 -102 -41 -129 -66 -130 -117 0 -22 9 -38 32 -60 26 -23 29 -24 12 -4
-30 35 -37 60 -19 66 8 4 15 13 15 22 0 8 3 13 6 9 3 -3 14 3 23 12 47 47 248
98 456 114 59 5 417 0 440 -6z m502 -299 c-3 -8 -6 -5 -6 6 -1 11 2 17 5 13 3
-3 4 -12 1 -19z m738 2 c39 -4 -20 -7 -163 -7 -122 1 -217 4 -210 9 16 10 291
9 373 -2z m-407 -7 c-10 -2 -28 -2 -40 0 -13 2 -5 4 17 4 22 1 32 -1 23 -4z
m-125 -10 c-7 -2 -19 -2 -25 0 -7 3 -2 5 12 5 14 0 19 -2 13 -5z m654 1 c-3
-3 -12 -4 -19 -1 -8 3 -5 6 6 6 11 1 17 -2 13 -5z m-724 -11 c-7 -2 -19 -2
-25 0 -7 3 -2 5 12 5 14 0 19 -2 13 -5z m794 1 c-3 -3 -12 -4 -19 -1 -8 3 -5
6 6 6 11 1 17 -2 13 -5z m50 -10 c-3 -3 -12 -4 -19 -1 -8 3 -5 6 6 6 11 1 17
-2 13 -5z m-3069 -31 c-16 -2 -40 -2 -55 0 -16 2 -3 4 27 4 30 0 43 -2 28 -4z
m219 1 c-3 -3 -12 -4 -19 -1 -8 3 -5 6 6 6 11 1 17 -2 13 -5z m126 -1 c-7 -2
-21 -2 -30 0 -10 3 -4 5 12 5 17 0 24 -2 18 -5z m-455 -10 c-10 -2 -28 -2 -40
0 -13 2 -5 4 17 4 22 1 32 -1 23 -4z m3492 -225 c-4 -49 -5 -50 -8 -14 -3 34
2 66 10 66 2 0 1 -24 -2 -52z m-1805 -69 c-17 -4 -52 -7 -78 -8 -30 -1 -46 -5
-42 -11 10 -16 -246 -3 -353 19 -18 3 88 6 235 6 147 0 254 -3 238 -6z m220
-65 c283 -42 468 -132 504 -244 9 -30 9 -32 -2 -18 -12 16 -16 13 -43 -25 -67
-94 -292 -165 -608 -192 -79 -6 -321 -7 -351 -1 -11 2 -56 7 -100 11 -84 8
-88 8 -175 26 -59 11 -209 55 -250 72 -75 32 -126 96 -116 146 5 25 4 24 -9
-4 -8 -16 -14 -23 -15 -15 0 8 9 29 19 46 65 107 296 186 626 214 130 11 394
3 520 -16z m-2852 -51 c-45 -2 -122 -2 -170 0 -48 1 -11 3 82 3 94 0 133 -2
88 -3z m140 0 c-7 -2 -21 -2 -30 0 -10 3 -4 5 12 5 17 0 24 -2 18 -5z m-430
-10 c-13 -2 -33 -2 -45 0 -13 2 -3 4 22 4 25 0 35 -2 23 -4z m769 -19 c141
-44 246 -111 269 -172 13 -33 10 -52 -3 -22 l-11 25 -5 -25 c-10 -65 -98 -126
-258 -179 -297 -99 -832 -104 -1115 -11 -35 12 -72 25 -82 31 -10 5 -23 7 -29
3 -7 -4 -8 -3 -4 4 4 8 0 12 -11 12 -10 0 -31 11 -48 25 -28 25 -29 25 -37 6
-4 -12 -1 -32 8 -50 10 -21 14 -57 12 -130 -3 -90 -1 -102 17 -117 19 -15 19
-15 -5 -2 -14 8 -35 30 -47 48 -21 30 -23 44 -23 173 0 167 14 207 89 263 44
32 185 94 213 94 7 -1 -21 -15 -64 -31 -106 -43 -168 -105 -168 -170 0 -11 15
-34 33 -52 17 -18 25 -24 16 -13 -44 56 -45 83 -3 111 13 8 23 20 21 27 -3 14
83 60 116 62 14 0 23 4 21 7 -7 12 40 18 53 7 10 -8 12 -7 8 4 -6 16 75 40
198 58 194 30 732 12 710 -23 -3 -6 -1 -7 6 -3 15 10 73 -3 66 -14 -3 -5 0
-12 6 -16 8 -4 9 -3 5 4 -8 13 21 16 49 6 13 -6 14 -9 3 -16 -8 -5 -2 -6 16
-2 23 5 27 4 21 -6 -6 -10 -4 -12 8 -7 10 3 17 2 17 -4 0 -6 4 -7 10 -4 12 8
52 -13 45 -24 -2 -5 3 -15 12 -22 14 -12 16 -12 8 1 -8 13 -6 13 7 2 9 -8 14
-20 11 -28 -3 -9 0 -14 8 -12 29 7 20 -35 -18 -75 -28 -31 -30 -35 -8 -17 49
40 65 63 65 94 0 65 -88 130 -233 172 -37 10 -67 22 -67 26 0 11 -1 11 92 -18z
m-869 9 c-7 -2 -19 -2 -25 0 -7 3 -2 5 12 5 14 0 19 -2 13 -5z m-60 -10 c-7
-2 -19 -2 -25 0 -7 3 -2 5 12 5 14 0 19 -2 13 -5z m-56 -9 c-3 -3 -12 -4 -19
-1 -8 3 -5 6 6 6 11 1 17 -2 13 -5z m-40 -10 c-3 -3 -12 -4 -19 -1 -8 3 -5 6
6 6 11 1 17 -2 13 -5z m446 -451 c-7 -2 -19 -2 -25 0 -7 3 -2 5 12 5 14 0 19
-2 13 -5z m2317 -243 c20 -6 21 -8 5 -8 -11 0 -31 4 -45 8 -20 6 -21 8 -5 8
11 0 31 -4 45 -8z m-1913 -132 c-3 -7 -5 -2 -5 12 0 14 2 19 5 13 2 -7 2 -19
0 -25z m691 -65 c-10 -2 -28 -2 -40 0 -13 2 -5 4 17 4 22 1 32 -1 23 -4z m135
-10 c-7 -2 -21 -2 -30 0 -10 3 -4 5 12 5 17 0 24 -2 18 -5z m624 -160 c-2 -16
-4 -5 -4 22 0 28 2 40 4 28 2 -13 2 -35 0 -50z m-1287 12 c11 -13 10 -14 -4
-9 -9 3 -16 10 -16 15 0 13 6 11 20 -6z m1347 -130 c0 -8 -4 -12 -9 -9 -5 3
-6 10 -3 15 9 13 12 11 12 -6z m-37 -114 c-6 -13 -6 -21 0 -23 6 -2 12 -13 15
-26 6 -32 15 -43 27 -36 6 4 8 2 4 -4 -3 -6 11 -25 31 -43 32 -27 33 -29 8
-14 -48 28 -77 58 -92 93 -14 34 -10 72 8 72 6 0 6 -7 -1 -19z m30 -17 c0 -8
-4 -12 -10 -9 -5 3 -10 10 -10 16 0 5 5 9 10 9 6 0 10 -7 10 -16z"/>
<path d="M6295 7184 c-235 -23 -377 -54 -480 -105 -53 -26 -68 -39 -85 -73
-25 -53 -25 -68 1 -97 17 -20 19 -21 11 -4 -4 11 -7 26 -6 33 1 6 2 17 3 22 0
6 8 10 16 10 8 0 15 5 15 11 0 5 -5 7 -12 3 -6 -4 -8 -3 -5 3 4 6 23 20 43 32
19 12 32 17 29 11 -3 -6 1 -7 9 -4 9 3 13 11 9 17 -4 6 2 8 15 5 12 -4 20 -2
17 2 -8 13 57 32 69 20 5 -5 15 -10 21 -10 5 0 3 4 -5 10 -19 12 -13 16 30 24
23 5 30 4 21 -2 -8 -6 -9 -12 -3 -16 6 -3 14 3 17 15 5 16 12 19 32 14 16 -4
22 -2 18 5 -9 14 18 13 34 -2 11 -11 12 -10 6 1 -6 11 -4 13 8 8 10 -4 17 -1
17 6 0 8 4 6 10 -3 6 -10 10 -11 10 -2 0 6 10 12 23 11 21 0 21 -1 2 -9 -11
-5 -15 -9 -8 -9 19 -1 43 11 38 19 -3 4 13 10 34 12 22 2 37 0 35 -4 -3 -5 -1
-8 5 -8 5 0 11 4 13 9 2 5 53 10 113 11 150 3 177 2 170 -10 -3 -5 -1 -10 4
-10 6 0 11 5 11 11 0 8 21 10 73 5 93 -9 247 -37 247 -45 0 -3 14 -7 31 -8 32
-2 115 -30 135 -45 6 -4 15 -4 19 0 5 4 5 -2 1 -12 -6 -16 -4 -17 9 -6 14 11
17 10 21 -7 4 -15 11 -19 26 -15 14 3 19 1 14 -6 -4 -7 -2 -12 3 -12 19 0 51
-34 51 -54 0 -11 -15 -36 -32 -55 -27 -29 -29 -32 -8 -19 46 28 63 61 55 107
-10 58 -50 94 -148 132 -144 55 -301 79 -547 83 -118 2 -233 2 -255 0z"/>
<path d="M6643 7123 c9 -2 23 -2 30 0 6 3 -1 5 -18 5 -16 0 -22 -2 -12 -5z"/>
<path d="M6723 7123 c29 -3 36 -7 28 -17 -7 -8 -5 -12 9 -12 15 0 16 4 9 18
-7 13 -20 18 -47 16 l-37 -1 38 -4z"/>
<path d="M6840 7100 c14 -4 36 -8 50 -8 22 0 22 1 -5 8 -16 4 -39 8 -50 8 -16
0 -15 -2 5 -8z"/>
<path d="M5909 7053 c-13 -16 -12 -17 4 -4 16 13 21 21 13 21 -2 0 -10 -8 -17
-17z"/>
<path d="M7040 7050 c8 -5 20 -10 25 -10 6 0 3 5 -5 10 -8 5 -19 10 -25 10 -5
0 -3 -5 5 -10z"/>
<path d="M7278 7553 c7 -3 16 -2 19 1 4 3 -2 6 -13 5 -11 0 -14 -3 -6 -6z"/>
<path d="M8795 7319 c-296 -18 -506 -95 -531 -195 -7 -29 21 -81 56 -102 24
-15 24 -14 -2 9 -33 30 -49 75 -23 65 14 -5 16 -2 12 14 -3 11 -1 17 4 14 5
-3 12 2 15 10 3 9 10 13 15 10 5 -3 9 0 9 6 0 7 7 10 14 7 9 -4 17 2 21 14 4
12 12 18 21 15 8 -3 14 -2 14 2 0 13 98 40 220 61 282 48 639 34 898 -35 43
-12 62 -22 62 -33 0 -12 2 -13 9 -3 6 11 15 10 44 -4 21 -10 37 -24 37 -32 0
-8 9 -16 21 -19 16 -5 18 -8 7 -15 -9 -7 -7 -8 10 -5 17 4 23 0 28 -18 7 -30
1 -40 -48 -76 -50 -36 -38 -39 13 -3 52 36 67 75 46 119 -19 39 -44 58 -124
91 -71 29 -57 31 22 4 134 -46 190 -100 204 -196 l9 -59 1 48 c3 135 -133 221
-441 277 -197 36 -391 44 -643 29z m503 -26 c-10 -2 -26 -2 -35 0 -10 3 -2 5
17 5 19 0 27 -2 18 -5z m239 -39 c-3 -3 -12 -4 -19 -1 -8 3 -5 6 6 6 11 1 17
-2 13 -5z"/>
<path d="M4375 7290 c3 -5 11 -10 16 -10 6 0 7 5 4 10 -3 6 -11 10 -16 10 -6
0 -7 -4 -4 -10z"/>
<path d="M9038 7253 c7 -3 16 -2 19 1 4 3 -2 6 -13 5 -11 0 -14 -3 -6 -6z"/>
<path d="M9123 7253 c9 -2 23 -2 30 0 6 3 -1 5 -18 5 -16 0 -22 -2 -12 -5z"/>
<path d="M8510 7210 c0 -5 5 -10 11 -10 5 0 7 5 4 10 -3 6 -8 10 -11 10 -2 0
-4 -4 -4 -10z"/>
<path d="M8475 7200 c-3 -6 1 -7 9 -4 18 7 21 14 7 14 -6 0 -13 -4 -16 -10z"/>
<path d="M9862 6873 c-2 -83 -13 -117 -50 -155 -14 -16 -21 -28 -15 -28 19 0
62 59 68 93 3 18 5 61 3 97 l-4 65 -2 -72z"/>
<path d="M7600 6830 c-44 -7 -44 -7 -10 -10 24 -2 9 -6 -50 -15 -126 -19 -205
-42 -297 -86 -82 -39 -107 -66 -119 -127 -5 -26 15 -69 46 -97 20 -18 20 -16
-4 19 -14 21 -26 43 -26 48 0 14 57 68 64 61 3 -4 6 -1 6 6 0 8 8 10 23 7 12
-3 16 -3 10 0 -18 8 -16 25 2 18 8 -4 21 -1 29 5 7 6 22 9 32 5 11 -3 9 1 -6
10 -23 14 -23 15 -5 17 11 1 26 2 32 2 7 -1 10 3 8 8 -11 17 182 62 345 80 97
11 407 7 485 -5 53 -9 174 -26 180 -26 3 0 4 -3 2 -7 -3 -5 11 -9 32 -9 54 -2
127 -24 112 -34 -9 -5 -5 -9 14 -14 14 -4 30 -4 35 -1 6 3 17 2 26 -3 14 -8
12 -10 -10 -16 -14 -3 -26 -11 -26 -17 0 -8 5 -7 15 1 8 7 22 9 31 6 14 -5 14
-9 3 -24 -13 -15 -12 -16 3 -3 10 7 15 18 11 24 -4 7 6 2 21 -11 16 -12 35
-22 43 -22 9 0 13 -8 11 -22 -2 -18 1 -22 16 -20 14 3 17 -1 12 -13 -3 -9 -2
-13 4 -10 6 3 10 1 10 -5 0 -14 -32 -70 -40 -70 -3 0 -16 -10 -30 -21 l-25
-21 35 20 c76 44 95 108 53 171 -10 15 -18 30 -18 36 0 15 -101 62 -190 89
-109 33 -210 53 -335 65 -136 13 -502 20 -560 11z m163 -7 c-13 -2 -33 -2 -45
0 -13 2 -3 4 22 4 25 0 35 -2 23 -4z"/>
<path d="M7728 6763 c12 -2 32 -2 45 0 12 2 2 4 -23 4 -25 0 -35 -2 -22 -4z"/>
<path d="M8023 6763 c9 -2 23 -2 30 0 6 3 -1 5 -18 5 -16 0 -22 -2 -12 -5z"/>
<path d="M5090 6750 c10 -7 -6 -10 -55 -10 -213 0 -541 -83 -619 -155 -14 -13
-26 -21 -27 -17 0 4 -7 -9 -14 -28 -23 -60 -19 -96 16 -132 28 -29 29 -30 10
-4 -23 31 -27 52 -11 58 6 2 12 13 12 24 1 13 15 29 35 39 18 10 33 22 33 27
0 5 -4 6 -10 3 -23 -14 -8 4 16 20 15 9 23 12 20 6 -4 -6 -2 -11 3 -11 6 0 11
5 11 11 0 8 5 8 15 -1 11 -9 15 -9 15 -1 0 7 4 9 10 6 5 -3 7 0 4 8 -4 11 19
22 88 45 124 40 398 81 398 60 0 -6 6 -6 14 1 10 8 60 11 158 10 192 -3 238
-8 238 -25 0 -8 4 -14 10 -14 5 0 7 8 4 18 -5 16 -4 16 9 -1 10 -12 16 -14 19
-6 5 15 134 -9 154 -29 8 -7 14 -9 14 -4 0 6 15 6 40 0 22 -6 40 -15 40 -20 0
-5 5 -6 10 -3 6 3 10 -1 10 -10 0 -12 6 -15 23 -10 17 5 19 4 7 -4 -8 -6 -10
-11 -5 -12 47 -6 67 -19 55 -35 -9 -10 -5 -12 19 -9 32 4 52 -12 31 -25 -8 -5
-7 -9 5 -13 9 -4 13 -3 10 3 -9 15 4 12 21 -4 8 -8 14 -22 14 -31 0 -19 -28
-75 -38 -75 -4 -1 -20 -12 -37 -27 l-30 -26 30 18 c106 62 122 139 46 222 -16
17 -46 41 -69 52 -103 53 -348 102 -522 104 -54 1 -91 5 -82 9 9 4 -23 7 -73
7 -62 1 -85 -2 -75 -9z m83 -7 c-13 -2 -33 -2 -45 0 -13 2 -3 4 22 4 25 0 35
-2 23 -4z"/>
<path d="M7595 6750 c3 -5 8 -10 11 -10 2 0 4 5 4 10 0 6 -5 10 -11 10 -5 0
-7 -4 -4 -10z"/>
<path d="M7628 6753 c6 -2 18 -2 25 0 6 3 1 5 -13 5 -14 0 -19 -2 -12 -5z"/>
<path d="M8278 6743 c6 -2 18 -2 25 0 6 3 1 5 -13 5 -14 0 -19 -2 -12 -5z"/>
<path d="M8438 6703 c7 -3 16 -2 19 1 4 3 -2 6 -13 5 -11 0 -14 -3 -6 -6z"/>
<path d="M5107 6686 c-4 -10 -1 -13 8 -9 8 3 12 9 9 14 -7 12 -11 11 -17 -5z"/>
<path d="M5152 6691 c-11 -7 -11 -9 0 -14 9 -3 15 1 15 9 0 8 -1 14 -1 14 -1
0 -7 -4 -14 -9z"/>
<path d="M4936 6675 c4 -8 7 -15 9 -15 2 0 5 7 9 15 3 9 0 15 -9 15 -9 0 -12
-6 -9 -15z"/>
<path d="M5576 6648 c3 -4 9 -8 15 -8 5 0 9 4 9 8 0 5 -7 9 -15 9 -8 0 -12 -4
-9 -9z"/>
<path d="M4720 6621 c0 -6 4 -13 10 -16 6 -3 7 1 4 9 -7 18 -14 21 -14 7z"/>
<path d="M4608 6603 c7 -3 16 -2 19 1 4 3 -2 6 -13 5 -11 0 -14 -3 -6 -6z"/>
<path d="M8620 6590 c-9 -6 -10 -10 -3 -10 6 0 15 5 18 10 8 12 4 12 -15 0z"/>
<path d="M6405 6380 c-247 -20 -457 -77 -567 -154 -48 -34 -63 -149 -25 -188
12 -13 17 -17 10 -8 -18 24 -24 92 -7 86 9 -3 16 4 20 20 4 16 12 23 20 20 8
-3 14 -1 14 5 0 6 5 7 11 3 8 -4 9 0 4 15 -3 12 -2 21 3 21 6 0 12 -5 14 -11
2 -7 10 -4 18 7 12 14 12 16 1 9 -9 -5 -12 -4 -7 3 3 6 29 18 56 27 28 9 50
20 50 24 0 14 84 30 98 19 10 -9 12 -8 10 2 -2 7 3 15 10 17 6 3 10 -1 9 -9
-2 -7 -2 -10 0 -5 3 4 8 5 12 3 4 -3 13 0 21 6 12 8 12 9 -3 4 -11 -3 -16 -2
-12 4 10 16 33 12 37 -6 3 -14 7 -13 31 6 16 13 36 20 47 17 11 -3 20 0 20 5
0 6 12 8 30 5 17 -4 30 -2 30 3 0 5 13 8 29 7 16 -1 27 -5 24 -9 -2 -5 0 -8 6
-8 5 0 11 6 14 13 3 9 8 9 21 -2 9 -8 19 -11 23 -7 3 3 0 6 -8 7 -43 2 34 15
103 18 59 2 83 -1 89 -11 7 -10 9 -10 9 0 0 13 58 12 205 -5 33 -4 64 -6 69
-4 5 1 5 -6 2 -16 -6 -14 -5 -16 5 -5 14 13 63 17 55 3 -3 -4 7 -7 22 -5 33 4
73 -6 67 -16 -2 -4 6 -5 18 -3 13 3 50 -8 82 -23 33 -15 68 -29 78 -30 23 -5
67 -34 67 -45 0 -5 6 -6 14 -3 9 3 17 -3 21 -16 4 -14 12 -19 22 -15 13 4 14
3 3 -10 -10 -12 -10 -15 4 -15 9 0 16 -5 16 -11 0 -5 5 -7 10 -4 6 4 10 -10
10 -33 0 -34 -6 -45 -40 -76 -22 -20 -36 -36 -31 -36 5 0 28 21 51 46 39 43
42 49 37 90 -2 25 -12 53 -21 63 -19 20 -21 35 -4 25 7 -4 8 -3 4 5 -4 6 -11
9 -16 6 -4 -3 -11 2 -14 11 -16 41 -255 122 -441 149 -127 19 -418 26 -560 15z
m-175 -70 c0 -5 -5 -10 -11 -10 -5 0 -7 5 -4 10 3 6 8 10 11 10 2 0 4 -4 4
-10z"/>
<path d="M8793 6305 c0 -38 2 -53 4 -32 2 20 2 52 0 70 -2 17 -4 1 -4 -38z"/>
<path d="M4470 6345 c14 -8 30 -14 35 -14 6 0 -1 6 -15 14 -14 8 -29 14 -35
14 -5 0 1 -6 15 -14z"/>
<path d="M6578 6333 c7 -3 16 -2 19 1 4 3 -2 6 -13 5 -11 0 -14 -3 -6 -6z"/>
<path d="M6795 6321 c-3 -5 -2 -12 3 -15 5 -3 9 1 9 9 0 17 -3 19 -12 6z"/>
<path d="M6376 6305 c4 -8 7 -15 9 -15 2 0 5 7 9 15 3 9 0 15 -9 15 -9 0 -12
-6 -9 -15z"/>
<path d="M6887 6303 c3 -7 6 -13 8 -13 2 0 5 6 8 13 3 8 -1 14 -8 14 -7 0 -11
-6 -8 -14z"/>
<path d="M6335 6290 c-3 -6 1 -7 9 -4 18 7 21 14 7 14 -6 0 -13 -4 -16 -10z"/>
<path d="M6764 6274 c-18 -14 -18 -15 4 -4 12 6 22 13 22 15 0 8 -5 6 -26 -11z"/>
<path d="M7125 6270 c-3 -5 -1 -10 4 -10 6 0 11 5 11 10 0 6 -2 10 -4 10 -3 0
-8 -4 -11 -10z"/>
<path d="M7150 6261 c0 -5 7 -15 17 -22 15 -13 15 -12 4 9 -12 23 -21 28 -21
13z"/>
<path d="M6125 6240 c3 -5 8 -10 11 -10 2 0 4 5 4 10 0 6 -5 10 -11 10 -5 0
-7 -4 -4 -10z"/>
<path d="M7217 6239 c7 -7 15 -10 18 -7 3 3 -2 9 -12 12 -14 6 -15 5 -6 -5z"/>
<path d="M6180 6236 c0 -2 7 -7 16 -10 8 -3 12 -2 9 4 -6 10 -25 14 -25 6z"/>
<path d="M9330 6198 c-68 -11 -427 -14 -495 -4 -48 7 -51 6 -67 -21 -12 -22
-17 -56 -19 -133 l-2 -104 37 -13 c110 -37 370 -42 473 -7 45 14 56 23 73 59
11 23 18 51 14 61 -4 14 -3 15 4 6 7 -11 12 -6 21 19 6 18 10 34 8 35 -2 2
-19 -1 -38 -6 -62 -18 -75 -9 -15 10 56 18 60 18 72 2 8 -10 14 -12 14 -5 0 6
-5 15 -10 18 -7 4 -7 12 0 25 14 26 13 70 -2 69 -7 -1 -38 -6 -68 -11z m-95
-128 c-16 -4 -43 -8 -60 -8 -29 1 -29 1 5 8 19 4 46 7 60 8 22 0 22 -1 -5 -8z
m-147 -17 c-32 -2 -86 -2 -120 0 -35 2 -9 3 57 3 66 0 94 -1 63 -3z m222 -97
c0 -10 -101 -35 -160 -40 -49 -4 -57 -3 -30 4 19 5 56 11 81 14 26 3 57 10 70
15 27 11 39 13 39 7z m-417 -33 c-7 -2 -19 -2 -25 0 -7 3 -2 5 12 5 14 0 19
-2 13 -5z m90 -10 c-7 -2 -19 -2 -25 0 -7 3 -2 5 12 5 14 0 19 -2 13 -5z m90
0 c-7 -2 -21 -2 -30 0 -10 3 -4 5 12 5 17 0 24 -2 18 -5z"/>
<path d="M4360 6121 c0 -5 5 -13 10 -16 6 -3 10 -2 10 4 0 5 -4 13 -10 16 -5
3 -10 2 -10 -4z"/>
<path d="M4336 6063 c15 -33 24 -41 24 -24 0 5 -9 19 -20 32 l-20 24 16 -32z"/>
<path d="M9380 6050 c-8 -19 -15 -38 -18 -42 -2 -5 6 -8 17 -8 27 0 36 21 24
57 l-9 27 -14 -34z"/>
<path d="M4304 6030 c-32 -13 -190 -30 -341 -36 -125 -6 -373 7 -430 22 -14 4
-23 2 -23 -5 0 -6 7 -11 16 -11 13 0 14 -3 5 -13 -8 -10 -2 -22 27 -49 20 -20
44 -38 52 -41 12 -4 12 -6 -2 -6 -9 -1 -30 11 -47 25 l-31 26 0 -24 c1 -31 49
-111 51 -83 1 13 4 9 8 -10 8 -34 4 -46 -9 -25 -5 8 -11 12 -14 9 -11 -11 63
-80 105 -98 53 -24 152 -41 234 -41 109 0 259 33 296 66 8 8 30 17 47 20 18 4
32 11 32 16 0 6 -11 8 -25 6 l-25 -5 25 25 c14 13 25 28 25 33 0 5 9 17 21 27
17 16 21 34 24 101 1 44 2 81 1 80 0 0 -10 -4 -22 -9z m6 -100 c0 -5 -5 -10
-11 -10 -5 0 -7 5 -4 10 3 6 8 10 11 10 2 0 4 -4 4 -10z m-710 -55 l35 -13
-31 -1 c-17 -1 -37 6 -44 14 -15 18 -7 18 40 0z m253 -32 c-13 -2 -35 -2 -50
0 -16 2 -5 4 22 4 28 0 40 -2 28 -4z m-148 -95 c15 -6 13 -8 -13 -5 -46 5 -27
-9 38 -27 53 -15 53 -16 12 -11 -44 6 -115 36 -127 54 -6 11 58 3 90 -11z
m368 -45 c-7 -2 -19 -2 -25 0 -7 3 -2 5 12 5 14 0 19 -2 13 -5z m-120 -10
c-29 -2 -78 -2 -110 0 -32 2 -8 3 52 3 61 0 87 -1 58 -3z"/>
<path d="M7531 5954 c0 -11 3 -14 6 -6 3 7 2 16 -1 19 -3 4 -6 -2 -5 -13z"/>
<path d="M7310 5950 c-9 -6 -10 -10 -3 -10 6 0 15 5 18 10 8 12 4 12 -15 0z"/>
<path d="M8732 5910 c0 -14 2 -19 5 -12 2 6 2 18 0 25 -3 6 -5 1 -5 -13z"/>
<path d="M4342 5857 c-2 -63 19 -117 58 -152 16 -14 12 -5 -11 28 -28 39 -35
61 -40 115 l-6 67 -1 -58z"/>
<path d="M5628 5890 c-32 -8 -58 -17 -58 -21 0 -4 8 -5 19 -2 10 3 22 0 26 -6
3 -6 1 -10 -6 -9 -6 2 -14 -3 -17 -11 -3 -10 0 -12 12 -8 10 4 15 3 11 -3 -9
-15 4 -32 18 -23 7 4 18 8 26 10 24 3 32 19 29 54 l-3 34 -57 -15z"/>
<path d="M8669 5793 l-24 -28 28 24 c15 14 27 26 27 28 0 8 -8 1 -31 -24z"/>
<path d="M7521 5744 c0 -11 3 -14 6 -6 3 7 2 16 -1 19 -3 4 -6 -2 -5 -13z"/>
<path d="M1241 5729 c-313 -33 -618 -144 -716 -261 -69 -81 -77 -130 -56 -313
8 -72 9 -67 4 45 -7 161 2 193 72 268 52 57 153 120 215 136 14 3 1 -5 -28
-18 -137 -64 -218 -192 -167 -260 12 -16 17 -17 28 -7 9 10 9 12 -1 9 -8 -2
-18 7 -23 19 -4 13 -5 22 -1 21 4 -1 17 4 29 12 21 13 21 15 6 33 -16 17 -16
17 1 11 11 -4 22 -1 27 7 8 12 12 11 23 -3 12 -16 14 -16 35 8 12 14 27 22 33
18 7 -4 8 -3 4 4 -4 6 -14 8 -24 5 -9 -3 -14 -3 -10 2 4 4 2 15 -4 24 -10 13
-10 14 1 4 11 -9 19 -8 37 4 13 8 28 12 33 9 13 -9 34 31 24 47 -4 7 4 5 17
-4 14 -9 26 -22 26 -28 1 -6 2 -16 3 -23 0 -6 4 -8 8 -4 10 10 11 46 1 46 -4
0 -8 5 -8 11 0 8 4 8 14 0 11 -9 17 -8 28 2 11 11 16 11 25 2 7 -7 9 -16 5
-19 -3 -4 1 -4 11 0 10 3 17 1 17 -5 0 -6 -6 -11 -12 -11 -7 0 -5 -5 5 -11 14
-8 22 -8 30 0 8 8 8 11 0 11 -6 0 -13 7 -17 15 -8 21 7 19 34 -5 26 -23 38
-26 21 -7 -8 11 -6 18 8 31 11 10 25 15 30 11 7 -4 11 3 10 17 0 13 -3 17 -6
11 -2 -7 -10 -13 -15 -13 -6 0 -8 3 -5 7 4 3 0 15 -10 25 -10 11 -12 18 -4 18
6 0 14 -6 17 -14 5 -14 34 -15 67 -1 12 5 17 2 17 -10 0 -9 -4 -13 -10 -10 -5
3 -10 1 -10 -5 0 -7 7 -9 16 -6 12 5 15 2 10 -10 -4 -10 -1 -14 6 -12 7 3 13
11 14 19 3 43 4 45 13 30 8 -12 12 -12 25 -2 8 7 21 9 27 5 9 -5 10 -2 5 12
-4 10 -4 15 0 11 4 -4 13 -2 21 4 10 9 13 7 13 -7 0 -16 2 -16 10 -4 12 19 19
10 11 -14 -7 -17 -8 -17 -23 -2 -16 15 -17 15 -15 -3 0 -11 5 -17 9 -15 4 3 5
-2 2 -10 -3 -9 -1 -16 6 -16 6 0 8 5 5 10 -3 6 -2 10 3 10 6 0 12 -7 16 -15 3
-8 11 -15 18 -14 10 0 10 2 1 6 -7 2 -13 11 -13 18 0 21 20 68 26 62 3 -3 0
-15 -6 -27 -10 -18 -9 -25 3 -37 11 -12 16 -12 22 -2 5 7 4 10 -3 5 -6 -3 -14
-1 -17 5 -5 7 1 9 16 7 16 -2 24 -9 23 -20 -1 -10 2 -15 8 -12 5 3 8 13 7 22
-3 34 2 38 40 36 29 -1 38 2 34 12 -3 9 -12 10 -26 5 -31 -11 -50 -4 -34 14 9
9 14 10 20 1 5 -8 9 -7 16 2 7 11 13 9 30 -9 14 -16 18 -26 11 -35 -8 -8 -6
-13 6 -18 25 -9 28 -7 13 10 -12 15 -11 16 9 10 12 -4 22 -3 22 2 0 6 13 8 29
6 16 -3 51 4 79 14 27 11 56 16 62 12 9 -6 9 -9 -1 -12 -8 -3 -11 -9 -7 -12 3
-4 16 2 27 13 27 27 27 11 1 -19 -11 -13 -17 -26 -14 -29 3 -3 15 5 27 19 12
16 18 18 14 8 -9 -25 1 -22 23 5 17 20 19 20 25 5 10 -26 27 -22 20 5 -7 22
-7 22 8 2 11 -15 12 -22 4 -28 -8 -6 -5 -7 6 -3 11 4 30 -2 46 -13 22 -16 28
-17 28 -5 0 7 -6 14 -13 14 -7 0 -16 5 -20 12 -5 7 -2 9 7 6 48 -20 52 -21 46
-11 -4 6 6 10 23 11 16 0 32 -3 35 -8 3 -4 -4 -6 -15 -3 -11 3 -20 0 -20 -6 0
-6 -8 -11 -17 -12 -15 0 -15 -2 2 -9 26 -11 44 -12 26 -1 -8 6 7 8 42 7 30 0
53 -4 50 -8 -2 -5 3 -8 11 -8 9 0 16 5 16 12 0 6 9 3 20 -7 11 -10 20 -14 20
-10 0 5 5 4 12 -3 7 -7 22 -12 35 -12 20 0 22 -4 17 -26 -5 -19 -4 -25 5 -20
6 4 11 2 11 -4 0 -8 9 -10 23 -7 12 3 31 -1 41 -9 11 -8 16 -14 10 -14 -5 0
-2 -5 6 -10 13 -9 13 -10 0 -10 -9 -1 -6 -5 8 -10 22 -9 28 -33 16 -64 -3 -9
-10 -13 -15 -10 -5 3 -6 -1 -3 -9 5 -14 -33 -59 -76 -90 -25 -17 -25 -17 6 -3
17 8 45 31 61 50 87 99 57 207 -82 290 -72 44 -64 46 19 6 109 -52 198 -148
195 -212 -1 -18 -3 -16 -10 10 -11 36 -24 45 -15 9 4 -16 -1 -28 -14 -40 -11
-9 -20 -23 -20 -30 0 -15 -62 -75 -69 -67 -2 3 -8 -6 -13 -20 -7 -19 -11 -21
-18 -11 -6 11 -14 8 -36 -15 -15 -16 -24 -23 -20 -17 5 9 2 11 -8 7 -9 -3 -13
-10 -10 -15 3 -5 -3 -6 -12 -2 -12 4 -15 3 -10 -6 4 -6 4 -11 -1 -10 -23 4
-53 -2 -49 -10 8 -12 -20 -22 -41 -14 -11 4 -14 3 -9 -5 5 -8 2 -10 -8 -6 -9
3 -16 2 -16 -2 0 -5 -17 -10 -37 -12 -20 -1 -43 -8 -51 -15 -8 -6 -18 -11 -21
-9 -3 1 -28 -2 -56 -8 -66 -13 -92 -17 -159 -25 -31 -4 -56 -11 -56 -14 0 -4
-14 -5 -31 -3 -24 3 -30 1 -24 -8 5 -9 2 -10 -14 -5 -11 3 -21 3 -21 -2 0 -5
-37 -10 -82 -11 -53 -2 -78 1 -69 7 9 6 1 10 -28 13 -22 2 -41 0 -41 -4 0 -5
12 -9 28 -9 24 -2 24 -2 4 -6 -13 -3 -30 1 -38 7 -10 9 -14 9 -14 1 0 -6 -4
-11 -10 -11 -5 0 -7 7 -4 15 4 9 0 15 -10 15 -10 0 -13 -5 -9 -16 6 -15 4 -15
-18 -1 -13 8 -56 18 -95 21 -38 3 -78 8 -89 12 -11 5 -16 4 -12 -3 3 -5 0 -10
-8 -10 -8 0 -12 4 -10 8 8 12 -33 17 -46 5 -9 -8 -10 -8 -5 2 5 8 0 12 -15 12
-76 0 -312 92 -358 139 -17 17 -34 31 -39 31 -5 0 -16 9 -23 20 -23 33 -42 11
-27 -31 6 -19 16 -37 22 -41 6 -4 8 -8 4 -8 -4 0 0 -9 9 -19 22 -26 46 -84 31
-75 -8 5 -9 -2 -3 -22 5 -16 9 -41 10 -55 1 -14 5 -32 10 -39 5 -9 4 -11 -3
-6 -7 4 -12 2 -12 -3 0 -6 4 -11 9 -11 6 0 9 -9 8 -20 -1 -11 -6 -20 -11 -20
-6 0 4 -13 22 -30 18 -16 37 -30 43 -30 5 0 9 -5 9 -10 0 -11 -42 12 -77 43
-12 11 -20 24 -16 30 3 6 1 7 -5 3 -17 -10 -52 52 -53 94 -1 19 -3 27 -6 17
-35 -137 205 -278 574 -338 125 -21 494 -18 628 4 299 50 507 131 620 242 71
69 78 94 73 295 -3 159 -4 167 -30 212 -79 133 -298 225 -617 257 -120 13
-369 12 -490 0z m426 -12 c3 -4 -90 -6 -208 -5 -121 1 -184 4 -144 7 94 8 343
6 352 -2z m61 -4 c-10 -2 -26 -2 -35 0 -10 3 -2 5 17 5 19 0 27 -2 18 -5z
m-521 -9 c-3 -3 -12 -4 -19 -1 -8 3 -5 6 6 6 11 1 17 -2 13 -5z m606 -1 c-13
-2 -33 -2 -45 0 -13 2 -3 4 22 4 25 0 35 -2 23 -4z m-730 -20 c-7 -2 -19 -2
-25 0 -7 3 -2 5 12 5 14 0 19 -2 13 -5z m854 1 c-3 -3 -12 -4 -19 -1 -8 3 -5
6 6 6 11 1 17 -2 13 -5z m-910 -10 c-3 -3 -12 -4 -19 -1 -8 3 -5 6 6 6 11 1
17 -2 13 -5z m240 -9 c0 -8 -4 -12 -9 -9 -5 3 -6 10 -3 15 9 13 12 11 12 -6z
m53 5 c0 -5 -7 -7 -15 -4 -8 4 -15 8 -15 10 0 2 7 4 15 4 8 0 15 -4 15 -10z
m180 2 c0 -5 -14 -6 -31 -4 -30 4 -31 3 -19 -18 9 -17 14 -19 20 -10 4 7 12
10 18 6 6 -3 15 2 21 11 6 10 11 13 11 6 0 -6 10 -14 23 -16 17 -3 14 -5 -10
-7 -43 -3 -46 -4 -60 -13 -11 -7 -18 -1 -51 38 -11 13 -7 15 33 15 25 0 45 -4
45 -8z m95 -13 c-4 -5 -12 -9 -18 -8 -9 0 -8 2 1 6 6 2 9 10 6 15 -4 7 -2 8 5
4 6 -4 9 -12 6 -17z m115 13 c0 -5 -13 -7 -30 -4 -16 2 -30 6 -30 8 0 2 14 4
30 4 17 0 30 -4 30 -8z m267 2 c-3 -3 -12 -4 -19 -1 -8 3 -5 6 6 6 11 1 17 -2
13 -5z m40 -10 c-3 -3 -12 -4 -19 -1 -8 3 -5 6 6 6 11 1 17 -2 13 -5z m-292
-14 c-3 -5 -12 -10 -18 -10 -7 0 -6 4 3 10 19 12 23 12 15 0z m-641 -8 c-5 -4
-12 -11 -15 -15 -3 -5 -9 -2 -12 5 -3 9 3 14 15 15 11 1 16 -1 12 -5z m222 -7
c-3 -8 -1 -15 4 -15 5 0 11 8 13 18 4 16 5 16 6 -1 1 -17 -24 -35 -35 -25 -5
6 6 38 13 38 3 0 3 -7 -1 -15z m-188 -26 c-3 -8 -7 -3 -11 10 -4 17 -3 21 5
13 5 -5 8 -16 6 -23z m762 27 c0 -2 -7 -7 -16 -10 -8 -3 -12 -2 -9 4 6 10 25
14 25 6z m-900 -20 c0 -3 -4 -8 -10 -11 -5 -3 -10 -1 -10 4 0 6 5 11 10 11 6
0 10 -2 10 -4z m-115 -35 c3 -5 2 -12 -3 -15 -5 -3 -9 1 -9 9 0 17 3 19 12 6z
m92 2 c-9 -2 -15 -9 -11 -14 3 -6 15 -4 29 5 30 20 41 5 15 -19 -11 -10 -20
-13 -20 -7 0 6 -13 9 -30 7 -23 -3 -30 0 -30 13 0 13 2 14 9 4 7 -11 9 -11 14
2 4 9 14 15 24 15 17 -1 17 -2 0 -6z m1223 -73 c0 -5 -5 -10 -11 -10 -5 0 -7
5 -4 10 3 6 8 10 11 10 2 0 4 -4 4 -10z m-1505 -30 c3 -5 1 -10 -4 -10 -6 0
-11 5 -11 10 0 6 2 10 4 10 3 0 8 -4 11 -10z m8 -37 c-6 -15 -19 -17 -27 -4
-7 11 0 18 18 18 8 0 12 -6 9 -14z m1687 -220 c0 -145 -13 -198 -55 -233 -11
-9 -8 -1 8 23 24 35 25 45 24 152 -1 68 -5 115 -11 115 -6 0 -5 5 2 12 7 7 12
25 12 40 0 15 5 28 10 28 6 0 10 -52 10 -137z"/>
<path d="M7487 5653 c-13 -23 2 -93 25 -115 13 -13 16 -17 7 -10 -15 12 -18
11 -24 -7 -4 -15 1 -31 19 -52 14 -17 26 -38 26 -48 0 -19 30 -51 48 -51 6 0
16 -9 21 -19 27 -50 246 -82 421 -63 131 15 204 40 247 84 26 27 32 42 34 85
2 38 6 50 16 46 7 -3 13 0 13 6 0 6 -4 11 -9 11 -5 0 -11 8 -14 18 -3 14 -6
13 -14 -7 -8 -19 -11 -21 -16 -8 -4 10 3 21 19 31 28 19 34 58 7 50 -17 -5
-17 -5 0 9 26 22 21 26 -24 16 -165 -37 -594 -22 -775 27 -12 3 -24 2 -27 -3z
m804 -241 c-5 -10 -18 -25 -28 -33 -13 -10 -12 -7 4 14 13 16 19 36 16 50 -4
19 -3 20 7 5 7 -12 8 -24 1 -36z m-211 -90 c0 -4 -12 -8 -27 -9 -24 -1 -25 -1
-8 7 26 11 35 12 35 2z m-65 -12 c4 -6 -17 -9 -57 -8 l-63 1 50 7 c28 4 53 8
57 8 4 1 10 -2 13 -8z m-128 -6 c-3 -3 -12 -4 -19 -1 -8 3 -5 6 6 6 11 1 17
-2 13 -5z"/>
<path d="M8368 5653 c7 -3 16 -2 19 1 4 3 -2 6 -13 5 -11 0 -14 -3 -6 -6z"/>
<path d="M1712 5603 c-11 -12 -16 -23 -10 -23 6 0 17 8 24 18 11 16 13 15 23
-10 10 -27 31 -47 31 -29 0 6 -5 11 -11 11 -5 0 -8 4 -4 10 3 5 -3 18 -13 28
-18 18 -19 18 -40 -5z"/>
<path d="M5794 5535 c0 -55 1 -76 3 -47 2 29 2 74 0 100 -2 26 -3 2 -3 -53z"/>
<path d="M7464 5510 c0 -69 1 -97 3 -62 2 34 2 90 0 125 -2 34 -3 6 -3 -63z"/>
<path d="M1533 5613 c-14 -3 -20 -9 -16 -18 4 -12 7 -12 20 0 23 24 38 17 17
-7 l-19 -23 23 19 c37 32 30 40 -25 29z"/>
<path d="M1593 5600 c3 -10 0 -21 -7 -24 -6 -2 -5 -5 4 -5 8 -1 21 8 28 20 8
12 9 18 3 14 -6 -3 -11 -1 -11 4 0 6 -5 11 -11 11 -6 0 -9 -9 -6 -20z"/>
<path d="M8501 5617 c2 -1 42 -38 89 -82 55 -52 75 -67 57 -42 -16 20 -25 37
-21 37 3 0 0 8 -7 17 -16 19 -99 73 -113 73 -5 0 -7 -1 -5 -3z"/>
<path d="M1170 5599 c0 -6 5 -7 10 -4 6 3 10 -1 10 -9 0 -9 -5 -16 -12 -16 -6
0 -9 -3 -5 -6 9 -9 32 9 33 26 1 9 -7 17 -17 17 -11 1 -19 -3 -19 -8z"/>
<path d="M1385 5600 c3 -5 8 -10 11 -10 2 0 4 5 4 10 0 6 -5 10 -11 10 -5 0
-7 -4 -4 -10z"/>
<path d="M1463 5579 c-38 -34 -38 -36 -18 -36 8 0 12 3 10 7 -6 9 30 42 37 35
2 -3 5 2 5 10 0 8 -1 15 -1 15 -1 0 -16 -14 -33 -31z"/>
<path d="M5690 5575 c-36 -13 -60 -24 -54 -24 13 -1 134 39 134 45 0 7 -12 4
-80 -21z"/>
<path d="M1053 5570 c5 -29 13 -33 13 -5 0 14 -4 25 -8 25 -4 0 -7 -9 -5 -20z"/>
<path d="M1140 5579 c0 -5 5 -7 10 -4 6 3 10 8 10 11 0 2 -4 4 -10 4 -5 0 -10
-5 -10 -11z"/>
<path d="M1630 5580 c0 -6 7 -10 15 -10 8 0 15 2 15 4 0 2 -7 6 -15 10 -8 3
-15 1 -15 -4z"/>
<path d="M1787 5573 c4 -11 8 -13 11 -5 2 7 9 9 14 6 7 -4 8 -2 4 4 -12 19
-36 15 -29 -5z"/>
<path d="M1390 5572 c0 -4 9 -8 19 -8 11 0 17 4 15 8 -3 4 -12 8 -20 8 -8 0
-14 -4 -14 -8z"/>
<path d="M1673 5565 c0 -8 4 -12 9 -9 5 3 6 10 3 15 -9 13 -12 11 -12 -6z"/>
<path d="M1350 5559 c0 -5 5 -7 10 -4 6 3 10 8 10 11 0 2 -4 4 -10 4 -5 0 -10
-5 -10 -11z"/>
<path d="M1475 5560 c-3 -5 -2 -10 4 -10 5 0 13 5 16 10 3 6 2 10 -4 10 -5 0
-13 -4 -16 -10z"/>
<path d="M1953 5560 c2 -8 7 -14 10 -12 4 1 15 2 24 2 14 0 14 3 5 12 -10 10
-15 10 -21 -1 -7 -11 -10 -11 -15 0 -4 10 -5 10 -3 -1z"/>
<path d="M2030 5559 c0 -5 -4 -8 -8 -5 -5 3 -9 -1 -9 -9 0 -11 4 -12 13 -4 7
5 25 7 41 4 l28 -7 -29 16 c-34 19 -36 19 -36 5z"/>
<path d="M8524 5550 c18 -24 116 -106 116 -97 0 3 -30 31 -67 63 -37 33 -59
48 -49 34z"/>
<path d="M1083 5550 c4 -18 37 -27 37 -10 0 6 -5 8 -11 4 -6 -3 -16 0 -21 7
-8 12 -9 11 -5 -1z"/>
<path d="M1137 5546 c-4 -10 -1 -13 9 -9 7 3 14 9 14 14 0 14 -17 10 -23 -5z"/>
<path d="M1306 5547 c3 -10 9 -15 12 -12 3 3 0 11 -7 18 -10 9 -11 8 -5 -6z"/>
<path d="M1515 5550 c3 -5 8 -10 11 -10 2 0 4 5 4 10 0 6 -5 10 -11 10 -5 0
-7 -4 -4 -10z"/>
<path d="M1900 5549 c0 -5 10 -9 22 -9 12 0 18 3 14 7 -10 11 -36 12 -36 2z"/>
<path d="M1725 5540 c-3 -5 -1 -10 4 -10 6 0 11 5 11 10 0 6 -2 10 -4 10 -3 0
-8 -4 -11 -10z"/>
<path d="M4741 5516 c1 -24 3 -26 6 -8 6 32 18 27 18 -8 0 -22 -4 -29 -15 -25
-8 2 -5 -3 8 -11 12 -9 22 -21 22 -27 0 -14 40 -47 58 -47 9 0 12 -3 9 -6 -12
-13 -69 19 -80 45 l-11 26 -4 -28 c-2 -16 5 -38 17 -56 13 -18 21 -45 21 -68
0 -28 7 -46 23 -60 55 -52 269 -91 427 -78 93 8 245 48 271 71 10 9 19 37 21
66 4 40 12 57 32 74 14 13 26 32 26 42 0 11 7 33 15 48 8 16 15 40 15 53 0 19
-4 22 -22 18 -151 -37 -556 -42 -745 -10 l-113 19 1 -30z m839 -75 c0 -5 -7
-12 -16 -15 -14 -5 -15 -4 -4 9 14 17 20 19 20 6z m-770 -71 c13 -8 13 -10 -2
-10 -9 0 -20 5 -23 10 -8 13 5 13 25 0z m318 -57 c-10 -2 -26 -2 -35 0 -10 3
-2 5 17 5 19 0 27 -2 18 -5z m-298 -58 c11 -13 10 -14 -4 -9 -9 3 -16 10 -16
15 0 13 6 11 20 -6z m403 -72 c-7 -2 -21 -2 -30 0 -10 3 -4 5 12 5 17 0 24 -2
18 -5z"/>
<path d="M783 5504 c-20 -30 -20 -33 -3 -31 10 1 17 4 14 8 -2 4 2 9 9 11 8 2
11 11 8 24 -6 20 -8 19 -28 -12z"/>
<path d="M2036 5531 c-3 -5 5 -11 19 -13 30 -6 32 -2 6 12 -11 6 -22 6 -25 1z"/>
<path d="M2108 5533 c7 -3 16 -2 19 1 4 3 -2 6 -13 5 -11 0 -14 -3 -6 -6z"/>
<path d="M860 5520 c0 -5 7 -7 15 -4 8 4 15 8 15 10 0 2 -7 4 -15 4 -8 0 -15
-4 -15 -10z"/>
<path d="M1046 5518 c3 -5 10 -6 15 -3 13 9 11 12 -6 12 -8 0 -12 -4 -9 -9z"/>
<path d="M1564 5514 c-18 -14 -18 -15 4 -4 12 6 22 13 22 15 0 8 -5 6 -26 -11z"/>
<path d="M1968 5523 c7 -3 16 -2 19 1 4 3 -2 6 -13 5 -11 0 -14 -3 -6 -6z"/>
<path d="M1012 5504 c-7 -8 -8 -14 -3 -14 10 0 25 19 20 25 -2 1 -10 -3 -17
-11z"/>
<path d="M1247 5509 c7 -7 15 -10 18 -7 3 3 -2 9 -12 12 -14 6 -15 5 -6 -5z"/>
<path d="M1648 5513 c7 -3 16 -2 19 1 4 3 -2 6 -13 5 -11 0 -14 -3 -6 -6z"/>
<path d="M1215 5500 c3 -5 8 -10 11 -10 2 0 4 5 4 10 0 6 -5 10 -11 10 -5 0
-7 -4 -4 -10z"/>
<path d="M1446 5495 c-9 -26 -7 -32 5 -12 6 10 9 21 6 23 -2 3 -7 -2 -11 -11z"/>
<path d="M1470 5506 c0 -2 8 -10 18 -17 15 -13 16 -12 3 4 -13 16 -21 21 -21
13z"/>
<path d="M4488 5483 c-20 -16 -41 -37 -48 -47 -7 -10 11 1 39 24 47 40 57 50
48 50 -2 0 -20 -12 -39 -27z"/>
<path d="M8390 5500 c20 -13 33 -13 25 0 -3 6 -14 10 -23 10 -15 0 -15 -2 -2
-10z"/>
<path d="M856 5491 c-4 -5 3 -7 14 -4 23 6 26 13 6 13 -8 0 -17 -4 -20 -9z"/>
<path d="M730 5480 c0 -5 5 -10 11 -10 5 0 7 5 4 10 -3 6 -8 10 -11 10 -2 0
-4 -4 -4 -10z"/>
<path d="M1070 5481 c0 -6 4 -13 10 -16 6 -3 7 1 4 9 -7 18 -14 21 -14 7z"/>
<path d="M1150 5480 c0 -5 5 -10 11 -10 5 0 7 5 4 10 -3 6 -8 10 -11 10 -2 0
-4 -4 -4 -10z"/>
<path d="M1543 5479 c15 -9 16 -13 6 -27 -11 -14 -11 -15 1 -5 22 20 20 39 -4
40 -19 2 -19 1 -3 -8z"/>
<path d="M1710 5480 c-13 -8 -13 -10 2 -10 9 0 20 5 23 10 8 13 -5 13 -25 0z"/>
<path d="M1835 5480 c3 -5 8 -10 11 -10 2 0 4 5 4 10 0 6 -5 10 -11 10 -5 0
-7 -4 -4 -10z"/>
<path d="M985 5460 c-3 -6 1 -7 9 -4 18 7 21 14 7 14 -6 0 -13 -4 -16 -10z"/>
<path d="M1296 5462 c-3 -4 4 -9 15 -9 23 -2 25 3 4 10 -8 4 -16 3 -19 -1z"/>
<path d="M4495 5423 l-60 -46 40 42 c21 22 34 41 29 41 -18 0 -62 -53 -79 -95
l-17 -40 46 44 c25 25 48 42 51 39 3 -3 -9 -17 -27 -30 -18 -14 -41 -41 -51
-59 l-18 -34 21 28 c12 15 43 43 68 63 39 29 47 32 61 21 9 -7 22 -12 29 -11
6 1 19 2 27 3 8 0 15 6 15 12 0 6 -9 8 -20 4 -11 -3 -28 -1 -37 5 -15 10 -14
11 9 7 23 -3 38 7 38 28 0 7 -73 -14 -83 -24 -26 -26 -28 -8 -2 19 39 41 31
37 -40 -17z"/>
<path d="M8615 5440 c10 -11 20 -20 23 -20 3 0 -3 9 -13 20 -10 11 -20 20 -23
20 -3 0 3 -9 13 -20z"/>
<path d="M740 5440 c0 -5 5 -10 11 -10 5 0 7 5 4 10 -3 6 -8 10 -11 10 -2 0
-4 -4 -4 -10z"/>
<path d="M894 5442 c3 -6 -2 -13 -11 -15 -16 -4 -16 -5 -1 -6 21 -1 32 15 17
25 -7 4 -9 3 -5 -4z"/>
<path d="M1816 5438 c3 -4 11 -5 19 -1 21 7 19 12 -4 10 -11 0 -18 -5 -15 -9z"/>
<path d="M715 5430 c3 -5 8 -10 11 -10 2 0 4 5 4 10 0 6 -5 10 -11 10 -5 0 -7
-4 -4 -10z"/>
<path d="M1080 5436 c0 -2 7 -7 16 -10 8 -3 12 -2 9 4 -6 10 -25 14 -25 6z"/>
<path d="M5671 5427 c-1 -12 12 -24 37 -34 25 -12 32 -18 20 -20 -9 -3 -27 1
-40 8 -21 11 -22 11 -9 -5 11 -13 25 -16 63 -13 26 3 48 2 48 -2 0 -4 7 -16
15 -27 14 -16 14 -14 0 14 -9 19 -19 31 -22 28 -8 -8 -100 41 -106 56 -3 8 -6
6 -6 -5z"/>
<path d="M1269 5413 c-13 -16 -12 -17 4 -4 16 13 21 21 13 21 -2 0 -10 -8 -17
-17z"/>
<path d="M685 5409 c-11 -17 1 -21 15 -4 8 9 8 15 2 15 -6 0 -14 -5 -17 -11z"/>
<path d="M1507 5403 c3 -7 6 -13 8 -13 2 0 5 6 8 13 3 8 -1 14 -8 14 -7 0 -11
-6 -8 -14z"/>
<path d="M1265 5380 c-3 -5 -1 -10 4 -10 6 0 11 5 11 10 0 6 -2 10 -4 10 -3 0
-8 -4 -11 -10z"/>
<path d="M606 5365 c4 -8 8 -15 10 -15 2 0 4 7 4 15 0 8 -4 15 -10 15 -5 0 -7
-7 -4 -15z"/>
<path d="M7452 5360 c0 -14 2 -19 5 -12 2 6 2 18 0 25 -3 6 -5 1 -5 -13z"/>
<path d="M720 5359 c0 -5 5 -7 10 -4 6 3 10 8 10 11 0 2 -4 4 -10 4 -5 0 -10
-5 -10 -11z"/>
<path d="M580 5349 c0 -5 5 -7 10 -4 6 3 10 8 10 11 0 2 -4 4 -10 4 -5 0 -10
-5 -10 -11z"/>
<path d="M5656 5341 c-7 -11 61 -28 71 -17 4 3 -5 6 -18 6 -14 0 -30 5 -36 11
-7 7 -13 7 -17 0z"/>
<path d="M5850 5275 c19 -19 36 -35 39 -35 3 0 -10 16 -29 35 -19 19 -36 35
-39 35 -3 0 10 -16 29 -35z"/>
<path d="M614 5251 c7 -11 46 -35 46 -28 0 3 -12 12 -26 22 -15 9 -23 12 -20
6z"/>
<path d="M2110 5240 c-9 -6 -10 -10 -3 -10 6 0 15 5 18 10 8 12 4 12 -15 0z"/>
<path d="M670 5214 c0 -7 91 -46 96 -41 2 2 -18 14 -46 25 -27 11 -50 19 -50
16z"/>
<path d="M840 5150 c0 -5 5 -10 11 -10 5 0 7 5 4 10 -3 6 -8 10 -11 10 -2 0
-4 -4 -4 -10z"/>
<path d="M1010 5126 c0 -2 7 -6 15 -10 8 -3 15 -1 15 4 0 6 -7 10 -15 10 -8 0
-15 -2 -15 -4z"/>
<path d="M1055 5110 c-3 -5 -1 -10 4 -10 6 0 11 5 11 10 0 6 -2 10 -4 10 -3 0
-8 -4 -11 -10z"/>
<path d="M6182 5075 c1 -36 2 -37 5 -7 2 17 9 32 14 32 5 0 7 -11 3 -24 -4
-17 1 -30 20 -49 33 -33 33 -39 1 -27 -27 10 -32 2 -12 -19 10 -11 9 -13 -3
-9 -8 3 -21 15 -27 29 l-13 24 0 -27 c0 -14 11 -39 24 -55 13 -16 28 -44 33
-63 7 -30 18 -40 73 -67 166 -82 401 -92 564 -24 135 56 161 74 164 114 2 19
12 43 23 52 19 18 25 58 13 89 -3 9 -10 14 -15 11 -4 -3 -2 7 6 22 8 15 13 28
12 29 -1 1 -40 -5 -87 -14 -131 -23 -561 -20 -697 5 l-103 19 2 -41z m868 -50
c-7 -8 -17 -15 -22 -15 -6 0 -5 7 2 15 7 8 17 15 22 15 6 0 5 -7 -2 -15z
m-210 -229 c0 -2 -7 -6 -15 -10 -8 -3 -15 -1 -15 4 0 6 7 10 15 10 8 0 15 -2
15 -4z m-110 -20 c8 -2 -48 -4 -125 -4 -77 0 -153 3 -170 7 -16 4 40 5 125 3
85 -2 162 -5 170 -6z m35 4 c3 -5 1 -10 -4 -10 -6 0 -11 5 -11 10 0 6 2 10 4
10 3 0 8 -4 11 -10z"/>
<path d="M7250 5081 c0 -6 5 -11 12 -11 6 0 8 -3 4 -7 -3 -4 4 -13 16 -20 21
-11 21 -12 4 -13 -11 0 -28 7 -38 17 -17 15 -18 15 -18 -1 0 -9 5 -14 10 -11
6 3 10 1 10 -5 0 -7 -8 -9 -19 -5 -12 3 -21 0 -25 -10 -4 -13 -1 -15 14 -10
53 17 77 9 144 -50 36 -32 66 -63 66 -68 0 -6 3 -7 6 -4 13 12 -58 112 -111
157 -56 48 -75 58 -75 41z m81 -68 c13 -16 12 -17 -3 -4 -10 7 -18 15 -18 17
0 8 8 3 21 -13z m49 -38 c7 -9 8 -15 2 -15 -5 0 -12 7 -16 15 -3 8 -4 15 -2
15 2 0 9 -7 16 -15z"/>
<path d="M1390 5060 c-10 -6 -5 -9 18 -8 22 1 29 4 20 9 -16 11 -20 11 -38 -1z"/>
<path d="M1455 5060 c3 -5 8 -10 11 -10 2 0 4 5 4 10 0 6 -5 10 -11 10 -5 0
-7 -4 -4 -10z"/>
<path d="M6026 5055 c-8 -8 -17 -15 -21 -15 -3 0 -15 -9 -27 -20 -12 -11 -17
-20 -11 -20 6 0 16 7 23 15 7 8 16 13 20 10 4 -3 15 6 24 20 18 28 15 33 -8
10z"/>
<path d="M5888 5023 c-37 -39 -88 -151 -88 -193 l0 -35 21 40 c12 22 32 54 45
72 13 17 24 36 24 41 0 5 6 15 13 21 11 9 23 81 14 81 -2 0 -15 -12 -29 -27z
m-2 -41 c-18 -16 -18 -16 -6 6 6 13 14 21 18 18 3 -4 -2 -14 -12 -24z m-31
-61 c-8 -17 -18 -31 -21 -31 -3 0 -4 3 -2 8 21 43 32 61 35 58 3 -2 -3 -18
-12 -35z"/>
<path d="M5931 5018 c-1 -4 3 -18 9 -32 12 -33 41 -33 77 -1 l28 26 -25 -3
c-14 -2 -24 -9 -22 -16 4 -21 -35 -13 -51 11 -9 12 -16 19 -16 15z"/>
<path d="M7217 4979 c-22 -11 -37 -23 -34 -26 3 -2 15 1 28 7 62 34 74 32 133
-26 31 -30 65 -71 76 -92 10 -20 19 -31 20 -24 0 25 -22 57 -83 120 -67 68
-81 72 -140 41z"/>
<path d="M7245 4960 c-15 -6 -11 -8 16 -7 21 1 35 5 32 10 -5 9 -22 8 -48 -3z"/>
<path d="M7466 4927 c3 -10 9 -15 12 -12 3 3 0 11 -7 18 -10 9 -11 8 -5 -6z"/>
<path d="M5781 4873 c-6 -21 -10 -49 -10 -63 1 -14 7 2 14 35 15 68 12 87 -4
28z"/>
<path d="M7491 4854 c0 -11 3 -14 6 -6 3 7 2 16 -1 19 -3 4 -6 -2 -5 -13z"/>
<path d="M1908 4395 c-3 -3 -61 -17 -129 -31 -202 -40 -446 -43 -744 -9 -22 2
-32 2 -22 -1 9 -3 17 -12 17 -20 0 -8 -4 -12 -10 -9 -5 3 -10 1 -10 -5 0 -6 6
-10 13 -9 24 3 37 -1 37 -12 0 -8 -5 -8 -17 1 -10 7 -6 2 8 -11 14 -13 35 -30
45 -36 11 -8 3 -7 -20 2 -21 8 -45 23 -52 33 -22 28 -18 -7 6 -53 11 -22 20
-52 20 -68 0 -42 14 -62 65 -91 73 -44 182 -66 316 -66 181 0 316 33 415 101
39 27 44 34 44 68 0 24 8 48 21 65 15 20 19 34 14 57 -7 29 -8 30 -28 15 -37
-27 -77 -47 -77 -39 1 5 28 25 60 46 33 20 60 42 60 48 0 8 -5 7 -15 -1 -20
-16 -19 -6 1 14 12 13 13 16 1 16 -7 0 -16 -2 -19 -5z m-42 -130 c-11 -8 -25
-15 -30 -15 -6 1 0 7 14 15 32 19 40 18 16 0z m-792 -46 c-4 -6 -11 -6 -20 2
-21 17 -17 31 6 19 11 -6 18 -15 14 -21z m703 15 c-3 -3 -12 -4 -19 -1 -8 3
-5 6 6 6 11 1 17 -2 13 -5z m93 -89 c-7 -9 -15 -13 -19 -10 -3 3 1 10 9 15 21
14 24 12 10 -5z m-743 -48 c18 -10 39 -17 48 -17 9 0 24 -8 33 -17 16 -16 16
-16 -3 -9 -11 5 -29 11 -40 14 -33 9 -95 51 -95 65 1 8 5 6 13 -4 7 -9 26 -23
44 -32z m568 -38 c-33 -11 -80 -22 -105 -24 l-45 -4 40 9 c22 5 63 16 90 24
74 21 89 17 20 -5z m-438 -15 c-3 -3 -12 -4 -19 -1 -8 3 -5 6 6 6 11 1 17 -2
13 -5z m133 -14 c0 -6 -21 -8 -57 -4 -78 9 -79 14 -5 14 35 0 62 -4 62 -10z
m115 0 c-44 -11 -105 -11 -105 -1 0 5 30 9 68 9 50 -1 59 -3 37 -8z"/>
<path d="M2034 4316 c0 -38 2 -42 16 -33 15 9 16 13 2 41 -8 17 -16 32 -17 34
-1 1 -2 -18 -1 -42z"/>
<path d="M2216 4330 c4 -8 18 -32 32 -54 13 -21 35 -66 48 -100 17 -41 23 -50
20 -28 -7 42 -50 130 -83 168 -13 16 -21 22 -17 14z"/>
<path d="M9623 4022 c-29 -20 -51 -37 -49 -40 6 -5 79 42 95 62 18 21 15 20
-46 -22z"/>
<path d="M3195 3975 c114 -98 405 -175 662 -175 128 0 433 43 433 60 0 4 -42
-1 -92 -11 -374 -73 -740 -30 -974 115 -42 26 -50 29 -29 11z"/>
<path d="M9625 3973 c-38 -30 -161 -81 -245 -102 -158 -39 -356 -46 -555 -21
-63 8 -85 7 -74 -4 2 -2 74 -10 160 -17 178 -14 337 -4 474 31 86 22 205 74
245 108 29 25 25 29 -5 5z"/>
<path d="M3182 3944 c15 -16 42 -37 60 -47 32 -17 32 -17 8 0 -13 10 -40 31
-60 48 l-35 29 27 -30z"/>
<path d="M9495 3955 c-25 -12 -26 -14 -5 -9 28 7 60 23 45 23 -5 0 -23 -6 -40
-14z"/>
<path d="M9438 3933 c7 -3 16 -2 19 1 4 3 -2 6 -13 5 -11 0 -14 -3 -6 -6z"/>
<path d="M9370 3920 c-20 -6 -21 -8 -5 -8 11 0 29 3 40 8 25 11 -1 11 -35 0z"/>
<path d="M8775 3899 c42 -14 346 -22 430 -12 57 8 37 9 -115 9 -102 -1 -221 2
-265 6 -59 5 -72 4 -50 -3z"/>
<path d="M9293 3903 c9 -2 25 -2 35 0 9 3 1 5 -18 5 -19 0 -27 -2 -17 -5z"/>
<path d="M3300 3866 c31 -19 131 -58 136 -53 2 2 -28 17 -68 33 -91 36 -99 39
-68 20z"/>
<path d="M8795 3870 c28 -5 73 -8 100 -8 l50 1 -60 7 c-33 4 -78 8 -100 8 -38
-1 -38 -1 10 -8z"/>
<path d="M9253 3873 c9 -2 23 -2 30 0 6 3 -1 5 -18 5 -16 0 -22 -2 -12 -5z"/>
<path d="M8950 3858 c0 -5 39 -7 88 -7 91 2 81 6 -26 11 -34 2 -62 0 -62 -4z"/>
<path d="M9163 3863 c15 -2 37 -2 50 0 12 2 0 4 -28 4 -27 0 -38 -2 -22 -4z"/>
<path d="M4185 3819 c-129 -26 -304 -41 -420 -35 l-100 5 100 -11 c70 -7 135
-7 216 0 140 13 309 42 309 54 0 4 -3 7 -7 7 -5 -1 -48 -10 -98 -20z"/>
<path d="M3470 3799 c14 -6 70 -20 125 -31 164 -34 444 -28 633 13 85 18 53
22 -39 5 -216 -40 -464 -38 -647 5 -92 21 -110 23 -72 8z"/>
<path d="M3568 3803 c6 -2 18 -2 25 0 6 3 1 5 -13 5 -14 0 -19 -2 -12 -5z"/>
<path d="M3623 3793 c9 -2 23 -2 30 0 6 3 -1 5 -18 5 -16 0 -22 -2 -12 -5z"/>
<path d="M4323 3475 c0 -8 2 -13 5 -10 6 5 107 -84 107 -95 0 -5 4 -12 9 -17
5 -5 6 -3 2 5 -10 17 6 15 30 -4 16 -13 16 -15 2 -10 -34 10 -18 -4 32 -29 63
-32 80 -32 20 0 -58 31 -45 31 31 0 195 -79 492 -113 729 -85 175 21 400 79
400 102 0 7 -5 7 -14 -1 -19 -16 -221 -67 -318 -80 -221 -31 -435 -22 -624 24
-176 44 -280 93 -365 172 -28 26 -46 37 -46 28z"/>
<path d="M8667 3430 c-58 -83 -251 -170 -453 -204 -197 -33 -440 -28 -636 13
-49 10 -88 15 -88 11 0 -18 212 -50 375 -57 237 -10 459 27 622 102 85 39 163
94 187 130 19 29 13 34 -7 5z"/>
<path d="M8594 3420 c-5 -5 -34 -23 -64 -39 -56 -31 -64 -44 -9 -16 16 9 34
13 40 10 5 -4 8 -2 7 3 -2 5 8 19 22 30 14 12 23 21 20 22 -4 0 -10 -4 -16
-10z"/>
<path d="M8369 3320 c-47 -16 -137 -36 -200 -46 -182 -26 -516 -11 -660 32
-24 7 -19 -26 6 -36 45 -17 222 -41 275 -37 l55 3 -61 2 c-62 2 -272 36 -282
46 -9 10 19 7 98 -9 121 -25 431 -31 569 -11 101 15 301 69 301 81 0 7 -8 5
-101 -25z"/>
<path d="M4450 3324 c20 -23 191 -95 282 -118 259 -66 589 -57 854 23 38 12
76 25 84 31 22 14 9 12 -41 -6 -89 -32 -258 -64 -399 -76 -254 -21 -511 21
-702 115 -48 23 -82 37 -78 31z"/>
<path d="M8420 3310 c-8 -5 -10 -10 -5 -10 6 0 17 5 25 10 8 5 11 10 5 10 -5
0 -17 -5 -25 -10z"/>
<path d="M5596 3279 c-278 -92 -669 -98 -932 -14 -43 13 -80 22 -82 20 -2 -2
32 -15 76 -29 230 -72 524 -83 792 -30 105 22 240 63 240 75 0 5 -1 9 -2 8 -2
-1 -43 -14 -92 -30z"/>
<path d="M8225 3259 c-22 -6 -71 -14 -110 -19 l-70 -9 75 5 c69 4 211 32 165
32 -11 0 -38 -4 -60 -9z"/>
<path d="M7893 3223 c26 -2 67 -2 90 0 23 2 2 3 -48 3 -49 0 -68 -1 -42 -3z"/>
<path d="M5748 2913 c22 -30 52 -59 102 -96 21 -15 22 -17 5 -13 l-20 6 20
-16 c71 -57 271 -131 430 -159 178 -32 546 -29 650 5 26 9 24 9 -15 4 -307
-38 -527 -30 -750 27 -107 28 -310 113 -298 125 4 3 30 -7 59 -22 307 -155
816 -185 1169 -68 103 35 208 87 250 124 l35 31 -36 -25 c-62 -44 -222 -115
-320 -140 -148 -39 -266 -49 -492 -43 -168 4 -219 9 -307 30 -211 50 -340 109
-439 201 -44 41 -58 51 -43 29z"/>
<path d="M5750 2870 c12 -16 24 -30 26 -30 3 0 -4 14 -16 30 -12 17 -24 30
-26 30 -3 0 4 -13 16 -30z"/>
<path d="M5810 2801 c116 -104 330 -184 565 -212 144 -17 452 -6 577 21 174
36 333 104 413 176 l40 35 -50 -36 c-160 -117 -387 -180 -690 -192 -322 -12
-607 49 -782 168 -104 69 -108 72 -73 40z"/>
<path d="M7203 2734 c-39 -18 -109 -45 -155 -58 -45 -14 -75 -25 -64 -25 28
-1 189 55 253 88 79 41 55 37 -34 -5z"/>
<path d="M2376 2366 c-41 -63 -206 -165 -347 -214 -426 -149 -1000 -108 -1260
90 -62 48 -81 56 -35 15 93 -82 219 -136 416 -178 88 -19 137 -23 305 -23 263
-1 453 31 635 107 132 54 269 150 301 208 14 27 4 23 -15 -5z"/>
<path d="M2320 2257 c-19 -18 -48 -42 -65 -55 -16 -13 -21 -19 -9 -13 21 10
123 100 114 100 -3 0 -21 -14 -40 -32z"/>
<path d="M2166 2150 c-105 -61 -334 -123 -516 -139 -73 -6 -82 -9 -40 -10 170
-4 499 86 595 162 30 24 16 19 -39 -13z"/>
<path d="M1868 2073 c7 -3 16 -2 19 1 4 3 -2 6 -13 5 -11 0 -14 -3 -6 -6z"/>
<path d="M1818 2063 c6 -2 18 -2 25 0 6 3 1 5 -13 5 -14 0 -19 -2 -12 -5z"/>
<path d="M1758 2053 c6 -2 18 -2 25 0 6 3 1 5 -13 5 -14 0 -19 -2 -12 -5z"/>
<path d="M1213 2043 c9 -2 23 -2 30 0 6 3 -1 5 -18 5 -16 0 -22 -2 -12 -5z"/>
<path d="M1678 2043 c12 -2 30 -2 40 0 9 3 -1 5 -23 4 -22 0 -30 -2 -17 -4z"/>
<path d="M1318 2033 c18 -2 45 -2 60 0 15 2 0 4 -33 4 -33 0 -45 -2 -27 -4z"/>
<path d="M1558 2033 c18 -2 45 -2 60 0 15 2 0 4 -33 4 -33 0 -45 -2 -27 -4z"/>
<path d="M1148 2023 c7 -3 16 -2 19 1 4 3 -2 6 -13 5 -11 0 -14 -3 -6 -6z"/>
<path d="M1208 2013 c7 -3 16 -2 19 1 4 3 -2 6 -13 5 -11 0 -14 -3 -6 -6z"/>
<path d="M1283 2003 c9 -2 25 -2 35 0 9 3 1 5 -18 5 -19 0 -27 -2 -17 -5z"/>
<path d="M1423 1993 c20 -2 54 -2 75 0 20 2 3 4 -38 4 -41 0 -58 -2 -37 -4z"/>
</g>
</svg>
