<?xml version="1.0" standalone="no"?>
<!DOCTYPE svg PUBLIC "-//W3C//DTD SVG 20010904//EN"
 "http://www.w3.org/TR/2001/REC-SVG-20010904/DTD/svg10.dtd">
<svg version="1.0" xmlns="http://www.w3.org/2000/svg"
 width="1024.000000pt" height="1024.000000pt" viewBox="0 0 1024.000000 1024.000000"
 preserveAspectRatio="xMidYMid meet">
<metadata>
Created by potrace 1.16, written by Peter Selinger 2001-2019
</metadata>
<g transform="translate(0.000000,1024.000000) scale(0.100000,-0.100000)"
fill="#000000" stroke="none">
<path d="M5177 9874 c-266 -41 -495 -147 -626 -289 -95 -104 -122 -178 -119
-339 l1 -111 7 125 c7 141 29 211 80 270 l31 35 -25 -40 c-30 -48 -59 -132
-51 -145 3 -6 1 -10 -4 -10 -14 0 -14 -47 -1 -55 8 -5 7 -12 -2 -23 -10 -12
-10 -14 0 -8 7 4 12 1 12 -8 0 -9 -5 -16 -10 -16 -11 0 -4 -300 7 -330 3 -8 8
-26 10 -40 3 -24 3 -24 -13 4 -9 15 -19 58 -24 95 -7 64 -7 65 -9 16 -1 -63
12 -112 45 -160 l25 -38 -33 7 c-151 31 -241 38 -453 33 -248 -6 -394 -30
-554 -90 -101 -38 -224 -104 -216 -117 3 -5 0 -12 -6 -16 -8 -5 -9 -3 -4 6 5
8 3 11 -6 8 -8 -3 -14 -10 -14 -16 0 -5 -4 -14 -9 -19 -5 -5 -6 -3 -2 5 4 6 3
12 -2 12 -11 0 -38 -30 -35 -39 1 -3 -18 -27 -42 -52 -62 -66 -112 -184 -98
-237 3 -15 1 -27 -8 -33 -16 -10 -20 -139 -4 -139 6 0 3 -5 -5 -10 -9 -6 -11
-13 -5 -17 6 -5 10 -42 10 -83 0 -99 13 -203 29 -229 4 -5 4 -16 0 -24 -4 -11
-36 -16 -137 -21 -161 -9 -309 -35 -439 -77 -117 -37 -264 -109 -260 -128 1
-7 -2 -10 -8 -6 -28 17 -200 -146 -244 -233 -43 -85 -56 -161 -56 -332 1 -193
12 -285 44 -348 l25 -49 -202 0 c-229 1 -347 -12 -506 -53 -192 -51 -308 -105
-451 -211 -136 -101 -224 -229 -251 -367 -19 -102 -6 -448 20 -534 23 -71 80
-165 99 -161 6 2 9 -3 6 -11 -9 -22 140 -132 251 -185 122 -59 198 -84 336
-110 359 -68 744 -15 1060 146 280 142 421 312 433 526 4 60 10 67 65 67 l48
0 5 -108 c3 -87 9 -117 30 -162 76 -166 288 -326 540 -409 163 -54 267 -72
453 -78 129 -4 197 -2 281 11 297 44 567 161 740 320 61 55 82 83 114 150 38
79 60 165 60 233 0 28 4 33 24 33 13 0 44 3 70 6 l46 7 0 -65 c0 -76 21 -154
61 -224 151 -267 618 -473 1071 -474 412 0 852 179 1008 410 52 78 71 133 77
223 5 68 8 78 27 82 69 14 128 25 136 25 6 0 10 -34 10 -75 0 -133 67 -259
195 -368 328 -280 895 -397 1355 -281 305 77 524 220 610 398 44 92 57 163 67
372 7 146 -4 223 -42 310 -91 205 -342 380 -676 469 -140 37 -285 55 -455 55
l-151 0 24 48 c27 55 41 180 45 392 3 119 0 143 -20 202 -29 83 -72 148 -142
216 -185 179 -444 274 -818 303 -84 6 -164 9 -177 6 -29 -5 -31 3 -10 42 17
35 32 159 40 346 6 152 -2 201 -51 297 -33 66 -133 169 -210 218 -187 118
-457 189 -739 193 -63 1 -114 4 -112 7 2 3 18 36 36 73 33 67 33 70 41 260 5
119 4 213 -2 247 -43 237 -320 433 -698 495 -120 19 -448 19 -573 -1z m-700
-546 c-3 -7 -5 -2 -5 12 0 14 2 19 5 13 2 -7 2 -19 0 -25z m13 -87 c0 -6 -4
-13 -10 -16 -5 -3 -10 1 -10 9 0 9 5 16 10 16 6 0 10 -4 10 -9z m68 -106 c-3
-3 -9 2 -12 12 -6 14 -5 15 5 6 7 -7 10 -15 7 -18z m72 -71 c0 -3 -7 -1 -15 6
-8 7 -15 17 -15 22 0 5 7 3 15 -6 8 -8 15 -18 15 -22z m29 -24 c0 -10 -3 -8
-9 5 -12 27 -12 43 0 25 5 -8 9 -22 9 -30z m31 -10 c0 -5 -2 -10 -4 -10 -3 0
-8 5 -11 10 -3 6 -1 10 4 10 6 0 11 -4 11 -10z m70 -50 c0 -5 -5 -10 -11 -10
-5 0 -7 5 -4 10 3 6 8 10 11 10 2 0 4 -4 4 -10z m1473 -197 c-7 -2 -19 -2 -25
0 -7 3 -2 5 12 5 14 0 19 -2 13 -5z m-70 -10 c-7 -2 -19 -2 -25 0 -7 3 -2 5
12 5 14 0 19 -2 13 -5z m-73 -13 c-14 -4 -34 -8 -45 -8 -16 0 -15 2 5 8 14 4
34 8 45 8 16 0 15 -2 -5 -8z m-1380 -25 c14 -8 21 -14 15 -14 -5 0 -21 6 -35
14 -14 8 -20 14 -15 14 6 0 21 -6 35 -14z m1307 9 c-3 -3 -12 -4 -19 -1 -8 3
-5 6 6 6 11 1 17 -2 13 -5z m-119 -34 c-113 -38 -207 -86 -285 -144 -64 -48
-143 -138 -143 -162 0 -8 -3 -14 -8 -14 -20 0 -36 -71 -37 -157 0 -109 -15
-109 -18 -1 -2 69 1 81 35 147 42 82 33 96 -12 19 -48 -85 -53 -115 -53 -349
1 -204 2 -218 24 -265 13 -27 24 -51 26 -54 2 -3 -75 -4 -170 -2 -592 13
-1038 -205 -1063 -520 -3 -40 -7 -78 -9 -85 -2 -6 1 -14 8 -17 7 -3 6 -5 -3
-5 -27 -2 -19 145 9 200 13 24 31 60 42 80 50 99 243 225 439 287 97 31 257
62 317 62 31 0 36 4 58 53 14 29 30 87 36 130 l11 77 44 0 c30 0 57 -8 85 -26
22 -14 63 -28 90 -31 l49 -6 0 107 0 106 -77 0 c-43 0 -102 3 -130 6 l-53 7 0
81 c0 90 -18 168 -50 223 -11 19 -19 37 -18 39 2 1 21 -1 43 -6 60 -14 321
-33 360 -27 21 4 35 1 38 -6 3 -7 9 -1 15 13 9 24 71 81 138 127 75 53 279
141 329 142 11 0 -19 -13 -67 -29z m-1081 -27 c33 -21 76 -51 94 -67 42 -35
18 -23 -34 17 -20 16 -61 42 -90 58 -28 16 -47 29 -41 29 6 0 38 -17 71 -37z
m-16 -40 c10 -12 5 -11 -18 6 -18 12 -33 24 -33 27 0 9 37 -15 51 -33z m103
-90 c28 -37 13 -26 -39 29 -36 37 -40 43 -14 22 19 -16 43 -39 53 -51z m554
-458 c-3 -3 -9 2 -12 12 -6 14 -5 15 5 6 7 -7 10 -15 7 -18z m-2343 5 c3 -6
-1 -7 -9 -4 -18 7 -21 14 -7 14 6 0 13 -4 16 -10z m25 -36 c0 -8 4 -13 9 -10
5 3 11 -1 15 -9 3 -8 1 -17 -4 -20 -6 -4 -10 -2 -10 3 0 4 -9 18 -20 30 -17
18 -18 22 -5 22 8 0 15 -7 15 -16z m1989 -12 c-5 -2 -9 -10 -9 -18 0 -10 13
-14 43 -14 23 0 37 -4 30 -8 -7 -4 -31 -6 -53 -4 -31 3 -40 8 -36 19 3 8 6 23
6 34 0 16 2 18 14 7 8 -7 10 -14 5 -16z m-1944 -42 c3 -5 1 -10 -4 -10 -6 0
-11 5 -11 10 0 6 2 10 4 10 3 0 8 -4 11 -10z m2330 0 c13 -6 15 -9 5 -9 -8 0
-22 4 -30 9 -18 12 -2 12 25 0z m-106 -44 c-2 -17 0 -36 4 -43 4 -6 1 -13 -6
-16 -10 -4 -13 8 -13 48 1 29 5 51 9 48 5 -3 7 -19 6 -37z m191 -33 c0 -6 -22
7 -42 25 -20 17 -24 3 -6 -18 7 -8 4 -8 -6 2 -30 27 -9 41 25 16 16 -12 29
-23 29 -25z m-2340 2 c0 -5 -5 -3 -10 5 -5 8 -10 20 -10 25 0 6 5 3 10 -5 5
-8 10 -19 10 -25z m43 -20 c-3 -9 -8 -14 -10 -11 -3 3 -2 9 2 15 9 16 15 13 8
-4z m2345 -30 c-3 -3 -9 2 -12 12 -6 14 -5 15 5 6 7 -7 10 -15 7 -18z m-2441
-161 c-3 -3 -12 -4 -19 -1 -8 3 -5 6 6 6 11 1 17 -2 13 -5z m76 -11 c-7 -2
-21 -2 -30 0 -10 3 -4 5 12 5 17 0 24 -2 18 -5z m197 -45 c178 -56 360 -169
421 -261 12 -19 3 -12 -22 16 -99 113 -270 204 -494 263 -50 13 -70 21 -45 18
25 -3 88 -20 140 -36z m2095 22 c239 -53 424 -144 530 -261 31 -35 13 -23 -49
34 -112 101 -279 173 -536 230 -36 8 -58 15 -50 16 8 0 56 -8 105 -19z m1602
-26 c-3 -3 -12 -4 -19 -1 -8 3 -5 6 6 6 11 1 17 -2 13 -5z m-50 -10 c-3 -3
-12 -4 -19 -1 -8 3 -5 6 6 6 11 1 17 -2 13 -5z m-129 -38 c-177 -61 -374 -190
-419 -274 -24 -45 -33 -53 -19 -17 23 63 152 171 280 236 68 35 214 88 240 88
8 0 -29 -15 -82 -33z m-4799 -109 c-2 -2 -20 -14 -39 -26 l-35 -23 30 26 c17
14 34 26 39 26 5 0 7 -1 5 -3z m1618 -84 c17 -21 33 -45 37 -53 4 -8 -3 -1
-16 15 -12 17 -33 40 -45 53 -12 12 -18 22 -13 22 4 0 21 -17 37 -37z m-1750
-25 c-54 -63 -78 -105 -101 -175 -10 -29 -20 -53 -23 -53 -9 0 10 66 33 112
22 44 118 168 130 168 3 0 -15 -24 -39 -52z m2163 -16 c0 -2 -10 -17 -21 -34
-33 -46 -69 -157 -69 -215 l0 -53 -49 0 -48 0 -6 53 c-9 71 -40 158 -75 210
l-28 42 148 0 c81 0 148 -2 148 -3z m1921 -9 c13 -16 12 -17 -3 -4 -10 7 -18
15 -18 17 0 8 8 3 21 -13z m235 -40 l161 -6 -23 -41 c-30 -53 -54 -155 -54
-228 l0 -58 -32 0 c-18 0 -63 3 -99 6 l-66 7 -2 70 c-2 72 -28 167 -62 225
-23 41 -24 46 -1 37 9 -3 89 -9 178 -12z m-2482 -59 c3 -8 2 -12 -4 -9 -6 3
-10 10 -10 16 0 14 7 11 14 -7z m2628 -119 c3 -14 1 -25 -3 -25 -5 0 -9 11 -9
25 0 14 2 25 4 25 2 0 6 -11 8 -25z m-4605 -67 c-3 -8 -6 -5 -6 6 -1 11 2 17
5 13 3 -3 4 -12 1 -19z m2268 -8 c3 -5 1 -10 -4 -10 -6 0 -11 5 -11 10 0 6 2
10 4 10 3 0 8 -4 11 -10z m11 -44 c3 -14 4 -32 2 -42 -2 -10 -8 1 -14 24 -6
23 -7 42 -3 42 5 0 11 -11 15 -24z m-59 -28 c-3 -8 -6 -5 -6 6 -1 11 2 17 5
13 3 -3 4 -12 1 -19z m88 -18 c3 -5 1 -10 -4 -10 -6 0 -11 5 -11 10 0 6 2 10
4 10 3 0 8 -4 11 -10z m2038 -94 l-2 -103 42 8 c23 4 65 8 94 9 l52 0 4 73 c2
39 3 26 1 -31 -3 -115 16 -198 60 -263 l25 -37 -177 6 c-97 2 -178 5 -179 7
-2 1 12 28 30 61 31 58 32 62 35 204 3 134 6 170 15 170 2 0 2 -47 0 -104z
m-2126 -3 c-2 -21 -4 -6 -4 32 0 39 2 55 4 38 2 -18 2 -50 0 -70z m108 67 c13
-6 15 -9 5 -9 -8 0 -22 4 -30 9 -18 12 -2 12 25 0z m-2322 -20 c3 -11 1 -20
-4 -20 -5 0 -9 9 -9 20 0 11 2 20 4 20 2 0 6 -9 9 -20z m4652 0 c3 -5 1 -10
-4 -10 -6 0 -11 5 -11 10 0 6 2 10 4 10 3 0 8 -4 11 -10z m-2295 -26 c16 -15
32 -35 36 -46 3 -10 10 -15 16 -12 7 4 8 2 4 -4 -4 -7 -2 -13 3 -13 6 -1 16
-2 21 -3 6 0 10 -4 10 -8 0 -5 0 -15 0 -23 0 -10 -12 -4 -34 19 -19 19 -37 32
-40 29 -2 -3 -2 4 1 16 5 21 -3 25 -37 22 -12 -2 -12 0 -2 7 11 7 11 10 -2 15
-9 4 -16 11 -16 17 0 15 8 12 40 -16z m-2348 -100 c2 -53 0 -98 -4 -100 -4 -2
-8 41 -10 96 -2 55 0 100 4 100 4 0 8 -43 10 -96z m113 86 c3 -5 3 -15 -1 -21
-6 -11 -23 6 -24 24 0 10 18 9 25 -3z m1982 -37 c-3 -10 -5 -2 -5 17 0 19 2
27 5 18 2 -10 2 -26 0 -35z m2592 10 c9 -7 11 -13 6 -13 -16 0 -35 22 -34 40
0 13 1 13 6 0 4 -8 13 -20 22 -27z m-2480 -90 c3 -98 28 -170 77 -218 l26 -26
-29 8 c-15 4 -109 8 -208 8 -99 -1 -151 2 -116 5 l65 5 23 45 c24 48 39 106
49 183 l5 47 53 0 53 0 2 -57z m2536 37 c3 -6 -1 -7 -9 -4 -18 7 -21 14 -7 14
6 0 13 -4 16 -10z m-4538 -6 c-3 -3 -12 -4 -19 -1 -8 3 -5 6 6 6 11 1 17 -2
13 -5z m2273 -24 c6 -11 15 -18 20 -15 6 3 7 -1 4 -9 -8 -20 -7 -21 -32 14
-13 17 -18 30 -13 30 6 0 15 -9 21 -20z m-2241 -30 c0 -10 -3 -8 -9 5 -12 27
-12 43 0 25 5 -8 9 -22 9 -30z m4545 24 c3 -8 2 -12 -4 -9 -6 3 -10 10 -10 16
0 14 7 11 14 -7z m-237 -56 c-3 -8 -6 -5 -6 6 -1 11 2 17 5 13 3 -3 4 -12 1
-19z m2100 -20 c-3 -7 -5 -2 -5 12 0 14 2 19 5 13 2 -7 2 -19 0 -25z m-6312 4
c-3 -3 -11 0 -18 7 -9 10 -8 11 6 5 10 -3 15 -9 12 -12z m-328 -44 c-3 -8 -6
-5 -6 6 -1 11 2 17 5 13 3 -3 4 -12 1 -19z m51 -103 c-3 -3 -9 2 -12 12 -6 14
-5 15 5 6 7 -7 10 -15 7 -18z m6543 -8 c-10 -9 -11 -8 -5 6 3 10 9 15 12 12 3
-3 0 -11 -7 -18z m-2401 -8 c-25 -4 -58 -7 -75 -7 -25 1 -24 2 10 8 22 4 56 7
75 7 31 0 30 0 -10 -8z m-2374 -10 c-266 -30 -555 -158 -706 -309 -65 -66
-118 -165 -122 -227 -1 -7 -7 -13 -14 -13 -17 0 5 64 43 130 18 31 21 41 9 31
-38 -32 -96 -180 -96 -248 0 -35 -3 -36 -61 -27 -36 6 -37 7 -44 63 -9 72 -40
166 -71 213 -13 21 -24 39 -24 41 0 3 19 1 43 -4 24 -4 93 -11 153 -15 l110
-7 25 29 c103 121 297 236 512 304 73 23 212 49 262 48 46 -1 44 -1 -19 -9z
m625 -19 c159 -36 321 -101 415 -166 52 -36 146 -120 119 -106 -11 5 -29 20
-40 32 -86 96 -321 196 -585 249 -25 5 -35 9 -22 10 12 1 63 -8 113 -19z
m1632 13 c-7 -2 -21 -2 -30 0 -10 3 -4 5 12 5 17 0 24 -2 18 -5z m594 1 c-3
-3 -12 -4 -19 -1 -8 3 -5 6 6 6 11 1 17 -2 13 -5z m-4383 -36 c141 -47 304
-148 366 -229 32 -43 32 -43 -21 10 -94 94 -211 162 -373 217 -55 19 -85 31
-66 28 19 -4 62 -15 94 -26z m3656 7 c-339 -93 -572 -281 -579 -467 -1 -10 -5
-18 -9 -18 -17 0 5 87 37 145 61 111 173 202 339 276 91 40 243 88 277 88 11
0 -18 -11 -65 -24z m783 18 c-7 -2 -19 -2 -25 0 -7 3 -2 5 12 5 14 0 19 -2 13
-5z m119 -24 c44 -12 77 -23 75 -25 -2 -3 -44 7 -93 20 -49 14 -83 25 -75 25
8 1 50 -9 93 -20z m148 -51 c10 -6 7 -7 -10 -2 -14 3 -32 11 -40 16 -10 6 -7
7 10 2 14 -3 32 -11 40 -16z m1215 -8 c-242 -87 -384 -210 -451 -390 -7 -19
-13 -28 -13 -20 -1 9 15 49 34 90 41 85 136 184 229 239 64 38 213 101 236
100 8 0 -7 -9 -35 -19z m-1155 -15 c14 -8 21 -14 15 -14 -5 0 -21 6 -35 14
-14 8 -20 14 -15 14 6 0 21 -6 35 -14z m90 -51 c0 -2 -13 2 -30 11 -16 9 -30
18 -30 21 0 2 14 -2 30 -11 17 -9 30 -18 30 -21z m-6090 21 c0 -2 -10 -9 -22
-15 -22 -11 -22 -10 -4 4 21 17 26 19 26 11z m6140 -51 c0 -2 -9 0 -20 6 -11
6 -20 13 -20 16 0 2 9 0 20 -6 11 -6 20 -13 20 -16z m-6305 -56 c-67 -53 -133
-124 -169 -180 -38 -59 -70 -144 -62 -165 3 -7 1 -13 -5 -13 -6 0 -9 -7 -5
-15 3 -8 2 -15 -2 -15 -11 0 -9 -42 2 -59 6 -9 5 -12 -2 -7 -6 3 -12 -3 -15
-16 -2 -13 -5 -4 -6 19 -3 109 56 255 140 347 51 56 143 136 157 136 4 0 -11
-14 -33 -32z m6450 -59 c17 -20 7 -13 -25 15 -77 69 -92 85 -45 49 22 -17 54
-46 70 -64z m-2424 14 c13 -16 12 -17 -3 -4 -10 7 -18 15 -18 17 0 8 8 3 21
-13z m100 -30 c13 -16 12 -17 -3 -4 -10 7 -18 15 -18 17 0 8 8 3 21 -13z m-35
-59 c15 -25 25 -46 23 -48 -2 -2 -18 21 -36 50 -17 30 -27 52 -22 49 5 -4 21
-26 35 -51z m383 -17 c-32 -60 -59 -161 -59 -224 l0 -43 -70 0 -70 0 0 33 c0
54 -29 148 -65 214 l-34 62 152 4 c84 1 157 4 164 5 6 1 -2 -22 -18 -51z
m2394 -28 c-29 -59 -53 -160 -53 -221 0 -26 -3 -49 -7 -51 -5 -3 -43 -8 -85
-12 l-78 -7 0 39 c0 79 -53 226 -101 278 -18 20 -18 20 164 20 l182 0 -22 -46z
m-403 1 c6 -11 8 -20 6 -20 -3 0 -10 9 -16 20 -6 11 -8 20 -6 20 3 0 10 -9 16
-20z m-2000 -145 c0 -14 -4 -25 -9 -25 -4 0 -6 11 -3 25 2 14 6 25 8 25 2 0 4
-11 4 -25z m-2373 -35 c0 -56 -3 -59 -11 -15 -5 26 0 65 8 65 1 0 3 -23 3 -50z
m-50 -127 c-3 -10 -5 -2 -5 17 0 19 2 27 5 18 2 -10 2 -26 0 -35z m2380 -85
c-2 -24 -4 -7 -4 37 0 44 2 63 4 43 2 -21 2 -57 0 -80z m2390 65 c-3 -10 -5
-4 -5 12 0 17 2 24 5 18 2 -7 2 -21 0 -30z m-168 -58 c-1 -46 -4 -83 -8 -81
-7 5 -2 166 5 166 3 0 4 -38 3 -85z m-2372 53 c-3 -8 -6 -5 -6 6 -1 11 2 17 5
13 3 -3 4 -12 1 -19z m-2330 -80 c-2 -18 -4 -6 -4 27 0 33 2 48 4 33 2 -15 2
-42 0 -60z m110 0 c-2 -13 -4 -3 -4 22 0 25 2 35 4 23 2 -13 2 -33 0 -45z
m-2300 -6 c2 -55 7 -76 18 -84 6 -5 5 -8 -3 -8 -9 0 -10 -5 -2 -19 12 -24 13
-34 2 -27 -5 3 -9 -2 -9 -10 0 -8 6 -13 14 -10 9 4 9 -1 -3 -19 -9 -14 -12
-25 -7 -25 6 0 8 -12 5 -27 -3 -18 1 -30 13 -39 11 -9 16 -21 12 -35 -7 -26 5
-60 29 -84 14 -13 15 -17 4 -14 -19 6 -56 81 -69 141 -15 66 -26 298 -15 298
5 0 10 -17 11 -38z m4804 -9 c13 -16 12 -17 -3 -4 -10 7 -18 15 -18 17 0 8 8
3 21 -13z m2403 -29 c3 -8 2 -12 -4 -9 -6 3 -10 10 -10 16 0 14 7 11 14 -7z
m-4774 -4 c0 -5 -2 -10 -4 -10 -3 0 -8 5 -11 10 -3 6 -1 10 4 10 6 0 11 -4 11
-10z m2430 -39 c0 -11 -6 -9 -20 7 -11 12 -20 24 -20 27 0 3 9 0 20 -7 11 -7
20 -19 20 -27z m-2406 3 c3 -8 11 -12 17 -8 8 4 9 3 5 -4 -10 -17 -19 -15 -34
8 -7 11 -8 20 -3 20 5 0 12 -7 15 -16z m4790 0 c3 -8 2 -12 -4 -9 -6 3 -10 10
-10 16 0 14 7 11 14 -7z m34 -39 c-3 -3 -9 2 -12 12 -6 14 -5 15 5 6 7 -7 10
-15 7 -18z m-2353 -18 c4 4 5 2 1 -4 -5 -8 -1 -13 10 -13 15 0 16 -2 5 -12
-10 -11 -14 -10 -22 4 -5 9 -16 23 -24 31 -8 8 -11 18 -8 21 4 4 12 -3 18 -14
6 -11 15 -17 20 -13z m-2400 4 c3 -6 -3 -9 -14 -8 -11 0 -17 5 -15 9 7 11 22
10 29 -1z m6722 -48 c-3 -10 -5 -4 -5 12 0 17 2 24 5 18 2 -7 2 -21 0 -30z
m-4252 -13 c-3 -5 -14 -10 -23 -9 -14 0 -13 2 3 9 27 11 27 11 20 0z m-4968
-52 c-3 -8 -6 -5 -6 6 -1 11 2 17 5 13 3 -3 4 -12 1 -19z m9210 -10 c-3 -8 -6
-5 -6 6 -1 11 2 17 5 13 3 -3 4 -12 1 -19z"/>
<path d="M3123 8548 c-72 -75 -116 -164 -127 -253 -6 -44 -4 -41 13 23 27 96
63 161 125 222 28 28 46 50 40 50 -5 0 -28 -19 -51 -42z"/>
<path d="M2991 8224 c0 -11 3 -14 6 -6 3 7 2 16 -1 19 -3 4 -6 -2 -5 -13z"/>
<path d="M2991 8164 c0 -11 3 -14 6 -6 3 7 2 16 -1 19 -3 4 -6 -2 -5 -13z"/>
<path d="M2992 8034 c-2 -109 7 -177 33 -238 25 -58 28 -37 3 25 -15 40 -23
88 -28 184 l-7 130 -1 -101z"/>
<path d="M2629 5128 c-7 -13 -34 -52 -61 -88 l-49 -65 44 48 c41 45 95 127 83
127 -3 0 -11 -10 -17 -22z"/>
<path d="M7807 5059 c14 -28 95 -123 133 -154 19 -16 8 -1 -25 35 -33 36 -73
81 -88 100 -15 19 -24 28 -20 19z"/>
<path d="M7275 5034 c-9 -15 -12 -23 -6 -20 11 7 35 46 28 46 -3 0 -12 -12
-22 -26z"/>
<path d="M7234 4978 l-19 -23 23 19 c12 11 22 21 22 23 0 8 -8 2 -26 -19z"/>
<path d="M2510 4954 c1 -5 19 -29 42 -54 36 -40 39 -41 22 -12 -21 36 -64 81
-64 66z"/>
<path d="M7858 4923 c-18 -21 -31 -43 -25 -43 2 0 13 14 25 30 25 33 24 41 0
13z"/>
<path d="M4860 4921 c0 -5 5 -13 11 -16 6 -4 24 -25 40 -47 38 -54 38 -39 -1
17 -32 46 -50 63 -50 46z"/>
<path d="M3195 4900 c10 -11 20 -20 23 -20 3 0 -3 9 -13 20 -10 11 -20 20 -23
20 -3 0 3 -9 13 -20z"/>
<path d="M7980 4876 c0 -2 8 -10 18 -17 15 -13 16 -12 3 4 -13 16 -21 21 -21
13z"/>
<path d="M5590 4866 c0 -2 8 -10 18 -17 15 -13 16 -12 3 4 -13 16 -21 21 -21
13z"/>
<path d="M2265 4783 c-102 -54 -272 -109 -400 -128 -130 -19 -330 -19 -464 1
-104 15 -295 71 -338 100 -34 21 -39 17 -13 -11 12 -13 27 -22 33 -18 6 3 7 1
4 -4 -4 -6 20 -35 53 -63 45 -39 59 -57 55 -71 -5 -15 8 -25 70 -54 57 -27 75
-41 71 -52 -5 -11 -2 -13 9 -9 9 3 13 2 10 -4 -10 -16 87 -58 176 -76 182 -37
409 4 509 90 26 23 70 53 99 68 49 27 63 49 40 63 -6 4 16 30 51 62 53 49 128
141 118 147 -1 1 -39 -17 -83 -41z m45 -7 c0 -3 -4 -8 -10 -11 -5 -3 -10 -1
-10 4 0 6 5 11 10 11 6 0 10 -2 10 -4z m-1185 -74 c-3 -3 -11 0 -18 7 -9 10
-8 11 6 5 10 -3 15 -9 12 -12z m1105 -6 c0 -2 -8 -10 -17 -17 -16 -13 -17 -12
-4 4 13 16 21 21 21 13z m-1049 -43 c13 -16 12 -17 -3 -4 -10 7 -18 15 -18 17
0 8 8 3 21 -13z m987 -69 c-13 -13 -20 -14 -34 -4 -13 8 -14 10 -3 7 9 -3 22
-1 30 4 22 14 25 11 7 -7z m-88 -28 c-14 -7 -36 -16 -50 -20 -14 -3 -7 3 15
13 45 22 73 27 35 7z"/>
<path d="M8030 4819 c0 -26 62 -139 101 -182 43 -50 139 -104 201 -114 30 -4
37 -9 33 -22 -14 -45 88 -99 242 -130 181 -37 269 -25 297 42 7 18 28 46 47
61 27 23 34 25 39 12 4 -13 15 -12 85 12 45 15 103 41 130 59 59 38 125 103
105 103 -9 0 -6 6 8 16 30 21 28 35 -3 21 -14 -7 -25 -18 -25 -24 0 -7 -4 -13
-8 -13 -5 0 -9 7 -9 15 0 12 43 36 71 39 10 1 21 26 11 26 -3 0 -23 -9 -45
-20 -64 -33 -205 -69 -334 -86 -203 -27 -446 -5 -646 58 -105 33 -224 85 -270
118 -19 14 -30 17 -30 9z m1234 -200 c-27 -29 -122 -89 -140 -89 -4 0 19 16
52 36 32 19 70 46 84 60 35 35 39 30 4 -7z m-921 -76 c-7 -2 -19 -2 -25 0 -7
3 -2 5 12 5 14 0 19 -2 13 -5z m52 -23 c3 -5 1 -10 -4 -10 -6 0 -11 5 -11 10
0 6 2 10 4 10 3 0 8 -4 11 -10z m695 -5 c-14 -8 -34 -14 -45 -14 -13 0 -7 5
15 13 47 18 61 18 30 1z"/>
<path d="M5699 4757 c14 -27 47 -71 74 -98 26 -27 47 -58 47 -68 0 -23 56 -69
127 -105 64 -32 67 -32 59 -2 -5 19 -1 26 13 31 22 7 103 -23 96 -35 -9 -15
51 -68 91 -79 114 -32 320 -18 449 30 74 28 180 107 180 136 1 12 21 39 51 67
43 38 89 104 80 113 -1 1 -33 -10 -72 -26 -325 -132 -817 -114 -1135 42 l-86
42 26 -48z m466 -247 c13 -6 5 -7 -25 -3 -25 3 -47 7 -49 9 -9 8 55 2 74 -6z"/>
<path d="M4620 4765 c-160 -80 -336 -122 -560 -132 -153 -7 -263 5 -420 43
-88 22 -139 41 -297 110 -8 4 -9 -4 -4 -28 12 -49 38 -95 84 -145 46 -50 97
-79 202 -114 65 -21 68 -24 40 -29 l-30 -7 47 -22 c76 -35 195 -61 309 -68
124 -7 164 3 223 56 25 23 75 50 126 70 124 48 194 88 248 141 42 41 110 146
100 155 -1 1 -32 -12 -68 -30z m-70 -115 c-35 -24 -54 -31 -30 -11 14 11 30
21 35 21 6 0 3 -5 -5 -10z m-1030 -46 c0 -2 -9 0 -20 6 -11 6 -20 13 -20 16 0
2 9 0 20 -6 11 -6 20 -13 20 -16z m936 -12 c-9 -14 -125 -83 -154 -91 -15 -5
-36 -5 -47 -1 -15 5 -9 9 25 14 26 4 74 24 110 46 70 42 74 44 66 32z m-226
-126 c0 -3 -4 -8 -10 -11 -5 -3 -10 -1 -10 4 0 6 5 11 10 11 6 0 10 -2 10 -4z"/>
<path d="M2868 3293 c7 -3 16 -2 19 1 4 3 -2 6 -13 5 -11 0 -14 -3 -6 -6z"/>
<path d="M7433 3293 c15 -2 37 -2 50 0 12 2 0 4 -28 4 -27 0 -38 -2 -22 -4z"/>
<path d="M5145 3280 l-30 -8 33 -1 c17 0 32 4 32 9 0 6 -1 9 -2 9 -2 -1 -16
-5 -33 -9z"/>
<path d="M2904 3165 c0 -66 1 -92 3 -57 2 34 2 88 0 120 -2 31 -3 3 -3 -63z"/>
<path d="M7393 3235 c0 -27 2 -38 4 -22 2 15 2 37 0 50 -2 12 -4 0 -4 -28z"/>
<path d="M7501 3264 c0 -11 3 -14 6 -6 3 7 2 16 -1 19 -3 4 -6 -2 -5 -13z"/>
<path d="M5104 3025 c0 -137 2 -195 3 -128 2 67 2 179 0 250 -1 70 -3 16 -3
-122z"/>
<path d="M5194 3020 c0 -140 2 -198 3 -127 2 70 2 184 0 255 -1 70 -3 12 -3
-128z"/>
<path d="M2823 3130 c0 -41 2 -58 4 -37 2 20 2 54 0 75 -2 20 -4 3 -4 -38z"/>
<path d="M7492 3125 c0 -16 2 -22 5 -12 2 9 2 23 0 30 -3 6 -5 -1 -5 -18z"/>
<path d="M7383 3020 c0 -30 2 -43 4 -27 2 15 2 39 0 55 -2 15 -4 2 -4 -28z"/>
<path d="M2834 2955 c0 -55 1 -76 3 -47 2 29 2 74 0 100 -2 26 -3 2 -3 -53z"/>
<path d="M7484 2880 c0 -63 1 -89 3 -57 2 31 2 83 0 115 -2 31 -3 5 -3 -58z"/>
<path d="M2913 2895 c0 -33 2 -45 4 -27 2 18 2 45 0 60 -2 15 -4 0 -4 -33z"/>
<path d="M7373 2875 c0 -22 2 -30 4 -17 2 12 2 30 0 40 -3 9 -5 -1 -4 -23z"/>
<path d="M2807 2757 c-18 -87 -62 -205 -73 -194 -3 3 -1 15 6 26 20 38 3 22
-28 -26 -17 -27 -49 -66 -71 -88 -23 -21 -41 -44 -41 -49 0 -11 48 40 97 102
45 57 37 26 -10 -40 -50 -71 -131 -150 -195 -193 -23 -15 -42 -30 -42 -32 0
-8 49 25 115 78 70 55 138 138 189 230 36 66 80 214 74 252 -2 12 -11 -18 -21
-66z"/>
<path d="M2922 2775 c0 -16 2 -22 5 -12 2 9 2 23 0 30 -3 6 -5 -1 -5 -18z"/>
<path d="M7362 2765 c0 -16 2 -22 5 -12 2 9 2 23 0 30 -3 6 -5 -1 -5 -18z"/>
<path d="M5092 2740 c0 -19 2 -27 5 -17 2 9 2 25 0 35 -3 9 -5 1 -5 -18z"/>
<path d="M7495 2719 c4 -46 43 -164 51 -156 2 2 -3 21 -12 43 -9 21 -22 66
-30 99 -13 54 -14 56 -9 14z"/>
<path d="M2932 2705 c0 -16 2 -22 5 -12 2 9 2 23 0 30 -3 6 -5 -1 -5 -18z"/>
<path d="M5202 2705 c0 -16 2 -22 5 -12 2 9 2 23 0 30 -3 6 -5 -1 -5 -18z"/>
<path d="M5067 2637 c-84 -286 -365 -495 -792 -588 -94 -21 -438 -18 -548 4
-357 72 -614 243 -738 492 -22 44 -37 69 -34 55 16 -57 81 -164 137 -225 146
-159 335 -263 588 -322 130 -30 400 -43 531 -24 273 39 508 144 673 300 91 87
172 216 197 315 17 70 6 64 -14 -7z"/>
<path d="M7351 2684 c0 -11 3 -14 6 -6 3 7 2 16 -1 19 -3 4 -6 -2 -5 -13z"/>
<path d="M2941 2644 c0 -11 3 -14 6 -6 3 7 2 16 -1 19 -3 4 -6 -2 -5 -13z"/>
<path d="M7341 2644 c0 -11 3 -14 6 -6 3 7 2 16 -1 19 -3 4 -6 -2 -5 -13z"/>
<path d="M5220 2630 c0 -27 66 -153 113 -215 67 -89 198 -191 332 -257 317
-158 760 -181 1112 -57 86 31 223 94 223 104 0 3 -30 -10 -67 -29 -95 -47
-227 -92 -346 -117 -139 -30 -416 -33 -562 -6 -198 37 -383 115 -530 224 -121
90 -201 188 -250 309 -14 33 -25 52 -25 44z"/>
<path d="M7287 2506 c-38 -72 -124 -175 -189 -225 -95 -74 -95 -74 -59 -54 61
32 205 183 246 256 20 37 36 70 33 72 -2 2 -16 -20 -31 -49z"/>
<path d="M4985 2508 c-16 -24 -51 -68 -79 -99 -30 -33 -25 -29 14 11 36 37 73
81 83 99 26 45 14 38 -18 -11z"/>
<path d="M7577 2502 c48 -85 124 -163 222 -231 234 -160 487 -233 796 -229
l140 1 -180 7 c-193 8 -286 23 -431 71 -229 75 -435 219 -531 370 -43 70 -53
76 -16 11z"/>
<path d="M3030 2500 c19 -38 157 -171 225 -217 123 -83 304 -157 445 -183 81
-15 333 -29 415 -23 180 12 365 58 513 128 50 24 92 46 92 49 0 4 -30 -9 -67
-28 -95 -47 -192 -80 -314 -108 -92 -20 -129 -23 -319 -22 -238 0 -333 13
-481 63 -180 61 -362 176 -456 289 -64 78 -67 81 -53 52z"/>
<path d="M7590 2516 c0 -2 8 -10 18 -17 15 -13 16 -12 3 4 -13 16 -21 21 -21
13z"/>
<path d="M5350 2451 c137 -167 393 -302 677 -357 125 -25 368 -22 527 5 131
23 292 73 385 121 89 45 74 45 -22 0 -91 -43 -211 -80 -345 -107 -67 -14 -135
-18 -302 -18 -199 1 -223 3 -321 27 -249 63 -417 155 -578 317 -64 65 -64 65
-21 12z"/>
<path d="M7175 2400 c-33 -34 -84 -77 -112 -97 -59 -41 -70 -54 -21 -26 30 17
208 182 198 183 -3 0 -32 -27 -65 -60z"/>
<path d="M7665 2421 c47 -53 172 -149 236 -182 56 -28 90 -39 59 -19 -13 9
-13 10 0 10 8 0 -16 19 -54 41 -39 22 -83 50 -100 62 -16 11 -26 16 -22 9 11
-19 -9 -14 -27 6 -10 10 -14 22 -10 27 5 4 2 5 -5 0 -9 -5 -30 8 -60 36 -32
30 -37 33 -17 10z m225 -151 c36 -22 60 -40 54 -40 -13 0 -125 67 -144 87 -17
18 -18 18 90 -47z"/>
<path d="M960 2376 c0 -2 8 -10 18 -17 15 -13 16 -12 3 4 -13 16 -21 21 -21
13z"/>
<path d="M1015 2335 c11 -9 29 -21 40 -26 l20 -10 -20 16 c-11 9 -29 21 -40
26 l-20 10 20 -16z"/>
<path d="M4810 2327 c-14 -12 -39 -32 -55 -45 -17 -13 -21 -19 -10 -13 21 10
104 80 95 80 -3 0 -16 -10 -30 -22z"/>
<path d="M994 2307 c21 -19 53 -42 70 -52 44 -25 31 -14 -44 40 -46 33 -54 36
-26 12z"/>
<path d="M2380 2284 c-218 -112 -517 -169 -762 -144 -180 17 -336 60 -470 127
-38 18 -68 31 -68 28 0 -11 147 -78 231 -105 154 -51 246 -64 434 -64 185 1
295 18 451 70 87 30 212 84 246 108 35 25 9 16 -62 -20z"/>
<path d="M9329 2263 c-13 -16 -12 -17 4 -4 16 13 21 21 13 21 -2 0 -10 -8 -17
-17z"/>
<path d="M2414 2244 c-18 -14 -18 -15 4 -4 12 6 22 13 22 15 0 8 -5 6 -26 -11z"/>
<path d="M1100 2235 c0 -16 241 -115 278 -115 9 0 -22 14 -70 30 -48 16 -115
43 -148 60 -33 17 -60 28 -60 25z"/>
<path d="M9210 2230 c-9 -6 -10 -10 -3 -10 6 0 15 5 18 10 8 12 4 12 -15 0z"/>
<path d="M2360 2215 c-14 -8 -20 -14 -14 -15 5 0 19 7 30 15 24 18 16 19 -16
0z"/>
<path d="M9100 2188 c-197 -79 -525 -109 -755 -70 -66 12 -165 34 -220 51 -55
16 -101 28 -103 26 -5 -5 143 -52 238 -76 122 -30 402 -38 560 -14 110 16 297
69 350 100 39 22 12 16 -70 -17z"/>
<path d="M2310 2190 c-9 -6 -10 -10 -3 -10 6 0 15 5 18 10 8 12 4 12 -15 0z"/>
<path d="M9180 2175 c-25 -13 -41 -24 -37 -25 11 0 87 39 87 45 0 7 0 7 -50
-20z"/>
<path d="M2195 2149 c-27 -10 -37 -17 -21 -14 31 7 97 33 81 33 -5 0 -32 -8
-60 -19z"/>
<path d="M9100 2140 c-8 -5 -10 -10 -5 -10 6 0 17 5 25 10 8 5 11 10 5 10 -5
0 -17 -5 -25 -10z"/>
<path d="M2090 2120 c-20 -6 -21 -8 -5 -8 11 0 29 3 40 8 25 11 -1 11 -35 0z"/>
<path d="M9015 2109 c-27 -10 -37 -17 -21 -14 31 7 97 33 81 33 -5 0 -32 -8
-60 -19z"/>
<path d="M1415 2110 c11 -5 29 -8 40 -8 16 0 15 2 -5 8 -34 11 -60 11 -35 0z"/>
<path d="M2023 2103 c9 -2 23 -2 30 0 6 3 -1 5 -18 5 -16 0 -22 -2 -12 -5z"/>
<path d="M1498 2093 c7 -3 16 -2 19 1 4 3 -2 6 -13 5 -11 0 -14 -3 -6 -6z"/>
<path d="M1963 2093 c9 -2 23 -2 30 0 6 3 -1 5 -18 5 -16 0 -22 -2 -12 -5z"/>
<path d="M1553 2083 c15 -2 37 -2 50 0 12 2 0 4 -28 4 -27 0 -38 -2 -22 -4z"/>
<path d="M1878 2083 c12 -2 32 -2 45 0 12 2 2 4 -23 4 -25 0 -35 -2 -22 -4z"/>
<path d="M8938 2083 c7 -3 16 -2 19 1 4 3 -2 6 -13 5 -11 0 -14 -3 -6 -6z"/>
<path d="M1703 2073 c26 -2 67 -2 90 0 23 2 2 3 -48 3 -49 0 -68 -1 -42 -3z"/>
<path d="M8855 2070 c-27 -7 -27 -8 -5 -8 14 0 36 4 50 8 20 6 21 8 5 8 -11 0
-33 -4 -50 -8z"/>
<path d="M8758 2053 c12 -2 32 -2 45 0 12 2 2 4 -23 4 -25 0 -35 -2 -22 -4z"/>
</g>
</svg>
