<?xml version="1.0" standalone="no"?>
<!DOCTYPE svg PUBLIC "-//W3C//DTD SVG 20010904//EN"
 "http://www.w3.org/TR/2001/REC-SVG-20010904/DTD/svg10.dtd">
<svg version="1.0" xmlns="http://www.w3.org/2000/svg"
 width="1024.000000pt" height="1024.000000pt" viewBox="0 0 1024.000000 1024.000000"
 preserveAspectRatio="xMidYMid meet">
<metadata>
Created by potrace 1.16, written by Peter Selinger 2001-2019
</metadata>
<g transform="translate(0.000000,1024.000000) scale(0.100000,-0.100000)"
fill="#000000" stroke="none">
<path d="M5886 8300 c-140 -11 -255 -26 -386 -52 -114 -22 -145 -33 -65 -24
28 3 43 3 35 -1 -8 -3 -19 -10 -25 -15 -5 -4 -21 -17 -34 -28 -30 -25 -30 -25
82 4 171 45 343 60 667 61 271 0 289 1 220 13 -41 7 -122 15 -180 18 -175 9
-127 17 65 11 171 -6 346 -26 535 -63 142 -28 312 -114 351 -178 16 -26 19
-51 19 -156 0 -114 -2 -126 -20 -138 -18 -11 -19 -10 -8 14 9 19 9 27 0 32 -6
4 -13 23 -15 42 -2 19 -8 43 -12 53 -4 9 -5 28 -3 42 5 23 3 24 -36 19 -23 -2
-120 -20 -216 -39 -242 -47 -339 -56 -638 -57 -143 0 -266 -5 -274 -9 -10 -7
-8 -9 6 -9 26 0 15 -9 -20 -17 -55 -13 -298 -5 -399 12 -98 17 -223 54 -278
82 -16 8 -38 16 -49 18 -11 3 -33 10 -49 17 -23 10 -27 17 -23 38 15 68 30 97
73 139 35 34 38 40 13 22 -44 -30 -78 -78 -91 -126 -17 -62 -14 -69 35 -93 47
-23 138 -102 156 -135 17 -33 -16 -85 -70 -109 -59 -25 -176 -56 -267 -69 -38
-6 -79 -12 -90 -14 -94 -17 -338 -42 -485 -50 -141 -8 -196 -13 -235 -19 -173
-31 -338 -31 -543 0 -141 21 -262 62 -262 89 0 18 -31 41 -65 49 l-30 7 26
-24 c14 -14 34 -27 45 -30 10 -3 0 -4 -22 -1 -25 3 -45 1 -49 -5 -4 -8 -13 -8
-28 0 -19 9 -19 7 3 -11 67 -57 109 -103 115 -127 9 -37 -12 -79 -48 -96 -128
-61 -471 -126 -792 -152 -44 -4 -95 -8 -112 -10 -18 -2 -100 -5 -183 -6 -112
-2 -150 -6 -150 -15 0 -33 -321 -48 -505 -24 -49 6 -105 14 -124 16 -18 3 -41
8 -49 13 -9 5 -26 5 -40 0 -15 -6 -21 -5 -17 1 3 6 -1 10 -9 10 -12 0 -16 -11
-16 -44 0 -25 4 -47 8 -50 5 -3 7 -39 6 -81 -2 -45 1 -73 7 -70 5 4 9 -1 9 -9
0 -9 -4 -16 -8 -16 -4 0 -8 -9 -8 -20 0 -11 4 -20 8 -20 4 0 8 -5 8 -11 0 -5
-4 -7 -10 -4 -5 3 -10 -1 -10 -10 0 -10 5 -14 13 -9 10 6 10 4 0 -7 -7 -7 -13
-24 -13 -37 0 -18 4 -23 16 -18 13 5 14 3 7 -6 -14 -20 -17 -88 -3 -88 8 0 10
-10 8 -25 -3 -13 -1 -22 4 -19 13 8 -3 -50 -16 -58 -11 -8 -1 -12 18 -9 5 1 3
-5 -4 -14 -7 -9 -9 -15 -4 -14 9 2 17 0 84 -27 l35 -14 -45 7 c-83 11 -34 -7
86 -32 65 -14 186 -32 268 -40 168 -17 540 -20 716 -5 63 5 147 12 185 14 l70
5 -55 -13 c-30 -8 -45 -14 -32 -15 12 0 22 -6 22 -11 0 -6 11 -8 25 -4 16 4
25 2 25 -6 0 -6 4 -8 10 -5 5 3 19 1 30 -5 11 -6 21 -9 21 -8 1 2 4 120 8 263
5 219 9 265 24 292 60 111 256 206 520 253 314 55 782 77 1052 50 216 -21 439
-65 560 -111 29 -11 80 -37 113 -59 49 -31 66 -49 86 -93 51 -106 29 -136
-124 -172 -41 -9 -146 -37 -233 -61 -236 -66 -443 -92 -744 -95 -78 0 -133 -5
-133 -11 0 -5 5 -6 10 -3 6 3 10 1 10 -5 0 -7 -8 -9 -20 -5 -10 3 -29 1 -41
-6 -34 -18 -498 -13 -529 6 -6 4 -85 15 -138 20 -18 1 -54 5 -80 8 -26 3 -39
3 -29 1 9 -3 17 -10 17 -15 0 -6 -4 -7 -10 -4 -17 10 -34 -6 -19 -17 10 -7 8
-8 -9 -5 -12 3 -20 1 -17 -3 3 -5 2 -11 -3 -14 -4 -2 -8 -19 -7 -38 0 -24 4
-32 15 -30 13 2 13 0 -1 -10 -14 -12 -22 -97 -9 -96 18 1 21 -4 10 -17 -7 -8
-8 -15 -3 -15 6 0 8 -21 5 -51 -4 -41 -1 -54 12 -61 12 -7 14 -14 6 -28 -7
-13 -6 -20 3 -23 9 -3 9 -8 1 -17 -14 -15 -6 -52 10 -44 6 3 2 -2 -8 -10 -11
-9 -15 -16 -8 -16 7 0 10 -12 8 -30 -2 -20 2 -30 13 -33 14 -4 14 -5 0 -6 -12
-1 -14 -9 -11 -32 3 -22 7 -27 13 -18 6 10 9 10 9 2 0 -6 -4 -15 -10 -18 -18
-11 -11 -25 23 -45 46 -29 8 -26 -65 4 -32 13 -55 20 -52 15 31 -51 412 -120
729 -133 72 -3 191 -8 265 -11 154 -7 442 8 608 31 90 12 305 59 413 90 13 3
18 -5 23 -33 4 -21 12 -56 18 -78 11 -38 12 -39 19 -15 12 43 11 -65 -2 -116
-13 -52 -68 -105 -153 -150 -30 -16 -53 -30 -51 -32 7 -7 139 68 169 96 48 45
59 84 64 234 l5 138 46 34 45 34 30 -25 c16 -13 68 -44 115 -68 47 -25 98 -55
113 -69 l27 -24 -20 -51 c-16 -43 -28 -112 -12 -73 7 17 23 15 23 -3 0 -8 4
-15 10 -15 5 0 18 -10 30 -22 11 -12 20 -16 20 -10 0 7 7 12 15 12 8 0 15 6
16 13 0 6 7 -9 15 -34 10 -35 31 -62 87 -116 40 -38 87 -75 105 -82 28 -12 32
-18 32 -53 0 -97 97 -178 265 -223 70 -19 219 -22 288 -6 122 28 236 117 262
203 8 28 12 54 10 58 -3 5 11 18 31 29 20 12 67 49 105 83 87 78 96 114 53
214 -4 9 66 44 89 44 4 0 7 -18 7 -41 0 -39 -14 -78 -32 -90 -4 -3 -2 -23 5
-44 l14 -39 32 44 c30 42 32 49 27 99 -4 29 -11 61 -16 72 -8 14 -6 21 11 29
11 7 24 9 27 5 4 -4 7 -67 7 -140 l0 -133 49 -11 c62 -14 71 -8 12 9 l-46 12
20 26 c24 29 26 44 6 36 -11 -4 -13 0 -9 16 4 17 8 19 15 8 11 -17 3 90 -12
160 -11 48 -14 53 -34 48 -240 -70 -343 -81 -766 -81 -300 0 -385 3 -475 18
-141 22 -195 38 -110 32 33 -2 52 -2 43 1 -21 6 -41 64 -33 95 11 51 12 139 1
139 -8 0 -8 2 0 8 11 7 23 52 27 100 1 12 7 22 12 23 21 1 -31 18 -59 18 -16
1 -27 3 -25 6 3 2 90 -2 195 -11 268 -22 829 -14 1034 14 194 27 309 55 384
94 18 10 18 6 12 -103 -4 -63 -12 -131 -17 -152 -13 -51 -59 -100 -133 -142
-62 -35 -72 -49 -13 -19 75 39 118 76 144 127 24 47 27 65 31 182 l4 130 45
30 c72 49 81 68 89 189 l7 107 25 -6 c13 -3 86 -15 161 -25 220 -31 471 -43
746 -37 523 13 840 93 912 230 14 27 18 82 24 337 10 351 6 381 -60 450 -168
176 -807 254 -1476 180 -176 -20 -349 -50 -399 -70 -36 -15 -2 -11 75 9 41 10
106 21 144 24 56 5 61 4 24 -2 -125 -24 -162 -34 -188 -56 -15 -14 -32 -21
-37 -17 -5 3 -4 1 3 -7 9 -11 30 -9 120 13 237 56 520 81 836 73 128 -4 257
-9 287 -12 108 -10 11 15 -135 35 l-140 20 130 -5 c346 -13 619 -79 730 -177
71 -62 75 -79 74 -335 0 -125 -4 -279 -8 -341 l-7 -113 -39 -37 c-22 -20 -30
-26 -19 -12 12 14 25 32 29 40 7 12 6 13 -6 3 -12 -10 -15 -8 -15 6 0 11 6 17
13 14 17 -7 17 14 1 20 -9 4 -10 8 -3 14 12 9 13 23 2 41 -5 7 -3 12 5 12 10
0 9 3 -1 9 -11 7 -12 13 -4 23 6 7 9 22 7 33 -7 45 -7 112 1 125 5 8 4 11 -2
7 -6 -4 -8 44 -7 129 2 78 -1 134 -7 134 -5 0 -9 9 -9 20 0 26 -8 25 -161 -4
-219 -43 -394 -59 -704 -62 -290 -3 -341 -7 -330 -23 17 -28 -355 -22 -503 9
-118 24 -212 61 -212 84 0 9 -3 15 -7 14 -17 -5 -143 64 -162 89 -30 37 -26
58 18 106 39 42 40 45 47 139 3 53 4 112 0 133 -19 102 -199 207 -427 249
-292 54 -623 76 -873 56z m157 -17 c-23 -2 -64 -2 -90 0 -26 2 -7 3 42 3 50 0
71 -1 48 -3z m2055 -390 c-21 -2 -55 -2 -75 0 -21 2 -4 4 37 4 41 0 58 -2 38
-4z m-171 -9 c-3 -3 -12 -4 -19 -1 -8 3 -5 6 6 6 11 1 17 -2 13 -5z m-140 -10
c-3 -3 -12 -4 -19 -1 -8 3 -5 6 6 6 11 1 17 -2 13 -5z m-100 -10 c-3 -3 -12
-4 -19 -1 -8 3 -5 6 6 6 11 1 17 -2 13 -5z m-997 -288 c327 -38 530 -100 641
-194 65 -56 79 -95 77 -209 l-2 -98 -6 90 c-3 50 -7 80 -8 67 -1 -13 -6 -21
-11 -18 -5 3 -8 -2 -7 -12 1 -13 -6 -16 -33 -14 -18 1 -61 -4 -95 -12 -33 -9
-106 -22 -161 -31 -55 -9 -129 -22 -165 -29 -185 -39 -350 -54 -638 -58 -105
-1 -189 -5 -184 -10 4 -4 22 -8 40 -10 58 -4 44 -16 -30 -25 -265 -33 -615 15
-758 104 -25 16 -76 44 -113 62 -37 19 -81 49 -97 67 -15 18 -31 30 -34 27
-12 -13 -5 30 10 63 34 71 147 139 304 183 78 22 317 55 505 70 156 13 604 5
765 -13z m717 -558 c-2 -13 -4 -5 -4 17 -1 22 1 32 4 23 2 -10 2 -28 0 -40z
m-4620 -524 c-3 -3 -12 -4 -19 -1 -8 3 -5 6 6 6 11 1 17 -2 13 -5z m2513 -114
c13 -8 13 -10 -1 -10 -9 0 -16 -7 -16 -15 0 -8 3 -12 7 -10 7 5 40 -125 45
-180 2 -19 8 -42 14 -49 6 -7 8 -16 4 -19 -3 -4 -1 -7 5 -7 7 0 12 -10 12 -23
0 -13 6 -29 13 -36 17 -19 -103 45 -131 68 -22 19 -23 22 -8 43 12 17 16 49
16 135 0 116 4 126 40 103z m230 -431 c13 -7 13 -8 0 -8 -8 0 -26 6 -40 15
l-25 15 25 -7 c14 -3 32 -10 40 -15z m84 -84 c19 -14 19 -16 3 -47 l-17 -33 5
38 c7 41 -1 49 -15 15 -8 -21 -9 -20 -9 10 -1 35 5 38 33 17z m1346 -73 c0
-21 -6 -46 -13 -56 -11 -15 -12 -9 -3 38 6 31 12 56 13 56 2 0 3 -17 3 -38z"/>
<path d="M5985 7573 c-304 -25 -433 -42 -413 -54 9 -6 7 -9 -9 -9 -36 0 -106
-32 -136 -61 l-27 -28 67 20 c193 57 425 82 760 83 145 1 260 2 255 3 -4 1
-41 7 -82 14 -65 11 -71 13 -46 20 25 7 122 3 361 -16 l60 -4 -49 9 c-129 23
-570 37 -741 23z"/>
<path d="M6808 7533 c7 -3 16 -2 19 1 4 3 -2 6 -13 5 -11 0 -14 -3 -6 -6z"/>
<path d="M5498 7513 c7 -3 16 -2 19 1 4 3 -2 6 -13 5 -11 0 -14 -3 -6 -6z"/>
<path d="M6658 7503 c7 -3 16 -2 19 1 4 3 -2 6 -13 5 -11 0 -14 -3 -6 -6z"/>
<path d="M6478 8233 c7 -3 16 -2 19 1 4 3 -2 6 -13 5 -11 0 -14 -3 -6 -6z"/>
<path d="M6565 8220 c11 -5 29 -8 40 -8 16 0 15 2 -5 8 -34 11 -60 11 -35 0z"/>
<path d="M5280 8185 c-14 -8 -20 -14 -15 -14 6 0 21 6 35 14 14 8 21 14 15 14
-5 0 -21 -6 -35 -14z"/>
<path d="M4040 8044 c-233 -21 -441 -53 -535 -83 -22 -7 -25 -10 -10 -11 16
-1 14 -4 -10 -15 -16 -8 -24 -14 -16 -15 7 0 11 -6 7 -15 -7 -19 -1 -19 60 0
183 56 465 89 766 89 125 1 218 5 218 10 0 5 -2 7 -5 4 -4 -3 -25 -1 -48 4
-23 6 -82 14 -132 18 -67 6 -49 7 75 4 261 -8 511 -38 644 -79 27 -8 51 -13
54 -11 12 13 -200 61 -358 81 -120 16 -603 28 -710 19z m83 -21 c-7 -2 -19 -2
-25 0 -7 3 -2 5 12 5 14 0 19 -2 13 -5z m-498 -53 c-11 -5 -29 -9 -40 -9 l-20
0 20 9 c11 5 29 9 40 9 l20 0 -20 -9z m-78 -16 c-3 -3 -12 -4 -19 -1 -8 3 -5
6 6 6 11 1 17 -2 13 -5z"/>
<path d="M3430 7940 c-18 -12 -2 -12 25 0 13 6 15 9 5 9 -8 0 -22 -4 -30 -9z"/>
<path d="M3350 7910 c-8 -5 -10 -10 -5 -10 6 0 17 5 25 10 8 5 11 10 5 10 -5
0 -17 -5 -25 -10z"/>
<path d="M3288 7875 c-61 -41 -78 -80 -76 -171 l1 -79 6 85 c7 95 22 126 77
161 19 11 34 23 34 25 0 7 -4 5 -42 -21z"/>
<path d="M7245 7784 c-16 -8 -34 -20 -40 -26 -8 -8 70 28 84 39 12 9 -18 1
-44 -13z"/>
<path d="M2070 7739 c-242 -22 -592 -77 -686 -109 -32 -11 -48 -17 -34 -14
155 33 203 42 250 47 30 3 46 4 35 1 -60 -15 -125 -38 -125 -43 0 -4 -12 -8
-27 -9 -24 -2 -103 -45 -103 -57 0 -2 12 0 28 6 15 6 81 23 147 39 286 68 706
102 995 81 80 -6 177 -13 215 -16 44 -4 63 -2 50 3 -11 5 -47 10 -80 11 -33 1
-79 6 -103 12 -24 5 -83 12 -133 16 -49 3 -92 11 -96 16 -9 15 307 2 444 -18
62 -8 147 -25 189 -35 89 -23 111 -20 32 4 -205 62 -679 93 -998 65z m-233
-45 c-3 -3 -12 -4 -19 -1 -8 3 -5 6 6 6 11 1 17 -2 13 -5z m-60 -10 c-3 -3
-12 -4 -19 -1 -8 3 -5 6 6 6 11 1 17 -2 13 -5z m-74 -11 c-7 -2 -19 -2 -25 0
-7 3 -2 5 12 5 14 0 19 -2 13 -5z"/>
<path d="M2848 7663 c6 -2 18 -2 25 0 6 3 1 5 -13 5 -14 0 -19 -2 -12 -5z"/>
<path d="M3140 7640 c8 -5 20 -10 25 -10 6 0 3 5 -5 10 -8 5 -19 10 -25 10 -5
0 -3 -5 5 -10z"/>
<path d="M1260 7584 c-54 -30 -113 -86 -143 -134 -22 -34 -22 -40 -19 -369 2
-184 7 -344 12 -356 13 -34 69 -94 104 -112 35 -17 28 -9 -25 30 -21 14 -46
46 -57 69 -19 40 -21 65 -24 368 l-3 325 27 45 c34 58 70 92 138 129 30 17 51
31 45 31 -5 0 -30 -12 -55 -26z"/>
<path d="M7960 7441 c0 -6 10 -8 21 -6 33 6 36 15 6 15 -15 0 -27 -4 -27 -9z"/>
<path d="M3990 7274 c-181 -10 -475 -37 -578 -54 -65 -11 -121 -20 -125 -20
-5 0 -5 -4 -2 -10 3 -5 -2 -9 -12 -8 -36 3 -64 -2 -59 -11 3 -4 -6 -6 -21 -3
-18 3 -24 1 -19 -7 4 -6 2 -11 -4 -11 -12 0 -59 -50 -60 -64 0 -5 -8 -18 -17
-29 -13 -13 3 -8 53 17 136 68 334 107 671 132 204 15 436 13 502 -3 17 -4 22
-2 17 6 -4 6 -28 11 -54 11 -49 0 -82 13 -68 27 10 10 203 6 276 -6 86 -15
183 -22 140 -11 -103 26 -484 52 -640 44z"/>
<path d="M4698 7213 c7 -3 16 -2 19 1 4 3 -2 6 -13 5 -11 0 -14 -3 -6 -6z"/>
<path d="M4358 7203 c7 -3 16 -2 19 1 4 3 -2 6 -13 5 -11 0 -14 -3 -6 -6z"/>
<path d="M4398 7203 c6 -2 18 -2 25 0 6 3 1 5 -13 5 -14 0 -19 -2 -12 -5z"/>
<path d="M4500 7191 c58 -14 118 -22 95 -12 -11 5 -45 11 -75 14 -42 5 -46 4
-20 -2z"/>
<path d="M7633 6703 c9 -2 23 -2 30 0 6 3 -1 5 -18 5 -16 0 -22 -2 -12 -5z"/>
<path d="M9066 6465 c-11 -8 -15 -15 -9 -15 6 0 16 7 23 15 16 19 11 19 -14 0z"/>
<path d="M7480 6340 c-7 -17 -10 -33 -6 -37 3 -3 6 0 6 8 1 33 15 40 48 24 43
-22 44 -26 25 -81 -16 -46 -16 -49 8 -93 27 -53 111 -141 157 -165 29 -15 32
-20 32 -66 0 -43 5 -55 35 -88 63 -70 261 -142 391 -142 187 0 323 79 361 210
14 50 24 65 48 77 16 9 58 41 93 72 84 75 102 139 54 194 -8 9 -13 19 -11 20
2 2 41 21 87 42 91 42 107 60 35 39 -177 -50 -682 -70 -983 -39 -151 15 -311
38 -351 51 -11 3 -20 -5 -29 -26z"/>
<path d="M7496 6324 c-9 -23 -7 -54 2 -54 5 0 14 11 20 24 8 19 8 27 -2 35
-10 9 -15 8 -20 -5z"/>
<path d="M8862 6319 c-5 -13 -6 -35 -1 -49 4 -14 10 -42 14 -64 9 -57 16 -38
16 45 0 77 -14 110 -29 68z"/>
<path d="M7463 6250 c0 -25 2 -35 4 -22 2 12 2 32 0 45 -2 12 -4 2 -4 -23z"/>
<path d="M7512 6166 c2 -39 4 -43 20 -35 19 10 25 39 8 39 -5 0 -10 9 -10 20
0 11 -4 20 -10 20 -5 0 -9 -20 -8 -44z"/>
<path d="M2805 6128 c-155 -35 -305 -50 -547 -55 -279 -6 -472 5 -629 37 -51
11 -95 18 -96 16 -2 -2 29 -20 69 -41 40 -21 75 -39 77 -41 1 -1 -4 -13 -13
-26 -9 -13 -16 -43 -16 -72 0 -48 2 -52 61 -107 34 -32 85 -70 113 -85 48 -25
51 -29 51 -65 1 -74 91 -167 201 -209 151 -56 380 -27 520 66 78 52 114 104
114 165 0 39 4 49 20 54 34 11 119 83 155 133 36 50 43 89 24 138 -10 28 -10
28 10 9 12 -10 21 -25 22 -34 0 -10 2 -12 6 -3 12 31 23 6 23 -55 0 -38 5 -88
10 -113 8 -38 8 -33 5 34 -3 43 -5 93 -5 111 0 32 -9 44 -76 105 -52 48 -53
48 -99 38z m-1138 -170 c-3 -8 -6 -5 -6 6 -1 11 2 17 5 13 3 -3 4 -12 1 -19z
m32 -82 c12 -14 12 -16 -3 -10 -10 4 -22 18 -27 31 -13 35 -10 53 4 22 7 -14
18 -34 26 -43z m234 29 c41 -8 33 -23 -15 -27 -47 -3 -100 6 -137 25 -23 11
-23 12 20 17 24 3 58 2 74 -2 17 -4 42 -10 58 -13z"/>
<path d="M2991 5764 c0 -11 3 -14 6 -6 3 7 2 16 -1 19 -3 4 -6 -2 -5 -13z"/>
<path d="M3000 5723 c0 -7 10 -22 23 -35 12 -13 17 -17 11 -8 -6 8 -16 24 -22
35 -6 11 -12 15 -12 8z"/>
<path d="M5300 5629 c-39 -20 -110 -89 -94 -89 6 0 21 12 35 26 13 15 44 39
69 55 51 32 44 38 -10 8z"/>
<path d="M7146 5618 c12 -5 28 -22 35 -37 25 -48 63 -91 70 -79 5 7 10 1 14
-15 4 -15 11 -27 15 -27 10 0 7 51 -5 70 -5 8 -10 22 -10 30 0 15 -98 69 -125
69 -9 0 -7 -4 6 -11z m104 -89 c0 -6 -4 -7 -10 -4 -5 3 -10 11 -10 16 0 6 5 7
10 4 6 -3 10 -11 10 -16z"/>
<path d="M3285 5514 c17 -13 60 -36 96 -52 l67 -27 -24 -28 c-19 -23 -24 -40
-24 -84 0 -47 4 -58 26 -76 15 -12 52 -45 83 -72 31 -28 71 -57 89 -64 28 -12
32 -18 32 -50 0 -66 74 -157 165 -204 99 -50 312 -67 430 -33 85 25 165 70
215 121 38 39 44 51 48 99 4 52 6 55 54 86 27 18 58 45 70 60 11 16 29 30 39
33 10 3 27 20 39 38 26 42 22 108 -8 149 l-21 28 42 16 c46 18 158 85 142 86
-5 0 -39 -9 -74 -20 -337 -106 -1107 -104 -1466 4 l-50 15 30 -25z m188 -283
c-5 -8 -63 41 -63 54 0 7 14 -1 33 -18 18 -18 31 -34 30 -36z m185 47 c65 -14
68 -27 5 -21 -65 6 -134 24 -128 33 6 9 46 5 123 -12z"/>
<path d="M5264 5532 c-12 -8 -29 -52 -20 -52 3 0 12 14 21 30 16 32 16 34 -1
22z"/>
<path d="M3232 5395 c0 -16 2 -22 5 -12 2 9 2 23 0 30 -3 6 -5 -1 -5 -18z"/>
<path d="M4910 5355 c0 -2 24 -17 53 -31 28 -14 75 -42 102 -62 44 -31 47 -32
25 -7 -35 37 -180 119 -180 100z"/>
<path d="M3185 5340 c3 -5 8 -10 11 -10 2 0 4 5 4 10 0 6 -5 10 -11 10 -5 0
-7 -4 -4 -10z"/>
<path d="M3119 5320 c-19 -10 -42 -27 -50 -37 -13 -17 -13 -17 14 0 27 18 37
11 15 -11 -7 -7 -8 -12 -2 -12 6 0 19 9 28 19 13 15 14 20 4 23 -8 3 -1 11 17
21 17 9 26 16 20 16 -5 0 -26 -8 -46 -19z"/>
<path d="M4952 5287 c54 -44 90 -67 105 -67 4 0 0 5 -9 11 -10 5 -18 16 -18
23 0 8 -8 20 -17 27 -11 10 -14 10 -9 2 11 -20 -1 -15 -46 17 -62 45 -67 36
-6 -13z"/>
<path d="M4870 5287 c0 -2 37 -28 83 -58 45 -29 95 -65 110 -79 34 -31 93
-143 102 -196 9 -45 24 -79 25 -54 0 13 1 13 11 0 8 -12 9 -10 4 7 -3 13 -7
36 -7 53 -1 16 -4 27 -9 25 -4 -3 -5 3 -2 14 3 10 0 22 -6 25 -6 4 -11 12 -11
18 0 7 6 6 15 -2 12 -10 15 -10 15 2 0 8 -6 20 -12 27 -10 11 -10 13 0 7 18
-11 15 0 -14 44 -23 34 -63 70 -79 70 -3 0 15 -21 40 -46 26 -25 44 -48 42
-51 -3 -2 -25 17 -48 42 -30 32 -75 63 -144 98 -121 62 -115 60 -115 54z m270
-197 c0 -5 -2 -10 -4 -10 -3 0 -8 5 -11 10 -3 6 -1 10 4 10 6 0 11 -4 11 -10z"/>
<path d="M3008 5228 c-42 -52 -56 -74 -40 -64 7 4 12 2 12 -5 0 -7 8 -5 20 6
29 27 24 6 -10 -39 -31 -41 -37 -56 -20 -56 5 0 17 14 25 31 12 22 21 29 33
24 9 -3 13 -3 10 1 -4 3 14 24 40 46 l46 40 -34 -7 c-37 -7 -64 -25 -40 -25 7
0 11 -3 8 -6 -4 -3 -16 0 -28 6 -16 9 -25 9 -36 -1 -29 -24 -13 6 23 43 20 21
34 40 31 43 -3 4 -21 -13 -40 -37z"/>
<path d="M4836 5255 c-11 -8 -15 -15 -9 -15 6 0 16 7 23 15 16 19 11 19 -14 0z"/>
<path d="M3085 5241 c-16 -3 -25 -9 -20 -12 6 -4 28 -1 50 6 42 13 22 17 -30
6z"/>
<path d="M3268 5238 c6 -6 18 -8 28 -6 14 3 12 5 -9 10 -19 3 -25 2 -19 -4z"/>
<path d="M5100 5213 c14 -9 47 -40 74 -67 27 -28 44 -42 38 -30 -14 26 -83 89
-114 103 -21 11 -21 10 2 -6z"/>
<path d="M9145 3529 c-199 -165 -542 -249 -1019 -249 -253 0 -444 23 -696 85
-21 5 -22 5 -8 -5 29 -18 164 -49 307 -70 354 -51 784 -29 1076 55 154 44 311
129 384 209 35 37 24 31 -44 -25z"/>
<path d="M9109 3393 c-13 -16 -12 -17 4 -4 16 13 21 21 13 21 -2 0 -10 -8 -17
-17z"/>
<path d="M9064 3364 c-18 -14 -18 -15 4 -4 12 6 22 13 22 15 0 8 -5 6 -26 -11z"/>
<path d="M9065 3334 c-125 -86 -384 -157 -674 -185 -147 -15 -519 -6 -661 15
-137 21 -312 63 -323 79 -6 9 -7 8 -5 -3 3 -8 29 -23 59 -33 300 -98 871 -110
1234 -25 170 39 367 120 411 169 23 25 18 23 -41 -17z"/>
<path d="M8990 3325 c-25 -13 -41 -24 -37 -25 11 0 87 39 87 45 0 7 0 7 -50
-20z"/>
<path d="M1230 3255 c80 -87 284 -180 480 -219 191 -37 238 -41 520 -41 212 1
321 5 425 19 163 20 185 25 185 38 0 5 -4 7 -9 4 -4 -3 -64 -12 -132 -21 -339
-41 -745 -38 -967 10 -211 45 -341 97 -459 186 -37 28 -57 39 -43 24z"/>
<path d="M1440 2990 c8 -5 20 -10 25 -10 6 0 3 5 -5 10 -8 5 -19 10 -25 10 -5
0 -3 -5 5 -10z"/>
<path d="M7309 2921 c-130 -132 -363 -221 -699 -268 -172 -23 -556 -24 -730 0
-198 27 -419 89 -539 152 -17 8 -31 12 -31 7 0 -23 242 -112 385 -142 351 -74
843 -67 1175 18 203 52 324 109 423 202 40 37 97 103 85 99 -2 -1 -33 -31 -69
-68z"/>
<path d="M1480 2975 c0 -7 129 -44 233 -66 301 -66 719 -75 1037 -23 52 9 100
21 105 26 7 7 2 9 -15 5 -83 -20 -238 -38 -393 -47 -307 -19 -666 19 -912 94
-57 18 -55 18 -55 11z"/>
<path d="M7274 2780 c-11 -11 -53 -38 -94 -60 -41 -22 -69 -40 -61 -40 20 0
141 73 165 99 24 27 17 27 -10 1z"/>
<path d="M7289 2753 c-13 -16 -12 -17 4 -4 9 7 17 15 17 17 0 8 -8 3 -21 -13z"/>
<path d="M5325 2730 c3 -5 10 -10 16 -10 5 0 9 5 9 10 0 6 -7 10 -16 10 -8 0
-12 -4 -9 -10z"/>
<path d="M7230 2714 c-141 -102 -416 -181 -743 -214 -263 -27 -636 -1 -852 60
-83 23 -270 95 -302 115 -14 10 -24 11 -28 5 -15 -24 263 -126 426 -158 201
-40 263 -46 489 -46 244 0 386 15 590 60 180 41 354 112 435 179 39 32 30 31
-15 -1z"/>
<path d="M5340 2690 c19 -11 40 -19 45 -19 6 0 -6 8 -25 19 -19 11 -39 19 -45
19 -5 0 6 -8 25 -19z"/>
<path d="M5265 2418 c-145 -246 -611 -398 -1225 -398 -524 0 -938 126 -1105
336 -51 64 -60 73 -47 49 59 -112 217 -224 414 -294 412 -144 1117 -142 1546
5 198 68 371 189 431 302 19 36 7 36 -14 0z"/>
<path d="M5185 2280 c-3 -5 -1 -10 4 -10 6 0 11 5 11 10 0 6 -2 10 -4 10 -3 0
-8 -4 -11 -10z"/>
<path d="M5176 2214 c-27 -25 -75 -58 -105 -74 -64 -33 -63 -39 1 -11 48 21
109 67 139 105 28 36 22 32 -35 -20z"/>
<path d="M5119 2229 l-24 -20 28 17 c15 9 27 18 27 20 0 8 -8 4 -31 -17z"/>
<path d="M5125 2139 c-157 -123 -437 -214 -770 -249 -124 -14 -473 -14 -580
-1 -158 20 -182 21 -105 6 206 -40 605 -38 852 5 123 21 314 75 420 119 71 30
191 106 222 140 27 29 18 25 -39 -20z"/>
<path d="M5060 2160 c-9 -6 -10 -10 -3 -10 6 0 15 5 18 10 8 12 4 12 -15 0z"/>
<path d="M3180 2070 c8 -5 20 -10 25 -10 6 0 3 5 -5 10 -8 5 -19 10 -25 10 -5
0 -3 -5 5 -10z"/>
<path d="M3458 1933 c6 -2 18 -2 25 0 6 3 1 5 -13 5 -14 0 -19 -2 -12 -5z"/>
<path d="M3508 1923 c7 -3 16 -2 19 1 4 3 -2 6 -13 5 -11 0 -14 -3 -6 -6z"/>
<path d="M3558 1913 c6 -2 18 -2 25 0 6 3 1 5 -13 5 -14 0 -19 -2 -12 -5z"/>
</g>
</svg>
