<?xml version="1.0" standalone="no"?>
<!DOCTYPE svg PUBLIC "-//W3C//DTD SVG 20010904//EN"
 "http://www.w3.org/TR/2001/REC-SVG-20010904/DTD/svg10.dtd">
<svg version="1.0" xmlns="http://www.w3.org/2000/svg"
 width="1024.000000pt" height="1024.000000pt" viewBox="0 0 1024.000000 1024.000000"
 preserveAspectRatio="xMidYMid meet">
<metadata>
Created by potrace 1.16, written by Peter Selinger 2001-2019
</metadata>
<g transform="translate(0.000000,1024.000000) scale(0.100000,-0.100000)"
fill="#000000" stroke="none">
<path d="M5032 9725 c-24 -14 -78 -52 -119 -85 -104 -84 -124 -93 -197 -88
-53 3 -77 13 -173 67 -184 103 -221 97 -368 -64 -151 -164 -182 -172 -393 -99
-144 49 -178 51 -240 14 -36 -22 -82 -82 -119 -153 -31 -62 -99 -136 -140
-153 -41 -18 -117 -17 -218 1 -191 35 -243 7 -303 -158 -46 -126 -71 -174
-108 -206 -47 -42 -90 -51 -234 -51 -202 0 -233 -26 -285 -239 -27 -109 -51
-165 -82 -193 -32 -30 -105 -56 -188 -68 -147 -22 -198 -48 -236 -120 -7 -15
-15 -84 -20 -171 -7 -153 -16 -184 -61 -225 -28 -26 -97 -61 -197 -100 -138
-53 -174 -115 -152 -259 36 -237 26 -277 -91 -351 -208 -131 -228 -152 -228
-241 0 -38 11 -81 36 -146 19 -51 38 -115 41 -143 9 -85 -6 -112 -128 -225
-61 -56 -117 -115 -125 -130 -29 -58 -19 -109 52 -246 61 -119 65 -132 62
-183 -4 -58 -6 -62 -138 -244 -28 -38 -55 -86 -62 -107 -16 -55 6 -106 98
-220 136 -169 138 -186 41 -371 -103 -196 -96 -231 76 -391 81 -74 110 -108
123 -143 l18 -47 -47 -137 c-77 -226 -66 -264 118 -377 182 -112 193 -138 159
-363 -28 -186 1 -234 189 -305 200 -76 206 -85 217 -311 10 -224 23 -239 230
-274 203 -35 247 -77 290 -280 27 -126 55 -179 108 -208 38 -21 60 -25 185
-29 216 -8 239 -24 325 -228 81 -193 94 -202 272 -189 211 15 243 12 292 -22
29 -20 63 -61 105 -128 34 -55 77 -115 97 -135 32 -31 42 -35 98 -39 54 -3 79
2 176 37 116 42 169 49 219 30 15 -5 80 -64 144 -129 64 -66 128 -124 143
-130 56 -21 111 -12 193 32 184 98 185 98 235 98 60 0 102 -21 199 -98 111
-87 143 -104 197 -105 58 -1 103 22 202 102 157 127 194 130 384 31 145 -75
195 -86 255 -55 16 8 74 63 130 124 148 159 173 166 364 100 99 -34 129 -41
176 -37 81 6 115 36 204 184 46 76 103 129 157 145 33 10 62 10 138 1 135 -17
228 -16 261 4 37 22 60 62 111 189 43 107 87 172 134 197 12 7 89 15 173 19
171 7 212 20 251 78 23 35 31 60 70 224 36 147 71 180 230 209 162 31 180 36
216 68 43 38 56 89 56 222 0 110 11 167 40 209 21 28 94 66 202 105 101 36
133 58 157 108 25 51 26 87 5 231 -18 123 -12 173 29 220 12 15 74 59 137 98
146 92 164 116 157 212 -3 48 -16 99 -41 162 -40 101 -45 156 -20 209 9 19 61
75 115 125 120 110 139 139 139 208 0 44 -10 70 -66 179 -97 185 -95 204 35
365 146 182 146 209 -2 399 -124 160 -126 178 -33 359 71 139 81 190 52 247
-14 27 -99 114 -165 168 -19 16 -47 49 -63 73 -39 62 -38 117 7 230 85 219 72
259 -123 379 -175 108 -193 148 -157 339 36 189 7 250 -147 308 -167 64 -227
107 -247 180 -6 22 -11 87 -11 145 0 125 -11 169 -52 215 -33 38 -69 51 -223
80 -179 33 -209 69 -260 307 -17 82 -43 128 -88 162 -25 19 -47 22 -190 26
-184 7 -208 14 -257 81 -16 22 -37 62 -46 87 -64 174 -77 203 -105 226 -43 37
-89 41 -214 23 -141 -22 -190 -21 -240 2 -52 24 -72 46 -158 178 -109 164
-141 174 -343 105 -188 -65 -239 -58 -338 49 -148 159 -158 169 -199 180 -55
15 -97 2 -221 -69 -164 -93 -224 -86 -386 43 -47 37 -99 74 -117 81 -50 22
-112 17 -161 -11z m-1905 -2256 c265 -36 479 -146 582 -300 67 -100 100 -248
101 -446 0 -114 2 -113 -228 -113 -167 0 -191 2 -204 18 -10 11 -18 49 -22
114 -15 226 -94 333 -282 383 -60 16 -282 23 -340 10 -184 -41 -278 -125 -310
-275 -13 -64 -15 -175 -12 -794 3 -668 5 -725 21 -771 40 -107 116 -177 232
-212 86 -26 345 -25 430 0 188 58 251 144 262 360 5 94 9 110 27 123 16 11 59
14 199 14 177 0 178 0 203 -25 25 -26 26 -27 19 -133 -9 -149 -29 -234 -74
-327 -46 -96 -93 -152 -172 -206 -164 -111 -380 -163 -674 -163 -309 0 -529
56 -701 180 -113 80 -195 209 -231 363 -16 70 -18 142 -18 851 0 708 2 781 18
844 44 172 168 325 327 403 160 79 327 111 592 112 97 1 212 -4 255 -10z
m2368 -17 c308 -67 487 -218 558 -471 21 -74 22 -95 25 -776 4 -858 -2 -944
-80 -1105 -42 -87 -157 -202 -253 -252 -88 -45 -209 -83 -333 -105 -133 -23
-442 -23 -568 0 -348 64 -555 236 -621 514 -17 72 -18 138 -18 858 0 873 -2
843 72 994 94 190 315 320 613 361 36 5 166 7 290 5 176 -3 245 -8 315 -23z
m2215 -10 c18 -14 57 -140 201 -642 98 -344 270 -937 380 -1317 197 -674 202
-694 184 -713 -17 -19 -31 -20 -205 -20 -164 0 -190 2 -209 18 -16 13 -40 86
-101 307 -45 160 -83 298 -86 308 -5 16 -34 17 -423 17 l-417 0 -84 -307 c-52
-189 -91 -314 -102 -325 -16 -16 -39 -18 -207 -18 -240 0 -239 -1 -202 121 11
35 59 197 106 359 47 162 115 394 150 515 72 245 275 945 396 1365 89 310 95
327 118 340 9 5 120 10 247 10 208 0 234 -2 254 -18z m865 -3098 l24 -15 -34
-44 c-36 -48 -60 -108 -51 -130 12 -32 49 -15 116 55 62 65 70 70 110 70 34 0
48 -6 76 -34 30 -30 34 -40 34 -88 0 -41 -8 -70 -34 -123 -47 -94 -60 -109
-88 -101 -13 3 -31 12 -40 20 -17 12 -15 16 19 52 49 52 77 117 63 144 -18 34
-46 23 -117 -50 -58 -58 -75 -70 -102 -70 -101 0 -138 88 -87 211 25 62 62
119 77 119 5 0 21 -7 34 -16z m-6793 -69 c48 -32 97 -104 120 -177 23 -76 23
-101 -2 -123 -17 -15 -24 -16 -45 -7 -21 10 -25 19 -25 52 0 81 -70 170 -134
170 -39 0 -95 -35 -114 -70 -16 -30 -9 -107 12 -149 9 -17 31 -45 50 -63 l34
-33 -29 -35 -29 -34 -36 34 c-59 58 -97 148 -102 244 -4 80 -4 82 30 126 73
96 181 122 270 65z m6928 -452 c2 -2 -6 -23 -18 -47 l-23 -43 -167 85 c-92 46
-173 90 -180 97 -12 11 -10 19 10 53 l23 41 175 -91 c96 -49 177 -92 180 -95z
m-6652 -36 c40 -68 72 -127 72 -130 0 -3 -13 -15 -29 -26 l-29 -21 -47 82
c-26 46 -49 85 -51 87 -3 4 -76 -32 -92 -45 -2 -1 19 -36 46 -77 l50 -74 -30
-17 c-16 -10 -31 -16 -32 -14 -1 1 -22 35 -47 73 l-44 71 -40 -23 c-22 -12
-40 -26 -40 -30 0 -4 22 -46 49 -92 l50 -84 -24 -19 c-13 -10 -28 -17 -34 -15
-13 4 -157 249 -153 260 2 8 335 215 347 216 3 1 38 -55 78 -122z m6251 17
l23 -16 -35 -37 c-62 -65 -84 -131 -49 -149 25 -13 40 -5 110 59 52 49 69 59
98 59 74 0 124 -51 124 -128 0 -68 -92 -222 -139 -235 -16 -4 -26 4 -42 30
-12 19 -20 35 -18 36 78 51 133 132 113 164 -22 35 -50 27 -114 -32 -33 -31
-72 -60 -87 -66 -60 -23 -143 40 -143 109 0 63 88 222 124 222 6 0 22 -7 35
-16z m-6084 -296 c78 -86 108 -137 113 -187 5 -55 -24 -104 -78 -132 -37 -20
-95 -25 -105 -9 -13 22 -22 7 -45 -80 -13 -49 -27 -90 -30 -90 -3 1 -19 20
-36 43 l-31 41 29 89 28 88 -20 30 -21 29 -46 -32 c-25 -18 -54 -39 -64 -47
-16 -12 -22 -9 -46 20 -16 18 -28 37 -28 42 0 9 313 245 327 246 3 1 27 -23
53 -51z m5910 -129 c57 -137 60 -143 117 -187 32 -25 58 -47 58 -50 0 -2 -14
-22 -31 -43 l-31 -39 -57 50 -57 50 -149 25 c-81 14 -150 27 -153 29 -8 9 51
76 67 76 9 0 57 -9 108 -19 l92 -17 -23 45 c-13 25 -34 70 -46 98 l-22 53 28
34 c16 19 31 35 34 35 3 1 32 -63 65 -140z m-5468 -420 c-12 -15 -24 -28 -27
-28 -3 -1 -28 22 -55 49 l-49 50 -126 -124 -125 -125 -39 36 c-31 29 -36 37
-25 47 8 7 66 63 130 124 l116 111 -48 47 -49 48 27 28 27 29 132 -132 133
-132 -22 -28z m5178 16 c68 -58 127 -105 132 -104 4 0 37 33 73 74 l65 73 27
-22 c15 -11 26 -24 25 -28 -1 -4 -47 -57 -101 -117 l-99 -108 -158 134 -159
135 28 33 c15 19 31 34 35 34 5 1 64 -46 132 -104z m-5045 -107 c0 -7 -205
-253 -256 -307 -11 -12 -18 -10 -46 14 -18 15 -33 32 -33 37 0 5 61 80 135
168 l135 159 33 -32 c17 -17 32 -35 32 -39z m4908 -108 c105 -51 192 -96 191
-99 0 -3 -16 -19 -34 -34 l-34 -28 -41 21 -42 21 -51 -40 c-107 -85 -100 -73
-83 -135 l14 -56 -39 -31 c-28 -22 -40 -27 -43 -17 -17 52 -116 420 -116 430
0 16 62 69 75 64 6 -2 97 -45 203 -96z m-4590 -151 c2 -5 -5 -20 -16 -33 l-19
-25 -86 69 -85 69 -37 -45 c-21 -25 -36 -46 -34 -47 2 -2 39 -29 82 -60 77
-57 77 -58 61 -82 -9 -14 -18 -25 -21 -25 -2 0 -40 28 -85 61 -63 48 -82 59
-89 48 -14 -26 -91 -119 -97 -119 -4 0 -22 13 -41 28 l-33 28 128 166 127 166
121 -95 c67 -52 122 -99 124 -104z m4238 -126 c65 -98 120 -180 122 -183 1 -3
-13 -14 -32 -24 -33 -18 -34 -18 -152 18 -66 19 -151 46 -190 60 l-71 24 83
-124 c46 -68 84 -128 84 -133 0 -13 -80 -45 -89 -35 -4 5 -50 77 -101 159 -51
83 -99 160 -107 171 -13 20 -11 23 21 43 l35 22 168 -52 c92 -28 177 -56 188
-62 17 -9 16 -6 -6 24 -14 19 -54 74 -89 123 l-64 89 32 28 c18 16 36 29 41
29 4 0 61 -80 127 -177z m-4127 51 l39 -25 -110 -174 -111 -173 -42 26 -43 26
32 50 c18 28 67 106 110 174 43 67 79 122 82 122 2 0 22 -12 43 -26z m323
-152 c47 -20 128 -87 128 -104 0 -6 -10 -23 -23 -38 l-24 -27 -19 29 c-49 75
-168 105 -232 59 -37 -26 -72 -88 -72 -126 0 -94 108 -178 208 -161 28 4 33 2
28 -10 -3 -9 -6 -27 -6 -40 0 -22 -4 -24 -45 -24 -117 0 -252 97 -274 198 -23
110 35 220 135 258 50 18 137 12 196 -14z m3331 -216 c81 -70 147 -131 147
-135 0 -4 -19 -15 -41 -24 l-42 -16 -40 34 c-22 19 -44 35 -47 35 -4 0 -42
-15 -86 -34 -70 -31 -79 -38 -82 -63 -7 -78 -12 -89 -47 -106 -20 -9 -39 -17
-43 -17 -4 0 -4 78 -1 172 4 95 7 199 8 230 1 56 2 58 39 77 l37 19 25 -22
c14 -13 91 -80 173 -150z m-2900 25 c23 -9 24 -15 36 -173 6 -89 15 -191 18
-226 l6 -63 -29 7 c-72 17 -74 19 -74 77 l0 54 -86 32 -86 31 -46 -40 c-29
-26 -51 -39 -61 -35 -9 4 -28 9 -43 12 -16 3 -28 8 -28 12 0 3 73 79 163 169
171 172 165 168 230 143z m2301 -47 c17 -45 10 -50 -101 -74 -60 -13 -109 -24
-111 -25 -3 -2 18 -97 23 -103 1 -1 43 7 94 19 51 12 94 19 97 17 2 -3 6 -18
10 -34 l6 -30 -95 -18 -95 -18 24 -86 c13 -48 24 -90 24 -93 0 -7 -91 -32 -95
-27 -6 8 -103 413 -100 417 7 6 268 70 291 70 12 1 25 -6 28 -15z m-1989 -40
c83 -20 167 -41 189 -46 36 -9 38 -11 32 -40 -3 -18 -8 -34 -11 -36 -2 -3 -33
3 -69 12 -36 9 -69 16 -74 16 -4 0 -14 -28 -21 -62 -7 -35 -24 -112 -38 -171
l-25 -109 -47 7 c-25 4 -47 8 -48 8 -1 2 46 219 72 334 5 20 -2 23 -70 38 -41
9 -75 18 -75 20 0 11 23 65 28 65 4 0 75 -16 157 -36z m459 -90 c139 -17 146
-19 146 -40 0 -50 -2 -51 -117 -36 -119 16 -123 15 -123 -49 l0 -37 99 -12
100 -13 -6 -31 c-3 -17 -6 -32 -7 -32 -1 -1 -45 5 -99 14 -54 8 -99 13 -101
11 -2 -2 -7 -29 -11 -60 l-7 -56 116 -12 116 -13 0 -34 c0 -18 -3 -35 -7 -37
-9 -4 -179 17 -269 33 l-61 12 8 51 c4 29 17 123 30 210 17 116 26 156 35 153
7 -3 78 -13 158 -22z m1034 11 c51 -22 81 -52 108 -110 56 -119 3 -248 -122
-295 -181 -67 -357 48 -342 224 6 78 41 126 119 165 51 26 74 31 131 31 39 0
84 -7 106 -15z"/>
<path d="M5054 7140 c-185 -19 -284 -81 -346 -216 l-23 -49 0 -765 c0 -724 1
-768 19 -823 34 -103 122 -177 246 -208 34 -9 109 -14 195 -14 117 0 152 4
212 23 126 39 208 124 232 238 9 44 11 249 9 814 l-3 755 -25 50 c-29 59 -85
117 -140 145 -85 44 -238 64 -376 50z"/>
<path d="M7405 6803 c-26 -120 -99 -407 -161 -638 -61 -231 -111 -421 -109
-423 1 -1 146 -1 322 0 l319 3 -62 230 c-99 361 -170 644 -214 850 -23 104
-42 191 -44 192 -1 2 -24 -95 -51 -214z"/>
<path d="M2127 3405 c-52 -39 -52 -38 0 -102 42 -52 80 -58 112 -17 12 15 21
32 21 39 0 16 -62 108 -76 112 -6 2 -32 -13 -57 -32z"/>
<path d="M7511 2763 c2 -4 18 -45 34 -90 17 -46 33 -83 36 -83 4 0 29 19 57
42 l52 41 -68 35 c-37 19 -78 41 -91 49 -13 8 -22 11 -20 6z"/>
<path d="M6683 2219 c4 -13 7 -56 7 -96 l0 -71 60 26 c33 15 60 29 60 33 0 3
-30 34 -67 69 -52 50 -65 59 -60 39z"/>
<path d="M3868 2049 l-58 -67 63 -25 c34 -14 63 -24 63 -24 1 1 -1 43 -5 92
l-6 91 -57 -67z"/>
<path d="M5615 1956 c-50 -23 -77 -60 -83 -114 -9 -95 52 -162 148 -162 77 0
140 62 140 137 -1 41 -34 109 -64 128 -35 23 -104 29 -141 11z"/>
</g>
</svg>
