<?xml version="1.0" standalone="no"?>
<!DOCTYPE svg PUBLIC "-//W3C//DTD SVG 20010904//EN"
 "http://www.w3.org/TR/2001/REC-SVG-20010904/DTD/svg10.dtd">
<svg version="1.0" xmlns="http://www.w3.org/2000/svg"
 width="1024.000000pt" height="1536.000000pt" viewBox="0 0 1024.000000 1536.000000"
 preserveAspectRatio="xMidYMid meet">
<metadata>
Created by potrace 1.16, written by Peter Selinger 2001-2019
</metadata>
<g transform="translate(0.000000,1536.000000) scale(0.100000,-0.100000)"
fill="#000000" stroke="none">
<path d="M1588 13945 c-344 -58 -592 -296 -662 -638 -9 -42 -16 -94 -16 -117
l0 -40 4216 0 4215 0 -6 58 c-46 396 -311 683 -685 742 -105 16 -6963 12
-7062 -5z"/>
<path d="M2462 12587 c-52 -16 -126 -89 -152 -148 -33 -78 -30 -154 9 -234
l32 -64 -83 -165 -83 -166 -51 0 c-49 0 -53 2 -77 39 -94 142 -296 161 -417
39 -47 -47 -70 -102 -70 -174 0 -165 106 -275 266 -275 121 0 216 68 254 182
16 48 22 54 65 71 l46 18 15 -37 c9 -21 42 -96 74 -168 100 -223 95 -198 56
-253 -43 -61 -56 -101 -56 -177 0 -203 223 -329 403 -227 133 75 173 254 86
385 -50 76 -130 117 -229 117 l-57 0 -41 89 c-23 49 -67 146 -97 215 l-55 126
75 143 75 143 87 -4 c82 -4 92 -2 143 25 253 133 156 517 -129 512 -31 -1 -71
-6 -89 -12z"/>
<path d="M6734 12154 c-73 -36 -72 -144 1 -178 44 -21 89 -11 120 26 69 81
-26 200 -121 152z"/>
<path d="M3590 11805 c0 -370 -3 -390 -59 -419 -41 -22 -107 -20 -160 4 -24
11 -45 19 -46 18 -8 -11 -34 -141 -30 -148 10 -15 100 -41 166 -47 125 -11
229 41 273 137 20 43 21 65 24 418 l3 372 -85 0 -86 0 0 -335z"/>
<path d="M3890 11681 l0 -461 90 0 90 0 0 159 0 159 138 5 c174 6 230 22 293
86 54 53 79 121 79 211 0 127 -49 208 -158 262 l-66 33 -233 3 -233 4 0 -461z
m423 295 c56 -24 80 -59 85 -124 3 -48 0 -63 -20 -92 -34 -50 -65 -61 -194
-67 l-114 -6 0 152 0 151 105 0 c67 0 117 -5 138 -14z"/>
<path d="M6240 11958 l0 -88 -71 0 -70 0 2 -65 2 -65 69 0 68 0 0 -185 c0
-198 7 -234 53 -283 44 -47 122 -69 203 -57 61 9 74 25 74 93 l0 57 -57 -3
c-97 -5 -97 -5 -101 202 l-3 176 80 0 81 0 0 65 0 65 -80 0 -80 0 0 88 0 87
-85 0 -85 0 0 -87z"/>
<path d="M4857 11876 c-97 -27 -183 -112 -212 -209 -9 -29 -16 -88 -16 -135 0
-105 32 -184 98 -242 141 -124 440 -98 520 45 12 22 20 41 17 44 -2 2 -35 14
-73 26 l-69 22 -13 -23 c-30 -57 -159 -83 -229 -45 -40 21 -80 83 -80 125 l0
28 234 -3 c129 -2 237 -1 241 3 14 13 -14 168 -39 216 -29 57 -82 107 -142
133 -56 25 -175 33 -237 15z m189 -141 c31 -20 64 -73 64 -102 0 -23 -1 -23
-156 -23 l-156 0 6 32 c21 107 147 156 242 93z"/>
<path d="M5657 11871 c-27 -11 -64 -31 -83 -46 l-34 -26 0 35 0 36 -85 0 -85
0 0 -435 0 -435 85 0 85 0 0 145 c0 144 0 145 20 125 45 -45 101 -64 190 -65
102 0 157 21 219 85 61 63 85 134 85 255 1 118 -17 182 -70 243 -74 87 -223
125 -327 83z m160 -159 c17 -12 39 -39 49 -59 23 -49 25 -165 2 -208 -67 -125
-230 -135 -295 -18 -57 102 -28 238 61 295 43 26 139 22 183 -10z"/>
<path d="M7197 11876 c-98 -27 -184 -112 -213 -213 -11 -39 -15 -81 -12 -138
9 -180 124 -297 306 -312 155 -13 296 73 327 199 7 29 3 31 -70 42 -22 4 -52
9 -67 12 -23 5 -28 2 -28 -14 0 -28 -43 -77 -80 -92 -45 -19 -125 -8 -156 21
-46 43 -58 78 -58 164 0 86 12 121 57 163 33 31 92 44 141 31 45 -12 96 -58
96 -87 0 -21 1 -21 128 -6 40 5 42 7 36 32 -37 155 -225 247 -407 198z"/>
<path d="M7847 11876 c-50 -14 -107 -54 -141 -99 -28 -38 -33 -140 -9 -187 32
-62 85 -89 219 -112 137 -23 164 -36 164 -78 0 -43 -39 -65 -116 -65 -70 0
-108 20 -133 69 -14 30 -18 30 -138 10 l-31 -6 15 -43 c18 -54 86 -119 139
-135 73 -21 194 -24 264 -6 113 29 170 94 170 194 0 120 -70 171 -277 201
-119 18 -152 45 -118 97 20 31 53 44 112 44 38 0 50 -5 79 -34 19 -19 34 -41
34 -50 0 -19 3 -19 92 -3 l68 12 -24 50 c-26 56 -78 107 -134 131 -52 21 -176
27 -235 10z"/>
<path d="M6690 11545 l0 -325 90 0 90 0 0 325 0 325 -90 0 -90 0 0 -325z"/>
<path d="M4170 10881 c0 -5 7 -11 15 -15 10 -3 15 -19 15 -45 l0 -39 -39 5
c-33 5 -44 1 -65 -20 -36 -36 -37 -107 -1 -142 26 -27 46 -31 77 -14 11 6 23
7 27 3 7 -11 46 -12 57 -1 4 4 0 7 -9 7 -15 0 -17 16 -17 135 l0 135 -30 0
c-16 0 -30 -4 -30 -9z m8 -117 c17 -12 22 -25 22 -63 0 -52 -12 -71 -47 -71
-51 0 -71 105 -26 137 21 16 24 16 51 -3z"/>
<path d="M5600 10880 c0 -5 7 -10 15 -10 11 0 15 -12 15 -44 l0 -44 -39 5
c-33 5 -44 1 -65 -20 -36 -36 -37 -107 -1 -142 26 -27 46 -31 77 -14 11 6 23
7 27 3 8 -12 61 -15 61 -3 0 5 -7 9 -15 9 -13 0 -15 22 -15 135 l0 135 -30 0
c-16 0 -30 -4 -30 -10z m14 -119 c13 -14 16 -33 14 -72 -3 -52 -4 -54 -34 -57
-18 -2 -36 3 -43 12 -19 23 -16 94 4 116 23 25 37 25 59 1z"/>
<path d="M3180 10832 l0 -35 21 27 c12 15 30 26 45 26 24 0 24 0 24 -110 0
-106 -1 -111 -22 -119 -18 -7 -10 -9 35 -12 33 -2 61 -1 64 4 2 4 -5 7 -16 7
-20 0 -21 6 -21 116 l0 115 27 -3 c16 -2 32 -12 39 -25 6 -13 14 -20 17 -16
12 11 7 53 -5 54 -7 1 -57 2 -110 4 l-98 2 0 -35z"/>
<path d="M4405 10852 c-8 -20 -6 -52 3 -52 4 0 12 10 17 23 6 13 21 23 38 25
l27 3 0 -115 c0 -112 -1 -116 -22 -116 -47 0 -5 -12 46 -14 56 -1 73 7 36 17
-18 5 -20 14 -20 116 0 111 0 111 24 111 15 0 32 -11 45 -27 l20 -28 1 33 c0
36 11 33 -132 36 -58 1 -79 -2 -83 -12z"/>
<path d="M5874 10861 c-7 -8 -4 -61 4 -61 4 0 12 10 17 23 6 13 21 23 38 25
l27 3 0 -115 c0 -111 -1 -115 -22 -119 -13 -2 6 -5 42 -5 48 -1 59 2 43 8 -22
9 -23 15 -23 120 0 110 0 110 24 110 15 0 32 -11 45 -27 l20 -28 1 35 0 35
-106 0 c-58 0 -107 -1 -110 -4z"/>
<path d="M3790 10830 c0 -6 -12 -22 -26 -35 -21 -19 -23 -25 -10 -25 13 0 16
-12 16 -69 0 -89 22 -117 71 -91 27 15 24 28 -5 23 -24 -5 -24 -3 -28 66 l-3
71 28 0 c15 0 27 5 27 10 0 6 -14 10 -31 10 -28 0 -31 3 -27 25 3 14 1 25 -3
25 -5 0 -9 -5 -9 -10z"/>
<path d="M5220 10826 c0 -8 -12 -24 -27 -35 -25 -18 -26 -20 -8 -21 18 0 20
-6 17 -66 -3 -52 0 -70 14 -85 9 -10 23 -19 29 -19 17 0 64 39 48 40 -6 0 -14
-4 -18 -10 -3 -5 -12 -7 -20 -3 -11 4 -15 23 -15 74 0 67 1 69 25 69 14 0 25
5 25 10 0 6 -11 10 -25 10 -20 0 -25 5 -25 25 0 14 -4 25 -10 25 -5 0 -10 -6
-10 -14z"/>
<path d="M7840 10830 c0 -6 -12 -22 -26 -35 -21 -19 -23 -25 -10 -25 13 0 16
-12 16 -74 0 -85 13 -106 57 -90 35 12 42 33 8 27 -24 -5 -25 -4 -25 50 0 30
-3 62 -6 71 -5 13 1 16 25 16 17 0 31 5 31 10 0 6 -14 10 -31 10 -28 0 -31 2
-25 25 4 14 2 25 -4 25 -5 0 -10 -5 -10 -10z"/>
<path d="M3425 10765 c-19 -18 -25 -35 -25 -70 0 -50 21 -80 65 -91 27 -7 85
21 93 45 4 11 -1 10 -19 -2 -28 -20 -72 -22 -87 -4 -5 6 -12 23 -14 37 -3 24
-1 25 60 28 60 3 63 4 57 25 -17 57 -88 75 -130 32z m85 -4 c18 -34 11 -41
-35 -41 -38 0 -43 3 -38 18 7 21 32 42 50 42 7 0 17 -9 23 -19z"/>
<path d="M3607 10772 c-35 -38 -17 -77 41 -88 37 -7 57 -27 48 -49 -8 -23 -63
-19 -78 5 -17 27 -28 25 -28 -4 0 -19 7 -25 35 -30 49 -9 89 11 93 47 4 36
-12 55 -54 63 -43 8 -61 28 -44 49 17 21 48 19 62 -5 17 -27 28 -25 28 5 0 23
-4 25 -43 25 -30 0 -49 -6 -60 -18z"/>
<path d="M3922 10783 c-19 -7 -42 -58 -42 -93 0 -22 9 -41 30 -62 26 -25 36
-29 62 -24 33 7 68 32 68 49 0 6 -8 3 -18 -6 -19 -18 -59 -22 -79 -9 -18 11
-34 60 -22 67 5 4 33 5 62 4 61 -4 71 11 37 54 -21 26 -62 35 -98 20z m66 -15
c7 -7 12 -20 12 -30 0 -14 -8 -18 -40 -18 -44 0 -52 16 -24 44 19 19 36 20 52
4z"/>
<path d="M4630 10781 c0 -5 7 -11 15 -15 9 -3 13 -14 11 -28 -3 -13 -5 -44 -5
-70 -1 -37 -5 -48 -17 -48 -8 0 -13 -3 -10 -8 2 -4 26 -5 53 -3 26 3 40 6 31
9 -27 6 -26 117 1 132 14 7 22 7 26 0 9 -15 25 -2 25 21 0 24 -27 25 -52 2
-17 -15 -18 -15 -18 0 0 12 -9 17 -30 17 -16 0 -30 -4 -30 -9z"/>
<path d="M4793 10776 c13 -10 17 -28 17 -75 0 -48 4 -65 20 -81 24 -24 36 -25
73 -6 19 11 27 12 27 3 0 -7 14 -12 30 -13 17 -1 30 3 30 7 0 5 -7 9 -15 9
-12 0 -15 16 -15 85 l0 85 -30 0 c-29 0 -41 -15 -19 -22 14 -5 15 -116 1 -130
-5 -5 -20 -8 -33 -6 -23 3 -24 8 -27 81 l-3 77 -37 0 c-33 -1 -35 -2 -19 -14z"/>
<path d="M5037 10772 c-20 -22 -22 -58 -5 -69 7 -4 31 -15 53 -23 28 -11 40
-21 40 -35 0 -30 -59 -34 -77 -6 -17 28 -28 26 -28 -3 0 -21 6 -25 40 -31 53
-9 90 13 90 54 0 34 -15 49 -58 57 -41 8 -59 29 -42 49 19 23 46 18 69 -12
l20 -28 1 33 c0 31 -1 32 -43 32 -30 0 -49 -6 -60 -18z"/>
<path d="M5349 10777 c-69 -53 -39 -171 44 -171 35 0 77 26 77 47 0 6 -8 3
-18 -6 -39 -36 -102 -11 -102 39 0 23 3 24 60 24 67 0 74 9 39 54 -22 29 -71
35 -100 13z m69 -9 c7 -7 12 -20 12 -30 0 -14 -8 -18 -40 -18 -44 0 -52 16
-24 44 19 19 36 20 52 4z"/>
<path d="M6100 10780 c0 -5 5 -10 10 -10 6 0 10 -31 10 -74 0 -63 -3 -75 -17
-79 -10 -3 7 -5 37 -5 30 0 47 2 38 5 -15 4 -18 16 -18 63 0 63 13 83 48 73
18 -4 22 -1 22 16 0 26 -26 28 -52 4 -17 -15 -18 -15 -18 0 0 12 -9 17 -30 17
-16 0 -30 -4 -30 -10z"/>
<path d="M6275 10770 c-10 -11 -15 -26 -11 -35 8 -21 26 -10 26 16 0 25 25 35
45 19 26 -21 19 -57 -12 -65 -46 -11 -73 -33 -73 -60 0 -36 40 -54 73 -32 22
14 26 14 39 0 13 -13 19 -13 39 -2 20 11 21 14 7 17 -13 2 -18 14 -19 40 -1
59 -7 92 -20 108 -17 21 -73 18 -94 -6z m75 -99 c0 -28 -14 -41 -46 -41 -22 0
-16 37 8 54 32 22 38 20 38 -13z"/>
<path d="M6440 10781 c0 -5 6 -11 14 -14 20 -8 21 -121 0 -141 -14 -15 -11
-16 33 -15 26 1 40 3 31 6 -15 4 -18 16 -18 69 0 59 2 65 25 76 40 18 55 -3
55 -77 0 -52 -3 -64 -17 -68 -10 -3 5 -5 32 -5 28 0 42 2 33 5 -15 4 -18 16
-18 77 0 43 -5 77 -12 84 -17 17 -58 15 -80 -5 -17 -15 -18 -15 -18 0 0 12 -9
17 -30 17 -16 0 -30 -4 -30 -9z"/>
<path d="M6687 10772 c-20 -22 -22 -55 -4 -70 7 -6 31 -17 53 -24 28 -9 39
-19 39 -33 0 -30 -59 -34 -77 -6 -17 28 -28 26 -28 -3 0 -21 6 -25 40 -31 53
-9 90 13 90 54 0 33 -13 46 -57 55 -42 9 -60 31 -43 51 17 21 48 19 62 -5 17
-27 28 -25 28 5 0 23 -4 25 -43 25 -30 0 -49 -6 -60 -18z"/>
<path d="M6830 10780 c0 -5 5 -10 10 -10 6 0 10 -45 10 -114 0 -101 -2 -115
-17 -119 -10 -3 7 -5 37 -5 30 0 47 2 38 5 -13 3 -18 15 -18 44 0 37 1 38 23
28 30 -14 71 2 93 36 20 31 14 97 -12 126 -19 21 -73 26 -92 7 -9 -9 -12 -9
-12 0 0 7 -13 12 -30 12 -16 0 -30 -4 -30 -10z m134 -26 c18 -18 21 -85 6
-115 -11 -19 -35 -24 -64 -13 -20 8 -23 129 -3 137 24 10 46 7 61 -9z"/>
<path d="M7072 10774 c-26 -18 -31 -60 -6 -50 9 3 17 6 19 6 2 0 1 9 -2 19 -3
13 2 21 16 26 29 9 41 -1 41 -35 0 -23 -5 -30 -29 -35 -32 -7 -71 -39 -71 -59
0 -25 36 -47 64 -40 14 3 29 10 32 16 3 5 11 2 18 -8 10 -13 17 -14 34 -5 25
13 30 34 7 25 -12 -5 -15 5 -15 58 0 50 -4 69 -18 81 -23 21 -61 22 -90 1z
m69 -106 c-5 -24 -13 -34 -29 -36 -33 -5 -41 27 -13 50 36 28 50 23 42 -14z"/>
<path d="M7230 10780 c0 -5 7 -10 15 -10 12 0 15 -15 15 -74 0 -63 -3 -75 -17
-79 -10 -3 7 -5 37 -5 42 -1 50 1 33 8 -20 8 -23 17 -23 64 0 59 14 76 55 73
24 -2 27 26 4 31 -9 2 -24 -4 -32 -13 -20 -19 -27 -19 -27 0 0 10 -10 15 -30
15 -16 0 -30 -4 -30 -10z"/>
<path d="M7415 10765 c-49 -48 -26 -144 38 -160 32 -8 73 10 88 37 12 22 11
23 -8 6 -23 -21 -76 -24 -91 -5 -5 6 -12 23 -14 37 -3 24 -1 25 57 26 57 1 60
3 57 25 -6 57 -84 78 -127 34z m76 5 c10 -6 19 -20 19 -30 0 -17 -7 -20 -45
-20 -38 0 -43 3 -38 18 5 15 31 42 41 42 2 0 12 -5 23 -10z"/>
<path d="M7570 10780 c0 -5 7 -10 15 -10 12 0 15 -15 15 -74 0 -63 -3 -75 -17
-79 -10 -3 5 -5 32 -5 28 0 44 2 38 5 -9 3 -13 28 -13 74 0 65 1 69 26 75 36
9 47 -7 52 -76 4 -55 3 -60 -19 -69 -19 -8 -13 -10 31 -9 30 0 47 2 38 5 -15
4 -18 16 -18 72 0 95 -27 118 -104 86 -14 -6 -17 -5 -12 3 5 8 -4 12 -28 12
-20 0 -36 -4 -36 -10z"/>
<path d="M4294 10639 c-10 -17 23 -46 37 -32 7 7 9 19 6 27 -7 18 -33 21 -43
5z"/>
<path d="M5732 10628 c2 -12 10 -23 18 -23 22 0 19 39 -3 43 -15 3 -18 -1 -15
-20z"/>
<path d="M7944 10635 c-8 -19 12 -36 33 -28 19 7 12 37 -10 41 -9 2 -20 -4
-23 -13z"/>
<path d="M6575 9536 c-93 -167 -130 -314 -129 -516 0 -204 34 -344 122 -512
l46 -88 83 0 83 0 -15 23 c-28 44 -94 264 -109 369 -20 134 -20 252 0 385 26
179 87 357 131 382 14 8 -1 11 -57 11 -41 0 -85 3 -97 6 -18 5 -27 -4 -58 -60z"/>
<path d="M8624 9568 c29 -46 76 -202 97 -321 17 -102 20 -149 16 -287 -6 -188
-25 -295 -81 -440 -20 -51 -36 -94 -36 -96 0 -2 33 -4 73 -4 l73 0 36 63 c46
81 83 174 110 284 18 73 22 116 22 248 -1 141 -4 172 -27 260 -15 56 -50 146
-79 205 l-53 105 -83 3 -83 3 15 -23z"/>
<path d="M2230 9566 c-152 -43 -260 -163 -306 -341 -24 -96 -24 -278 0 -360
50 -167 138 -269 273 -316 48 -17 77 -20 168 -17 101 3 116 6 177 36 37 18 78
46 91 62 l25 29 6 -31 c3 -17 6 -43 6 -59 l0 -29 80 0 80 0 0 268 0 267 -207
-2 -208 -2 -3 -81 -3 -80 104 0 104 0 -7 -39 c-11 -59 -41 -102 -90 -128 -40
-22 -56 -24 -137 -21 -83 3 -95 6 -135 33 -28 21 -53 50 -72 89 -28 53 -31 68
-34 183 -7 190 32 298 123 350 117 66 287 17 327 -93 l12 -35 91 6 c123 9 128
11 120 43 -31 129 -153 242 -293 271 -69 14 -235 13 -292 -3z"/>
<path d="M5560 9565 c-67 -19 -149 -72 -185 -120 -15 -19 -38 -65 -51 -100
l-24 -66 112 3 111 3 10 30 c20 63 76 96 150 87 102 -12 145 -159 66 -226 -26
-22 -40 -26 -100 -26 l-69 0 0 -85 0 -85 73 0 c96 0 127 -19 147 -92 14 -51
-4 -118 -41 -154 -22 -21 -41 -28 -82 -32 -75 -6 -120 16 -147 74 l-22 44
-104 0 c-119 0 -117 2 -88 -88 43 -132 163 -202 345 -202 162 0 273 53 333
160 28 50 31 63 31 141 0 78 -3 90 -30 134 -22 35 -46 57 -87 80 l-56 31 44
28 c26 16 56 48 72 75 23 40 27 57 27 126 0 63 -5 89 -23 122 -31 59 -86 109
-140 128 -67 24 -204 29 -272 10z"/>
<path d="M3020 9055 l0 -515 346 2 345 3 2 93 2 92 -232 0 -233 0 0 420 0 420
-115 0 -115 0 0 -515z"/>
<path d="M3850 9055 l0 -515 115 0 115 0 0 190 0 190 130 0 c71 0 153 5 182
11 116 25 202 94 233 190 20 59 22 189 5 247 -17 56 -80 127 -139 156 -77 39
-138 46 -396 46 l-245 0 0 -515z m493 311 c48 -20 71 -60 71 -127 1 -111 -44
-139 -219 -139 l-115 0 0 140 0 140 115 0 c75 0 127 -5 148 -14z"/>
<path d="M6910 9055 l0 -515 110 0 110 0 0 205 0 205 73 0 74 0 58 -132 c32
-73 73 -166 91 -205 l33 -73 120 0 121 0 -69 138 c-64 125 -141 289 -141 298
0 2 18 13 39 23 53 27 106 92 122 149 20 70 15 181 -12 234 -29 59 -75 105
-133 135 -82 42 -162 53 -388 53 l-208 0 0 -515z m443 311 c55 -23 72 -51 72
-117 0 -53 -3 -62 -33 -91 l-32 -33 -120 -3 -120 -4 0 131 0 131 100 0 c63 0
113 -5 133 -14z"/>
<path d="M7750 9475 l0 -95 135 0 135 0 0 -420 0 -420 115 0 115 0 0 420 0
420 130 0 130 0 0 95 0 95 -380 0 -380 0 0 -95z"/>
<path d="M4750 8925 l0 -85 208 0 207 0 0 85 0 85 -207 0 -208 0 0 -85z"/>
<path d="M2271 7649 c-48 -19 -84 -54 -107 -103 l-24 -51 0 -539 c0 -397 3
-549 12 -580 16 -52 72 -108 124 -124 32 -9 661 -12 2848 -12 2515 0 2811 2
2844 16 49 20 90 60 113 109 17 37 19 76 19 588 0 472 -2 553 -15 585 -21 49
-52 81 -100 103 -39 18 -139 19 -2865 18 -1746 0 -2834 -4 -2849 -10z m1580
-272 c52 -23 97 -63 122 -111 34 -63 31 -191 -5 -269 -31 -66 -110 -153 -218
-240 -41 -33 -78 -63 -82 -66 -4 -3 71 -5 167 -3 199 4 180 15 169 -97 l-7
-61 -298 0 -299 0 0 68 0 69 67 54 c114 92 287 270 311 320 31 65 30 142 -3
174 -19 20 -34 25 -75 25 -28 0 -60 -5 -72 -11 -24 -13 -48 -67 -48 -109 l0
-30 -96 0 -97 0 7 40 c19 120 90 221 179 254 54 20 225 16 278 -7z m730 -4
c133 -59 198 -192 199 -405 0 -289 -117 -448 -330 -448 -214 0 -326 127 -344
390 -11 159 29 325 97 398 29 31 80 62 130 78 60 20 190 13 248 -13z m1038
-220 c14 -11 36 -34 48 -52 l21 -31 21 29 c69 96 258 107 338 20 49 -53 53
-82 53 -344 l0 -245 -89 0 -90 0 -3 219 c-3 217 -3 220 -27 245 -36 38 -99 36
-143 -3 l-33 -29 -3 -216 -3 -216 -85 0 -84 0 0 200 c0 260 -11 290 -108 290
-50 0 -88 -29 -102 -78 -5 -20 -10 -121 -10 -224 l0 -188 -90 0 -90 0 0 315 0
315 90 0 90 0 0 -36 0 -36 42 36 c23 20 56 41 73 46 48 15 153 5 184 -17z
m944 16 c21 -5 53 -24 72 -41 l35 -30 0 31 0 31 85 0 85 0 0 -335 c0 -374 -1
-379 -68 -448 -50 -51 -126 -78 -238 -84 -154 -9 -253 36 -297 135 -10 24 -17
45 -15 46 1 2 46 6 98 9 l95 5 15 -32 c20 -42 75 -61 134 -45 76 20 106 68
106 169 l0 62 -25 -31 c-38 -45 -101 -65 -185 -59 -167 12 -263 147 -246 346
3 41 15 95 26 120 56 126 190 188 323 151z"/>
<path d="M4377 7229 c-9 -5 -27 -29 -40 -52 -20 -39 -22 -55 -22 -207 0 -183
13 -241 62 -280 37 -29 94 -26 132 6 47 39 64 112 65 269 0 205 -34 275 -133
275 -25 0 -54 -5 -64 -11z"/>
<path d="M6481 7027 c-46 -23 -65 -62 -69 -142 -2 -40 1 -89 8 -109 16 -50 62
-86 110 -86 89 0 130 44 138 150 6 84 -9 130 -54 170 -38 33 -89 40 -133 17z"/>
<path d="M2197 5666 c-20 -7 -45 -20 -54 -27 -54 -46 -71 -189 -30 -269 28
-58 71 -80 153 -80 113 0 169 63 169 190 0 125 -47 185 -152 195 -28 3 -63 0
-86 -9z m127 -79 c42 -42 46 -161 6 -209 -25 -32 -100 -32 -131 -1 -39 39 -38
174 2 214 28 28 93 26 123 -4z"/>
<path d="M3724 5666 c-42 -19 -64 -52 -64 -97 0 -56 30 -85 113 -110 85 -26
97 -34 97 -65 0 -56 -128 -58 -145 -2 -4 12 -16 18 -35 18 -36 0 -42 -10 -29
-49 16 -45 65 -71 133 -71 104 0 156 39 156 117 0 63 -28 90 -125 116 -77 22
-80 24 -80 52 0 23 6 32 28 39 35 13 79 -2 92 -32 8 -19 15 -21 40 -16 16 3
32 8 34 10 10 10 -16 58 -41 77 -35 26 -130 33 -174 13z"/>
<path d="M4463 5672 c-17 -3 -28 -21 -53 -90 -33 -88 -100 -283 -100 -289 0
-2 17 -3 38 -3 35 0 39 3 52 43 l15 42 74 0 74 0 15 -42 c13 -41 15 -43 54
-43 34 0 39 3 33 18 -4 9 -33 93 -66 186 -32 93 -61 171 -64 174 -6 6 -41 8
-72 4z m54 -155 c12 -39 23 -73 23 -74 0 -2 -24 -3 -53 -3 l-53 0 25 79 c15
43 28 77 30 75 3 -2 15 -37 28 -77z"/>
<path d="M5140 5658 c-67 -34 -93 -90 -87 -188 6 -122 48 -172 152 -178 76 -5
127 15 155 60 22 36 19 43 -27 53 -26 5 -32 3 -38 -14 -8 -26 -61 -43 -100
-33 -45 12 -67 61 -62 141 3 55 7 67 31 87 46 40 120 26 138 -26 3 -10 11 -10
41 -1 20 7 37 17 37 21 0 5 -14 25 -31 44 -51 58 -134 72 -209 34z"/>
<path d="M6404 5670 c-64 -26 -87 -129 -39 -174 14 -13 56 -32 93 -42 76 -20
92 -29 92 -55 0 -48 -90 -69 -130 -29 -11 11 -20 25 -20 30 0 16 -60 12 -66
-4 -9 -22 23 -74 56 -91 37 -19 130 -19 175 -1 77 33 87 147 17 188 -15 9 -54
23 -87 32 -67 17 -90 38 -74 67 21 41 105 35 124 -9 8 -19 15 -21 40 -16 41 9
41 9 22 50 -11 23 -29 40 -52 50 -37 15 -118 18 -151 4z"/>
<path d="M7244 5670 c-76 -24 -123 -130 -106 -237 17 -101 68 -143 173 -143
118 0 174 63 172 196 -1 84 -25 140 -72 167 -37 22 -123 30 -167 17z m131 -85
c22 -21 25 -33 25 -100 0 -72 -2 -78 -30 -107 -27 -26 -36 -30 -68 -25 -23 4
-46 17 -60 33 -22 25 -24 35 -20 107 3 68 6 81 27 98 34 28 96 25 126 -6z"/>
<path d="M1790 5480 l0 -190 40 0 40 0 0 75 0 75 75 0 75 0 0 30 0 30 -75 0
-75 0 0 55 0 55 85 0 85 0 0 30 0 30 -125 0 -125 0 0 -190z"/>
<path d="M2500 5480 l0 -190 40 0 40 0 0 81 0 80 32 -3 c30 -3 35 -9 65 -78
32 -74 33 -75 73 -78 22 -2 40 0 40 3 0 4 -16 40 -35 82 -39 85 -41 93 -21 93
24 0 56 50 56 86 0 88 -44 114 -189 114 l-101 0 0 -190z m191 120 c11 -6 19
-21 19 -35 0 -38 -25 -55 -81 -55 l-49 0 0 50 0 50 46 0 c25 0 54 -5 65 -10z"/>
<path d="M2990 5480 l0 -190 40 0 40 0 0 80 0 80 31 0 c28 0 33 -5 66 -80 l36
-80 39 0 c36 0 39 2 32 23 -3 12 -20 48 -35 79 -33 65 -35 78 -15 78 47 0 74
112 38 156 -29 37 -57 44 -166 44 l-106 0 0 -190z m191 120 c11 -6 19 -21 19
-35 0 -38 -25 -55 -81 -55 l-49 0 0 50 0 50 46 0 c25 0 54 -5 65 -10z"/>
<path d="M3345 5482 l0 -187 133 -3 132 -3 0 36 0 35 -95 0 -95 0 0 45 0 45
80 0 80 0 0 30 0 30 -80 0 -80 0 0 50 0 50 90 0 90 0 0 30 0 30 -127 0 -128 0
0 -188z"/>
<path d="M4016 5482 l1 -187 132 -3 131 -3 0 36 0 35 -95 0 -95 0 0 45 0 45
85 0 85 0 0 30 0 30 -85 0 -85 0 0 50 0 50 90 0 90 0 0 30 0 30 -127 0 -128 0
1 -188z"/>
<path d="M4712 5483 l3 -188 38 -3 37 -3 0 80 0 81 33 0 c32 0 35 -3 70 -80
l36 -80 40 0 c23 0 41 2 41 5 0 3 -18 41 -40 85 -45 89 -45 90 -27 90 21 0 56
43 63 75 8 42 -10 82 -48 105 -28 17 -51 20 -141 20 l-107 0 2 -187z m198 107
c38 -38 1 -80 -72 -80 l-48 0 0 50 0 50 50 0 c36 0 55 -5 70 -20z"/>
<path d="M5440 5480 l0 -190 40 0 40 0 0 85 0 85 80 0 80 0 0 -85 0 -85 35 0
35 0 0 190 0 190 -35 0 -35 0 0 -70 0 -70 -80 0 -80 0 0 70 0 70 -40 0 -40 0
0 -190z"/>
<path d="M5962 5528 c4 -159 16 -196 68 -223 43 -22 137 -20 178 5 51 32 62
70 62 225 l0 135 -40 0 -40 0 0 -138 c0 -155 -5 -169 -62 -178 -30 -5 -41 -2
-62 19 -25 25 -26 29 -26 162 l0 135 -41 0 -41 0 4 -142z"/>
<path d="M6690 5480 l0 -190 130 0 130 0 0 35 0 35 -93 0 -92 0 -1 45 0 45 83
0 83 0 0 30 0 29 -82 3 -81 3 0 45 0 45 91 3 92 3 0 29 0 30 -130 0 -130 0 0
-190z"/>
<path d="M7552 5483 l3 -188 37 -3 37 -3 3 131 3 131 75 -130 75 -131 43 0 42
0 0 190 0 190 -37 0 -38 0 3 -83 c2 -46 2 -103 0 -127 l-3 -44 -73 127 -73
127 -50 0 -49 0 2 -187z"/>
<path d="M7948 5480 l3 -191 131 3 131 3 1 33 1 32 -92 0 -93 0 0 155 0 155
-42 0 -43 0 3 -190z"/>
<path d="M8160 5666 c0 -2 29 -53 65 -114 65 -109 65 -110 65 -186 l0 -76 40
0 40 0 0 80 0 79 65 106 c36 57 65 107 65 110 0 4 -19 5 -42 3 -42 -3 -44 -5
-83 -75 -22 -40 -42 -73 -45 -73 -3 0 -23 34 -45 75 l-40 75 -42 0 c-24 0 -43
-2 -43 -4z"/>
<path d="M2059 4780 c-46 -24 -64 -67 -64 -150 0 -78 19 -114 70 -136 74 -30
161 -9 192 48 24 45 24 152 -2 194 -35 61 -126 81 -196 44z m137 -65 c21 -32
16 -138 -8 -161 -25 -25 -87 -22 -109 5 -24 30 -26 126 -3 159 23 33 97 32
120 -3z"/>
<path d="M2983 4785 c-50 -22 -73 -68 -73 -148 0 -107 44 -157 137 -157 89 0
143 60 143 160 0 32 -7 69 -18 90 -30 62 -116 87 -189 55z m122 -68 c22 -31
20 -129 -2 -156 -18 -20 -36 -26 -80 -23 -44 4 -67 90 -42 160 18 52 93 63
124 19z"/>
<path d="M5445 4786 c-57 -25 -70 -50 -73 -141 -4 -83 -4 -83 30 -120 29 -32
42 -38 85 -42 35 -4 61 0 85 11 35 17 64 59 53 77 -10 16 -44 10 -65 -11 -24
-24 -82 -27 -104 -5 -32 33 -32 137 0 170 30 29 114 11 114 -25 0 -8 41 4 59
17 2 1 -4 14 -13 29 -32 48 -111 67 -171 40z"/>
<path d="M5751 4782 c-52 -26 -74 -63 -79 -130 -5 -73 15 -124 60 -152 66 -40
172 -18 204 42 24 44 25 151 2 194 -32 59 -120 81 -187 46z m125 -67 c21 -32
16 -138 -8 -161 -24 -24 -88 -21 -110 6 -23 29 -25 126 -2 158 23 33 97 32
120 -3z"/>
<path d="M6374 4791 c-52 -22 -72 -102 -35 -135 11 -10 48 -27 83 -39 67 -24
86 -49 52 -74 -28 -20 -62 -16 -90 12 -23 24 -53 32 -67 19 -3 -3 -1 -19 5
-36 26 -73 187 -79 223 -7 36 69 11 111 -86 140 -39 12 -73 28 -76 35 -17 45
73 61 104 19 13 -18 24 -23 41 -19 28 8 28 26 -1 60 -19 22 -34 28 -78 30 -30
2 -64 0 -75 -5z"/>
<path d="M8053 4785 c-50 -22 -73 -68 -73 -148 0 -80 18 -119 66 -142 75 -36
172 -7 200 60 19 47 18 132 -4 175 -30 62 -116 87 -189 55z m121 -67 c23 -33
21 -129 -3 -159 -22 -27 -84 -30 -109 -5 -23 23 -28 116 -8 154 15 29 21 32
61 32 34 0 47 -5 59 -22z"/>
<path d="M1680 4640 l0 -150 30 0 30 0 0 107 0 107 33 -55 c100 -164 96 -159
133 -159 l34 0 0 150 0 150 -36 0 -36 0 4 -100 c2 -55 3 -100 2 -100 -1 0 -27
45 -59 100 -58 99 -59 100 -97 100 l-38 0 0 -150z"/>
<path d="M2284 4765 c1 -23 5 -25 49 -25 l47 0 0 -125 0 -125 35 0 35 0 0 125
0 125 45 0 c41 0 45 2 45 25 l0 25 -129 0 -129 0 2 -25z"/>
<path d="M2670 4640 l0 -150 30 0 30 0 0 60 0 60 60 0 c57 0 60 1 60 25 0 24
-3 25 -60 25 l-60 0 0 40 0 40 75 0 c73 0 75 1 75 25 l0 25 -105 0 -105 0 0
-150z"/>
<path d="M3240 4641 l0 -151 35 0 35 0 0 60 c0 58 1 60 26 60 22 0 30 -9 52
-60 25 -56 29 -60 59 -60 30 0 32 2 23 25 -5 13 -18 42 -30 64 -24 47 -24 51
-7 51 44 0 63 89 28 131 -17 22 -28 24 -120 27 l-101 4 0 -151z m170 80 c13
-25 13 -27 -6 -45 -9 -9 -32 -16 -55 -16 -39 0 -39 0 -39 40 l0 40 45 0 c34 0
47 -5 55 -19z"/>
<path d="M3640 4640 l0 -150 36 0 36 0 -4 65 -3 65 63 0 62 0 0 -65 0 -65 30
0 30 0 0 150 0 150 -30 0 c-30 0 -30 -1 -30 -55 l0 -55 -60 0 -60 0 0 55 0 55
-35 0 -35 0 0 -150z"/>
<path d="M3960 4668 c3 -68 10 -131 14 -141 22 -46 126 -62 183 -27 41 25 53
67 53 193 l0 97 -35 0 -35 0 0 -113 c0 -75 -4 -117 -12 -125 -20 -20 -86 -15
-98 7 -5 11 -10 67 -10 125 l0 106 -32 0 -33 0 5 -122z"/>
<path d="M4260 4640 l0 -150 30 0 30 0 0 113 1 112 38 -110 c37 -106 39 -110
69 -113 l31 -3 33 105 c18 58 35 106 38 106 3 0 4 -47 2 -105 l-3 -105 30 0
31 0 0 150 0 150 -49 0 c-45 0 -49 -2 -56 -27 -3 -16 -18 -65 -32 -111 l-26
-84 -35 111 -36 111 -48 0 -48 0 0 -150z"/>
<path d="M4686 4647 c-27 -78 -51 -147 -53 -153 -2 -6 9 -9 31 -6 28 3 35 9
43 35 9 31 10 32 68 32 59 0 60 -1 70 -32 8 -29 13 -33 43 -33 23 0 33 4 30
13 -3 6 -26 74 -53 150 l-49 137 -40 0 -41 0 -49 -143z m112 23 l21 -60 -44 0
-44 0 21 60 c11 33 21 60 23 60 2 0 12 -27 23 -60z"/>
<path d="M4950 4640 l0 -150 36 0 36 0 -4 100 c-1 55 -1 100 2 100 3 0 31 -45
64 -100 55 -96 60 -100 92 -100 l34 0 0 150 0 150 -30 0 -30 0 0 -102 0 -103
-61 103 c-61 101 -61 102 -100 102 l-39 0 0 -150z"/>
<path d="M6008 4640 l3 -150 30 0 30 0 -3 100 c-2 55 -1 100 2 100 3 0 32 -45
64 -100 59 -98 61 -100 97 -100 l37 0 1 150 2 150 -36 0 -35 0 0 -102 0 -102
-60 102 c-60 100 -61 102 -98 102 l-37 0 3 -150z"/>
<path d="M6610 4668 c3 -68 9 -130 13 -139 22 -46 114 -63 177 -31 47 23 59
62 59 190 l1 102 -35 0 -35 0 0 -113 c0 -75 -4 -117 -12 -125 -20 -20 -86 -15
-98 7 -5 11 -10 67 -10 125 l0 106 -32 0 -33 0 5 -122z"/>
<path d="M6910 4640 l0 -150 30 0 30 0 1 118 0 117 37 -117 36 -118 32 0 c33
0 33 1 62 93 17 50 32 101 35 112 2 11 5 -32 6 -95 l1 -115 30 0 30 0 0 153 0
152 -48 0 -49 0 -28 -97 c-15 -54 -31 -104 -35 -111 -3 -7 -21 36 -40 97 l-33
111 -49 0 -48 0 0 -150z"/>
<path d="M7300 4640 l0 -150 35 0 35 0 0 54 0 54 62 4 c51 4 65 9 85 32 33 39
31 89 -6 127 -28 28 -33 29 -120 29 l-91 0 0 -150z m159 91 c7 -5 14 -21 14
-36 0 -33 -17 -45 -65 -45 l-38 0 0 45 0 45 38 0 c20 0 43 -4 51 -9z"/>
<path d="M7560 4765 c0 -23 3 -25 50 -25 l50 0 0 -125 0 -125 30 0 30 0 0 125
0 125 50 0 c47 0 50 2 50 25 l0 25 -130 0 -130 0 0 -25z"/>
<path d="M7855 4640 l0 -150 33 0 32 0 0 150 0 150 -32 0 -33 0 0 -150z"/>
<path d="M8310 4640 l0 -150 33 0 32 0 -3 68 c-2 38 -2 84 0 103 3 33 5 31 66
-68 61 -98 65 -103 98 -103 l34 0 0 150 0 150 -32 0 -33 0 3 -102 3 -103 -63
102 c-62 101 -64 103 -100 103 l-38 0 0 -150z"/>
<path d="M904 3463 c3 -32 8 -91 11 -130 20 -249 172 -498 375 -617 70 -41
168 -81 256 -103 65 -17 261 -18 3574 -18 l3505 0 85 23 c297 79 513 286 590
565 18 67 39 225 40 305 l0 32 -4220 0 -4221 0 5 -57z"/>
</g>
</svg>
