<?xml version="1.0" standalone="no"?>
<!DOCTYPE svg PUBLIC "-//W3C//DTD SVG 20010904//EN"
 "http://www.w3.org/TR/2001/REC-SVG-20010904/DTD/svg10.dtd">
<svg version="1.0" xmlns="http://www.w3.org/2000/svg"
 width="1024.000000pt" height="1536.000000pt" viewBox="0 0 1024.000000 1536.000000"
 preserveAspectRatio="xMidYMid meet">
<metadata>
Created by potrace 1.16, written by Peter Selinger 2001-2019
</metadata>
<g transform="translate(0.000000,1536.000000) scale(0.100000,-0.100000)"
fill="#000000" stroke="none">
<path d="M4709 14356 c-3 -3 -144 -6 -315 -7 -465 -3 -1092 -27 -1059 -40 18
-7 18 -8 2 -8 -10 -1 -15 -5 -12 -11 10 -16 -12 -12 -29 6 -9 8 -16 11 -16 6
0 -6 -19 -13 -42 -17 -24 -4 -48 -15 -55 -24 -10 -13 -14 -14 -25 -3 -11 11
-10 12 5 7 10 -4 17 -2 17 4 0 16 -22 13 -49 -6 -15 -10 -21 -11 -16 -3 5 8 3
11 -6 8 -8 -3 -13 -10 -12 -15 1 -6 -9 -8 -23 -5 -13 2 -31 -1 -39 -8 -12 -10
-15 -10 -15 1 0 8 -9 3 -20 -11 -18 -23 -19 -23 -16 -4 4 20 2 21 -37 12 -23
-5 -46 -13 -51 -18 -6 -6 -15 -2 -23 8 -12 16 -13 16 -7 -2 6 -16 4 -17 -14
-7 -18 10 -21 9 -16 -4 4 -8 2 -15 -4 -15 -6 0 -18 -3 -28 -7 -13 -5 -15 -3
-9 8 7 12 6 12 -7 1 -10 -8 -18 -9 -22 -3 -4 6 -13 8 -21 5 -8 -4 -13 -9 -11
-13 3 -4 -7 -8 -21 -9 -15 -1 -35 -10 -46 -20 -11 -9 -17 -11 -13 -4 4 6 2 12
-3 12 -6 0 -11 -5 -11 -11 0 -8 -5 -7 -15 1 -13 11 -14 10 -9 -5 5 -13 4 -16
-4 -11 -7 4 -12 2 -12 -4 0 -7 -7 -9 -16 -6 -8 3 -13 2 -10 -2 2 -4 -4 -18
-13 -31 -15 -20 -21 -22 -39 -12 -17 9 -23 7 -36 -11 -9 -12 -16 -18 -16 -13
0 14 -37 -30 -44 -53 -4 -12 -13 -21 -19 -19 -7 1 -11 -6 -9 -15 2 -10 -3 -18
-10 -18 -9 0 -9 -3 2 -10 13 -8 12 -11 -5 -25 -20 -15 -20 -15 0 -8 19 6 19 5
-2 -19 -34 -37 -28 -46 7 -10 34 36 36 35 17 -2 -8 -14 -17 -23 -20 -19 -4 3
-7 -1 -7 -11 0 -9 -10 -21 -22 -26 -13 -5 -17 -9 -9 -9 7 -1 11 -7 7 -16 -7
-20 4 -19 18 0 10 14 13 14 31 1 20 -15 19 -15 -3 -9 -17 4 -21 2 -16 -10 4
-12 1 -15 -15 -12 -12 2 -21 -1 -21 -6 0 -6 -5 -7 -12 -3 -7 4 -8 3 -4 -5 4
-6 12 -8 18 -5 7 5 8 2 3 -6 -4 -7 -2 -16 6 -21 11 -8 10 -13 -9 -28 -22 -19
-22 -20 -2 -26 11 -4 17 -11 14 -17 -4 -6 -10 -5 -16 3 -7 10 -8 8 -3 -6 15
-41 11 -60 -12 -59 -13 1 -20 -3 -17 -7 3 -5 10 -7 15 -4 5 4 9 -5 9 -19 0
-14 -4 -26 -9 -26 -4 0 -7 -10 -7 -22 1 -13 -3 -29 -8 -37 -9 -12 -7 -13 8 -8
17 7 17 6 5 -10 -9 -11 -10 -14 -2 -9 7 4 20 3 29 -2 14 -8 14 -10 -1 -22 -13
-11 -15 -10 -9 6 4 10 4 16 0 13 -4 -4 -9 -19 -12 -35 -3 -19 -1 -24 4 -16 7
11 10 10 16 -3 9 -24 8 -27 -6 -19 -8 5 -9 1 -5 -12 7 -18 6 -18 -6 -2 -8 10
-17 15 -20 12 -3 -4 1 -13 10 -22 14 -14 14 -17 -3 -23 -11 -4 -13 -8 -6 -8 6
-1 12 -6 12 -12 0 -6 -6 -7 -12 -2 -7 4 -5 -5 5 -21 10 -15 16 -35 13 -43 -4
-11 -2 -13 9 -10 8 4 17 2 20 -3 3 -5 25 -7 48 -3 23 3 49 5 57 4 8 0 33 -1
55 -2 37 0 35 -2 -29 -19 -37 -10 -73 -23 -79 -29 -15 -15 14 -24 63 -19 22 2
40 0 40 -5 0 -4 4 -6 9 -3 4 3 17 -1 27 -8 13 -10 23 -11 31 -4 10 8 13 6 13
-8 0 -16 2 -17 10 -4 7 11 10 11 10 2 0 -7 5 -10 11 -6 9 5 10 -1 5 -20 -4
-18 -3 -25 6 -24 7 2 12 -5 12 -14 -1 -10 2 -18 7 -18 5 0 9 7 9 16 0 11 5 14
18 9 9 -4 22 -8 29 -8 6 0 9 -7 5 -16 -3 -9 -2 -13 2 -9 4 3 17 -3 28 -14 14
-14 20 -35 22 -74 2 -30 -1 -54 -6 -54 -5 0 -8 6 -7 13 3 23 -1 37 -10 37 -5
0 -7 -10 -3 -22 5 -21 4 -22 -13 -8 -10 8 -16 10 -12 3 4 -6 3 -13 -2 -15 -5
-1 -3 -12 6 -23 15 -19 15 -19 8 4 l-7 24 48 -27 c27 -15 41 -21 32 -13 -22
18 -34 108 -18 133 11 18 11 18 5 -1 -3 -11 -3 -16 1 -12 4 4 13 2 21 -4 9 -9
13 -8 13 0 0 6 -4 11 -10 11 -5 0 -10 5 -10 11 0 5 6 7 13 3 8 -5 8 -2 -2 9
-8 11 -9 17 -2 17 7 0 8 8 1 26 -11 28 -13 61 -4 52 5 -6 11 -30 13 -52 1 -4
7 -6 15 -3 8 3 16 1 19 -6 2 -6 6 -3 10 7 4 9 3 15 -2 12 -5 -3 -8 5 -8 18 0
18 4 23 15 18 11 -4 14 -1 9 12 -4 9 -3 15 2 12 5 -3 11 1 15 9 7 20 25 19 48
-2 18 -16 18 -16 12 0 -8 23 16 54 28 35 6 -10 10 -10 18 2 6 10 10 11 10 3 0
-7 4 -13 10 -13 5 0 6 8 3 18 -6 15 -5 15 10 3 15 -12 17 -11 17 5 0 16 2 17
10 4 5 -8 10 -10 10 -5 0 6 12 15 26 22 22 10 25 10 19 -4 -5 -14 -2 -13 16 3
12 10 19 14 15 7 -5 -9 5 -8 29 3 20 8 44 14 53 13 10 -1 22 0 27 1 6 1 30 3
55 5 144 8 247 16 259 21 7 2 21 -1 29 -8 9 -7 13 -8 10 -3 -4 7 24 11 80 12
115 2 164 3 182 2 14 -1 119 0 165 1 142 4 222 4 220 0 -2 -3 5 -6 15 -6 10 0
16 5 13 10 -4 5 -1 6 6 2 7 -5 56 -9 110 -10 100 -3 126 -9 115 -28 -4 -7 -2
-8 5 -4 6 4 8 12 5 18 -5 7 -1 7 12 0 13 -7 24 -6 40 5 21 14 22 13 20 -11 -3
-21 -1 -24 10 -15 8 6 11 16 7 22 -3 5 -1 7 5 3 5 -3 13 0 16 6 4 7 4 3 2 -9
-2 -13 1 -26 6 -30 6 -3 8 -1 4 5 -3 6 -2 13 4 17 6 3 10 -4 10 -17 0 -15 3
-19 8 -11 4 7 17 14 27 16 11 1 26 6 32 10 9 6 11 3 6 -9 -5 -14 -3 -16 11
-11 10 4 15 3 11 -3 -3 -6 -1 -10 6 -10 10 0 10 -3 1 -12 -7 -7 -12 -17 -12
-23 0 -5 5 -3 10 5 8 13 10 13 10 0 0 -10 5 -7 16 8 8 12 23 22 32 21 10 0 12
-3 5 -6 -7 -2 -13 -9 -13 -14 0 -6 4 -8 9 -5 5 3 12 -4 15 -17 7 -21 7 -21 16
-2 8 18 9 18 9 2 1 -10 5 -16 10 -13 5 3 9 -6 9 -19 0 -14 -5 -25 -10 -25 -5
0 -7 4 -4 8 2 4 1 14 -4 21 -6 11 -10 9 -19 -8 -9 -16 -9 -21 1 -21 9 0 9 -3
0 -12 -17 -17 -15 -33 3 -18 12 10 15 10 15 -1 0 -8 6 -5 14 7 14 17 14 16 11
-21 -3 -35 -2 -38 10 -22 11 16 13 16 19 1 9 -23 8 -27 -7 -21 -14 5 -42 -12
-47 -28 -7 -23 -33 -54 -41 -49 -5 3 -6 -2 -3 -10 3 -9 0 -18 -8 -21 -15 -6
-21 -35 -6 -35 4 0 8 6 8 14 0 24 23 34 47 21 13 -6 20 -15 17 -18 -4 -3 -16
-1 -28 5 -11 6 -18 7 -14 3 4 -4 1 -14 -7 -21 -7 -8 -11 -23 -8 -34 l6 -21 14
21 c8 11 11 25 8 30 -3 6 -2 10 4 10 20 0 23 -22 5 -41 -9 -10 -12 -19 -7 -19
6 0 16 7 23 15 7 8 17 15 22 15 5 0 3 -7 -6 -15 -9 -9 -12 -23 -9 -33 6 -14 8
-13 14 8 6 20 7 21 8 5 0 -11 -8 -31 -18 -44 -10 -14 -16 -31 -13 -39 4 -11 0
-13 -15 -8 -14 5 -23 1 -27 -10 -5 -14 -4 -15 9 -4 13 11 15 10 12 -6 -1 -11
-6 -26 -11 -34 -7 -12 -6 -13 5 -2 7 6 21 12 31 12 21 0 22 8 8 44 -7 21 -6
26 5 26 8 0 15 6 15 14 0 8 4 18 10 21 6 3 7 -1 4 -9 -4 -11 2 -19 17 -26 23
-10 23 -10 2 -6 -15 3 -23 -1 -23 -9 0 -7 -6 -16 -12 -18 -10 -4 -10 -6 0 -6
7 -1 10 -6 6 -13 -5 -7 -1 -9 13 -6 22 6 25 -20 4 -45 -7 -9 -13 -25 -14 -36
-1 -21 -17 -31 -17 -11 0 6 -4 10 -10 10 -5 0 -10 -6 -10 -14 0 -8 -7 -17 -16
-20 -13 -5 -14 -9 -5 -20 9 -10 8 -15 -4 -20 -8 -3 -14 -13 -14 -23 1 -17 2
-17 6 0 7 28 24 19 18 -10 -5 -25 -4 -25 10 5 16 33 35 39 43 11 3 -11 2 -11
-7 1 -10 13 -15 8 -12 -12 0 -5 -3 -8 -9 -8 -5 0 -8 -13 -7 -30 1 -16 5 -30 8
-30 10 0 18 39 8 42 -4 2 3 8 17 15 22 10 24 10 13 -3 -6 -8 -9 -17 -5 -21 3
-4 13 2 20 13 13 17 13 14 3 -19 -7 -21 -13 -31 -15 -23 -4 20 -22 21 -22 1 0
-8 5 -15 10 -15 7 0 7 -6 1 -19 -6 -10 -7 -21 -4 -25 3 -3 2 -6 -4 -6 -6 0
-11 -10 -10 -22 1 -30 -6 -51 -18 -61 -6 -5 -4 -7 5 -4 8 2 14 10 12 16 -1 6
2 11 7 11 5 0 17 3 27 7 10 4 15 2 11 -4 -3 -5 0 -10 9 -10 10 0 12 7 9 21 -6
21 -6 21 9 2 9 -11 16 -16 16 -10 0 5 4 3 9 -5 13 -21 61 -21 61 0 0 11 7 16
23 14 36 -4 37 -4 37 -16 0 -8 -5 -8 -15 1 -11 9 -15 9 -15 1 0 -7 -4 -9 -10
-6 -5 3 -10 2 -10 -4 0 -15 18 -23 22 -10 3 8 10 5 22 -6 13 -13 17 -14 16 -4
-4 27 0 40 11 34 6 -4 8 -13 5 -21 -4 -10 0 -11 18 -4 13 5 27 6 30 3 3 -3 13
9 21 28 9 19 14 24 11 12 -3 -16 1 -23 12 -24 10 0 26 -3 37 -5 11 -3 32 -5
48 -5 15 0 25 -5 22 -10 -8 -12 17 -11 35 2 12 9 11 10 -5 4 -11 -3 -16 -3
-12 2 11 10 67 13 67 4 0 -10 38 -7 47 4 5 4 1 4 -7 0 -13 -8 -13 -7 -1 9 8 9
17 13 20 8 10 -14 41 -22 41 -10 0 6 9 3 19 -6 19 -18 20 -17 30 15 5 19 10
26 10 17 1 -10 6 -18 12 -18 8 0 8 -4 0 -13 -8 -10 -7 -14 3 -14 10 0 13 9 11
29 -5 38 2 36 14 -4 9 -32 9 -32 10 -6 1 15 5 30 11 33 5 3 7 0 4 -9 -3 -8 -1
-23 6 -33 10 -17 11 -17 6 2 -3 11 -1 27 4 35 8 13 10 12 10 -4 0 -16 2 -16
20 5 10 13 19 19 20 13 0 -5 -5 -15 -10 -20 -7 -7 -6 -11 5 -11 15 0 19 9 16
37 -2 12 0 13 7 1 6 -8 15 -10 22 -6 9 5 11 4 6 -3 -4 -7 -2 -12 3 -12 18 0
12 17 -11 32 -13 8 -31 14 -41 12 -9 -1 -15 1 -12 6 3 4 -2 10 -10 14 -8 3
-15 11 -14 18 0 10 2 10 6 1 2 -7 11 -13 19 -13 8 0 14 -6 14 -12 0 -8 8 -4
17 7 10 13 14 14 10 4 -3 -9 3 -20 14 -27 15 -10 20 -8 29 7 13 26 13 34 -2
25 -7 -5 -9 -2 -5 9 3 9 1 18 -6 21 -9 3 -8 5 1 5 7 1 10 6 7 11 -3 6 -2 10 3
10 5 0 15 14 22 31 11 27 11 33 -9 59 -16 23 -18 28 -5 23 13 -5 15 -2 10 15
-4 12 -3 30 3 39 6 10 11 13 11 6 0 -7 6 -10 13 -7 17 6 20 55 5 67 -10 6 -9
7 2 4 8 -2 18 -17 21 -33 5 -22 7 -24 8 -7 0 12 6 25 12 28 6 4 10 1 8 -6 -3
-28 1 -49 11 -49 7 0 7 6 1 19 -8 14 -7 22 3 30 7 6 16 8 19 4 4 -3 7 -1 7 5
0 6 -4 14 -10 17 -5 3 -10 1 -10 -4 0 -6 -5 -11 -10 -11 -7 0 -7 6 -2 18 12
22 4 44 -11 35 -7 -4 -6 1 2 10 11 14 11 17 0 17 -8 0 -5 6 6 14 11 8 23 12
27 10 4 -2 9 -1 12 4 2 4 -4 9 -15 9 -10 1 -19 -3 -19 -9 0 -7 -5 -6 -14 1
-12 10 -14 3 -14 -41 -1 -34 2 -47 8 -38 5 8 11 12 14 9 3 -2 1 -11 -3 -18
-14 -22 -31 -3 -31 34 0 28 -3 33 -17 28 -14 -5 -12 0 6 20 26 29 22 49 -5 26
-16 -13 -16 -12 -6 8 7 12 9 23 4 26 -4 2 -1 2 6 0 9 -2 11 3 8 15 -4 10 1 27
10 38 15 19 15 19 7 -1 -14 -35 -2 -95 18 -95 12 0 32 48 31 73 0 9 3 15 8 12
11 -7 23 13 26 42 2 15 -1 21 -8 17 -8 -5 -9 -1 -4 12 17 42 19 55 5 52 -20
-4 -30 -21 -17 -29 7 -4 6 -14 -2 -29 -8 -15 -8 -20 -1 -16 6 4 11 0 11 -9 0
-9 -4 -14 -9 -11 -5 3 -11 -1 -15 -9 -3 -8 -11 -15 -18 -15 -8 0 -9 3 -3 8 6
4 15 22 22 40 9 26 9 32 -3 32 -10 0 -11 6 -4 25 6 16 6 25 0 25 -6 0 -10 -9
-10 -19 0 -26 -16 -35 -24 -14 -4 10 -1 20 9 25 8 5 13 13 10 19 -3 5 1 6 9 3
9 -3 16 -1 16 5 0 6 -4 11 -8 11 -4 0 -8 10 -9 23 -2 20 0 19 13 -6 8 -15 12
-31 10 -36 -3 -5 0 -11 7 -14 13 -5 15 4 20 70 1 17 6 34 10 37 4 3 5 3 2 -1
-3 -3 2 -17 11 -31 9 -13 11 -21 5 -18 -15 10 -26 -43 -14 -64 8 -11 8 -22 0
-36 -9 -17 -9 -18 6 -5 18 15 23 41 8 41 -6 0 -4 15 4 34 8 19 12 43 9 53 -4
13 -3 15 4 4 8 -10 13 -8 25 10 l16 23 10 -25 c8 -21 10 -21 10 -4 0 11 -6 29
-14 39 -10 13 -15 15 -15 6 0 -7 -3 -11 -6 -7 -3 3 -3 11 1 17 5 8 12 6 25 -5
17 -15 19 -15 29 2 10 17 10 17 11 -1 0 -15 3 -16 14 -7 8 7 23 14 34 16 16 3
19 0 15 -13 -5 -12 1 -10 20 7 23 21 29 22 44 10 11 -9 14 -10 9 -1 -4 7 -2
13 6 14 36 4 44 3 50 -7 5 -6 8 -3 8 8 0 18 20 19 32 2 5 -6 8 -4 8 5 0 13 1
13 10 0 6 -9 10 -10 10 -3 0 8 18 12 53 11 28 0 63 3 76 7 15 5 22 4 18 -1 -3
-6 32 -9 91 -7 120 3 212 2 277 -2 28 -2 93 -6 145 -9 108 -6 212 -14 285 -22
28 -4 57 -6 65 -6 8 0 42 -6 75 -13 115 -25 125 -25 125 -11 0 15 -37 31 -94
41 -25 4 -35 10 -27 14 7 5 23 6 37 3 17 -3 24 0 24 11 0 11 6 13 22 9 13 -3
19 -1 15 5 -8 12 50 26 66 16 5 -3 7 -1 3 5 -3 5 0 13 6 15 10 4 9 8 -2 16
-12 8 -12 11 -1 11 11 0 11 3 1 15 -10 12 -10 15 0 15 9 0 7 7 -6 22 -10 12
-13 18 -6 14 6 -4 12 -2 12 3 0 6 -5 11 -12 11 -6 0 -3 9 7 20 10 11 19 34 20
50 2 26 0 28 -14 17 -12 -10 -13 -9 -7 1 12 19 15 62 4 62 -5 0 -5 7 0 18 5 9
6 26 2 37 -4 11 -3 28 2 38 11 22 1 59 -15 51 -7 -3 -3 2 7 10 18 14 15 21 -7
17 -5 -1 -6 3 -2 9 3 6 10 8 14 6 4 -3 7 13 7 34 0 23 -3 34 -8 27 -5 -8 -8
-7 -8 5 0 9 6 19 13 21 7 4 2 9 -12 13 l-23 7 23 13 c13 7 19 13 12 14 -7 0
-10 7 -6 15 3 10 1 15 -8 13 -7 -2 -14 6 -16 17 -3 19 -3 19 5 1 5 -12 11 -16
15 -9 10 16 -3 44 -17 36 -6 -4 -3 5 7 20 10 15 14 27 10 26 -21 -4 -33 2 -27
12 3 6 0 15 -7 20 -12 7 -11 9 1 9 8 1 2 7 -15 15 -24 11 -26 14 -10 14 18 2
19 2 2 12 -9 5 -22 7 -27 4 -6 -3 -10 0 -10 7 0 19 -98 67 -124 60 -4 -2 -15
3 -24 10 -8 7 -26 13 -39 13 -13 1 -28 6 -32 13 -4 7 -12 12 -17 11 -5 -1 -22
3 -37 9 -36 15 -40 15 -31 0 5 -9 3 -9 -9 1 -9 7 -26 11 -38 8 -15 -4 -19 -2
-15 8 3 9 0 12 -9 9 -7 -3 -29 -1 -48 4 -25 7 -39 6 -47 -2 -9 -8 -11 -8 -8 3
4 15 -2 17 -142 31 -58 6 -109 13 -115 16 -14 6 165 -6 190 -13 13 -3 16 -2
10 4 -20 20 -527 58 -965 73 -352 12 -1293 23 -1301 16z m-1289 -57 c0 -6 -6
-9 -14 -6 -7 3 -19 0 -25 -6 -8 -8 -11 -7 -11 6 0 11 8 17 25 17 14 0 25 -5
25 -11z m43 4 c-7 -2 -19 -2 -25 0 -7 3 -2 5 12 5 14 0 19 -2 13 -5z m762 -12
c3 -5 2 -12 -3 -15 -5 -3 -9 1 -9 9 0 17 3 19 12 6z m-372 -41 c7 0 6 4 -3 10
-13 9 -13 10 1 10 8 0 21 -6 28 -12 8 -7 11 -8 9 -3 -3 6 0 16 7 22 11 10 15
9 19 -5 6 -17 19 -19 79 -13 5 1 5 6 1 13 -4 6 3 4 15 -5 23 -15 56 -13 46 3
-3 5 0 12 6 16 7 4 9 3 5 -4 -9 -15 11 -25 53 -26 40 -2 64 10 54 28 -3 6 3 3
14 -7 17 -15 25 -16 42 -7 12 6 21 7 21 1 0 -5 9 -7 20 -4 11 3 27 0 35 -7 9
-7 15 -8 15 -2 0 5 9 8 20 5 11 -3 18 -9 15 -13 -3 -5 4 -6 15 -3 11 3 17 10
13 16 -4 6 -1 7 6 3 7 -5 10 -15 7 -25 -5 -15 -5 -15 6 1 11 14 14 15 35 1 22
-14 23 -14 16 2 -4 12 -3 16 5 11 6 -3 13 -2 17 4 4 6 12 7 18 3 22 -14 49
-14 41 -1 -6 9 -3 9 9 0 9 -8 21 -11 26 -8 5 4 13 1 17 -5 4 -8 3 -9 -4 -5 -7
4 -12 2 -12 -4 0 -6 -11 -8 -25 -6 -15 3 -23 1 -20 -5 4 -5 10 -7 14 -5 4 3
13 0 21 -5 13 -9 13 -10 0 -8 -39 4 -61 -1 -54 -13 6 -10 5 -10 -8 -1 -8 7
-19 9 -23 5 -5 -4 -4 -1 0 7 5 8 -8 2 -28 -13 -35 -27 -35 -27 -31 -4 2 13 2
17 -2 10 -3 -6 -10 -10 -15 -6 -5 3 -9 0 -9 -6 0 -6 -11 -4 -25 6 -23 15 -25
15 -19 0 3 -9 10 -13 15 -10 5 3 9 0 9 -6 0 -6 -15 -9 -37 -6 -28 3 -41 -1
-56 -18 -10 -11 -16 -16 -12 -9 3 7 -5 17 -17 24 -21 11 -22 11 -10 -4 11 -13
10 -15 -7 -10 -12 3 -21 1 -21 -6 0 -6 -4 -11 -10 -11 -5 0 -10 6 -10 14 0 18
-39 9 -47 -10 -3 -8 -9 -14 -15 -14 -5 0 -7 4 -4 9 4 5 3 16 0 25 -6 15 -7 15
-19 0 -7 -10 -19 -15 -28 -11 -8 3 -21 -1 -28 -9 -10 -12 -13 -12 -24 2 -9 14
-14 14 -20 4 -5 -9 -4 -11 3 -6 7 4 12 2 12 -3 0 -6 -7 -11 -16 -11 -8 0 -12
-4 -9 -10 3 -5 1 -10 -5 -10 -7 0 -10 7 -7 15 4 8 2 17 -4 20 -5 4 -8 1 -7 -5
2 -7 -19 -12 -59 -13 -33 -1 -59 1 -57 4 6 10 -26 20 -37 13 -6 -3 -17 0 -26
8 -15 11 -16 11 -10 -4 3 -10 2 -18 -3 -18 -6 0 -10 8 -10 17 0 15 -2 14 -15
-3 -14 -18 -14 -18 -16 11 -1 29 -1 29 -8 5 -4 -14 -4 -30 1 -37 6 -7 4 -14
-3 -19 -7 -4 -9 -3 -5 4 3 6 2 13 -4 17 -6 4 -8 9 -6 13 2 4 -3 14 -12 22 -14
13 -15 12 -9 -3 8 -21 -1 -22 -25 -1 -14 13 -21 14 -32 5 -8 -7 -20 -10 -26
-6 -5 3 -10 1 -10 -6 0 -10 -3 -10 -11 -2 -6 6 -18 9 -25 6 -8 -3 -14 0 -14 6
0 6 -7 8 -17 4 -12 -5 -14 -3 -9 8 4 8 1 6 -7 -4 -14 -16 -15 -16 -21 5 -6 22
-7 22 -17 4 -9 -14 -8 -20 2 -27 10 -6 8 -8 -8 -6 -17 1 -20 5 -13 18 5 9 6
19 3 23 -3 3 -2 6 4 6 6 0 9 9 6 20 -3 11 -9 20 -14 20 -5 0 -5 -7 -2 -17 5
-11 3 -14 -6 -8 -10 6 -11 2 -6 -15 6 -19 4 -22 -10 -16 -12 4 -16 2 -12 -8 5
-12 1 -13 -17 -6 -13 5 -28 6 -32 2 -5 -4 -3 0 4 8 17 19 15 28 -4 26 -9 0
-18 6 -20 14 -3 9 -2 10 2 3 3 -7 10 -13 15 -13 6 0 5 9 -1 21 -7 11 -9 23 -6
27 3 3 6 1 6 -5 0 -6 9 -9 20 -6 13 3 20 0 20 -8 0 -11 2 -11 10 1 5 8 10 10
10 4 0 -6 -9 -23 -21 -38 -11 -14 -16 -26 -10 -26 6 0 19 16 28 35 9 19 23 35
30 35 7 0 13 6 13 13 0 8 3 8 9 -2 5 -8 19 -16 31 -18 12 -2 19 1 16 6 -3 4 8
7 25 5 22 -3 28 0 23 9 -6 9 -3 8 8 -1 14 -11 18 -10 28 5 9 15 11 15 6 1 -4
-12 1 -16 18 -14 12 1 27 5 33 9 6 4 14 1 16 -5 3 -7 6 -4 7 7 1 18 2 18 8 2
7 -17 9 -16 30 4 15 13 23 16 21 8 -4 -33 0 -40 15 -27 8 8 10 15 4 19 -5 3 0
9 12 12 18 5 20 2 14 -16 -6 -19 -5 -20 9 -9 9 8 13 21 10 30 -3 10 1 8 11 -5
10 -13 23 -23 29 -23z m99 26 c7 4 8 2 4 -5 -9 -13 -26 -5 -25 12 0 9 2 8 6
-1 2 -6 10 -9 15 -6z m199 -9 c-10 -9 -11 -8 -5 6 3 10 9 15 12 12 3 -3 0 -11
-7 -18z m2572 16 c-7 -2 -19 -2 -25 0 -7 3 -2 5 12 5 14 0 19 -2 13 -5z
m-2288 -13 c3 -6 -1 -7 -9 -4 -18 7 -21 14 -7 14 6 0 13 -4 16 -10z m262 -32
c-3 -8 -6 -5 -6 6 -1 11 2 17 5 13 3 -3 4 -12 1 -19z m-1403 4 c3 -5 -1 -9 -9
-9 -8 0 -12 4 -9 9 3 4 7 8 9 8 2 0 6 -4 9 -8z m36 -1 c0 -6 -4 -13 -10 -16
-5 -3 -10 1 -10 9 0 9 5 16 10 16 6 0 10 -4 10 -9z m1300 -23 c0 -5 -7 -3 -15
6 -8 8 -15 18 -15 22 0 3 7 1 15 -6 8 -7 15 -17 15 -22z m-966 -79 c-8 -14
-21 -11 -21 5 0 8 6 12 14 9 7 -3 10 -9 7 -14z m450 7 c-7 -19 -32 -28 -40
-14 -4 6 -3 8 3 5 6 -4 16 0 23 8 16 19 21 19 14 1z m56 -6 c0 -5 -5 -10 -11
-10 -5 0 -7 5 -4 10 3 6 8 10 11 10 2 0 4 -4 4 -10z m-600 -10 c-8 -5 -19 -10
-25 -10 -5 0 -3 5 5 10 8 5 20 10 25 10 6 0 3 -5 -5 -10z m264 1 c3 -5 -1 -11
-9 -15 -8 -3 -17 0 -21 6 -4 7 -3 8 4 4 7 -4 12 -2 12 3 0 13 7 14 14 2z
m3626 -21 c0 -5 -2 -10 -4 -10 -3 0 -8 5 -11 10 -3 6 -1 10 4 10 6 0 11 -4 11
-10z m-5020 -136 c0 -2 -9 -8 -20 -14 -15 -8 -18 -8 -14 3 4 11 34 21 34 11z
m0 -28 c0 -2 -7 -7 -16 -10 -8 -3 -12 -2 -9 4 6 10 25 14 25 6z m5164 -281
c-4 -8 -11 -15 -16 -15 -6 0 -5 6 2 15 7 8 14 15 16 15 2 0 1 -7 -2 -15z
m-5239 -85 c3 -5 1 -10 -4 -10 -6 0 -11 5 -11 10 0 6 2 10 4 10 3 0 8 -4 11
-10z m-13 -75 c-11 -21 -25 -4 -16 20 4 10 10 13 16 7 7 -7 7 -16 0 -27z
m5265 -41 c-3 -3 -12 -4 -19 -1 -8 3 -5 6 6 6 11 1 17 -2 13 -5z m-3797 -128
c0 -3 -4 -8 -10 -11 -5 -3 -10 -1 -10 4 0 6 5 11 10 11 6 0 10 -2 10 -4z m885
-86 c-3 -5 -12 -10 -18 -10 -7 0 -6 4 3 10 19 12 23 12 15 0z m1226 -83 c-10
-9 -11 -8 -5 6 3 10 9 15 12 12 3 -3 0 -11 -7 -18z m84 -3 c1 -5 0 -6 -3 -1
-2 4 -8 5 -13 1 -5 -3 -9 0 -9 6 0 14 23 8 25 -6z m-3435 -14 c0 -5 -2 -10 -4
-10 -3 0 -8 5 -11 10 -3 6 -1 10 4 10 6 0 11 -4 11 -10z m3358 -35 c-3 -3 -9
2 -12 12 -6 14 -5 15 5 6 7 -7 10 -15 7 -18z m-3268 -26 c0 -6 -4 -7 -10 -4
-5 3 -10 11 -10 16 0 6 5 7 10 4 6 -3 10 -11 10 -16z m190 7 c0 -3 -4 -8 -10
-11 -5 -3 -10 -1 -10 4 0 6 5 11 10 11 6 0 10 -2 10 -4z m3020 0 c0 -2 -8 -10
-17 -17 -16 -13 -17 -12 -4 4 13 16 21 21 21 13z m-3080 -10 c0 -3 -4 -8 -10
-11 -5 -3 -10 -1 -10 4 0 6 5 11 10 11 6 0 10 -2 10 -4z m3031 -19 c-10 -9
-11 -8 -5 6 3 10 9 15 12 12 3 -3 0 -11 -7 -18z m-830 -30 c-10 -9 -11 -8 -5
6 3 10 9 15 12 12 3 -3 0 -11 -7 -18z m859 13 c0 -5 -2 -10 -4 -10 -3 0 -8 5
-11 10 -3 6 -1 10 4 10 6 0 11 -4 11 -10z m-891 -38 c-5 -2 -9 -8 -9 -13 0 -6
6 -7 13 -3 6 4 8 3 4 -1 -17 -19 -37 -13 -33 8 3 12 5 26 5 30 1 4 7 2 15 -5
8 -7 10 -14 5 -16z m893 -17 c-6 -34 -13 -32 -10 4 1 16 5 28 9 26 3 -3 4 -16
1 -30z m-962 -10 c-9 -11 -9 -15 -1 -15 6 0 16 10 21 23 5 12 9 15 9 7 1 -25
-13 -38 -41 -38 l-28 1 23 23 c24 25 38 24 17 -1z m997 -10 c-4 -8 -11 -15
-17 -15 -6 0 -6 7 2 20 14 22 24 19 15 -5z m-927 -9 c0 -2 -9 -6 -20 -9 -11
-3 -18 -1 -14 4 5 9 34 13 34 5z m-60 -23 c0 -2 -6 -3 -12 -2 -7 1 -20 1 -28
0 -13 -1 -13 -2 0 -12 12 -9 12 -10 1 -7 -22 6 -25 26 -4 30 18 4 43 -1 43 -9z
m877 -5 c-3 -8 -6 -5 -6 6 -1 11 2 17 5 13 3 -3 4 -12 1 -19z m-792 -17 c-3
-6 -11 -11 -16 -11 -5 0 -4 6 3 14 14 16 24 13 13 -3z m-67 -7 c6 3 9 0 8 -6
-1 -7 -5 -13 -9 -13 -4 0 -12 -7 -17 -15 -7 -12 -12 -12 -22 -2 -9 9 -8 12 6
12 13 0 16 5 11 23 -4 15 -4 18 3 8 5 -7 14 -11 20 -7z m969 -46 c-3 -8 -6 -5
-6 6 -1 11 2 17 5 13 3 -3 4 -12 1 -19z m-1047 2 c0 -5 -5 -10 -11 -10 -5 0
-7 5 -4 10 3 6 8 10 11 10 2 0 4 -4 4 -10z m85 -10 c3 -5 1 -10 -4 -10 -6 0
-11 5 -11 10 0 6 2 10 4 10 3 0 8 -4 11 -10z m18 -65 c-3 -9 -8 -14 -10 -11
-3 3 -2 9 2 15 9 16 15 13 8 -4z m835 -10 c-3 -3 -9 2 -12 12 -6 14 -5 15 5 6
7 -7 10 -15 7 -18z m-798 -20 c-7 -9 -15 -13 -17 -11 -6 6 20 36 26 30 2 -2
-2 -10 -9 -19z m-40 -35 c0 -5 -5 -10 -11 -10 -5 0 -7 5 -4 10 3 6 8 10 11 10
2 0 4 -4 4 -10z m853 3 c-7 -2 -13 -12 -13 -20 0 -9 -3 -14 -6 -10 -10 10 4
37 18 36 10 0 10 -2 1 -6z m-918 -23 c-3 -5 -11 -10 -16 -10 -6 0 -7 5 -4 10
3 6 11 10 16 10 6 0 7 -4 4 -10z m930 -20 c3 -5 1 -10 -4 -10 -6 0 -11 5 -11
10 0 6 2 10 4 10 3 0 8 -4 11 -10z m-846 -47 c0 -12 -2 -13 -6 -5 -4 10 -9 9
-20 -5 -13 -17 -13 -16 -3 5 13 26 30 29 29 5z m85 -1 c3 -5 -1 -9 -9 -9 -8 0
-12 4 -9 9 3 4 7 8 9 8 2 0 6 -4 9 -8z m-43 -21 c-6 -10 -8 -21 -6 -25 3 -3 2
-4 -2 -1 -3 3 -13 -1 -21 -8 -9 -6 -5 3 8 21 26 36 36 42 21 13z m-61 -41 c-6
-12 -9 -28 -6 -36 3 -8 1 -14 -4 -14 -6 0 -9 15 -7 34 1 19 5 32 10 29 4 -2 7
1 7 8 0 7 3 10 6 7 3 -4 0 -16 -6 -28z m-56 -5 c-6 -16 -24 -21 -24 -7 0 11
11 22 21 22 5 0 6 -7 3 -15z m17 -8 c-10 -9 -11 -8 -5 6 3 10 9 15 12 12 3 -3
0 -11 -7 -18z m869 19 c0 -2 -8 -10 -17 -17 -16 -13 -17 -12 -4 4 13 16 21 21
21 13z m-766 -21 c-4 -8 -11 -15 -16 -15 -6 0 -5 6 2 15 7 8 14 15 16 15 2 0
1 -7 -2 -15z m-30 -21 c3 -8 2 -12 -4 -9 -6 3 -10 1 -10 -6 0 -7 -2 -10 -5 -7
-5 5 4 38 10 38 2 0 6 -7 9 -16z m796 -3 c0 -6 -4 -12 -8 -15 -5 -3 -9 1 -9 9
0 8 4 15 9 15 4 0 8 -4 8 -9z m-60 -36 c-7 -9 -15 -13 -17 -11 -6 6 20 36 26
30 2 -2 -2 -10 -9 -19z m-722 -31 c-12 -12 -17 -13 -23 -3 -5 8 -4 10 4 5 6
-4 14 0 17 9 4 9 9 13 12 10 3 -3 -1 -13 -10 -21z m-24 -54 c4 -21 3 -31 -3
-25 -5 6 -12 26 -16 45 -5 23 -4 32 3 25 5 -5 12 -26 16 -45z m-27 0 c-3 -11
-1 -20 4 -20 5 0 9 -7 9 -16 0 -14 -3 -14 -15 -4 -18 15 -20 -1 -2 -19 10 -11
10 -13 0 -7 -7 4 -13 2 -13 -3 0 -6 -5 -11 -11 -11 -5 0 -7 5 -3 12 4 7 8 24
9 38 1 26 12 50 22 50 3 0 3 -9 0 -20z m88 -8 c-3 -3 -11 0 -18 7 -9 10 -8 11
6 5 10 -3 15 -9 12 -12z m15 -26 c0 -2 -8 -10 -17 -17 -16 -13 -17 -12 -4 4
13 16 21 21 21 13z m-47 -27 c-8 -8 -13 -7 -18 2 -5 8 -4 10 3 5 7 -4 12 -2
12 5 0 7 3 9 7 6 4 -4 2 -12 -4 -18z m47 -9 c0 -5 -9 -14 -20 -20 -16 -8 -20
-8 -20 4 0 10 6 13 15 10 8 -4 15 -1 15 5 0 6 2 11 5 11 3 0 5 -4 5 -10z m135
-10 c-3 -5 -12 -10 -18 -10 -7 0 -6 4 3 10 19 12 23 12 15 0z"/>
<path d="M3382 14219 c2 -7 10 -15 17 -17 8 -3 12 1 9 9 -2 7 -10 15 -17 17
-8 3 -12 -1 -9 -9z"/>
<path d="M3543 14224 c-13 -6 -6 -34 8 -34 4 0 5 7 2 17 -5 12 -3 14 7 8 9 -5
11 -4 6 3 -4 7 -8 12 -9 11 -1 0 -7 -3 -14 -5z"/>
<path d="M3480 14216 c0 -4 7 -14 15 -22 13 -14 16 -14 21 1 4 9 4 19 0 22 -3
4 -6 1 -6 -7 0 -10 -3 -10 -15 0 -8 7 -15 9 -15 6z"/>
<path d="M4138 14173 c7 -3 16 -2 19 1 4 3 -2 6 -13 5 -11 0 -14 -3 -6 -6z"/>
<path d="M3873 14160 c2 -10 16 -15 40 -15 19 -1 33 3 31 7 -3 5 -17 6 -32 3
-14 -2 -30 1 -35 8 -6 9 -7 8 -4 -3z"/>
<path d="M3208 14303 c6 -2 18 -2 25 0 6 3 1 5 -13 5 -14 0 -19 -2 -12 -5z"/>
<path d="M3083 14293 c9 -2 23 -2 30 0 6 3 -1 5 -18 5 -16 0 -22 -2 -12 -5z"/>
<path d="M7030 14259 c25 -4 61 -7 80 -7 29 1 26 2 -15 8 -69 11 -126 10 -65
-1z"/>
<path d="M7168 14243 c6 -2 18 -2 25 0 6 3 1 5 -13 5 -14 0 -19 -2 -12 -5z"/>
<path d="M7248 14233 c7 -3 16 -2 19 1 4 3 -2 6 -13 5 -11 0 -14 -3 -6 -6z"/>
<path d="M2537 14113 c-10 -9 -9 -23 2 -23 5 0 11 7 15 15 5 15 -5 20 -17 8z"/>
<path d="M2251 13884 c0 -11 3 -14 6 -6 3 7 2 16 -1 19 -3 4 -6 -2 -5 -13z"/>
<path d="M2254 13535 c0 -165 2 -234 3 -153 2 81 2 216 0 300 -1 84 -3 18 -3
-147z"/>
<path d="M2338 13713 c7 -3 16 -2 19 1 4 3 -2 6 -13 5 -11 0 -14 -3 -6 -6z"/>
<path d="M7622 13390 c0 -14 2 -19 5 -12 2 6 2 18 0 25 -3 6 -5 1 -5 -13z"/>
<path d="M4710 13205 c0 -8 4 -15 8 -15 5 0 9 7 9 15 0 8 -4 15 -9 15 -4 0 -8
-7 -8 -15z"/>
<path d="M6190 13200 c0 -5 5 -10 11 -10 5 0 7 5 4 10 -3 6 -8 10 -11 10 -2 0
-4 -4 -4 -10z"/>
<path d="M6120 13185 c-8 -10 -21 -13 -33 -9 -16 5 -19 3 -14 -11 4 -9 7 -19
7 -21 0 -2 5 -4 11 -4 5 0 8 4 4 9 -3 5 3 12 14 16 11 3 22 12 25 20 7 19 2
19 -14 0z"/>
<path d="M4803 13180 c4 -8 10 -23 13 -32 7 -21 20 -23 30 -6 4 7 3 8 -4 4 -7
-4 -12 -1 -12 7 0 8 -7 21 -17 28 -14 12 -15 12 -10 -1z"/>
<path d="M2355 13155 c34 -16 64 -20 50 -6 -6 5 -26 12 -45 15 l-35 6 30 -15z"/>
<path d="M4737 13149 c4 -13 8 -18 11 -10 2 7 -1 18 -6 23 -8 8 -9 4 -5 -13z"/>
<path d="M2907 13133 c-4 -3 -7 -11 -7 -17 0 -6 5 -5 12 2 6 6 9 14 7 17 -3 3
-9 2 -12 -2z"/>
<path d="M2931 13133 c-1 -6 -4 -20 -7 -30 -5 -17 -5 -17 6 0 6 10 9 23 6 30
-3 9 -5 9 -5 0z"/>
<path d="M6020 13118 c-12 -22 -12 -22 6 -6 10 10 15 20 12 24 -4 3 -12 -5
-18 -18z"/>
<path d="M6080 13120 c-8 -5 -12 -12 -9 -15 4 -3 12 1 19 10 14 17 11 19 -10
5z"/>
<path d="M6044 13106 c-3 -8 -1 -23 4 -32 8 -14 10 -11 9 14 -2 35 -5 39 -13
18z"/>
<path d="M4804 13079 c-4 -7 -3 -9 4 -5 5 3 13 0 15 -6 4 -9 6 -10 6 -1 1 17
-16 25 -25 12z"/>
<path d="M5995 13081 c-3 -5 -1 -12 5 -16 5 -3 10 1 10 9 0 18 -6 21 -15 7z"/>
<path d="M6026 13067 c3 -10 9 -15 12 -12 3 3 0 11 -7 18 -10 9 -11 8 -5 -6z"/>
<path d="M4860 13058 c0 -5 -4 -7 -8 -4 -4 2 -6 -11 -4 -31 3 -24 7 -31 13
-22 5 8 6 22 3 32 -3 11 -1 16 6 15 7 -2 14 2 17 8 2 6 -3 11 -12 11 -8 0 -15
-4 -15 -9z"/>
<path d="M2698 13036 c-3 -14 -1 -29 4 -34 5 -5 6 -17 2 -26 -5 -14 -9 -15
-16 -4 -8 10 -9 9 -5 -3 3 -9 0 -23 -6 -30 -7 -8 4 0 23 17 19 17 44 34 55 38
16 6 17 9 5 16 -9 5 -19 5 -24 0 -15 -15 -33 0 -28 26 2 13 2 24 -1 24 -2 0
-7 -11 -9 -24z"/>
<path d="M4732 13040 c-17 -27 -15 -35 4 -16 8 9 14 21 12 26 -2 6 -9 1 -16
-10z"/>
<path d="M2841 13038 c-1 -20 14 -24 25 -6 4 6 3 8 -4 4 -5 -3 -13 0 -15 6 -3
8 -6 6 -6 -4z"/>
<path d="M2880 13030 c-6 -11 -8 -20 -6 -20 3 0 10 9 16 20 6 11 8 20 6 20 -3
0 -10 -9 -16 -20z"/>
<path d="M4765 13039 c-4 -6 -5 -12 -2 -15 2 -3 7 2 10 11 7 17 1 20 -8 4z"/>
<path d="M4815 13041 c-3 -5 -2 -12 3 -15 5 -3 9 1 9 9 0 17 -3 19 -12 6z"/>
<path d="M6005 13040 c-3 -5 -1 -10 4 -10 6 0 11 5 11 10 0 6 -2 10 -4 10 -3
0 -8 -4 -11 -10z"/>
<path d="M6055 13040 c3 -5 8 -10 11 -10 2 0 4 5 4 10 0 6 -5 10 -11 10 -5 0
-7 -4 -4 -10z"/>
<path d="M5994 13003 c-3 -10 -11 -31 -16 -46 -6 -15 -8 -30 -4 -34 3 -3 6 1
6 10 0 10 5 17 12 17 6 0 9 3 6 6 -4 3 -2 19 2 35 9 31 3 41 -6 12z"/>
<path d="M6028 13008 c10 -13 10 -17 0 -21 -9 -4 -9 -6 -1 -6 20 -2 24 16 5
30 -15 13 -16 12 -4 -3z"/>
<path d="M2906 12983 c-6 -14 -5 -15 5 -6 7 7 10 15 7 18 -3 3 -9 -2 -12 -12z"/>
<path d="M2730 12972 c0 -5 7 -9 15 -9 8 0 15 4 15 9 0 4 -7 8 -15 8 -8 0 -15
-4 -15 -8z"/>
<path d="M2830 12963 c-23 -13 -23 -14 -3 -10 12 3 24 0 27 -7 2 -6 5 -1 5 12
1 12 0 22 -1 21 -2 -1 -14 -8 -28 -16z"/>
<path d="M6009 12948 c-12 -23 -12 -23 10 -4 23 21 26 26 11 26 -5 0 -15 -10
-21 -22z"/>
<path d="M2820 12931 c0 -7 -5 -9 -12 -5 -8 5 -9 2 -5 -10 4 -10 7 -20 7 -22
0 -2 4 -4 10 -4 5 0 7 8 4 18 -5 14 -3 14 10 -2 20 -25 21 -8 1 18 -8 11 -15
14 -15 7z"/>
<path d="M5934 12895 c-9 -14 -14 -28 -10 -32 3 -3 6 -1 6 5 0 6 8 9 18 7 12
-2 18 3 19 16 3 30 -15 32 -33 4z m18 -7 c-7 -7 -12 -8 -12 -2 0 14 12 26 19
19 2 -3 -1 -11 -7 -17z"/>
<path d="M6017 12899 c7 -7 15 -10 18 -7 3 3 -2 9 -12 12 -14 6 -15 5 -6 -5z"/>
<path d="M2761 12873 c-1 -6 -4 -20 -7 -30 -5 -17 -5 -17 6 0 6 10 9 23 6 30
-3 9 -5 9 -5 0z"/>
<path d="M2781 12844 c0 -11 3 -14 6 -6 3 7 2 16 -1 19 -3 4 -6 -2 -5 -13z"/>
<path d="M2816 12831 c9 -9 34 -9 34 -1 0 5 -9 8 -20 7 -10 -1 -17 -3 -14 -6z"/>
<path d="M4859 12815 c-1 -3 -2 -11 -3 -17 -1 -7 -8 -12 -16 -10 -11 3 -11 0
0 -13 12 -14 15 -14 31 1 21 19 25 29 7 18 -8 -5 -9 -2 -5 9 3 10 2 17 -3 17
-6 0 -11 -2 -11 -5z"/>
<path d="M6020 12811 c0 -6 4 -13 10 -16 6 -3 7 1 4 9 -7 18 -14 21 -14 7z"/>
<path d="M2740 12806 c0 -2 7 -7 16 -10 8 -3 12 -2 9 4 -6 10 -25 14 -25 6z"/>
<path d="M5913 12793 c0 -10 6 -27 13 -38 9 -11 14 -14 14 -6 0 8 6 11 15 7 8
-3 15 -1 15 3 0 5 -7 11 -15 15 -8 3 -15 1 -15 -5 0 -6 -4 -8 -9 -5 -5 3 -7
15 -4 26 3 11 1 20 -4 20 -5 0 -10 -8 -10 -17z"/>
<path d="M2742 12761 c0 -17 1 -31 3 -31 7 0 12 39 5 49 -4 7 -7 -1 -8 -18z"/>
<path d="M2827 12759 c-4 -16 -3 -18 9 -8 7 6 11 15 8 20 -8 13 -11 11 -17
-12z"/>
<path d="M2700 12750 c0 -5 5 -10 11 -10 5 0 7 5 4 10 -3 6 -8 10 -11 10 -2 0
-4 -4 -4 -10z"/>
<path d="M2806 12713 c-6 -14 -5 -15 5 -6 7 7 10 15 7 18 -3 3 -9 -2 -12 -12z"/>
<path d="M2765 12710 c3 -5 8 -10 11 -10 2 0 4 5 4 10 0 6 -5 10 -11 10 -5 0
-7 -4 -4 -10z"/>
<path d="M4805 12710 c-3 -5 -1 -10 4 -10 6 0 11 5 11 10 0 6 -2 10 -4 10 -3
0 -8 -4 -11 -10z"/>
<path d="M2737 12696 c-3 -7 3 -20 14 -29 10 -9 19 -12 19 -7 0 6 -7 13 -16
17 -11 4 -12 8 -4 13 8 5 8 10 2 14 -5 3 -12 0 -15 -8z"/>
<path d="M5946 12684 c-5 -14 -4 -15 9 -4 17 14 19 20 6 20 -5 0 -12 -7 -15
-16z"/>
<path d="M4815 12680 c-3 -5 -1 -10 4 -10 6 0 11 5 11 10 0 6 -2 10 -4 10 -3
0 -8 -4 -11 -10z"/>
<path d="M4916 12678 c5 -8 2 -9 -9 -5 -19 7 -21 -6 -7 -38 7 -15 9 -16 9 -4
1 9 8 22 16 29 15 13 12 30 -6 30 -6 0 -7 -5 -3 -12z"/>
<path d="M2786 12667 c3 -10 9 -15 12 -12 3 3 0 11 -7 18 -10 9 -11 8 -5 -6z"/>
<path d="M2727 12646 c-4 -10 -1 -13 8 -9 8 3 12 9 9 14 -7 12 -11 11 -17 -5z"/>
<path d="M4866 12652 c-3 -6 -1 -14 5 -17 15 -10 25 3 12 16 -7 7 -13 7 -17 1z"/>
<path d="M5850 12649 c0 -5 6 -7 13 -3 8 5 8 2 -2 -9 -11 -15 -11 -17 2 -17 8
0 21 8 28 17 8 10 9 14 2 10 -6 -4 -14 -3 -18 3 -8 13 -25 13 -25 -1z"/>
<path d="M4824 12643 c8 -14 -3 -45 -14 -38 -5 3 -11 1 -14 -4 -4 -5 1 -8 10
-7 24 4 39 35 24 49 -10 9 -11 9 -6 0z"/>
<path d="M5815 12611 c3 -46 13 -68 31 -75 9 -3 12 -11 8 -17 -4 -8 -9 -7 -15
2 -7 11 -9 10 -9 -3 0 -9 -7 -21 -16 -26 -13 -7 -15 -18 -9 -50 4 -23 11 -45
17 -48 17 -11 20 4 4 33 -9 19 -11 34 -5 44 7 12 9 11 9 -3 0 -9 5 -20 12 -24
8 -5 9 -2 5 9 -10 25 8 20 21 -5 6 -13 11 -17 11 -10 1 6 -8 21 -19 32 -21 21
-27 35 -10 25 6 -3 11 2 11 12 2 32 4 38 12 41 15 5 16 1 7 -23 -5 -14 -7 -25
-5 -25 3 0 10 12 15 26 8 19 6 29 -5 40 -8 9 -15 23 -16 32 0 12 -3 11 -9 -5
-10 -25 -25 -30 -36 -11 -4 6 -3 8 4 4 6 -3 13 -2 17 4 3 5 1 10 -4 10 -6 0
-11 5 -11 11 0 5 4 8 9 5 5 -4 8 1 7 11 -2 9 -10 17 -18 19 -12 1 -15 -7 -13
-35z m50 -51 c-3 -5 -12 -10 -18 -10 -7 0 -6 4 3 10 19 12 23 12 15 0z"/>
<path d="M5930 12630 c-9 -6 -10 -10 -3 -10 6 0 15 5 18 10 8 12 4 12 -15 0z"/>
<path d="M5887 12607 c-3 -7 -2 -19 3 -26 5 -10 8 -9 13 2 3 7 2 19 -3 26 -5
10 -8 9 -13 -2z"/>
<path d="M4766 12573 c-6 -14 -5 -15 5 -6 7 7 10 15 7 18 -3 3 -9 -2 -12 -12z"/>
<path d="M4807 12565 c-4 -8 -3 -16 1 -19 4 -3 9 4 9 15 2 23 -3 25 -10 4z"/>
<path d="M5913 12498 c-18 -23 -22 -46 -9 -51 9 -4 11 2 8 18 -2 12 2 26 9 30
9 6 10 3 5 -11 -6 -15 -5 -17 5 -6 9 8 10 15 3 22 -8 8 -14 7 -21 -2z"/>
<path d="M4819 12498 c-6 -21 -5 -38 1 -38 5 0 8 9 7 20 -1 17 -5 26 -8 18z"/>
<path d="M2761 12474 c-1 -6 5 -17 12 -23 10 -8 14 -7 14 4 0 8 -4 12 -8 9 -4
-2 -10 2 -12 8 -4 8 -6 9 -6 2z"/>
<path d="M4805 12430 c-3 -5 -1 -10 4 -10 6 0 11 5 11 10 0 6 -2 10 -4 10 -3
0 -8 -4 -11 -10z"/>
<path d="M4890 12419 c0 -5 5 -7 10 -4 6 3 10 8 10 11 0 2 -4 4 -10 4 -5 0
-10 -5 -10 -11z"/>
<path d="M5850 12416 c0 -2 8 -10 18 -17 15 -13 16 -12 3 4 -13 16 -21 21 -21
13z"/>
<path d="M5919 12403 c-13 -16 -12 -17 4 -4 16 13 21 21 13 21 -2 0 -10 -8
-17 -17z"/>
<path d="M4790 12400 c0 -5 5 -10 11 -10 5 0 7 5 4 10 -3 6 -8 10 -11 10 -2 0
-4 -4 -4 -10z"/>
<path d="M5790 12381 c0 -6 4 -13 10 -16 6 -3 7 1 4 9 -7 18 -14 21 -14 7z"/>
<path d="M4830 12365 c0 -8 2 -15 4 -15 2 0 6 7 10 15 3 8 1 15 -4 15 -6 0
-10 -7 -10 -15z"/>
<path d="M4875 12370 c3 -6 0 -13 -9 -16 -18 -7 -30 -35 -13 -31 26 5 50 57
26 57 -5 0 -7 -5 -4 -10z"/>
<path d="M5820 12360 c-6 -11 -8 -20 -6 -20 3 0 10 9 16 20 6 11 8 20 6 20 -3
0 -10 -9 -16 -20z"/>
<path d="M5741 12353 c0 -5 4 -17 9 -28 8 -18 9 -17 9 8 1 15 -3 27 -9 27 -5
0 -10 -3 -9 -7z"/>
<path d="M5270 12310 c0 -6 7 -10 15 -10 8 0 15 2 15 4 0 2 -7 6 -15 10 -8 3
-15 1 -15 -4z"/>
<path d="M4992 12112 c-22 -2 -30 -7 -25 -15 5 -9 3 -9 -8 -1 -17 14 -119 15
-136 2 -9 -7 -13 -7 -13 0 0 16 -370 9 -380 -8 -5 -8 -9 -8 -11 -2 -6 16 -145
18 -163 3 -17 -14 -67 -11 -78 4 -5 6 -8 6 -8 -1 0 -7 -28 -12 -77 -12 -43 -1
-87 -3 -98 -5 -11 -2 -30 0 -42 4 -13 5 -23 5 -23 0 0 -4 -6 -8 -12 -8 -35 0
-428 -16 -458 -18 -19 -1 -70 -3 -112 -4 -43 0 -78 -5 -78 -11 0 -5 22 -8 53
-5 28 2 144 6 257 10 113 3 255 8 315 11 251 13 2266 3 2533 -12 72 -5 102 -3
102 5 0 6 -8 11 -17 11 -10 1 -74 3 -143 6 -69 3 -136 6 -150 6 -14 0 -28 5
-32 11 -6 9 -8 9 -8 0 0 -7 -7 -13 -16 -13 -8 0 -12 5 -9 10 3 6 1 10 -4 10
-6 0 -11 -6 -11 -12 0 -9 -4 -8 -10 2 -8 12 -10 12 -10 1 0 -11 -3 -11 -15 -1
-10 9 -15 9 -15 1 0 -6 -5 -11 -11 -11 -5 0 -8 4 -5 8 3 5 -5 8 -17 7 -12 -1
-28 2 -34 8 -9 6 -13 6 -13 -3 0 -8 -4 -9 -12 -3 -7 5 -26 8 -43 7 -77 -6
-296 -1 -310 8 -6 3 -19 4 -30 2 -26 -5 -40 -5 -100 1 -43 4 -321 9 -335 5
-17 -4 -120 -4 -120 0 0 6 -18 7 -68 2z m-712 -22 c0 -5 -5 -10 -11 -10 -5 0
-7 5 -4 10 3 6 8 10 11 10 2 0 4 -4 4 -10z"/>
<path d="M6540 12057 c0 -9 10 -14 25 -14 14 0 25 4 25 10 0 6 -3 7 -6 4 -4
-3 -15 -2 -25 4 -14 7 -19 6 -19 -4z"/>
<path d="M6612 12055 c-11 -12 -10 -15 3 -15 8 0 15 7 15 15 0 18 -2 18 -18 0z"/>
<path d="M4775 12045 c-5 -2 -192 -6 -415 -9 -582 -7 -1038 -34 -1235 -71
l-70 -13 50 -2 c28 -1 64 -4 80 -6 17 -3 37 -6 45 -6 19 -1 50 -36 51 -57 1
-9 3 -124 5 -256 3 -132 5 -245 6 -250 1 -6 -2 -23 -6 -39 -4 -15 -3 -25 1
-23 8 5 7 -98 -2 -120 -2 -7 0 -13 5 -13 5 0 7 -13 5 -28 -2 -16 0 -35 5 -42
12 -20 12 -30 17 398 l3 372 23 0 c13 0 44 -13 70 -30 33 -21 47 -25 47 -16 0
8 -8 17 -17 20 -10 3 -1 3 20 0 20 -3 37 -1 37 3 0 4 11 8 25 8 28 0 26 10 28
-145 1 -47 7 -88 12 -92 7 -5 7 -8 0 -8 -7 0 -8 -104 -5 -302 4 -267 7 -306
23 -328 22 -31 22 -47 0 -29 -15 13 -15 12 -6 -6 12 -21 53 -62 53 -52 0 3 -8
13 -17 22 -16 16 -16 18 1 27 13 8 15 13 5 24 -6 8 -8 14 -3 14 5 0 18 -10 28
-23 18 -20 26 -22 90 -17 56 4 70 8 68 20 -4 17 -3 576 1 600 1 8 7 21 11 29
6 10 5 12 -2 7 -13 -8 -17 49 -6 78 5 14 9 14 22 4 13 -10 13 -7 -2 16 -15 23
-16 28 -3 23 11 -4 14 0 12 19 -1 13 2 27 7 30 4 3 6 10 3 15 -3 5 1 6 9 3 9
-3 16 -1 16 6 0 6 5 8 10 5 6 -4 7 -12 3 -18 -3 -7 3 -4 15 7 12 10 19 23 15
29 -3 5 -1 7 5 3 5 -3 13 0 15 6 4 9 6 8 6 -3 1 -9 7 -16 14 -17 6 0 22 -3 35
-6 13 -3 20 -1 17 5 -4 5 -12 9 -20 9 -8 0 -16 4 -19 9 -7 10 20 9 30 -2 12
-12 26 -8 18 6 -5 8 -2 7 9 -2 15 -12 20 -12 33 5 9 10 13 14 10 8 -3 -7 4
-14 16 -18 18 -4 20 -8 10 -18 -6 -6 -12 -17 -12 -24 0 -18 38 -24 51 -8 7 8
14 12 17 9 3 -3 10 0 17 5 8 7 11 1 9 -23 -2 -17 -1 -24 2 -14 9 27 23 20 19
-10 -2 -16 -2 -22 1 -15 3 6 11 9 16 6 6 -4 17 1 25 11 7 11 13 15 13 9 0 -15
-14 -29 -39 -40 -17 -7 -21 -13 -13 -18 7 -4 12 -2 12 3 0 6 10 10 23 10 15
-1 17 -3 5 -6 -14 -3 -13 -8 8 -30 30 -32 30 -43 2 -35 -14 3 -19 2 -14 -7 4
-6 11 -9 15 -6 10 5 38 -25 37 -41 -1 -6 -9 -18 -18 -28 -10 -10 -18 -20 -18
-24 0 -3 5 -1 11 5 15 15 39 5 33 -12 -3 -7 0 -16 5 -20 6 -3 9 -10 7 -14 -3
-4 1 -8 8 -8 7 0 13 6 13 13 0 7 -4 11 -8 8 -4 -2 -11 1 -15 7 -3 6 0 15 7 20
8 5 9 9 3 9 -18 0 -25 28 -9 34 9 3 12 0 8 -9 -3 -8 2 -18 11 -21 9 -3 13 -10
10 -15 -3 -5 0 -9 6 -9 7 0 10 -6 7 -12 -2 -7 5 -21 16 -30 11 -10 15 -18 9
-18 -7 0 -12 -7 -12 -16 0 -8 4 -13 9 -9 5 3 12 1 16 -5 3 -5 -1 -10 -10 -10
-13 0 -14 -3 -3 -22 7 -13 11 -27 10 -32 -2 -5 4 -6 13 -3 8 4 15 2 15 -3 0
-6 -6 -10 -14 -10 -11 0 -10 -6 3 -34 14 -29 18 -32 31 -20 14 11 16 7 17 -39
1 -30 -4 -55 -10 -59 -8 -5 -8 -8 -1 -8 6 0 11 -32 12 -81 2 -44 9 -95 16
-113 23 -55 83 -86 191 -99 17 -2 -38 -5 -122 -6 -89 0 -154 -5 -158 -11 -3
-5 -18 -9 -33 -9 l-27 1 30 8 c20 5 3 7 -51 6 -45 0 -80 -4 -78 -8 3 -4 -26
-9 -63 -10 -37 -2 364 -5 892 -6 528 0 1019 -3 1090 -5 72 -3 106 -2 77 0 -30
2 -50 8 -47 14 4 5 17 6 31 3 15 -4 24 -2 24 6 0 6 -4 9 -9 5 -5 -3 -12 -1
-15 4 -8 12 12 19 52 16 21 -1 31 2 29 9 -6 14 20 52 29 44 3 -4 1 -16 -6 -27
-6 -12 -7 -21 -1 -21 5 0 13 14 16 31 4 18 10 27 14 22 11 -18 39 -10 50 15 9
18 9 28 0 38 -7 8 -9 17 -5 21 3 3 6 0 6 -7 0 -7 2 -11 6 -8 9 9 12 801 3 826
-10 25 -2 28 25 7 13 -10 24 -11 37 -4 23 12 24 6 4 -14 -29 -30 11 -25 81 9
38 18 62 33 54 34 -8 0 -32 -9 -53 -20 -20 -11 -43 -20 -49 -20 -21 0 54 42
100 56 l42 13 2 -57 c0 -31 2 -181 3 -332 4 -476 5 -513 11 -508 3 3 7 84 9
179 2 96 4 174 6 174 2 0 7 156 10 358 1 100 5 147 13 147 8 0 8 2 0 8 -6 4
-11 18 -10 32 1 19 -5 26 -29 31 -29 7 55 12 165 11 67 -1 30 14 -65 27 -128
17 -449 40 -730 51 -243 10 -1218 21 -1240 15z m-878 -237 c-3 -8 -6 -5 -6 6
-1 11 2 17 5 13 3 -3 4 -12 1 -19z m253 2 c0 -5 -2 -10 -4 -10 -3 0 -8 5 -11
10 -3 6 -1 10 4 10 6 0 11 -4 11 -10z m-26 -25 c-6 -15 -34 -9 -34 7 0 5 5 6
10 3 6 -3 10 -1 10 5 0 6 4 9 10 5 5 -3 7 -12 4 -20z m98 -37 c-7 -7 -12 -8
-12 -2 0 14 12 26 19 19 2 -3 -1 -11 -7 -17z m58 -48 c0 -5 -2 -10 -4 -10 -3
0 -8 5 -11 10 -3 6 -1 10 4 10 6 0 11 -4 11 -10z m9 -34 c9 -11 9 -16 0 -22
-8 -4 -9 -3 -5 4 4 7 1 12 -9 12 -9 0 -13 5 -10 10 8 13 10 13 24 -4z m46 5
c3 -5 2 -12 -3 -15 -5 -3 -9 1 -9 9 0 17 3 19 12 6z m-27 -53 c9 -9 12 -9 12
1 0 7 5 9 11 5 8 -4 7 -9 -2 -15 -21 -13 -36 -11 -43 6 -7 18 5 20 22 3z m123
-301 c-10 -9 -11 -8 -5 6 3 10 9 15 12 12 3 -3 0 -11 -7 -18z m1930 -340 c-10
-9 -11 -8 -5 6 3 10 9 15 12 12 3 -3 0 -11 -7 -18z m-186 -77 c-3 -5 -16 -10
-28 -9 -21 0 -21 1 -2 9 28 12 37 12 30 0z"/>
<path d="M6698 12043 c6 -2 18 -2 25 0 6 3 1 5 -13 5 -14 0 -19 -2 -12 -5z"/>
<path d="M6900 11952 c0 -5 14 -9 32 -10 23 -1 28 2 18 8 -19 12 -50 13 -50 2z"/>
<path d="M6725 11930 c-3 -5 -1 -10 4 -10 6 0 11 5 11 10 0 6 -2 10 -4 10 -3
0 -8 -4 -11 -10z"/>
<path d="M6930 11920 c-13 -8 -12 -10 3 -10 9 0 17 5 17 10 0 12 -1 12 -20 0z"/>
<path d="M3475 11819 c-4 -6 -5 -12 -2 -15 2 -3 7 2 10 11 7 17 1 20 -8 4z"/>
<path d="M4046 11812 c-2 -4 -1 -13 3 -20 4 -8 11 -5 19 8 10 16 10 20 -2 20
-8 0 -17 -4 -20 -8z"/>
<path d="M3846 11772 c-2 -4 4 -8 14 -8 10 0 16 4 14 8 -3 4 -9 8 -14 8 -5 0
-11 -4 -14 -8z"/>
<path d="M4135 11760 c-3 -5 1 -10 10 -10 9 0 13 5 10 10 -3 6 -8 10 -10 10
-2 0 -7 -4 -10 -10z"/>
<path d="M4196 11661 c-3 -4 6 -6 19 -3 14 2 25 6 25 8 0 8 -39 4 -44 -5z"/>
<path d="M4240 11579 c0 -5 5 -7 10 -4 6 3 10 8 10 11 0 2 -4 4 -10 4 -5 0
-10 -5 -10 -11z"/>
<path d="M4340 11400 c0 -5 5 -10 11 -10 5 0 7 5 4 10 -3 6 -8 10 -11 10 -2 0
-4 -4 -4 -10z"/>
<path d="M4345 11350 c-3 -6 1 -7 9 -4 18 7 21 14 7 14 -6 0 -13 -4 -16 -10z"/>
<path d="M4383 11304 c3 -4 1 -16 -5 -28 -10 -19 -10 -20 5 -7 19 16 23 41 5
41 -6 0 -8 -3 -5 -6z"/>
<path d="M4418 11272 c-10 -2 -18 -10 -18 -18 0 -9 -5 -12 -12 -8 -7 5 -8 3
-3 -6 6 -10 11 -9 22 5 9 14 13 15 13 4 1 -10 4 -9 11 4 13 22 10 25 -13 19z"/>
<path d="M4406 11221 c-4 -7 -5 -15 -2 -18 9 -9 19 4 14 18 -4 11 -6 11 -12 0z"/>
<path d="M3625 10951 c-13 -22 41 -46 98 -45 31 1 61 5 66 9 6 3 11 1 11 -4 0
-6 7 -11 16 -11 8 0 13 -4 10 -8 -2 -4 5 -8 17 -9 20 -2 20 0 -7 22 -20 16
-39 22 -58 20 -15 -2 -28 0 -28 4 0 4 -18 8 -40 8 -21 0 -37 -4 -34 -9 3 -4 0
-8 -5 -8 -6 0 -11 5 -11 10 0 6 -8 10 -17 10 -15 0 -16 2 -3 10 9 6 10 10 3
10 -6 0 -14 -4 -18 -9z"/>
<path d="M3710 10859 c-68 -4 -55 -5 65 -6 83 0 141 1 130 3 -47 7 -115 9
-195 3z"/>
<path d="M6288 10853 c7 -3 16 -2 19 1 4 3 -2 6 -13 5 -11 0 -14 -3 -6 -6z"/>
<path d="M5008 10845 c-1 -2 -300 -6 -663 -10 -363 -4 -662 -9 -664 -11 -5 -5
492 -7 1677 -9 823 -1 1059 6 632 20 -235 7 -976 15 -982 10z"/>
<path d="M6220 10820 c0 -5 9 -10 20 -10 11 0 20 5 20 10 0 6 -9 10 -20 10
-11 0 -20 -4 -20 -10z"/>
<path d="M6635 10820 c-8 -13 5 -13 25 0 13 8 13 10 -2 10 -9 0 -20 -4 -23
-10z"/>
<path d="M3258 10813 c7 -3 16 -2 19 1 4 3 -2 6 -13 5 -11 0 -14 -3 -6 -6z"/>
<path d="M3295 10810 c3 -5 8 -10 11 -10 2 0 4 5 4 10 0 6 -5 10 -11 10 -5 0
-7 -4 -4 -10z"/>
<path d="M3568 10813 c18 -2 45 -2 60 0 15 2 0 4 -33 4 -33 0 -45 -2 -27 -4z"/>
<path d="M3253 10767 c3 -8 -4 -13 -21 -12 -14 0 -27 -5 -29 -12 -3 -7 16 -14
54 -19 86 -11 292 -11 301 1 4 6 47 11 96 12 112 3 125 12 20 15 -150 4 -304
4 -301 1 2 -1 21 -7 43 -12 l39 -9 -42 -1 c-30 -1 -53 6 -79 24 -39 27 -90 34
-81 12z m87 -27 c0 -5 -5 -10 -11 -10 -5 0 -7 5 -4 10 3 6 8 10 11 10 2 0 4
-4 4 -10z m203 -7 c-7 -2 -19 -2 -25 0 -7 3 -2 5 12 5 14 0 19 -2 13 -5z"/>
<path d="M6438 10761 c-91 -3 -169 -8 -172 -11 -2 -3 82 -5 187 -5 132 0 198
4 212 12 18 11 15 12 -20 11 -22 -1 -115 -4 -207 -7z"/>
<path d="M3777 10744 c-3 -5 38 -9 91 -8 60 1 100 -3 105 -10 6 -8 10 -7 14 2
5 14 33 17 33 3 0 -5 17 -9 38 -10 303 -8 446 -10 456 -3 14 9 -163 19 -485
28 -136 3 -249 2 -252 -2z"/>
<path d="M6133 10743 c20 -2 54 -2 75 0 20 2 3 4 -38 4 -41 0 -58 -2 -37 -4z"/>
<path d="M4795 10733 c-61 -3 -85 -7 -75 -13 12 -8 9 -10 -12 -10 -15 0 -30 5
-33 10 -3 6 -37 10 -76 10 -55 0 -69 -3 -69 -15 0 -12 -19 -15 -102 -16 -57
-1 -106 -1 -110 0 -10 1 -716 2 -918 1 -102 -1 -178 -4 -170 -8 9 -4 42 -25
75 -47 l60 -40 136 0 c79 0 135 4 131 9 -5 9 192 3 348 -11 104 -9 1741 -10
1985 0 110 4 256 12 325 19 123 11 187 7 175 -12 -4 -6 13 -10 41 -10 36 0 64
9 113 36 62 34 85 53 76 63 -3 2 -10 -1 -17 -7 -7 -5 -51 -13 -98 -16 l-85 -5
73 11 c40 5 71 12 69 14 -5 5 -536 5 -842 0 -99 -1 -205 1 -235 4 -34 4 29 8
165 10 121 2 229 5 240 6 11 1 47 2 79 3 33 1 57 4 54 7 -7 6 -1170 13 -1303
7z m-148 -27 c4 -3 -19 -6 -50 -6 -31 0 -57 3 -57 8 0 8 99 7 107 -2z m520 -2
c-3 -3 -12 -4 -19 -1 -8 3 -5 6 6 6 11 1 17 -2 13 -5z"/>
<path d="M6178 10723 c18 -2 45 -2 60 0 15 2 0 4 -33 4 -33 0 -45 -2 -27 -4z"/>
<path d="M6278 10723 c6 -2 18 -2 25 0 6 3 1 5 -13 5 -14 0 -19 -2 -12 -5z"/>
<path d="M6393 10723 c43 -2 110 -2 150 0 40 1 5 3 -78 3 -82 0 -115 -2 -72
-3z"/>
<path d="M3364 9250 c-109 -25 -173 -174 -126 -295 l19 -50 -59 -117 -60 -118
-48 0 c-46 0 -49 2 -72 42 -33 60 -69 83 -130 83 -44 0 -53 -4 -83 -37 -54
-58 -67 -133 -40 -224 16 -55 44 -86 90 -104 63 -24 135 18 172 101 17 40 18
40 67 37 l50 -3 59 -133 59 -132 -23 -53 c-31 -71 -32 -156 -1 -219 59 -120
215 -129 289 -16 39 58 45 158 13 223 -31 65 -86 100 -156 99 l-53 -1 -60 136
c-34 75 -61 142 -61 150 0 8 23 63 52 123 l51 109 44 -7 c62 -9 109 3 150 39
84 74 98 213 32 308 -32 45 -114 73 -175 59z"/>
<path d="M6251 8894 c-25 -32 -26 -43 -5 -72 32 -46 114 -17 114 40 0 26 -36
58 -64 58 -15 0 -33 -11 -45 -26z"/>
<path d="M4129 8793 c-1 -59 -3 -182 -3 -272 -2 -160 -2 -164 -26 -183 -19
-16 -36 -19 -85 -16 -33 2 -67 7 -76 11 -11 6 -20 -2 -32 -28 -9 -20 -17 -37
-17 -39 0 -15 79 -31 150 -31 74 0 91 3 131 27 78 46 80 55 77 365 l-3 268
-57 3 -58 3 -1 -108z"/>
<path d="M4390 8881 c-6 -12 -10 -135 -10 -330 l0 -311 60 0 59 0 3 118 3 117
105 5 c143 8 199 37 235 123 36 87 6 208 -64 254 -53 35 -96 43 -243 43 -126
0 -138 -2 -148 -19z m294 -96 c54 -36 63 -126 17 -177 -28 -32 -33 -33 -115
-37 l-86 -3 0 114 c0 63 3 118 8 122 12 13 150 -2 176 -19z"/>
<path d="M5940 8775 l0 -65 -30 0 c-29 0 -30 -2 -30 -45 0 -43 1 -45 30 -45
l30 0 0 -158 c0 -176 5 -193 66 -218 35 -15 121 -19 140 -6 6 4 15 25 18 47
l7 40 -43 -3 c-76 -6 -82 4 -81 159 l0 134 59 0 59 0 0 45 0 45 -58 0 -57 0 0
68 0 67 -55 0 -55 0 0 -65z"/>
<path d="M5635 8715 c-5 -2 -22 -6 -37 -9 -15 -4 -43 -20 -63 -37 l-35 -31 0
36 0 37 -52 -3 -53 -3 -3 -290 c-1 -159 0 -305 3 -322 6 -33 7 -33 60 -33 l55
0 0 116 0 116 35 -31 c31 -27 43 -31 91 -31 72 0 118 22 153 74 90 131 57 334
-64 393 -23 12 -76 22 -90 18z m55 -120 c46 -41 54 -179 13 -233 -24 -32 -82
-50 -120 -36 -51 18 -68 56 -68 151 0 84 0 85 34 115 30 26 39 30 78 25 24 -2
52 -12 63 -22z"/>
<path d="M6544 8702 c-93 -44 -142 -174 -115 -303 23 -105 96 -169 195 -169
72 0 123 34 160 107 24 48 21 53 -31 53 -43 -1 -50 -4 -68 -33 -15 -23 -29
-33 -52 -35 -75 -7 -107 43 -101 164 3 71 6 86 27 108 32 34 88 36 119 3 12
-13 22 -29 22 -35 0 -10 57 -17 88 -10 24 5 -26 108 -68 138 -43 31 -124 36
-176 12z"/>
<path d="M6910 8707 c-41 -21 -70 -74 -70 -129 0 -81 30 -117 120 -143 48 -14
70 -34 70 -65 0 -39 -25 -62 -64 -58 -24 2 -34 10 -46 35 -13 28 -20 33 -53
33 -36 0 -37 -1 -31 -27 19 -82 62 -123 129 -123 78 0 124 48 132 139 6 78
-16 112 -94 141 -72 27 -83 36 -83 70 0 31 27 60 57 60 23 0 53 -30 53 -53 0
-13 9 -17 35 -17 34 0 34 1 28 33 -9 51 -31 85 -63 102 -35 18 -86 19 -120 2z"/>
<path d="M5000 8688 c-31 -16 -54 -38 -75 -72 -28 -46 -30 -57 -30 -140 1
-102 20 -153 74 -199 68 -57 195 -64 270 -14 37 25 81 79 81 100 0 4 -21 7
-46 7 -38 0 -53 -6 -82 -31 -31 -28 -40 -31 -81 -26 -55 6 -101 50 -101 97 l0
30 155 0 155 0 0 35 c0 104 -46 192 -117 221 -52 22 -151 18 -203 -8z m177
-73 c19 -13 43 -68 43 -97 0 -5 -49 -8 -110 -8 -108 0 -110 1 -110 23 1 31 23
67 51 83 33 18 100 17 126 -1z"/>
<path d="M6250 8475 l0 -235 50 0 50 0 0 235 0 235 -50 0 -50 0 0 -235z"/>
<path d="M3910 7965 c0 -13 4 -14 20 -5 11 6 25 8 30 5 14 -9 13 -158 -2 -173
-9 -9 -5 -12 21 -12 18 0 30 4 27 9 -3 4 -6 49 -7 100 l-1 91 -44 0 c-33 0
-44 -4 -44 -15z"/>
<path d="M4030 7965 c7 -8 16 -12 21 -9 13 8 1 24 -18 24 -13 0 -13 -3 -3 -15z"/>
<path d="M4597 7973 c-6 -10 -9 -63 -8 -135 1 -48 4 -58 19 -58 15 0 17 10 14
100 -3 89 -11 117 -25 93z"/>
<path d="M4790 7958 c0 -20 1 -20 18 -5 38 34 44 23 40 -78 -3 -89 -2 -95 17
-95 19 0 20 7 20 100 l0 100 -47 0 c-42 0 -48 -3 -48 -22z"/>
<path d="M4900 7977 c0 -1 9 -10 20 -20 19 -16 20 -16 20 3 0 13 -7 20 -20 20
-11 0 -20 -1 -20 -3z"/>
<path d="M5615 7898 c0 -93 -14 -127 -40 -94 -20 26 -19 65 2 88 14 16 15 18
0 18 -21 0 -47 -38 -47 -71 0 -36 28 -57 75 -57 l40 1 0 98 c0 83 -3 99 -15
99 -13 0 -16 -15 -15 -82z"/>
<path d="M5800 7965 c0 -17 16 -20 25 -5 3 6 13 10 21 10 13 0 15 -16 12 -95
-3 -89 -2 -95 17 -95 19 0 20 7 20 92 0 76 3 93 16 96 8 1 21 -7 27 -20 11
-23 11 -23 11 5 l1 27 -75 0 c-60 0 -75 -3 -75 -15z"/>
<path d="M7000 7925 c-12 -15 -8 -114 6 -137 14 -22 21 6 13 49 -8 39 -6 50 6
59 14 10 14 12 0 18 -9 3 -13 10 -10 16 10 15 -1 12 -15 -5z"/>
<path d="M4304 7919 c-5 -8 -8 -40 -6 -72 4 -64 22 -82 50 -51 16 17 16 17 0
5 -23 -17 -27 -7 -30 73 -2 44 -6 56 -14 45z"/>
<path d="M5328 7918 c-12 -10 -14 -26 -9 -73 5 -55 8 -60 31 -63 16 -2 21 0
12 6 -7 5 -13 34 -13 75 -1 37 -2 67 -3 67 -1 0 -9 -6 -18 -12z"/>
<path d="M4527 7892 c-20 -22 -22 -83 -5 -100 14 -14 44 -16 52 -3 3 5 -2 8
-11 7 -27 -2 -39 45 -20 83 17 34 9 41 -16 13z"/>
<path d="M5050 7864 c0 -55 14 -84 41 -84 19 0 19 1 5 16 -10 10 -16 33 -16
65 0 37 -4 49 -15 49 -11 0 -15 -12 -15 -46z"/>
<path d="M5213 7899 c-21 -21 -15 -44 18 -68 25 -19 28 -25 17 -38 -10 -13 -9
-15 7 -12 31 6 32 54 1 74 -14 9 -26 25 -28 36 -2 16 -5 18 -15 8z"/>
<path d="M5271 7894 c0 -11 3 -14 6 -6 3 7 2 16 -1 19 -3 4 -6 -2 -5 -13z"/>
<path d="M5415 7890 c-21 -24 -24 -72 -5 -94 17 -21 64 -20 81 2 13 15 12 16
-3 4 -16 -13 -57 -9 -59 6 -6 31 -4 69 4 80 17 21 1 23 -18 2z"/>
<path d="M5460 7902 c0 -6 5 -14 11 -17 6 -4 8 -13 5 -21 -4 -9 2 -14 15 -14
14 0 19 5 17 16 -4 19 -48 52 -48 36z"/>
<path d="M5958 7843 c-3 -58 -1 -63 17 -63 18 0 21 6 20 53 0 48 2 52 23 49
14 -2 22 2 22 11 0 10 -11 14 -39 13 l-39 -1 -4 -62z"/>
<path d="M6063 7895 c-8 -22 6 -33 17 -15 13 20 12 30 0 30 -6 0 -13 -7 -17
-15z"/>
<path d="M6115 7858 c0 -32 -5 -53 -12 -55 -8 -3 -13 5 -13 22 0 35 -24 28
-28 -8 -4 -30 22 -47 40 -29 8 8 15 8 25 1 17 -15 43 -4 43 18 0 15 -2 16 -10
3 -7 -11 -10 -5 -10 23 0 39 -14 77 -28 77 -4 0 -8 -23 -7 -52z"/>
<path d="M6197 7876 c3 -19 1 -48 -5 -65 -10 -29 -9 -31 12 -31 22 0 23 3 19
43 -4 34 -1 46 16 61 19 17 21 17 27 2 4 -9 4 -37 1 -61 -4 -39 -2 -45 14 -45
16 0 19 8 19 48 0 27 -6 57 -14 67 -12 17 -18 18 -40 7 -15 -7 -26 -8 -26 -2
0 6 -6 10 -14 10 -11 0 -13 -9 -9 -34z"/>
<path d="M6342 7898 c-19 -19 -14 -36 13 -54 27 -17 34 -54 11 -54 -7 0 -17
10 -21 23 -4 14 -8 17 -12 9 -9 -22 5 -42 30 -42 52 0 63 48 17 80 -18 13 -27
26 -23 35 6 18 1 19 -15 3z"/>
<path d="M6391 7894 c0 -11 3 -14 6 -6 3 7 2 16 -1 19 -3 4 -6 -2 -5 -13z"/>
<path d="M6435 7809 c0 -88 2 -99 18 -99 13 0 17 9 17 39 0 33 3 38 19 34 36
-9 66 67 41 107 -6 9 -26 15 -52 16 l-43 1 0 -98z m73 35 c-2 -27 -8 -39 -18
-39 -20 0 -27 74 -8 86 20 13 30 -5 26 -47z"/>
<path d="M6577 7903 c-10 -9 -8 -33 2 -33 5 0 11 9 14 20 5 20 -3 26 -16 13z"/>
<path d="M6615 7858 c0 -35 -4 -53 -14 -56 -11 -4 -13 2 -8 26 5 24 3 30 -7
26 -20 -8 -26 -40 -11 -61 11 -14 16 -15 28 -5 11 9 17 10 22 2 15 -24 29 -2
26 41 -6 85 -36 108 -36 27z"/>
<path d="M6690 7861 c0 -27 -3 -56 -6 -65 -4 -11 0 -16 14 -16 17 0 19 5 14
46 -4 40 -2 46 17 51 11 3 21 12 21 19 0 17 -12 18 -28 2 -9 -9 -12 -9 -12 0
0 7 -4 12 -10 12 -5 0 -10 -22 -10 -49z"/>
<path d="M6788 7899 c-25 -14 -24 -80 2 -104 23 -21 44 -15 61 17 l11 23 -22
-24 c-22 -23 -24 -23 -37 -5 -21 29 -16 44 16 44 37 0 44 11 25 38 -17 24 -30
27 -56 11z m40 -22 c2 -12 -3 -17 -17 -17 -12 0 -21 6 -21 13 0 31 32 34 38 4z"/>
<path d="M6880 7845 c0 -47 4 -65 13 -65 9 0 12 16 11 58 -3 75 -2 72 -14 72
-6 0 -10 -28 -10 -65z"/>
<path d="M6915 7900 c-3 -5 1 -10 9 -10 13 0 16 -12 16 -53 0 -38 4 -54 13
-54 10 0 13 13 10 51 -3 28 -6 57 -8 64 -5 14 -31 16 -40 2z"/>
<path d="M4060 7881 c-5 -11 -10 -28 -10 -38 0 -25 28 -63 46 -63 13 0 13 2
-1 17 -12 11 -16 29 -13 60 3 46 -5 55 -22 24z"/>
<path d="M4124 7875 c1 -17 7 -25 19 -25 20 0 21 4 7 31 -15 27 -28 24 -26 -6z"/>
<path d="M4185 7883 c-4 -13 3 -26 25 -44 20 -17 28 -31 24 -42 -9 -24 13 -21
26 3 9 18 6 25 -19 49 -17 16 -31 34 -31 40 0 17 -17 13 -25 -6z"/>
<path d="M4251 7884 c0 -11 3 -14 6 -6 3 7 2 16 -1 19 -3 4 -6 -2 -5 -13z"/>
<path d="M4380 7881 c-15 -30 -12 -66 8 -84 26 -24 50 -23 29 1 -18 20 -20 68
-4 90 7 8 5 12 -6 12 -9 0 -21 -9 -27 -19z"/>
<path d="M4447 7875 c4 -17 12 -25 25 -25 19 0 19 2 6 22 -21 32 -36 33 -31 3z"/>
<path d="M4950 7855 c0 -24 -3 -50 -6 -59 -5 -12 0 -16 20 -16 23 0 25 2 15
24 -16 34 -4 76 21 76 11 0 20 4 20 9 0 5 -16 9 -35 9 -35 0 -35 0 -35 -43z"/>
<path d="M5130 7850 c0 -27 -1 -53 -2 -57 -2 -5 6 -9 17 -11 18 -3 20 2 17 58
-3 43 -8 60 -18 60 -10 0 -14 -14 -14 -50z"/>
<path d="M4180 7802 c0 -14 6 -22 16 -22 14 0 15 3 3 18 -7 9 -15 19 -16 21
-2 2 -3 -5 -3 -17z"/>
<path d="M5200 7802 c0 -14 6 -22 16 -22 14 0 15 3 3 18 -7 9 -15 19 -16 21
-2 2 -3 -5 -3 -17z"/>
<path d="M7055 7810 c-4 -6 -3 -16 3 -22 6 -6 12 -6 17 2 4 6 3 16 -3 22 -6 6
-12 6 -17 -2z"/>
<path d="M4667 7803 c-12 -11 -8 -23 8 -23 8 0 15 7 15 15 0 16 -12 20 -23 8z"/>
<path d="M5685 7801 c-7 -12 12 -24 25 -16 11 7 4 25 -10 25 -5 0 -11 -4 -15
-9z"/>
<path d="M4450 7790 c-9 -6 -10 -10 -3 -10 6 0 15 5 18 10 8 12 4 12 -15 0z"/>
<path d="M7075 7383 c15 -40 44 -166 54 -238 23 -164 7 -378 -39 -527 l-18
-58 32 0 c32 0 33 1 50 70 61 256 58 482 -10 717 -14 49 -18 53 -46 53 -25 0
-29 -3 -23 -17z"/>
<path d="M6043 7308 c-66 -136 -88 -247 -80 -406 6 -123 19 -179 69 -299 l31
-73 54 0 c40 0 54 3 50 13 -119 271 -129 494 -31 736 19 47 34 86 34 88 0 2
-22 3 -49 3 l-48 0 -30 -62z"/>
<path d="M3165 7342 c-107 -51 -165 -195 -152 -375 11 -154 59 -250 147 -294
78 -40 180 -26 241 33 l26 25 7 -40 c6 -39 8 -41 41 -41 l35 0 0 190 0 190
-74 0 c-40 0 -88 3 -105 6 l-31 7 0 -62 0 -61 45 0 45 0 0 -48 c0 -38 -5 -53
-24 -71 -51 -48 -158 -44 -195 8 -55 77 -67 265 -23 363 48 110 173 102 233
-14 19 -37 21 -38 75 -38 l57 0 -7 43 c-9 57 -53 125 -103 161 -36 25 -53 30
-120 33 -62 3 -86 0 -118 -15z"/>
<path d="M6697 7353 c-4 -3 -7 -30 -7 -60 l0 -53 75 0 75 0 0 -290 0 -290 45
0 45 0 0 289 0 288 38 7 c20 3 49 6 65 6 26 0 27 2 27 55 l0 55 -178 0 c-98 0
-182 -3 -185 -7z"/>
<path d="M5358 7341 c-45 -15 -83 -42 -106 -75 -21 -31 -45 -120 -34 -131 3
-3 29 -5 57 -5 51 0 52 0 63 38 17 56 45 77 103 77 66 0 94 -27 94 -91 0 -39
-5 -50 -33 -75 -25 -23 -42 -29 -77 -29 l-45 0 0 -50 0 -50 40 0 c51 0 105
-22 119 -48 28 -52 6 -123 -47 -148 -66 -31 -151 1 -166 62 -6 22 -11 24 -66
24 -56 0 -60 -2 -60 -22 1 -33 33 -99 61 -125 64 -59 217 -72 308 -27 142 71
149 264 11 322 -31 13 -33 15 -15 22 34 13 92 84 99 123 14 76 -25 152 -97
189 -46 23 -162 34 -209 19z"/>
<path d="M6250 7000 l0 -350 55 0 55 0 0 150 0 150 40 0 c22 0 43 1 47 3 4 1
33 -65 64 -147 l56 -150 54 3 c30 1 55 4 57 5 1 2 -10 34 -24 72 -15 38 -39
106 -54 151 l-28 82 38 38 c73 74 81 209 16 282 -43 49 -89 61 -238 61 l-138
0 0 -350z m286 219 c14 -16 19 -35 18 -76 -2 -79 -22 -97 -119 -101 l-75 -4 0
101 0 101 78 0 c68 0 82 -3 98 -21z"/>
<path d="M3650 6995 l0 -345 225 0 225 0 0 60 0 60 -160 0 -160 0 0 285 0 285
-65 0 -65 0 0 -345z"/>
<path d="M4210 6995 l0 -345 65 0 65 0 0 125 0 125 93 0 c169 0 252 45 277
150 25 104 -3 202 -69 247 -53 36 -96 43 -268 43 l-163 0 0 -345z m344 206
c23 -26 31 -82 16 -125 -16 -51 -51 -66 -150 -66 l-80 0 0 105 0 105 98 0 c84
0 101 -3 116 -19z"/>
<path d="M4810 6925 l0 -65 140 0 140 0 0 65 0 65 -140 0 -140 0 0 -65z"/>
<path d="M6555 6348 c-154 -4 -992 -10 -1863 -12 -1507 -3 -1583 -4 -1602 -21
-38 -35 -41 -75 -38 -490 3 -381 4 -402 23 -435 41 -70 30 -68 635 -81 346 -7
941 -9 1630 -6 1059 6 1616 19 1652 38 10 5 26 24 35 42 16 29 18 73 21 452 3
363 1 425 -13 461 -20 52 -47 65 -133 62 -37 -1 -193 -5 -347 -10z m-2387
-230 c41 -12 88 -52 107 -89 21 -39 18 -126 -4 -174 -21 -45 -84 -108 -184
-183 l-67 -51 142 -3 142 -3 4 -57 3 -58 -237 0 -237 0 6 62 c6 71 0 64 167
200 52 43 105 93 118 111 58 86 -11 177 -102 135 -25 -11 -28 -16 -40 -70 -6
-27 -8 -28 -76 -28 -39 0 -70 4 -70 9 0 5 9 38 20 74 27 86 62 117 165 140 26
6 100 -2 143 -15z m543 1 c49 -15 105 -62 128 -108 52 -102 53 -310 1 -411
-75 -146 -284 -170 -388 -44 -49 59 -67 132 -67 264 0 127 18 185 73 244 56
60 160 82 253 55z m772 -175 c15 -8 33 -26 39 -39 l11 -25 18 29 c11 18 35 35
63 46 76 29 147 7 186 -58 18 -29 20 -51 20 -219 l0 -188 -64 0 -65 0 -3 165
c-2 114 -7 168 -15 177 -19 18 -79 15 -103 -7 -19 -17 -20 -30 -20 -177 l0
-158 -70 0 -70 0 0 160 c0 147 -2 162 -20 180 -26 26 -60 25 -94 -1 l-26 -20
0 -160 0 -159 -70 0 -70 0 0 235 0 236 68 -3 c57 -3 67 -6 66 -20 -2 -22 0
-22 32 -2 53 35 128 38 187 8z m680 7 c29 -15 37 -16 37 -5 0 11 16 14 66 14
l66 0 -4 -232 c-5 -259 -9 -281 -72 -336 -37 -33 -106 -52 -184 -52 -103 0
-172 39 -175 100 l-2 35 59 3 c40 1 67 -3 82 -13 13 -8 43 -15 67 -15 55 0 82
27 92 90 l7 45 -23 -21 c-40 -35 -65 -44 -130 -44 -59 0 -63 2 -104 43 -64 63
-84 169 -50 268 38 112 169 171 268 120z"/>
<path d="M4577 6000 c-33 -21 -47 -77 -47 -185 0 -56 3 -116 6 -134 10 -48 46
-81 89 -81 82 0 105 42 105 187 -1 114 -11 168 -38 195 -22 23 -89 33 -115 18z"/>
<path d="M6084 5850 c-40 -16 -64 -59 -64 -115 0 -85 55 -132 122 -104 38 16
58 56 58 118 0 64 -6 79 -41 96 -31 17 -44 18 -75 5z"/>
<path d="M7217 5023 c-2 -5 -10 -35 -17 -67 l-14 -59 -16 59 c-11 38 -22 60
-33 62 -22 4 -22 1 8 -98 14 -46 25 -107 25 -137 0 -40 4 -53 15 -53 11 0 15
13 15 54 0 30 9 92 20 138 11 46 20 89 20 96 0 13 -16 17 -23 5z"/>
<path d="M2854 5011 c-2 -2 -4 -64 -4 -137 0 -123 1 -132 20 -137 18 -5 20 0
20 59 l0 65 38 -3 c32 -3 37 0 40 20 3 20 -1 22 -37 22 -40 0 -41 1 -41 35 0
35 0 35 45 35 38 0 45 3 45 19 0 16 -9 20 -61 23 -33 1 -63 1 -65 -1z"/>
<path d="M7023 5013 c-10 -4 -13 -42 -13 -149 l0 -144 60 0 60 0 0 31 0 31
-45 -6 -44 -7 -3 124 c-2 94 -6 123 -15 120z"/>
<path d="M3045 4986 c-28 -28 -39 -77 -33 -152 8 -91 64 -141 129 -114 80 33
91 203 18 264 -39 33 -82 34 -114 2z m90 -41 c21 -20 25 -34 25 -82 0 -67 -19
-103 -55 -103 -37 0 -55 35 -55 107 0 50 4 67 20 83 26 26 36 25 65 -5z"/>
<path d="M6634 5003 c-45 -9 -84 -80 -84 -152 0 -48 38 -122 72 -141 78 -43
159 83 128 199 -18 68 -63 104 -116 94z m60 -65 c19 -27 21 -122 3 -158 -9
-18 -21 -25 -42 -25 -38 0 -55 32 -55 105 0 64 20 100 55 100 13 0 31 -10 39
-22z"/>
<path d="M6800 4861 c0 -148 0 -151 21 -151 21 0 22 2 15 108 -4 59 -4 103 0
99 5 -4 25 -52 45 -105 30 -79 41 -97 58 -98 20 -1 21 3 21 147 0 135 -2 149
-17 149 -16 0 -18 -11 -15 -107 l2 -108 -43 105 c-34 84 -48 106 -65 108 -22
3 -22 2 -22 -147z"/>
<path d="M3250 4854 c0 -145 0 -145 23 -142 20 3 22 7 19 61 -4 57 -4 57 25
57 43 0 53 -12 60 -67 5 -43 9 -52 29 -56 13 -2 25 -2 28 0 6 7 -20 111 -32
126 -8 10 -6 16 9 25 21 13 26 70 9 102 -13 24 -62 40 -121 40 l-49 0 0 -146z
m132 71 c15 -34 -4 -55 -51 -55 -36 0 -36 1 -36 40 0 40 0 40 37 40 31 0 41
-5 50 -25z"/>
<path d="M6280 4849 l0 -149 85 0 c84 0 85 0 85 25 0 24 -3 25 -60 25 l-60 0
0 40 0 40 50 0 c47 0 50 1 50 26 0 25 -2 26 -47 22 -52 -3 -53 -2 -53 42 l0
30 60 0 c58 0 60 1 60 25 0 26 0 26 -85 24 l-85 -2 0 -148z"/>
<path d="M3560 4845 l0 -145 25 0 c24 0 25 3 25 60 0 59 0 60 29 60 37 0 49
-16 57 -74 6 -43 9 -46 36 -46 28 0 29 1 22 38 -4 20 -12 51 -19 68 -11 26
-10 33 6 53 22 27 24 50 8 84 -16 34 -49 47 -124 47 l-65 0 0 -145z m144 73
c18 -29 -4 -53 -53 -56 l-41 -3 0 41 0 41 41 -3 c27 -2 46 -9 53 -20z"/>
<path d="M3810 4841 l0 -151 100 0 100 0 0 25 c0 24 -2 25 -75 25 l-75 0 0 40
0 40 61 0 c57 0 60 1 57 23 -3 19 -10 22 -60 25 l-58 3 0 34 0 35 70 0 c63 0
70 2 70 20 0 18 -7 20 -72 20 -40 0 -83 3 -95 6 l-23 6 0 -151z"/>
<path d="M6065 4965 c-30 -29 -33 -79 -8 -107 9 -10 40 -25 69 -34 29 -8 55
-22 58 -30 9 -23 -11 -53 -39 -60 -29 -7 -44 1 -55 32 -7 17 -17 24 -35 24
-59 0 -8 -86 57 -97 51 -8 93 12 112 52 32 67 10 108 -68 128 -56 15 -77 37
-57 61 19 22 58 20 73 -4 7 -11 23 -20 36 -20 19 0 22 4 17 23 -18 60 -113 80
-160 32z"/>
<path d="M4070 4960 c-23 -23 -27 -87 -7 -112 6 -9 38 -24 70 -33 77 -22 97
-64 41 -85 -31 -12 -70 3 -79 29 -4 15 -15 21 -36 21 -29 0 -29 0 -16 -32 17
-44 69 -71 122 -64 72 9 119 90 81 141 -7 10 -42 28 -77 39 -56 18 -64 24 -64
46 0 22 5 25 37 28 29 2 40 -2 50 -17 11 -18 58 -31 58 -16 0 16 -31 63 -45
69 -38 14 -115 6 -135 -14z"/>
<path d="M4310 4833 l0 -148 103 0 102 0 0 25 c0 24 -2 25 -77 28 l-78 3 0 34
0 35 60 0 c57 0 60 1 60 25 0 24 -3 25 -60 25 l-60 0 0 35 0 35 75 0 c73 0 75
1 75 25 l0 25 -100 0 -100 0 0 -147z"/>
<path d="M4595 4843 c-26 -76 -50 -144 -53 -150 -3 -9 6 -13 24 -13 24 0 32 7
46 40 16 39 18 40 63 40 45 0 47 -1 62 -40 14 -34 21 -40 45 -40 15 0 28 2 28
4 0 4 -84 250 -95 279 -5 11 -18 17 -40 17 l-32 0 -48 -137z m112 -14 c5 -28
4 -29 -31 -29 -31 0 -36 3 -32 18 3 9 10 37 17 62 l12 45 14 -34 c8 -18 17
-46 20 -62z"/>
<path d="M4850 4829 l0 -150 27 3 c25 3 26 6 27 63 l1 60 35 -3 c48 -5 57 -15
65 -73 7 -48 7 -49 42 -49 30 0 34 3 28 18 -4 9 -11 31 -15 47 -10 43 -29 75
-43 75 -7 0 -1 6 13 13 35 17 48 69 26 102 -23 35 -54 45 -137 45 l-69 0 0
-151z m158 64 c3 -27 -1 -33 -21 -38 -14 -4 -38 -5 -53 -3 -26 3 -29 7 -30 41
l-1 38 51 -3 c49 -3 51 -4 54 -35z"/>
<path d="M5162 4964 c-67 -47 -74 -187 -12 -254 24 -26 35 -30 79 -30 42 0 56
5 84 30 19 17 37 39 40 50 8 32 -40 26 -73 -10 -34 -36 -59 -38 -88 -7 -49 52
-34 179 22 193 30 7 76 -18 76 -41 0 -10 10 -15 31 -15 27 0 30 3 24 23 -4 12
-20 34 -36 50 -23 22 -39 27 -77 27 -27 0 -57 -7 -70 -16z"/>
<path d="M5400 4835 l0 -145 30 0 30 0 0 60 0 60 55 0 55 0 0 -60 0 -60 30 0
30 0 0 145 0 145 -30 0 c-30 0 -30 -1 -30 -55 l0 -55 -55 0 -55 0 0 55 c0 54
0 55 -30 55 l-30 0 0 -145z"/>
<path d="M5770 4864 c0 -114 0 -116 29 -145 25 -24 38 -29 79 -29 41 0 55 5
81 29 l31 29 0 116 0 116 -28 0 -28 0 4 -101 c5 -112 -7 -139 -58 -139 -49 0
-60 25 -60 138 l0 102 -25 0 -25 0 0 -116z"/>
<path d="M2780 4290 c0 -73 4 -120 10 -120 6 0 10 36 10 88 l1 87 14 -40 c8
-22 22 -61 31 -87 10 -32 21 -48 32 -48 15 0 17 13 15 112 -2 134 -21 160 -25
36 l-3 -83 -28 82 c-44 124 -57 118 -57 -27z"/>
<path d="M2953 4378 c-21 -26 -35 -89 -28 -128 15 -88 83 -118 129 -57 28 38
28 126 0 164 -23 31 -83 44 -101 21z m69 -35 c13 -11 18 -30 18 -65 0 -58 -13
-88 -39 -88 -30 0 -45 29 -45 85 0 75 27 104 66 68z"/>
<path d="M3094 4381 c-12 -12 -1 -30 21 -35 24 -6 25 -8 25 -101 0 -88 1 -95
20 -95 19 0 20 7 20 95 0 95 0 95 25 95 18 0 25 5 25 19 0 17 -9 20 -66 23
-36 1 -68 1 -70 -1z"/>
<path d="M7209 4308 l-1 -83 -26 78 c-17 51 -31 77 -42 77 -13 0 -15 -17 -12
-115 4 -132 21 -157 23 -32 l1 82 27 -82 c38 -119 51 -110 51 37 0 73 -4 120
-10 120 -6 0 -10 -35 -11 -82z"/>
<path d="M6996 4365 c-34 -34 -45 -124 -22 -180 44 -104 136 -33 124 96 -8 84
-59 126 -102 84z m53 -24 c19 -12 27 -121 12 -150 -17 -30 -49 -27 -62 7 -13
33 -7 116 11 137 14 17 20 18 39 6z"/>
<path d="M3308 4255 c3 -90 6 -115 17 -115 9 0 15 15 17 48 l3 47 38 -3 c35
-3 38 -2 35 20 -2 12 -9 24 -15 24 -7 1 -24 2 -38 3 -20 1 -25 6 -25 26 0 23
3 25 50 25 43 0 50 3 50 20 0 18 -7 20 -67 20 l-68 0 3 -115z"/>
<path d="M3493 4346 c-26 -22 -28 -30 -28 -96 0 -68 2 -73 33 -101 41 -37 75
-37 112 -1 99 99 -13 288 -117 198z m97 -31 c18 -22 23 -96 8 -125 -17 -31
-53 -37 -79 -14 -21 19 -27 101 -9 135 13 23 62 26 80 4z"/>
<path d="M6739 4368 c-9 -31 -5 -38 22 -38 l29 0 0 -100 c0 -82 3 -100 15
-100 12 0 15 18 15 100 l0 100 25 0 c18 0 25 5 25 20 0 18 -7 20 -65 20 -36 0
-65 -1 -66 -2z"/>
<path d="M6900 4250 c0 -100 3 -120 15 -120 13 0 15 20 15 120 0 100 -2 120
-15 120 -12 0 -15 -20 -15 -120z"/>
<path d="M3688 4355 c-1 -2 -2 -55 0 -119 3 -109 4 -116 23 -116 18 0 20 6 18
48 -3 46 -2 47 25 45 36 -3 38 -5 45 -50 5 -30 11 -39 30 -41 21 -3 22 -1 16
30 -11 55 -16 68 -26 68 -5 0 0 13 11 28 24 32 19 76 -9 91 -17 9 -127 22
-133 16z m115 -56 c17 -28 1 -49 -38 -49 -33 0 -35 2 -35 36 0 34 1 35 31 32
18 -2 37 -10 42 -19z"/>
<path d="M5510 4342 c-43 -21 -60 -53 -60 -113 0 -89 70 -148 141 -119 90 38
93 198 4 236 -43 18 -43 18 -85 -4z m77 -37 c29 -20 37 -75 19 -120 -17 -40
-35 -50 -71 -41 -18 5 -27 17 -35 47 -24 89 27 156 87 114z"/>
<path d="M5973 4353 c-48 -9 -70 -84 -35 -116 9 -8 36 -20 60 -27 47 -12 61
-32 42 -55 -18 -21 -58 -19 -72 5 -17 27 -58 27 -51 1 9 -34 40 -53 84 -53 54
1 79 24 79 72 0 44 -20 65 -72 74 -39 7 -55 30 -37 52 17 20 47 17 61 -6 15
-23 48 -27 48 -5 0 16 -35 55 -49 55 -5 0 -15 2 -23 4 -7 2 -23 1 -35 -1z"/>
<path d="M6250 4267 c0 -99 -7 -117 -47 -117 -33 0 -43 29 -43 119 0 74 -2 81
-20 81 -19 0 -20 -7 -20 -95 0 -88 2 -98 25 -120 16 -17 35 -25 60 -25 25 0
44 8 60 25 23 22 25 31 25 125 0 93 -1 100 -20 100 -19 0 -20 -7 -20 -93z"/>
<path d="M6330 4241 c0 -66 4 -122 8 -125 4 -2 14 -1 21 3 10 6 12 29 9 85 -2
42 -1 76 2 76 3 0 14 -36 24 -80 17 -70 22 -80 41 -80 19 0 24 11 43 88 l20
87 1 -87 c1 -81 3 -88 21 -88 19 0 20 7 20 121 l0 120 -27 -3 c-24 -3 -29 -10
-49 -87 -13 -46 -25 -85 -27 -87 -1 -2 -14 37 -27 86 -23 86 -25 90 -52 90
l-28 0 0 -119z"/>
<path d="M6580 4239 c0 -109 2 -120 18 -117 12 2 18 15 20 46 3 38 6 42 30 42
33 0 45 8 61 37 33 63 -2 113 -79 113 l-50 0 0 -121z m100 60 c14 -26 -3 -49
-36 -49 -21 0 -24 5 -24 35 0 31 3 35 25 35 14 0 29 -8 35 -21z"/>
<path d="M3960 4230 c0 -113 1 -120 20 -120 18 0 20 7 20 55 l0 55 45 0 45 0
0 -55 c0 -52 1 -55 25 -55 l25 0 0 120 0 120 -25 0 c-23 0 -25 -4 -25 -45 l0
-45 -45 0 -45 0 0 45 c0 38 -3 45 -20 45 -19 0 -20 -7 -20 -120z"/>
<path d="M4180 4259 c0 -50 5 -99 11 -111 17 -31 70 -49 113 -37 53 15 67 50
64 152 -3 74 -5 82 -23 82 -18 0 -20 -7 -22 -75 -1 -41 -2 -83 -2 -93 -1 -25
-43 -42 -70 -28 -19 11 -21 20 -21 106 0 95 0 95 -25 95 -25 0 -25 -1 -25 -91z"/>
<path d="M4415 4342 c-3 -3 -5 -56 -5 -118 0 -103 2 -112 20 -117 18 -5 19 1
22 92 l3 96 25 -89 c18 -65 30 -90 45 -96 26 -10 30 -3 57 100 l23 85 5 -94
c4 -80 8 -95 23 -97 16 -2 17 8 15 119 -3 118 -4 122 -25 123 -30 2 -35 -6
-63 -98 -13 -43 -26 -78 -29 -78 -3 0 -18 39 -32 88 -24 80 -28 87 -52 88 -15
1 -29 -1 -32 -4z"/>
<path d="M4725 4238 c-21 -62 -40 -119 -43 -126 -3 -10 2 -13 19 -10 15 2 25
12 29 28 3 14 9 24 13 23 4 -2 27 -3 51 -3 38 0 45 -3 50 -25 4 -16 13 -25 26
-25 11 0 20 4 20 8 0 4 -17 59 -38 122 -35 104 -41 115 -64 118 -25 3 -28 -2
-63 -110z m89 -20 c6 -27 5 -28 -30 -28 -27 0 -35 4 -31 14 3 8 11 33 18 57
l13 42 12 -29 c6 -16 14 -41 18 -56z"/>
<path d="M4922 4229 c3 -107 5 -122 21 -125 15 -2 17 8 17 94 l0 96 49 -94
c38 -73 54 -94 70 -94 12 0 21 3 21 7 0 4 0 59 0 122 0 109 -1 115 -21 115
-19 0 -20 -4 -13 -85 4 -48 3 -85 -2 -85 -5 0 -28 37 -50 83 -35 68 -46 83
-68 85 l-27 3 3 -122z"/>
<path d="M5273 4338 c-12 -6 -29 -25 -37 -43 -42 -88 8 -195 90 -195 35 0 94
42 94 66 0 19 -39 18 -46 -1 -10 -25 -40 -36 -67 -26 -52 20 -59 136 -10 168
29 19 67 6 78 -26 7 -22 45 -25 45 -3 0 7 -13 27 -29 43 -31 31 -76 37 -118
17z"/>
<path d="M5700 4230 c0 -113 1 -120 20 -120 17 0 19 8 22 86 l3 86 45 -86 c36
-69 49 -86 68 -86 22 0 22 2 22 120 0 113 -1 120 -20 120 -18 0 -20 -7 -20
-82 l-1 -83 -45 83 c-38 67 -50 82 -70 82 l-24 0 0 -120z"/>
<path d="M7462 2985 c-24 -7 -49 -20 -55 -29 -7 -8 -25 -18 -42 -22 -28 -7
-29 -6 -15 11 14 17 14 17 -15 3 -16 -8 -54 -21 -84 -28 -50 -12 -55 -11 -68
6 -14 18 -14 18 -11 -1 3 -18 -2 -20 -42 -18 -34 2 -41 0 -30 -8 11 -8 2 -9
-35 -5 -34 4 -45 3 -35 -4 12 -8 9 -10 -13 -10 -18 0 -26 4 -21 11 4 7 0 9
-12 6 -23 -7 -88 -17 -140 -22 -130 -13 -705 -42 -904 -46 -34 0 -40 -2 -25
-9 15 -6 5 -9 -35 -10 -30 -1 -66 -3 -80 -5 -63 -9 -1073 -15 -1053 -6 13 6
225 11 505 13 439 3 683 10 618 17 -14 2 -187 2 -385 1 -198 -2 -471 -3 -607
-4 -153 -1 -247 -5 -245 -11 2 -5 21 -11 43 -13 21 -2 41 -6 43 -8 5 -4 -97
-8 -114 -4 -29 7 -255 6 -255 0 0 -5 48 -12 108 -16 136 -10 1352 -11 1452 -2
41 5 161 12 265 18 223 12 275 18 292 32 7 6 52 12 101 15 403 18 761 64 861
110 20 9 38 20 41 23 3 4 19 12 35 18 43 15 8 13 -43 -3z m-515 -111 c-3 -3
-12 -4 -19 -1 -8 3 -5 6 6 6 11 1 17 -2 13 -5z m-632 -54 c4 -6 -10 -9 -37 -9
l-43 2 35 7 c19 4 36 8 37 9 1 0 5 -3 8 -9z m83 3 c-10 -2 -28 -2 -40 0 -13 2
-5 4 17 4 22 1 32 -1 23 -4z m-205 -20 c-7 -2 -19 -2 -25 0 -7 3 -2 5 12 5 14
0 19 -2 13 -5z"/>
<path d="M2608 2943 c7 -3 16 -2 19 1 4 3 -2 6 -13 5 -11 0 -14 -3 -6 -6z"/>
<path d="M2540 2924 c70 -18 227 -44 260 -43 26 1 14 4 -180 38 -131 24 -160
25 -80 5z"/>
<path d="M2715 2924 c104 -19 255 -32 249 -22 -3 5 -27 8 -54 8 -26 0 -84 7
-127 15 -43 8 -94 14 -113 14 -23 -1 -7 -6 45 -15z"/>
<path d="M7130 2926 c0 -2 7 -6 15 -10 8 -3 15 -1 15 4 0 6 -7 10 -15 10 -8 0
-15 -2 -15 -4z"/>
<path d="M6930 2910 l-45 -7 40 -1 c22 0 51 4 65 8 32 10 5 10 -60 0z"/>
<path d="M2990 2896 c0 -2 9 -6 20 -9 11 -3 20 -1 20 4 0 5 -9 9 -20 9 -11 0
-20 -2 -20 -4z"/>
<path d="M3060 2890 c20 -13 33 -13 25 0 -3 6 -14 10 -23 10 -15 0 -15 -2 -2
-10z"/>
<path d="M7358 2893 c6 -2 18 -2 25 0 6 3 1 5 -13 5 -14 0 -19 -2 -12 -5z"/>
<path d="M3105 2882 c6 -5 39 -12 75 -15 74 -6 53 7 -30 18 -36 5 -52 4 -45
-3z"/>
<path d="M7255 2883 c-16 -2 -82 -10 -145 -18 -156 -20 -352 -43 -425 -49
-276 -25 -296 -26 -560 -42 -60 -4 -117 -8 -125 -10 -8 -1 -44 -3 -80 -4 -36
-1 -56 -5 -45 -7 43 -11 778 35 1075 67 96 10 296 43 360 59 34 9 34 9 5 8
-16 0 -43 -2 -60 -4z"/>
<path d="M6578 2873 c7 -3 16 -2 19 1 4 3 -2 6 -13 5 -11 0 -14 -3 -6 -6z"/>
<path d="M2708 2863 c7 -3 16 -2 19 1 4 3 -2 6 -13 5 -11 0 -14 -3 -6 -6z"/>
<path d="M2753 2859 c9 -5 79 -12 155 -15 75 -2 214 -11 307 -19 94 -8 193
-14 220 -13 46 1 46 2 10 5 -138 12 -475 44 -500 48 -25 4 -26 3 -10 -5 15 -7
7 -8 -30 -5 -135 13 -170 14 -152 4z"/>
<path d="M3280 2860 c91 -22 260 -37 260 -22 0 17 -21 26 -30 12 -6 -10 -9 -9
-13 1 -5 12 -7 12 -15 0 -5 -7 -11 -9 -13 -3 -2 5 -53 12 -114 15 -71 4 -98 3
-75 -3z"/>
<path d="M7245 2844 c-114 -23 -554 -74 -636 -74 -31 0 -37 -3 -32 -16 4 -11
8 -12 13 -4 6 9 33 11 93 8 54 -3 84 -1 80 5 -4 6 6 8 26 4 28 -6 267 10 451
30 58 6 61 7 30 13 l-35 6 50 8 c47 8 105 31 105 41 0 7 -12 5 -145 -21z m-15
-34 c0 -5 -17 -9 -37 -9 l-38 2 35 7 c19 4 36 8 38 9 1 0 2 -3 2 -9z"/>
<path d="M3550 2853 c0 -4 9 -14 19 -20 15 -10 21 -10 25 0 5 9 7 9 12 0 3 -7
15 -13 27 -12 21 0 21 1 2 8 -19 8 -18 9 5 13 17 4 12 6 -17 7 -23 0 -48 4
-57 7 -9 3 -16 2 -16 -3z"/>
<path d="M2805 2830 c22 -4 85 -11 140 -14 77 -4 86 -3 40 3 -94 13 -228 22
-180 11z"/>
<path d="M3688 2833 c7 -3 16 -2 19 1 4 3 -2 6 -13 5 -11 0 -14 -3 -6 -6z"/>
<path d="M3735 2824 c9 -9 19 -13 23 -10 3 4 0 11 -8 16 -24 15 -33 11 -15 -6z"/>
<path d="M3774 2822 c2 -4 19 -9 36 -10 19 -2 29 1 25 8 -3 5 -20 10 -36 10
-17 0 -28 -4 -25 -8z"/>
<path d="M3850 2814 c0 -11 6 -14 20 -9 12 4 20 2 20 -5 0 -7 6 -8 19 -1 21
12 102 10 94 -1 -2 -5 65 -8 149 -9 84 0 161 -2 171 -4 9 -2 17 3 17 10 0 8
15 15 38 18 27 3 23 4 -15 4 -29 0 -53 -4 -53 -9 0 -11 -38 -10 -45 2 -3 6
-17 10 -31 10 -14 0 -23 -4 -19 -9 5 -10 -23 -8 -120 9 -27 5 -94 9 -147 9
-83 1 -98 -1 -98 -15z"/>
<path d="M4280 2820 c-13 -8 -12 -10 3 -10 9 0 17 5 17 10 0 12 -1 12 -20 0z"/>
<path d="M4530 2820 c-11 -7 -6 -10 20 -10 26 0 31 3 20 10 -8 5 -17 10 -20
10 -3 0 -12 -5 -20 -10z"/>
<path d="M4595 2820 c-3 -5 -1 -10 4 -10 6 0 11 5 11 10 0 6 -2 10 -4 10 -3 0
-8 -4 -11 -10z"/>
<path d="M4448 2813 c12 -2 32 -2 45 0 12 2 2 4 -23 4 -25 0 -35 -2 -22 -4z"/>
<path d="M3063 2803 c9 -2 23 -2 30 0 6 3 -1 5 -18 5 -16 0 -22 -2 -12 -5z"/>
<path d="M3223 2803 c9 -2 25 -2 35 0 9 3 1 5 -18 5 -19 0 -27 -2 -17 -5z"/>
<path d="M3548 2803 c6 -2 18 -2 25 0 6 3 1 5 -13 5 -14 0 -19 -2 -12 -5z"/>
<path d="M2668 2793 c12 -2 30 -2 40 0 9 3 -1 5 -23 4 -22 0 -30 -2 -17 -4z"/>
<path d="M3148 2793 c6 -2 18 -2 25 0 6 3 1 5 -13 5 -14 0 -19 -2 -12 -5z"/>
<path d="M3281 2796 c2 -2 31 -6 64 -9 39 -4 54 -3 45 3 -14 9 -119 15 -109 6z"/>
<path d="M2761 2786 c2 -2 27 -6 54 -9 32 -4 43 -3 30 3 -19 8 -93 14 -84 6z"/>
<path d="M3448 2783 c17 -2 47 -2 65 0 17 2 3 4 -33 4 -36 0 -50 -2 -32 -4z"/>
<path d="M3557 2778 c-7 -4 22 -7 63 -7 79 1 78 6 -3 11 -27 2 -54 0 -60 -4z"/>
<path d="M3728 2773 c6 -2 18 -2 25 0 6 3 1 5 -13 5 -14 0 -19 -2 -12 -5z"/>
<path d="M3780 2770 c0 -6 7 -10 15 -10 8 0 15 2 15 4 0 2 -7 6 -15 10 -8 3
-15 1 -15 -4z"/>
<path d="M3828 2773 c7 -3 16 -2 19 1 4 3 -2 6 -13 5 -11 0 -14 -3 -6 -6z"/>
<path d="M3950 2773 c8 -3 18 -11 22 -17 5 -7 8 -4 8 7 0 11 -7 17 -22 16 -16
0 -18 -2 -8 -6z"/>
<path d="M4011 2763 c-9 -10 -5 -11 19 -7 19 4 30 2 30 -5 0 -7 22 -10 63 -9
l62 2 -60 3 c-36 3 -54 7 -46 12 9 6 2 10 -21 13 -20 2 -40 -2 -47 -9z"/>
<path d="M4288 2768 c5 -5 16 -8 23 -6 8 3 3 7 -10 11 -17 4 -21 3 -13 -5z"/>
<path d="M7255 2759 c-121 -22 -514 -66 -680 -75 -66 -4 -114 -9 -107 -12 20
-6 388 16 532 33 152 17 222 29 320 54 95 24 64 24 -65 0z"/>
<path d="M4158 2763 c18 -2 45 -2 60 0 15 2 0 4 -33 4 -33 0 -45 -2 -27 -4z"/>
<path d="M6310 2750 l-85 -6 70 -1 c39 0 113 3 165 7 l95 7 -80 0 c-44 -1
-118 -4 -165 -7z"/>
<path d="M4478 2743 c6 -2 18 -2 25 0 6 3 1 5 -13 5 -14 0 -19 -2 -12 -5z"/>
<path d="M4603 2743 c43 -2 110 -2 150 0 40 1 5 3 -78 3 -82 0 -115 -2 -72 -3z"/>
<path d="M4835 2740 c-3 -5 -1 -10 4 -10 6 0 11 5 11 10 0 6 -2 10 -4 10 -3 0
-8 -4 -11 -10z"/>
<path d="M4941 2739 c15 -10 116 -13 106 -3 -3 3 -32 8 -63 9 -37 2 -53 0 -43
-6z"/>
<path d="M5080 2742 c0 -6 419 -6 640 1 52 2 -70 4 -272 5 -203 0 -368 -2
-368 -6z"/>
<path d="M6623 2743 c9 -2 23 -2 30 0 6 3 -1 5 -18 5 -16 0 -22 -2 -12 -5z"/>
<path d="M6863 2743 c15 -2 39 -2 55 0 15 2 2 4 -28 4 -30 0 -43 -2 -27 -4z"/>
<path d="M3318 2733 c12 -2 32 -2 45 0 12 2 2 4 -23 4 -25 0 -35 -2 -22 -4z"/>
<path d="M4873 2733 c9 -2 23 -2 30 0 6 3 -1 5 -18 5 -16 0 -22 -2 -12 -5z"/>
<path d="M6063 2733 c26 -2 67 -2 90 0 23 2 2 3 -48 3 -49 0 -68 -1 -42 -3z"/>
<path d="M6295 2729 c-77 -5 -221 -13 -320 -17 -174 -9 -176 -9 -60 -10 130
-2 634 24 643 33 7 6 -85 4 -263 -6z"/>
<path d="M6783 2733 c9 -2 23 -2 30 0 6 3 -1 5 -18 5 -16 0 -22 -2 -12 -5z"/>
<path d="M3520 2720 c74 -4 250 -7 390 -7 208 1 230 2 120 7 -74 3 -250 6
-390 6 -219 1 -236 0 -120 -6z"/>
<path d="M2794 2705 c44 -8 125 -16 180 -19 96 -5 94 -5 -49 14 -172 21 -248
24 -131 5z"/>
<path d="M4183 2713 c9 -2 23 -2 30 0 6 3 -1 5 -18 5 -16 0 -22 -2 -12 -5z"/>
<path d="M7329 2706 c-9 -9 -278 -49 -489 -71 -124 -14 -180 -22 -125 -19 55
3 116 7 135 10 19 2 103 11 185 19 83 9 177 22 210 30 135 31 141 33 114 34
-14 1 -28 -1 -30 -3z"/>
<path d="M3103 2673 c15 -2 37 -2 50 0 12 2 0 4 -28 4 -27 0 -38 -2 -22 -4z"/>
<path d="M3318 2663 c12 -2 32 -2 45 0 12 2 2 4 -23 4 -25 0 -35 -2 -22 -4z"/>
<path d="M6348 2663 c17 -2 47 -2 65 0 17 2 3 4 -33 4 -36 0 -50 -2 -32 -4z"/>
<path d="M2785 2640 c40 -9 122 -13 114 -6 -2 2 -38 6 -79 9 -56 4 -65 3 -35
-3z"/>
<path d="M7269 2646 c-10 -10 -577 -76 -734 -85 -194 -12 -612 -29 -1020 -41
-260 -8 -252 -8 110 -3 215 3 404 6 420 8 17 2 116 6 220 9 178 7 413 20 550
31 33 3 89 8 125 11 150 13 415 56 429 70 2 2 -18 4 -46 4 -27 0 -52 -2 -54
-4z"/>
<path d="M2975 2620 c22 -5 96 -11 165 -14 92 -3 108 -3 60 3 -101 13 -273 22
-225 11z"/>
<path d="M7325 2609 c-94 -28 -485 -75 -820 -99 -401 -28 -1471 -41 -2365 -29
-524 7 -699 13 -1024 35 -120 8 -221 13 -223 11 -2 -2 52 -9 119 -16 68 -6
141 -14 163 -16 22 -2 105 -7 185 -10 80 -4 179 -8 220 -11 202 -11 2314 -24
2230 -13 -31 4 22 6 125 4 103 -2 169 0 155 5 -15 5 25 7 100 6 69 -1 168 1
221 5 53 4 152 10 220 13 68 4 140 9 159 11 32 4 125 14 195 20 17 1 48 3 70
4 28 1 36 4 26 10 -10 6 0 8 29 4 27 -4 41 -2 37 4 -4 5 6 8 24 5 16 -2 28 -6
26 -8 -10 -11 -289 -45 -482 -59 -328 -25 -414 -35 -240 -29 318 11 763 62
784 90 3 5 27 20 54 33 26 13 47 28 47 32 0 5 -1 9 -2 8 -2 0 -16 -5 -33 -10z
m-35 -29 c-8 -5 -24 -9 -35 -9 -16 1 -16 2 5 9 35 11 48 11 30 0z"/>
<path d="M6443 2603 c-35 -2 -63 -7 -63 -11 0 -7 137 1 210 11 31 5 -63 4
-147 0z"/>
<path d="M2763 2593 c9 -2 23 -2 30 0 6 3 -1 5 -18 5 -16 0 -22 -2 -12 -5z"/>
<path d="M2823 2583 c9 -2 23 -2 30 0 6 3 -1 5 -18 5 -16 0 -22 -2 -12 -5z"/>
<path d="M6250 2582 c0 -4 21 -6 48 -4 75 5 82 10 15 11 -35 0 -63 -2 -63 -7z"/>
<path d="M2888 2573 c12 -2 32 -2 45 0 12 2 2 4 -23 4 -25 0 -35 -2 -22 -4z"/>
<path d="M6137 2573 c18 -2 50 -2 70 0 21 2 7 4 -32 4 -38 0 -55 -2 -38 -4z"/>
<path d="M2988 2563 c17 -2 47 -2 65 0 17 2 3 4 -33 4 -36 0 -50 -2 -32 -4z"/>
<path d="M5728 2563 c6 -2 18 -2 25 0 6 3 1 5 -13 5 -14 0 -19 -2 -12 -5z"/>
<path d="M5778 2563 c6 -2 18 -2 25 0 6 3 1 5 -13 5 -14 0 -19 -2 -12 -5z"/>
<path d="M3163 2553 c15 -2 37 -2 50 0 12 2 0 4 -28 4 -27 0 -38 -2 -22 -4z"/>
<path d="M2778 2543 c7 -3 16 -2 19 1 4 3 -2 6 -13 5 -11 0 -14 -3 -6 -6z"/>
<path d="M3328 2543 c17 -2 47 -2 65 0 17 2 3 4 -33 4 -36 0 -50 -2 -32 -4z"/>
<path d="M2843 2533 c9 -2 23 -2 30 0 6 3 -1 5 -18 5 -16 0 -22 -2 -12 -5z"/>
<path d="M2963 2483 c9 -2 23 -2 30 0 6 3 -1 5 -18 5 -16 0 -22 -2 -12 -5z"/>
<path d="M3048 2473 c12 -2 30 -2 40 0 9 3 -1 5 -23 4 -22 0 -30 -2 -17 -4z"/>
<path d="M3133 2463 c15 -2 37 -2 50 0 12 2 0 4 -28 4 -27 0 -38 -2 -22 -4z"/>
<path d="M3280 2450 c41 -4 147 -10 235 -13 l160 -6 -180 14 c-201 14 -350 18
-215 5z"/>
<path d="M6203 2443 c20 -2 54 -2 75 0 20 2 3 4 -38 4 -41 0 -58 -2 -37 -4z"/>
<path d="M4008 2433 c7 -3 16 -2 19 1 4 3 -2 6 -13 5 -11 0 -14 -3 -6 -6z"/>
<path d="M4078 2433 c23 -2 59 -2 80 0 20 2 1 4 -43 4 -44 0 -61 -2 -37 -4z"/>
<path d="M5895 2430 c4 -7 75 -1 75 6 0 3 -18 4 -39 2 -22 -1 -38 -5 -36 -8z"/>
<path d="M5998 2433 c12 -2 32 -2 45 0 12 2 2 4 -23 4 -25 0 -35 -2 -22 -4z"/>
<path d="M3785 2420 c107 -8 331 -12 324 -6 -2 2 -98 6 -214 8 -134 4 -174 3
-110 -2z"/>
<path d="M4291 2426 c4 -4 493 -14 854 -18 171 -2 119 -4 -200 -8 -415 -5
-409 -6 175 -5 526 0 897 5 865 13 -5 2 -109 3 -230 4 -204 2 -210 2 -85 8 74
3 -206 6 -624 7 -417 1 -757 1 -755 -1z m1159 -16 c0 -5 -4 -10 -10 -10 -5 0
-10 5 -10 10 0 6 5 10 10 10 6 0 10 -4 10 -10z"/>
<path d="M5818 2423 c6 -2 18 -2 25 0 6 3 1 5 -13 5 -14 0 -19 -2 -12 -5z"/>
<path d="M6260 2422 c0 -4 16 -6 35 -4 19 2 35 6 35 8 0 2 -16 4 -35 4 -19 0
-35 -4 -35 -8z"/>
<path d="M6368 2423 c7 -3 16 -2 19 1 4 3 -2 6 -13 5 -11 0 -14 -3 -6 -6z"/>
<path d="M6005 2410 c-4 -6 3 -10 14 -10 25 0 27 6 6 13 -8 4 -17 2 -20 -3z"/>
<path d="M6148 2413 c7 -3 16 -2 19 1 4 3 -2 6 -13 5 -11 0 -14 -3 -6 -6z"/>
<path d="M4178 2403 c34 -2 90 -2 125 0 34 2 6 3 -63 3 -69 0 -97 -1 -62 -3z"/>
<path d="M6058 2403 c7 -3 16 -2 19 1 4 3 -2 6 -13 5 -11 0 -14 -3 -6 -6z"/>
</g>
</svg>
