<?xml version="1.0" standalone="no"?>
<!DOCTYPE svg PUBLIC "-//W3C//DTD SVG 20010904//EN"
 "http://www.w3.org/TR/2001/REC-SVG-20010904/DTD/svg10.dtd">
<svg version="1.0" xmlns="http://www.w3.org/2000/svg"
 width="1024.000000pt" height="1024.000000pt" viewBox="0 0 1024.000000 1024.000000"
 preserveAspectRatio="xMidYMid meet">
<metadata>
Created by potrace 1.16, written by Peter Selinger 2001-2019
</metadata>
<g transform="translate(0.000000,1024.000000) scale(0.100000,-0.100000)"
fill="#000000" stroke="none">
<path d="M5270 9723 c0 -5 66 -6 147 -5 276 7 505 -37 698 -132 115 -57 240
-149 229 -168 -4 -6 -3 -8 4 -5 15 10 78 -80 109 -155 24 -57 27 -80 33 -233
l6 -170 2 150 c2 169 -6 212 -51 305 -100 203 -401 366 -757 410 -97 12 -420
14 -420 3z"/>
<path d="M5155 9705 c-33 -7 -51 -13 -40 -13 11 -1 49 5 85 12 36 8 54 14 40
14 -14 0 -52 -6 -85 -13z"/>
<path d="M5045 9685 c-5 -2 -43 -13 -83 -25 -41 -12 -72 -23 -70 -25 2 -2 48
9 103 25 55 16 91 29 80 29 -11 0 -24 -2 -30 -4z"/>
<path d="M4800 9601 c-62 -27 -140 -69 -140 -76 0 -2 39 16 88 39 48 24 98 48
112 54 14 6 21 11 15 11 -5 0 -39 -12 -75 -28z"/>
<path d="M4564 9448 c-41 -39 -80 -81 -86 -92 -6 -12 6 -2 26 21 20 23 62 65
93 93 32 27 54 50 50 50 -4 0 -41 -32 -83 -72z"/>
<path d="M4687 9475 c-37 -33 -24 -32 15 0 16 14 26 25 21 25 -4 0 -21 -12
-36 -25z"/>
<path d="M4606 9405 c-34 -33 -69 -94 -46 -80 6 3 10 12 10 20 0 7 3 15 8 17
11 5 77 78 70 78 -4 0 -23 -16 -42 -35z"/>
<path d="M4445 9299 c-9 -17 -15 -33 -13 -35 3 -2 12 12 21 31 21 43 13 47 -8
4z"/>
<path d="M4526 9275 c-3 -9 -6 -22 -5 -28 0 -7 5 -1 10 12 5 13 8 26 5 28 -2
2 -6 -3 -10 -12z"/>
<path d="M4411 9204 c0 -11 3 -14 6 -6 3 7 2 16 -1 19 -3 4 -6 -2 -5 -13z"/>
<path d="M6455 9190 c3 -5 8 -10 11 -10 2 0 4 5 4 10 0 6 -5 10 -11 10 -5 0
-7 -4 -4 -10z"/>
<path d="M6459 9155 c-1 -11 -3 -24 -3 -30 -1 -5 -5 -16 -10 -23 -7 -11 -4
-11 13 0 23 14 24 22 11 53 l-9 20 -2 -20z"/>
<path d="M4401 9144 c0 -11 3 -14 6 -6 3 7 2 16 -1 19 -3 4 -6 -2 -5 -13z"/>
<path d="M6470 9092 c0 -7 -7 -12 -16 -12 -8 0 -12 -5 -9 -10 4 -6 1 -17 -5
-25 -7 -8 -9 -15 -4 -15 5 0 4 -4 -2 -8 -6 -4 -23 -29 -37 -57 -14 -27 -35
-61 -47 -73 -16 -17 -19 -27 -11 -35 8 -8 14 -2 22 22 6 17 14 30 16 27 10 -9
34 24 27 35 -5 8 -3 9 5 4 9 -5 12 -2 9 11 -2 12 4 24 17 31 13 8 15 12 6 13
-11 0 -11 3 3 13 9 7 18 19 20 27 2 8 6 23 11 33 4 10 5 21 1 24 -3 4 -6 1 -6
-5z"/>
<path d="M4536 8844 c10 -8 13 -13 6 -9 -7 4 -20 1 -29 -7 -15 -11 -16 -11
-10 5 3 9 2 17 -3 17 -6 0 -10 -16 -10 -35 0 -21 -5 -35 -12 -35 -24 0 7 -18
62 -35 147 -47 267 -120 371 -225 89 -90 129 -173 129 -269 0 -38 -6 -84 -14
-102 -7 -19 -17 -43 -21 -54 -5 -11 -9 -22 -9 -25 -9 -35 -103 -147 -119 -142
-5 1 -6 -1 -3 -6 6 -11 -40 -53 -48 -45 -3 4 -6 0 -6 -7 0 -7 -3 -10 -7 -7 -3
4 -11 1 -17 -7 -21 -27 -246 -136 -246 -119 0 3 -6 0 -14 -6 -8 -7 -27 -14
-43 -17 -15 -2 -39 -9 -53 -14 -65 -24 -262 -53 -372 -54 -32 0 -58 -4 -58 -9
0 -4 -5 -5 -11 -1 -7 4 -46 8 -88 10 -42 2 -103 6 -136 9 -33 4 -72 7 -87 8
-16 1 -28 5 -28 8 0 3 -16 5 -35 4 -19 -1 -35 2 -35 6 0 5 -18 9 -39 9 -22 0
-42 4 -45 9 -3 4 -16 8 -28 7 -13 -1 -29 5 -37 12 -7 7 -20 11 -27 8 -7 -3
-16 -1 -20 5 -3 6 -12 8 -20 5 -7 -3 -16 -1 -19 5 -4 5 -10 7 -15 4 -5 -3 -15
2 -24 11 -9 8 -21 12 -27 8 -7 -4 -9 -3 -6 3 4 6 0 14 -9 17 -10 4 -13 2 -9
-7 4 -6 0 -4 -8 5 -10 13 -16 15 -25 6 -9 -9 -12 -7 -12 8 0 13 -3 15 -8 6 -6
-9 -14 -7 -31 9 -22 20 -23 20 -37 3 -9 -11 -12 -13 -8 -5 4 9 3 12 -4 7 -6
-4 -9 -13 -6 -21 4 -8 11 -12 18 -8 7 4 7 2 -1 -8 -10 -12 -10 -18 0 -29 10
-12 9 -12 -5 -1 -10 7 -16 17 -13 21 3 5 0 12 -7 16 -7 4 -10 4 -6 -1 4 -4 3
-14 -2 -20 -7 -9 -6 -16 5 -25 20 -17 19 -31 -2 -23 -12 4 -15 3 -8 -4 6 -6
51 -18 100 -27 109 -20 288 -78 370 -118 123 -62 239 -161 301 -259 20 -33 64
-149 64 -171 0 -5 -5 -6 -11 -2 -7 4 -6 -3 2 -17 15 -28 20 -49 11 -48 -20 3
-25 -2 -12 -11 8 -5 10 -10 3 -10 -6 0 -9 -8 -6 -18 9 -36 -94 -221 -132 -236
-9 -3 -13 -11 -9 -17 4 -7 3 -9 -4 -6 -5 4 -22 -7 -36 -24 -14 -17 -26 -27
-26 -22 -1 4 -9 -1 -18 -12 -10 -11 -33 -29 -52 -39 -19 -11 -40 -25 -46 -31
-16 -16 -218 -95 -284 -112 -30 -7 -62 -15 -71 -17 -24 -6 -90 -17 -120 -21
-15 -1 -32 -5 -38 -9 -6 -4 -11 -2 -11 5 0 8 -4 8 -12 1 -16 -12 -98 -21 -98
-10 0 4 -12 3 -27 -3 -14 -5 -32 -8 -40 -5 -7 3 -13 2 -13 -2 0 -4 -22 -7 -49
-7 -29 -1 -47 3 -44 9 4 5 1 6 -7 1 -15 -9 -98 -11 -107 -2 -3 3 -16 2 -29 -3
-13 -5 -24 -6 -24 -1 0 8 -21 11 -73 12 -11 0 -15 5 -10 12 5 9 3 9 -8 0 -9
-7 -20 -8 -28 -3 -8 4 -21 6 -29 2 -10 -3 -13 -1 -8 7 9 14 -16 11 -26 -4 -5
-6 -8 -5 -8 3 0 7 -4 10 -10 7 -5 -3 -10 -2 -10 3 0 5 -13 8 -30 7 -17 -1 -27
2 -23 8 4 6 0 8 -10 4 -10 -4 -17 -1 -17 6 0 9 -2 9 -9 -1 -6 -10 -10 -10 -21
3 -7 9 -21 13 -31 10 -9 -3 -21 0 -25 6 -5 8 -3 9 6 4 9 -6 11 -4 5 4 -5 9
-11 9 -17 3 -7 -7 -17 -4 -31 9 -16 14 -23 16 -29 7 -7 -12 -12 -4 -9 14 0 4
-6 5 -14 2 -8 -4 -15 -1 -15 6 0 9 -3 10 -14 1 -11 -9 -15 -8 -20 5 -3 9 -12
14 -20 11 -20 -8 -28 4 -13 21 8 11 2 9 -18 -4 -26 -16 -28 -16 -16 -1 17 21
8 22 -13 1 -18 -17 -22 -39 -6 -29 6 3 10 1 10 -4 0 -6 -6 -11 -12 -11 -7 0
-5 -5 5 -11 9 -5 17 -15 17 -22 0 -8 -3 -8 -8 -2 -11 16 -29 15 -29 -1 0 -8
10 -14 21 -14 17 0 18 -2 6 -9 -8 -6 -18 -7 -22 -5 -4 3 -8 1 -8 -4 0 -16 12
-21 29 -12 10 5 23 5 32 -1 12 -7 12 -9 -1 -10 -8 -1 -22 0 -29 1 -12 1 -13
-1 -2 -13 10 -13 8 -16 -16 -19 -19 -2 4 -12 76 -31 115 -30 231 -77 319 -129
64 -37 222 -188 222 -212 0 -8 11 -32 25 -52 14 -21 24 -43 21 -50 -3 -7 0
-15 7 -18 9 -3 9 -5 0 -5 -14 -1 -18 -31 -5 -31 11 0 7 -142 -5 -165 -6 -11
-12 -24 -13 -30 -1 -5 -6 -21 -11 -35 -14 -36 -16 -44 -19 -55 -1 -5 -5 -12
-9 -15 -3 -3 -19 -22 -34 -43 -33 -43 -107 -117 -119 -117 -4 0 -5 -8 -1 -17
3 -10 3 -15 -2 -11 -4 4 -14 0 -22 -10 -8 -9 -12 -11 -8 -4 9 18 -10 15 -26
-5 -12 -14 -12 -16 1 -9 8 4 4 -1 -9 -12 -13 -10 -34 -18 -47 -16 -13 1 -27
-3 -31 -8 -3 -7 -1 -8 5 -4 7 4 12 1 12 -9 0 -12 -4 -14 -19 -6 -14 8 -23 6
-36 -9 -10 -11 -22 -17 -26 -14 -5 3 -12 -1 -15 -10 -3 -8 -12 -12 -20 -9 -8
3 -14 0 -14 -6 0 -6 -7 -8 -15 -5 -18 7 -20 -12 -2 -20 6 -3 3 -4 -8 -3 -11 1
-23 7 -27 12 -4 6 -8 0 -8 -13 0 -13 -4 -20 -10 -17 -6 4 -8 11 -5 16 4 5 1 9
-6 9 -7 0 -9 -9 -6 -22 6 -20 5 -20 -10 -5 -15 15 -19 14 -45 -8 -32 -27 -44
-30 -53 -15 -3 5 0 7 8 4 8 -3 20 3 28 13 13 16 12 17 -2 5 -9 -7 -21 -12 -25
-11 -5 1 -16 -1 -24 -4 -8 -3 -62 -13 -120 -22 -58 -10 -116 -19 -130 -21 -55
-10 -81 -10 -87 -1 -3 6 -12 2 -19 -8 -11 -15 -16 -16 -30 -4 -21 17 -44 20
-38 5 6 -15 -62 -12 -81 4 -9 7 -16 6 -24 -4 -9 -11 -19 -13 -37 -5 -17 6 -23
6 -19 -1 3 -6 1 -10 -4 -10 -6 0 -11 5 -11 10 0 18 -20 11 -21 -7 0 -10 -3
-13 -5 -6 -3 7 -12 9 -21 6 -11 -4 -14 -2 -9 5 10 16 -16 15 -33 0 -11 -10
-13 -10 -7 0 9 15 -25 17 -41 1 -8 -8 -17 -8 -33 1 -12 6 -28 9 -36 6 -12 -5
-14 -1 -9 17 6 21 6 21 -9 3 -9 -11 -16 -15 -16 -9 0 16 -28 24 -36 11 -4 -6
-3 -8 4 -4 6 3 13 2 17 -4 3 -5 -1 -10 -10 -10 -9 0 -19 9 -22 21 -4 16 -8 18
-14 7 -7 -11 -11 -10 -19 2 -9 13 -10 13 -11 0 -1 -8 -1 -18 0 -22 0 -3 -14
-2 -31 3 -37 10 -48 5 -20 -10 11 -6 22 -8 25 -5 3 3 4 -2 2 -13 -1 -10 -8
-17 -15 -15 -23 5 -47 -8 -58 -33 -6 -14 -7 -25 -2 -25 5 0 12 9 15 21 9 26
15 20 22 -23 3 -18 9 -42 15 -53 8 -18 8 -19 -5 -3 -8 10 -16 15 -19 12 -3 -2
-3 7 -1 21 3 15 1 25 -6 25 -7 0 -9 -4 -6 -10 3 -5 3 -16 -2 -22 -4 -7 -9 -21
-10 -32 -3 -15 0 -16 10 -7 24 19 27 -1 5 -31 -16 -24 -18 -32 -8 -41 10 -9
11 -9 6 0 -9 16 58 87 76 80 11 -4 11 -6 0 -6 -7 -1 -10 -6 -7 -11 4 -6 3 -10
-2 -9 -19 3 -31 -2 -37 -17 -6 -15 -4 -15 11 -3 9 8 14 9 10 2 -4 -7 0 -13 10
-16 13 -3 11 -5 -7 -7 -14 -1 -28 -2 -32 -1 -5 0 -8 -4 -8 -9 0 -6 11 -8 27
-4 23 6 25 5 20 -15 -4 -17 -2 -21 9 -17 8 3 13 2 10 -3 -9 -14 55 -22 71 -10
11 10 12 8 7 -6 -5 -13 -4 -16 4 -11 7 4 12 2 12 -3 0 -6 -8 -11 -17 -10 -25
0 -142 47 -120 48 9 1 17 6 17 11 0 7 -6 7 -19 0 -25 -13 -85 12 -179 73 -126
83 -219 185 -258 285 -12 30 -13 31 -9 8 15 -71 110 -190 218 -272 140 -105
364 -186 590 -214 140 -18 423 -8 549 19 196 42 390 119 527 208 31 21 87 68
125 107 l69 69 -6 -79 c-4 -58 -3 -68 3 -39 5 22 9 60 8 85 -1 30 7 61 24 95
38 74 58 151 57 214 -2 55 -2 55 -9 16 -6 -35 -7 -36 -8 -10 -2 38 8 75 19 75
5 0 9 -7 9 -15 0 -8 6 -16 13 -17 6 0 17 -2 22 -3 6 -2 26 -3 46 -4 l37 -1 7
-72 c9 -89 36 -181 68 -228 13 -19 24 -51 25 -69 3 -43 12 -55 12 -16 l0 29
43 -41 c127 -122 341 -230 550 -278 492 -113 1048 -2 1328 264 l61 58 -7 -56
c-4 -31 -17 -87 -29 -124 -13 -37 -19 -64 -15 -60 17 17 50 130 55 188 4 40
17 82 39 125 33 64 55 152 55 218 l0 34 63 -4 62 -4 6 -80 c7 -97 21 -141 66
-217 26 -43 36 -72 39 -115 2 -31 8 -70 14 -87 10 -30 10 -30 5 6 -3 20 -8 58
-10 84 -5 48 -5 48 15 30 22 -20 28 -8 8 15 -11 12 -10 12 5 0 10 -7 16 -19
13 -25 -2 -7 14 -30 37 -52 122 -117 348 -221 602 -278 98 -22 419 -31 538
-16 226 30 457 111 603 212 42 29 167 143 129 118 -17 -11 -18 -11 -8 1 7 8
20 15 28 16 12 2 14 -6 9 -39 -2 -23 -9 -57 -14 -76 -5 -19 -8 -37 -5 -39 6
-7 27 79 30 125 2 27 14 61 33 90 43 68 63 136 69 228 l6 81 64 -4 c46 -3 68
-1 73 8 4 7 6 -7 3 -31 -7 -64 12 -155 49 -229 39 -77 152 -196 247 -260 403
-270 1078 -313 1511 -95 112 55 172 99 248 179 76 80 122 162 128 228 l3 43
-9 -41 c-36 -168 -219 -344 -450 -433 -89 -35 -160 -52 -92 -23 24 10 48 25
53 33 7 11 9 11 9 1 0 -10 4 -9 16 3 9 8 13 22 10 31 -3 8 -2 12 4 9 6 -3 10
-13 10 -21 0 -17 16 -19 26 -2 4 6 3 8 -3 5 -5 -3 -10 0 -10 8 0 10 5 11 18 4
29 -15 32 -10 7 14 -13 12 -19 19 -14 15 22 -17 38 -8 33 19 -2 16 -2 23 0 16
2 -7 11 -9 18 -6 12 4 12 7 0 20 -9 8 -13 18 -10 23 3 5 -1 11 -7 14 -7 3 -2
3 11 0 21 -6 22 -4 10 9 -8 8 -17 13 -21 10 -5 -2 -8 1 -8 6 0 16 15 13 41 -8
l24 -20 -24 -9 c-15 -5 -20 -11 -13 -16 6 -3 13 -2 17 4 4 7 13 7 28 -1 19 -8
20 -8 7 3 -8 7 -16 22 -18 33 -2 18 -1 18 16 -4 14 -18 21 -21 27 -11 5 8 4
11 -2 7 -6 -4 -14 0 -17 9 -4 11 -2 15 7 11 7 -3 19 5 27 16 11 19 11 20 -1
10 -22 -18 -79 -26 -75 -11 1 7 1 10 -1 6 -6 -11 -39 8 -46 26 -3 8 1 17 9 20
12 5 14 1 8 -16 -5 -17 -3 -20 11 -15 9 4 22 7 27 7 6 0 8 3 5 7 -4 3 3 11 15
17 12 6 22 16 23 21 1 6 0 7 -2 3 -3 -5 -10 -8 -16 -8 -6 0 -19 -7 -29 -17
-10 -9 -18 -11 -18 -5 0 6 5 14 10 17 6 3 10 11 10 17 0 7 -4 7 -12 0 -8 -5
-22 -6 -33 -1 -11 4 -15 8 -10 9 54 7 65 7 65 -1 0 -5 5 -9 10 -9 6 0 10 7 10
16 0 8 4 13 8 10 4 -2 14 0 22 5 12 7 11 8 -5 6 -11 -1 -24 -5 -30 -9 -5 -3
-23 0 -40 7 l-30 14 32 -5 c25 -3 31 -1 27 10 -8 20 28 25 43 6 6 -8 15 -11
19 -7 5 4 2 12 -6 17 -14 9 -6 15 14 11 5 -1 4 4 -3 12 -9 12 -8 16 5 21 9 4
14 9 11 13 -4 3 -2 12 4 19 18 21 2 35 -26 22 -13 -6 -22 -14 -20 -19 3 -4 -1
-9 -7 -12 -10 -3 -8 -9 5 -24 9 -11 14 -23 11 -26 -4 -4 -13 1 -21 11 -12 16
-13 16 -7 0 3 -10 2 -18 -4 -18 -16 0 -22 26 -9 40 9 9 6 9 -13 0 -14 -8 -26
-11 -27 -9 -1 2 -5 0 -10 -5 -4 -5 -3 -6 3 -3 15 8 38 -18 29 -33 -3 -5 -14
-9 -23 -9 -15 1 -15 2 1 6 9 2 17 8 17 12 0 11 -33 10 -47 -2 -9 -6 -13 -6
-13 2 0 6 5 11 10 11 6 0 10 5 10 10 0 6 -10 4 -22 -4 -20 -13 -96 -37 -168
-53 -14 -3 -28 -11 -32 -16 -6 -9 -33 -13 -160 -20 -25 -2 -52 -8 -60 -13 -7
-5 -40 -9 -73 -8 -33 1 -66 -3 -74 -10 -11 -8 -13 -8 -8 0 5 8 -6 11 -36 9
-23 -1 -48 3 -56 9 -12 9 -13 8 -6 -4 7 -12 6 -13 -6 -3 -8 7 -20 8 -28 4 -7
-5 -25 -6 -39 -4 -15 2 -46 4 -69 4 -26 0 -43 5 -43 12 0 8 -3 8 -8 2 -4 -5
-21 -10 -39 -11 -25 0 -30 3 -21 13 8 10 7 13 -5 13 -8 0 -18 -6 -20 -12 -4
-10 -6 -10 -6 0 -1 6 -6 12 -12 12 -5 0 -7 -6 -3 -12 6 -10 5 -10 -8 -1 -8 7
-18 10 -21 7 -3 -3 -11 -2 -18 2 -14 8 -25 10 -99 17 -24 2 -46 10 -48 16 -3
9 -7 9 -17 1 -10 -9 -19 -6 -35 10 -11 11 -26 18 -32 14 -7 -5 -9 -2 -5 9 5
14 2 15 -18 7 -24 -9 -75 2 -75 15 0 4 5 3 11 -1 7 -4 10 -1 7 7 -3 8 -11 13
-17 12 -6 -2 -16 6 -23 16 -11 18 -13 18 -25 3 -12 -15 -12 -15 -6 2 4 14 3
17 -6 12 -8 -6 -11 -2 -9 10 2 12 -2 18 -11 16 -7 -2 -22 5 -32 14 -12 10 -19
13 -19 5 0 -6 11 -16 25 -23 13 -6 22 -15 19 -19 -3 -5 -17 2 -31 16 -15 13
-31 21 -37 18 -6 -4 -5 1 3 10 7 9 9 17 4 17 -6 0 -15 10 -22 23 -6 12 -9 14
-7 5 3 -10 1 -18 -4 -18 -9 0 -14 14 -11 32 0 4 -8 10 -19 13 -11 4 -17 11
-14 17 5 8 1 9 -10 5 -11 -4 -15 -3 -11 4 9 13 -25 50 -38 42 -5 -3 -7 -1 -3
5 3 6 2 13 -4 17 -6 4 -8 10 -6 14 3 4 0 13 -6 21 -8 12 -9 12 -4 -2 3 -10 1
-18 -4 -18 -10 0 -14 14 -11 39 2 7 -2 10 -8 7 -5 -4 -13 4 -17 16 -9 26 -9
27 -27 123 -8 42 -16 64 -20 55 -13 -27 3 82 19 139 29 97 57 143 134 221 151
151 381 249 655 280 100 12 159 31 68 23 -47 -5 -47 -4 -25 12 12 9 28 13 35
9 6 -4 9 -4 5 1 -4 4 -2 15 5 24 11 14 10 15 -7 1 -15 -12 -20 -12 -23 -2 -3
6 -8 10 -11 8 -4 -2 -7 8 -7 24 -1 20 3 26 13 22 10 -3 10 -7 2 -12 -7 -5 -6
-11 6 -21 16 -12 17 -12 11 4 -3 9 -2 17 4 17 6 0 3 7 -5 16 -20 19 -20 21 -1
21 8 0 15 -4 15 -9 0 -5 5 -6 11 -2 8 4 4 11 -11 19 -19 10 -26 9 -41 -4 -47
-40 -56 -47 -79 -58 -14 -7 -32 -17 -40 -23 -65 -42 -227 -98 -360 -124 -14
-2 -50 -10 -80 -16 -73 -15 -428 -22 -436 -8 -4 6 -10 5 -15 -3 -7 -12 -9 -12
-9 0 0 11 -3 11 -14 2 -10 -9 -20 -9 -34 -2 -10 5 -27 10 -38 10 -10 0 -39 5
-64 11 -25 6 -60 13 -77 15 -18 2 -42 9 -53 15 -11 6 -20 8 -20 4 0 -3 -7 -1
-15 6 -8 6 -19 9 -25 5 -5 -3 -10 1 -10 9 0 15 -16 20 -52 17 -9 -1 -19 3 -22
8 -4 6 -14 7 -23 4 -11 -5 -14 -3 -9 6 6 9 2 12 -10 10 -11 -2 -29 2 -40 9
-12 6 -24 9 -27 6 -3 -3 -11 3 -18 14 -7 11 -18 18 -24 16 -6 -3 -21 5 -33 16
-12 12 -27 18 -34 14 -7 -5 -8 -3 -3 6 6 10 4 12 -8 7 -11 -4 -27 4 -46 23
-16 17 -32 30 -36 30 -3 0 -22 17 -43 37 -20 20 -30 33 -22 29 10 -6 10 -3 -2
10 -43 47 -66 83 -83 131 -10 29 -23 49 -28 46 -7 -4 -8 20 -4 68 6 65 15 105
41 184 4 11 -2 4 -12 -15 -11 -19 -25 -62 -32 -95 -15 -72 -15 -268 0 -273 5
-2 10 -13 9 -25 0 -21 -1 -21 -9 -2 -8 19 -9 19 -9 -2 -1 -13 4 -23 10 -23 7
0 9 -12 5 -32 -3 -18 1 -62 8 -98 8 -36 12 -67 11 -69 -7 -7 -28 86 -29 131 0
27 -5 48 -10 48 -13 0 0 -122 18 -163 13 -32 18 -35 72 -41 122 -15 303 -70
419 -129 97 -48 175 -105 251 -183 59 -60 78 -87 108 -160 20 -48 34 -94 31
-101 -2 -8 0 -11 5 -8 6 4 10 -6 10 -22 0 -16 -4 -23 -8 -16 -4 6 -7 -14 -8
-45 0 -32 -3 -68 -7 -82 -3 -14 -6 -30 -6 -37 -1 -6 -8 -18 -16 -27 -9 -8 -16
-19 -16 -23 1 -18 -25 -63 -35 -63 -14 0 -29 -30 -33 -62 -1 -9 -4 -9 -11 2
-7 12 -10 11 -16 -5 -9 -24 -44 -71 -44 -60 0 5 8 18 18 29 13 15 10 14 -15
-4 -30 -24 -47 -50 -21 -34 7 4 8 3 4 -5 -4 -6 -15 -10 -24 -9 -10 2 -16 -3
-14 -11 2 -8 -3 -11 -11 -8 -14 5 -16 0 -20 -47 -3 -31 -17 -23 -17 10 0 15
-4 23 -10 19 -6 -4 -7 -11 -4 -17 4 -6 1 -9 -7 -6 -8 3 -27 -4 -44 -16 -16
-11 -32 -21 -35 -22 -3 0 -13 -4 -23 -9 -14 -6 -15 -10 -6 -21 10 -12 9 -13
-5 -8 -9 3 -16 10 -16 16 0 5 -5 6 -10 3 -6 -4 -7 -11 -4 -17 4 -6 -1 -8 -16
-3 -17 6 -21 4 -14 -6 6 -10 3 -10 -11 1 -15 12 -17 12 -10 1 6 -11 4 -13 -8
-8 -10 4 -27 2 -40 -3 -12 -5 -35 -11 -50 -15 -15 -3 -26 -9 -23 -14 3 -4 -5
-7 -17 -6 -12 1 -33 -2 -47 -8 -14 -5 -35 -9 -48 -8 -13 0 -21 -3 -18 -7 2 -4
-4 -8 -14 -8 -10 0 -17 3 -14 7 2 4 -5 5 -16 2 -11 -3 -20 -10 -20 -15 0 -6
-7 -5 -15 2 -14 12 -20 7 -16 -14 1 -5 -5 -3 -15 4 -14 12 -18 12 -31 -5 -13
-17 -15 -17 -10 -2 6 17 -12 24 -27 10 -12 -12 -48 -14 -62 -2 -11 9 -14 8
-14 -1 0 -10 -3 -10 -15 0 -8 7 -15 8 -15 3 0 -11 -90 -11 -107 0 -9 6 -11 3
-6 -10 6 -16 5 -16 -10 -5 -9 8 -21 11 -26 8 -5 -4 -13 -2 -16 4 -5 8 -12 7
-22 -2 -19 -16 -16 -16 -36 1 -10 7 -17 9 -17 4 0 -12 -48 -5 -56 8 -3 5 -14
5 -25 -1 -12 -7 -19 -7 -19 -1 0 6 -7 7 -17 4 -10 -4 -14 -2 -10 4 7 11 -32
11 -50 0 -8 -5 -13 -4 -13 3 0 6 -14 9 -34 7 -24 -3 -33 0 -30 8 3 6 -2 12
-10 12 -8 0 -12 -6 -10 -12 3 -6 -2 -12 -10 -12 -8 0 -13 3 -11 7 2 3 0 12 -6
20 -5 9 -9 10 -9 3 0 -6 -9 -9 -20 -6 -11 3 -17 9 -14 14 3 5 0 9 -5 9 -6 0
-11 -5 -11 -11 0 -5 -5 -7 -11 -4 -6 4 -8 14 -4 24 5 13 4 14 -6 4 -16 -16
-33 -17 -23 -1 4 7 3 8 -4 4 -7 -4 -19 -3 -29 2 -12 7 -24 5 -40 -5 -21 -14
-23 -14 -17 1 3 9 11 16 17 16 6 0 7 3 4 6 -4 4 -12 2 -20 -4 -10 -8 -13 -6
-14 9 -1 12 3 17 9 13 6 -4 8 -3 5 4 -4 5 -17 8 -29 4 -14 -3 -19 -1 -14 6 3
6 1 14 -5 18 -7 4 -9 3 -6 -3 4 -6 0 -14 -9 -17 -12 -5 -15 -2 -12 12 4 15 0
18 -18 16 -13 -1 -22 2 -18 7 3 5 -1 9 -9 9 -8 0 -21 8 -28 17 -12 15 -12 16
1 8 13 -8 13 -7 0 9 -9 12 -16 14 -18 7 -4 -11 -16 0 -74 65 -10 10 -26 28
-37 38 -11 10 -18 24 -14 30 3 6 2 8 -2 3 -11 -9 -46 43 -38 56 3 6 1 7 -5 3
-11 -7 -17 6 -13 28 1 5 -4 13 -11 17 -10 7 -10 9 1 9 11 0 9 4 -5 14 -10 8
-16 17 -12 21 8 8 -11 65 -21 65 -11 0 5 119 24 175 9 28 26 66 36 85 19 35
19 35 0 12 -27 -31 -58 -116 -72 -196 l-11 -66 -59 0 -59 0 0 60 c0 89 -24
181 -67 261 -2 3 18 2 44 -2 26 -4 89 -8 139 -8 l92 -1 89 88 c159 157 388
259 651 292 165 21 150 14 182 83 16 33 32 86 36 118 l6 56 37 -8 c20 -4 69
-12 109 -17 84 -10 82 -12 82 88 l0 68 -72 6 c-40 4 -90 9 -110 12 l-38 6 6
86 c4 61 2 106 -9 152 -9 36 -14 66 -13 67 1 1 70 -1 154 -5 l151 -7 51 68
c31 41 81 90 128 125 187 138 375 203 687 238 77 8 87 17 14 12 -58 -3 -64 3
-36 40 7 9 6 17 -2 25 -10 9 -11 8 -6 -8 6 -16 5 -17 -4 -5 -6 9 -7 18 -1 24
21 21 2 31 -26 14 -6 -4 -11 -1 -11 7 0 8 4 12 9 9 4 -3 11 2 14 10 3 9 15 16
26 16 12 0 17 -4 12 -12 -4 -7 -3 -8 5 -4 14 9 5 26 -15 26 -8 0 -14 10 -14
23 0 18 2 19 10 7 9 -14 11 -13 14 10 0 6 8 15 16 20 8 5 11 10 6 10 -6 0 -1
8 10 19 35 34 56 63 71 98 8 19 10 32 4 29 -5 -3 -11 -1 -13 6 -3 7 -7 5 -11
-6 -4 -10 -3 -15 3 -11 18 11 10 -15 -12 -41 -101 -115 -175 -176 -278 -228
-41 -21 -219 -84 -258 -91 -15 -3 -38 -7 -52 -10 -141 -28 -400 -51 -400 -34
0 3 -22 3 -49 -1 -28 -3 -48 -3 -45 2 3 4 -10 8 -28 8 -61 1 -153 12 -169 21
-10 5 -20 4 -27 -3 -8 -8 -12 -8 -12 -1 0 11 -40 23 -129 37 -19 3 -37 9 -40
13 -3 4 -13 9 -21 10 -40 5 -74 15 -96 29 -13 9 -30 14 -38 11 -11 -4 -13 -1
-9 10 4 10 2 14 -4 10 -15 -10 -94 27 -130 60 -7 6 -22 15 -33 18 -11 3 -20
11 -20 16 0 5 -5 9 -11 9 -13 0 -99 87 -99 101 0 5 -5 9 -11 9 -5 0 -7 5 -4
10 3 6 1 10 -4 10 -6 0 -11 -3 -11 -6 0 -14 33 -74 40 -74 5 0 7 -12 4 -26 -3
-14 -1 -23 4 -20 5 3 9 -1 9 -9 0 -8 -4 -12 -9 -9 -5 3 -7 -6 -4 -20 3 -14 0
-26 -5 -26 -14 0 -11 -38 4 -43 6 -3 -4 -6 -23 -7 -26 -1 -9 -8 70 -30 232
-62 389 -147 507 -274 130 -138 150 -218 109 -431 -7 -33 -18 -55 -28 -55 -5
0 -7 -4 -4 -9 4 -5 3 -11 -1 -13 -5 -1 -27 -29 -51 -60 -44 -57 -108 -118
-124 -118 -5 0 -6 -5 -2 -12 4 -6 3 -8 -3 -5 -6 4 -20 -2 -33 -13 -29 -25
-189 -108 -221 -113 -13 -3 -35 -9 -49 -15 -129 -50 -303 -77 -502 -76 -66 0
-118 -4 -118 -9 0 -5 -6 -4 -13 2 -8 6 -17 8 -20 4 -4 -3 -7 -1 -7 5 0 7 -10
8 -29 2 -16 -4 -32 -6 -35 -2 -4 3 -25 6 -49 7 -23 0 -48 4 -56 9 -7 5 -33 8
-57 8 -24 -1 -46 3 -49 7 -3 5 -14 7 -25 4 -11 -3 -20 -1 -20 5 0 12 -26 21
-110 36 -16 3 -41 12 -80 29 -14 6 -29 10 -34 8 -5 -1 -17 6 -27 15 -11 9 -19
13 -19 9 0 -4 -9 2 -20 15 -13 15 -20 18 -20 9 -1 -10 -4 -9 -11 4 -5 9 -14
17 -20 17 -17 0 -109 66 -102 73 3 4 1 7 -4 7 -33 0 -153 165 -153 210 0 10
-4 22 -10 25 -5 3 -10 33 -10 65 0 51 12 102 54 225 4 11 -2 4 -13 -16 -35
-63 -63 -193 -59 -267 3 -37 1 -78 -3 -92 -6 -19 -8 -13 -6 23 l2 47 -46 0
-46 0 -6 103 c-5 90 -20 165 -42 219 -6 16 2 17 107 11 l113 -6 29 42 c41 58
152 160 219 199 142 85 338 151 512 173 l96 12 19 38 c26 49 42 194 44 386 1
146 2 152 21 148 48 -11 221 -25 298 -25 l83 0 26 53 c99 201 388 370 723 422
61 9 128 20 150 25 37 7 37 8 9 9 -20 1 -31 6 -31 16 0 8 4 15 9 15 4 0 8 7 8
16 0 14 -3 14 -15 4 -13 -11 -14 -10 -9 5 4 10 1 21 -7 26 -10 6 -10 9 -1 9 6
0 12 5 12 11 0 5 -4 7 -10 4 -6 -3 -7 1 -4 9 8 20 -10 21 -26 1 -24 -29 -167
-113 -240 -140 -41 -16 -75 -28 -75 -27 0 1 -22 -4 -50 -12 -27 -8 -61 -17
-75 -19 -14 -2 -32 -7 -40 -10 -19 -8 -175 -24 -258 -27 -8 0 -10 -5 -6 -12 6
-10 5 -10 -7 -2 -8 7 -34 11 -59 9 -26 -2 -48 2 -52 9 -4 6 -8 6 -8 1 0 -10
-57 -10 -140 -1 -25 3 -65 8 -90 11 -53 5 -70 9 -130 25 -25 7 -55 12 -67 12
-13 0 -23 4 -23 9 0 5 -7 6 -15 3 -8 -4 -22 -1 -30 6 -8 6 -19 9 -25 5 -5 -3
-10 -1 -10 6 0 7 -3 9 -6 6 -4 -3 -14 -2 -24 3 -9 5 -29 11 -44 14 -16 3 -39
12 -53 22 -14 9 -22 11 -18 4 10 -16 -37 11 -48 27 -4 7 -13 10 -21 7 -7 -3
-19 2 -26 11 -7 8 -18 15 -25 15 -7 0 -16 7 -19 16 -4 9 -13 14 -21 10 -8 -3
-15 0 -15 6 0 6 -3 9 -6 5 -4 -3 -13 0 -21 8 -8 8 -19 15 -26 15 -6 0 -2 -7 9
-16z m509 -906 c-7 -128 -23 -209 -50 -243 -10 -13 -8 -4 5 27 14 32 23 80 27
145 3 54 7 109 8 123 1 14 3 35 4 48 0 12 4 22 7 22 3 0 2 -55 -1 -122z m2315
-298 c0 -5 -5 -10 -11 -10 -5 0 -7 5 -4 10 3 6 8 10 11 10 2 0 4 -4 4 -10z
m-3383 -797 c-2 -16 -4 -5 -4 22 0 28 2 40 4 28 2 -13 2 -35 0 -50z m47 -5
c-3 -4 -11 -5 -19 -1 -21 7 -19 12 4 10 11 0 18 -5 15 -9z m-44 -79 c0 -11 -4
-18 -10 -14 -5 3 -7 12 -3 20 7 21 13 19 13 -6z m37 5 c-3 -3 -12 -4 -19 -1
-8 3 -5 6 6 6 11 1 17 -2 13 -5z m63 -82 c0 -75 25 -151 54 -161 11 -5 53 -11
91 -15 246 -22 542 -156 678 -306 56 -63 123 -183 111 -202 -5 -7 -2 -8 6 -3
10 6 12 4 7 -8 -3 -10 -2 -17 4 -17 6 0 7 -5 4 -10 -4 -6 -1 -18 7 -27 7 -9 9
-14 3 -11 -6 4 -10 -30 -11 -94 0 -71 -4 -102 -13 -108 -8 -4 -10 -13 -6 -20
5 -9 4 -11 -3 -6 -11 6 -16 -6 -13 -26 0 -5 -7 -8 -17 -9 -10 0 -12 -3 -4 -6
6 -2 12 -9 12 -15 0 -6 -7 -7 -15 -4 -11 4 -15 0 -13 -12 2 -9 -2 -16 -9 -15
-8 2 -10 -4 -6 -14 5 -13 2 -15 -11 -10 -10 4 -15 3 -11 -3 3 -6 1 -10 -5 -10
-6 0 -9 -3 -7 -7 3 -5 -5 -17 -16 -28 -11 -11 -16 -14 -12 -6 6 10 4 12 -4 7
-7 -5 -10 -15 -7 -23 5 -11 2 -13 -10 -9 -15 6 -15 4 -3 -11 11 -13 11 -15 1
-9 -8 5 -18 1 -27 -10 -7 -11 -22 -19 -32 -19 -10 0 -18 -7 -18 -15 -1 -8 -7
-14 -14 -12 -8 2 -11 -3 -8 -12 4 -10 1 -13 -9 -9 -7 3 -14 0 -14 -7 0 -6 -5
-8 -11 -5 -6 4 -17 -2 -25 -14 -8 -12 -21 -21 -29 -21 -7 0 -15 -3 -18 -7 -2
-5 -2 -2 -1 5 2 8 -5 6 -20 -5 -13 -10 -22 -21 -20 -24 2 -3 -3 -6 -11 -6 -8
0 -12 4 -9 9 3 4 3 8 0 8 -11 0 -56 -24 -56 -29 0 -4 -10 -7 -22 -8 -11 -1
-25 -8 -29 -15 -5 -7 -9 -8 -9 -3 0 6 -5 3 -10 -5 -6 -9 -10 -10 -10 -3 0 13
-53 -1 -79 -21 -12 -9 -13 -8 -6 3 6 11 4 13 -9 8 -10 -4 -22 -7 -27 -7 -6 0
-7 -5 -3 -11 5 -8 1 -8 -13 0 -12 6 -24 6 -29 1 -5 -5 -41 -10 -79 -12 -39 -2
-75 -7 -81 -11 -6 -3 -21 -5 -32 -2 -12 2 -24 -1 -27 -6 -4 -5 -12 -6 -18 -2
-21 13 -47 13 -47 0 0 -7 -3 -8 -8 -2 -8 11 -63 15 -56 4 6 -10 -48 -5 -65 5
-9 6 -12 5 -7 -2 5 -8 -5 -10 -29 -7 -23 3 -34 1 -30 -5 3 -6 -1 -7 -9 -4 -9
3 -14 9 -11 13 2 4 -10 7 -26 6 -17 -1 -35 -8 -40 -16 -7 -11 -9 -10 -9 4 0
15 -7 18 -35 15 -24 -2 -39 3 -45 12 -8 13 -10 13 -10 1 0 -8 -3 -11 -7 -8 -3
4 -18 0 -32 -10 -22 -14 -24 -14 -13 -1 11 14 9 17 -18 23 -16 4 -28 10 -25
15 3 4 -11 6 -31 3 -20 -3 -34 -1 -31 4 3 4 -9 9 -25 9 l-31 1 24 -13 c13 -7
19 -13 14 -14 -6 0 -21 7 -33 16 -12 8 -28 12 -35 8 -7 -5 -6 0 3 11 14 17 13
17 -9 10 -18 -5 -22 -4 -15 6 6 11 4 11 -10 0 -9 -8 -16 -10 -15 -5 4 20 -2
24 -20 14 -13 -7 -22 -7 -26 0 -3 5 0 10 7 10 10 0 10 2 -1 9 -8 5 -23 8 -33
6 -10 -2 -18 0 -18 4 0 4 -18 15 -40 25 -22 10 -40 22 -40 27 0 5 -10 14 -22
19 -36 14 -79 46 -72 53 3 3 -6 18 -20 32 -14 14 -26 23 -26 20 0 -11 -35 28
-35 39 -1 6 -5 10 -11 9 -5 -1 -11 7 -11 18 -1 10 -11 32 -22 48 -12 16 -21
34 -21 40 0 6 -4 11 -9 11 -5 0 -8 13 -7 29 1 17 -1 28 -5 25 -4 -2 -10 3 -13
12 -4 10 -2 13 7 8 8 -5 8 -2 -2 9 -21 26 -3 152 36 251 13 33 18 55 13 50
-21 -21 -61 -157 -67 -225 l-6 -70 -61 3 -60 3 -12 75 c-13 84 -45 176 -74
213 l-19 24 153 -4 153 -4 28 43 c84 126 256 243 465 313 128 43 173 53 336
74 l139 17 17 45 c9 24 17 65 17 92 l1 47 56 0 c46 0 55 3 50 15 -3 8 -1 15 4
15 6 0 10 -26 10 -58z m-2018 -84 c-7 -7 -12 -8 -12 -2 0 14 12 26 19 19 2 -3
-1 -11 -7 -17z m25 -134 c-3 -3 -12 -4 -19 -1 -8 3 -5 6 6 6 11 1 17 -2 13 -5z
m5520 -518 c2 -1 -7 -27 -18 -57 -14 -34 -23 -87 -27 -146 l-5 -93 -68 0 -68
0 0 83 c0 82 -21 188 -43 215 -10 12 6 13 108 7 65 -4 120 -8 121 -9z m-5087
-455 c0 -5 -7 -12 -16 -15 -14 -5 -15 -4 -4 9 14 17 20 19 20 6z m387 -23 c-3
-8 -6 -5 -6 6 -1 11 2 17 5 13 3 -3 4 -12 1 -19z m4861 -73 c-3 -3 -9 2 -12
12 -6 14 -5 15 5 6 7 -7 10 -15 7 -18z m-191 -17 c-3 -8 -6 -5 -6 6 -1 11 2
17 5 13 3 -3 4 -12 1 -19z m-4338 -51 c0 -9 -2 -8 -6 1 -2 6 -10 9 -15 6 -7
-4 -8 -2 -4 5 9 13 26 5 25 -12z m3819 -27 c-15 -24 -35 -33 -43 -19 -4 5 -1
8 7 7 7 -2 12 3 10 10 -1 8 2 11 7 8 5 -4 12 -2 16 4 3 5 8 10 11 10 2 0 -1
-9 -8 -20z m2432 16 c0 -2 -8 -10 -17 -17 -16 -13 -17 -12 -4 4 13 16 21 21
21 13z m-6167 -31 c-3 -9 -8 -14 -10 -11 -3 3 -2 9 2 15 9 16 15 13 8 -4z
m3782 6 c3 -5 2 -12 -3 -15 -5 -3 -9 1 -9 9 0 17 3 19 12 6z m-1645 -21 c6
-11 8 -20 6 -20 -3 0 -10 9 -16 20 -6 11 -8 20 -6 20 3 0 10 -9 16 -20z m1540
10 c0 -5 -5 -10 -11 -10 -5 0 -7 5 -4 10 3 6 8 10 11 10 2 0 4 -4 4 -10z
m-1440 -7 c0 -1 -13 -9 -30 -18 -17 -9 -30 -11 -30 -5 0 5 7 10 16 10 8 0 13
4 10 8 -2 4 4 8 15 8 10 0 19 -1 19 -3z m3920 3 c0 -2 -7 -6 -15 -10 -8 -3
-15 -1 -15 4 0 6 7 10 15 10 8 0 15 -2 15 -4z m-4190 -46 c6 -11 8 -20 6 -20
-3 0 -10 9 -16 20 -6 11 -8 20 -6 20 3 0 10 -9 16 -20z m304 -5 c14 -21 14
-24 1 -19 -8 4 -15 12 -15 19 0 7 -6 16 -12 18 -8 4 -9 6 -2 6 7 1 19 -10 28
-24z m-39 5 c3 -6 -1 -7 -9 -4 -18 7 -21 14 -7 14 6 0 13 -4 16 -10z m115 -1
c0 -5 -4 -7 -10 -4 -5 3 -10 1 -10 -6 0 -7 -3 -10 -6 -6 -8 7 4 27 17 27 5 0
9 -5 9 -11z m1183 -4 c-3 -9 -8 -14 -10 -11 -3 3 -2 9 2 15 9 16 15 13 8 -4z
m-3690 -140 c30 -14 37 -14 62 -1 21 11 33 12 42 5 6 -6 18 -7 25 -3 10 5 10
4 1 -6 -10 -11 -15 -11 -28 0 -17 14 -21 0 -4 -17 8 -8 7 -13 -2 -18 -8 -5
-10 -4 -5 3 4 7 3 12 -3 12 -26 0 -19 -22 11 -34 22 -9 35 -11 39 -4 4 7 9 6
13 -1 4 -6 1 -11 -6 -11 -7 0 10 -11 37 -24 76 -37 46 -31 -38 8 -103 47 -202
115 -267 182 -54 57 -54 57 17 -8 39 -37 87 -74 106 -83z m-2043 114 c0 -6 -4
-7 -10 -4 -5 3 -10 11 -10 16 0 6 5 7 10 4 6 -3 10 -11 10 -16z m390 -10 c0
-6 -4 -7 -10 -4 -5 3 -10 11 -10 16 0 6 5 7 10 4 6 -3 10 -11 10 -16z m1864 5
c3 -8 2 -12 -4 -9 -6 3 -10 10 -10 16 0 14 7 11 14 -7z m2193 9 c-4 -3 -2 -12
5 -20 8 -11 7 -12 -6 -7 -9 3 -16 9 -16 13 0 9 11 21 18 21 3 0 2 -3 -1 -7z
m3710 1 c-3 -3 -12 -4 -19 -1 -8 3 -5 6 6 6 11 1 17 -2 13 -5z m60 -16 c2 -17
0 -19 -7 -8 -5 8 -6 18 -4 22 8 12 10 10 11 -14z m-8250 -10 c-3 -8 -6 -5 -6
6 -1 11 2 17 5 13 3 -3 4 -12 1 -19z m8128 12 c-3 -5 -11 -10 -16 -10 -6 0 -7
5 -4 10 3 6 11 10 16 10 6 0 7 -4 4 -10z m-5894 -17 c8 -9 9 -14 3 -10 -13 7
-38 -16 -28 -26 3 -3 -1 -4 -10 -3 -8 1 -19 6 -23 12 -4 5 -4 6 1 1 11 -9 48
22 40 34 -9 16 3 10 17 -8z m2284 -3 c3 -5 1 -10 -4 -10 -6 0 -11 5 -11 10 0
6 2 10 4 10 3 0 8 -4 11 -10z m-4567 -25 c-3 -3 -9 2 -12 12 -6 14 -5 15 5 6
7 -7 10 -15 7 -18z m6782 -114 c8 -8 -3 -1 -25 16 -22 17 -60 53 -85 79 -34
37 -29 34 25 -16 39 -35 77 -70 85 -79z m480 129 c0 -5 -5 -10 -11 -10 -5 0
-7 5 -4 10 3 6 8 10 11 10 2 0 4 -4 4 -10z m-2677 -15 c-3 -9 -8 -14 -10 -11
-3 3 -2 9 2 15 9 16 15 13 8 -4z m-4558 -25 c-16 -18 -14 -25 8 -21 4 0 7 -3
7 -8 0 -11 -31 -24 -38 -16 -3 3 0 5 7 5 7 0 9 5 6 10 -4 6 -12 7 -18 3 -13
-8 12 28 28 39 18 14 18 8 0 -12z m2128 5 c-3 -9 -8 -14 -10 -11 -3 3 -2 9 2
15 9 16 15 13 8 -4z m2230 -27 c5 1 6 -2 3 -7 -4 -5 -2 -12 4 -16 5 -3 10 -1
10 6 0 8 5 7 17 -2 14 -12 16 -12 11 2 -4 10 -1 16 8 16 12 0 12 -4 -1 -23
-15 -23 -14 -25 24 -49 42 -28 91 -42 91 -25 0 5 -5 10 -11 10 -5 0 -7 5 -3
11 5 8 10 6 16 -5 6 -11 6 -22 -1 -30 -9 -10 -8 -15 5 -20 27 -10 37 -7 25 8
-8 10 -9 16 -1 21 6 4 9 2 8 -4 -2 -5 6 -17 17 -26 11 -9 13 -14 5 -10 -8 4
-6 -1 4 -9 11 -9 29 -14 40 -10 16 4 17 3 7 -4 -11 -8 -9 -11 8 -17 13 -4 20
-9 18 -12 -9 -8 -170 72 -233 115 -72 50 -142 111 -104 91 14 -7 29 -12 33
-11z m-2203 2 c-8 -5 -19 -10 -25 -10 -5 0 -3 5 5 10 8 5 20 10 25 10 6 0 3
-5 -5 -10z m2394 1 c-3 -4 -9 -6 -12 -6 -4 0 -12 -3 -18 -7 -6 -4 -11 -1 -11
5 0 7 11 13 23 13 13 0 21 -2 18 -5z m1594 -29 c-56 -47 -75 -56 -28 -13 25
22 49 41 53 41 4 0 -7 -12 -25 -28z m2122 5 c0 -7 -4 -6 -10 3 -8 12 -10 12
-10 1 0 -8 -3 -12 -6 -8 -9 9 6 28 17 22 5 -4 9 -12 9 -18z m-3822 -1 c-7 -8
-15 -12 -17 -11 -5 6 10 25 20 25 5 0 4 -6 -3 -14z m-2085 -11 c-3 -9 -8 -14
-10 -11 -3 3 -2 9 2 15 9 16 15 13 8 -4z m5828 -18 c-10 -9 -11 -8 -5 6 3 10
9 15 12 12 3 -3 0 -11 -7 -18z m-5926 3 c3 -5 1 -10 -4 -10 -6 0 -11 5 -11 10
0 6 2 10 4 10 3 0 8 -4 11 -10z m2260 -5 c-11 -8 -25 -19 -31 -24 -7 -5 -15
-7 -18 -3 -4 3 8 14 26 24 40 21 50 22 23 3z m3726 -2 c13 -16 12 -17 -4 -4
-16 13 -19 12 -24 -8 -4 -16 -8 -19 -14 -10 -6 10 12 35 27 39 1 0 8 -8 15
-17z m-8187 -1 c2 -4 -4 -8 -14 -8 -10 0 -16 4 -14 8 3 4 9 8 14 8 5 0 11 -4
14 -8z m3581 -22 c-3 -5 -12 -10 -18 -10 -7 0 -6 4 3 10 19 12 23 12 15 0z
m970 -8 c-3 -3 -11 0 -18 7 -9 10 -8 11 6 5 10 -3 15 -9 12 -12z m1295 -7 c13
-14 21 -25 18 -25 -2 0 -15 11 -28 25 -13 14 -21 25 -18 25 2 0 15 -11 28 -25z
m80 21 c0 -2 -7 -7 -16 -10 -8 -3 -12 -2 -9 4 6 10 25 14 25 6z m-4714 -21
c-11 -8 -25 -15 -30 -15 -6 1 0 7 14 15 32 19 40 18 16 0z m4774 -5 c-36 -27
-120 -73 -126 -67 -3 2 10 12 28 20 18 9 51 28 73 41 48 30 60 33 25 6z m769
4 c5 3 11 0 14 -8 6 -14 122 -78 129 -71 2 2 14 -5 28 -15 14 -11 20 -20 13
-20 -6 0 -19 7 -27 16 -9 8 -16 13 -16 10 0 -9 -132 59 -155 80 -12 11 -15 15
-8 11 6 -5 16 -6 22 -3z m1461 10 c0 -8 -19 -13 -24 -6 -3 5 1 9 9 9 8 0 15
-2 15 -3z m-8213 -20 c-3 -3 -12 -4 -19 -1 -8 3 -5 6 6 6 11 1 17 -2 13 -5z
m3493 -14 c-19 -11 -42 -19 -50 -19 -8 0 3 8 25 18 52 25 70 26 25 1z m-2360
-10 c-8 -5 -19 -10 -25 -10 -5 0 -3 5 5 10 8 5 20 10 25 10 6 0 3 -5 -5 -10z
m-40 -10 c0 -5 -5 -10 -11 -10 -5 0 -7 5 -4 10 3 6 8 10 11 10 2 0 4 -4 4 -10z
m7063 -13 c-5 -8 -8 -8 -10 0 -3 7 -12 9 -21 6 -14 -4 -14 -3 -3 5 17 12 43 4
34 -11z m-5848 3 c13 -6 15 -9 5 -9 -8 0 -22 4 -30 9 -18 12 -2 12 25 0z m75
-24 c-6 -6 -18 -5 -32 1 -21 10 -21 10 9 9 19 -1 28 -5 23 -10z m3450 -10 c-7
-7 -13 -7 -20 0 -6 6 -3 10 10 10 13 0 16 -4 10 -10z m-4863 -2 c-3 -3 -12 -4
-19 -1 -8 3 -5 6 6 6 11 1 17 -2 13 -5z m2318 -3 c-11 -5 -36 -11 -55 -14 -35
-6 -34 -6 5 8 43 14 84 19 50 6z m4810 -1 c3 -5 1 -10 -4 -10 -6 0 -11 5 -11
10 0 6 2 10 4 10 3 0 8 -4 11 -10z m40 -8 c-3 -3 -11 0 -18 7 -9 10 -8 11 6 5
10 -3 15 -9 12 -12z m-5682 1 c-7 -2 -19 -2 -25 0 -7 3 -2 5 12 5 14 0 19 -2
13 -5z m3329 -6 c-14 -6 -26 -7 -32 -1 -5 5 4 9 23 10 30 1 30 1 9 -9z m-5627
-18 c34 -13 -6 -10 -60 6 l-50 15 45 -7 c25 -3 54 -9 65 -14z m705 5 c0 -2
-11 -3 -24 -2 -14 1 -23 5 -20 9 4 7 44 0 44 -7z m1643 9 c-7 -2 -19 -2 -25 0
-7 3 -2 5 12 5 14 0 19 -2 13 -5z m2165 -9 c37 -8 83 -26 79 -30 -5 -6 -137
36 -137 42 0 4 7 3 16 0 9 -3 28 -9 42 -12z m-2115 -1 c-7 -2 -19 -2 -25 0 -7
3 -2 5 12 5 14 0 19 -2 13 -5z m624 1 c-3 -3 -12 -4 -19 -1 -8 3 -5 6 6 6 11
1 17 -2 13 -5z m2563 2 c0 -7 -112 -38 -117 -32 -3 2 15 10 38 16 24 6 49 13
54 15 15 5 25 6 25 1z m1275 -17 c22 -10 29 -16 15 -13 -38 10 -87 32 -70 32
8 0 33 -8 55 -19z m-4392 4 c-7 -2 -21 -2 -30 0 -10 3 -4 5 12 5 17 0 24 -2
18 -5z m484 1 c-3 -3 -12 -4 -19 -1 -8 3 -5 6 6 6 11 1 17 -2 13 -5z m-2894
-11 c-7 -2 -19 -2 -25 0 -7 3 -2 5 12 5 14 0 19 -2 13 -5z m2470 0 c-7 -2 -19
-2 -25 0 -7 3 -2 5 12 5 14 0 19 -2 13 -5z m360 0 c-7 -2 -21 -2 -30 0 -10 3
-4 5 12 5 17 0 24 -2 18 -5z m-2735 -10 c-10 -2 -28 -2 -40 0 -13 2 -5 4 17 4
22 1 32 -1 23 -4z m375 0 c-7 -2 -19 -2 -25 0 -7 3 -2 5 12 5 14 0 19 -2 13
-5z m2200 0 c-7 -2 -19 -2 -25 0 -7 3 -2 5 12 5 14 0 19 -2 13 -5z m-2430 -10
c-7 -2 -21 -2 -30 0 -10 3 -4 5 12 5 17 0 24 -2 18 -5z m104 1 c-3 -3 -12 -4
-19 -1 -8 3 -5 6 6 6 11 1 17 -2 13 -5z m4230 0 c-3 -3 -12 -4 -19 -1 -8 3 -5
6 6 6 11 1 17 -2 13 -5z m820 0 c-3 -3 -12 -4 -19 -1 -8 3 -5 6 6 6 11 1 17
-2 13 -5z m1533 -15 c18 -11 -34 -1 -65 13 -13 5 -9 6 15 2 19 -4 42 -10 50
-15z m-2263 -5 c-3 -3 -12 -4 -19 -1 -8 3 -5 6 6 6 11 1 17 -2 13 -5z m646 -1
c-7 -2 -19 -2 -25 0 -7 3 -2 5 12 5 14 0 19 -2 13 -5z m-590 -10 c-7 -2 -21
-2 -30 0 -10 3 -4 5 12 5 17 0 24 -2 18 -5z m544 1 c-3 -3 -12 -4 -19 -1 -8 3
-5 6 6 6 11 1 17 -2 13 -5z m1726 -1 c-7 -2 -19 -2 -25 0 -7 3 -2 5 12 5 14 0
19 -2 13 -5z m760 0 c-7 -2 -19 -2 -25 0 -7 3 -2 5 12 5 14 0 19 -2 13 -5z
m-2560 -10 c-7 -2 -21 -2 -30 0 -10 3 -4 5 12 5 17 0 24 -2 18 -5z m2482 -3
c-3 -5 -18 -9 -33 -9 l-27 1 30 8 c17 4 31 8 33 9 2 0 0 -3 -3 -9z m-2637 -7
c-15 -2 -42 -2 -60 0 -18 2 -6 4 27 4 33 0 48 -2 33 -4z m2555 -10 c-7 -2 -19
-2 -25 0 -7 3 -2 5 12 5 14 0 19 -2 13 -5z m-320 -10 c-7 -2 -19 -2 -25 0 -7
3 -2 5 12 5 14 0 19 -2 13 -5z m124 1 c-3 -3 -12 -4 -19 -1 -8 3 -5 6 6 6 11
1 17 -2 13 -5z m96 -1 c-7 -2 -19 -2 -25 0 -7 3 -2 5 12 5 14 0 19 -2 13 -5z"/>
<path d="M3955 6514 c71 -8 163 -8 158 -1 -2 4 -46 6 -96 5 -51 0 -78 -3 -62
-4z"/>
<path d="M3525 6400 c-3 -6 1 -7 9 -4 18 7 21 14 7 14 -6 0 -13 -4 -16 -10z"/>
<path d="M3391 6350 c-109 -51 -278 -187 -311 -251 -7 -13 13 4 45 39 76 84
157 144 262 197 99 49 102 60 4 15z"/>
<path d="M3045 6039 c-9 -17 -15 -33 -13 -35 3 -2 12 12 21 31 21 43 13 47 -8
4z"/>
<path d="M3015 5959 c-10 -42 -2 -45 11 -3 6 19 8 34 3 34 -4 0 -10 -14 -14
-31z"/>
<path d="M3016 5777 c3 -10 9 -15 12 -12 3 3 0 11 -7 18 -10 9 -11 8 -5 -6z"/>
<path d="M3080 5640 c6 -11 13 -20 16 -20 2 0 0 9 -6 20 -6 11 -13 20 -16 20
-2 0 0 -9 6 -20z"/>
<path d="M3160 5556 c0 -2 8 -10 18 -17 15 -13 16 -12 3 4 -13 16 -21 21 -21
13z"/>
<path d="M4680 5380 c-9 -6 -10 -10 -3 -10 6 0 15 5 18 10 8 12 4 12 -15 0z"/>
<path d="M4400 5310 c-9 -6 -10 -10 -3 -10 6 0 15 5 18 10 8 12 4 12 -15 0z"/>
<path d="M3215 5069 c-4 -6 -5 -13 -2 -16 7 -7 27 6 27 18 0 12 -17 12 -25 -2z"/>
<path d="M6480 8788 c-3 -37 -1 -63 3 -59 4 4 7 35 5 67 l-3 59 -5 -67z"/>
<path d="M3880 8820 c-111 -12 -231 -32 -226 -37 2 -3 53 3 113 12 106 16 349
21 399 9 14 -4 24 -2 24 5 0 7 -30 11 -89 11 -49 0 -101 2 -117 4 -16 2 -63 0
-104 -4z"/>
<path d="M4250 8800 c30 -6 75 -14 100 -19 25 -5 47 -8 48 -6 7 7 -74 24 -138
29 l-65 5 55 -9z"/>
<path d="M3590 8770 c-20 -6 -21 -8 -5 -8 11 0 29 3 40 8 25 11 -1 11 -35 0z"/>
<path d="M3477 8738 c-32 -11 -57 -22 -54 -24 2 -2 35 7 73 20 38 14 62 24 54
24 -8 0 -41 -9 -73 -20z"/>
<path d="M3380 8700 c-8 -5 -10 -10 -5 -10 6 0 17 5 25 10 8 5 11 10 5 10 -5
0 -17 -5 -25 -10z"/>
<path d="M6585 8700 c407 -33 718 -170 876 -384 29 -39 38 -63 19 -51 -6 3 -7
-1 -3 -10 4 -11 8 -13 13 -5 12 19 45 -70 60 -162 10 -68 -7 -375 -26 -452
-16 -65 -11 -91 5 -29 17 63 20 90 31 264 12 196 0 289 -48 385 -124 246 -505
434 -912 448 l-115 5 100 -9z"/>
<path d="M3466 8689 c2 -4 -2 -10 -8 -12 -8 -4 -9 -6 -2 -6 6 -1 17 5 23 12 8
10 7 14 -4 14 -8 0 -12 -4 -9 -8z"/>
<path d="M3298 8664 c-27 -13 -48 -27 -48 -29 0 -5 99 42 109 51 13 11 -20 0
-61 -22z"/>
<path d="M3282 8590 c-88 -60 -128 -98 -174 -170 -33 -51 -65 -136 -55 -146 2
-3 9 15 15 38 24 96 122 210 240 282 34 20 62 39 62 42 0 10 -19 0 -88 -46z"/>
<path d="M3197 8605 c-20 -14 -37 -28 -37 -31 0 -2 18 8 40 22 35 23 47 34 37
34 -1 0 -19 -11 -40 -25z"/>
<path d="M3088 8513 c-55 -58 -108 -129 -108 -147 0 -6 14 12 31 40 17 27 56
75 87 107 31 31 54 57 51 57 -2 0 -30 -26 -61 -57z"/>
<path d="M5753 8455 c-15 -13 -25 -25 -22 -25 3 0 19 11 35 25 16 14 26 25 22
25 -4 0 -20 -11 -35 -25z"/>
<path d="M5676 8394 c-14 -15 -26 -32 -26 -38 0 -6 7 -1 15 11 9 12 26 29 38
38 12 8 17 15 11 15 -6 0 -23 -12 -38 -26z"/>
<path d="M5620 8328 c-12 -22 -12 -22 6 -6 10 10 15 20 12 24 -4 3 -12 -5 -18
-18z"/>
<path d="M5576 8245 c-9 -26 -7 -32 5 -12 6 10 9 21 6 23 -2 3 -7 -2 -11 -11z"/>
<path d="M3052 8195 c0 -16 2 -22 5 -12 2 9 2 23 0 30 -3 6 -5 -1 -5 -18z"/>
<path d="M5451 8122 c-16 -91 -12 -435 6 -453 8 -8 9 0 2 33 -13 61 -8 224 8
221 6 -1 14 4 17 12 3 9 0 15 -8 15 -18 0 -25 84 -13 159 12 84 2 95 -12 13z"/>
<path d="M2931 8144 c0 -11 3 -14 6 -6 3 7 2 16 -1 19 -3 4 -6 -2 -5 -13z"/>
<path d="M7522 8085 c2 -39 -1 -86 -5 -105 -8 -33 -7 -34 8 -15 14 16 16 34
11 99 -8 100 -18 115 -14 21z"/>
<path d="M5561 8084 c0 -11 3 -14 6 -6 3 7 2 16 -1 19 -3 4 -6 -2 -5 -13z"/>
<path d="M2933 7965 c0 -22 2 -30 4 -17 2 12 2 30 0 40 -3 9 -5 -1 -4 -23z"/>
<path d="M4744 7938 l-19 -23 23 19 c12 11 22 21 22 23 0 8 -8 2 -26 -19z"/>
<path d="M5680 7865 c19 -19 36 -35 39 -35 3 0 -10 16 -29 35 -19 19 -36 35
-39 35 -3 0 10 -16 29 -35z"/>
<path d="M2942 7825 c0 -16 2 -22 5 -12 2 9 2 23 0 30 -3 6 -5 -1 -5 -18z"/>
<path d="M3108 7843 c6 -2 10 -9 7 -14 -4 -5 1 -6 10 -2 13 5 14 7 3 14 -7 5
-17 8 -23 8 -5 0 -4 -3 3 -6z"/>
<path d="M2951 7780 c0 -8 4 -22 9 -30 12 -18 12 -2 0 25 -6 13 -9 15 -9 5z"/>
<path d="M2945 7700 c3 -5 11 -10 16 -10 6 0 7 5 4 10 -3 6 -11 10 -16 10 -6
0 -7 -4 -4 -10z"/>
<path d="M2745 7690 c-28 -4 1 -5 65 -2 63 2 117 6 119 8 7 6 -130 1 -184 -6z"/>
<path d="M2653 7673 c9 -2 23 -2 30 0 6 3 -1 5 -18 5 -16 0 -22 -2 -12 -5z"/>
<path d="M2570 7660 c-20 -6 -21 -8 -5 -8 11 0 31 4 45 8 20 6 21 8 5 8 -11 0
-31 -4 -45 -8z"/>
<path d="M5210 7660 c113 -4 214 -11 225 -14 l20 -8 -20 13 c-14 9 -79 13
-225 15 l-205 2 205 -8z"/>
<path d="M2518 7643 c7 -3 16 -2 19 1 4 3 -2 6 -13 5 -11 0 -14 -3 -6 -6z"/>
<path d="M2455 7630 c-13 -5 -14 -9 -5 -9 8 0 24 4 35 9 13 5 14 9 5 9 -8 0
-24 -4 -35 -9z"/>
<path d="M2718 7633 c7 -3 16 -2 19 1 4 3 -2 6 -13 5 -11 0 -14 -3 -6 -6z"/>
<path d="M2620 7620 c-23 -7 -23 -8 -3 -9 12 -1 25 4 28 9 3 6 5 10 3 9 -2 -1
-14 -5 -28 -9z"/>
<path d="M2530 7598 c0 -10 19 -9 45 2 16 7 14 9 -12 7 -18 -1 -33 -5 -33 -9z"/>
<path d="M2494 7584 c-18 -14 -18 -15 4 -4 12 6 22 13 22 15 0 8 -5 6 -26 -11z"/>
<path d="M4798 7593 c7 -3 16 -2 19 1 4 3 -2 6 -13 5 -11 0 -14 -3 -6 -6z"/>
<path d="M2310 7580 c-8 -5 -10 -10 -5 -10 6 0 17 5 25 10 8 5 11 10 5 10 -5
0 -17 -5 -25 -10z"/>
<path d="M4717 7575 c-21 -7 -42 -17 -45 -21 -4 -4 2 -4 13 1 11 4 30 10 43
12 12 3 25 9 28 14 6 11 7 11 -39 -6z"/>
<path d="M2201 7530 c-41 -21 -79 -44 -85 -50 -9 -9 158 75 173 87 18 14 -27
-4 -88 -37z"/>
<path d="M2408 7563 c-10 -2 -18 -9 -18 -14 0 -6 10 -5 23 2 37 20 36 23 -5
12z"/>
<path d="M7620 7549 c291 -22 525 -92 719 -216 69 -44 173 -142 164 -156 -3
-5 -1 -7 5 -4 13 9 66 -71 92 -140 11 -30 24 -91 29 -136 l8 -82 2 66 c4 226
-182 438 -500 568 -162 66 -393 112 -546 110 l-78 -2 105 -8z"/>
<path d="M2358 7543 c7 -3 16 -2 19 1 4 3 -2 6 -13 5 -11 0 -14 -3 -6 -6z"/>
<path d="M2322 7528 c-7 -7 -12 -8 -12 -2 0 5 -4 5 -8 -1 -4 -6 -36 -26 -72
-44 -36 -19 -74 -42 -86 -52 -11 -11 -23 -19 -27 -19 -8 0 -47 -37 -47 -45 0
-3 28 15 63 40 34 26 95 62 135 82 39 20 72 40 72 45 0 11 -4 10 -18 -4z"/>
<path d="M7588 7533 c7 -3 16 -2 19 1 4 3 -2 6 -13 5 -11 0 -14 -3 -6 -6z"/>
<path d="M4494 7477 c-64 -33 -124 -77 -124 -89 0 -5 21 8 47 28 25 19 68 46
95 60 26 13 48 27 48 29 0 7 2 8 -66 -28z"/>
<path d="M7660 7499 c0 -5 5 -7 10 -4 6 3 10 8 10 11 0 2 -4 4 -10 4 -5 0 -10
-5 -10 -11z"/>
<path d="M2049 7433 c-13 -16 -12 -17 4 -4 16 13 21 21 13 21 -2 0 -10 -8 -17
-17z"/>
<path d="M1975 7368 l-50 -53 53 50 c28 27 52 51 52 52 0 8 -9 -1 -55 -49z"/>
<path d="M6995 7410 c-3 -6 1 -7 9 -4 18 7 21 14 7 14 -6 0 -13 -4 -16 -10z"/>
<path d="M4319 7346 c-46 -53 -94 -125 -86 -132 3 -3 13 9 23 28 9 18 37 57
61 86 53 62 54 77 2 18z"/>
<path d="M2022 7323 c-42 -53 -72 -105 -71 -123 0 -8 9 3 19 25 11 22 36 58
55 80 31 36 42 55 31 55 -2 0 -18 -17 -34 -37z"/>
<path d="M6845 7341 c-11 -5 -52 -38 -91 -74 -124 -115 -169 -247 -129 -382
16 -57 76 -157 111 -185 9 -8 0 8 -21 35 -66 87 -89 149 -90 240 0 69 5 89 31
145 31 65 135 179 189 208 14 7 25 15 25 17 0 6 0 6 -25 -4z"/>
<path d="M1902 7283 c-29 -42 -54 -94 -48 -101 3 -3 6 -1 6 4 0 6 15 36 34 67
36 60 41 76 8 30z"/>
<path d="M1933 7172 c-1 -9 -3 -53 -4 -97 -2 -69 1 -89 24 -138 14 -31 29 -57
32 -57 3 0 -2 15 -11 33 -36 68 -47 155 -30 239 3 15 2 29 -2 32 -4 2 -8 -3
-9 -12z"/>
<path d="M8410 7186 c0 -2 8 -10 18 -17 15 -13 16 -12 3 4 -13 16 -21 21 -21
13z"/>
<path d="M4206 7148 c-3 -13 -5 -34 -5 -48 1 -15 5 -7 10 19 9 47 6 68 -5 29z"/>
<path d="M1821 7084 c0 -11 3 -14 6 -6 3 7 2 16 -1 19 -3 4 -6 -2 -5 -13z"/>
<path d="M4201 7054 c0 -11 3 -14 6 -6 3 7 2 16 -1 19 -3 4 -6 -2 -5 -13z"/>
<path d="M1812 7020 c0 -19 2 -27 5 -17 2 9 2 25 0 35 -3 9 -5 1 -5 -18z"/>
<path d="M4211 6984 c-1 -33 40 -125 67 -146 10 -8 9 -2 -6 18 -25 37 -42 76
-52 124 l-8 35 -1 -31z"/>
<path d="M1812 6855 c0 -16 2 -22 5 -12 2 9 2 23 0 30 -3 6 -5 -1 -5 -18z"/>
<path d="M6039 6853 c-13 -16 -12 -17 4 -4 9 7 17 15 17 17 0 8 -8 3 -21 -13z"/>
<path d="M8501 6854 c0 -11 3 -14 6 -6 3 7 2 16 -1 19 -3 4 -6 -2 -5 -13z"/>
<path d="M8608 6800 c-2 -22 0 -40 4 -40 5 0 8 18 8 40 0 22 -2 40 -4 40 -2 0
-6 -18 -8 -40z"/>
<path d="M2027 6819 c7 -7 15 -10 18 -7 3 3 -2 9 -12 12 -14 6 -15 5 -6 -5z"/>
<path d="M4305 6800 c10 -11 20 -20 23 -20 3 0 -3 9 -13 20 -10 11 -20 20 -23
20 -3 0 3 -9 13 -20z"/>
<path d="M5979 6783 l-24 -28 28 24 c15 14 27 26 27 28 0 8 -8 1 -31 -24z"/>
<path d="M8625 6665 c-4 -75 -5 -138 -2 -141 2 -3 8 56 12 131 4 75 5 138 2
141 -2 3 -8 -56 -12 -131z"/>
<path d="M4340 6771 c0 -5 7 -12 16 -15 14 -5 15 -4 4 9 -14 17 -20 19 -20 6z"/>
<path d="M1822 6735 c0 -16 2 -22 5 -12 2 9 2 23 0 30 -3 6 -5 -1 -5 -18z"/>
<path d="M8385 6658 l-50 -53 53 50 c48 46 57 55 49 55 -1 0 -25 -24 -52 -52z"/>
<path d="M5850 6690 c-9 -6 -10 -10 -3 -10 6 0 15 5 18 10 8 12 4 12 -15 0z"/>
<path d="M1831 6664 c0 -11 3 -14 6 -6 3 7 2 16 -1 19 -3 4 -6 -2 -5 -13z"/>
<path d="M6750 6676 c0 -2 12 -12 28 -21 l27 -18 -19 21 c-17 20 -36 29 -36
18z"/>
<path d="M8540 6660 c-8 -5 -12 -12 -9 -15 4 -3 12 1 19 10 14 17 11 19 -10 5z"/>
<path d="M8497 6616 c-3 -8 0 -17 7 -19 10 -4 12 1 9 14 -6 23 -9 24 -16 5z"/>
<path d="M1841 6604 c-1 -22 48 -128 56 -120 3 2 -3 16 -12 30 -9 14 -23 45
-30 68 -8 24 -14 34 -14 22z"/>
<path d="M1995 6599 c-4 -6 -5 -12 -2 -15 2 -3 7 2 10 11 7 17 1 20 -8 4z"/>
<path d="M8281 6580 c-59 -39 -65 -48 -13 -19 24 13 48 29 54 36 14 18 9 16
-41 -17z"/>
<path d="M8478 6583 c7 -3 16 -2 19 1 4 3 -2 6 -13 5 -11 0 -14 -3 -6 -6z"/>
<path d="M3190 6530 c-8 -5 -10 -10 -5 -10 6 0 17 5 25 10 8 5 11 10 5 10 -5
0 -17 -5 -25 -10z"/>
<path d="M8325 6529 c-4 -6 -5 -12 -2 -15 2 -3 7 2 10 11 7 17 1 20 -8 4z"/>
<path d="M5560 6500 c-8 -5 -10 -10 -5 -10 6 0 17 5 25 10 8 5 11 10 5 10 -5
0 -17 -5 -25 -10z"/>
<path d="M8611 6495 c-1 -11 -4 -31 -6 -45 l-6 -25 11 25 c6 13 9 33 7 45 -4
19 -4 19 -6 0z"/>
<path d="M1620 6464 c56 -7 277 -8 267 -2 -7 4 -75 7 -152 6 -77 0 -129 -2
-115 -4z"/>
<path d="M1508 6453 c12 -2 30 -2 40 0 9 3 -1 5 -23 4 -22 0 -30 -2 -17 -4z"/>
<path d="M7975 6450 c-3 -6 1 -7 9 -4 18 7 21 14 7 14 -6 0 -13 -4 -16 -10z"/>
<path d="M1395 6440 c-42 -11 -1 -11 50 -1 34 7 35 9 10 9 -16 0 -43 -4 -60
-8z"/>
<path d="M6335 6440 c72 -5 143 -11 158 -13 15 -2 24 0 20 4 -5 5 -76 10 -158
13 l-150 5 130 -9z"/>
<path d="M1328 6423 c7 -3 16 -2 19 1 4 3 -2 6 -13 5 -11 0 -14 -3 -6 -6z"/>
<path d="M1278 6413 c6 -2 18 -2 25 0 6 3 1 5 -13 5 -14 0 -19 -2 -12 -5z"/>
<path d="M8601 6416 c2 -3 66 -9 142 -15 379 -31 686 -153 862 -343 60 -65
100 -132 89 -150 -4 -7 -3 -8 5 -4 8 6 10 0 6 -21 -4 -21 -3 -23 3 -8 9 20 9
20 16 -2 4 -12 4 -34 1 -50 -4 -21 -3 -23 3 -8 17 38 34 -110 28 -245 l-5
-125 10 95 c12 118 5 239 -19 313 -98 295 -480 517 -960 557 -127 10 -188 12
-181 6z"/>
<path d="M8526 6398 c3 -5 10 -6 15 -3 13 9 11 12 -6 12 -8 0 -12 -4 -9 -9z"/>
<path d="M8565 6400 c3 -5 8 -10 11 -10 2 0 4 5 4 10 0 6 -5 10 -11 10 -5 0
-7 -4 -4 -10z"/>
<path d="M1185 6390 c-13 -5 -14 -9 -5 -9 8 0 24 4 35 9 13 5 14 9 5 9 -8 0
-24 -4 -35 -9z"/>
<path d="M7935 6380 c-3 -6 1 -7 9 -4 18 7 21 14 7 14 -6 0 -13 -4 -16 -10z"/>
<path d="M8415 6361 c-11 -5 -23 -7 -27 -5 -4 3 -9 0 -13 -5 -6 -11 41 -4 64
9 19 11 4 12 -24 1z"/>
<path d="M8468 6363 c6 -2 18 -2 25 0 6 3 1 5 -13 5 -14 0 -19 -2 -12 -5z"/>
<path d="M8538 6363 c7 -3 16 -2 19 1 4 3 -2 6 -13 5 -11 0 -14 -3 -6 -6z"/>
<path d="M993 6315 c-51 -24 -93 -46 -93 -49 0 -4 188 81 199 90 16 14 -27 -3
-106 -41z"/>
<path d="M8325 6340 c-8 -13 5 -13 25 0 13 8 13 10 -2 10 -9 0 -20 -4 -23 -10z"/>
<path d="M8244 6322 c-18 -13 -17 -14 6 -7 30 9 46 22 27 22 -8 0 -23 -7 -33
-15z"/>
<path d="M1105 6310 c-3 -5 -1 -10 4 -10 6 0 11 5 11 10 0 6 -2 10 -4 10 -3 0
-8 -4 -11 -10z"/>
<path d="M5780 6310 c-13 -9 -13 -10 0 -10 8 0 22 5 30 10 13 9 13 10 0 10 -8
0 -22 -5 -30 -10z"/>
<path d="M1043 6284 c-18 -9 -33 -20 -33 -25 0 -5 18 1 40 12 59 31 52 42 -7
13z"/>
<path d="M5652 6250 c-80 -40 -115 -65 -172 -123 -85 -85 -142 -192 -147 -272
l-2 -50 12 61 c21 98 63 171 148 257 63 62 96 86 170 122 51 25 94 47 97 50
13 12 -13 2 -106 -45z"/>
<path d="M8122 6288 c-7 -7 -12 -9 -12 -5 0 13 -158 -75 -224 -126 -137 -104
-213 -270 -184 -402 22 -101 98 -215 191 -286 31 -25 25 -16 -25 35 -117 117
-158 201 -158 317 0 172 125 322 358 431 45 22 82 41 82 43 0 9 -16 5 -28 -7z"/>
<path d="M859 6239 l-24 -20 28 17 c15 9 27 18 27 20 0 8 -8 4 -31 -17z"/>
<path d="M975 6252 c3 -3 -24 -23 -59 -44 -35 -22 -84 -60 -108 -86 -58 -61
-121 -157 -115 -174 3 -8 9 -2 16 15 32 82 131 188 229 245 63 37 74 49 47 49
-8 0 -13 -3 -10 -5z"/>
<path d="M753 6153 c-64 -63 -65 -64 -9 -14 91 81 91 81 84 81 -3 0 -37 -30
-75 -67z"/>
<path d="M659 6053 c-13 -16 -12 -17 4 -4 16 13 21 21 13 21 -2 0 -10 -8 -17
-17z"/>
<path d="M600 5959 c-12 -23 -20 -43 -18 -45 3 -2 14 17 26 41 27 56 20 60 -8
4z"/>
<path d="M9591 5950 c14 -31 19 -36 19 -24 0 6 -7 19 -16 30 -14 18 -14 18 -3
-6z"/>
<path d="M671 5899 c-14 -40 -14 -122 0 -172 15 -55 19 -42 6 20 -8 38 -8 71
0 115 12 72 10 83 -6 37z"/>
<path d="M561 5854 c0 -11 3 -14 6 -6 3 7 2 16 -1 19 -3 4 -6 -2 -5 -13z"/>
<path d="M552 5800 c0 -14 2 -19 5 -12 2 6 2 18 0 25 -3 6 -5 1 -5 -13z"/>
<path d="M5341 5764 c0 -11 3 -14 6 -6 3 7 2 16 -1 19 -3 4 -6 -2 -5 -13z"/>
<path d="M9642 5750 c0 -14 2 -19 5 -12 2 6 2 18 0 25 -3 6 -5 1 -5 -13z"/>
<path d="M543 5695 c0 -27 2 -38 4 -22 2 15 2 37 0 50 -2 12 -4 0 -4 -28z"/>
<path d="M5360 5700 c0 -21 54 -113 77 -130 17 -14 17 -14 1 6 -10 11 -31 47
-48 79 -16 33 -30 53 -30 45z"/>
<path d="M9731 5683 c5 -29 -2 -53 -13 -47 -8 5 -7 0 2 -11 14 -17 13 -18 -2
-13 -11 5 -15 2 -13 -10 2 -9 4 -21 5 -27 1 -11 21 30 26 54 1 8 5 25 9 38 3
13 1 23 -5 23 -5 0 -9 -3 -9 -7z"/>
<path d="M9620 5654 c0 -6 -16 -36 -35 -68 -19 -32 -29 -53 -22 -47 20 16 70
111 63 118 -3 4 -6 2 -6 -3z"/>
<path d="M710 5620 c0 -5 5 -10 11 -10 5 0 7 5 4 10 -3 6 -8 10 -11 10 -2 0
-4 -4 -4 -10z"/>
<path d="M553 5555 c0 -22 2 -30 4 -17 2 12 2 30 0 40 -3 9 -5 -1 -4 -23z"/>
<path d="M7179 5573 c-13 -16 -12 -17 4 -4 16 13 21 21 13 21 -2 0 -10 -8 -17
-17z"/>
<path d="M9700 5549 c0 -5 5 -7 10 -4 6 3 10 8 10 11 0 2 -4 4 -10 4 -5 0 -10
-5 -10 -11z"/>
<path d="M5470 5525 c13 -14 26 -25 28 -25 3 0 -5 11 -18 25 -13 14 -26 25
-28 25 -3 0 5 -11 18 -25z"/>
<path d="M9519 5493 l-24 -28 28 24 c25 23 32 31 24 31 -2 0 -14 -12 -28 -27z"/>
<path d="M5520 5486 c0 -2 8 -10 18 -17 15 -13 16 -12 3 4 -13 16 -21 21 -21
13z"/>
<path d="M563 5445 c0 -22 2 -30 4 -17 2 12 2 30 0 40 -3 9 -5 -1 -4 -23z"/>
<path d="M9464 5444 c-18 -14 -18 -15 4 -4 12 6 22 13 22 15 0 8 -5 6 -26 -11z"/>
<path d="M9640 5452 c0 -7 -7 -12 -15 -12 -8 0 -15 -4 -15 -8 0 -5 7 -9 15 -9
15 0 30 26 20 35 -3 3 -5 0 -5 -6z"/>
<path d="M5580 5441 c0 -5 7 -12 16 -15 14 -5 15 -4 4 9 -14 17 -20 19 -20 6z"/>
<path d="M9743 5395 c0 -27 2 -38 4 -22 2 15 2 37 0 50 -2 12 -4 0 -4 -28z"/>
<path d="M9584 5409 c-4 -7 -3 -9 4 -5 5 3 13 0 15 -6 4 -9 6 -10 6 -1 1 17
-16 25 -25 12z"/>
<path d="M572 5380 c0 -14 2 -19 5 -12 2 6 2 18 0 25 -3 6 -5 1 -5 -13z"/>
<path d="M9380 5390 c-8 -5 -12 -11 -10 -14 3 -2 14 2 24 10 22 15 10 19 -14
4z"/>
<path d="M9559 5388 c-8 -35 -8 -51 0 -39 5 7 13 11 19 7 6 -3 9 1 8 11 -2 14
-24 32 -27 21z"/>
<path d="M9517 5343 c-3 -5 -3 -20 -1 -36 2 -19 -1 -25 -9 -20 -7 3 -3 -3 7
-15 11 -12 22 -22 25 -22 3 0 0 5 -7 12 -8 8 -9 15 -1 25 8 9 8 13 0 13 -7 0
-8 8 -1 25 9 23 -2 37 -13 18z"/>
<path d="M9245 5320 c-3 -6 1 -7 9 -4 18 7 21 14 7 14 -6 0 -13 -4 -16 -10z"/>
<path d="M9405 5320 c-3 -6 1 -7 9 -4 18 7 21 14 7 14 -6 0 -13 -4 -16 -10z"/>
<path d="M9140 5290 c-23 -7 -23 -8 -3 -9 12 -1 25 4 28 9 3 6 5 10 3 9 -2 -1
-14 -5 -28 -9z"/>
<path d="M846 5273 c-6 -14 -5 -15 5 -6 7 7 10 15 7 18 -3 3 -9 -2 -12 -12z"/>
<path d="M990 5271 c0 -7 -5 -9 -12 -5 -7 5 -8 3 -3 -5 5 -9 10 -10 18 -2 6 6
8 14 4 18 -4 3 -7 1 -7 -6z"/>
<path d="M861 5256 c-12 -14 -11 -16 5 -9 17 6 18 5 4 -13 -14 -19 -14 -19 8
0 22 19 30 32 13 22 -5 -4 -11 -1 -13 5 -2 7 -9 5 -17 -5z"/>
<path d="M9030 5260 c-18 -12 -2 -12 25 0 13 6 15 9 5 9 -8 0 -22 -4 -30 -9z"/>
<path d="M1032 5253 c-6 -2 -10 -9 -6 -14 7 -12 44 -12 44 1 0 5 -7 6 -17 3
-11 -4 -14 -3 -9 5 8 13 7 13 -12 5z"/>
<path d="M8016 5248 c3 -5 10 -6 15 -3 13 9 11 12 -6 12 -8 0 -12 -4 -9 -9z"/>
<path d="M9490 5251 c0 -10 19 -25 25 -20 1 2 -3 10 -11 17 -8 7 -14 8 -14 3z"/>
<path d="M907 5243 c-3 -5 -2 -15 3 -23 6 -10 1 -23 -16 -41 -16 -17 -22 -29
-15 -33 6 -4 12 -5 12 -2 1 3 3 11 4 16 1 6 3 13 4 16 0 4 8 1 16 -6 11 -9 15
-9 15 -1 0 7 4 10 10 6 14 -9 -1 -37 -17 -31 -8 3 -12 2 -8 -3 3 -5 -1 -12 -7
-14 -8 -3 -6 -6 5 -6 10 -1 16 -5 13 -10 -4 -5 2 -7 11 -4 25 7 51 65 41 93
-7 20 -9 20 -24 5 -19 -18 -23 -16 -29 15 -5 27 -11 34 -18 23z m59 -64 c3 -6
0 -16 -7 -22 -8 -7 -10 -8 -6 -3 4 5 2 15 -4 23 -8 9 -8 13 -1 13 6 0 14 -5
18 -11z m-16 -49 c0 -5 -5 -10 -11 -10 -5 0 -7 5 -4 10 3 6 8 10 11 10 2 0 4
-4 4 -10z"/>
<path d="M990 5239 c-10 -7 -11 -12 -4 -15 7 -3 9 -15 6 -26 -4 -17 -2 -20 12
-15 10 4 20 7 23 7 2 0 -3 7 -12 16 -9 9 -14 23 -11 30 6 17 5 17 -14 3z"/>
<path d="M8786 5232 c-3 -5 1 -9 9 -9 8 0 12 4 9 9 -3 4 -7 8 -9 8 -2 0 -6 -4
-9 -8z"/>
<path d="M1234 5219 c-4 -7 -3 -9 4 -5 5 3 12 0 15 -6 2 -7 7 -10 11 -7 4 3 0
12 -8 18 -11 9 -16 9 -22 0z"/>
<path d="M8114 5219 c-4 -7 -3 -9 4 -5 5 3 13 0 15 -6 4 -9 6 -10 6 -1 1 17
-16 25 -25 12z"/>
<path d="M880 5209 c0 -5 5 -7 10 -4 6 3 10 8 10 11 0 2 -4 4 -10 4 -5 0 -10
-5 -10 -11z"/>
<path d="M9477 5200 c-3 -11 0 -23 6 -27 7 -3 9 -3 5 2 -4 4 -3 16 3 26 5 11
6 19 1 19 -6 0 -12 -9 -15 -20z"/>
<path d="M9519 5193 c-13 -16 -12 -17 4 -4 9 7 17 15 17 17 0 8 -8 3 -21 -13z"/>
<path d="M7641 5109 c1 -30 5 -65 9 -79 4 -14 5 8 2 50 -6 89 -12 106 -11 29z"/>
<path d="M9459 5113 c-13 -16 -12 -17 4 -4 9 7 17 15 17 17 0 8 -8 3 -21 -13z"/>
<path d="M901 5093 c7 -12 15 -20 18 -17 3 2 -3 12 -13 22 -17 16 -18 16 -5
-5z"/>
<path d="M970 5100 c0 -5 5 -10 10 -10 6 0 10 5 10 10 0 6 -4 10 -10 10 -5 0
-10 -4 -10 -10z"/>
<path d="M9410 5106 c0 -2 7 -9 15 -16 13 -11 14 -10 9 4 -5 14 -24 23 -24 12z"/>
<path d="M939 5098 c-4 -15 -6 -38 -3 -38 2 0 8 9 14 20 7 14 7 20 0 20 -5 0
-10 -1 -11 -2z"/>
<path d="M870 5086 c0 -2 7 -7 16 -10 8 -3 12 -2 9 4 -6 10 -25 14 -25 6z"/>
<path d="M955 5059 c-4 -11 -4 -23 -1 -26 3 -4 6 1 6 10 0 8 5 17 12 19 9 3 9
6 1 11 -7 4 -14 -1 -18 -14z"/>
<path d="M9495 5070 c-4 -6 -11 -7 -17 -4 -7 4 -8 2 -4 -5 6 -9 11 -9 22 0 14
11 18 19 10 19 -3 0 -8 -5 -11 -10z"/>
<path d="M910 5026 c7 -7 14 -6 21 1 9 9 7 12 -9 10 -14 -1 -18 -5 -12 -11z"/>
<path d="M975 5020 c-4 -6 -11 -8 -16 -5 -5 4 -17 1 -26 -4 -16 -9 -14 -10 8
-11 15 0 32 7 39 15 7 8 10 15 7 15 -3 0 -9 -5 -12 -10z"/>
<path d="M9363 4955 c0 -8 4 -12 9 -9 4 3 8 9 8 15 0 5 -4 9 -8 9 -5 0 -9 -7
-9 -15z"/>
<path d="M2529 4873 c-13 -16 -12 -17 4 -4 9 7 17 15 17 17 0 8 -8 3 -21 -13z"/>
<path d="M2247 4664 c-52 -28 -262 -93 -357 -111 -145 -26 -422 -23 -558 6
-57 12 -128 31 -159 42 -31 10 -57 19 -59 19 -1 0 12 -16 29 -36 47 -53 155
-125 116 -77 -12 14 -10 14 14 -1 31 -21 35 -28 10 -19 -15 6 -16 4 -6 -8 6
-8 13 -32 15 -54 3 -34 8 -42 43 -62 70 -39 207 -67 335 -67 121 -1 181 10
293 51 82 30 116 58 119 96 2 22 17 41 64 78 60 47 98 90 123 137 14 26 14 26
-22 6z m4 -21 c-5 -10 -29 -36 -52 -58 -24 -22 -35 -30 -25 -18 10 12 16 29
13 37 -4 10 -1 13 9 9 8 -3 14 0 12 6 -2 8 27 32 50 40 1 1 -2 -7 -7 -16z
m-76 -53 c-3 -5 -12 -10 -18 -10 -7 0 -6 4 3 10 19 12 23 12 15 0z m-970 -36
l40 -36 -47 31 c-27 18 -48 34 -48 36 0 12 18 1 55 -31z m844 -9 c-9 -8 -79
-35 -79 -30 0 3 15 11 33 19 32 15 54 20 46 11z m101 1 c0 -2 -8 -10 -17 -17
-16 -13 -17 -12 -4 4 13 16 21 21 21 13z m-307 -23 c-7 -2 -19 -2 -25 0 -7 3
-2 5 12 5 14 0 19 -2 13 -5z m-346 -9 c-3 -3 -12 -4 -19 -1 -8 3 -5 6 6 6 11
1 17 -2 13 -5z m251 -1 c-10 -2 -28 -2 -40 0 -13 2 -5 4 17 4 22 1 32 -1 23
-4z m352 -7 c0 -2 -8 -10 -17 -17 -16 -13 -17 -12 -4 4 13 16 21 21 21 13z
m-680 -30 c0 -2 -7 -7 -16 -10 -8 -3 -12 -2 -9 4 6 10 25 14 25 6z m35 -6 c-3
-5 -12 -10 -18 -10 -7 0 -6 4 3 10 19 12 23 12 15 0z m427 3 c-6 -2 -10 -8 -8
-12 3 -4 -6 -7 -19 -7 -13 0 -21 4 -19 8 3 5 9 6 14 3 5 -3 11 -1 15 5 3 5 12
10 18 9 9 0 8 -2 -1 -6z m122 -38 c-34 -23 -101 -43 -116 -34 -9 6 -6 9 12 10
14 0 43 9 65 19 49 23 67 25 39 5z m-349 -22 c-11 -7 -24 -13 -29 -13 -6 0 -5
4 3 9 7 5 11 13 7 19 -4 6 2 8 15 5 21 -6 21 -7 4 -20z m-334 -20 c13 -16 12
-17 -3 -4 -17 13 -22 21 -14 21 2 0 10 -8 17 -17z m116 11 c-3 -3 -12 -4 -19
-1 -8 3 -5 6 6 6 11 1 17 -2 13 -5z m50 -10 c-3 -3 -12 -4 -19 -1 -8 3 -5 6 6
6 11 1 17 -2 13 -5z m73 -12 c0 -5 -13 -7 -30 -4 -16 2 -30 6 -30 8 0 2 14 4
30 4 17 0 30 -4 30 -8z m260 -2 c-14 -4 -32 -8 -40 -9 -13 -1 -13 0 0 9 8 5
26 9 40 9 l25 -1 -25 -8z m-450 -10 c8 -5 11 -10 5 -10 -5 0 -17 5 -25 10 -8
5 -10 10 -5 10 6 0 17 -5 25 -10z m243 3 c-7 -2 -21 -2 -30 0 -10 3 -4 5 12 5
17 0 24 -2 18 -5z m347 -13 c-8 -5 -19 -10 -25 -10 -5 0 -3 5 5 10 8 5 20 10
25 10 6 0 3 -5 -5 -10z m-93 -26 c-3 -3 -12 -4 -19 -1 -8 3 -5 6 6 6 11 1 17
-2 13 -5z"/>
<path d="M4570 4660 c-31 -21 -229 -79 -325 -96 -68 -11 -155 -17 -270 -17
-192 -1 -296 16 -474 75 -56 19 -101 31 -101 28 0 -3 15 -12 34 -18 19 -7 40
-20 48 -30 11 -15 11 -15 -2 -5 -9 6 -29 17 -45 23 -29 11 -29 11 -11 -9 10
-11 22 -18 26 -16 4 3 14 -3 21 -13 13 -15 12 -16 -3 -3 -10 7 -18 9 -18 4 0
-5 32 -33 70 -62 39 -28 70 -59 70 -68 0 -29 51 -84 97 -104 65 -28 230 -59
312 -59 83 0 197 22 285 54 56 20 63 26 86 73 17 35 37 58 64 73 21 13 53 36
72 52 35 31 87 97 67 85 -7 -4 -14 -3 -18 3 -3 5 -2 10 2 10 5 0 18 7 29 15
21 16 8 20 -16 5z m-10 -44 c0 -2 -8 -10 -17 -17 -16 -13 -17 -12 -4 4 13 16
21 21 21 13z m-40 -39 c0 -2 -10 -12 -22 -23 l-23 -19 19 23 c18 21 26 27 26
19z m-999 -34 c13 -16 12 -17 -3 -4 -17 13 -22 21 -14 21 2 0 10 -8 17 -17z"/>
<path d="M5670 4618 c0 -5 16 -16 35 -24 19 -8 35 -16 35 -17 0 -7 -36 -1 -50
8 -33 20 31 -63 79 -102 44 -37 54 -41 71 -31 15 10 23 9 39 -6 12 -11 21 -25
21 -32 0 -8 11 -37 24 -67 23 -52 25 -54 102 -84 44 -17 101 -37 127 -44 69
-17 264 -6 351 20 109 33 138 51 164 107 17 35 35 56 64 73 46 26 128 99 128
113 0 5 -5 6 -12 2 -7 -4 -8 -3 -4 5 4 6 11 9 16 6 5 -3 11 -1 15 5 3 5 -2 10
-12 10 -13 1 -11 5 10 16 46 25 30 24 -40 -2 -342 -129 -803 -118 -1105 26
-32 15 -58 23 -58 18z m54 -64 c3 -8 2 -12 -4 -9 -6 3 -10 10 -10 16 0 14 7
11 14 -7z m61 -2 c-3 -3 -11 0 -18 7 -9 10 -8 11 6 5 10 -3 15 -9 12 -12z
m-20 -42 c10 -11 16 -20 13 -20 -3 0 -13 9 -23 20 -10 11 -16 20 -13 20 3 0
13 -9 23 -20z m136 -57 l24 -28 -25 21 c-14 12 -32 24 -40 27 -13 5 -13 6 1 6
8 1 26 -11 40 -26z"/>
<path d="M8000 4601 c0 -6 9 -13 20 -16 11 -3 20 -11 20 -16 0 -6 -5 -7 -11
-3 -6 3 -3 -5 6 -20 9 -14 22 -23 28 -19 5 3 7 1 3 -5 -6 -11 57 -71 107 -100
24 -14 27 -22 23 -45 -4 -21 0 -34 17 -51 24 -24 152 -78 242 -102 104 -28
291 -11 423 38 65 24 100 56 108 96 4 22 17 34 51 51 59 29 106 64 137 105
l25 33 -82 -28 c-133 -46 -251 -63 -442 -63 -137 0 -192 4 -280 22 -116 23
-240 62 -337 106 -32 14 -58 22 -58 17z m1160 -84 c0 -2 -10 -12 -22 -23 l-23
-19 19 23 c18 21 26 27 26 19z m-613 -83 c-3 -3 -12 -4 -19 -1 -8 3 -5 6 6 6
11 1 17 -2 13 -5z m493 -8 c0 -2 -7 -7 -16 -10 -8 -3 -12 -2 -9 4 6 10 25 14
25 6z m-72 -76 c-5 -17 -14 -33 -20 -36 -6 -4 -5 3 2 15 12 23 7 24 -60 5 -40
-11 -16 6 36 26 27 10 50 19 51 19 1 1 -3 -13 -9 -29z m-485 -27 c-7 -2 -21
-2 -30 0 -10 3 -4 5 12 5 17 0 24 -2 18 -5z m85 -10 c-10 -2 -26 -2 -35 0 -10
3 -2 5 17 5 19 0 27 -2 18 -5z m65 0 c-7 -2 -21 -2 -30 0 -10 3 -4 5 12 5 17
0 24 -2 18 -5z m217 -43 c-8 -5 -19 -10 -25 -10 -5 0 -3 5 5 10 8 5 20 10 25
10 6 0 3 -5 -5 -10z"/>
<path d="M2813 3193 c15 -2 37 -2 50 0 12 2 0 4 -28 4 -27 0 -38 -2 -22 -4z"/>
<path d="M5188 3193 c7 -3 16 -2 19 1 4 3 -2 6 -13 5 -11 0 -14 -3 -6 -6z"/>
<path d="M7328 3193 c34 -2 88 -2 120 0 31 2 3 3 -63 3 -66 0 -92 -1 -57 -3z"/>
<path d="M5068 3143 c23 -2 59 -2 80 0 20 2 1 4 -43 4 -44 0 -61 -2 -37 -4z"/>
<path d="M3013 2565 c0 -27 2 -38 4 -22 2 15 2 37 0 50 -2 12 -4 0 -4 -28z"/>
<path d="M7483 2525 c0 -27 2 -38 4 -22 2 15 2 37 0 50 -2 12 -4 0 -4 -28z"/>
<path d="M5002 2540 c0 -14 2 -19 5 -12 2 6 2 18 0 25 -3 6 -5 1 -5 -13z"/>
<path d="M5213 2500 c0 -25 2 -35 4 -22 2 12 2 32 0 45 -2 12 -4 2 -4 -23z"/>
<path d="M3021 2484 c0 -11 3 -14 6 -6 3 7 2 16 -1 19 -3 4 -6 -2 -5 -13z"/>
<path d="M7492 2450 c0 -14 2 -19 5 -12 2 6 2 18 0 25 -3 6 -5 1 -5 -13z"/>
<path d="M7201 2434 c0 -11 3 -14 6 -6 3 7 2 16 -1 19 -3 4 -6 -2 -5 -13z"/>
<path d="M2669 2273 c-13 -16 -12 -17 4 -4 16 13 21 21 13 21 -2 0 -10 -8 -17
-17z"/>
<path d="M4885 2234 c-75 -109 -234 -231 -381 -292 -28 -12 -89 -32 -135 -46
-46 -14 -76 -25 -67 -25 24 -1 164 44 235 75 135 60 318 211 376 313 29 49 14
36 -28 -25z"/>
<path d="M2629 2223 l-24 -28 28 24 c25 23 32 31 24 31 -2 0 -14 -12 -28 -27z"/>
<path d="M3117 2215 c29 -42 172 -176 211 -198 49 -28 38 -14 -23 28 -31 21
-90 74 -132 119 -43 45 -68 67 -56 51z"/>
<path d="M5340 2145 c42 -61 125 -131 223 -188 88 -51 231 -111 250 -104 7 2
-13 11 -44 20 -141 42 -344 172 -413 266 -46 63 -59 68 -16 6z"/>
<path d="M7660 2096 c30 -32 82 -78 115 -103 63 -47 239 -138 290 -148 17 -4
-6 9 -51 27 -130 54 -230 117 -323 202 -64 60 -72 65 -31 22z"/>
<path d="M1015 2120 c10 -11 20 -20 23 -20 3 0 -3 9 -13 20 -10 11 -20 20 -23
20 -3 0 3 -9 13 -20z"/>
<path d="M7025 2078 l-50 -53 53 50 c48 46 57 55 49 55 -1 0 -25 -24 -52 -52z"/>
<path d="M1110 2056 c0 -3 9 -10 20 -16 11 -6 20 -8 20 -6 0 3 -9 10 -20 16
-11 6 -20 8 -20 6z"/>
<path d="M4585 2050 c-3 -6 1 -7 9 -4 18 7 21 14 7 14 -6 0 -13 -4 -16 -10z"/>
<path d="M4515 2020 c-22 -10 -84 -31 -139 -46 -54 -15 -94 -30 -89 -31 14 -5
173 43 234 71 30 13 50 24 44 24 -5 0 -28 -8 -50 -18z"/>
<path d="M6939 2003 c-13 -16 -12 -17 4 -4 16 13 21 21 13 21 -2 0 -10 -8 -17
-17z"/>
<path d="M3370 1995 c0 -7 61 -37 66 -33 2 3 -12 12 -31 21 -19 9 -35 15 -35
12z"/>
<path d="M2018 1983 c7 -3 16 -2 19 1 4 3 -2 6 -13 5 -11 0 -14 -3 -6 -6z"/>
<path d="M6890 1969 c-22 -18 -22 -19 -3 -10 12 6 25 16 28 21 9 15 3 12 -25
-11z"/>
<path d="M6815 1928 c-22 -12 -78 -37 -125 -55 -47 -18 -79 -32 -73 -33 29 0
243 92 243 105 0 7 0 7 -45 -17z"/>
<path d="M3500 1930 c8 -5 20 -10 25 -10 6 0 3 5 -5 10 -8 5 -19 10 -25 10 -5
0 -3 -5 5 -10z"/>
<path d="M2008 1903 c7 -3 16 -2 19 1 4 3 -2 6 -13 5 -11 0 -14 -3 -6 -6z"/>
<path d="M1938 1893 c7 -3 16 -2 19 1 4 3 -2 6 -13 5 -11 0 -14 -3 -6 -6z"/>
<path d="M1693 1883 c9 -2 23 -2 30 0 6 3 -1 5 -18 5 -16 0 -22 -2 -12 -5z"/>
<path d="M1818 1883 c6 -2 18 -2 25 0 6 3 1 5 -13 5 -14 0 -19 -2 -12 -5z"/>
<path d="M3638 1883 c7 -3 16 -2 19 1 4 3 -2 6 -13 5 -11 0 -14 -3 -6 -6z"/>
<path d="M3690 1870 c14 -4 36 -8 50 -8 22 0 22 1 -5 8 -16 4 -39 8 -50 8 -16
0 -15 -2 5 -8z"/>
<path d="M4248 1863 c6 -2 18 -2 25 0 6 3 1 5 -13 5 -14 0 -19 -2 -12 -5z"/>
<path d="M3793 1853 c9 -2 23 -2 30 0 6 3 -1 5 -18 5 -16 0 -22 -2 -12 -5z"/>
<path d="M4183 1853 c9 -2 25 -2 35 0 9 3 1 5 -18 5 -19 0 -27 -2 -17 -5z"/>
<path d="M3923 1843 c42 -2 112 -2 155 0 42 1 7 3 -78 3 -85 0 -120 -2 -77 -3z"/>
<path d="M5865 1835 c22 -8 49 -13 60 -13 11 0 -2 6 -30 14 -63 17 -84 16 -30
-1z"/>
<path d="M6540 1830 c-20 -6 -21 -8 -5 -8 11 0 31 4 45 8 20 6 21 8 5 8 -11 0
-31 -4 -45 -8z"/>
<path d="M8145 1820 c11 -5 27 -9 35 -9 9 0 8 4 -5 9 -11 5 -27 9 -35 9 -9 0
-8 -4 5 -9z"/>
<path d="M5963 1813 c9 -2 23 -2 30 0 6 3 -1 5 -18 5 -16 0 -22 -2 -12 -5z"/>
<path d="M6478 1813 c6 -2 18 -2 25 0 6 3 1 5 -13 5 -14 0 -19 -2 -12 -5z"/>
<path d="M6023 1803 c9 -2 25 -2 35 0 9 3 1 5 -18 5 -19 0 -27 -2 -17 -5z"/>
<path d="M6413 1803 c9 -2 25 -2 35 0 9 3 1 5 -18 5 -19 0 -27 -2 -17 -5z"/>
<path d="M8208 1803 c6 -2 18 -2 25 0 6 3 1 5 -13 5 -14 0 -19 -2 -12 -5z"/>
<path d="M6158 1793 c46 -2 118 -2 160 0 42 1 5 3 -83 3 -88 0 -123 -2 -77 -3z"/>
<path d="M8258 1793 c6 -2 18 -2 25 0 6 3 1 5 -13 5 -14 0 -19 -2 -12 -5z"/>
<path d="M8318 1783 c12 -2 30 -2 40 0 9 3 -1 5 -23 4 -22 0 -30 -2 -17 -4z"/>
<path d="M8713 1783 c9 -2 23 -2 30 0 6 3 -1 5 -18 5 -16 0 -22 -2 -12 -5z"/>
<path d="M8413 1773 c15 -2 39 -2 55 0 15 2 2 4 -28 4 -30 0 -43 -2 -27 -4z"/>
<path d="M8578 1773 c17 -2 47 -2 65 0 17 2 3 4 -33 4 -36 0 -50 -2 -32 -4z"/>
</g>
</svg>
