<?xml version="1.0" standalone="no"?>
<!DOCTYPE svg PUBLIC "-//W3C//DTD SVG 20010904//EN"
 "http://www.w3.org/TR/2001/REC-SVG-20010904/DTD/svg10.dtd">
<svg version="1.0" xmlns="http://www.w3.org/2000/svg"
 width="1024.000000pt" height="1024.000000pt" viewBox="0 0 1024.000000 1024.000000"
 preserveAspectRatio="xMidYMid meet">
<metadata>
Created by potrace 1.16, written by Peter Selinger 2001-2019
</metadata>
<g transform="translate(0.000000,1024.000000) scale(0.100000,-0.100000)"
fill="#000000" stroke="none">
<path d="M6268 7813 c29 -2 74 -2 100 0 26 2 2 3 -53 3 -55 0 -76 -1 -47 -3z"/>
<path d="M6083 7803 c15 -2 37 -2 50 0 12 2 0 4 -28 4 -27 0 -38 -2 -22 -4z"/>
<path d="M6463 7803 c15 -2 37 -2 50 0 12 2 0 4 -28 4 -27 0 -38 -2 -22 -4z"/>
<path d="M5993 7793 c9 -2 25 -2 35 0 9 3 1 5 -18 5 -19 0 -27 -2 -17 -5z"/>
<path d="M6215 7790 l-60 -7 68 -1 c43 -1 66 2 62 8 -3 6 -7 9 -8 8 -1 -1 -29
-4 -62 -8z"/>
<path d="M6553 7793 c9 -2 25 -2 35 0 9 3 1 5 -18 5 -19 0 -27 -2 -17 -5z"/>
<path d="M5900 7780 c-20 -6 -21 -8 -5 -8 11 0 34 4 50 8 27 7 27 8 5 8 -14 0
-36 -4 -50 -8z"/>
<path d="M6633 7783 c9 -2 23 -2 30 0 6 3 -1 5 -18 5 -16 0 -22 -2 -12 -5z"/>
<path d="M6688 7773 c6 -2 18 -2 25 0 6 3 1 5 -13 5 -14 0 -19 -2 -12 -5z"/>
<path d="M5848 7763 c7 -3 16 -2 19 1 4 3 -2 6 -13 5 -11 0 -14 -3 -6 -6z"/>
<path d="M6738 7763 c7 -3 16 -2 19 1 4 3 -2 6 -13 5 -11 0 -14 -3 -6 -6z"/>
<path d="M5808 7753 c7 -3 16 -2 19 1 4 3 -2 6 -13 5 -11 0 -14 -3 -6 -6z"/>
<path d="M6778 7753 c7 -3 16 -2 19 1 4 3 -2 6 -13 5 -11 0 -14 -3 -6 -6z"/>
<path d="M5745 7735 c-25 -12 -26 -14 -5 -9 28 7 60 23 45 23 -5 0 -23 -6 -40
-14z"/>
<path d="M6940 7696 c0 -3 9 -10 20 -16 11 -6 20 -8 20 -6 0 3 -9 10 -20 16
-11 6 -20 8 -20 6z"/>
<path d="M7021 7635 c15 -16 31 -39 37 -50 6 -11 12 -14 12 -7 0 7 -17 30 -37
50 -21 21 -26 24 -12 7z"/>
<path d="M5554 7628 l-19 -23 23 19 c21 18 27 26 19 26 -2 0 -12 -10 -23 -22z"/>
<path d="M7648 7493 c7 -3 16 -2 19 1 4 3 -2 6 -13 5 -11 0 -14 -3 -6 -6z"/>
<path d="M7408 7483 c12 -2 32 -2 45 0 12 2 2 4 -23 4 -25 0 -35 -2 -22 -4z"/>
<path d="M7813 7483 c15 -2 37 -2 50 0 12 2 0 4 -28 4 -27 0 -38 -2 -22 -4z"/>
<path d="M7303 7473 c9 -2 23 -2 30 0 6 3 -1 5 -18 5 -16 0 -22 -2 -12 -5z"/>
<path d="M7470 7473 c-133 -12 -323 -50 -315 -62 2 -5 40 0 82 10 111 27 248
39 452 40 124 1 161 4 126 9 -49 8 -276 10 -345 3z"/>
<path d="M7918 7473 c12 -2 30 -2 40 0 9 3 -1 5 -23 4 -22 0 -30 -2 -17 -4z"/>
<path d="M7238 7463 c6 -2 18 -2 25 0 6 3 1 5 -13 5 -14 0 -19 -2 -12 -5z"/>
<path d="M8015 7460 c17 -4 39 -8 50 -8 16 0 15 2 -5 8 -14 4 -36 8 -50 8 -22
0 -22 -1 5 -8z"/>
<path d="M6950 7429 c-126 -58 -280 -94 -490 -114 -89 -8 -467 -8 -516 0 -53
9 -215 52 -291 76 -35 11 -71 19 -80 17 -10 -2 25 -19 78 -36 169 -57 239
-119 246 -215 1 -29 0 -46 -3 -39 -5 10 -10 8 -21 -8 -20 -29 -73 -60 -173
-102 -176 -74 -363 -101 -710 -101 -181 0 -255 7 -343 29 -90 23 -224 74 -238
90 -17 20 -52 17 -67 -6 -11 -17 -10 -21 5 -27 212 -73 297 -142 292 -237 -2
-25 -5 -43 -8 -41 -3 3 -23 -12 -45 -34 -62 -59 -199 -124 -341 -160 -76 -19
-176 -33 -430 -62 -173 -20 -439 -16 -500 7 -13 5 -16 4 -11 -4 4 -7 2 -12 -3
-12 -6 0 -11 4 -11 8 0 9 -42 8 -58 -2 -7 -4 -16 -5 -21 -2 -13 8 -20 -17 -15
-53 4 -21 1 -31 -8 -31 -10 0 -9 -3 1 -9 8 -5 16 -22 19 -38 2 -15 7 -29 12
-31 4 -2 4 -17 0 -33 -8 -27 -5 -34 21 -60 16 -16 40 -30 52 -30 16 -1 17 -3
5 -6 -28 -7 -164 56 -215 100 -47 40 -47 40 -14 4 73 -78 241 -140 456 -168
132 -17 466 -15 635 4 125 14 175 14 122 0 -12 -3 -20 -9 -17 -13 3 -4 -1 -27
-8 -51 -22 -76 -9 -169 24 -169 10 0 21 -4 24 -10 3 -5 0 -7 -7 -5 -8 3 -32 1
-53 -4 -35 -8 -32 -9 24 -5 35 2 67 6 69 9 3 3 0 5 -6 5 -7 0 -12 5 -12 10 0
7 6 7 20 0 19 -10 18 -8 -3 27 -20 35 -22 53 -25 226 -4 186 -4 188 23 242 22
45 39 63 100 104 83 55 197 102 330 136 146 37 269 48 464 42 425 -13 748
-131 777 -282 6 -33 3 -40 -22 -62 -163 -137 -434 -221 -784 -240 -180 -10
-278 -10 -380 1 -47 4 -114 10 -150 12 -36 2 -69 5 -75 5 -5 1 -30 -3 -54 -9
-25 -6 -49 -8 -55 -5 -5 3 -7 2 -4 -3 9 -14 21 -86 20 -122 0 -18 3 -30 7 -28
4 3 8 -1 8 -9 0 -8 -5 -15 -11 -15 -7 0 -7 -3 -1 -8 15 -11 17 -32 3 -32 -8 0
-4 -8 7 -17 16 -12 16 -14 3 -10 -10 3 -20 1 -24 -6 -4 -7 -3 -9 1 -4 5 4 19
0 32 -8 13 -9 23 -12 23 -8 0 5 5 0 11 -9 5 -10 16 -18 24 -18 8 0 16 -4 20
-10 8 -13 -100 25 -153 55 -24 14 -39 18 -32 10 41 -49 298 -126 491 -146 157
-16 482 -6 623 20 61 11 112 19 114 16 2 -2 -12 -7 -32 -10 -21 -5 -33 -11
-29 -18 4 -6 0 -8 -10 -4 -13 5 -15 -1 -11 -31 7 -55 11 -74 23 -105 6 -16 9
-32 6 -37 -5 -8 53 -39 77 -41 7 0 -5 -9 -27 -20 -58 -27 -31 -23 46 7 l67 26
-24 36 c-24 34 -24 39 -24 256 l0 222 29 46 c69 109 291 208 546 245 134 19
483 22 600 5 314 -47 538 -140 602 -250 24 -41 27 -54 25 -128 l-2 -83 37 -8
c21 -4 155 -8 298 -8 209 0 280 4 360 19 205 37 401 120 438 184 11 18 14 32
8 32 -6 0 -11 -6 -11 -14 0 -7 -7 -19 -15 -26 -12 -10 -12 -7 1 19 9 18 17 37
18 44 1 7 5 17 8 23 4 6 9 57 10 113 2 55 6 101 9 101 4 0 7 11 7 25 0 28 -10
32 -30 13 -21 -20 -88 -55 -148 -76 -138 -49 -311 -67 -630 -67 -371 1 -588
47 -762 163 -60 39 -68 48 -68 76 2 260 643 421 1215 305 216 -44 369 -114
439 -202 31 -38 31 -40 34 -178 2 -78 7 -137 12 -134 5 3 7 19 3 35 -4 22 -2
30 8 30 11 0 11 2 -1 10 -10 6 55 7 181 3 464 -15 810 76 920 241 14 20 8 16
-16 -11 -33 -39 -67 -60 -49 -31 4 6 3 8 -3 5 -6 -4 -9 9 -6 36 11 128 11 239
-2 243 -7 3 -54 -9 -104 -25 -149 -49 -167 -52 -366 -66 -196 -14 -451 -11
-613 5 -184 19 -395 89 -463 154 -15 14 -29 23 -32 20 -10 -10 -13 42 -5 82
11 54 63 114 138 159 33 20 60 39 60 41 0 3 -35 -13 -77 -35 -140 -71 -233
-100 -411 -128 -135 -21 -571 -25 -674 -5 -138 26 -300 90 -355 141 -20 18
-34 25 -37 17 -2 -6 -5 13 -5 43 -1 85 39 135 159 196 30 16 49 30 42 32 -6 3
-10 9 -6 14 9 16 -29 9 -76 -12z m-240 -349 c168 -21 351 -80 458 -150 68 -43
90 -71 98 -122 6 -33 4 -36 -57 -76 -117 -75 -257 -132 -397 -161 -81 -17
-317 -32 -507 -32 -177 -1 -299 10 -401 36 -75 19 -209 85 -251 123 -27 25
-33 27 -36 13 -3 -9 -5 10 -6 42 -1 68 14 101 64 146 89 78 317 156 531 180
103 12 407 12 504 1z m3065 -590 c-3 -5 -16 -15 -28 -21 l-22 -12 20 21 c21
22 41 30 30 12z"/>
<path d="M6190 7054 c-97 -14 -308 -67 -235 -60 22 3 72 12 110 20 161 35 439
46 620 26 49 -6 132 -22 184 -35 53 -13 97 -22 99 -20 8 8 -156 53 -247 69
-117 20 -394 20 -531 0z"/>
<path d="M8108 7443 c7 -3 16 -2 19 1 4 3 -2 6 -13 5 -11 0 -14 -3 -6 -6z"/>
<path d="M8155 7430 c11 -5 27 -9 35 -9 9 0 8 4 -5 9 -11 5 -27 9 -35 9 -9 0
-8 -4 5 -9z"/>
<path d="M4920 7420 l45 -7 -45 -2 c-116 -4 -361 -70 -414 -112 -41 -33 -26
-32 48 1 263 120 753 132 1055 27 85 -30 78 -11 -8 23 -57 22 -257 60 -319 60
-21 0 -32 4 -25 8 6 4 -77 7 -185 8 -109 0 -177 -2 -152 -6z"/>
<path d="M4793 7413 c9 -2 23 -2 30 0 6 3 -1 5 -18 5 -16 0 -22 -2 -12 -5z"/>
<path d="M4728 7403 c7 -3 16 -2 19 1 4 3 -2 6 -13 5 -11 0 -14 -3 -6 -6z"/>
<path d="M8250 7400 c8 -5 20 -10 25 -10 6 0 3 5 -5 10 -8 5 -19 10 -25 10 -5
0 -3 -5 5 -10z"/>
<path d="M4678 7393 c7 -3 16 -2 19 1 4 3 -2 6 -13 5 -11 0 -14 -3 -6 -6z"/>
<path d="M4638 7383 c7 -3 16 -2 19 1 4 3 -2 6 -13 5 -11 0 -14 -3 -6 -6z"/>
<path d="M4580 7370 c-18 -12 -2 -12 25 0 13 6 15 9 5 9 -8 0 -22 -4 -30 -9z"/>
<path d="M7015 7354 c-19 -14 -18 -15 10 -8 37 8 51 19 27 21 -9 1 -26 -5 -37
-13z"/>
<path d="M8380 7325 c19 -19 36 -35 39 -35 3 0 -10 16 -29 35 -19 19 -36 35
-39 35 -3 0 10 -16 29 -35z"/>
<path d="M4339 7243 c-13 -16 -12 -17 4 -4 16 13 21 21 13 21 -2 0 -10 -8 -17
-17z"/>
<path d="M8858 7253 c17 -2 47 -2 65 0 17 2 3 4 -33 4 -36 0 -50 -2 -32 -4z"/>
<path d="M9107 7253 c18 -2 50 -2 70 0 21 2 7 4 -32 4 -38 0 -55 -2 -38 -4z"/>
<path d="M8763 7243 c9 -2 23 -2 30 0 6 3 -1 5 -18 5 -16 0 -22 -2 -12 -5z"/>
<path d="M9248 7243 c12 -2 30 -2 40 0 9 3 -1 5 -23 4 -22 0 -30 -2 -17 -4z"/>
<path d="M8698 7233 c6 -2 18 -2 25 0 6 3 1 5 -13 5 -14 0 -19 -2 -12 -5z"/>
<path d="M8875 7223 c-49 -6 -109 -14 -132 -17 -23 -3 -52 -10 -65 -15 -13 -4
-44 -11 -70 -15 -27 -4 -48 -12 -48 -17 0 -5 10 -7 23 -4 12 2 61 14 110 25
126 30 215 39 366 40 74 0 132 2 130 4 -11 11 -235 10 -314 -1z"/>
<path d="M9333 7233 c9 -2 23 -2 30 0 6 3 -1 5 -18 5 -16 0 -22 -2 -12 -5z"/>
<path d="M8610 7220 c-20 -6 -21 -8 -5 -8 11 0 34 4 50 8 27 7 27 8 5 8 -14 0
-36 -4 -50 -8z"/>
<path d="M9388 7223 c6 -2 18 -2 25 0 6 3 1 5 -13 5 -14 0 -19 -2 -12 -5z"/>
<path d="M9438 7213 c7 -3 16 -2 19 1 4 3 -2 6 -13 5 -11 0 -14 -3 -6 -6z"/>
<path d="M8558 7203 c7 -3 16 -2 19 1 4 3 -2 6 -13 5 -11 0 -14 -3 -6 -6z"/>
<path d="M9478 7203 c7 -3 16 -2 19 1 4 3 -2 6 -13 5 -11 0 -14 -3 -6 -6z"/>
<path d="M8495 7190 c-13 -5 -14 -9 -5 -9 8 0 24 4 35 9 13 5 14 9 5 9 -8 0
-24 -4 -35 -9z"/>
<path d="M9518 7193 c7 -3 16 -2 19 1 4 3 -2 6 -13 5 -11 0 -14 -3 -6 -6z"/>
<path d="M9650 7150 c8 -5 20 -10 25 -10 6 0 3 5 -5 10 -8 5 -19 10 -25 10 -5
0 -3 -5 5 -10z"/>
<path d="M8470 7130 c-9 -6 -10 -10 -3 -10 6 0 15 5 18 10 8 12 4 12 -15 0z"/>
<path d="M9715 7123 c72 -37 125 -77 144 -106 11 -18 21 -27 21 -22 0 31 -147
146 -184 145 -6 -1 3 -8 19 -17z"/>
<path d="M3860 7003 c-118 -6 -269 -24 -311 -38 -27 -9 -33 -13 -14 -10 17 3
93 12 170 20 279 29 501 13 667 -50 90 -34 111 -33 36 3 -64 29 -219 62 -317
68 -47 2 -106 6 -131 7 -25 1 -70 1 -100 0z"/>
<path d="M4198 7003 c7 -3 16 -2 19 1 4 3 -2 6 -13 5 -11 0 -14 -3 -6 -6z"/>
<path d="M3508 6983 c7 -3 16 -2 19 1 4 3 -2 6 -13 5 -11 0 -14 -3 -6 -6z"/>
<path d="M9881 6964 c0 -11 3 -14 6 -6 3 7 2 16 -1 19 -3 4 -6 -2 -5 -13z"/>
<path d="M3395 6960 c-25 -11 1 -11 35 0 20 6 21 8 5 8 -11 0 -29 -3 -40 -8z"/>
<path d="M3310 6935 c-19 -7 -28 -13 -20 -13 8 0 31 6 50 13 19 7 28 13 20 13
-8 0 -31 -6 -50 -13z"/>
<path d="M3074 6818 l-19 -23 23 19 c21 18 27 26 19 26 -2 0 -12 -10 -23 -22z"/>
<path d="M7680 6740 c-223 -23 -490 -116 -490 -172 0 -7 7 -5 18 4 46 42 216
109 320 128 182 32 566 30 738 -5 87 -18 215 -60 254 -82 24 -15 24 -15 5 2
-110 94 -530 156 -845 125z"/>
<path d="M4900 6599 c-300 -60 -447 -131 -474 -229 -7 -22 -5 -21 12 6 81 127
390 211 792 215 100 2 129 4 95 9 -65 9 -380 8 -425 -1z"/>
<path d="M6430 6264 c-14 -2 -63 -9 -110 -14 -95 -12 -180 -30 -195 -41 -5 -4
-28 -10 -50 -13 -21 -4 -67 -23 -102 -43 -69 -41 -78 -53 -17 -24 78 38 251
89 344 102 57 8 184 14 315 14 189 0 236 -3 332 -23 61 -12 130 -29 154 -37
23 -8 44 -13 46 -11 5 4 -94 38 -165 56 -117 30 -439 50 -552 34z"/>
<path d="M7170 6160 c8 -5 20 -10 25 -10 6 0 3 5 -5 10 -8 5 -19 10 -25 10 -5
0 -3 -5 5 -10z"/>
<path d="M7220 6140 c8 -5 20 -10 25 -10 6 0 3 5 -5 10 -8 5 -19 10 -25 10 -5
0 -3 -5 5 -10z"/>
<path d="M8673 6034 c-13 -20 -17 -50 -17 -130 l-1 -104 43 -17 c32 -12 48
-26 60 -50 11 -23 26 -36 51 -44 57 -17 259 -23 339 -9 68 11 122 39 122 62 0
6 16 28 35 49 19 22 35 43 35 48 0 5 -12 19 -26 30 l-26 21 28 10 c75 27 84
38 64 82 -20 42 -46 46 -247 41 -182 -6 -364 7 -419 27 -20 8 -27 5 -41 -16z
m687 -61 c0 -9 -6 -13 -15 -9 -8 3 -15 0 -15 -6 0 -6 -3 -9 -6 -6 -3 4 -1 16
6 27 12 23 30 20 30 -6z"/>
<path d="M7491 5884 c0 -11 3 -14 6 -6 3 7 2 16 -1 19 -3 4 -6 -2 -5 -13z"/>
<path d="M4368 5843 c-2 -5 0 -48 3 -98 l5 -90 2 98 c2 87 -1 111 -10 90z"/>
<path d="M4175 5813 c-44 -9 -169 -16 -338 -20 -147 -3 -265 -8 -262 -11 3 -4
50 -14 103 -24 l97 -17 -105 4 c-58 2 -99 2 -92 -1 18 -8 15 -24 -5 -24 -12 0
-14 -3 -6 -8 6 -4 -20 -7 -57 -7 -86 0 -100 -11 -77 -60 11 -23 34 -44 66 -62
36 -20 51 -36 55 -55 7 -37 37 -64 83 -78 61 -18 251 -24 328 -11 96 16 121
28 144 66 11 19 32 41 48 51 81 50 106 71 129 109 40 70 27 115 -36 115 -20 0
-19 2 7 25 34 29 26 30 -82 8z"/>
<path d="M7510 5689 c1 -114 3 -131 13 -111 7 12 16 20 19 17 3 -3 11 2 18 10
10 12 10 19 2 27 -7 7 -12 17 -12 23 0 5 5 3 10 -5 7 -12 9 -10 7 7 0 12 -5
19 -9 17 -5 -3 -7 6 -4 21 3 17 0 28 -10 32 -17 6 -19 24 -1 21 7 -2 12 7 12
22 0 14 7 28 15 32 11 5 9 7 -7 7 -12 1 -28 4 -37 7 -14 5 -16 -10 -16 -127z
m27 -1 c-3 -7 -5 -2 -5 12 0 14 2 19 5 13 2 -7 2 -19 0 -25z m0 -40 c-3 -8 -6
-5 -6 6 -1 11 2 17 5 13 3 -3 4 -12 1 -19z"/>
<path d="M7440 5799 c0 -5 -4 -7 -10 -4 -5 3 -10 3 -10 -2 0 -4 -19 -9 -41
-10 -23 -2 -47 -7 -53 -11 -16 -13 -102 -39 -171 -52 -150 -28 -225 -39 -285
-45 -36 -3 -74 -8 -85 -10 -64 -12 -430 -16 -520 -5 -55 7 -118 14 -140 15
-22 2 -73 6 -114 10 -49 5 -71 4 -67 -3 3 -6 2 -13 -3 -16 -5 -4 -12 2 -14 11
-4 14 -5 13 -6 -4 0 -13 -6 -23 -12 -23 -5 0 -7 -5 -3 -11 4 -8 9 -8 17 0 6 6
16 11 21 11 6 0 1 -7 -11 -15 -12 -8 -30 -12 -40 -9 -17 6 -17 6 0 -8 21 -16
20 -67 -2 -84 -8 -6 -11 -18 -8 -28 4 -9 3 -15 -1 -12 -5 3 -9 -11 -9 -30 -1
-28 4 -37 23 -44 27 -11 33 -23 7 -13 -10 3 -38 17 -63 30 -25 14 -36 17 -25
8 37 -31 199 -104 290 -130 154 -44 271 -58 500 -59 302 -1 503 33 675 115
111 52 146 86 144 136 -1 36 -3 152 -4 200 0 13 9 38 20 55 22 37 25 48 10 48
-5 0 -10 -5 -10 -11z m-26 -326 c-5 -5 -12 -12 -16 -18 -4 -6 -8 -2 -8 8 0 9
7 17 17 17 9 0 12 -3 7 -7z"/>
<path d="M1315 5673 c-128 -15 -206 -28 -310 -54 -120 -29 -246 -82 -253 -107
-3 -9 13 -5 44 11 193 97 494 153 779 145 92 -3 134 -2 100 2 -61 8 -305 10
-360 3z"/>
<path d="M1878 5673 c7 -3 16 -2 19 1 4 3 -2 6 -13 5 -11 0 -14 -3 -6 -6z"/>
<path d="M1753 5653 c9 -2 23 -2 30 0 6 3 -1 5 -18 5 -16 0 -22 -2 -12 -5z"/>
<path d="M4380 5635 c0 -5 5 -17 10 -25 5 -8 10 -10 10 -5 0 6 -5 17 -10 25
-5 8 -10 11 -10 5z"/>
<path d="M748 5574 c-27 -13 -48 -27 -48 -29 0 -5 99 42 109 51 13 11 -20 0
-61 -22z"/>
<path d="M7538 5553 c7 -3 16 -2 19 1 4 3 -2 6 -13 5 -11 0 -14 -3 -6 -6z"/>
<path d="M8314 5522 c28 -36 34 -88 16 -123 -7 -12 -7 -19 -1 -19 15 0 30 33
26 56 -2 10 -4 27 -4 36 -1 10 -15 32 -32 50 l-31 33 26 -33z"/>
<path d="M7475 5503 c-27 -34 -30 -47 -35 -129 l-5 -91 43 -18 c27 -11 41 -22
38 -31 -9 -24 82 -87 148 -101 87 -18 267 -15 341 5 55 16 62 21 82 61 12 24
40 57 63 73 22 17 47 43 55 58 8 15 29 43 47 60 32 32 32 33 11 41 -16 6 -20
14 -16 29 3 12 -2 28 -12 40 -16 18 -29 19 -259 13 -217 -5 -368 3 -451 23
-14 3 -28 -6 -50 -33z"/>
<path d="M2300 5495 c13 -14 26 -25 28 -25 3 0 -5 11 -18 25 -13 14 -26 25
-28 25 -3 0 5 -11 18 -25z"/>
<path d="M8395 5499 c11 -6 32 -25 47 -43 15 -17 28 -28 28 -24 0 15 -63 78
-79 78 -13 -1 -12 -3 4 -11z"/>
<path d="M5772 5425 c-1 -27 -5 -68 -8 -90 -4 -32 -3 -36 6 -23 6 11 9 48 7
90 -2 55 -4 61 -5 23z"/>
<path d="M8416 5425 c4 -8 1 -21 -5 -28 -8 -10 1 -22 39 -50 58 -43 63 -45 50
-14 -5 12 -11 35 -15 50 -3 15 -9 25 -14 23 -5 -3 -16 3 -26 14 -21 24 -37 26
-29 5z"/>
<path d="M5563 5423 c9 -2 23 -2 30 0 6 3 -1 5 -18 5 -16 0 -22 -2 -12 -5z"/>
<path d="M5634 5391 c31 -34 38 -91 16 -128 -22 -37 -21 -37 14 -23 18 6 24
14 19 26 -3 9 0 20 8 24 11 7 9 17 -10 52 -30 55 -41 68 -54 68 -5 0 -2 -9 7
-19z"/>
<path d="M4669 5383 c-13 -16 -12 -17 4 -4 16 13 21 21 13 21 -2 0 -10 -8 -17
-17z"/>
<path d="M5430 5385 c-190 -29 -460 -29 -621 1 -32 6 -33 6 -14 -9 17 -14 18
-16 3 -17 -24 0 -60 -49 -53 -72 4 -10 2 -18 -4 -18 -18 0 -12 -26 9 -45 11
-10 20 -26 20 -35 0 -18 32 -51 68 -69 16 -9 22 -21 22 -46 0 -64 45 -83 215
-92 77 -4 136 -1 196 10 116 20 155 39 170 85 6 19 28 52 48 73 95 97 130 179
76 179 -33 0 -42 25 -20 50 18 19 17 20 -6 19 -13 -1 -62 -7 -109 -14z"/>
<path d="M2364 5290 c0 -52 1 -74 3 -47 2 26 2 68 0 95 -2 26 -3 4 -3 -48z"/>
<path d="M4641 5346 c-22 -27 -25 -85 -6 -106 10 -11 24 -20 32 -20 10 0 10 6
-4 28 -10 15 -22 30 -27 34 -6 4 -6 11 1 20 10 12 24 58 18 58 -1 0 -8 -6 -14
-14z"/>
<path d="M4482 5273 c-21 -8 -35 -45 -38 -98 -3 -44 -2 -47 9 -28 7 12 28 34
46 48 23 16 35 34 36 50 0 18 -3 24 -14 20 -8 -3 -17 -2 -20 3 -3 5 -12 7 -19
5z"/>
<path d="M5750 5263 c0 -13 5 -23 10 -23 13 0 13 11 0 30 -8 12 -10 11 -10 -7z"/>
<path d="M2217 5174 c-16 -9 -36 -17 -45 -19 -9 -2 -57 -18 -107 -35 -199 -68
-374 -96 -665 -106 -241 -9 -216 -9 -310 2 -41 4 -94 8 -117 8 -23 0 -40 3
-37 7 2 3 -32 7 -75 7 -43 1 -82 2 -87 3 -32 6 -48 -27 -34 -67 4 -10 3 -22
-3 -26 -7 -4 -6 -12 4 -24 8 -10 9 -15 3 -11 -12 7 -12 -81 0 -101 3 -6 0 -13
-6 -15 -9 -4 -10 -8 -2 -14 6 -4 13 -16 17 -26 4 -10 21 -23 37 -29 17 -6 29
-12 27 -15 -5 -5 -100 31 -142 54 -16 8 -44 28 -61 42 -16 14 -11 7 13 -16 30
-29 69 -52 126 -74 204 -79 393 -105 692 -96 206 6 338 23 483 63 136 36 289
105 277 124 -3 5 9 20 27 34 l33 25 -2 93 c-1 51 -4 115 -6 143 -4 32 -1 52 6
57 8 5 5 8 -8 8 -17 0 -17 2 -5 10 24 16 -2 11 -33 -6z"/>
<path d="M7204 4948 c16 -21 30 -38 33 -38 8 0 -16 36 -38 55 -19 16 -18 13 5
-17z"/>
<path d="M6184 4963 c-33 -6 -37 -40 -7 -61 14 -9 39 -29 56 -43 l30 -26 -42
-7 c-23 -3 -44 -13 -47 -20 -9 -24 25 -75 66 -98 28 -16 40 -30 40 -46 0 -43
19 -61 88 -83 52 -16 93 -21 182 -22 151 -1 251 22 283 65 23 30 35 43 100
102 45 41 47 61 7 81 -43 22 -37 40 21 61 27 10 55 24 60 30 16 19 -20 54 -56
55 -30 1 -30 1 -5 10 21 7 19 8 -10 3 -156 -23 -400 -30 -550 -13 -122 13
-190 17 -216 12z"/>
<path d="M2346 4942 c-7 -20 -71 -83 -116 -114 -14 -9 -20 -17 -13 -17 6 -1
37 22 68 50 55 51 81 86 72 96 -3 2 -8 -4 -11 -15z"/>
<path d="M5921 4881 c-17 -5 -28 -18 -37 -51 -8 -25 -14 -48 -14 -52 0 -4 27
6 59 23 33 16 64 29 69 29 5 0 16 8 23 18 13 16 12 16 -5 2 -16 -13 -20 -12
-32 5 -8 10 -14 22 -14 27 0 9 -14 9 -49 -1z"/>
<path d="M7216 4881 c-4 -5 0 -12 6 -14 9 -4 8 -6 -2 -6 -8 -1 -20 -11 -25
-23 -9 -21 -5 -26 55 -55 36 -18 65 -33 66 -33 6 -1 -46 93 -62 113 -24 29
-30 32 -38 18z"/>
<path d="M1715 4324 c-126 -21 -374 -28 -509 -15 -65 6 -121 9 -124 6 -12 -11
15 -40 56 -60 49 -24 51 -31 15 -40 -15 -3 -38 -18 -51 -32 -20 -22 -22 -30
-13 -50 6 -14 29 -32 50 -41 32 -14 40 -23 47 -57 14 -63 38 -70 234 -70 231
1 350 33 350 95 0 15 9 35 21 46 43 39 43 53 3 70 l-37 15 31 19 c35 22 52 48
52 82 0 26 -17 49 -34 47 -6 -1 -47 -8 -91 -15z"/>
<path d="M1960 4280 c20 -13 33 -13 25 0 -3 6 -14 10 -23 10 -15 0 -15 -2 -2
-10z"/>
<path d="M1950 4247 c0 -13 -5 -28 -12 -35 -22 -22 10 -13 38 11 l26 23 -26
12 c-24 11 -26 10 -26 -11z"/>
<path d="M941 4224 c0 -11 3 -14 6 -6 3 7 2 16 -1 19 -3 4 -6 -2 -5 -13z"/>
<path d="M9659 3803 c-13 -16 -12 -17 4 -4 16 13 21 21 13 21 -2 0 -10 -8 -17
-17z"/>
<path d="M9645 3762 c-87 -94 -252 -160 -483 -193 -79 -11 -418 -7 -502 5 -35
6 -35 6 -5 -4 89 -29 456 -29 595 0 200 42 349 115 425 208 44 53 24 43 -30
-16z"/>
<path d="M9615 3773 c-76 -60 -256 -115 -460 -139 -124 -15 -413 -14 -500 2
-26 4 -28 4 -11 -7 33 -20 381 -24 526 -5 206 28 377 82 450 144 29 25 25 29
-5 5z"/>
<path d="M3110 3606 c0 -2 8 -10 18 -17 15 -13 16 -12 3 4 -13 16 -21 21 -21
13z"/>
<path d="M3150 3576 c0 -2 8 -10 18 -17 15 -13 16 -12 3 4 -13 16 -21 21 -21
13z"/>
<path d="M3190 3546 c0 -3 9 -10 20 -16 11 -6 20 -8 20 -6 0 3 -9 10 -20 16
-11 6 -20 8 -20 6z"/>
<path d="M3183 3503 c43 -49 215 -118 369 -148 114 -22 361 -30 473 -16 119
15 246 41 265 53 11 7 8 8 -10 4 -173 -40 -263 -50 -440 -50 -201 0 -297 13
-445 61 -92 30 -146 55 -195 91 -27 20 -31 21 -17 5z"/>
<path d="M3295 3490 c22 -10 54 -21 70 -25 17 -3 1 6 -35 19 -76 30 -93 32
-35 6z"/>
<path d="M4210 3450 c-126 -27 -338 -44 -465 -36 -98 6 -143 11 -275 30 -19 3
-10 -1 20 -9 101 -27 335 -40 492 -27 146 11 295 37 313 53 5 5 7 9 5 8 -3 -1
-43 -9 -90 -19z"/>
<path d="M3408 3453 c7 -3 16 -2 19 1 4 3 -2 6 -13 5 -11 0 -14 -3 -6 -6z"/>
<path d="M8510 3157 c-141 -132 -348 -195 -685 -207 l-200 -7 150 -1 c176 -2
284 9 415 44 135 35 247 92 323 164 34 33 60 59 57 59 -3 0 -30 -23 -60 -52z"/>
<path d="M8495 3174 c-18 -16 -22 -22 -9 -15 18 9 53 42 43 41 -2 -1 -17 -12
-34 -26z"/>
<path d="M8400 3120 c-30 -16 -51 -29 -47 -30 10 0 107 49 107 55 0 7 1 7 -60
-25z"/>
<path d="M8280 3073 c-203 -65 -544 -81 -821 -38 -28 5 -30 4 -11 -4 78 -35
505 -39 672 -6 91 17 220 53 220 60 0 7 -9 5 -60 -12z"/>
<path d="M4440 3046 c0 -3 9 -10 20 -16 11 -6 20 -8 20 -6 0 3 -9 10 -20 16
-11 6 -20 8 -20 6z"/>
<path d="M4540 2990 c8 -5 20 -10 25 -10 6 0 3 5 -5 10 -8 5 -19 10 -25 10 -5
0 -3 -5 5 -10z"/>
<path d="M5615 2969 c-106 -34 -285 -60 -470 -69 l-180 -8 190 4 c105 2 226
10 270 18 102 17 244 56 251 67 3 5 4 9 2 8 -2 0 -30 -9 -63 -20z"/>
<path d="M4490 2976 c0 -3 9 -10 20 -16 11 -6 20 -8 20 -6 0 3 -9 10 -20 16
-11 6 -20 8 -20 6z"/>
<path d="M7460 2970 c14 -4 36 -8 50 -8 22 0 22 1 -5 8 -16 4 -39 8 -50 8 -16
0 -15 -2 5 -8z"/>
<path d="M7558 2953 c12 -2 30 -2 40 0 9 3 -1 5 -23 4 -22 0 -30 -2 -17 -4z"/>
<path d="M4678 2943 c7 -3 16 -2 19 1 4 3 -2 6 -13 5 -11 0 -14 -3 -6 -6z"/>
<path d="M4592 2919 c53 -27 211 -68 288 -74 l65 -5 -80 14 c-96 16 -226 51
-265 71 -16 8 -33 15 -37 15 -4 -1 9 -10 29 -21z"/>
<path d="M4730 2930 c14 -4 36 -8 50 -8 22 0 22 1 -5 8 -16 4 -39 8 -50 8 -16
0 -15 -2 5 -8z"/>
<path d="M5615 2908 c-134 -43 -256 -60 -465 -68 l-205 -7 160 -1 c88 -1 201
3 250 9 81 10 312 63 324 74 12 13 -9 10 -64 -7z"/>
<path d="M4845 2910 c40 -9 122 -13 114 -6 -2 2 -38 6 -79 9 -56 4 -65 3 -35
-3z"/>
<path d="M7329 2603 c-13 -16 -12 -17 4 -4 9 7 17 15 17 17 0 8 -8 3 -21 -13z"/>
<path d="M5758 2584 c73 -105 299 -212 530 -250 137 -23 406 -23 537 0 205 37
368 106 466 197 l54 51 -55 -47 c-107 -90 -298 -164 -505 -196 -102 -16 -356
-15 -460 0 -226 34 -409 109 -522 214 -42 39 -59 51 -45 31z"/>
<path d="M5800 2586 c0 -2 8 -10 18 -17 15 -13 16 -12 3 4 -13 16 -21 21 -21
13z"/>
<path d="M7275 2565 c-78 -64 -259 -130 -445 -162 -116 -20 -409 -22 -525 -4
-112 17 -253 55 -335 90 -39 17 -68 26 -65 21 9 -14 162 -70 260 -95 260 -66
625 -55 876 26 86 28 198 83 240 119 41 35 36 39 -6 5z"/>
<path d="M5844 2551 c7 -11 46 -35 46 -28 0 3 -12 12 -26 22 -15 9 -23 12 -20
6z"/>
<path d="M2268 2147 c-152 -137 -425 -214 -803 -227 l-200 -7 160 -1 c364 -3
694 85 846 227 65 61 63 67 -3 8z"/>
<path d="M2250 2097 c-111 -106 -290 -185 -505 -222 -195 -34 -481 -28 -644
12 -87 22 -206 72 -264 112 -26 18 -47 29 -47 26 0 -13 125 -85 188 -109 161
-60 320 -81 546 -73 330 13 570 94 726 244 41 40 73 72 70 72 -3 0 -34 -28
-70 -62z"/>
<path d="M740 2106 c36 -40 129 -93 218 -126 84 -31 224 -61 276 -59 17 1 -9
7 -59 15 -167 26 -310 81 -408 156 -35 28 -44 32 -27 14z"/>
</g>
</svg>
