<?xml version="1.0" standalone="no"?>
<!DOCTYPE svg PUBLIC "-//W3C//DTD SVG 20010904//EN"
 "http://www.w3.org/TR/2001/REC-SVG-20010904/DTD/svg10.dtd">
<svg version="1.0" xmlns="http://www.w3.org/2000/svg"
 width="1024.000000pt" height="1024.000000pt" viewBox="0 0 1024.000000 1024.000000"
 preserveAspectRatio="xMidYMid meet">
<metadata>
Created by potrace 1.16, written by Peter Selinger 2001-2019
</metadata>
<g transform="translate(0.000000,1024.000000) scale(0.100000,-0.100000)"
fill="#000000" stroke="none">
<path d="M6068 8293 c6 -2 18 -2 25 0 6 3 1 5 -13 5 -14 0 -19 -2 -12 -5z"/>
<path d="M5873 8283 c9 -2 25 -2 35 0 9 3 1 5 -18 5 -19 0 -27 -2 -17 -5z"/>
<path d="M5763 8273 c9 -2 25 -2 35 0 9 3 1 5 -18 5 -19 0 -27 -2 -17 -5z"/>
<path d="M5673 8263 c9 -2 25 -2 35 0 9 3 1 5 -18 5 -19 0 -27 -2 -17 -5z"/>
<path d="M6528 8263 c6 -2 18 -2 25 0 6 3 1 5 -13 5 -14 0 -19 -2 -12 -5z"/>
<path d="M5608 8253 c7 -3 16 -2 19 1 4 3 -2 6 -13 5 -11 0 -14 -3 -6 -6z"/>
<path d="M5538 8243 c7 -3 16 -2 19 1 4 3 -2 6 -13 5 -11 0 -14 -3 -6 -6z"/>
<path d="M6668 8243 c7 -3 16 -2 19 1 4 3 -2 6 -13 5 -11 0 -14 -3 -6 -6z"/>
<path d="M5488 8233 c7 -3 16 -2 19 1 4 3 -2 6 -13 5 -11 0 -14 -3 -6 -6z"/>
<path d="M5174 8098 l-19 -23 23 19 c21 18 27 26 19 26 -2 0 -12 -10 -23 -22z"/>
<path d="M7131 8061 l34 -43 -3 -131 -4 -132 -43 -46 c-23 -25 -46 -56 -50
-68 -4 -12 -9 -20 -12 -18 -6 6 24 66 45 90 14 16 13 17 -8 17 -17 0 -21 4
-17 20 3 11 2 22 -2 25 -4 2 -7 14 -6 27 1 13 -1 35 -6 50 -5 18 -3 33 7 45
36 48 9 48 -171 -3 -138 -38 -292 -60 -485 -69 -74 -3 -157 -8 -185 -11 -98
-12 -122 -14 -240 -20 -149 -8 -396 9 -535 37 -58 11 -117 22 -131 23 -14 2
-41 14 -60 28 -19 14 -53 35 -77 47 -24 12 -47 32 -52 44 -9 19 -10 19 -7 2 1
-11 17 -29 35 -40 104 -63 182 -144 182 -188 0 -18 -2 -19 -10 -7 -8 12 -10 9
-10 -11 0 -38 -45 -69 -140 -98 -25 -7 -54 -17 -65 -21 -43 -17 -146 -37 -238
-46 -28 -3 -54 -7 -58 -10 -4 -2 -31 -6 -61 -9 -59 -6 -78 -9 -193 -25 -158
-22 -294 -28 -540 -25 -137 1 -259 5 -270 8 -11 2 -51 8 -90 11 -38 4 -92 9
-119 12 -27 3 -75 14 -105 24 -31 11 -74 22 -96 26 -22 3 -54 14 -71 25 -51
31 -48 22 8 -24 73 -60 101 -103 94 -146 -8 -48 -29 -64 -126 -96 -184 -60
-421 -111 -603 -131 -21 -2 -42 -6 -46 -8 -3 -3 -45 -7 -91 -11 -47 -3 -123
-10 -170 -16 -47 -5 -125 -12 -175 -14 -49 -3 -99 -6 -110 -8 -11 -2 -49 -7
-85 -11 -107 -12 -124 -16 -144 -34 -11 -9 -16 -12 -13 -5 9 14 -31 5 -40 -10
-3 -5 -1 -7 5 -3 6 3 22 1 36 -5 24 -11 24 -13 8 -26 -16 -12 -16 -14 1 -24 9
-5 15 -15 12 -20 -4 -5 -11 -7 -16 -4 -5 4 -9 -1 -9 -10 0 -9 5 -13 11 -9 7 4
7 -1 -1 -16 -11 -20 -10 -22 4 -17 14 6 13 1 -5 -26 -12 -17 -16 -26 -9 -19
18 16 27 15 27 -3 0 -8 -5 -11 -11 -8 -6 4 -5 -1 3 -10 9 -12 10 -17 2 -17 -7
0 -9 -5 -6 -10 4 -6 11 -8 16 -5 13 8 11 -9 -2 -22 -8 -8 -4 -16 13 -28 12
-10 16 -15 8 -12 -10 3 -16 -2 -16 -13 0 -10 5 -16 10 -13 5 4 7 -1 3 -10 -4
-10 -10 -24 -14 -34 -4 -10 -2 -14 4 -10 6 4 10 -6 11 -24 0 -16 -4 -27 -9
-23 -5 3 -7 9 -4 14 3 5 1 11 -4 14 -13 8 -2 -55 12 -73 9 -11 9 -13 0 -8 -17
11 -27 -11 -12 -29 7 -8 8 -14 3 -13 -23 4 -26 -2 -8 -16 11 -9 13 -13 4 -10
-11 4 -15 -3 -16 -24 -1 -20 5 -32 15 -35 9 -2 -31 -3 -89 -1 l-105 4 95 -14
c144 -21 510 -29 685 -16 186 14 329 21 293 15 -16 -3 -28 -12 -28 -20 0 -12
4 -12 20 -4 21 11 27 1 9 -17 -7 -7 -4 -10 13 -9 13 0 26 4 29 8 3 5 14 1 25
-7 14 -11 15 -15 4 -14 -37 3 -49 -1 -43 -17 4 -11 8 -12 13 -4 15 24 35 4 41
-40 3 -25 7 97 8 270 l1 315 28 50 c21 39 44 61 105 101 187 124 542 190 1078
201 337 7 537 -12 800 -78 206 -51 299 -104 349 -200 36 -70 39 -112 8 -138
-13 -11 -34 -29 -46 -40 -15 -13 -21 -25 -16 -33 6 -10 4 -10 -9 1 -13 10 -17
10 -17 1 0 -7 -7 -10 -15 -6 -8 3 -15 0 -15 -7 0 -7 -16 -13 -40 -13 -22 -1
-37 2 -34 7 3 5 9 7 14 4 4 -3 10 2 14 10 8 21 -3 19 -134 -19 -142 -42 -170
-53 -170 -66 0 -6 -4 -9 -8 -6 -5 3 -33 -1 -63 -10 -30 -8 -70 -16 -89 -19
-135 -18 -148 -21 -182 -34 -20 -8 -28 -7 -28 0 0 8 -5 7 -15 -1 -13 -11 -61
-15 -270 -24 -44 -2 -81 -5 -82 -6 -2 -1 -13 -3 -25 -3 -13 -1 -26 -6 -30 -11
-5 -7 -8 -7 -8 2 0 18 -27 15 -34 -4 -5 -14 -9 -14 -23 -3 -15 12 -16 12 -10
-5 6 -14 4 -17 -8 -12 -8 3 -15 1 -15 -4 0 -6 -3 -9 -7 -9 -21 3 -33 -2 -28
-12 4 -6 9 -8 12 -5 3 3 12 -2 20 -10 8 -8 20 -11 26 -8 9 5 9 4 1 -5 -9 -10
-16 -10 -33 1 -23 14 -52 3 -58 -23 -3 -9 -1 -8 6 3 7 10 19 14 31 11 20 -5
28 -23 10 -23 -9 0 -6 -52 4 -69 4 -5 2 -12 -4 -16 -16 -10 -12 -38 5 -31 9 3
15 0 15 -10 0 -8 4 -12 10 -9 5 3 7 0 5 -8 -3 -7 6 -30 20 -51 14 -20 21 -35
15 -31 -5 3 -10 2 -10 -4 0 -5 -11 -8 -25 -6 -31 3 -32 -3 -4 -13 21 -8 21 -9
3 -27 -17 -17 -17 -18 -1 -12 21 8 23 -15 2 -33 -8 -7 -12 -17 -9 -22 3 -5 12
-1 20 9 12 15 13 15 8 1 -4 -13 -1 -15 14 -11 11 2 23 0 26 -5 4 -6 -2 -8 -14
-5 -24 6 -27 -13 -4 -38 12 -13 12 -19 3 -25 -7 -4 -10 -3 -6 3 4 6 0 17 -9
24 -13 11 -15 11 -14 -2 4 -26 0 -40 -9 -34 -6 3 -9 -4 -8 -14 1 -16 6 -19 27
-15 23 5 24 4 8 -9 -10 -8 -18 -19 -18 -25 0 -6 -5 -14 -12 -18 -7 -4 -8 -3
-4 4 5 8 1 10 -10 5 -16 -6 -15 -7 2 -20 16 -12 12 -18 -10 -14 -5 1 -6 -5 -3
-13 5 -11 0 -13 -24 -6 -16 5 -30 6 -31 2 -5 -23 -2 -38 7 -44 12 -9 -127 -2
-268 14 -54 6 -100 8 -103 6 -7 -7 164 -26 351 -39 243 -17 700 -6 875 20 108
16 336 67 432 97 12 4 16 1 13 -8 -3 -8 2 -31 11 -53 12 -30 18 -35 25 -24 16
22 -1 -161 -17 -192 -18 -35 -74 -79 -151 -118 -35 -17 -63 -34 -63 -36 0 -3
33 11 73 31 159 79 174 106 179 306 2 76 6 138 9 138 3 0 24 16 47 36 l42 36
32 -27 c32 -27 179 -105 198 -105 6 0 30 -9 53 -20 23 -11 68 -25 102 -30 74
-12 112 -12 70 1 -21 6 -36 20 -47 46 -10 20 -15 39 -13 42 3 2 5 0 5 -6 0 -6
9 -9 20 -6 18 5 19 7 4 41 -8 19 -11 38 -6 41 19 13 17 120 -3 133 -6 5 -3 8
8 8 15 0 21 11 15 25 -2 3 4 10 12 15 13 8 12 10 -2 10 -10 0 -18 3 -18 8 0 4
57 4 127 0 475 -27 654 -29 898 -7 224 20 467 72 555 119 l23 12 -5 -119 c-5
-156 -25 -200 -115 -258 -97 -63 -102 -68 -35 -33 131 68 160 121 166 312 4
117 4 118 33 136 79 49 102 101 103 228 0 39 3 72 6 72 3 0 56 -9 117 -19 513
-88 1341 -51 1580 70 l37 19 2 -52 1 -53 6 56 c5 48 11 60 43 88 62 54 66 78
71 426 2 171 0 270 -4 220 -4 -49 -7 -184 -8 -300 -1 -115 -6 -228 -11 -250
-6 -30 -22 -52 -61 -87 -29 -27 -57 -48 -63 -48 -6 0 -5 5 2 12 14 14 16 32 2
23 -6 -3 -7 1 -4 9 3 9 11 13 17 9 6 -4 7 -1 2 8 -12 19 -18 92 -7 85 12 -7
11 26 -1 42 -8 10 -8 16 0 20 6 4 9 49 8 120 -1 62 1 115 6 118 5 3 6 13 1 22
-9 21 -9 43 1 60 5 7 3 12 -3 12 -6 0 -10 10 -9 23 2 12 0 28 -5 36 -5 8 -4
16 4 21 9 6 8 9 -6 12 -17 3 -16 5 6 27 21 21 22 23 5 17 -11 -4 -38 -10 -60
-12 -48 -6 -243 -46 -283 -58 -9 -3 -46 -8 -82 -11 -82 -7 -152 -14 -210 -20
-164 -18 -325 -27 -455 -27 -125 0 -385 11 -395 17 -3 2 -35 6 -70 10 -124 13
-283 54 -361 95 -31 17 -63 30 -70 30 -23 0 -69 63 -69 94 0 34 31 88 67 116
25 20 27 25 31 145 4 113 2 127 -17 158 -11 18 -30 42 -43 53 -12 10 -6 -1 13
-25z m-579 -476 c441 -37 665 -101 789 -225 68 -68 70 -84 61 -366 l-9 -239
-3 230 c-2 127 -5 205 -7 175 -1 -30 -5 -84 -9 -120 -5 -55 -8 -62 -19 -47 -7
9 -18 17 -26 18 -8 0 -5 4 6 9 15 6 16 9 4 9 -9 1 -16 7 -16 15 0 9 6 12 16 8
9 -3 3 6 -13 19 -25 22 -34 25 -75 18 -34 -5 -50 -3 -62 7 -9 8 -20 11 -24 7
-5 -5 -4 -1 3 8 10 14 4 14 -66 -1 -267 -60 -448 -96 -527 -104 -16 -2 -30 -5
-30 -6 0 -11 -129 -22 -415 -35 -63 -3 -132 -7 -152 -9 -20 -2 -53 -1 -72 4
-20 4 -34 4 -31 0 3 -4 -10 -6 -28 -4 -17 1 -42 3 -55 3 -14 1 -21 5 -17 12 4
6 -1 5 -13 -2 -11 -7 -27 -9 -38 -4 -11 4 -32 9 -49 11 -16 2 -41 6 -55 10
-14 3 -27 6 -30 6 -3 1 -18 5 -35 10 -16 5 -45 11 -63 13 -18 3 -49 12 -70 21
-20 8 -39 15 -42 16 -3 0 -21 11 -40 23 -19 12 -45 25 -57 29 -13 4 -29 13
-36 19 -7 7 -35 24 -62 38 -28 15 -54 36 -60 48 -14 30 -23 26 -28 -11 -3 -24
-4 -19 -5 17 -4 116 44 183 172 245 145 70 353 107 746 133 130 9 380 5 542
-8z m495 -27 c-3 -8 -6 -5 -6 6 -1 11 2 17 5 13 3 -3 4 -12 1 -19z m150 -74
c-5 -5 -57 13 -57 20 0 3 14 0 31 -6 16 -6 28 -12 26 -14z m-1967 -536 c15
-34 19 -63 18 -138 l-1 -95 -7 105 c-4 80 -11 115 -28 147 -12 23 -26 44 -32
48 -5 3 -10 11 -10 17 0 17 39 -37 60 -84z m-3360 -118 c0 -5 -5 -10 -11 -10
-5 0 -7 5 -4 10 3 6 8 10 11 10 2 0 4 -4 4 -10z m5510 -190 c0 -5 -5 -10 -11
-10 -5 0 -7 5 -4 10 3 6 8 10 11 10 2 0 4 -4 4 -10z m-5505 -50 c3 -6 -1 -7
-9 -4 -18 7 -21 14 -7 14 6 0 13 -4 16 -10z m5485 -70 c-27 -39 -34 -39 -12 0
9 16 21 30 25 30 5 0 -1 -13 -13 -30z m-40 -34 c0 -3 -4 -8 -10 -11 -5 -3 -10
-1 -10 4 0 6 5 11 10 11 6 0 10 -2 10 -4z m-5372 -13 c-16 -2 -40 -2 -55 0
-16 2 -3 4 27 4 30 0 43 -2 28 -4z m3353 -99 c24 -9 64 -23 89 -31 l45 -13
-42 5 c-27 3 -43 1 -43 -5 0 -6 3 -9 8 -7 4 3 21 -1 37 -9 19 -9 22 -12 7 -8
-19 5 -17 -1 17 -35 21 -22 37 -42 35 -44 -3 -2 1 -17 7 -33 6 -16 11 -42 10
-58 -1 -22 2 -27 14 -22 10 3 14 2 10 -5 -4 -6 1 -17 11 -25 18 -15 18 -15 -4
-11 -19 4 -22 2 -17 -14 4 -10 2 -19 -3 -19 -5 0 -7 -12 -4 -27 5 -25 3 -26
-10 -15 -12 10 -17 10 -20 1 -5 -14 -148 58 -191 97 -25 21 -27 27 -15 41 9
11 13 50 13 134 0 66 1 119 1 119 1 0 21 -7 45 -16z m228 -60 c9 -8 -55 -2
-74 6 -13 6 -5 7 25 3 25 -3 47 -7 49 -9z m105 -260 c11 -28 6 -34 -12 -16
-11 9 -17 20 -15 25 7 12 21 8 27 -9z m-113 -13 c-11 -7 -10 -11 5 -20 17 -11
16 -11 -5 -5 -16 4 -21 3 -17 -5 4 -6 2 -11 -3 -11 -15 0 -14 37 2 43 20 9 33
7 18 -2z m-1651 -65 c0 -3 -4 -8 -10 -11 -5 -3 -10 -1 -10 4 0 6 5 11 10 11 6
0 10 -2 10 -4z m-70 -62 c0 -2 -9 0 -20 6 -11 6 -20 13 -20 16 0 2 9 0 20 -6
11 -6 20 -13 20 -16z"/>
<path d="M7240 7131 c0 -5 5 -13 10 -16 6 -3 10 -2 10 4 0 5 -4 13 -10 16 -5
3 -10 2 -10 -4z"/>
<path d="M4083 8033 c9 -2 23 -2 30 0 6 3 -1 5 -18 5 -16 0 -22 -2 -12 -5z"/>
<path d="M4433 8033 c15 -2 37 -2 50 0 12 2 0 4 -28 4 -27 0 -38 -2 -22 -4z"/>
<path d="M3958 8023 c6 -2 18 -2 25 0 6 3 1 5 -13 5 -14 0 -19 -2 -12 -5z"/>
<path d="M4638 8023 c7 -3 16 -2 19 1 4 3 -2 6 -13 5 -11 0 -14 -3 -6 -6z"/>
<path d="M5131 8014 c0 -11 3 -14 6 -6 3 7 2 16 -1 19 -3 4 -6 -2 -5 -13z"/>
<path d="M3838 8013 c6 -2 18 -2 25 0 6 3 1 5 -13 5 -14 0 -19 -2 -12 -5z"/>
<path d="M3758 8003 c6 -2 18 -2 25 0 6 3 1 5 -13 5 -14 0 -19 -2 -12 -5z"/>
<path d="M3548 7963 c7 -3 16 -2 19 1 4 3 -2 6 -13 5 -11 0 -14 -3 -6 -6z"/>
<path d="M8043 7903 c9 -2 25 -2 35 0 9 3 1 5 -18 5 -19 0 -27 -2 -17 -5z"/>
<path d="M8318 7903 c12 -2 32 -2 45 0 12 2 2 4 -23 4 -25 0 -35 -2 -22 -4z"/>
<path d="M7933 7893 c9 -2 23 -2 30 0 6 3 -1 5 -18 5 -16 0 -22 -2 -12 -5z"/>
<path d="M8518 7893 c7 -3 16 -2 19 1 4 3 -2 6 -13 5 -11 0 -14 -3 -6 -6z"/>
<path d="M8618 7883 c7 -3 16 -2 19 1 4 3 -2 6 -13 5 -11 0 -14 -3 -6 -6z"/>
<path d="M7693 7873 c9 -2 25 -2 35 0 9 3 1 5 -18 5 -19 0 -27 -2 -17 -5z"/>
<path d="M7618 7863 c6 -2 18 -2 25 0 6 3 1 5 -13 5 -14 0 -19 -2 -12 -5z"/>
<path d="M7548 7853 c7 -3 16 -2 19 1 4 3 -2 6 -13 5 -11 0 -14 -3 -6 -6z"/>
<path d="M3213 7700 c0 -47 2 -66 4 -42 2 23 2 61 0 85 -2 23 -4 4 -4 -43z"/>
<path d="M2218 7733 c6 -2 18 -2 25 0 6 3 1 5 -13 5 -14 0 -19 -2 -12 -5z"/>
<path d="M2323 7733 c32 -2 81 -2 110 0 29 2 3 3 -58 3 -60 0 -84 -1 -52 -3z"/>
<path d="M2088 7723 c6 -2 18 -2 25 0 6 3 1 5 -13 5 -14 0 -19 -2 -12 -5z"/>
<path d="M2658 7723 c7 -3 16 -2 19 1 4 3 -2 6 -13 5 -11 0 -14 -3 -6 -6z"/>
<path d="M1943 7713 c9 -2 23 -2 30 0 6 3 -1 5 -18 5 -16 0 -22 -2 -12 -5z"/>
<path d="M2858 7703 c7 -3 16 -2 19 1 4 3 -2 6 -13 5 -11 0 -14 -3 -6 -6z"/>
<path d="M1708 7683 c7 -3 16 -2 19 1 4 3 -2 6 -13 5 -11 0 -14 -3 -6 -6z"/>
<path d="M1578 7663 c7 -3 16 -2 19 1 4 3 -2 6 -13 5 -11 0 -14 -3 -6 -6z"/>
<path d="M9238 7645 c5 -11 12 -27 15 -35 5 -13 6 -13 6 1 1 8 -6 24 -15 35
-15 19 -15 19 -6 -1z"/>
<path d="M1164 7508 l-29 -33 33 29 c17 17 32 31 32 33 0 8 -8 1 -36 -29z"/>
<path d="M1103 6790 c0 -30 2 -43 4 -27 2 15 2 39 0 55 -2 15 -4 2 -4 -28z"/>
<path d="M1128 6695 c6 -11 25 -33 44 -50 l33 -30 -35 40 c-19 22 -39 45 -44
50 -5 6 -4 1 2 -10z"/>
<path d="M9132 6605 c0 -16 2 -22 5 -12 2 9 2 23 0 30 -3 6 -5 -1 -5 -18z"/>
<path d="M1797 6515 c3 -8 9 -12 14 -9 12 7 11 11 -5 17 -10 4 -13 1 -9 -8z"/>
<path d="M1508 6513 c7 -3 16 -2 19 1 4 3 -2 6 -13 5 -11 0 -14 -3 -6 -6z"/>
<path d="M9095 6497 c-11 -12 -31 -30 -45 -40 -18 -13 -15 -13 10 2 19 11 41
29 49 41 18 26 11 25 -14 -3z"/>
<path d="M1548 6503 c7 -3 16 -2 19 1 4 3 -2 6 -13 5 -11 0 -14 -3 -6 -6z"/>
<path d="M1603 6493 c9 -2 23 -2 30 0 6 3 -1 5 -18 5 -16 0 -22 -2 -12 -5z"/>
<path d="M3765 6470 c-3 -5 -1 -10 6 -10 8 0 9 -4 0 -13 -8 -10 -7 -14 2 -14
15 0 20 34 7 42 -5 3 -11 1 -15 -5z"/>
<path d="M2620 6449 c0 -5 5 -7 10 -4 6 3 10 8 10 11 0 2 -4 4 -10 4 -5 0 -10
-5 -10 -11z"/>
<path d="M8990 6430 c-8 -5 -10 -10 -5 -10 6 0 17 5 25 10 8 5 11 10 5 10 -5
0 -17 -5 -25 -10z"/>
<path d="M8904 6395 c-10 -8 -14 -14 -9 -14 6 0 19 6 29 14 11 8 15 15 10 15
-6 0 -19 -7 -30 -15z"/>
<path d="M7490 6361 c6 -12 6 -30 0 -52 -13 -44 -13 -122 -1 -114 6 3 8 18 6
33 -1 15 3 36 11 47 14 18 14 18 14 -1 0 -15 2 -16 9 -5 6 9 5 21 -2 32 -15
24 -4 33 22 17 13 -8 19 -19 15 -28 -27 -62 -28 -89 -5 -132 30 -55 106 -134
150 -157 32 -17 35 -22 35 -69 1 -45 5 -56 40 -91 45 -46 140 -92 250 -120
212 -55 422 11 487 154 10 22 19 52 19 67 0 21 8 31 35 44 20 9 52 31 73 50
20 18 50 43 66 56 39 33 49 116 19 157 l-21 27 62 24 c33 13 64 28 68 34 4 6
10 7 15 3 4 -5 1 -12 -6 -17 -12 -7 -12 -13 -1 -40 7 -17 16 -71 19 -118 l6
-87 23 35 c12 19 22 46 22 60 -1 21 -3 18 -15 -13 -28 -79 -30 -48 -3 41 10
34 5 83 -14 138 -11 30 -11 30 -47 18 -20 -6 -90 -20 -156 -30 -100 -16 -177
-19 -465 -19 -303 0 -365 3 -509 23 -90 13 -179 29 -197 37 -32 13 -34 13 -24
-4z m170 -85 c8 -3 -1 -3 -20 0 -19 3 -42 13 -50 20 -15 15 -13 15 70 -20z
m47 -12 c-3 -3 -12 -4 -19 -1 -8 3 -5 6 6 6 11 1 17 -2 13 -5z m-53 -190 c5
-14 4 -15 -9 -4 -17 14 -19 20 -6 20 5 0 12 -7 15 -16z m146 -104 c18 -12 2
-12 -25 0 -13 6 -15 9 -5 9 8 0 22 -4 30 -9z m727 -6 c-3 -3 -12 -4 -19 -1 -8
3 -5 6 6 6 11 1 17 -2 13 -5z"/>
<path d="M3800 6355 c0 -6 7 -21 16 -33 8 -12 10 -22 5 -22 -6 0 -11 -8 -11
-17 0 -15 2 -15 9 -4 7 11 10 11 12 -2 2 -9 9 -13 15 -9 8 5 2 22 -17 52 -16
25 -29 40 -29 35z"/>
<path d="M7472 6329 c-19 -50 -23 -102 -12 -155 6 -30 16 -54 21 -54 6 0 6 7
-1 19 -13 25 -13 125 0 170 11 40 5 55 -8 20z"/>
<path d="M7513 6192 c1 -28 -1 -52 -5 -52 -5 0 -8 -4 -8 -10 0 -14 13 -13 35
3 12 10 15 18 9 28 -5 8 -14 30 -21 49 l-12 35 2 -53z"/>
<path d="M7290 6140 c-8 -5 -10 -10 -5 -10 6 0 17 5 25 10 8 5 11 10 5 10 -5
0 -17 -5 -25 -10z"/>
<path d="M7398 6143 c7 -3 16 -2 19 1 4 3 -2 6 -13 5 -11 0 -14 -3 -6 -6z"/>
<path d="M1545 6116 c17 -14 54 -36 83 -48 56 -23 60 -29 37 -48 -23 -19 -29
-92 -11 -129 9 -17 20 -31 24 -31 4 0 26 -18 49 -39 51 -49 123 -86 187 -95
66 -10 108 -29 46 -21 -25 3 -55 8 -67 12 -20 4 -23 1 -23 -25 0 -69 117 -188
215 -218 180 -55 427 -7 550 107 56 51 75 86 75 134 0 36 0 36 -37 30 -31 -4
-33 -3 -13 4 14 5 36 12 51 15 42 9 107 59 159 122 55 65 62 100 34 157 l-15
32 25 -28 c19 -20 26 -39 26 -68 0 -24 5 -42 14 -45 8 -3 16 -29 20 -66 12
-99 16 -60 7 58 -4 60 -9 88 -10 62 0 -27 -6 -48 -12 -48 -6 0 -9 19 -8 50 3
50 2 52 -50 97 l-52 46 -127 -22 c-70 -12 -172 -26 -227 -31 -134 -14 -553
-14 -679 0 -115 13 -252 38 -281 52 -11 5 -7 -2 10 -16z m172 -82 c-3 -3 -12
-4 -19 -1 -8 3 -5 6 6 6 11 1 17 -2 13 -5z m-50 -76 c-3 -7 -5 -2 -5 12 0 14
2 19 5 13 2 -7 2 -19 0 -25z m230 6 c-3 -3 -12 -4 -19 -1 -8 3 -5 6 6 6 11 1
17 -2 13 -5z m-87 -35 c0 -8 4 -8 13 0 10 8 17 7 27 -2 10 -9 11 -9 6 1 -5 8
1 12 18 12 14 0 29 -6 33 -12 4 -7 13 -13 18 -13 28 -1 115 -28 115 -36 0 -6
-32 -8 -76 -6 -49 3 -71 1 -62 -5 22 -16 -74 -1 -107 16 -17 9 -35 16 -41 16
-7 0 -14 6 -17 14 -4 11 1 13 24 9 17 -2 29 0 29 6 0 6 5 11 10 11 6 0 10 -5
10 -11z m-111 -53 c15 -18 15 -18 -6 -7 -13 6 -23 16 -23 21 0 4 -3 17 -6 27
-5 15 -3 15 7 -2 6 -11 19 -29 28 -39z m91 -82 c0 -3 -13 4 -30 16 -16 12 -30
24 -30 26 0 3 14 -4 30 -16 17 -12 30 -24 30 -26z m837 -60 c-3 -3 -12 -4 -19
-1 -8 3 -5 6 6 6 11 1 17 -2 13 -5z m-702 -114 c10 -11 16 -20 13 -20 -3 0
-13 9 -23 20 -10 11 -16 20 -13 20 3 0 13 -9 23 -20z m36 -47 c13 -16 12 -17
-3 -4 -10 7 -18 15 -18 17 0 8 8 3 21 -13z"/>
<path d="M3825 6120 c3 -5 10 -10 16 -10 5 0 9 5 9 10 0 6 -7 10 -16 10 -8 0
-12 -4 -9 -10z"/>
<path d="M7500 6100 c0 -5 6 -10 14 -10 8 0 18 5 21 10 3 6 -3 10 -14 10 -12
0 -21 -4 -21 -10z"/>
<path d="M3820 6090 c8 -5 20 -10 25 -10 6 0 3 5 -5 10 -8 5 -19 10 -25 10 -5
0 -3 -5 5 -10z"/>
<path d="M3784 6009 c0 -10 4 -19 8 -19 4 0 8 6 8 14 0 8 -4 17 -8 20 -4 2 -8
-4 -8 -15z"/>
<path d="M3165 5960 c11 -5 27 -9 35 -9 9 0 8 4 -5 9 -11 5 -27 9 -35 9 -9 0
-8 -4 5 -9z"/>
<path d="M3780 5960 c0 -5 5 -10 11 -10 5 0 7 5 4 10 -3 6 -8 10 -11 10 -2 0
-4 -4 -4 -10z"/>
<path d="M5479 5946 c7 -9 45 -33 82 -52 38 -20 69 -40 69 -44 0 -4 -7 -24
-15 -43 -25 -60 -11 -93 74 -178 42 -41 91 -82 109 -90 28 -12 32 -19 32 -52
0 -94 84 -167 248 -217 63 -19 90 -22 195 -18 111 3 128 7 188 35 112 52 189
139 189 212 0 23 8 34 36 50 71 42 164 134 174 173 12 42 5 84 -17 110 -14 15
-12 18 19 31 77 32 78 32 78 -10 0 -21 -9 -55 -19 -76 -10 -20 -15 -37 -10
-37 4 0 5 -7 2 -17 -4 -11 -3 -14 5 -9 14 8 32 70 32 111 0 22 3 26 9 16 13
-20 2 -79 -20 -119 -11 -18 -19 -36 -19 -39 0 -14 33 24 51 58 15 30 17 46 10
83 -5 25 -14 52 -20 60 -10 11 -7 17 11 30 12 9 25 16 29 16 15 0 29 -110 23
-180 -3 -41 -8 -77 -11 -80 -10 -10 -63 -7 -63 4 0 8 -2 8 -8 0 -4 -6 -14 -14
-22 -17 -8 -3 14 -6 50 -7 36 -1 94 -11 129 -23 51 -18 67 -28 81 -54 9 -17
30 -47 46 -66 16 -19 37 -44 47 -57 22 -27 31 -22 18 11 -5 14 -5 34 0 47 5
13 6 21 1 19 -10 -7 -27 15 -27 33 0 18 -67 53 -160 81 -38 12 -71 23 -73 24
-2 2 8 14 21 29 20 22 26 23 43 13 10 -7 37 -20 59 -30 34 -15 37 -15 20 -1
-44 35 -98 57 -116 46 -15 -10 -17 -1 -23 91 -4 56 -7 111 -8 123 l0 20 -79
-22 c-94 -28 -236 -49 -424 -65 -156 -13 -569 -6 -700 11 -140 19 -298 51
-329 67 -29 15 -30 15 -17 -1z m176 -252 c9 -15 12 -23 6 -20 -11 7 -35 46
-28 46 3 0 12 -12 22 -26z m86 -91 c13 -16 12 -17 -3 -4 -10 7 -18 15 -18 17
0 8 8 3 21 -13z m1489 -33 c0 -5 -8 -10 -17 -10 -15 0 -16 2 -3 10 19 12 20
12 20 0z m28 -65 l12 -30 -20 24 c-11 13 -20 30 -20 39 0 21 13 6 28 -33z
m-1377 10 c34 -16 34 -16 4 -10 -16 4 -34 11 -39 16 -14 13 -3 11 35 -6z"/>
<path d="M3228 5943 c7 -3 16 -2 19 1 4 3 -2 6 -13 5 -11 0 -14 -3 -6 -6z"/>
<path d="M3709 5943 c-1 -5 -1 -12 0 -17 1 -5 -7 -6 -19 -3 -11 3 -20 2 -20
-3 0 -4 12 -10 27 -13 27 -5 43 6 43 28 0 6 -5 3 -10 -5 -9 -13 -14 -7 -11 13
0 4 -1 7 -4 7 -3 0 -6 -3 -6 -7z"/>
<path d="M3273 5933 c9 -2 23 -2 30 0 6 3 -1 5 -18 5 -16 0 -22 -2 -12 -5z"/>
<path d="M3333 5923 c9 -2 25 -2 35 0 9 3 1 5 -18 5 -19 0 -27 -2 -17 -5z"/>
<path d="M1532 5880 c18 -30 48 -39 48 -15 0 9 -5 13 -11 10 -5 -4 -20 1 -32
12 l-21 18 16 -25z"/>
<path d="M5080 5879 c0 -5 5 -7 10 -4 6 3 10 8 10 11 0 2 -4 4 -10 4 -5 0 -10
-5 -10 -11z"/>
<path d="M5476 5834 c-4 -9 -4 -19 -1 -22 2 -3 7 3 11 12 4 9 4 19 1 22 -2 3
-7 -3 -11 -12z"/>
<path d="M5550 5826 c-12 -33 -13 -63 -1 -70 8 -5 23 85 15 93 -2 2 -8 -8 -14
-23z"/>
<path d="M2992 5770 c0 -14 2 -19 5 -12 2 6 2 18 0 25 -3 6 -5 1 -5 -13z"/>
<path d="M3001 5728 c-1 -9 9 -27 22 -40 12 -13 17 -17 10 -8 -7 8 -16 27 -22
40 -6 17 -10 19 -10 8z"/>
<path d="M5384 5720 c-12 -5 -25 -13 -29 -19 -8 -15 -4 -14 33 5 46 22 42 33
-4 14z"/>
<path d="M5347 5667 c2 -4 -9 -13 -25 -20 -16 -6 -52 -33 -81 -59 -43 -39 -49
-48 -32 -48 22 0 27 -20 22 -80 -2 -17 6 -8 26 30 15 30 24 58 19 61 -4 4 0
12 10 18 11 6 15 10 9 10 -13 0 -45 -24 -45 -33 0 -4 5 -4 12 0 7 4 8 3 4 -4
-7 -12 -36 -5 -36 8 0 10 58 60 70 60 4 0 26 15 49 34 36 30 38 34 17 32 -13
0 -22 -4 -19 -9z"/>
<path d="M7140 5655 c14 -8 30 -14 35 -14 6 0 -1 6 -15 14 -14 8 -29 14 -35
14 -5 0 1 -6 15 -14z"/>
<path d="M5556 5645 c-7 -18 -57 -20 -74 -3 -7 7 -12 8 -12 2 0 -36 66 -45 94
-13 14 17 24 20 54 15 27 -5 33 -4 22 3 -23 16 -77 13 -84 -4z"/>
<path d="M7261 5590 c18 -22 37 -40 43 -40 5 0 -8 18 -29 40 -21 22 -41 40
-43 40 -1 0 12 -18 29 -40z"/>
<path d="M5319 5593 c-13 -17 -13 -17 6 -3 11 8 22 16 24 17 2 2 0 3 -6 3 -6
0 -17 -8 -24 -17z"/>
<path d="M3250 5536 c0 -3 -7 -46 -15 -95 -15 -85 -15 -92 4 -147 15 -46 25
-60 46 -67 14 -5 28 -7 30 -5 2 2 -1 23 -7 47 -8 32 -8 64 2 127 6 46 15 84
19 84 3 0 33 -11 66 -24 43 -18 55 -27 43 -31 -9 -4 -24 -26 -33 -49 -25 -65
-8 -124 45 -151 16 -8 34 -24 40 -34 5 -11 39 -38 74 -61 60 -39 64 -44 69
-86 9 -81 110 -176 227 -212 41 -13 91 -17 195 -17 161 0 219 14 315 76 77 49
112 97 118 159 4 45 8 50 59 86 30 20 58 45 64 55 5 10 21 24 37 31 60 28 78
134 32 190 -18 22 -17 22 44 53 33 16 73 38 87 48 l27 18 15 -78 c16 -76 16
-77 11 -18 -9 95 -13 108 -38 100 -77 -24 -229 -58 -331 -72 -172 -25 -716
-25 -895 0 -112 16 -286 54 -332 72 -10 4 -18 4 -18 1z m45 -32 c21 -14 23
-19 13 -42 -5 -15 -11 -70 -12 -123 -1 -77 -4 -96 -15 -94 -8 1 -23 25 -32 54
-15 42 -16 62 -9 99 5 26 12 64 15 85 7 42 7 43 40 21z m192 -80 c-3 -3 -12
-4 -19 -1 -8 3 -5 6 6 6 11 1 17 -2 13 -5z m93 -129 c91 -11 165 -27 168 -36
2 -5 9 -6 15 -2 7 4 6 0 -1 -10 -10 -11 -20 -14 -36 -7 -39 14 -101 16 -98 3
1 -7 -4 -13 -11 -13 -7 0 -19 6 -25 13 -7 6 -17 13 -22 13 -6 1 -16 2 -22 3
-7 1 -26 13 -43 27 l-30 25 35 -6 c19 -3 51 -7 70 -10z m-109 -58 l24 -19 -30
17 c-33 19 -55 43 -55 59 0 6 9 0 19 -13 10 -13 29 -33 42 -44z m99 -27 c8 -5
11 -10 5 -10 -5 0 -17 5 -25 10 -8 5 -10 10 -5 10 6 0 17 -5 25 -10z m-13 -46
c61 -46 65 -50 28 -31 -34 18 -94 66 -83 67 4 0 29 -16 55 -36z m143 -84 c30
-10 48 -19 39 -19 -20 -1 -81 19 -93 30 -13 12 -9 11 54 -11z m-30 -24 c0 -3
-4 -8 -10 -11 -5 -3 -10 -1 -10 4 0 6 5 11 10 11 6 0 10 -2 10 -4z m35 -16 c3
-5 2 -10 -4 -10 -5 0 -13 5 -16 10 -3 6 -2 10 4 10 5 0 13 -4 16 -10z"/>
<path d="M4815 5500 c-3 -5 -1 -10 4 -10 6 0 11 5 11 10 0 6 -2 10 -4 10 -3 0
-8 -4 -11 -10z"/>
<path d="M4900 5356 c0 -3 33 -22 73 -41 39 -20 88 -50 107 -66 l35 -29 -30 6
c-16 3 -38 8 -49 11 -12 3 -16 1 -12 -6 4 -6 18 -11 32 -11 37 0 97 -43 139
-100 20 -28 40 -49 43 -46 7 8 -79 112 -105 127 -12 6 -20 15 -18 20 7 11 -73
77 -125 104 -51 25 -90 39 -90 31z"/>
<path d="M3153 5338 c-18 -6 -33 -15 -33 -19 0 -12 17 -11 25 1 3 6 17 10 31
10 13 0 24 5 24 10 0 12 -4 11 -47 -2z"/>
<path d="M4890 5333 c0 -4 11 -15 24 -23 13 -8 40 -28 60 -43 25 -21 39 -26
51 -20 14 8 13 12 -6 29 -12 10 -19 13 -15 7 11 -19 -2 -16 -37 11 -42 31 -77
49 -77 39z"/>
<path d="M4835 5313 c-5 -10 -7 -21 -7 -25 1 -5 -4 -8 -12 -8 -8 0 -17 10 -19
23 -3 14 -5 10 -6 -13 0 -20 -6 -41 -12 -47 -8 -8 -3 -10 18 -8 35 2 63 14 63
26 0 6 -9 5 -21 -1 -11 -7 -23 -9 -27 -6 -3 3 -1 6 5 6 6 0 16 14 22 32 12 34
9 50 -4 21z"/>
<path d="M3026 5246 c-36 -36 -66 -71 -66 -77 0 -7 10 1 22 17 33 41 69 77 99
96 30 19 48 12 21 -8 -9 -7 -12 -14 -6 -14 6 0 19 9 29 20 10 11 13 20 7 20
-6 0 -17 3 -26 6 -9 4 -37 -17 -80 -60z"/>
<path d="M4939 5235 c46 -30 100 -69 120 -88 42 -38 97 -144 106 -205 4 -23
12 -48 19 -55 7 -7 15 -19 19 -27 3 -8 6 11 6 43 1 31 -3 57 -8 57 -4 0 -7 21
-5 48 4 40 0 52 -24 80 -15 17 -33 32 -40 32 -7 0 -12 6 -12 13 0 24 -43 55
-132 97 -48 22 -90 45 -93 50 -3 6 -14 10 -23 10 -9 0 21 -25 67 -55z m155
-94 c-2 -3 -12 3 -22 13 -16 17 -16 18 5 5 12 -7 20 -15 17 -18z m72 -76 c15
-20 24 -38 21 -41 -3 -3 -11 5 -17 18 -7 12 -22 31 -34 40 -11 10 -16 18 -9
18 7 0 24 -16 39 -35z"/>
<path d="M3140 5254 c-19 -7 -48 -13 -65 -14 -22 0 -26 -3 -16 -9 15 -10 96
10 114 28 13 13 13 13 -33 -5z"/>
<path d="M3030 5210 c-9 -6 -10 -10 -3 -10 6 0 15 5 18 10 8 12 4 12 -15 0z"/>
<path d="M3083 5206 c-18 -6 -35 -15 -40 -19 -4 -5 1 -5 12 -1 18 7 18 6 6 -9
-11 -14 -16 -15 -29 -5 -11 9 -14 9 -9 1 4 -6 1 -15 -6 -20 -21 -13 -61 -72
-54 -80 4 -3 8 -4 10 -2 2 2 15 24 31 48 16 24 31 39 35 33 4 -6 23 5 48 29
45 42 45 43 -4 25z"/>
<path d="M2990 5175 c-8 -9 -8 -15 -2 -15 12 0 26 19 19 26 -2 2 -10 -2 -17
-11z"/>
<path d="M5101 5177 c9 -7 35 -34 57 -60 48 -55 57 -49 12 8 -33 42 -60 64
-75 64 -5 0 -3 -5 6 -12z"/>
<path d="M5253 4910 c0 -25 2 -35 4 -22 2 12 2 32 0 45 -2 12 -4 2 -4 -23z"/>
<path d="M9151 3540 c-60 -54 -168 -114 -276 -153 -347 -124 -959 -136 -1379
-27 -77 19 -114 20 -64 1 42 -16 248 -59 348 -73 143 -19 604 -17 750 5 165
24 339 71 437 117 97 45 202 117 227 154 9 14 15 26 14 26 -2 -1 -27 -23 -57
-50z"/>
<path d="M9000 3405 c-14 -8 -20 -14 -14 -15 5 0 19 7 30 15 24 18 16 19 -16
0z"/>
<path d="M9041 3360 c-71 -44 -85 -55 -56 -44 25 10 125 73 125 79 0 7 0 7
-69 -35z"/>
<path d="M9015 3311 c-144 -74 -330 -122 -585 -151 -144 -16 -468 -14 -617 5
-177 23 -393 71 -410 93 -13 15 -13 15 -4 -4 12 -26 106 -53 281 -83 459 -79
989 -32 1304 114 39 18 80 40 91 49 28 22 20 19 -60 -23z"/>
<path d="M1235 3261 c105 -112 324 -197 615 -238 151 -21 607 -24 765 -5 151
19 225 33 225 44 0 5 -8 7 -17 4 -10 -3 -74 -13 -143 -23 -98 -13 -197 -17
-455 -18 -303 0 -340 2 -455 23 -228 42 -413 117 -525 213 l-50 43 40 -43z"/>
<path d="M8848 3273 c7 -3 16 -2 19 1 4 3 -2 6 -13 5 -11 0 -14 -3 -6 -6z"/>
<path d="M7361 2984 c-155 -225 -614 -356 -1193 -341 -318 8 -546 50 -753 136
-94 39 -140 49 -77 17 249 -129 702 -197 1102 -167 377 29 625 98 806 226 54
39 153 149 143 160 -3 2 -15 -12 -28 -31z"/>
<path d="M1555 2960 c11 -5 27 -9 35 -9 9 0 8 4 -5 9 -11 5 -27 9 -35 9 -9 0
-8 -4 5 -9z"/>
<path d="M1610 2947 c0 -6 114 -31 245 -54 151 -26 668 -25 858 1 75 11 137
23 137 28 0 5 -10 6 -22 3 -152 -36 -629 -56 -834 -35 -105 10 -297 41 -361
57 -13 3 -23 3 -23 0z"/>
<path d="M7339 2853 c-13 -16 -12 -17 4 -4 9 7 17 15 17 17 0 8 -8 3 -21 -13z"/>
<path d="M7255 2777 c-33 -24 -89 -56 -125 -72 -71 -32 -101 -52 -60 -40 53
15 167 77 210 115 58 51 50 50 -25 -3z"/>
<path d="M5330 2770 c0 -6 7 -10 15 -10 8 0 15 2 15 4 0 2 -7 6 -15 10 -8 3
-15 1 -15 -4z"/>
<path d="M7140 2765 c0 -5 5 -17 10 -25 5 -8 10 -10 10 -5 0 6 -5 17 -10 25
-5 8 -10 11 -10 5z"/>
<path d="M5323 2734 c16 -9 32 -13 35 -9 9 9 -19 25 -43 24 -16 0 -15 -2 8
-15z"/>
<path d="M5405 2730 c3 -5 14 -10 23 -10 15 0 15 2 2 10 -20 13 -33 13 -25 0z"/>
<path d="M5307 2700 c-3 -13 -5 -25 -4 -26 1 -1 44 -18 95 -38 297 -117 483
-150 832 -150 246 0 441 22 630 71 97 25 287 96 305 114 6 6 -28 -6 -75 -26
-76 -33 -161 -60 -260 -86 -19 -4 -100 -19 -180 -31 -126 -20 -183 -23 -425
-23 -249 0 -294 3 -410 23 -201 36 -479 135 -494 175 -7 20 -8 20 -14 -3z"/>
<path d="M5370 2716 c0 -2 7 -6 15 -10 8 -3 15 -1 15 4 0 6 -7 10 -15 10 -8 0
-15 -2 -15 -4z"/>
<path d="M5335 2700 c3 -5 11 -10 16 -10 6 0 7 5 4 10 -3 6 -11 10 -16 10 -6
0 -7 -4 -4 -10z"/>
<path d="M7194 2694 c-18 -14 -18 -15 4 -4 12 6 22 13 22 15 0 8 -5 6 -26 -11z"/>
<path d="M5380 2680 c20 -13 43 -13 35 0 -3 6 -16 10 -28 10 -18 0 -19 -2 -7
-10z"/>
<path d="M5282 2650 c0 -19 2 -27 5 -17 2 9 2 25 0 35 -3 9 -5 1 -5 -18z"/>
<path d="M6765 2645 c-26 -8 -33 -13 -19 -14 12 -1 37 6 55 14 42 18 18 18
-36 0z"/>
<path d="M5630 2616 c0 -2 7 -7 16 -10 8 -3 12 -2 9 4 -6 10 -25 14 -25 6z"/>
<path d="M6765 2600 c-17 -7 -14 -9 13 -9 20 -1 31 3 27 9 -7 12 -13 12 -40 0z"/>
<path d="M5272 2437 c-120 -213 -446 -352 -935 -398 -185 -17 -579 -7 -722 19
-378 69 -595 175 -711 346 -42 63 -45 54 -4 -13 84 -136 301 -258 570 -320
481 -110 1178 -62 1515 106 143 71 272 185 307 272 9 22 15 41 13 41 -2 0 -17
-24 -33 -53z"/>
<path d="M5229 2333 c-13 -16 -12 -17 4 -4 16 13 21 21 13 21 -2 0 -10 -8 -17
-17z"/>
<path d="M5267 2343 c-4 -3 -7 -11 -7 -17 0 -6 5 -5 12 2 6 6 9 14 7 17 -3 3
-9 2 -12 -2z"/>
<path d="M5187 2292 c-9 -9 -13 -23 -9 -29 5 -8 12 -2 19 17 13 35 12 36 -10
12z"/>
<path d="M5181 2229 c-58 -53 -81 -69 -100 -67 -17 2 -25 -2 -23 -10 1 -7 -18
-22 -44 -33 -25 -12 -43 -23 -41 -26 14 -13 165 77 224 133 53 52 73 76 61 74
-2 -1 -36 -32 -77 -71z"/>
<path d="M5095 2219 c-48 -36 -56 -45 -30 -31 31 16 90 62 79 61 -5 0 -27 -14
-49 -30z"/>
<path d="M5169 2173 c-13 -16 -12 -17 4 -4 16 13 21 21 13 21 -2 0 -10 -8 -17
-17z"/>
<path d="M5000 2160 c-19 -11 -31 -19 -27 -20 11 0 67 29 67 35 0 7 -1 7 -40
-15z"/>
<path d="M5135 2150 c-11 -19 -145 -92 -220 -121 -119 -46 -302 -96 -421 -115
-69 -10 -210 -19 -384 -24 l-275 -7 210 -1 c346 -3 521 21 775 103 129 43 272
113 315 155 11 11 16 20 13 20 -4 0 -10 -4 -13 -10z"/>
<path d="M4933 2130 c-13 -5 -23 -14 -23 -20 0 -6 11 -3 25 6 14 9 25 18 25
20 0 5 0 5 -27 -6z"/>
<path d="M3137 2099 c7 -7 15 -10 18 -7 3 3 -2 9 -12 12 -14 6 -15 5 -6 -5z"/>
<path d="M3200 2096 c0 -2 7 -7 16 -10 8 -3 12 -2 9 4 -6 10 -25 14 -25 6z"/>
<path d="M3184 2076 c11 -9 24 -16 30 -16 12 0 7 5 -24 19 -24 11 -24 11 -6
-3z"/>
<path d="M3245 2050 c11 -5 29 -8 40 -8 16 0 15 2 -5 8 -34 11 -60 11 -35 0z"/>
<path d="M3335 2025 c17 -8 37 -14 45 -14 8 0 -1 7 -20 14 -46 18 -64 17 -25
0z"/>
<path d="M3508 1933 c6 -2 18 -2 25 0 6 3 1 5 -13 5 -14 0 -19 -2 -12 -5z"/>
<path d="M3563 1923 c9 -2 23 -2 30 0 6 3 -1 5 -18 5 -16 0 -22 -2 -12 -5z"/>
<path d="M3680 1904 c41 -7 93 -13 115 -12 22 0 -3 6 -55 14 -120 16 -159 16
-60 -2z"/>
</g>
</svg>
