<?xml version="1.0" standalone="no"?>
<!DOCTYPE svg PUBLIC "-//W3C//DTD SVG 20010904//EN"
 "http://www.w3.org/TR/2001/REC-SVG-20010904/DTD/svg10.dtd">
<svg version="1.0" xmlns="http://www.w3.org/2000/svg"
 width="1024.000000pt" height="1024.000000pt" viewBox="0 0 1024.000000 1024.000000"
 preserveAspectRatio="xMidYMid meet">
<metadata>
Created by potrace 1.16, written by Peter Selinger 2001-2019
</metadata>
<g transform="translate(0.000000,1024.000000) scale(0.100000,-0.100000)"
fill="#000000" stroke="none">
<path d="M5545 9468 c-22 -5 -89 -34 -150 -65 -60 -31 -132 -68 -160 -82 -38
-19 -65 -26 -112 -26 -57 0 -72 5 -227 84 -139 71 -174 85 -224 89 -73 5 -92
-4 -200 -102 -146 -131 -206 -144 -377 -81 -125 46 -202 51 -257 17 -20 -12
-67 -63 -104 -113 -108 -145 -145 -165 -297 -155 -56 3 -134 9 -173 12 -121
10 -168 -28 -253 -208 -39 -83 -103 -143 -175 -162 -28 -8 -91 -17 -141 -21
-125 -8 -176 -21 -219 -57 -43 -35 -74 -94 -104 -194 -29 -95 -75 -162 -132
-191 -25 -13 -96 -37 -157 -53 -130 -34 -161 -48 -197 -90 -32 -39 -43 -79
-55 -207 -16 -178 -55 -227 -254 -323 -202 -97 -202 -97 -202 -320 0 -163 0
-166 -28 -213 -21 -36 -57 -69 -137 -128 -60 -44 -118 -95 -129 -113 -28 -45
-27 -105 5 -228 45 -173 29 -228 -103 -370 -143 -153 -150 -192 -69 -378 68
-157 64 -194 -47 -371 -73 -116 -93 -170 -83 -223 4 -21 42 -88 88 -156 73
-107 82 -126 86 -175 5 -61 -15 -130 -70 -239 -16 -32 -32 -83 -35 -112 -7
-68 16 -108 132 -233 48 -51 93 -109 102 -129 22 -53 17 -124 -17 -241 -16
-57 -30 -120 -30 -139 0 -63 33 -112 116 -172 113 -82 156 -119 184 -158 24
-34 25 -39 25 -216 0 -120 4 -188 12 -201 21 -37 68 -73 158 -121 195 -103
222 -138 249 -327 28 -192 49 -212 296 -281 75 -21 145 -69 174 -120 13 -22
36 -79 51 -126 34 -104 50 -137 84 -173 43 -47 76 -58 217 -73 207 -21 245
-47 333 -223 85 -168 129 -191 329 -172 194 20 229 5 371 -157 98 -112 138
-137 210 -135 31 0 100 15 155 32 115 36 182 39 240 11 23 -11 85 -60 139
-110 54 -50 109 -95 123 -100 42 -16 82 -11 172 21 130 47 183 45 300 -10 121
-56 164 -58 247 -11 166 92 177 93 316 32 53 -23 109 -42 125 -42 48 1 104 34
209 124 126 109 162 124 259 108 39 -6 109 -23 156 -37 149 -46 200 -26 327
132 54 66 92 104 123 120 44 23 50 24 213 18 158 -6 170 -5 212 15 51 25 65
42 126 159 89 168 147 207 333 222 132 11 167 21 212 62 43 37 63 76 98 187
54 167 86 198 268 255 125 38 188 76 220 131 11 18 24 77 33 142 8 64 23 128
34 150 28 54 98 115 183 158 140 70 192 118 209 191 4 20 3 88 -3 153 -10 106
-10 123 7 165 23 62 61 103 178 195 148 116 158 147 107 335 -54 198 -44 227
148 435 80 87 85 160 18 312 -52 118 -65 186 -46 242 6 20 40 76 75 125 126
174 126 218 5 387 -84 119 -94 140 -94 209 -1 52 6 75 54 175 45 95 55 124 54
166 0 61 -15 84 -139 214 -45 47 -88 96 -95 110 -22 41 -15 154 15 269 41 158
29 192 -110 289 -44 31 -96 73 -117 94 -72 72 -72 74 -78 268 -5 173 -6 177
-32 212 -19 25 -61 53 -140 93 -213 109 -250 153 -268 321 -13 117 -19 142
-41 186 -28 54 -77 82 -219 123 -69 20 -142 47 -163 61 -52 34 -91 91 -117
176 -44 139 -89 206 -156 234 -20 8 -97 22 -171 29 -81 9 -151 22 -176 33 -61
27 -110 83 -167 192 -28 54 -67 112 -86 131 -35 34 -36 34 -127 33 -51 0 -138
-4 -194 -9 -98 -8 -104 -7 -156 18 -42 21 -70 47 -128 119 -41 50 -92 104
-113 120 -55 40 -114 38 -258 -8 -185 -60 -230 -50 -378 82 -117 104 -151 119
-225 102z m-656 -99 c160 -82 164 -84 234 -84 71 0 75 1 230 83 191 101 238
111 312 68 26 -16 43 -32 39 -38 -4 -6 -3 -8 3 -5 5 3 40 -21 79 -54 131 -115
190 -126 353 -70 51 18 115 35 141 38 90 11 110 -3 270 -187 69 -80 117 -103
214 -101 39 0 98 5 131 11 33 5 85 10 116 10 82 0 110 -23 178 -149 107 -197
145 -223 356 -246 83 -9 155 -23 181 -34 56 -25 96 -82 130 -184 63 -192 101
-228 299 -282 116 -31 179 -60 169 -78 -4 -7 -3 -9 1 -4 14 12 43 -23 59 -72
8 -25 19 -91 25 -146 18 -169 58 -220 252 -317 184 -92 190 -103 187 -311 -2
-163 5 -188 73 -262 23 -25 76 -70 119 -99 83 -59 127 -104 136 -142 4 -15 -7
-80 -26 -157 -35 -141 -36 -208 -4 -268 8 -16 59 -76 114 -134 135 -142 142
-173 68 -320 -68 -134 -82 -213 -51 -282 17 -37 80 -133 95 -143 19 -14 78
-145 78 -174 0 -40 -37 -111 -113 -220 -52 -73 -59 -90 -64 -142 -5 -63 3 -91
70 -253 54 -130 38 -182 -102 -331 -119 -126 -132 -187 -81 -375 50 -185 45
-199 -113 -325 -112 -88 -155 -136 -176 -193 -13 -35 -14 -130 -1 -217 18
-127 -25 -190 -189 -275 -174 -90 -216 -149 -241 -335 -7 -52 -18 -108 -25
-125 -12 -29 -61 -75 -70 -65 -2 3 -10 -2 -17 -12 -16 -20 -175 -71 -197 -63
-8 3 -12 3 -9 -1 4 -3 -15 -18 -42 -31 -75 -37 -114 -90 -151 -202 -72 -218
-98 -241 -289 -256 -123 -9 -139 -13 -197 -41 -62 -30 -93 -66 -163 -194 -90
-163 -113 -176 -295 -165 -176 10 -198 9 -241 -13 -39 -20 -92 -73 -169 -169
-47 -59 -88 -90 -139 -104 -43 -12 -67 -8 -196 33 -169 53 -242 35 -375 -93
-27 -26 -76 -63 -108 -83 -73 -43 -104 -42 -217 10 -120 55 -161 54 -266 -7
-138 -80 -150 -80 -323 -4 -75 34 -90 37 -140 32 -31 -4 -94 -20 -141 -37 -47
-16 -95 -30 -108 -30 -37 0 -84 25 -127 68 -178 177 -241 199 -419 147 -160
-47 -179 -49 -229 -27 -25 11 -69 46 -103 83 -152 162 -168 176 -224 194 -50
17 -66 17 -186 6 -200 -20 -243 2 -318 156 -54 110 -97 165 -153 195 -58 31
-78 36 -218 47 -68 6 -123 16 -143 26 -51 26 -84 80 -125 207 -58 179 -99 216
-296 272 -109 31 -169 67 -194 117 -9 20 -24 83 -32 142 -8 58 -22 124 -31
147 -22 55 -94 116 -205 174 -102 53 -131 74 -123 87 3 5 -2 6 -10 3 -12 -4
-21 6 -36 37 -17 40 -19 59 -13 199 5 144 4 158 -15 195 -25 50 -84 106 -182
172 -91 61 -104 76 -120 130 -13 44 -8 79 40 253 36 127 18 175 -116 320 -139
152 -149 195 -74 349 54 111 69 167 61 221 -8 46 -32 102 -58 132 -8 9 -12 22
-7 29 4 7 3 10 -3 6 -12 -8 -86 97 -102 144 -17 54 1 113 67 217 111 177 126
245 76 352 -72 152 -85 213 -61 273 20 46 185 223 206 219 12 -2 13 -1 3 6
-10 7 -8 18 7 53 28 60 26 136 -4 253 -43 166 -34 198 85 287 201 150 216 177
207 373 -3 74 -2 149 3 168 13 44 51 80 125 116 33 16 90 44 126 61 146 71
183 128 204 316 22 200 42 221 260 280 117 32 148 46 193 89 42 39 53 59 91
175 59 183 97 210 316 226 186 14 243 51 327 210 93 176 129 198 294 175 233
-32 308 -7 403 135 44 65 89 113 123 131 48 25 128 17 235 -22 173 -63 241
-51 371 65 137 122 140 124 208 118 52 -4 85 -17 223 -88z"/>
<path d="M2870 7545 c-8 -2 -49 -9 -90 -15 -153 -24 -269 -69 -373 -144 -154
-111 -227 -252 -246 -473 -14 -153 -14 -1190 -1 -1308 17 -150 48 -240 117
-336 18 -25 32 -48 30 -50 -1 -2 0 -3 2 -2 2 1 29 -20 60 -48 94 -84 183 -127
351 -170 68 -17 125 -22 292 -26 186 -5 216 -3 309 17 201 43 333 111 441 229
59 64 118 170 138 251 18 69 26 436 10 455 -10 13 -49 15 -234 15 -159 0 -225
-3 -234 -12 -8 -8 -12 -60 -12 -168 0 -174 -10 -221 -61 -283 -63 -77 -230
-126 -385 -113 -160 13 -256 75 -305 196 -18 47 -27 1238 -9 1341 19 110 76
176 189 221 48 19 76 22 191 23 128 0 138 -2 195 -28 133 -62 184 -155 186
-340 2 -161 -21 -147 243 -147 187 0 226 2 236 15 19 22 8 351 -14 430 -34
120 -100 220 -202 303 -50 41 -171 103 -227 117 -15 4 -24 11 -21 16 3 5 -1 6
-8 4 -8 -3 -47 2 -88 11 -69 15 -437 30 -480 19z m404 -20 c205 -19 416 -125
514 -257 92 -124 112 -206 112 -450 l0 -178 -222 2 -223 3 -3 55 c-1 30 -6 94
-12 142 -15 141 -75 232 -190 287 -52 24 -64 26 -200 26 -127 -1 -152 -3 -201
-23 -76 -30 -141 -89 -170 -154 l-24 -53 0 -670 0 -670 23 -50 c42 -91 110
-143 222 -169 207 -49 434 15 502 141 35 63 43 131 47 376 l1 47 225 0 225 0
0 -62 c2 -202 -2 -348 -11 -388 -20 -88 -83 -201 -154 -271 -154 -154 -376
-229 -680 -229 -225 0 -414 37 -550 108 -96 49 -220 174 -264 262 -68 139 -65
102 -68 887 -4 691 -3 715 17 799 47 201 179 349 377 426 92 36 188 58 283 67
87 7 324 5 424 -4z"/>
<path d="M4907 7540 c-346 -40 -594 -232 -652 -507 -22 -101 -21 -1435 0
-1538 45 -212 217 -393 449 -470 131 -44 234 -58 416 -58 494 2 795 186 876
539 17 72 18 137 19 759 0 624 -2 686 -18 758 -40 170 -142 311 -285 397 -153
90 -280 120 -542 125 -102 2 -220 0 -263 -5z m568 -35 c39 -9 116 -39 173 -66
137 -66 220 -146 281 -269 71 -145 71 -141 71 -903 0 -756 -1 -768 -67 -907
-49 -103 -157 -210 -268 -267 -169 -87 -342 -119 -607 -110 -140 4 -191 10
-268 30 -163 42 -261 94 -359 190 -68 66 -110 131 -147 227 l-29 75 -3 721
c-2 617 -1 732 12 795 51 240 226 409 500 481 148 38 562 40 711 3z"/>
<path d="M4975 7146 c-118 -31 -172 -72 -217 -163 l-33 -68 0 -660 0 -660 26
-55 c60 -129 182 -190 379 -190 203 0 337 77 380 218 20 66 21 84 18 697 l-3
630 -23 58 c-32 78 -101 147 -177 177 -49 19 -83 24 -180 26 -77 2 -138 -1
-170 -10z m290 -10 c69 -18 137 -54 129 -68 -4 -6 -3 -8 4 -5 12 8 55 -41 82
-93 38 -74 41 -142 38 -770 l-3 -605 -23 -50 c-31 -67 -66 -102 -135 -136
-117 -55 -286 -62 -424 -17 -84 28 -149 89 -178 168 -19 53 -20 80 -20 695 0
720 -2 700 75 788 46 51 128 92 169 82 18 -4 22 -3 12 4 -11 7 -8 10 15 14 66
9 212 6 259 -7z"/>
<path d="M7047 7502 c-10 -10 -17 -23 -17 -29 0 -5 -29 -104 -65 -219 -36
-115 -92 -294 -125 -399 -32 -104 -89 -287 -125 -405 -37 -118 -72 -231 -77
-250 -5 -19 -27 -89 -47 -155 -21 -66 -49 -155 -61 -197 -13 -46 -27 -75 -33
-71 -6 3 -7 1 -3 -5 6 -11 -23 -114 -163 -570 -48 -156 -53 -192 -27 -192 62
-2 441 2 444 4 1 2 23 80 48 172 47 176 111 416 120 447 5 16 31 17 363 17
l358 0 21 -72 c11 -40 41 -149 67 -243 26 -93 57 -204 69 -245 l22 -75 231 -3
c198 -2 232 0 236 13 4 8 -7 56 -23 107 -108 347 -255 823 -270 873 -31 105
-349 1135 -448 1450 -8 28 -20 53 -26 57 -6 4 -110 8 -232 8 -201 0 -222 -2
-237 -18z m640 -557 c185 -600 386 -1249 508 -1644 41 -134 75 -252 75 -262 0
-18 -12 -19 -224 -19 l-224 0 -6 28 c-6 22 -94 345 -153 560 l-14 52 -369 0
c-342 0 -368 -1 -373 -17 -9 -34 -146 -538 -157 -580 l-11 -43 -219 0 c-120 0
-221 4 -224 8 -2 4 31 122 74 262 43 140 105 343 138 450 215 701 534 1729
542 1748 l10 22 227 -2 228 -3 172 -560z"/>
<path d="M7256 6927 c-10 -39 -70 -260 -132 -489 -63 -229 -114 -421 -114
-427 0 -8 85 -11 274 -11 l273 0 -42 153 c-24 83 -85 303 -135 487 -51 184
-96 341 -99 347 -4 7 -15 -20 -25 -60z m67 -122 c19 -71 59 -215 87 -320 46
-167 113 -409 126 -457 4 -15 -17 -16 -256 -16 -256 1 -260 1 -254 21 6 19
141 516 215 789 19 70 37 124 40 120 3 -4 22 -65 42 -137z"/>
<path d="M8201 4763 c-44 -52 -61 -95 -61 -158 0 -78 67 -145 145 -145 62 0
98 29 134 105 34 71 54 87 78 62 22 -22 9 -68 -32 -107 -40 -38 -41 -45 -19
-88 21 -43 28 -46 66 -25 18 9 36 16 41 15 4 -1 6 1 5 5 -1 5 11 28 27 52 26
38 30 54 30 112 0 75 -16 106 -75 147 -70 47 -172 13 -200 -68 -19 -54 -39
-80 -60 -80 -16 0 -20 7 -20 36 0 44 55 108 72 83 7 -10 8 -7 3 11 -6 24 -69
90 -86 90 -4 0 -26 -21 -48 -47z m118 -21 c3 -1 -12 -19 -31 -40 -46 -47 -55
-81 -31 -111 27 -33 50 -18 85 56 37 79 74 106 135 100 152 -16 177 -233 37
-325 l-34 -22 -20 32 c-26 42 -25 45 9 73 57 48 66 128 16 141 -33 8 -38 4
-73 -71 -58 -120 -158 -141 -234 -50 -46 54 -30 162 34 231 l41 45 31 -28 c17
-15 33 -29 35 -31z"/>
<path d="M1771 4783 c-91 -46 -140 -130 -141 -238 0 -78 19 -126 71 -181 16
-17 27 -33 24 -37 -3 -4 -2 -5 1 -2 4 2 16 -1 27 -6 11 -6 34 -13 51 -14 26
-3 31 1 31 18 1 12 4 38 8 57 6 33 5 36 -32 53 -44 20 -71 66 -71 119 0 45 19
78 59 105 116 78 240 -52 169 -178 l-21 -38 27 -36 c32 -41 45 -43 73 -12 75
80 85 174 31 277 -22 41 -48 73 -75 93 -37 26 -53 31 -120 34 -60 3 -86 0
-112 -14z m195 -12 c97 -44 162 -197 125 -294 -11 -28 -69 -97 -81 -97 -5 0
-18 16 -30 35 -21 35 -22 37 -4 56 10 12 19 40 21 72 9 115 -94 185 -195 133
-99 -51 -95 -211 6 -255 18 -9 31 -20 28 -27 -3 -7 -8 -29 -12 -48 -8 -43 -18
-44 -72 -8 -97 66 -135 174 -101 295 13 49 73 115 124 138 52 24 138 24 191 0z"/>
<path d="M8085 4405 c-10 -24 -15 -50 -12 -57 5 -14 425 -150 438 -142 10 6
42 104 36 110 -2 3 -33 13 -68 23 -35 10 -130 40 -211 65 -81 25 -152 46 -157
46 -5 0 -17 -20 -26 -45z m250 -34 c108 -34 198 -61 200 -61 4 0 -21 -75 -30
-89 -3 -5 -42 3 -87 19 -46 15 -139 44 -207 65 -68 22 -125 44 -127 50 -8 20
26 87 41 81 8 -3 102 -32 210 -65z"/>
<path d="M2070 4354 c-90 -42 -140 -65 -240 -110 -71 -33 -95 -48 -94 -61 3
-35 119 -283 132 -283 14 0 92 38 92 45 0 2 -12 30 -26 62 -14 32 -32 74 -39
94 -13 35 -12 37 11 48 23 10 26 8 43 -32 10 -23 28 -66 41 -95 12 -29 25 -50
28 -48 5 5 -65 172 -78 189 -4 4 -23 1 -43 -8 l-36 -15 44 -95 44 -95 -22 -14
c-59 -37 -59 -37 -121 106 -32 73 -60 139 -63 146 -3 6 0 12 7 12 7 0 97 39
201 86 105 48 191 85 193 83 8 -9 116 -261 116 -269 0 -9 -63 -40 -80 -40 -4
0 -25 42 -46 94 l-38 94 -38 -19 -37 -19 35 -78 c51 -108 50 -105 8 -125 -20
-10 -34 -20 -31 -23 3 -3 23 4 46 15 l40 21 -16 37 c-8 21 -26 59 -39 85 -30
59 -30 62 1 76 23 11 27 9 34 -11 20 -51 62 -141 72 -153 8 -10 18 -10 47 4
66 30 66 26 -1 180 -40 91 -67 142 -77 142 -8 0 -40 -12 -70 -26z"/>
<path d="M8061 4245 c-52 -37 -94 -108 -99 -168 -3 -43 0 -58 21 -89 14 -20
22 -40 19 -44 -4 -4 -1 -4 6 0 7 4 19 2 27 -4 22 -19 109 -17 139 3 14 9 44
42 67 72 26 35 48 55 58 52 9 -2 15 -9 13 -16 -1 -7 2 -9 9 -5 17 10 2 -46
-19 -70 -9 -10 -32 -25 -49 -33 -37 -15 -39 -25 -18 -77 17 -41 31 -44 83 -17
136 70 169 253 59 322 -25 16 -45 19 -89 16 -64 -4 -88 -20 -140 -95 -31 -45
-60 -53 -66 -19 -5 27 24 66 63 84 19 9 35 20 35 25 0 19 -54 88 -69 88 -9 -1
-31 -12 -50 -25z m87 -22 c12 -19 21 -36 20 -38 -2 -1 -19 -11 -39 -23 -47
-29 -78 -84 -59 -107 22 -27 52 -13 95 44 52 68 83 85 148 78 42 -4 56 -10 84
-41 28 -31 33 -43 33 -87 0 -83 -43 -150 -122 -190 -50 -25 -53 -25 -66 18
-12 39 -9 53 12 53 21 0 86 78 86 103 0 29 -18 47 -45 47 -13 0 -34 -19 -60
-54 -48 -66 -80 -86 -138 -86 -69 0 -127 58 -127 127 0 49 45 129 91 162 23
17 47 31 53 31 6 -1 21 -17 34 -37z"/>
<path d="M2247 4020 c-26 -16 -115 -64 -198 -106 -83 -42 -148 -78 -145 -81 5
-5 322 157 366 188 l26 17 57 -113 c31 -62 57 -126 57 -142 -1 -45 -36 -111
-72 -133 -40 -24 -114 -27 -146 -4 -13 9 -25 14 -26 13 -2 -2 -21 -37 -43 -77
l-40 -72 -26 48 -27 49 31 57 c28 51 30 60 19 87 -18 42 -24 43 -73 15 -24
-15 -48 -26 -54 -26 -5 0 -18 18 -28 40 -10 22 -20 38 -22 36 -7 -6 27 -80 40
-88 6 -4 35 6 63 23 l52 29 12 -29 c11 -27 9 -36 -20 -90 l-32 -60 29 -48 c16
-26 34 -48 38 -48 5 0 26 32 47 72 l39 72 34 -21 c41 -23 99 -18 139 13 l25
19 35 -46 c20 -26 36 -50 35 -53 0 -3 -52 -44 -115 -91 -63 -47 -123 -94 -132
-105 -16 -19 -16 -19 5 -5 16 11 187 139 262 196 2 2 -12 23 -32 47 -20 25
-37 48 -39 53 -1 5 12 23 29 40 l32 31 106 -140 c59 -77 108 -145 111 -151 2
-6 -11 -23 -30 -39 l-35 -27 -33 47 c-18 26 -36 51 -39 56 -4 5 -68 -36 -143
-92 l-136 -102 -30 33 c-17 18 -27 24 -21 13 17 -31 37 -55 48 -55 6 0 68 43
138 95 71 52 131 95 134 95 3 0 21 -23 40 -50 19 -28 37 -49 40 -48 30 15 81
56 81 66 0 10 -182 262 -222 306 -5 6 -20 -2 -39 -20 l-30 -29 15 30 c27 51
20 94 -33 201 -72 145 -67 141 -124 104z"/>
<path d="M7916 3998 c-8 -13 -24 -44 -37 -69 l-22 -47 20 -28 c11 -16 30 -48
42 -71 l21 -42 -86 -3 -87 -3 -18 -34 c-10 -19 -23 -39 -29 -45 -5 -5 -10 -15
-10 -20 0 -6 16 12 35 39 l36 50 89 5 89 5 -44 78 -44 78 31 60 32 60 21 -53
c12 -29 43 -94 68 -145 l46 -91 81 -43 c44 -24 80 -47 80 -52 0 -4 -12 -25
-27 -45 -15 -20 -29 -39 -30 -41 -2 -3 -18 9 -36 26 -61 58 -81 63 -249 62
-84 0 -162 -4 -173 -8 -11 -5 55 -6 146 -3 183 5 203 0 278 -68 35 -31 51 -37
51 -20 0 6 12 28 26 50 15 22 24 46 21 54 -3 7 -40 33 -82 56 -78 43 -112 78
-101 105 3 9 2 13 -4 10 -8 -5 -52 79 -93 178 -9 20 -18 37 -21 37 -3 0 -12
-10 -20 -22z"/>
<path d="M8250 3986 c0 -2 7 -7 16 -10 8 -3 12 -2 9 4 -6 10 -25 14 -25 6z"/>
<path d="M2192 3874 l-52 -34 25 -50 c30 -59 62 -79 100 -62 14 7 30 23 36 36
10 21 7 33 -16 78 -15 29 -30 56 -34 60 -3 3 -30 -9 -59 -28z m55 1 c-4 -8 -1
-17 5 -21 7 -4 8 -3 4 4 -4 7 -5 12 -2 12 3 0 15 -18 26 -41 20 -38 20 -42 5
-66 -10 -15 -22 -22 -31 -19 -9 3 -12 1 -9 -4 9 -15 -8 -12 -33 6 -12 8 -31
33 -42 54 -17 34 -18 39 -4 44 9 3 20 3 25 0 5 -3 8 -1 7 5 -3 10 31 40 46 41
4 0 6 -7 3 -15z"/>
<path d="M8226 3563 c-6 -14 -5 -15 5 -6 7 7 10 15 7 18 -3 3 -9 -2 -12 -12z"/>
<path d="M7569 3444 l-31 -46 38 -31 c21 -18 72 -58 114 -91 41 -32 74 -63 72
-68 -1 -5 2 -7 8 -3 5 3 36 -15 67 -41 l58 -46 17 23 c10 13 53 73 98 133 44
60 80 113 80 117 0 10 -71 59 -85 59 -11 0 -24 -16 -96 -118 l-31 -42 -26 20
c-51 38 -227 166 -239 173 -7 5 -24 -10 -44 -39z m180 -73 l131 -100 55 79
c31 44 60 82 66 85 5 4 24 -4 42 -16 17 -12 33 -23 35 -25 3 -2 -161 -230
-178 -248 -7 -7 -312 215 -339 247 -7 9 -3 22 15 45 14 18 29 32 33 32 5 0 67
-45 140 -99z"/>
<path d="M2642 3358 c-31 -29 -59 -55 -62 -58 -3 -3 -51 -45 -107 -94 -57 -48
-103 -93 -103 -100 0 -13 61 -76 73 -76 4 0 65 51 135 113 70 62 144 126 164
142 21 17 38 34 38 38 0 12 -63 87 -73 87 -5 0 -34 -24 -65 -52z m111 -46
c-11 -9 -85 -73 -163 -142 -78 -69 -145 -126 -149 -128 -5 -1 -20 13 -35 33
l-27 35 28 24 c15 13 89 78 163 144 l135 121 35 -35 35 -35 -22 -17z"/>
<path d="M2661 3125 c-83 -85 -151 -161 -151 -168 0 -14 60 -77 74 -77 4 0 28
23 53 50 25 28 50 50 56 50 5 0 36 -25 68 -55 32 -30 61 -55 66 -55 4 0 25 16
47 36 l38 35 -21 23 c-12 12 -18 26 -14 31 5 4 3 5 -3 2 -6 -3 -30 13 -53 37
l-41 42 25 24 26 24 67 -67 c37 -37 72 -67 77 -67 17 1 76 60 73 73 -4 17
-212 217 -225 217 -5 0 -78 -70 -162 -155z m274 37 l107 -104 -28 -29 c-15
-16 -31 -29 -36 -29 -5 0 -41 31 -81 70 l-72 69 -33 -32 -33 -32 69 -67 70
-68 -38 -30 -37 -30 -19 21 c-11 12 -40 39 -65 60 l-47 39 -54 -55 -54 -55
-34 35 -34 35 107 108 c58 59 126 128 149 155 24 26 46 46 49 45 4 -2 55 -50
114 -106z"/>
<path d="M7359 3207 c-22 -23 -39 -47 -39 -53 0 -6 21 -56 46 -110 25 -55 66
-146 91 -204 24 -58 48 -109 52 -113 4 -4 25 8 47 28 32 30 39 43 40 75 0 21
-3 37 -7 35 -4 -3 -10 3 -14 13 -5 12 8 31 50 70 57 54 74 59 122 41 26 -9 31
-7 65 30 37 39 49 71 27 71 -5 0 -8 3 -6 8 3 4 -7 8 -21 8 -15 1 -101 29 -192
64 -239 90 -216 87 -261 37z m309 -67 c94 -35 172 -66 172 -69 -1 -3 -16 -23
-34 -44 l-33 -37 -42 15 -43 15 -64 -58 c-35 -31 -64 -62 -64 -69 0 -7 8 -28
17 -48 l17 -35 -39 -40 -38 -39 -57 132 c-32 73 -74 168 -94 211 -39 85 -39
81 12 138 l25 27 46 -18 c25 -10 124 -46 219 -81z"/>
<path d="M7450 3112 c0 -4 15 -33 34 -64 l32 -58 34 35 c19 19 32 36 29 38
-14 11 -129 55 -129 49z m103 -74 c-25 -27 -41 -22 -62 21 l-20 39 49 -21 c47
-20 49 -22 33 -39z"/>
<path d="M3078 3021 c-1 -5 -26 -35 -55 -67 -65 -75 -223 -272 -223 -279 0 -9
69 -75 77 -74 4 0 46 45 93 101 186 220 213 249 221 236 5 -7 9 -8 9 -2 0 13
-94 94 -108 94 -6 0 -12 -4 -14 -9z m70 -91 c-13 -15 -68 -80 -123 -145 -55
-64 -111 -130 -125 -146 l-25 -30 -33 34 -32 33 140 172 141 173 40 -31 39
-32 -22 -28z"/>
<path d="M7131 2996 l-33 -34 46 -59 c25 -32 60 -75 78 -97 25 -31 28 -37 13
-32 -36 11 -267 56 -289 56 -42 0 -109 -78 -78 -92 7 -3 97 -114 169 -208 23
-30 55 -70 71 -89 l29 -35 41 30 c23 16 42 35 42 43 0 8 -26 46 -57 85 -32 39
-66 81 -76 93 l-18 23 33 -7 c18 -3 89 -21 157 -40 l123 -33 38 32 c21 18 39
40 39 48 1 9 -18 38 -40 65 -23 28 -84 103 -135 168 -52 64 -100 117 -107 117
-7 0 -28 -15 -46 -34z m179 -133 c69 -85 129 -163 134 -171 7 -12 0 -24 -29
-47 l-38 -32 -61 18 c-96 29 -266 67 -266 60 0 -3 36 -51 80 -106 44 -54 80
-102 80 -105 0 -7 -71 -63 -74 -58 -2 1 -63 79 -136 172 l-133 169 32 29 c17
15 38 28 46 28 19 0 299 -58 322 -67 10 -4 -22 42 -71 101 l-88 108 34 29 c18
15 35 28 38 28 3 0 61 -70 130 -156z"/>
<path d="M3215 2831 c-67 -16 -119 -60 -155 -130 -29 -58 -30 -152 -2 -207 43
-84 141 -147 227 -146 90 1 131 29 106 75 -32 58 -37 61 -84 47 -38 -10 -49
-9 -76 5 -41 20 -71 70 -71 115 0 72 70 138 130 125 55 -12 110 -74 110 -124
0 -16 8 -20 51 -23 28 -1 53 -1 55 1 2 2 4 24 4 48 0 83 -54 152 -155 199 -51
24 -86 28 -140 15z m112 -16 c55 -16 134 -79 158 -126 8 -15 15 -46 15 -69 l0
-40 -44 0 c-43 0 -44 1 -51 37 -9 49 -60 99 -110 109 -77 14 -145 -52 -145
-141 0 -97 89 -156 181 -120 12 4 23 -4 38 -28 28 -45 27 -52 -9 -67 -83 -35
-214 12 -275 99 -27 39 -30 50 -30 125 0 73 3 87 27 123 45 69 102 103 184
112 6 0 33 -6 61 -14z"/>
<path d="M6628 2644 c-27 -13 -48 -27 -48 -30 0 -13 50 -421 55 -451 7 -40 19
-41 80 -7 45 26 47 28 40 63 -3 20 -8 43 -10 51 -3 10 19 26 73 52 l76 37 34
-25 c29 -22 37 -24 60 -15 41 17 83 55 74 66 -6 9 -342 256 -376 277 -6 3 -32
-5 -58 -18z m242 -130 l190 -136 -46 -30 -46 -29 -33 26 c-19 14 -37 25 -42
25 -4 0 -43 -18 -86 -41 -82 -43 -78 -36 -63 -111 5 -23 0 -29 -40 -53 -25
-15 -48 -24 -51 -22 -3 3 -15 95 -28 204 -13 109 -26 212 -29 230 -4 27 0 35
27 52 18 12 38 21 45 21 7 0 98 -61 202 -136z"/>
<path d="M6704 2474 c12 -86 11 -85 56 -60 22 11 40 23 40 26 0 3 -23 23 -51
44 l-52 38 7 -48z m29 -8 c-3 -6 -3 -8 2 -4 4 4 17 2 28 -4 21 -11 21 -11 -3
-30 -28 -22 -35 -16 -43 35 -5 33 -4 37 8 27 8 -7 12 -17 8 -24z"/>
<path d="M3565 2445 c-92 -81 -175 -151 -186 -158 -10 -6 -19 -20 -19 -31 0
-11 3 -17 6 -13 4 3 29 -5 57 -20 l51 -25 23 26 c13 16 28 24 35 20 7 -5 8 -3
3 6 -9 15 -10 15 97 -28 l68 -27 0 -53 0 -53 46 -19 c75 -33 74 -34 74 88 0
59 3 170 6 247 l7 140 -47 23 c-26 12 -48 22 -51 22 -2 0 -79 -65 -170 -145z
m248 -144 c-3 -130 -7 -238 -9 -239 -1 -2 -23 5 -48 16 -44 20 -45 21 -48 73
l-3 52 -87 37 -86 38 -28 -29 c-33 -35 -47 -36 -97 -5 l-38 23 23 16 c13 8 95
78 183 155 l159 140 43 -21 43 -21 -7 -235z"/>
<path d="M3671 2396 c-25 -25 -43 -48 -40 -50 3 -3 21 -12 42 -21 l36 -15 6
33 c4 18 5 48 3 66 l-3 32 -44 -45z m33 -23 c-8 -47 -8 -47 -34 -33 l-22 12
28 29 c15 16 29 29 31 29 2 0 1 -17 -3 -37z"/>
<path d="M3934 2444 c-22 -53 -15 -67 39 -83 26 -8 47 -18 47 -23 0 -21 -72
-228 -78 -224 -4 2 -7 -8 -8 -22 0 -15 -4 -40 -8 -57 -7 -29 -5 -31 44 -47
l52 -17 13 32 c7 18 30 85 51 149 21 64 41 115 45 112 4 -2 5 5 2 16 -6 24 5
25 54 5 50 -21 62 -19 74 13 6 15 16 39 24 55 9 19 10 27 2 27 -27 0 -216 64
-211 71 3 5 -1 6 -8 4 -8 -3 -33 1 -57 10 -59 20 -60 20 -77 -21z m182 -27
l161 -52 -18 -43 c-10 -23 -19 -42 -21 -42 -2 0 -27 9 -56 20 l-52 20 -9 -22
c-4 -13 -30 -89 -56 -169 l-48 -145 -44 15 c-23 9 -43 18 -43 21 0 3 24 79 54
168 l54 161 -54 18 c-30 9 -54 21 -54 27 0 8 22 76 25 76 0 0 73 -24 161 -53z"/>
<path d="M6090 2414 c-58 -18 -124 -38 -147 -44 -27 -7 -43 -17 -43 -26 0 -8
26 -94 59 -192 32 -97 62 -192 65 -209 8 -37 10 -37 72 -22 52 13 54 22 25
117 -14 46 -16 64 -8 67 106 32 149 49 153 60 8 21 -16 95 -30 95 -8 0 -43 -9
-78 -20 -83 -26 -95 -25 -105 7 -9 27 -9 28 76 55 47 15 91 26 97 24 14 -5 -8
100 -22 114 -5 4 -56 -7 -114 -26z m119 -21 c6 -21 11 -41 11 -44 0 -3 -42
-18 -92 -34 -51 -16 -95 -30 -96 -31 -6 -4 19 -73 27 -79 4 -2 45 7 91 21 86
27 99 24 100 -18 0 -9 2 -23 5 -30 4 -10 -19 -22 -80 -41 -47 -16 -85 -31 -85
-35 0 -4 9 -36 20 -70 11 -35 20 -69 20 -76 0 -11 -79 -43 -84 -34 -7 11 -137
420 -134 423 5 5 262 84 275 84 7 1 17 -16 22 -36z"/>
<path d="M4312 2363 c-6 -2 -10 -8 -7 -13 5 -8 -10 -92 -54 -290 -16 -74 -26
-139 -21 -143 9 -10 254 -67 288 -67 18 0 22 5 22 31 0 16 3 28 8 26 4 -3 7 7
8 22 1 27 -2 28 -95 47 -91 18 -96 20 -93 43 1 14 4 26 6 28 2 2 41 -3 85 -12
45 -10 85 -15 88 -12 3 3 6 29 7 58 l1 53 -40 8 c-108 23 -116 27 -113 56 2
15 8 26 13 25 6 0 49 -9 97 -19 48 -10 90 -15 94 -11 4 4 9 29 12 56 l4 49
-78 17 c-44 9 -104 23 -134 31 -81 22 -84 23 -98 17z m158 -42 c52 -11 106
-24 119 -27 21 -5 23 -9 17 -47 -4 -23 -8 -43 -10 -44 -2 -2 -45 5 -97 17 -51
11 -96 20 -100 20 -4 0 -9 -18 -11 -39 l-3 -40 62 -15 c34 -9 72 -16 84 -16
20 0 21 -3 14 -47 -4 -27 -8 -49 -9 -50 -1 -1 -40 7 -86 17 -46 10 -86 17 -89
15 -2 -2 -4 -21 -5 -42 l-1 -38 93 -19 c86 -18 93 -21 88 -40 -3 -12 -6 -32
-6 -45 0 -28 -6 -27 -186 14 l-112 26 19 82 c10 45 30 142 45 215 32 154 9
141 174 103z"/>
<path d="M5563 2285 c-187 -93 -168 -370 29 -434 56 -18 141 -15 180 6 18 10
38 18 43 18 6 0 11 5 13 10 2 6 14 21 27 35 54 57 73 174 41 252 -51 121 -209
174 -333 113z m218 -12 c77 -40 110 -91 116 -180 6 -78 -7 -114 -61 -171 -46
-50 -96 -72 -161 -72 -133 0 -229 95 -229 225 0 174 176 278 335 198z"/>
<path d="M5611 2192 c-92 -50 -92 -185 0 -232 48 -25 85 -25 126 0 64 38 83
112 48 179 -32 62 -113 87 -174 53z m102 -6 c47 -19 69 -49 74 -101 10 -80
-47 -137 -127 -129 -47 6 -79 29 -97 72 -25 60 3 132 62 158 38 17 49 17 88 0z"/>
</g>
</svg>
