<?xml version="1.0" standalone="no"?>
<!DOCTYPE svg PUBLIC "-//W3C//DTD SVG 20010904//EN"
 "http://www.w3.org/TR/2001/REC-SVG-20010904/DTD/svg10.dtd">
<svg version="1.0" xmlns="http://www.w3.org/2000/svg"
 width="1024.000000pt" height="1536.000000pt" viewBox="0 0 1024.000000 1536.000000"
 preserveAspectRatio="xMidYMid meet">
<metadata>
Created by potrace 1.16, written by Peter Selinger 2001-2019
</metadata>
<g transform="translate(0.000000,1536.000000) scale(0.100000,-0.100000)"
fill="#000000" stroke="none">
<path d="M1677 13929 c-414 -54 -720 -349 -763 -736 l-7 -63 4212 0 4212 0 -6
48 c-27 209 -110 379 -252 513 -108 103 -233 171 -399 217 l-99 27 -3415 1
c-1906 1 -3445 -2 -3483 -7z m2833 -19 l-2885 -5 -85 -26 c-47 -14 -94 -29
-105 -33 -11 -4 -9 -1 6 8 22 13 145 48 209 59 14 2 1312 4 2885 3 l2860 -1
-2885 -5z m4105 -5 c33 -8 44 -12 25 -8 -19 3 -303 9 -630 12 l-595 7 570 1
c464 2 581 -1 630 -12z m171 -48 c286 -116 491 -370 518 -642 l5 -50 -10 45
c-29 129 -46 182 -85 259 -46 89 -71 124 -85 115 -5 -3 -6 1 -3 9 7 20 -121
137 -206 188 -40 23 -111 57 -159 75 -47 19 -79 33 -71 34 8 0 51 -15 96 -33z
m-7376 -20 c0 -2 -24 -16 -52 -30 -88 -45 -187 -126 -250 -205 -66 -83 -88
-123 -130 -232 -18 -46 -27 -62 -23 -40 9 58 90 211 150 283 61 74 134 135
228 191 56 33 77 42 77 33z m-466 -604 c-4 -32 -7 -63 -8 -70 -1 -7 -6 -16
-10 -20 -5 -4 -6 8 -3 27 3 19 9 54 12 78 10 63 18 51 9 -15z m33 -79 c-3 -3
-12 -4 -19 -1 -8 3 -5 6 6 6 11 1 17 -2 13 -5z m81 -1 c-10 -2 -26 -2 -35 0
-10 3 -2 5 17 5 19 0 27 -2 18 -5z m299 1 c-7 -7 -267 -8 -274 0 -3 3 58 5
137 5 78 0 140 -2 137 -5z m990 0 c-7 -7 -938 -6 -945 1 -3 3 210 5 473 5 263
0 476 -3 472 -6z m86 -1 c-13 -2 -33 -2 -45 0 -13 2 -3 4 22 4 25 0 35 -2 23
-4z m490 0 c-83 -2 -223 -2 -310 0 -87 1 -18 3 152 3 171 0 242 -2 158 -3z
m184 1 c-3 -3 -12 -4 -19 -1 -8 3 -5 6 6 6 11 1 17 -2 13 -5z m271 0 c-7 -7
-249 -6 -256 1 -3 3 55 5 128 5 73 0 131 -3 128 -6z m159 -1 c-7 -7 -139 -4
-146 3 -2 2 31 4 74 4 43 0 75 -3 72 -7z m810 1 c-7 -7 -789 -5 -796 2 -3 2
177 4 398 4 222 -1 401 -3 398 -6z m266 -1 c-45 -2 -122 -2 -170 0 -48 1 -11
3 82 3 94 0 133 -2 88 -3z m646 3 c-7 -8 -549 -9 -556 -2 -4 3 121 6 277 6
156 0 281 -2 279 -4z m1029 -1 c-6 -7 -1009 -7 -1016 0 -3 3 226 5 508 5 282
0 511 -2 508 -5z m530 -1 c-7 -6 -510 -5 -517 1 -2 3 114 5 259 5 145 0 261
-3 258 -6z m1550 1 c-7 -7 -1520 -7 -1526 0 -3 3 340 5 763 5 423 0 766 -2
763 -5z m571 0 c-7 -7 -549 -9 -556 -1 -3 3 121 6 277 6 156 0 281 -2 279 -5z
m209 -1 c-8 -7 -188 -8 -195 0 -4 3 40 6 97 6 57 0 101 -3 98 -6z m109 -1
c-20 -2 -52 -2 -70 0 -17 2 0 4 38 4 39 0 53 -2 32 -4z"/>
<path d="M2543 12530 c-165 -34 -274 -217 -221 -371 15 -44 58 -109 71 -109 6
0 1 11 -12 24 -47 50 -75 175 -51 231 5 13 6 1 3 -31 -7 -67 18 -154 59 -200
38 -42 36 -49 -37 -173 -79 -136 -169 -212 -265 -224 l-45 -6 50 13 c68 17
103 37 149 83 63 62 166 230 166 270 0 10 -13 -10 -29 -44 -86 -182 -190 -285
-295 -294 -38 -4 -40 -2 -53 37 -31 94 -126 164 -221 164 -66 0 -116 -21 -165
-68 -76 -73 -101 -159 -73 -253 44 -153 211 -226 346 -153 54 29 81 59 105
118 15 35 16 36 73 36 42 0 72 -7 107 -25 27 -13 51 -22 53 -20 5 5 -59 45
-72 45 -5 0 -7 3 -4 6 12 11 66 -26 109 -74 39 -43 156 -248 147 -257 -1 -2
-27 43 -56 99 -51 98 -109 182 -119 172 -2 -2 12 -26 32 -52 20 -26 57 -88 81
-137 l45 -88 -30 -35 c-95 -108 -104 -249 -22 -361 89 -124 295 -139 399 -30
55 58 77 113 76 197 0 89 -23 149 -78 204 -58 58 -91 70 -183 71 l-83 0 -45
104 c-103 233 -100 340 11 513 42 66 43 66 78 58 96 -21 232 54 281 156 27 56
32 168 10 235 -40 119 -169 194 -292 169z m141 -24 c46 -19 104 -73 127 -118
28 -56 35 -151 16 -219 -31 -106 -125 -178 -240 -185 l-62 -3 55 8 c169 24
262 136 247 298 -12 128 -94 212 -216 221 -101 7 -170 -27 -232 -112 -33 -45
-40 -38 -8 9 26 37 89 86 132 102 44 16 141 16 181 -1z m-210 -558 c-4 -7 -22
-35 -39 -63 -46 -73 -57 -109 -65 -215 l-7 -95 -1 81 c-3 107 12 150 94 282
15 23 31 32 18 10z m-676 -69 c-83 -12 -134 -43 -181 -109 -17 -25 -17 -25 -2
7 29 61 122 113 200 111 35 0 33 -2 -17 -9z m153 -46 c40 -36 69 -80 69 -105
0 -7 -9 5 -19 27 -18 40 -58 82 -96 103 -11 6 -14 12 -8 12 7 0 31 -17 54 -37z
m-361 -133 c-5 -22 -8 -27 -9 -13 -1 21 9 56 14 51 2 -2 0 -19 -5 -38z m10
-128 c15 -56 83 -126 136 -141 114 -32 211 7 259 103 14 27 25 44 25 38 0 -27
-41 -92 -72 -115 -100 -74 -231 -60 -311 34 -34 40 -68 121 -66 158 1 17 9 -5
29 -77z m555 28 c12 -4 -7 -6 -45 -3 -36 3 -67 7 -69 9 -9 8 95 2 114 -6z
m222 -52 c-3 -8 -6 -5 -6 6 -1 11 2 17 5 13 3 -3 4 -12 1 -19z m31 -73 c11
-27 32 -77 47 -110 14 -33 22 -55 17 -50 -11 11 -76 158 -87 195 -12 40 1 20
23 -35z m200 -192 c-10 -2 -28 -2 -40 0 -13 2 -5 4 17 4 22 1 32 -1 23 -4z
m-81 -9 c-3 -3 -12 -4 -19 -1 -8 3 -5 6 6 6 11 1 17 -2 13 -5z m130 0 c-3 -3
-12 -4 -19 -1 -8 3 -5 6 6 6 11 1 17 -2 13 -5z m75 -37 c51 -39 98 -126 97
-177 l-2 -35 -7 40 c-15 84 -53 143 -115 181 -22 13 -35 24 -28 24 6 0 31 -15
55 -33z m-326 -38 c-41 -45 -54 -73 -66 -139 -6 -33 -8 -37 -9 -16 -2 49 21
105 62 152 21 24 41 44 44 44 3 0 -11 -18 -31 -41z m-20 -332 c42 -61 110 -92
199 -92 104 1 182 50 221 140 7 17 13 23 14 15 0 -34 -68 -113 -123 -141 -85
-44 -211 -30 -281 32 -40 35 -86 121 -85 158 0 17 5 10 13 -22 7 -27 26 -67
42 -90z m441 91 c-3 -7 -5 -2 -5 12 0 14 2 19 5 13 2 -7 2 -19 0 -25z"/>
<path d="M6764 12125 c-84 -58 -27 -189 73 -170 80 15 109 100 54 156 -33 33
-91 40 -127 14z m110 -17 c13 -13 27 -34 30 -48 4 -19 2 -17 -9 7 -17 37 -48
57 -76 50 -10 -3 -19 -1 -19 4 0 18 49 9 74 -13z m-104 -8 c-24 -24 -27 -82
-4 -104 16 -16 80 -22 100 -8 6 4 16 16 22 27 10 17 11 17 12 3 1 -45 -102
-66 -140 -28 -12 12 -20 33 -20 53 0 33 23 77 41 77 5 0 0 -9 -11 -20z"/>
<path d="M3550 11755 c0 -364 -2 -382 -54 -423 -34 -26 -109 -38 -156 -25 -19
6 -41 12 -49 14 -9 3 -23 -19 -42 -64 l-28 -68 37 -17 c27 -12 66 -17 147 -17
100 0 114 2 161 27 62 33 116 93 141 157 15 40 18 91 21 399 l3 352 -90 0 -91
0 0 -335z m133 308 c-24 -2 -62 -2 -85 0 -24 2 -5 4 42 4 47 0 66 -2 43 -4z
m-116 -90 c-2 -16 -4 -3 -4 27 0 30 2 43 4 28 2 -16 2 -40 0 -55z m150 40 c-3
-10 -5 -4 -5 12 0 17 2 24 5 18 2 -7 2 -21 0 -30z m2 -115 c-1 -53 -3 -63 -8
-38 -6 35 -3 110 5 110 2 0 3 -33 3 -72z m-160 -506 c-9 -15 -10 -15 -5 1 3
10 7 139 8 285 l3 267 2 -268 c2 -181 0 -274 -8 -285z m160 308 c1 -55 -2
-100 -6 -100 -7 0 -10 166 -5 193 6 26 10 -6 11 -93z m0 -202 c1 -29 0 -50 -2
-48 -8 9 -15 100 -8 100 4 0 8 -24 10 -52z m-29 -159 c-20 -53 -47 -90 -85
-119 -11 -8 -3 4 18 26 38 41 76 123 78 172 l2 27 4 -26 c2 -14 -5 -50 -17
-80z m-164 -8 c-44 -49 -156 -67 -221 -36 -23 11 -24 13 -5 7 14 -4 57 -7 96
-7 62 0 75 3 105 27 41 32 48 35 25 9z m-253 -76 c-9 -19 -18 -33 -21 -31 -4
5 26 66 33 66 3 0 -3 -16 -12 -35z m3 -72 c-6 -6 -36 9 -36 18 0 5 9 4 20 -3
10 -7 18 -14 16 -15z m290 12 c-11 -8 -27 -15 -35 -15 -9 1 -2 7 14 15 39 18
44 18 21 0z m-233 -22 c-7 -2 -21 -2 -30 0 -10 3 -4 5 12 5 17 0 24 -2 18 -5z
m170 0 c-7 -2 -21 -2 -30 0 -10 3 -4 5 12 5 17 0 24 -2 18 -5z m-75 -10 c-16
-2 -40 -2 -55 0 -16 2 -3 4 27 4 30 0 43 -2 28 -4z"/>
<path d="M3870 11630 l0 -460 85 0 85 0 0 159 0 158 143 5 c129 4 147 7 199
32 104 50 153 133 151 261 -1 129 -42 210 -130 258 -69 37 -144 47 -350 47
l-183 0 0 -460z m448 432 c13 -4 -78 -6 -202 -4 l-226 4 0 -436 0 -436 59 0
c48 0 60 3 64 18 4 13 5 11 6 -5 1 -22 -3 -23 -69 -23 l-70 0 0 445 0 445 208
-1 c114 -1 217 -4 230 -7z m152 -94 c17 -22 30 -46 30 -51 0 -6 -13 10 -30 36
-16 26 -33 47 -37 47 -5 0 -19 10 -33 21 l-25 20 33 -16 c18 -9 46 -34 62 -57z
m-170 -28 c19 -11 31 -19 27 -20 -5 0 -18 6 -30 13 -12 6 -75 14 -142 18
l-120 5 115 2 c96 1 121 -2 150 -18z m-13 -19 c23 -11 43 -17 46 -15 2 2 12
-5 22 -17 13 -14 20 -40 23 -84 4 -53 0 -70 -18 -99 -12 -20 -26 -36 -31 -36
-5 0 0 10 11 22 27 29 33 57 28 123 -4 49 -24 93 -36 80 -3 -2 1 -11 7 -19 22
-26 24 -117 4 -156 -30 -57 -70 -73 -195 -78 l-108 -5 0 152 0 151 103 0 c78
0 112 -5 144 -19z m-270 -203 c-1 -40 -3 -8 -3 72 0 80 2 112 3 73 2 -40 2
-106 0 -145z m490 160 c-3 -8 -6 -5 -6 6 -1 11 2 17 5 13 3 -3 4 -12 1 -19z
m10 -130 c-2 -24 -4 -7 -4 37 0 44 2 63 4 43 2 -21 2 -57 0 -80z m-25 -100
c-11 -24 -32 -54 -48 -68 -28 -24 -28 -24 3 12 17 20 36 53 43 73 7 20 14 34
17 32 2 -3 -4 -25 -15 -49z m-299 -25 c-29 -2 -77 -2 -105 0 -29 2 -6 3 52 3
58 0 81 -1 53 -3z m203 -78 c-11 -8 -25 -15 -30 -15 -6 1 0 7 14 15 32 19 40
18 16 0z m-61 -25 c-11 -5 -33 -8 -50 -8 -29 1 -29 1 5 8 49 10 69 10 45 0z
m-132 -17 c-29 -2 -78 -2 -110 0 -32 2 -8 3 52 3 61 0 87 -1 58 -3z m-186
-155 c-2 -29 -3 -8 -3 47 0 55 1 79 3 53 2 -26 2 -71 0 -100z m0 -95 c-3 -10
-5 -4 -5 12 0 17 2 24 5 18 2 -7 2 -21 0 -30z"/>
<path d="M6160 11910 l0 -80 -60 0 -60 0 0 -65 0 -65 59 0 59 0 4 -198 3 -199
30 -48 c44 -72 105 -100 210 -99 58 0 97 7 140 24 33 12 61 24 63 25 4 4 -28
115 -34 115 -2 0 -31 -7 -63 -16 -68 -19 -120 -13 -147 17 -17 19 -20 43 -24
203 l-5 181 -5 -175 -6 -175 1 174 0 173 133 -1 132 -2 0 66 0 65 -126 0 -126
0 4 80 3 80 -92 0 -93 0 0 -80z m168 -7 l-2 -78 -3 73 -4 72 -69 0 -69 0 -4
-72 -3 -73 -2 78 -2 77 80 0 80 0 -2 -77z m-215 -90 l-53 -4 0 -44 0 -44 53
-4 52 -3 -57 -2 -58 -2 0 55 0 55 58 -2 57 -2 -52 -3z m467 -48 l0 -55 -117 2
-118 2 113 3 112 4 0 44 0 44 -112 4 -113 3 118 2 117 2 0 -55z m-398 -288 c2
-93 0 -158 -4 -145 -3 13 -6 102 -5 198 0 209 5 181 9 -53z m177 -172 c16 -20
16 -20 -6 -1 -13 11 -23 26 -22 35 0 14 1 14 6 1 3 -8 13 -24 22 -35z m225
-48 c8 -26 10 -47 6 -47 -5 0 -11 18 -15 40 -5 28 -12 40 -23 40 -15 0 -15 2
-2 10 18 11 17 13 34 -43z m-317 -49 c17 -11 62 -25 100 -33 67 -15 67 -15 13
-9 -30 2 -75 15 -100 27 -42 20 -90 75 -90 101 0 6 10 -7 23 -28 12 -22 36
-48 54 -58z m218 67 c6 -2 -10 -4 -35 -4 -25 0 -51 3 -59 8 -13 8 69 5 94 -4z
m42 9 c-3 -3 -12 -4 -19 -1 -8 3 -5 6 6 6 11 1 17 -2 13 -5z m13 -91 c-19 -8
-51 -17 -70 -19 -24 -3 -18 0 19 11 30 9 57 18 60 20 2 3 9 5 15 4 6 0 -5 -7
-24 -16z"/>
<path d="M4793 11836 c-88 -28 -167 -99 -206 -185 -17 -37 -22 -66 -22 -146 0
-87 4 -107 26 -155 36 -77 80 -124 150 -159 150 -75 353 -32 439 94 l29 43
-72 29 -72 30 -20 -30 c-28 -43 -90 -72 -147 -71 -83 3 -140 55 -154 142 l-7
42 247 0 247 0 -7 58 c-19 153 -92 257 -214 303 -58 22 -154 24 -217 5z m130
-3 c-13 -2 -33 -2 -45 0 -13 2 -3 4 22 4 25 0 35 -2 23 -4z m-118 -18 c-62
-17 -69 -17 -30 0 17 8 41 14 55 14 15 0 5 -6 -25 -14z m178 8 c-7 -2 -19 -2
-25 0 -7 3 -2 5 12 5 14 0 19 -2 13 -5z m78 -31 c24 -16 53 -40 64 -52 12 -15
3 -10 -25 12 -25 19 -58 43 -75 51 -16 9 -25 16 -19 17 5 0 30 -13 55 -28z
m-388 -54 c-22 -24 -48 -56 -56 -73 -17 -34 -36 -120 -38 -168 -1 -27 -3 -28
-6 -8 -6 32 14 137 34 176 14 28 91 115 102 115 3 0 -13 -19 -36 -42z m259 2
c21 -6 40 -15 42 -19 3 -5 -12 -2 -34 5 -22 8 -54 12 -72 9 -29 -4 -30 -4 -8
4 34 12 30 12 72 1z m-106 -19 c-4 -5 18 -7 51 -4 46 3 64 0 90 -16 31 -19 78
-94 69 -109 -2 -4 -70 -6 -150 -4 l-145 3 10 27 c6 15 24 42 42 60 35 36 26
44 -13 10 -14 -13 -11 -8 7 10 31 31 50 42 39 23z m205 -53 c15 -28 5 -21 -21
15 -15 20 -17 27 -6 18 9 -8 22 -23 27 -33z m159 -41 c6 -21 10 -41 7 -43 -2
-2 -9 15 -16 38 -7 23 -20 53 -28 67 l-15 26 20 -24 c11 -14 25 -42 32 -64z
m-137 -45 c-9 -15 -32 -17 -164 -18 l-154 0 155 5 155 6 -1 35 c-2 32 -1 33 9
12 8 -17 8 -29 0 -40z m-322 21 c-12 -20 -14 -14 -5 12 4 9 9 14 11 11 3 -2 0
-13 -6 -23z m476 -80 c-3 -10 -5 -2 -5 17 0 19 2 27 5 18 2 -10 2 -26 0 -35z
m8 -33 c4 -7 -77 -9 -237 -8 l-243 2 235 6 c129 3 236 7 237 8 1 1 5 -2 8 -8z
m-612 -120 c6 -20 4 -19 -8 5 -8 17 -14 44 -13 60 0 29 0 29 7 -5 4 -19 11
-46 14 -60z m124 53 c-3 -10 -5 -4 -5 12 0 17 2 24 5 18 2 -7 2 -21 0 -30z
m333 -83 c-12 -17 -30 -35 -41 -41 -11 -5 -3 8 18 30 46 48 52 51 23 11z m70
5 c14 -8 21 -14 15 -14 -5 0 -21 6 -35 14 -14 8 -20 14 -15 14 6 0 21 -6 35
-14z m-265 -71 c20 -3 53 -4 73 -1 29 5 33 4 18 -5 -47 -27 -163 12 -196 66
-7 12 5 4 28 -16 23 -21 56 -40 77 -44z m-198 -4 c12 -14 45 -39 75 -55 45
-25 68 -30 148 -34 69 -4 84 -7 55 -11 -126 -17 -266 45 -318 142 -17 32 -17
32 0 8 10 -13 28 -36 40 -50z m516 54 c10 -10 -29 -60 -66 -86 -22 -15 -17 -8
17 26 38 37 46 50 35 57 -8 5 -9 9 -3 9 6 0 14 -3 17 -6z m-117 -119 c-11 -8
-25 -15 -30 -15 -6 1 0 7 14 15 32 19 40 18 16 0z m-49 -21 c-3 -3 -12 -4 -19
-1 -8 3 -5 6 6 6 11 1 17 -2 13 -5z"/>
<path d="M5600 11834 c-19 -8 -54 -34 -77 -57 l-43 -41 0 52 0 52 -80 0 -80 0
0 -435 0 -435 80 0 80 0 0 146 0 146 41 -37 c56 -50 99 -66 180 -66 189 0 310
150 296 368 -12 192 -136 324 -306 323 -31 -1 -72 -8 -91 -16z m162 -2 c10 -4
-17 -7 -60 -7 -86 0 -125 -16 -175 -69 -27 -29 -28 -29 -12 -4 19 30 69 65
113 78 33 10 111 11 134 2z m-295 -69 c-2 -16 -4 -5 -4 22 0 28 2 40 4 28 2
-13 2 -35 0 -50z m-69 50 l-58 -4 0 -409 0 -410 60 0 59 0 4 133 3 132 2 -137
2 -138 -70 0 -70 0 0 420 0 420 63 -2 62 -2 -57 -3z m432 -10 c49 -32 92 -79
115 -123 28 -56 48 -151 42 -205 -3 -38 -4 -38 -6 10 -2 66 -23 150 -49 201
-22 43 -96 114 -118 114 -7 0 -16 5 -19 10 -9 15 8 12 35 -7z m-147 -80 c-13
-2 -35 -2 -50 0 -16 2 -5 4 22 4 28 0 40 -2 28 -4z m-119 -28 c-23 -14 -51
-40 -63 -57 -11 -18 -21 -27 -21 -20 0 19 87 102 107 102 11 0 2 -10 -23 -25z
m171 15 c3 -6 -1 -7 -9 -4 -18 7 -21 14 -7 14 6 0 13 -4 16 -10z m-10 -20 c48
-24 51 -25 34 -2 -7 9 2 4 20 -13 47 -42 61 -82 59 -167 l-1 -73 -7 85 c-6 86
-16 116 -45 140 -12 10 -10 3 5 -23 27 -46 37 -145 20 -206 -6 -25 -28 -61
-49 -84 -35 -37 -43 -41 -100 -45 -54 -4 -66 -1 -100 21 -26 17 -41 22 -43 15
-3 -7 -7 -5 -11 6 -4 11 -3 15 4 10 7 -4 10 -1 7 7 -3 8 -11 13 -17 11 -20 -4
-41 64 -39 130 l1 63 6 -75 c4 -41 13 -84 20 -95 12 -19 12 -19 7 5 -15 65
-17 129 -6 170 31 117 136 171 235 120z m-248 -112 c-3 -8 -6 -5 -6 6 -1 11 2
17 5 13 3 -3 4 -12 1 -19z m353 -161 c0 -7 -7 -22 -15 -33 -13 -17 -13 -16 -3
14 13 34 18 40 18 19z m147 -19 c-3 -7 -5 -2 -5 12 0 14 2 19 5 13 2 -7 2 -19
0 -25z m-16 -45 c-12 -20 -14 -14 -5 12 4 9 9 14 11 11 3 -2 0 -13 -6 -23z
m-186 -23 c-42 -44 -104 -65 -152 -52 l-38 11 42 -5 c47 -6 116 19 147 55 11
11 21 21 24 21 3 0 -7 -13 -23 -30z m175 -8 c0 -5 -16 -30 -36 -55 -36 -46
-103 -88 -140 -86 -10 0 2 7 27 15 32 9 60 29 93 63 25 28 46 55 46 61 0 5 2
10 5 10 3 0 5 -4 5 -8z m-395 -12 c3 -6 -1 -7 -9 -4 -18 7 -21 14 -7 14 6 0
13 -4 16 -10z m61 -119 c22 -6 62 -12 89 -13 40 -1 43 -2 15 -5 -82 -10 -176
28 -217 87 -10 15 1 9 29 -17 25 -23 63 -46 84 -52z"/>
<path d="M7245 11837 c-105 -35 -178 -97 -218 -186 -17 -37 -22 -66 -22 -146
0 -93 2 -105 33 -167 37 -76 83 -120 162 -157 46 -21 70 -25 145 -25 97 -1
153 17 223 71 33 25 92 107 92 128 0 13 -154 58 -158 45 -10 -30 -52 -77 -82
-93 -44 -23 -120 -18 -158 10 -15 10 -38 41 -51 67 -31 61 -33 170 -5 231 27
60 27 62 4 35 -16 -18 -19 -20 -12 -5 6 11 23 31 38 45 16 14 22 17 15 8 -16
-22 -3 -23 23 -3 28 21 124 19 158 -3 29 -19 68 -65 68 -80 0 -7 145 14 158
23 1 1 -5 19 -14 40 -19 46 -62 105 -77 105 -6 0 -1 -10 10 -22 26 -29 63 -89
63 -104 0 -11 -119 -38 -128 -29 -2 2 13 7 34 10 22 4 49 10 62 13 l22 7 -21
40 c-12 22 -29 49 -39 60 -11 11 -18 25 -17 30 1 6 -20 21 -47 35 -60 29 -196
38 -261 17z m250 -26 c25 -11 45 -22 45 -25 0 -3 -19 4 -42 14 -24 10 -77 23
-118 29 l-75 10 72 -4 c43 -2 91 -12 118 -24z m-210 12 c-11 -2 -40 -11 -64
-19 -24 -7 -41 -11 -37 -6 13 12 70 30 96 30 20 0 21 -1 5 -5z m-159 -74 c-53
-47 -70 -76 -90 -151 -8 -29 -15 -43 -15 -31 -2 60 58 163 119 206 41 28 35
19 -14 -24z m224 -19 c-14 -4 -34 -8 -45 -8 l-20 -1 20 9 c11 5 31 8 45 8 l25
0 -25 -8z m57 -6 c-3 -3 -12 -4 -19 -1 -8 3 -5 6 6 6 11 1 17 -2 13 -5z m48
-22 c11 -10 29 -29 40 -42 11 -14 -1 -7 -25 15 -25 22 -47 41 -49 43 -2 1 0 2
5 2 5 -1 18 -9 29 -18z m-282 -179 c-4 -54 -1 -79 16 -123 13 -36 15 -48 6
-35 -31 39 -43 124 -29 194 10 50 13 36 7 -36z m-145 -93 c0 -16 -3 -10 -9 15
-4 22 -8 54 -7 70 0 22 3 19 9 -15 4 -25 7 -56 7 -70z m32 -99 c-1 -13 -29 45
-29 59 0 8 6 0 14 -19 8 -18 15 -36 15 -40z m572 29 c12 0 15 -5 11 -16 -3 -9
-9 -11 -12 -6 -3 5 -32 18 -63 28 -32 10 -58 21 -58 24 0 4 24 -1 53 -11 28
-10 60 -18 69 -19z m-131 -8 c-5 -9 -19 -26 -32 -37 -17 -15 -15 -10 7 17 32
41 40 48 25 20z m-266 -32 c10 -11 16 -20 13 -20 -3 0 -13 9 -23 20 -10 11
-16 20 -13 20 3 0 13 -9 23 -20z m-61 -100 c28 -17 45 -30 38 -30 -29 0 -124
76 -144 115 -5 11 4 3 22 -18 18 -21 55 -51 84 -67z m447 81 c-14 -25 -101
-101 -115 -100 -6 0 -2 6 9 12 11 7 40 33 65 59 51 53 55 55 41 29z m-336 -19
c-3 -3 -11 0 -18 7 -9 10 -8 11 6 5 10 -3 15 -9 12 -12z m141 3 c-13 -10 -40
-14 -75 -13 l-56 1 62 6 c34 3 65 9 69 14 4 4 10 7 13 7 3 0 -3 -7 -13 -15z
m39 -100 c-16 -8 -43 -14 -60 -13 -24 0 -21 2 14 9 24 5 46 11 49 14 3 3 10 5
16 4 6 0 -2 -7 -19 -14z m-142 -12 c-13 -2 -33 -2 -45 0 -13 2 -3 4 22 4 25 0
35 -2 23 -4z"/>
<path d="M7877 11832 c-99 -36 -147 -99 -147 -195 0 -106 70 -159 255 -196 55
-11 109 -23 119 -27 13 -5 17 -4 12 4 -5 8 -1 10 10 5 10 -4 13 -8 7 -10 -9
-3 -9 -11 -1 -29 8 -18 8 -31 0 -49 -7 -15 -8 -25 -2 -25 5 0 12 10 14 23 3
12 7 31 9 42 3 14 5 12 6 -8 1 -36 -17 -70 -34 -64 -7 3 -32 -1 -56 -10 -74
-25 -165 -2 -208 54 -21 26 -22 26 -83 15 -33 -6 -62 -13 -65 -15 -2 -3 -1
-16 2 -29 11 -43 63 -95 123 -125 52 -26 66 -28 172 -28 103 0 121 3 171 26
88 42 130 123 115 224 -14 88 -90 133 -284 166 -85 15 -122 38 -122 78 0 52
58 79 144 67 40 -6 87 -36 97 -63 3 -7 25 -7 72 0 61 9 67 12 61 31 -17 59
-89 121 -165 141 -72 19 -163 18 -222 -3z m131 1 c-10 -2 -28 -2 -40 0 -13 2
-5 4 17 4 22 1 32 -1 23 -4z m-75 -10 c-7 -2 -19 -2 -25 0 -7 3 -2 5 12 5 14
0 19 -2 13 -5z m185 -7 c47 -17 98 -52 107 -74 3 -8 -12 1 -33 20 -33 30 -70
46 -147 62 -15 3 -13 4 6 5 15 0 45 -5 67 -13z m-285 -25 c-17 -11 -43 -37
-57 -58 -14 -21 -26 -32 -26 -24 0 18 83 101 101 101 8 0 0 -9 -18 -19z m255
-58 c18 -9 35 -19 38 -24 3 -5 -13 0 -35 12 -74 38 -177 23 -206 -30 -8 -14
-14 -21 -15 -14 0 22 44 62 80 72 41 11 92 5 138 -16z m162 -37 c0 -19 -99
-31 -114 -15 -8 9 -8 10 2 5 6 -4 32 -4 56 -1 35 6 43 10 39 23 -4 10 -2 13 5
8 7 -4 12 -13 12 -20z m-481 -135 c15 -27 46 -47 112 -71 30 -11 45 -19 33
-20 -31 0 -126 52 -147 81 -11 15 -21 48 -23 75 l-3 49 8 -46 c5 -26 14 -56
20 -68z m131 34 c0 -11 -14 7 -31 40 -7 13 -3 12 10 -5 11 -14 21 -29 21 -35z
m111 -27 c38 -6 67 -13 65 -16 -7 -7 -140 18 -156 29 -12 9 -11 10 4 5 10 -3
49 -11 87 -18z m124 -28 c13 -5 14 -9 5 -9 -8 0 -24 4 -35 9 -13 5 -14 9 -5 9
8 0 24 -4 35 -9z m102 -46 c33 -25 54 -75 52 -124 -1 -14 -7 1 -14 33 -14 66
-23 77 -80 107 -23 12 -29 18 -15 14 14 -3 39 -17 57 -30z m-173 -45 c21 -6
36 -12 35 -14 -4 -3 -138 23 -154 30 -16 7 76 -5 119 -16z m-202 -123 c20 -20
53 -39 79 -46 42 -12 122 -10 164 4 11 3 7 0 -10 -8 -39 -20 -126 -20 -172 -1
-35 15 -121 85 -104 85 5 0 24 -15 43 -34z m-82 14 c-14 -4 -34 -8 -45 -8 -16
0 -15 2 5 8 14 4 34 8 45 8 16 0 15 -2 -5 -8z m496 -33 c-3 -13 -15 -36 -27
-52 -26 -32 -113 -75 -149 -74 -19 1 -16 3 13 10 87 21 137 61 153 122 3 15 9
26 11 23 3 -3 3 -16 -1 -29z m-522 -18 c19 -37 78 -77 136 -93 30 -8 47 -15
36 -15 -44 -2 -103 26 -148 69 -27 26 -48 52 -48 60 0 16 9 8 24 -21z m284
-116 c-15 -2 -42 -2 -60 0 -18 2 -6 4 27 4 33 0 48 -2 33 -4z"/>
<path d="M6730 11503 l0 -333 90 0 90 0 0 329 0 330 -90 3 -90 3 0 -332z m98
310 l-78 -4 0 -310 0 -311 70 4 c39 2 70 0 70 -4 0 -5 -34 -8 -75 -8 l-75 0 0
320 0 320 83 -2 82 -2 -77 -3z m59 -300 c-1 -54 -3 -10 -3 97 0 107 2 151 3
98 2 -54 2 -142 0 -195z m0 -220 c-3 -10 -5 -2 -5 17 0 19 2 27 5 18 2 -10 2
-26 0 -35z m0 -55 c-3 -8 -6 -5 -6 6 -1 11 2 17 5 13 3 -3 4 -12 1 -19z"/>
<path d="M4213 10873 c-23 -4 -33 -23 -13 -23 6 0 10 -20 10 -45 0 -45 0 -45
-35 -45 -79 0 -119 -107 -63 -167 25 -27 55 -29 86 -7 20 14 22 14 22 0 0 -18
45 -22 55 -6 3 6 -1 10 -9 10 -14 0 -16 20 -16 145 0 80 -3 144 -7 144 -5 -1
-18 -4 -30 -6z m-5 -200 c3 -54 0 -63 -18 -73 -17 -9 -24 -6 -46 15 -22 22
-25 33 -21 62 8 46 25 65 56 61 24 -3 26 -7 29 -65z"/>
<path d="M5633 10873 c-22 -4 -33 -23 -14 -23 5 0 11 -20 13 -45 l3 -45 -36 0
c-55 0 -81 -26 -86 -87 -5 -45 -2 -55 20 -77 30 -30 62 -33 89 -9 17 15 18 15
18 0 0 -18 26 -22 48 -8 11 7 11 9 -2 14 -14 5 -16 28 -16 147 0 77 -3 139 -7
139 -5 -1 -18 -4 -30 -6z m5 -191 c3 -59 -8 -82 -42 -82 -32 0 -46 19 -46 63
0 58 15 79 53 75 31 -3 32 -4 35 -56z"/>
<path d="M3207 10843 c-11 -10 -8 -63 3 -63 6 0 10 7 10 15 0 16 30 35 54 35
14 0 16 -18 16 -120 0 -100 -2 -120 -15 -120 -8 0 -15 -3 -15 -7 0 -5 25 -9
55 -9 30 -1 55 2 55 7 0 5 -7 9 -15 9 -11 0 -15 11 -15 43 0 24 -3 78 -6 120
l-7 77 26 0 c16 0 33 -10 46 -27 26 -32 33 -27 25 15 l-6 32 -103 0 c-56 0
-105 -3 -108 -7z"/>
<path d="M4437 10843 c-11 -10 -8 -63 3 -63 6 0 10 7 10 15 0 16 30 35 54 35
14 0 16 -18 16 -120 0 -100 -2 -120 -15 -120 -8 0 -15 -4 -15 -8 0 -4 25 -8
55 -8 30 1 55 4 55 9 0 4 -7 7 -15 7 -15 0 -17 21 -19 200 -1 45 24 51 59 16
14 -14 28 -26 30 -26 2 0 4 16 3 35 l-1 35 -107 0 c-59 0 -110 -3 -113 -7z"/>
<path d="M5850 10814 l0 -37 21 27 c12 15 30 26 45 26 l24 0 0 -120 c0 -113
-1 -120 -20 -120 -11 0 -20 -4 -20 -9 0 -5 25 -8 55 -7 30 0 55 4 55 9 0 4 -7
7 -15 7 -12 0 -15 20 -15 120 0 102 2 120 16 120 24 0 54 -19 54 -35 0 -8 5
-15 10 -15 6 0 10 16 10 35 l0 35 -110 0 -110 0 0 -36z"/>
<path d="M3803 10803 c-7 -3 -13 -13 -13 -23 0 -10 -10 -21 -22 -25 -20 -6
-20 -8 -5 -12 14 -4 17 -16 17 -67 0 -88 28 -121 84 -100 24 9 19 26 -5 19
-30 -10 -39 9 -39 83 l0 62 31 0 c17 0 28 4 24 10 -3 6 -17 10 -30 10 -17 0
-25 6 -27 23 -2 14 -8 22 -15 20z"/>
<path d="M5223 10803 c-7 -3 -13 -13 -13 -23 0 -10 -10 -21 -22 -25 l-23 -8
23 -4 c20 -4 22 -10 22 -77 0 -43 5 -77 12 -84 17 -17 50 -15 74 4 18 15 18
15 -4 9 -38 -11 -52 10 -52 81 l0 64 30 0 c17 0 30 5 30 10 0 6 -14 10 -31 10
-25 0 -29 3 -24 19 6 21 -3 31 -22 24z"/>
<path d="M7793 10803 c-7 -3 -13 -13 -13 -24 0 -10 -7 -19 -15 -19 -8 0 -15
-4 -15 -10 0 -5 7 -10 15 -10 12 0 15 -14 15 -69 0 -93 33 -127 86 -86 18 15
18 15 -8 9 -35 -8 -48 17 -48 90 0 56 0 56 30 56 17 0 30 5 30 10 0 6 -13 10
-29 10 -24 0 -28 4 -24 19 5 21 -5 31 -24 24z"/>
<path d="M3455 10735 c-36 -35 -35 -106 1 -142 21 -21 32 -24 62 -20 37 7 71
31 59 44 -4 3 -13 1 -19 -5 -16 -16 -63 -15 -76 1 -5 6 -12 23 -14 37 -3 24 0
25 55 28 46 2 57 6 57 20 0 60 -79 84 -125 37z m69 -1 c27 -27 20 -44 -19 -44
-24 0 -35 5 -35 14 0 13 25 46 35 46 2 0 11 -7 19 -16z"/>
<path d="M3627 10742 c-25 -28 -21 -51 14 -70 62 -34 75 -48 60 -66 -20 -24
-47 -19 -70 12 l-20 27 -1 -31 c0 -20 6 -34 16 -38 31 -12 74 -6 94 14 37 37
23 69 -48 104 -38 20 -38 40 1 44 18 2 29 -2 33 -12 9 -24 24 -19 20 7 -4 30
-74 37 -99 9z"/>
<path d="M3921 10734 c-48 -62 -12 -164 57 -164 32 0 82 33 69 46 -4 4 -13 2
-19 -4 -16 -16 -63 -15 -76 1 -5 6 -12 23 -14 37 -3 24 0 25 55 28 46 2 57 6
57 20 0 62 -89 87 -129 36z m87 -21 c3 -20 -1 -23 -32 -23 -36 0 -41 5 -30 35
10 25 58 16 62 -12z"/>
<path d="M4660 10750 c0 -5 5 -10 10 -10 6 0 10 -32 10 -75 0 -43 -4 -75 -10
-75 -5 0 -10 -4 -10 -8 0 -4 20 -8 45 -9 25 -1 45 3 45 8 0 5 -7 9 -15 9 -12
0 -15 13 -15 59 0 64 13 84 48 74 18 -4 22 -1 22 16 0 26 -26 28 -52 4 -17
-15 -18 -15 -18 0 0 12 -9 17 -30 17 -16 0 -30 -4 -30 -10z"/>
<path d="M4810 10750 c0 -5 5 -10 10 -10 6 0 10 -29 10 -68 0 -54 4 -72 18
-85 23 -21 51 -22 80 -1 20 14 22 14 22 0 0 -18 27 -21 50 -6 13 8 12 10 -2
10 -16 0 -18 11 -18 85 l0 85 -30 0 c-28 0 -42 -14 -21 -22 14 -4 17 -116 4
-129 -6 -6 -21 -9 -34 -7 -23 3 -24 8 -27 81 l-3 77 -29 0 c-17 0 -30 -4 -30
-10z"/>
<path d="M5058 10749 c-11 -6 -18 -22 -18 -39 0 -23 8 -33 42 -52 47 -26 60
-53 30 -62 -26 -9 -50 2 -57 25 -10 30 -24 13 -16 -19 6 -23 14 -28 45 -30 47
-4 76 19 76 60 0 24 -7 32 -45 50 -29 14 -45 29 -45 40 0 23 37 24 62 1 17
-15 18 -15 18 10 0 25 -4 27 -37 27 -21 0 -46 -5 -55 -11z"/>
<path d="M5346 10729 c-36 -42 -35 -97 0 -133 15 -14 38 -26 51 -26 32 0 85
28 77 41 -4 7 -10 7 -17 0 -6 -6 -26 -11 -44 -11 -34 0 -53 21 -53 59 0 19 6
21 61 21 58 0 60 1 53 23 -19 64 -85 78 -128 26z m82 -16 c3 -20 -1 -23 -32
-23 -39 0 -41 2 -25 31 14 27 53 21 57 -8z"/>
<path d="M6080 10750 c0 -5 5 -10 10 -10 6 0 10 -32 10 -75 0 -63 -3 -75 -17
-75 -9 0 -14 -3 -10 -6 9 -9 97 -11 97 -2 0 4 -6 8 -14 8 -20 0 -25 19 -19 71
6 52 18 69 46 66 13 -1 23 5 25 16 4 22 -30 23 -52 2 -8 -8 -17 -15 -20 -15
-3 0 -3 7 0 15 5 11 -1 15 -25 15 -17 0 -31 -4 -31 -10z"/>
<path d="M6245 10740 c-13 -15 -15 -24 -8 -31 14 -14 33 -3 33 17 0 11 8 14
28 12 21 -2 28 -9 30 -30 3 -24 0 -28 -23 -28 -34 0 -62 -15 -75 -41 -25 -45
47 -93 82 -55 11 11 14 11 24 -2 8 -11 18 -13 40 -7 19 6 24 10 13 12 -13 3
-18 20 -21 79 -4 84 -11 94 -69 94 -23 0 -42 -7 -54 -20z m85 -98 c0 -23 -19
-42 -42 -42 -24 0 -34 26 -18 45 18 22 60 19 60 -3z"/>
<path d="M6410 10750 c0 -5 7 -10 15 -10 12 0 15 -15 15 -75 0 -43 -4 -75 -10
-75 -5 0 -10 -4 -10 -8 0 -4 18 -8 40 -9 22 0 40 3 40 8 0 5 -6 9 -12 9 -9 0
-13 19 -13 61 0 48 4 63 19 75 44 32 58 15 62 -73 3 -50 1 -63 -11 -63 -8 0
-15 -4 -15 -9 0 -5 20 -9 45 -8 25 1 45 5 45 10 0 4 -7 7 -15 7 -12 0 -15 15
-15 73 0 43 -5 78 -12 85 -17 17 -60 15 -88 -5 -22 -16 -23 -16 -17 0 5 14 0
17 -28 17 -19 0 -35 -4 -35 -10z"/>
<path d="M6662 10748 c-30 -30 2 -85 59 -103 20 -7 26 -40 8 -50 -18 -12 -57
4 -64 25 -10 30 -24 14 -16 -18 6 -23 13 -27 48 -30 51 -4 75 17 71 62 -2 25
-11 35 -43 52 -22 11 -40 27 -40 35 0 21 34 23 56 3 18 -16 19 -16 19 9 0 25
-3 27 -43 27 -24 0 -48 -5 -55 -12z"/>
<path d="M6790 10750 c0 -5 7 -10 15 -10 12 0 15 -19 15 -115 0 -96 -3 -115
-15 -115 -8 0 -15 -4 -15 -10 0 -5 20 -10 44 -10 25 0 48 5 51 10 3 6 -3 10
-14 10 -17 0 -21 6 -21 30 0 28 2 30 39 30 56 0 83 25 88 86 4 40 1 54 -17 77
-25 31 -64 36 -92 10 -17 -15 -18 -15 -18 0 0 12 -9 17 -30 17 -16 0 -30 -4
-30 -10z m132 -27 c23 -21 25 -95 2 -117 -21 -22 -51 -20 -64 3 -15 30 -12 92
7 113 20 22 31 23 55 1z"/>
<path d="M7035 10746 c-12 -9 -16 -19 -11 -31 6 -17 9 -17 32 8 20 22 29 25
44 17 12 -6 20 -21 20 -35 0 -20 -5 -25 -25 -25 -35 0 -74 -20 -80 -42 -16
-50 34 -84 79 -54 21 13 25 13 30 1 6 -17 42 -20 51 -5 3 6 1 10 -4 10 -7 0
-11 25 -11 63 0 81 -17 107 -69 107 -20 0 -46 -6 -56 -14z m85 -109 c0 -29
-36 -53 -56 -36 -28 23 -8 59 33 59 17 0 23 -6 23 -23z"/>
<path d="M7200 10750 c0 -5 7 -10 15 -10 12 0 15 -15 15 -75 0 -60 -3 -75 -15
-75 -8 0 -15 -3 -15 -7 0 -5 20 -8 45 -8 25 0 45 3 45 8 0 4 -7 7 -15 7 -12 0
-15 13 -15 59 0 64 15 87 48 77 12 -4 22 -1 25 8 12 29 -25 36 -55 9 -17 -15
-18 -15 -18 0 0 12 -9 17 -30 17 -16 0 -30 -4 -30 -10z"/>
<path d="M7387 10742 c-43 -47 -42 -118 1 -152 31 -25 70 -25 102 0 32 24 22
35 -15 16 -34 -18 -61 -7 -76 30 -13 37 -4 44 57 44 47 0 54 2 54 20 0 51 -88
81 -123 42z m67 -8 c27 -27 20 -44 -19 -44 -28 0 -35 4 -35 20 0 15 20 37 37
40 1 0 9 -7 17 -16z"/>
<path d="M7543 10746 c25 -19 25 -156 0 -156 -9 0 -13 -3 -9 -7 10 -10 86 -11
86 -1 0 4 -4 8 -10 8 -6 0 -10 28 -10 65 0 61 2 66 26 77 37 17 54 -9 54 -84
0 -47 -3 -58 -17 -58 -9 0 -14 -3 -10 -6 9 -10 87 -11 87 -2 0 4 -7 8 -15 8
-12 0 -15 15 -15 73 0 43 -5 78 -12 85 -15 15 -53 16 -79 2 -13 -7 -19 -7 -19
0 0 5 -17 10 -37 10 -34 -1 -36 -2 -20 -14z"/>
<path d="M4307 10623 c-12 -12 -7 -41 7 -46 22 -9 41 19 26 38 -14 16 -23 19
-33 8z"/>
<path d="M5724 10616 c-8 -21 13 -46 32 -39 20 8 13 47 -9 51 -9 2 -20 -4 -23
-12z"/>
<path d="M7894 10615 c-9 -22 22 -53 37 -38 15 15 7 47 -14 51 -9 2 -20 -4
-23 -13z"/>
<path d="M2090 9580 c-216 -38 -360 -212 -376 -458 -11 -163 42 -321 141 -418
61 -59 122 -90 219 -111 127 -26 267 11 360 97 l46 43 0 -62 0 -61 75 0 75 0
0 260 0 260 -215 0 -215 0 0 -85 0 -85 124 0 125 0 -8 -28 c-22 -77 -79 -139
-148 -163 -62 -22 -180 -18 -230 8 -85 46 -130 130 -140 265 -14 183 53 320
176 364 48 17 144 17 185 0 45 -19 101 -70 116 -106 l12 -30 104 0 c57 0 104
1 104 3 0 16 -38 109 -56 137 -57 90 -165 152 -297 169 -87 12 -111 12 -177 1z"/>
<path d="M6260 9570 c-27 -27 -92 -159 -128 -260 -45 -128 -56 -208 -49 -362
6 -164 32 -260 117 -435 l59 -123 86 0 c48 0 85 3 83 8 -2 4 -22 45 -45 92
-83 168 -131 392 -120 555 11 159 71 368 138 478 16 26 29 52 29 57 0 6 -32
10 -75 10 -61 0 -79 -4 -95 -20z"/>
<path d="M8190 9584 c0 -3 11 -24 24 -47 36 -60 93 -213 116 -310 29 -118 36
-290 17 -403 -19 -104 -74 -270 -120 -358 -18 -34 -33 -65 -35 -69 -2 -4 36
-7 85 -5 l88 3 62 124 c131 263 155 510 74 759 -37 112 -124 288 -150 302 -20
10 -161 14 -161 4z"/>
<path d="M5240 9556 c-142 -31 -230 -127 -247 -266 l-6 -50 91 0 92 0 6 39
c14 87 77 139 158 128 53 -7 87 -35 104 -86 31 -92 -20 -169 -202 -310 -168
-129 -229 -219 -249 -363 l-6 -38 330 0 329 0 0 75 0 75 -206 0 -205 0 18 31
c19 34 83 90 206 183 124 93 177 175 185 287 11 161 -81 271 -249 299 -76 12
-79 12 -149 -4z"/>
<path d="M2815 9088 l1 -473 337 -3 337 -2 0 85 0 85 -235 0 -235 0 0 390 0
390 -103 0 -103 0 1 -472z"/>
<path d="M3640 9086 l0 -476 100 0 100 0 0 170 0 170 117 0 c64 0 145 5 179
11 147 26 234 134 234 293 0 137 -59 234 -168 278 -53 20 -77 22 -309 26
l-253 4 0 -476z m453 290 c56 -23 72 -50 72 -121 0 -108 -43 -135 -215 -135
l-110 0 0 135 0 135 110 0 c71 0 122 -5 143 -14z"/>
<path d="M6520 9470 l0 -80 140 0 140 0 0 -390 0 -390 100 0 100 0 0 390 0
390 140 0 140 0 0 80 0 80 -380 0 -380 0 0 -80z"/>
<path d="M7380 9470 l0 -80 240 -2 240 -3 -255 -315 -255 -315 0 -72 0 -73
385 0 385 0 0 80 0 80 -255 0 c-140 0 -255 2 -255 5 0 2 113 142 250 311 l250
307 0 78 0 79 -365 0 -365 0 0 -80z"/>
<path d="M4470 8985 l0 -85 185 0 185 0 0 85 0 85 -185 0 -185 0 0 -85z"/>
<path d="M2307 7396 c-65 -24 -109 -69 -132 -137 -14 -40 -15 -115 -13 -570 3
-501 4 -526 23 -563 11 -22 27 -41 37 -42 9 -1 29 -12 45 -24 17 -12 47 -25
69 -30 23 -6 1182 -10 2795 -10 2998 0 2807 -4 2867 53 58 54 57 36 62 617 l6
535 2 -515 c1 -339 -2 -528 -9 -553 -6 -21 -26 -56 -45 -77 -69 -77 192 -70
-2909 -68 -2630 3 -2782 4 -2810 21 -16 9 -40 24 -52 33 -13 9 -23 13 -23 8 0
-14 63 -53 101 -64 22 -6 1041 -10 2810 -10 l2775 0 55 28 c35 18 64 42 84 70
l30 44 3 536 c2 380 0 549 -9 578 -15 55 -63 112 -113 135 -40 18 -138 19
-2826 18 -2323 0 -2791 -2 -2823 -13z m5618 -7 c40 -11 125 -85 125 -108 0 -7
-4 -9 -10 -6 -5 3 -10 12 -10 20 0 21 -66 73 -107 84 -51 14 -5544 15 -5592 1
-47 -13 -96 -48 -118 -85 -17 -28 -18 -68 -23 -550 l-5 -520 -3 509 c-2 499
-2 511 19 553 22 46 61 79 118 99 49 18 5543 20 5606 3z m132 -151 c-3 -8 -6
-5 -6 6 -1 11 2 17 5 13 3 -3 4 -12 1 -19z m-4108 -114 c62 -18 127 -73 152
-129 12 -26 18 -61 17 -100 l-1 -60 -7 70 c-7 81 -25 120 -75 163 -51 46 -129
65 -238 60 -49 -2 -81 -1 -71 3 34 13 169 9 223 -7z m623 8 c10 -4 -22 -7 -70
-7 -48 0 -98 -3 -112 -7 -19 -6 -18 -4 5 7 31 14 146 19 177 7z m-913 -41
c-53 -34 -80 -63 -107 -116 -12 -22 -21 -36 -22 -32 -2 43 122 177 164 177 6
0 -10 -13 -35 -29z m306 5 c82 -35 134 -112 135 -199 0 -60 -21 -107 -66 -147
-19 -16 -30 -30 -24 -30 22 0 90 -74 100 -108 24 -89 1 -161 -73 -229 -55 -51
-123 -73 -222 -73 -163 0 -256 74 -280 223 l-6 37 89 0 89 0 7 -40 c4 -26 14
-45 29 -55 100 -65 233 19 196 124 -15 41 -55 61 -124 61 l-55 0 0 64 0 64 55
4 c71 6 105 35 105 88 0 23 -8 48 -21 64 -18 22 -28 26 -75 26 -48 0 -60 -4
-85 -29 -16 -16 -29 -39 -29 -50 0 -20 -6 -21 -85 -21 -95 0 -95 0 -73 72 13
45 77 122 119 143 72 38 217 43 294 11z m647 -2 c18 -9 41 -23 51 -32 9 -8 20
-12 23 -9 4 3 -15 20 -42 36 -26 17 -44 31 -40 31 20 0 96 -56 92 -67 -3 -6 3
-22 13 -35 63 -81 85 -174 79 -339 -6 -142 -26 -209 -83 -276 -19 -22 -32 -43
-29 -45 2 -3 -4 -11 -13 -19 -16 -13 -17 -12 -4 4 17 22 14 22 -40 -5 -34 -18
-61 -23 -124 -23 -63 0 -90 5 -124 23 -54 27 -57 27 -40 5 13 -16 12 -17 -4
-4 -9 8 -15 16 -13 19 3 3 -6 18 -20 35 -73 87 -98 186 -92 358 6 143 26 209
84 278 39 45 73 66 131 81 52 13 155 4 195 -16z m-300 -23 c-66 -52 -100 -124
-126 -261 -3 -14 -3 0 -1 30 5 80 51 176 110 228 26 23 52 42 57 42 6 0 -13
-18 -40 -39z m449 -94 c11 -22 19 -40 17 -42 -2 -2 -18 24 -36 58 -18 34 -25
53 -16 42 8 -11 25 -37 35 -58z m-895 -23 c23 -6 44 -42 44 -76 0 -26 -37 -68
-59 -67 -14 0 -14 1 -1 6 30 11 50 37 50 63 0 42 -22 63 -76 71 -41 5 -44 7
-14 8 19 0 45 -2 56 -5z m1701 -20 c25 -14 42 -28 40 -31 -3 -3 -20 6 -37 19
-24 17 -50 24 -108 29 l-77 6 69 1 c58 2 76 -2 113 -24z m331 7 c66 -34 113
-106 111 -168 -1 -22 -3 -18 -9 14 -23 111 -87 163 -205 163 -69 0 -121 -16
-144 -43 -19 -24 -6 -21 30 5 43 32 151 38 205 10 94 -48 103 -80 104 -359 l0
-223 -85 0 -85 0 0 196 c0 236 -6 254 -82 254 -91 0 -98 -19 -98 -260 l0 -190
-85 0 -85 0 0 203 c0 240 -2 247 -79 247 -33 0 -56 -6 -72 -19 -24 -19 -24
-22 -27 -228 l-3 -208 -85 3 -84 3 0 290 0 289 86 0 87 0 -7 -31 -6 -31 32 31
c74 73 241 66 288 -12 18 -28 18 -29 29 -8 10 18 9 20 -6 14 -10 -4 -2 7 18
25 49 43 72 51 152 51 48 1 79 -5 105 -18z m442 10 c-114 -8 -163 -37 -219
-131 -11 -19 -21 -30 -21 -24 0 14 50 82 81 111 47 43 80 53 164 51 l80 -1
-85 -6z m-2586 -23 c-10 -13 -20 -25 -21 -27 -2 -2 -3 1 -3 7 0 11 27 42 37
42 3 0 -2 -10 -13 -22z m1368 10 c-9 -9 -13 -95 -14 -312 l-3 -301 -2 299 c-3
285 0 326 25 326 3 0 1 -5 -6 -12z m68 2 c0 -5 -8 -10 -17 -10 -15 0 -16 2 -3
10 19 12 20 12 20 0z m1283 -10 c19 -15 27 -17 31 -8 4 7 4 -1 1 -19 -2 -18 0
-35 5 -38 6 -4 10 7 10 24 l0 31 86 0 85 0 -3 -317 c-3 -351 -5 -363 -70 -430
-56 -57 -118 -78 -238 -78 -88 0 -112 4 -146 22 -67 36 -124 111 -124 164 0
17 8 19 88 19 87 -1 87 -1 107 -33 19 -29 25 -32 78 -35 55 -3 60 -1 92 31 32
32 35 40 35 93 l0 57 -23 -21 c-108 -102 -303 -49 -367 100 -31 72 -32 208 -1
288 23 62 85 129 138 150 51 19 165 9 202 -18 17 -12 33 -22 36 -22 13 0 -9
22 -39 41 -17 10 -26 19 -20 19 6 0 23 -9 37 -20z m82 10 c3 -5 1 -10 -4 -10
-6 0 -11 5 -11 10 0 6 2 10 4 10 3 0 8 -4 11 -10z m105 0 c0 -5 -12 -10 -27
-10 -22 0 -25 2 -13 10 20 13 40 13 40 0z m-1310 -4 c0 -2 -11 -11 -25 -20
-14 -9 -25 -13 -25 -8 0 5 10 14 23 20 27 13 27 13 27 8z m-1823 -28 c-3 -8
-6 -5 -6 6 -1 11 2 17 5 13 3 -3 4 -12 1 -19z m3180 -450 c-1 -90 -3 -19 -3
157 0 176 2 249 3 163 2 -86 2 -230 0 -320z m-1898 363 c1 -48 -5 -35 -12 24
-4 32 -3 43 3 30 5 -11 9 -35 9 -54z m-1151 34 c-8 -8 -99 -11 -104 -4 -2 4
21 8 52 8 31 0 54 -2 52 -4z m52 1 c0 -2 -9 -6 -20 -9 -11 -3 -20 -1 -20 4 0
5 9 9 20 9 11 0 20 -2 20 -4z m387 -63 c-8 -15 -28 -39 -43 -53 -27 -23 -26
-23 3 12 17 20 34 46 38 58 4 12 9 19 12 17 2 -3 -2 -18 -10 -34z m-279 10
c-10 -2 -28 -2 -40 0 -13 2 -5 4 17 4 22 1 32 -1 23 -4z m-73 -75 l0 -73 67
-6 c91 -8 119 -27 116 -82 l-1 -42 -4 43 c-4 39 -8 45 -38 58 -19 8 -56 14
-83 14 -26 0 -53 5 -60 12 -18 18 -16 148 2 148 1 0 1 -33 1 -72z m438 -58 c4
-74 3 -89 -3 -50 -8 58 -13 166 -6 159 2 -2 6 -51 9 -109z m634 33 c-2 -16 -4
-3 -4 27 0 30 2 43 4 28 2 -16 2 -40 0 -55z m614 67 c18 -10 19 -22 17 -223
l-3 -212 -2 210 c-3 152 -7 211 -16 217 -6 4 -29 8 -49 8 -31 0 -40 -5 -52
-27 -8 -16 -15 -22 -16 -14 -1 42 72 66 121 41z m350 0 c11 -6 18 -20 18 -33
-1 -20 -2 -20 -6 -2 -7 26 -21 35 -58 35 -59 0 -60 0 -65 -227 l-6 -208 -2
207 c-2 204 -2 207 20 222 26 18 71 21 99 6z m300 -116 c-5 -58 -9 -73 -10
-43 -1 48 9 142 15 136 2 -2 0 -44 -5 -93z m-64 54 c-3 -8 -6 -5 -6 6 -1 11 2
17 5 13 3 -3 4 -12 1 -19z m-1928 -21 l25 -32 -32 29 c-33 31 -37 36 -24 35 4
0 18 -14 31 -32z m39 -68 c-3 -8 -7 -3 -11 10 -4 17 -3 21 5 13 5 -5 8 -16 6
-23z m679 -26 c-3 -10 -5 -2 -5 17 0 19 2 27 5 18 2 -10 2 -26 0 -35z m-682
-130 c-21 -55 -109 -136 -172 -157 -26 -10 -78 -20 -114 -23 -84 -7 -177 22
-238 73 -39 34 -78 91 -68 100 2 3 10 -9 17 -26 34 -82 176 -148 294 -137 88
9 148 33 202 80 57 50 83 104 86 177 l2 55 3 -49 c3 -31 -2 -66 -12 -93z
m1892 75 c-2 -13 -4 -3 -4 22 0 25 2 35 4 23 2 -13 2 -33 0 -45z m-2344 45
c-23 -2 -64 -2 -90 0 -26 2 -7 3 42 3 50 0 71 -1 48 -3z m-150 -68 c4 -34 3
-42 -3 -25 -8 25 -13 87 -6 79 2 -2 6 -26 9 -54z m204 33 c-3 -8 -6 -5 -6 6
-1 11 2 17 5 13 3 -3 4 -12 1 -19z m1068 -18 c-9 -41 -17 -33 -9 9 4 17 9 30
11 27 3 -2 2 -19 -2 -36z m-557 -76 c11 -22 28 -46 36 -53 9 -8 16 -19 16 -25
-1 -19 -40 36 -71 99 -16 33 -29 67 -28 75 0 8 6 -1 14 -21 7 -19 22 -53 33
-75z m1881 9 c6 -13 9 -23 6 -23 -10 0 -45 83 -44 105 0 11 6 2 13 -20 7 -22
18 -50 25 -62z m-2365 27 c10 -13 9 -13 -6 -1 -10 7 -18 21 -17 30 0 13 1 14
6 1 3 -8 11 -22 17 -30z m160 16 c-3 -8 -13 -17 -22 -21 -13 -5 -13 -2 3 15
21 24 26 25 19 6z m1893 -28 c-3 -7 -5 -2 -5 12 0 14 2 19 5 13 2 -7 2 -19 0
-25z m-1027 4 c0 -5 -7 -17 -15 -28 -14 -18 -14 -17 -4 9 12 27 19 34 19 19z
m-932 -9 c-16 -2 -40 -2 -55 0 -16 2 -3 4 27 4 30 0 43 -2 28 -4z m892 -62
c-11 -21 -30 -37 -30 -25 0 8 30 44 37 44 2 0 -1 -9 -7 -19z m1475 -55 c6 -5
1 -4 -10 2 -11 6 -33 25 -50 44 l-30 33 40 -35 c22 -19 45 -39 50 -44z m-908
12 c-3 -7 -5 -2 -5 12 0 14 2 19 5 13 2 -7 2 -19 0 -25z m710 0 c-3 -7 -5 -2
-5 12 0 14 2 19 5 13 2 -7 2 -19 0 -25z m480 -29 c-5 -38 -39 -89 -59 -89 -5
0 3 10 17 23 18 15 28 36 32 65 3 23 8 42 11 42 2 0 2 -18 -1 -41z m-17 17 c0
-2 -7 -7 -16 -10 -8 -3 -12 -2 -9 4 6 10 25 14 25 6z m-225 -16 c3 -6 -1 -7
-9 -4 -18 7 -21 14 -7 14 6 0 13 -4 16 -10z m175 -9 c-8 -5 -33 -12 -55 -15
l-40 -6 45 14 c53 17 71 19 50 7z m-1935 -31 c34 0 82 7 106 15 24 9 39 12 34
7 -20 -18 -80 -32 -140 -32 -60 0 -120 14 -140 32 -5 5 10 2 34 -7 24 -8 72
-15 106 -15z m1829 21 c3 -5 -44 -8 -107 -8 l-112 0 90 7 c50 3 98 7 107 8 9
1 19 -2 22 -7z m-1076 -8 c-21 -2 -57 -2 -80 0 -24 2 -7 4 37 4 44 0 63 -2 43
-4z m365 0 c-23 -2 -64 -2 -90 0 -26 2 -7 3 42 3 50 0 71 -1 48 -3z m345 0
c-21 -2 -57 -2 -80 0 -24 2 -7 4 37 4 44 0 63 -2 43 -4z m145 -58 c4 -27 3
-35 -3 -25 -5 8 -10 28 -10 44 0 39 6 30 13 -19z m222 19 c9 -15 12 -23 6 -20
-11 7 -35 46 -28 46 3 0 12 -12 22 -26z m362 -36 c-22 -53 -77 -109 -132 -134
-27 -13 -57 -24 -65 -24 -8 0 12 11 45 25 70 28 129 87 147 148 7 22 14 35 16
29 1 -5 -3 -26 -11 -44z m-279 5 c-10 -2 -28 -2 -40 0 -13 2 -5 4 17 4 22 1
32 -1 23 -4z m-4221 -60 c-3 -10 -5 -4 -5 12 0 17 2 24 5 18 2 -7 2 -21 0 -30z
m4043 -78 c12 -4 19 -9 17 -12 -9 -8 -62 25 -92 58 -30 33 -30 33 11 -3 23
-20 52 -39 64 -43z m-4018 10 c9 -20 9 -20 -6 -1 -9 11 -16 27 -15 35 0 14 1
14 6 1 3 -8 10 -24 15 -35z m4075 -31 c-3 -3 -12 -4 -19 -1 -8 3 -5 6 6 6 11
1 17 -2 13 -5z m136 -11 c-24 -2 -62 -2 -85 0 -24 2 -5 4 42 4 47 0 66 -2 43
-4z"/>
<path d="M4450 6958 c-14 -7 -36 -35 -50 -63 -22 -45 -25 -62 -25 -170 0 -192
33 -265 120 -265 36 0 48 5 68 30 41 49 52 95 52 225 0 127 -16 195 -54 229
-25 23 -80 30 -111 14z m23 -15 c-13 -2 -32 -16 -43 -30 -11 -14 -20 -22 -20
-17 0 17 45 54 64 53 20 -2 19 -2 -1 -6z m88 -23 c9 -14 20 -36 23 -50 3 -14
-3 -6 -14 18 -10 23 -30 47 -42 52 -17 8 -18 9 -4 7 10 -1 27 -13 37 -27z
m-160 -95 c-6 -35 -9 -41 -10 -20 -1 30 9 78 15 73 2 -2 -1 -26 -5 -53z m196
-32 c-3 -10 -5 -2 -5 17 0 19 2 27 5 18 2 -10 2 -26 0 -35z m-210 -60 c-3 -10
-5 -4 -5 12 0 17 2 24 5 18 2 -7 2 -21 0 -30z m220 -45 c-2 -18 -4 -6 -4 27 0
33 2 48 4 33 2 -15 2 -42 0 -60z m-210 -80 c-2 -13 -4 -5 -4 17 -1 22 1 32 4
23 2 -10 2 -28 0 -40z m200 -5 c-3 -10 -5 -2 -5 17 0 19 2 27 5 18 2 -10 2
-26 0 -35z m-144 -115 c22 -14 74 -8 90 10 9 10 23 33 31 52 8 19 15 29 16 22
0 -22 -38 -89 -55 -96 -51 -19 -91 -3 -115 45 -11 21 -20 44 -20 51 0 7 10 -7
21 -32 11 -24 25 -48 32 -52z"/>
<path d="M6360 6790 c-56 -13 -90 -75 -90 -160 0 -45 31 -113 61 -134 37 -25
102 -21 138 10 52 43 66 144 32 221 -27 57 -73 78 -141 63z m105 -34 c13 -13
29 -43 35 -67 12 -42 6 -124 -9 -133 -4 -3 -3 16 2 42 11 55 -4 123 -34 153
-22 22 -95 26 -122 6 -10 -7 -24 -32 -32 -57 -9 -29 -14 -37 -14 -22 -1 29 24
78 46 91 34 20 102 13 128 -13z m-134 -227 c26 -28 34 -31 70 -26 22 3 48 11
58 19 9 7 6 3 -7 -9 -36 -35 -86 -31 -128 11 -24 24 -34 42 -33 63 l2 28 4
-27 c2 -15 18 -41 34 -59z"/>
<path d="M2230 5448 c-102 -68 -106 -260 -8 -331 53 -39 154 -39 207 1 48 36
66 79 66 162 -1 127 -49 182 -165 188 -55 3 -70 0 -100 -20z m155 -62 c28 -28
39 -79 32 -143 -6 -59 -39 -93 -92 -95 -97 -4 -141 151 -66 231 37 40 90 43
126 7z"/>
<path d="M3814 5456 c-42 -19 -64 -52 -64 -99 0 -56 37 -89 125 -111 77 -19
95 -30 95 -56 0 -28 -25 -42 -77 -42 -39 0 -51 5 -68 26 -15 18 -30 26 -53 26
-37 0 -37 0 -18 -44 9 -21 27 -39 50 -50 41 -19 126 -23 167 -7 66 25 91 115
47 165 -17 19 -43 31 -93 42 -86 19 -99 26 -103 51 -7 49 78 73 118 33 11 -11
20 -24 20 -30 0 -5 16 -10 36 -10 34 0 36 1 29 28 -19 76 -125 115 -211 78z"/>
<path d="M5237 5449 c-53 -28 -76 -82 -77 -177 0 -106 37 -163 115 -180 81
-17 160 14 189 73 15 30 15 30 -17 35 -26 4 -37 0 -59 -22 -27 -29 -35 -32
-78 -28 -59 4 -93 83 -76 175 16 84 101 114 156 55 19 -21 37 -30 59 -30 35 0
38 8 16 50 -34 65 -151 90 -228 49z"/>
<path d="M6443 5455 c-59 -25 -81 -109 -43 -158 19 -24 50 -37 158 -66 37 -10
42 -15 42 -41 0 -20 -6 -31 -21 -35 -54 -18 -129 0 -129 30 0 11 -12 15 -41
15 -37 0 -40 -2 -33 -22 17 -57 70 -88 149 -88 94 0 148 41 148 112 0 58 -38
90 -124 107 -35 7 -72 17 -81 22 -41 22 -5 79 48 79 34 0 74 -25 74 -46 0 -9
11 -14 35 -14 40 0 44 13 19 61 -27 54 -128 76 -201 44z"/>
<path d="M7280 5459 c-35 -14 -59 -38 -82 -83 -27 -53 -23 -172 8 -212 45 -61
110 -87 187 -73 76 12 125 71 134 162 13 125 -64 218 -179 216 -24 0 -54 -5
-68 -10z m122 -60 c33 -18 61 -94 53 -145 -7 -50 -43 -99 -80 -108 -40 -10
-94 18 -110 58 -51 121 38 248 137 195z"/>
<path d="M1850 5275 l0 -185 35 0 35 0 0 81 0 81 80 -4 80 -3 0 33 0 32 -80 0
-80 0 0 45 0 45 95 0 95 0 0 30 0 30 -130 0 -130 0 0 -185z"/>
<path d="M2570 5275 l0 -185 35 0 35 0 0 70 0 70 58 0 c64 0 82 -11 82 -51 0
-14 3 -41 6 -58 6 -28 10 -31 42 -31 33 0 34 1 28 31 -3 17 -6 49 -6 70 0 26
-7 46 -21 60 l-21 21 21 14 c48 34 31 143 -25 164 -14 6 -72 10 -130 10 l-104
0 0 -185z m202 108 c22 -20 23 -41 1 -65 -12 -13 -31 -18 -75 -18 l-58 0 0 50
0 50 57 0 c38 0 62 -5 75 -17z"/>
<path d="M3060 5275 l0 -185 35 0 35 0 0 70 0 70 60 0 c65 0 80 -12 80 -67 0
-58 10 -73 47 -73 l34 0 -6 48 c-12 97 -16 112 -33 122 -12 8 -14 13 -4 16 18
8 42 59 42 90 0 16 -12 38 -34 60 l-34 34 -111 0 -111 0 0 -185z m191 115 c22
-12 26 -59 7 -78 -7 -7 -38 -12 -70 -12 l-58 0 0 50 0 50 51 0 c28 0 59 -5 70
-10z"/>
<path d="M3420 5275 l0 -186 137 3 137 3 2 33 2 32 -99 0 -99 0 0 51 0 50 85
-3 85 -3 0 33 0 32 -84 0 -84 0 -4 35 c-2 20 -2 38 1 40 2 3 46 5 98 5 l93 0
0 30 0 30 -135 0 -135 0 0 -185z"/>
<path d="M4100 5275 l0 -185 135 0 135 0 0 35 0 35 -100 0 -100 0 0 50 0 50
90 0 90 0 0 30 0 30 -90 0 -90 0 0 40 0 40 95 0 95 0 0 30 0 30 -130 0 -130 0
0 -185z"/>
<path d="M4478 5297 c-80 -230 -77 -209 -31 -205 35 3 39 6 47 41 l10 37 72 0
73 0 12 -40 c12 -38 14 -40 52 -40 27 0 38 4 35 13 -3 6 -31 90 -64 184 l-59
173 -45 0 -45 0 -57 -163z m112 68 c0 -9 9 -41 20 -72 11 -32 20 -59 20 -60 0
-2 -22 -3 -50 -3 -27 0 -50 3 -50 7 0 4 10 37 22 75 20 63 38 88 38 53z"/>
<path d="M4810 5276 l0 -186 35 0 35 0 0 70 0 70 60 0 c68 0 69 0 79 -83 6
-52 6 -52 44 -55 33 -3 38 -1 33 15 -2 10 -8 44 -12 76 -4 40 -12 62 -24 70
-17 10 -17 13 6 40 33 39 33 96 0 134 -24 27 -27 28 -140 31 l-116 4 0 -186z
m194 108 c19 -18 21 -55 4 -72 -7 -7 -38 -12 -70 -12 l-58 0 0 50 0 50 54 0
c36 0 60 -5 70 -16z"/>
<path d="M5540 5275 l0 -185 35 0 35 0 0 85 0 85 75 0 75 0 0 -85 0 -85 35 0
35 0 0 185 0 185 -35 0 -35 0 0 -70 0 -70 -75 0 -75 0 0 70 0 70 -35 0 -35 0
0 -185z"/>
<path d="M6020 5320 c0 -158 9 -188 62 -216 44 -23 158 -16 189 11 40 36 49
76 49 215 l0 130 -40 0 -40 0 0 -133 c0 -157 -8 -177 -71 -177 -26 0 -46 7
-59 20 -18 18 -20 33 -20 155 l0 135 -35 0 -35 0 0 -140z"/>
<path d="M6730 5275 l0 -185 135 0 135 0 0 35 0 35 -101 0 -100 0 3 48 3 47
88 3 87 3 0 29 0 29 -87 3 -88 3 -3 38 -3 37 95 0 96 0 0 30 0 30 -130 0 -130
0 0 -185z"/>
<path d="M7580 5275 l0 -185 35 0 34 0 3 129 3 130 74 -130 75 -129 38 0 38 0
0 185 0 185 -35 0 -35 0 0 -127 0 -128 -73 127 -72 127 -42 1 -43 0 0 -185z"/>
<path d="M7958 5275 l3 -185 129 0 130 0 0 30 0 30 -95 0 -95 0 0 155 0 155
-37 0 -38 0 3 -185z"/>
<path d="M8180 5455 c0 -3 27 -55 60 -116 57 -104 60 -113 60 -179 l0 -70 35
0 35 0 0 70 c0 66 3 76 60 182 33 61 60 113 60 115 0 2 -18 3 -41 3 l-40 0
-35 -75 c-19 -41 -37 -75 -40 -75 -2 0 -20 34 -39 75 l-34 75 -40 0 c-23 0
-41 -2 -41 -5z"/>
<path d="M1790 4470 l0 -150 25 0 c24 0 24 1 27 100 l3 101 58 -101 c53 -91
61 -100 88 -100 l29 0 0 150 0 150 -25 0 -25 0 0 -107 -1 -108 -62 107 c-55
95 -65 108 -89 108 l-28 0 0 -150z"/>
<path d="M2143 4600 c-82 -50 -92 -180 -19 -247 30 -28 43 -33 83 -33 89 0
143 57 143 150 0 115 -114 187 -207 130z m124 -52 c27 -30 35 -60 28 -102 -12
-62 -63 -92 -120 -70 -38 15 -58 102 -33 147 27 51 89 64 125 25z"/>
<path d="M2370 4595 c0 -23 4 -25 45 -25 l45 0 0 -125 0 -125 30 0 30 0 0 125
0 125 45 0 c41 0 45 2 45 25 l0 25 -120 0 -120 0 0 -25z"/>
<path d="M2743 4473 l2 -148 28 -3 c27 -3 27 -3 27 60 l0 64 65 -4 c64 -4 65
-4 65 22 0 25 -2 26 -65 26 l-65 0 0 40 0 40 74 0 c72 0 74 1 74 25 l0 25
-104 0 -103 0 2 -147z"/>
<path d="M3047 4602 c-35 -21 -67 -87 -67 -135 0 -95 58 -151 149 -144 47 3
59 9 88 40 30 33 33 42 33 99 0 73 -22 118 -69 143 -39 20 -99 19 -134 -3z
m122 -51 c23 -23 36 -80 27 -116 -17 -66 -96 -89 -135 -39 -31 39 -29 117 4
149 30 30 77 33 104 6z"/>
<path d="M3304 4473 l1 -148 28 -3 c27 -3 27 -3 27 57 l0 61 44 0 c51 0 58 -8
66 -70 4 -40 8 -45 32 -48 l27 -3 -6 58 c-3 32 -10 63 -14 69 -5 6 -2 24 7 43
19 37 12 81 -18 107 -15 15 -40 20 -107 22 l-88 4 1 -149z m156 83 c6 -8 10
-25 8 -38 -3 -20 -9 -23 -55 -26 l-53 -3 0 40 0 41 44 0 c26 0 48 -6 56 -14z"/>
<path d="M3680 4470 l0 -150 30 0 30 0 0 70 0 70 60 0 60 0 0 -70 0 -70 30 0
30 0 0 150 0 150 -30 0 c-30 0 -30 -1 -30 -55 l0 -55 -60 0 -60 0 0 55 c0 54
0 55 -30 55 l-30 0 0 -150z"/>
<path d="M3971 4499 l4 -121 33 -29 c26 -23 42 -29 78 -29 51 0 98 21 114 49
5 11 10 72 10 135 l0 116 -28 0 -27 0 -2 -110 c-1 -123 -8 -140 -58 -140 -55
0 -65 22 -65 143 l0 107 -31 0 -31 0 3 -121z"/>
<path d="M4280 4470 l0 -150 25 0 c24 0 24 0 27 113 l3 112 29 -112 c28 -110
29 -113 56 -113 28 0 29 3 50 98 32 141 41 145 38 17 l-3 -110 28 -3 27 -3 0
151 0 151 -42 -3 -43 -3 -25 -107 c-13 -60 -27 -108 -30 -108 -3 0 -13 33 -22
73 -38 154 -34 147 -78 147 l-40 0 0 -150z"/>
<path d="M4653 4470 l-51 -151 31 3 c26 2 33 9 41 36 9 33 10 33 65 30 53 -3
56 -4 65 -35 7 -27 14 -33 37 -33 16 0 29 4 29 8 0 5 -22 71 -49 148 l-49 139
-33 3 -34 3 -52 -151z m113 -4 c6 -25 4 -26 -31 -26 -28 0 -36 4 -32 14 3 8
11 33 18 57 l13 42 13 -30 c6 -17 15 -42 19 -57z"/>
<path d="M4920 4470 l0 -150 25 0 c24 0 24 1 27 103 3 99 3 101 19 72 8 -16
34 -63 58 -102 38 -64 47 -73 72 -73 l29 0 0 150 0 150 -25 0 c-24 0 -24 -1
-27 -105 l-3 -105 -59 105 c-54 94 -63 105 -88 105 l-28 0 0 -150z"/>
<path d="M5359 4604 c-42 -27 -62 -71 -63 -133 0 -97 47 -151 131 -151 50 0
83 18 106 58 l19 32 -30 0 c-16 0 -37 -9 -47 -20 -23 -25 -76 -26 -98 -2 -37
41 -29 150 13 172 30 16 69 12 87 -10 18 -20 73 -28 73 -10 0 5 -13 24 -28 41
-24 27 -37 33 -83 36 -39 3 -61 -1 -80 -13z"/>
<path d="M5655 4602 c-42 -26 -52 -41 -66 -92 -25 -98 37 -190 129 -190 88 0
142 57 142 151 0 83 -49 139 -129 146 -33 3 -54 -1 -76 -15z m129 -65 c29 -40
27 -109 -4 -142 -28 -30 -78 -33 -109 -7 -24 19 -37 77 -27 117 17 69 99 87
140 32z"/>
<path d="M5910 4470 l0 -150 25 0 c24 0 24 1 27 103 l3 102 60 -102 c53 -90
63 -103 87 -103 l27 0 3 150 3 150 -27 0 -27 0 -3 -100 -3 -101 -58 101 c-53
91 -61 100 -88 100 l-29 0 0 -150z"/>
<path d="M6231 4594 c-24 -19 -31 -34 -31 -60 0 -53 36 -79 134 -96 24 -4 41
-31 33 -52 -10 -25 -93 -22 -109 4 -11 18 -68 30 -68 15 0 -22 34 -64 60 -75
39 -16 124 -8 150 15 27 25 34 68 16 103 -13 25 -26 32 -86 47 -40 10 -74 24
-77 31 -16 41 75 63 99 24 8 -12 24 -20 40 -20 32 0 32 0 16 35 -26 58 -124
74 -177 29z"/>
<path d="M6470 4510 c0 -60 5 -120 11 -133 34 -75 183 -76 217 -2 7 15 12 72
12 135 l0 110 -30 0 -30 0 0 -113 c0 -75 -4 -117 -12 -125 -20 -20 -86 -15
-98 7 -5 11 -10 67 -10 125 l0 106 -30 0 -30 0 0 -110z"/>
<path d="M6777 4473 l2 -148 25 -3 26 -3 1 113 c1 122 3 121 40 -24 21 -84 23
-88 49 -88 27 0 29 4 56 113 l29 112 3 -112 c3 -113 3 -113 27 -113 l25 0 0
151 0 150 -42 -3 -41 -3 -26 -107 c-14 -60 -28 -108 -31 -108 -3 0 -13 33 -22
73 -38 155 -34 147 -81 147 l-42 0 2 -147z"/>
<path d="M7130 4470 l0 -150 30 0 c30 0 30 1 30 54 l0 54 60 4 c89 6 120 46
98 125 -12 45 -54 63 -148 63 l-70 0 0 -150z m158 88 c7 -7 12 -21 12 -33 0
-32 -20 -45 -67 -45 l-43 0 0 45 0 45 43 0 c24 0 48 -5 55 -12z"/>
<path d="M7380 4595 c0 -23 4 -25 45 -25 l45 0 0 -125 0 -125 30 0 30 0 0 125
0 125 44 0 c39 0 44 3 48 25 l5 25 -123 0 -124 0 0 -25z"/>
<path d="M7667 4473 l2 -148 26 0 26 0 2 148 2 147 -30 0 -30 0 2 -147z"/>
<path d="M7842 4600 c-87 -53 -82 -218 7 -265 65 -33 157 -6 188 55 20 39 16
130 -7 167 -37 62 -124 82 -188 43z m132 -61 c44 -51 26 -151 -28 -165 -64
-16 -111 27 -111 101 0 89 85 128 139 64z"/>
<path d="M8100 4470 l0 -151 28 3 27 3 -3 100 c-3 116 -3 116 76 -22 44 -77
49 -83 80 -83 l32 0 0 150 0 150 -31 0 -30 0 3 -100 c2 -55 1 -100 -2 -100 -3
0 -31 44 -62 98 -50 87 -59 97 -87 100 l-31 3 0 -151z"/>
<path d="M912 2958 c17 -157 75 -321 155 -432 51 -72 133 -166 145 -166 5 0 6
5 2 11 -3 6 29 -14 72 -44 86 -60 161 -97 269 -134 39 -13 56 -22 38 -19 -62
10 -193 68 -270 119 -112 74 -111 74 -94 54 21 -27 143 -104 208 -133 32 -15
96 -38 143 -53 l85 -26 3390 -3 c2383 -2 3418 0 3485 8 207 24 374 104 520
250 161 161 245 340 266 568 l7 72 -4215 0 -4214 0 8 -72z m8408 45 c0 -13 -3
-14 -12 -5 -9 9 -955 12 -4196 12 l-4184 0 6 -57 c23 -190 92 -350 223 -513
l45 -55 -47 50 c-125 134 -209 324 -230 518 l-7 67 4201 0 c3947 0 4201 -1
4201 -17z m-25 -154 c-8 -43 -20 -89 -26 -101 -11 -25 -11 -26 17 102 7 36 14
79 15 95 1 25 2 26 6 7 3 -13 -3 -59 -12 -103z m-49 -166 c-18 -33 -21 -26 -6
13 6 15 13 24 16 21 3 -3 -1 -18 -10 -34z m-62 -120 c-66 -107 -185 -227 -283
-287 -130 -78 -292 -128 -409 -125 -53 2 -51 2 23 9 281 25 527 178 665 413
24 42 46 74 48 72 3 -2 -17 -39 -44 -82z m-7355 -409 c8 -7 -143 -2 -174 6
-16 4 15 5 70 2 55 -3 102 -6 104 -8z m74 -1 c-13 -2 -33 -2 -45 0 -13 2 -3 4
22 4 25 0 35 -2 23 -4z m110 0 c-13 -2 -33 -2 -45 0 -13 2 -3 4 22 4 25 0 35
-2 23 -4z m54 1 c-3 -3 -12 -4 -19 -1 -8 3 -5 6 6 6 11 1 17 -2 13 -5z m161
-1 c-10 -2 -28 -2 -40 0 -13 2 -5 4 17 4 22 1 32 -1 23 -4z m115 0 c-7 -2 -19
-2 -25 0 -7 3 -2 5 12 5 14 0 19 -2 13 -5z m44 1 c-3 -3 -12 -4 -19 -1 -8 3
-5 6 6 6 11 1 17 -2 13 -5z m60 0 c-3 -3 -12 -4 -19 -1 -8 3 -5 6 6 6 11 1 17
-2 13 -5z m101 -1 c-10 -2 -26 -2 -35 0 -10 3 -2 5 17 5 19 0 27 -2 18 -5z
m240 0 c-10 -2 -26 -2 -35 0 -10 3 -2 5 17 5 19 0 27 -2 18 -5z m250 0 c-10
-2 -26 -2 -35 0 -10 3 -2 5 17 5 19 0 27 -2 18 -5z m155 0 c-7 -2 -19 -2 -25
0 -7 3 -2 5 12 5 14 0 19 -2 13 -5z m134 1 c-3 -3 -12 -4 -19 -1 -8 3 -5 6 6
6 11 1 17 -2 13 -5z m176 -1 c-7 -2 -19 -2 -25 0 -7 3 -2 5 12 5 14 0 19 -2
13 -5z m170 0 c-7 -2 -21 -2 -30 0 -10 3 -4 5 12 5 17 0 24 -2 18 -5z m964 1
c-3 -3 -12 -4 -19 -1 -8 3 -5 6 6 6 11 1 17 -2 13 -5z m390 0 c-3 -3 -12 -4
-19 -1 -8 3 -5 6 6 6 11 1 17 -2 13 -5z m130 0 c-3 -3 -12 -4 -19 -1 -8 3 -5
6 6 6 11 1 17 -2 13 -5z m80 0 c-3 -3 -12 -4 -19 -1 -8 3 -5 6 6 6 11 1 17 -2
13 -5z m40 0 c-3 -3 -12 -4 -19 -1 -8 3 -5 6 6 6 11 1 17 -2 13 -5z m66 -1
c-7 -2 -19 -2 -25 0 -7 3 -2 5 12 5 14 0 19 -2 13 -5z m105 0 c-10 -2 -26 -2
-35 0 -10 3 -2 5 17 5 19 0 27 -2 18 -5z m59 1 c-3 -3 -12 -4 -19 -1 -8 3 -5
6 6 6 11 1 17 -2 13 -5z m156 -1 c-7 -2 -21 -2 -30 0 -10 3 -4 5 12 5 17 0 24
-2 18 -5z m80 0 c-7 -2 -21 -2 -30 0 -10 3 -4 5 12 5 17 0 24 -2 18 -5z m254
1 c-3 -3 -12 -4 -19 -1 -8 3 -5 6 6 6 11 1 17 -2 13 -5z m156 -1 c-7 -2 -19
-2 -25 0 -7 3 -2 5 12 5 14 0 19 -2 13 -5z m135 0 c-10 -2 -28 -2 -40 0 -13 2
-5 4 17 4 22 1 32 -1 23 -4z m69 1 c-3 -3 -12 -4 -19 -1 -8 3 -5 6 6 6 11 1
17 -2 13 -5z m40 0 c-3 -3 -12 -4 -19 -1 -8 3 -5 6 6 6 11 1 17 -2 13 -5z
m1036 -1 c-7 -2 -19 -2 -25 0 -7 3 -2 5 12 5 14 0 19 -2 13 -5z m80 0 c-7 -2
-21 -2 -30 0 -10 3 -4 5 12 5 17 0 24 -2 18 -5z m235 0 c-10 -2 -26 -2 -35 0
-10 3 -2 5 17 5 19 0 27 -2 18 -5z m90 0 c-10 -2 -28 -2 -40 0 -13 2 -5 4 17
4 22 1 32 -1 23 -4z m475 0 c-7 -2 -19 -2 -25 0 -7 3 -2 5 12 5 14 0 19 -2 13
-5z m54 1 c-3 -3 -12 -4 -19 -1 -8 3 -5 6 6 6 11 1 17 -2 13 -5z"/>
</g>
</svg>
