<?xml version="1.0" standalone="no"?>
<!DOCTYPE svg PUBLIC "-//W3C//DTD SVG 20010904//EN"
 "http://www.w3.org/TR/2001/REC-SVG-20010904/DTD/svg10.dtd">
<svg version="1.0" xmlns="http://www.w3.org/2000/svg"
 width="1092.000000pt" height="1655.000000pt" viewBox="0 0 1092.000000 1655.000000"
 preserveAspectRatio="xMidYMid meet">
<metadata>
Created by potrace 1.16, written by Peter Selinger 2001-2019
</metadata>
<g transform="translate(0.000000,1655.000000) scale(0.100000,-0.100000)"
fill="#000000" stroke="none">
<path d="M4875 15450 c-225 -5 -430 -11 -455 -12 -25 -2 284 -2 685 0 653 4
1044 -2 1031 -15 -5 -5 -95 -6 -416 -4 -318 2 -494 -3 -502 -14 -5 -7 -8 -6
-8 1 0 7 -17 8 -50 4 -31 -4 -50 -3 -50 4 0 5 -7 1 -15 -10 -8 -10 -15 -14
-15 -8 0 10 -29 10 -175 0 -27 -2 -56 1 -62 7 -10 7 -13 4 -14 -9 0 -11 -3
-14 -6 -6 -6 14 -63 17 -63 2 0 -5 -9 -10 -21 -10 -11 0 -18 4 -15 8 3 5 -17
5 -45 1 -27 -4 -86 -10 -130 -13 -44 -2 -83 -7 -86 -10 -4 -3 -12 -1 -19 5 -9
7 -19 7 -33 -1 -22 -11 -28 -30 -11 -30 6 0 10 5 10 10 0 6 5 10 11 10 6 0 9
-6 6 -14 -4 -11 0 -12 21 -7 18 5 35 3 50 -7 15 -10 22 -11 22 -3 0 7 4 9 10
6 5 -3 19 -1 31 6 13 7 19 7 15 1 -6 -10 29 -9 87 3 9 2 14 -1 11 -7 -4 -7 5
-8 25 -3 27 6 30 4 25 -12 -5 -17 -5 -17 6 -1 8 13 16 15 34 9 13 -5 29 -5 37
-1 8 6 16 4 21 -3 6 -9 10 -9 17 2 7 11 10 9 16 -8 3 -11 10 -21 15 -21 5 0 6
7 3 17 -5 11 -3 14 6 8 8 -4 17 -2 23 6 14 22 3 -59 -15 -106 l-16 -40 -1 36
c0 19 5 40 12 47 15 15 7 24 -11 13 -8 -5 -16 -32 -19 -60 -2 -28 -8 -51 -12
-51 -4 0 -6 21 -3 48 l4 47 -15 -33 c-8 -18 -14 -38 -12 -45 1 -6 1 -9 -1 -4
-3 4 -9 7 -14 7 -6 0 -7 -6 -3 -12 5 -9 2 -9 -9 1 -15 12 -17 11 -17 -3 0 -9
-5 -16 -10 -16 -6 0 -8 12 -5 28 6 24 3 22 -19 -13 -14 -22 -26 -33 -26 -24 0
8 7 24 15 35 22 29 17 43 -5 15 -11 -13 -20 -31 -20 -42 0 -10 -7 -22 -16 -27
-11 -6 -15 -18 -12 -34 4 -21 1 -24 -13 -21 -13 4 -22 -2 -28 -20 -12 -30 -31
-44 -31 -23 0 8 -4 17 -9 20 -5 3 -8 -5 -7 -18 0 -13 4 -22 7 -20 16 10 18
-31 3 -48 -10 -10 -15 -21 -12 -24 7 -6 48 49 48 65 0 6 16 21 35 33 19 13 35
30 36 38 0 11 2 12 6 2 3 -7 -3 -22 -13 -33 -10 -11 -19 -27 -20 -35 -4 -27
-14 -29 -15 -3 0 17 -2 19 -7 9 -4 -8 -19 -33 -33 -55 -25 -39 -43 -105 -28
-105 18 0 39 34 39 64 0 35 15 56 40 55 10 0 8 -4 -6 -11 -17 -8 -22 -19 -22
-47 0 -20 5 -40 11 -44 8 -6 6 -7 -4 -4 -21 7 -35 -24 -38 -83 -1 -24 -11 -64
-21 -88 -21 -46 -19 -65 5 -56 8 4 13 0 11 -11 -3 -23 -77 -80 -98 -77 -10 2
-18 -1 -18 -7 0 -6 6 -8 14 -5 8 3 17 1 20 -5 4 -6 19 3 37 20 33 32 49 39 28
12 -8 -10 -16 -20 -19 -23 -3 -3 -5 -12 -5 -20 0 -18 -35 -26 -45 -11 -5 8
-11 7 -21 -5 -12 -16 -12 -17 3 -11 10 3 20 2 23 -3 4 -6 2 -10 -4 -10 -12 0
-45 -59 -37 -67 9 -10 26 8 26 28 0 11 8 23 18 26 9 4 31 20 47 35 17 15 37
28 45 28 8 0 -2 -12 -23 -27 -40 -28 -54 -63 -17 -43 14 7 20 7 20 0 0 -5 -7
-10 -16 -10 -11 0 -15 -6 -11 -19 3 -12 -3 -27 -14 -37 -21 -18 -27 -6 -7 14
7 7 9 12 4 12 -16 0 -36 -29 -30 -44 3 -9 1 -23 -5 -30 -9 -11 -9 -15 1 -19
10 -4 8 -9 -4 -17 -11 -6 -18 -23 -18 -40 0 -34 6 -36 37 -15 14 10 23 11 25
4 2 -7 12 -7 31 0 15 6 27 7 27 2 0 -13 -24 -20 -98 -27 -49 -4 -63 -3 -52 5
13 9 13 11 0 11 -9 0 -21 -5 -28 -12 -17 -17 -28 -2 -12 17 9 11 9 15 1 15 -6
0 -14 -7 -17 -15 -4 -8 -10 -12 -15 -9 -5 3 -9 0 -9 -5 0 -6 -20 -11 -46 -11
-33 0 -43 3 -38 13 6 9 5 9 -7 0 -9 -7 -93 -14 -239 -18 -124 -4 -317 -10
-430 -14 -133 -4 -208 -3 -212 4 -5 6 -8 6 -8 -1 0 -7 -29 -12 -82 -13 -45 -1
-85 -4 -89 -7 -4 -2 -10 0 -14 6 -4 6 -11 7 -17 4 -20 -12 -140 -16 -133 -4 4
6 10 8 15 5 10 -6 25 33 21 54 -1 7 2 10 8 7 5 -4 11 6 13 21 3 25 4 24 9 -9
3 -20 1 -36 -4 -35 -5 1 -11 -3 -13 -8 -3 -6 12 -10 34 -10 29 0 38 4 39 17 1
10 -3 18 -8 18 -6 0 -7 -4 -4 -10 3 -5 -1 -10 -10 -10 -9 0 -13 5 -10 10 3 6
3 10 -2 10 -4 0 -9 17 -9 38 l-2 37 12 -30 c8 -22 16 -30 29 -27 16 3 18 11
15 48 -3 43 -2 45 22 39 24 -6 24 -6 6 14 -17 19 -17 22 -2 52 20 40 13 50
-13 18 -12 -15 -18 -32 -14 -46 7 -32 -4 -29 -22 6 -8 17 -11 32 -6 36 5 3 3
19 -6 36 -11 21 -12 37 -6 51 7 17 9 15 9 -16 0 -42 27 -79 37 -52 4 9 1 16
-5 16 -9 0 -9 3 0 12 8 8 15 8 27 -2 11 -9 15 -10 15 0 0 6 -9 14 -20 17 -11
3 -20 11 -20 18 0 7 -5 15 -11 17 -12 4 -1 38 12 38 4 0 5 -7 2 -17 -4 -11 -3
-14 5 -9 7 4 12 16 12 26 0 16 -5 18 -30 14 -35 -8 -40 3 -7 16 l22 9 -23 0
c-22 1 -22 2 -6 26 17 25 11 50 -10 42 -9 -4 -11 3 -8 21 5 23 6 24 12 7 5
-13 9 -15 14 -7 4 7 12 10 17 7 5 -4 9 -1 9 4 0 6 -7 11 -15 11 -8 0 -15 6
-15 14 0 7 7 19 15 26 8 7 15 18 15 24 0 6 -7 2 -15 -8 -16 -22 -17 -21 -35
13 -8 16 -14 20 -20 12 -4 -7 -7 2 -7 21 -1 18 1 28 4 21 2 -7 11 -9 19 -6 17
6 18 44 2 62 -11 11 -9 12 8 7 18 -5 21 -2 22 26 0 18 -4 44 -9 58 -5 14 -10
34 -12 45 -2 20 -22 34 -22 16 0 -5 -3 -13 -7 -17 -5 -4 -8 7 -8 24 0 17 5 34
12 38 7 5 8 3 3 -6 -5 -9 -2 -10 13 -6 15 5 21 2 24 -11 3 -17 4 -17 10 -1 6
14 -1 21 -27 32 -19 8 -35 19 -35 24 0 5 -10 12 -22 15 -13 2 -31 8 -40 12
-14 6 -18 2 -18 -16 -1 -21 -2 -22 -11 -6 -5 9 -19 17 -31 17 -14 0 -18 5 -14
15 3 8 2 14 -2 14 -20 -3 -31 3 -37 22 -11 33 -15 17 -6 -24 12 -49 5 -47 -20
6 -15 32 -18 36 -16 15 2 -15 0 -33 -4 -40 -7 -10 -9 -9 -9 5 0 9 -4 17 -9 17
-5 0 -7 -9 -4 -20 3 -11 0 -20 -6 -20 -5 0 -8 6 -5 13 3 8 -3 20 -12 28 -12 9
-15 10 -10 2 4 -7 2 -13 -3 -13 -6 0 -11 -8 -11 -17 0 -15 -2 -16 -9 -3 -6 8
-7 19 -4 25 4 5 2 6 -3 2 -5 -5 -15 -25 -21 -45 l-13 -37 5 39 c4 38 4 39 -11
18 -8 -12 -20 -20 -25 -17 -5 4 -9 1 -9 -5 0 -6 -4 -8 -10 -5 -5 3 -10 -3 -10
-14 0 -12 -5 -21 -12 -21 -9 0 -9 -3 0 -12 7 -7 12 -19 12 -28 0 -13 -2 -13
-11 0 -8 12 -9 9 -5 -12 4 -16 2 -28 -3 -28 -6 0 -8 -7 -5 -15 4 -8 2 -15 -4
-15 -5 0 -12 9 -15 20 -4 14 0 20 11 20 13 0 14 2 3 13 -11 10 -14 10 -18 0
-3 -7 -9 -13 -15 -13 -6 0 -7 7 -4 16 3 8 2 12 -4 9 -6 -3 -10 -15 -10 -26 0
-13 4 -18 12 -13 8 5 9 2 4 -11 -4 -11 -2 -22 6 -27 10 -6 10 -10 1 -16 -7 -4
-11 -25 -9 -50 3 -32 -1 -43 -14 -47 -17 -6 -18 -24 -3 -65 4 -8 5 -18 5 -22
-1 -5 2 -8 8 -8 5 0 10 -5 10 -11 0 -6 -6 -9 -14 -6 -8 3 -17 -1 -20 -9 -3 -8
-2 -12 4 -9 5 3 14 -3 19 -14 8 -14 7 -22 -6 -32 -15 -12 -16 -12 -10 3 3 10
2 20 -3 23 -6 4 -10 -3 -10 -15 0 -11 9 -24 20 -28 14 -5 17 -11 10 -22 -9
-13 -11 -13 -21 0 -9 12 -10 11 -6 -7 3 -12 0 -24 -7 -27 -6 -2 -4 -5 5 -5 8
-1 19 3 25 9 6 6 10 3 10 -10 0 -14 -5 -18 -18 -15 -24 8 -36 -21 -33 -80 1
-27 4 -50 5 -50 5 0 7 -81 2 -90 -3 -5 -6 -22 -6 -38 -1 -15 -8 -32 -16 -37
-12 -8 -12 -10 3 -16 21 -8 22 -24 2 -24 -8 0 -15 -4 -15 -10 0 -5 9 -10 20
-10 11 0 20 -7 20 -15 0 -8 -5 -15 -11 -15 -5 0 -7 -5 -4 -11 5 -6 11 -4 19 7
10 13 15 14 21 4 5 -9 4 -11 -3 -6 -7 4 -12 3 -12 -1 0 -11 37 -43 50 -43 6 0
10 -3 10 -8 0 -4 21 -6 48 -5 58 4 31 -11 -40 -21 -30 -5 -48 -12 -48 -21 0
-10 7 -11 28 -6 32 9 102 -7 102 -23 0 -6 4 -5 9 3 8 12 12 11 27 -3 10 -11
27 -16 41 -13 16 3 23 0 23 -12 0 -12 2 -13 8 -3 11 17 66 32 97 26 15 -2 25
0 25 7 0 6 7 9 15 6 8 -4 17 -3 19 2 3 4 19 7 36 6 19 -1 30 3 30 11 0 8 6 11
15 8 8 -4 33 1 55 10 21 8 42 12 45 7 2 -5 22 -5 42 -1 116 26 396 35 1023 35
634 -1 742 -4 735 -24 -4 -11 -3 -11 9 -2 8 7 20 10 26 6 5 -3 10 -1 10 5 0 7
6 8 18 1 9 -5 37 -9 62 -10 66 -1 104 -5 116 -13 6 -4 14 -4 18 0 13 12 56 9
56 -5 0 -7 -5 -13 -11 -13 -5 0 -7 -5 -4 -10 4 -6 12 -4 21 5 18 18 36 19 52
3 8 -8 15 -8 25 0 9 8 17 8 24 1 17 -17 71 -19 87 -3 18 18 30 18 23 0 -4 -10
3 -12 28 -10 33 2 34 2 22 -24 -6 -15 -16 -30 -21 -33 -5 -4 -6 -16 -3 -28 3
-15 -1 -25 -14 -31 -13 -8 -19 -7 -19 0 0 6 -10 10 -22 8 -13 -2 -23 -10 -23
-18 0 -8 -8 -21 -19 -29 -15 -12 -19 -12 -27 0 -5 8 -9 17 -9 20 0 10 47 50
56 47 12 -3 64 32 64 44 0 5 -12 0 -26 -11 -15 -12 -34 -21 -43 -21 -9 0 -27
-12 -40 -25 -19 -21 -22 -32 -17 -60 7 -34 8 -35 29 -20 24 17 37 19 37 7 0
-7 -57 -32 -74 -32 -4 0 -4 9 -1 20 4 11 2 20 -4 20 -6 0 -11 -8 -11 -18 0
-10 -5 -23 -12 -30 -9 -9 -9 -12 0 -12 7 0 12 6 12 13 0 8 3 7 10 -3 7 -11 3
-18 -16 -28 -13 -7 -28 -10 -33 -7 -11 6 -66 -13 -59 -21 3 -2 17 0 32 5 21 9
26 8 26 -4 0 -20 16 -19 24 1 3 8 10 13 16 9 5 -3 18 3 29 14 11 11 23 16 26
11 6 -10 -33 -40 -52 -40 -7 0 -13 -7 -13 -16 0 -8 4 -13 9 -10 5 3 11 -1 15
-9 4 -11 -2 -15 -24 -15 -17 0 -30 -4 -30 -10 0 -10 21 -14 49 -11 7 2 10 -3
6 -9 -4 -6 -13 -9 -21 -6 -17 7 -44 -3 -44 -16 0 -5 9 -6 20 -3 11 4 20 2 20
-4 0 -6 -7 -11 -15 -11 -9 0 -12 -6 -9 -15 4 -8 1 -15 -5 -15 -6 0 -11 -9 -11
-20 0 -31 13 -23 34 20 10 22 23 37 27 34 5 -3 9 0 9 5 0 6 4 11 10 11 5 0 7
-7 4 -15 -4 -8 -13 -15 -20 -15 -12 0 -13 -4 -3 -22 11 -21 11 -22 -4 -10 -15
13 -17 10 -23 -26 -3 -23 -13 -43 -21 -47 -12 -4 -13 -8 -4 -19 8 -10 9 -16 1
-21 -17 -10 -11 -25 8 -19 14 5 15 4 2 -5 -8 -6 -23 -8 -32 -5 -10 3 -18 1
-18 -5 0 -5 -3 -16 -6 -25 -4 -11 -1 -16 10 -16 20 0 21 -16 1 -24 -8 -3 -15
-11 -15 -17 0 -7 9 -6 25 5 35 23 40 20 11 -8 -27 -24 -36 -52 -13 -41 6 4 3
0 -7 -9 -10 -8 -23 -13 -27 -10 -5 3 -7 -18 -5 -46 1 -29 -1 -45 -5 -38 -8 12
-13 4 -10 -14 2 -12 -17 -9 -25 3 -3 6 -2 14 4 18 6 4 10 16 9 28 0 12 -4 20
-7 17 -3 -3 -3 -7 0 -8 3 -1 -3 -14 -13 -29 -11 -17 -13 -27 -6 -27 7 0 5 -8
-6 -20 -10 -11 -15 -20 -10 -20 4 0 14 8 21 18 20 25 18 -3 -2 -33 -9 -14 -14
-25 -10 -25 10 0 46 39 46 50 0 6 5 10 11 10 7 0 9 -10 4 -27 -7 -29 -21 -43
-42 -43 -7 0 -13 -8 -13 -17 0 -14 2 -15 9 -5 10 17 44 22 53 9 4 -7 12 -6 22
3 14 11 16 10 9 -5 -5 -14 -3 -17 8 -13 15 6 42 -16 32 -26 -4 -3 -1 -6 5 -6
7 0 12 6 13 13 0 6 4 3 9 -8 5 -11 9 -14 9 -7 1 10 6 10 22 2 15 -9 24 -8 37
2 11 9 14 10 8 1 -5 -9 2 -13 24 -13 21 0 29 -4 24 -11 -5 -8 -2 -9 12 -1 11
6 27 7 41 1 18 -6 25 -5 29 6 5 13 54 18 54 5 0 -3 44 -5 97 -4 54 0 106 -3
115 -8 13 -6 16 -5 12 6 -3 8 -1 17 5 21 6 3 11 0 11 -8 0 -7 7 -14 15 -14 8
0 15 3 15 6 0 10 50 6 51 -4 1 -5 5 1 9 15 l8 25 7 -22 c9 -28 25 -31 18 -3
-3 11 0 20 6 20 6 0 11 -6 11 -13 0 -8 13 -11 43 -9 36 3 43 7 43 24 -1 12 6
23 14 26 12 4 13 3 3 -10 -18 -22 -3 -31 19 -11 17 15 18 15 18 -2 0 -15 3
-16 12 -7 7 7 26 13 43 13 16 1 22 3 13 6 -22 6 -23 17 -2 38 20 19 23 17 26
-18 3 -39 15 -33 23 11 8 50 22 72 34 53 6 -9 11 -10 15 -2 4 6 1 11 -6 11
-10 0 -9 3 2 11 12 8 10 9 -7 4 -14 -4 -23 -2 -23 4 0 6 -9 11 -20 11 -12 0
-20 7 -20 18 0 14 2 15 10 2 7 -12 12 -12 29 4 11 10 18 22 16 27 -3 4 -1 10
5 14 6 3 14 -3 18 -14 7 -20 8 -20 20 -1 10 16 9 18 -3 14 -9 -4 -15 0 -15 10
0 9 8 16 18 17 9 0 12 3 5 5 -13 6 -6 35 11 46 7 5 5 8 -6 8 -10 0 -19 -11
-23 -30 -4 -16 -11 -30 -16 -30 -10 0 -1 55 13 84 8 15 12 16 20 5 9 -13 7 -4
-8 53 -4 13 -1 16 10 12 12 -5 16 0 15 17 0 13 -3 18 -6 11 -2 -6 -9 -10 -14
-6 -5 3 -6 10 -3 16 14 23 12 68 -3 68 -10 0 -12 -6 -7 -22 6 -20 5 -21 -9
-10 -12 10 -16 10 -20 0 -3 -7 -3 2 0 19 3 20 0 39 -7 48 -10 12 -9 15 4 15 9
0 19 -7 22 -15 10 -25 20 -17 21 18 1 20 -1 26 -5 15 -5 -12 -12 -14 -21 -9
-7 5 -10 14 -7 20 5 8 0 8 -18 -1 -28 -12 -33 -27 -14 -46 9 -9 9 -12 0 -12
-7 0 -17 10 -21 23 -7 17 -5 24 11 31 10 5 17 15 14 23 -3 8 2 13 14 13 19 0
36 17 27 26 -3 3 -15 1 -26 -6 -17 -8 -21 -8 -21 4 0 7 7 16 15 20 23 8 18 23
-10 30 -18 5 -26 15 -31 42 -3 19 -4 38 0 41 3 4 6 -6 6 -20 0 -15 5 -27 11
-27 5 0 8 -4 4 -9 -3 -5 -1 -12 4 -15 17 -11 23 33 7 50 -9 8 -16 21 -16 29 0
7 -4 15 -9 17 -5 2 -4 19 4 41 7 20 9 37 5 37 -5 0 -13 -12 -18 -27 -7 -18
-11 -22 -11 -10 -1 10 -9 17 -20 17 -31 0 -34 18 -5 22 15 2 28 10 30 18 1 8
9 31 18 51 13 32 18 35 45 31 17 -2 31 0 31 5 0 5 20 9 45 8 24 -1 42 2 39 6
-3 5 16 9 41 9 31 0 44 -4 39 -11 -4 -8 0 -7 15 1 12 6 30 8 41 5 10 -3 21 -2
24 4 3 5 24 7 46 4 22 -3 40 -1 40 4 0 5 35 9 80 8 44 -1 80 2 80 5 0 11 504
2 508 -10 2 -5 7 -8 12 -5 16 10 80 14 80 5 0 -5 13 -7 30 -4 17 4 36 1 44 -5
11 -9 15 -9 18 0 3 9 9 9 26 0 15 -8 22 -8 22 -1 0 7 6 8 18 2 9 -6 32 -8 49
-7 21 2 30 -1 26 -8 -4 -6 0 -8 10 -4 10 4 17 1 17 -6 0 -7 7 -4 14 6 9 12 15
14 18 6 5 -16 130 -21 140 -6 6 9 8 9 8 0 0 -8 16 -10 50 -7 31 2 50 0 50 -7
0 -5 5 -7 10 -4 6 3 10 10 10 14 0 12 -47 31 -75 31 -14 0 -25 5 -25 10 0 6
21 10 46 10 48 0 74 16 74 47 0 15 2 16 10 3 7 -11 10 1 11 40 1 39 3 48 8 30
4 -14 9 -20 12 -15 8 14 -2 95 -11 95 -5 0 -6 12 -4 28 3 15 6 51 7 80 2 40
-1 52 -13 53 -8 0 -4 5 10 10 15 6 20 13 14 17 -17 11 -28 53 -14 50 19 -4 21
32 4 64 -8 16 -12 38 -9 48 4 13 2 20 -7 20 -8 0 -9 3 -3 8 11 8 17 62 6 62
-6 0 -4 104 3 145 2 11 1 25 -3 30 -3 6 -7 24 -8 40 0 17 -2 30 -3 30 -8 0 -4
45 4 45 6 0 3 5 -7 11 -9 5 -22 7 -27 4 -6 -3 -10 -2 -10 4 0 5 4 12 10 16 5
3 2 14 -7 25 -9 10 -20 17 -25 14 -4 -3 -8 2 -8 11 0 10 -5 13 -12 9 -7 -4
-10 -4 -6 0 7 9 -27 46 -42 46 -6 0 -13 7 -16 15 -4 10 -13 13 -26 9 -15 -4
-18 -3 -13 6 6 10 1 12 -19 8 -14 -3 -26 -2 -26 2 0 8 -57 19 -125 25 -22 2
-41 8 -43 13 -1 5 -12 8 -22 5 -11 -3 -20 0 -20 6 0 14 27 14 131 -3 105 -17
231 -52 284 -78 22 -11 58 -37 80 -57 l39 -36 -26 35 c-62 86 -216 133 -553
169 -657 71 -1815 110 -2720 91z m1360 -30 c3 -5 -3 -10 -15 -10 -12 0 -18 5
-15 10 3 6 10 10 15 10 5 0 12 -4 15 -10z m63 -7 c-10 -2 -26 -2 -35 0 -10 3
-2 5 17 5 19 0 27 -2 18 -5z m547 -13 c99 -7 85 -8 -75 -4 -246 6 -444 15
-450 22 -6 5 349 -7 525 -18z m268 -17 c-23 -2 -64 -2 -90 0 -26 2 -7 3 42 3
50 0 71 -1 48 -3z m125 -10 c-16 -2 -40 -2 -55 0 -16 2 -3 4 27 4 30 0 43 -2
28 -4z m113 -11 c-35 -2 -68 1 -72 5 -4 4 24 6 64 3 l72 -5 -64 -3z m249 -12
c21 0 30 -4 25 -9 -6 -6 -47 -4 -105 4 -86 13 -89 14 -25 10 39 -3 86 -5 105
-5z m-2650 -47 c0 -22 -32 -93 -41 -93 -5 0 -1 16 7 35 7 19 14 46 14 60 0 15
4 24 10 20 6 -3 10 -13 10 -22z m32 -5 c-5 -31 -5 -31 -13 -9 -9 23 -5 41 10
41 4 0 5 -14 3 -32z m26 -8 c-7 -10 -14 -17 -17 -15 -4 4 18 35 25 35 2 0 -1
-9 -8 -20z m89 -2 c-3 -8 -6 -5 -6 6 -1 11 2 17 5 13 3 -3 4 -12 1 -19z
m-2160 -150 c-3 -7 -5 -2 -5 12 0 14 2 19 5 13 2 -7 2 -19 0 -25z m1843 7 c-7
-9 -19 -14 -27 -11 -8 3 -13 -2 -13 -14 0 -11 -4 -20 -9 -20 -4 0 -6 12 -3 26
3 19 9 24 23 21 11 -3 22 -1 25 4 3 5 8 9 11 9 3 0 0 -7 -7 -15z m-1743 -1
c-3 -3 -12 -4 -19 -1 -8 3 -5 6 6 6 11 1 17 -2 13 -5z m79 -4 c8 0 14 -8 13
-17 0 -10 -3 -13 -5 -7 -3 7 -13 10 -23 7 -11 -3 -21 2 -25 12 -5 13 -2 16 10
11 8 -3 22 -6 30 -6z m-335 -52 c-8 -9 -17 -15 -20 -13 -2 3 0 10 6 16 6 6 9
19 5 27 -5 14 -4 14 9 2 14 -12 14 -16 0 -32z m46 20 c-3 -8 -6 -5 -6 6 -1 11
2 17 5 13 3 -3 4 -12 1 -19z m248 -7 c-6 -5 -25 10 -25 20 0 5 6 4 14 -3 8 -7
12 -15 11 -17z m-315 9 c0 -5 -5 -10 -11 -10 -5 0 -7 5 -4 10 3 6 8 10 11 10
2 0 4 -4 4 -10z m1940 0 c0 -5 -5 -10 -11 -10 -5 0 -7 5 -4 10 3 6 8 10 11 10
2 0 4 -4 4 -10z m34 -54 c-3 -15 -8 -25 -11 -23 -2 3 -1 17 3 31 3 15 8 25 11
23 2 -3 1 -17 -3 -31z m-1637 -18 c-3 -7 -5 -2 -5 12 0 14 2 19 5 13 2 -7 2
-19 0 -25z m87 -48 l7 -25 -15 25 c-17 28 -21 50 -7 35 5 -6 12 -21 15 -35z
m-44 -11 c0 -3 -6 -6 -12 -6 -7 0 -14 11 -14 24 -2 22 -1 23 12 6 7 -10 14
-21 14 -24z m23 2 c3 -11 -1 -22 -8 -24 -8 -4 -10 3 -7 19 5 29 8 30 15 5z
m1587 15 c0 -2 -7 -9 -15 -16 -13 -11 -14 -10 -9 4 5 14 24 23 24 12z m-2039
-49 c-6 -6 -11 -20 -12 -31 0 -12 -3 -15 -6 -8 -3 7 1 27 8 44 7 17 15 26 17
19 2 -7 -1 -18 -7 -24z m1991 1 c-7 -7 -12 -8 -12 -2 0 14 12 26 19 19 2 -3
-1 -11 -7 -17z m19 -31 c-10 -9 -11 -8 -5 6 3 10 9 15 12 12 3 -3 0 -11 -7
-18z m-101 -7 c0 -5 -5 -10 -11 -10 -5 0 -7 5 -4 10 3 6 8 10 11 10 2 0 4 -4
4 -10z m57 -12 c-3 -8 -6 -5 -6 6 -1 11 2 17 5 13 3 -3 4 -12 1 -19z m-1517
-9 c0 -5 -4 -9 -10 -9 -5 0 -10 7 -10 16 0 8 5 12 10 9 6 -3 10 -10 10 -16z
m-480 -29 c0 -5 -4 -10 -10 -10 -5 0 -10 5 -10 10 0 6 5 10 10 10 6 0 10 -4
10 -10z m2035 0 c-3 -5 -11 -10 -16 -10 -6 0 -7 5 -4 10 3 6 11 10 16 10 6 0
7 -4 4 -10z m-75 -51 c0 -16 -4 -28 -9 -25 -8 5 -3 56 5 56 2 0 4 -14 4 -31z
m27 -1 c-3 -8 -6 -5 -6 6 -1 11 2 17 5 13 3 -3 4 -12 1 -19z m-1967 2 c0 -5
-2 -10 -4 -10 -3 0 -8 5 -11 10 -3 6 -1 10 4 10 6 0 11 -4 11 -10z m465 -30
c10 -11 13 -20 7 -20 -6 0 -16 9 -22 20 -6 11 -9 20 -7 20 2 0 12 -9 22 -20z
m1515 -15 c-7 -9 -15 -13 -17 -11 -7 7 7 26 19 26 6 0 6 -6 -2 -15z m69 -13
c-7 -12 -21 -23 -31 -26 -14 -3 -12 3 9 23 32 31 40 32 22 3z m-1596 -32 c-7
-28 -13 -25 -13 6 0 14 4 23 9 20 5 -3 7 -15 4 -26z m1497 20 c0 -5 -8 -10
-17 -10 -15 0 -16 2 -3 10 19 12 20 12 20 0z m20 -21 c-7 -11 -14 -19 -16 -16
-7 7 7 37 17 37 6 0 5 -9 -1 -21z m-42 -28 c-13 -21 -38 -36 -38 -23 0 12 41
54 47 49 2 -3 -1 -14 -9 -26z m-1571 -53 c-3 -8 -6 -5 -6 6 -1 11 2 17 5 13 3
-3 4 -12 1 -19z m100 -45 c-2 -16 -4 -5 -4 22 0 28 2 40 4 28 2 -13 2 -35 0
-50z m-52 29 c-3 -3 -11 0 -18 7 -9 10 -8 11 6 5 10 -3 15 -9 12 -12z m1631
-18 c-4 -9 -9 -15 -11 -12 -3 3 -3 13 1 22 4 9 9 15 11 12 3 -3 3 -13 -1 -22z
m-96 12 c0 -3 -4 -8 -10 -11 -5 -3 -10 -1 -10 4 0 6 5 11 10 11 6 0 10 -2 10
-4z m25 -16 c-3 -5 -11 -10 -16 -10 -6 0 -7 5 -4 10 3 6 11 10 16 10 6 0 7 -4
4 -10z m-2005 -20 c0 -5 -4 -10 -10 -10 -5 0 -7 -8 -3 -17 5 -14 3 -16 -7 -6
-7 6 -10 19 -7 27 7 18 27 22 27 6z m530 6 c0 -3 -4 -8 -10 -11 -5 -3 -10 -1
-10 4 0 6 5 11 10 11 6 0 10 -2 10 -4z m1430 -21 c-7 -9 -15 -13 -19 -10 -3 3
1 10 9 15 21 14 24 12 10 -5z m132 -7 c-7 -7 -12 -8 -12 -2 0 14 12 26 19 19
2 -3 -1 -11 -7 -17z m-1615 -30 c-3 -8 -6 -5 -6 6 -1 11 2 17 5 13 3 -3 4 -12
1 -19z m1533 5 c0 -10 -50 -58 -50 -49 0 12 32 56 41 56 5 0 9 -3 9 -7z
m-1470 -13 c0 -5 -2 -10 -4 -10 -3 0 -8 5 -11 10 -3 6 -1 10 4 10 6 0 11 -4
11 -10z m-74 -41 c19 -22 19 -22 -3 -8 -13 8 -23 17 -23 21 0 12 6 9 26 -13z
m30 -36 c-11 -11 -17 4 -9 23 7 18 8 18 11 1 2 -10 1 -21 -2 -24z m1509 17
c-3 -5 -14 -10 -23 -10 -15 0 -15 2 -2 10 20 13 33 13 25 0z m-31 -29 c3 -5
-1 -11 -9 -14 -9 -4 -12 -1 -8 9 6 16 10 17 17 5z m-1461 -24 c4 3 7 2 7 -4 0
-24 -28 -20 -40 5 -11 26 -11 26 7 9 11 -9 23 -14 26 -10z m1537 13 c0 -5 -5
-10 -11 -10 -5 0 -7 5 -4 10 3 6 8 10 11 10 2 0 4 -4 4 -10z m-100 -35 c0 -9
-7 -18 -15 -20 -51 -16 -50 -16 -35 -25 11 -7 11 -12 2 -23 -7 -7 -10 -16 -8
-18 2 -2 -7 -12 -20 -22 -23 -17 -24 -17 -24 2 0 11 9 23 21 26 15 5 19 13 16
27 -8 29 2 48 20 41 10 -4 14 -2 10 5 -4 6 1 13 10 15 10 3 19 5 21 6 1 0 2
-6 2 -14z m45 5 c4 -6 1 -9 -6 -8 -6 2 -14 -10 -16 -27 -6 -42 -13 -44 -13 -3
0 44 19 64 35 38z m-1522 -17 c-7 -2 -19 -2 -25 0 -7 3 -2 5 12 5 14 0 19 -2
13 -5z m64 -42 c1 -12 -2 -21 -8 -21 -5 0 -9 9 -9 20 0 11 -4 20 -10 20 -5 0
-10 5 -10 10 0 20 36 -8 37 -29z m1409 -8 c-4 -4 -12 -1 -19 7 -9 10 -9 11 1
6 7 -4 12 -2 13 6 0 11 2 11 6 0 3 -7 2 -16 -1 -19z m-9 -39 c-3 -3 -12 -4
-19 -1 -8 3 -5 6 6 6 11 1 17 -2 13 -5z m93 -4 c0 -5 -4 -10 -10 -10 -5 0 -10
5 -10 10 0 6 5 10 10 10 6 0 10 -4 10 -10z m-1627 -60 c-3 -11 -9 -20 -15 -20
-5 0 -4 9 2 20 6 11 12 20 14 20 2 0 2 -9 -1 -20z m-39 -5 c3 -8 1 -15 -4 -15
-6 0 -10 7 -10 15 0 8 2 15 4 15 2 0 6 -7 10 -15z m2416 -85 c0 -5 -5 -10 -11
-10 -5 0 -7 5 -4 10 3 6 8 10 11 10 2 0 4 -4 4 -10z m100 -5 c-7 -9 -15 -13
-17 -11 -7 7 7 26 19 26 6 0 6 -6 -2 -15z m770 -32 c-1 -10 -11 -31 -24 -46
l-23 -28 0 35 c0 20 4 36 9 36 5 0 6 -4 3 -10 -3 -5 -2 -10 4 -10 17 0 24 22
10 31 -11 7 -10 9 4 9 10 0 17 -7 17 -17z m-607 -30 c-15 -22 -19 -23 -27 -11
-8 13 -13 11 -32 -11 -13 -14 -24 -21 -24 -16 0 6 10 19 21 29 18 15 19 20 8
27 -12 7 -12 9 0 9 8 0 20 -8 27 -17 12 -17 13 -16 14 4 0 15 5 21 15 17 12
-5 12 -9 -2 -31z m86 34 c-2 -1 -13 -9 -24 -17 -19 -14 -19 -14 -6 3 7 9 18
17 24 17 6 0 8 -1 6 -3z m418 -3 c-3 -3 -12 -4 -19 -1 -8 3 -5 6 6 6 11 1 17
-2 13 -5z m-47 -14 c0 -5 -5 -10 -11 -10 -5 0 -7 5 -4 10 3 6 8 10 11 10 2 0
4 -4 4 -10z m-415 -39 c3 -5 1 -12 -5 -16 -5 -3 -10 1 -10 9 0 18 6 21 15 7z
m-185 -73 c0 -16 -3 -19 -11 -11 -6 6 -8 16 -5 22 11 17 16 13 16 -11z m71 13
c-7 -5 -11 -14 -7 -20 5 -7 1 -9 -8 -5 -26 10 -17 34 13 34 13 0 13 -2 2 -9z
m-44 -33 c-3 -8 -6 -5 -6 6 -1 11 2 17 5 13 3 -3 4 -12 1 -19z m713 -54 c0 -2
-7 -4 -15 -4 -8 0 -15 4 -15 10 0 5 7 7 15 4 8 -4 15 -8 15 -10z m20 -84 c0
-5 -4 -10 -10 -10 -5 0 -10 5 -10 10 0 6 5 10 10 10 6 0 10 -4 10 -10z m4 -46
c3 -8 2 -12 -4 -9 -6 3 -10 10 -10 16 0 14 7 11 14 -7z m-834 -88 c0 -3 -4 -8
-10 -11 -5 -3 -10 -1 -10 4 0 6 5 11 10 11 6 0 10 -2 10 -4z m-29 -49 c-13
-13 -26 -3 -16 12 3 6 11 8 17 5 6 -4 6 -10 -1 -17z m-19 -42 c-2 -14 -8 -25
-13 -25 -12 0 -11 7 1 31 14 26 18 24 12 -6z m948 -35 c0 -5 -7 -10 -15 -10
-8 0 -15 5 -15 10 0 6 7 10 15 10 8 0 15 -4 15 -10z m-920 -4 c0 -2 -9 -6 -20
-9 -11 -3 -18 -1 -14 4 5 9 34 13 34 5z m-36 -45 c-10 -10 -25 -16 -32 -13 -9
3 -6 9 10 17 34 19 44 17 22 -4z m964 -4 c2 -10 -3 -17 -12 -17 -9 0 -14 8
-13 20 2 24 21 21 25 -3z m-939 -44 c0 -25 -1 -25 -8 -8 -5 11 -7 23 -4 28 8
14 13 7 12 -20z m911 13 c0 -3 -4 -8 -10 -11 -5 -3 -10 -1 -10 4 0 6 5 11 10
11 6 0 10 -2 10 -4z m-930 -56 c0 -10 -10 -25 -22 -31 -22 -12 -22 -11 -5 8 9
11 17 25 17 31 0 7 2 12 5 12 3 0 5 -9 5 -20z m904 -10 c-22 -9 -29 -6 -20 9
4 6 14 7 23 4 15 -6 14 -7 -3 -13z m-972 -48 c-7 -5 -10 -16 -6 -25 7 -18 -11
-24 -21 -7 -11 17 3 40 22 40 13 0 15 -2 5 -8z m81 -22 c-3 -12 -8 -19 -11
-16 -5 6 5 36 12 36 2 0 2 -9 -1 -20z m-81 -105 c-2 -14 -9 -25 -14 -25 -5 0
-7 3 -5 8 2 4 7 15 10 25 9 25 15 21 9 -8z m948 15 c0 -5 -2 -10 -4 -10 -3 0
-8 5 -11 10 -3 6 -1 10 4 10 6 0 11 -4 11 -10z"/>
<path d="M4177 15423 c-3 -5 27 -7 66 -5 122 4 136 9 35 10 -53 1 -99 -1 -101
-5z"/>
<path d="M3790 15409 c-387 -21 -778 -55 -910 -80 -183 -34 -332 -87 -357
-128 -10 -16 -4 -14 30 9 136 97 461 145 1277 189 179 10 278 18 220 18 -58 0
-175 -4 -260 -8z"/>
<path d="M3865 15358 c2 -10 -3 -18 -12 -18 -8 0 -12 4 -9 9 6 9 -16 8 -56 -3
-41 -12 -34 -25 10 -21 20 1 72 3 115 4 73 1 77 2 77 24 -1 19 -2 20 -10 5
-10 -17 -50 -14 -50 4 0 5 -7 3 -15 -6 -16 -16 -41 -12 -48 7 -2 7 -3 4 -2 -5z"/>
<path d="M4180 15371 c-14 -4 -38 -6 -55 -5 -23 2 -26 1 -13 -7 17 -9 73 -7
84 4 4 3 15 -4 25 -16 10 -12 18 -17 19 -11 0 21 -34 41 -60 35z"/>
<path d="M4360 15368 c0 -8 -7 -21 -15 -28 -9 -7 -13 -15 -11 -17 3 -3 15 4
27 16 18 16 20 24 11 33 -9 9 -12 8 -12 -4z"/>
<path d="M4045 15360 c-4 -6 -16 -10 -26 -7 -23 6 -26 -18 -3 -27 10 -4 13 -2
8 6 -5 8 7 9 47 4 89 -11 141 -13 127 -5 -7 5 -29 8 -48 7 -40 -1 -82 10 -91
24 -4 6 -9 5 -14 -2z"/>
<path d="M4240 15360 c0 -5 5 -10 11 -10 5 0 7 -5 4 -10 -8 -13 55 -10 73 3
18 14 15 23 -8 23 -11 0 -20 -4 -20 -8 0 -4 -7 -8 -15 -8 -8 0 -15 5 -15 10 0
6 -7 10 -15 10 -8 0 -15 -4 -15 -10z"/>
<path d="M3721 15343 c7 -8 2 -13 -18 -16 -23 -3 -21 -4 10 -6 23 0 36 3 32 9
-3 6 -1 10 4 10 6 0 11 4 11 9 0 5 -11 8 -24 7 -17 -1 -22 -4 -15 -13z"/>
<path d="M3564 15340 c-5 -5 -26 -10 -47 -12 -20 -1 -37 -5 -37 -9 0 -12 39
-21 52 -13 7 4 28 7 48 6 31 -2 33 0 18 12 -10 7 -15 16 -11 19 3 4 2 7 -3 7
-6 0 -14 -4 -20 -10z"/>
<path d="M3629 15348 c-8 -27 -5 -36 15 -34 11 0 29 9 39 18 16 17 15 18 -18
18 -19 0 -35 -1 -36 -2z"/>
<path d="M3395 15320 c-4 -6 -12 -10 -18 -9 -27 3 -37 -2 -37 -18 1 -17 1 -17
10 -1 6 10 18 14 31 11 12 -4 25 0 30 8 7 11 9 10 9 -3 0 -20 5 -21 35 -8 19
8 19 9 -2 9 -12 1 -25 6 -28 11 -8 13 -22 13 -30 0z"/>
<path d="M3275 15300 c7 -12 45 -19 45 -9 0 5 -3 9 -7 10 -5 0 -16 2 -26 4 -9
2 -15 0 -12 -5z"/>
<path d="M4831 15284 c0 -11 3 -14 6 -6 3 7 2 16 -1 19 -3 4 -6 -2 -5 -13z"/>
<path d="M4749 15243 c-13 -16 -12 -17 4 -4 9 7 17 15 17 17 0 8 -8 3 -21 -13z"/>
<path d="M4790 15225 c-7 -9 -10 -18 -7 -21 3 -3 10 4 17 15 13 25 8 27 -10 6z"/>
<path d="M3040 15206 c0 -22 3 -27 11 -19 8 8 8 16 0 30 -9 16 -10 14 -11 -11z"/>
<path d="M8000 15226 c0 -2 7 -9 15 -16 9 -7 15 -8 15 -2 0 5 -7 12 -15 16 -8
3 -15 4 -15 2z"/>
<path d="M3107 15206 c-28 -13 -27 -26 4 -26 9 0 19 9 22 20 3 11 4 20 4 19
-1 0 -14 -6 -30 -13z"/>
<path d="M3146 15195 c-9 -26 -7 -32 5 -12 6 10 9 21 6 23 -2 3 -7 -2 -11 -11z"/>
<path d="M4670 15181 c-5 -11 -7 -22 -2 -25 4 -2 12 7 19 20 13 28 -2 33 -17
5z"/>
<path d="M4584 15149 c-3 -6 -1 -16 5 -22 8 -8 11 -5 11 11 0 24 -5 28 -16 11z"/>
<path d="M4634 15138 c-4 -7 -14 -24 -22 -38 -13 -24 -13 -24 2 -5 13 16 19
17 25 7 5 -9 8 -3 7 17 -1 35 -2 36 -12 19z"/>
<path d="M2690 15090 c0 -5 5 -10 11 -10 5 0 7 5 4 10 -3 6 -8 10 -11 10 -2 0
-4 -4 -4 -10z"/>
<path d="M3241 15074 c-1 -20 26 -41 37 -29 3 3 0 5 -7 5 -6 0 -16 10 -21 23
-9 22 -9 22 -9 1z"/>
<path d="M4555 15079 c-4 -6 -5 -12 -2 -15 2 -3 7 2 10 11 7 17 1 20 -8 4z"/>
<path d="M3200 15031 c0 -5 7 -14 15 -21 10 -9 15 -9 15 -1 0 6 -5 11 -11 11
-5 0 -7 5 -4 10 3 6 1 10 -4 10 -6 0 -11 -4 -11 -9z"/>
<path d="M3263 14973 c-1 -25 2 -32 8 -22 11 18 12 46 1 53 -4 3 -9 -11 -9
-31z"/>
<path d="M2647 14980 c3 -11 7 -20 9 -20 2 0 4 9 4 20 0 11 -4 20 -9 20 -5 0
-7 -9 -4 -20z"/>
<path d="M4560 14985 c-7 -8 -8 -15 -2 -15 5 0 15 7 22 15 7 8 8 15 2 15 -5 0
-15 -7 -22 -15z"/>
<path d="M4468 14983 c7 -3 16 -2 19 1 4 3 -2 6 -13 5 -11 0 -14 -3 -6 -6z"/>
<path d="M4540 14940 c0 -5 5 -10 10 -10 6 0 10 5 10 10 0 6 -4 10 -10 10 -5
0 -10 -4 -10 -10z"/>
<path d="M2647 14910 c-3 -11 -1 -20 4 -20 5 0 9 9 9 20 0 11 -2 20 -4 20 -2
0 -6 -9 -9 -20z"/>
<path d="M3271 14904 c0 -11 3 -14 6 -6 3 7 2 16 -1 19 -3 4 -6 -2 -5 -13z"/>
<path d="M4524 14896 c-10 -8 -16 -18 -11 -22 4 -4 7 -2 7 4 0 7 9 12 20 12
11 0 20 5 20 10 0 14 -13 12 -36 -4z"/>
<path d="M3190 14883 c0 -9 3 -13 7 -10 3 4 13 1 21 -6 13 -10 14 -9 3 11 -14
26 -31 29 -31 5z"/>
<path d="M4560 14859 c0 -11 4 -18 10 -14 5 3 7 12 3 20 -7 21 -13 19 -13 -6z"/>
<path d="M3270 14866 c0 -2 7 -7 16 -10 8 -3 12 -2 9 4 -6 10 -25 14 -25 6z"/>
<path d="M3179 14844 c-19 -23 -1 -33 31 -17 36 18 37 19 5 25 -14 3 -30 -1
-36 -8z"/>
<path d="M3260 14840 c0 -5 5 -10 11 -10 5 0 7 5 4 10 -3 6 -8 10 -11 10 -2 0
-4 -4 -4 -10z"/>
<path d="M4520 14840 c-8 -5 -10 -10 -5 -10 6 0 17 5 25 10 8 5 11 10 5 10 -5
0 -17 -5 -25 -10z"/>
<path d="M4585 14840 c-3 -5 -3 -14 0 -20 3 -5 2 -10 -2 -10 -5 0 -9 -9 -9
-20 0 -38 22 -20 24 20 3 40 -1 49 -13 30z"/>
<path d="M3240 14800 c0 -11 2 -20 4 -20 2 0 6 9 9 20 3 11 1 20 -4 20 -5 0
-9 -9 -9 -20z"/>
<path d="M3271 14809 c-1 -9 7 -23 17 -30 15 -12 16 -12 6 1 -6 8 -14 22 -17
30 -5 13 -6 12 -6 -1z"/>
<path d="M4540 14780 c0 -5 5 -10 11 -10 5 0 7 5 4 10 -3 6 -8 10 -11 10 -2 0
-4 -4 -4 -10z"/>
<path d="M3210 14759 c0 -5 5 -7 10 -4 6 3 10 8 10 11 0 2 -4 4 -10 4 -5 0
-10 -5 -10 -11z"/>
<path d="M3260 14755 c0 -8 4 -15 10 -15 5 0 7 7 4 15 -4 8 -8 15 -10 15 -2 0
-4 -7 -4 -15z"/>
<path d="M4371 14754 c0 -11 3 -14 6 -6 3 7 2 16 -1 19 -3 4 -6 -2 -5 -13z"/>
<path d="M4517 14743 c-4 -3 -7 -11 -7 -17 0 -6 5 -5 12 2 6 6 9 14 7 17 -3 3
-9 2 -12 -2z"/>
<path d="M4545 14711 c-20 -39 -19 -44 5 -29 11 7 18 18 16 25 -3 6 0 13 7 16
8 2 8 5 -1 10 -7 5 -17 -4 -27 -22z"/>
<path d="M3267 14719 c7 -7 15 -10 18 -7 3 3 -2 9 -12 12 -14 6 -15 5 -6 -5z"/>
<path d="M3240 14704 c0 -8 5 -12 10 -9 6 4 8 11 5 16 -9 14 -15 11 -15 -7z"/>
<path d="M3206 14697 c3 -10 9 -15 12 -12 3 3 0 11 -7 18 -10 9 -11 8 -5 -6z"/>
<path d="M3240 14670 c0 -5 5 -10 11 -10 5 0 7 5 4 10 -3 6 -8 10 -11 10 -2 0
-4 -4 -4 -10z"/>
<path d="M4495 14660 c-3 -5 -1 -10 4 -10 6 0 11 5 11 10 0 6 -2 10 -4 10 -3
0 -8 -4 -11 -10z"/>
<path d="M4526 14645 c-3 -8 -12 -15 -19 -15 -8 0 -21 -7 -28 -16 -11 -13 -4
-12 29 5 23 12 42 26 42 31 0 15 -17 12 -24 -5z"/>
<path d="M4542 14613 c-18 -13 -30 -29 -26 -34 3 -5 10 -7 15 -3 5 3 7 10 4
15 -4 5 2 9 12 9 27 1 58 26 40 33 -8 3 -28 -6 -45 -20z"/>
<path d="M3270 14620 c0 -5 5 -10 10 -10 6 0 10 5 10 10 0 6 -4 10 -10 10 -5
0 -10 -4 -10 -10z"/>
<path d="M3245 14568 c4 -23 2 -27 -12 -22 -15 5 -16 4 -3 -5 22 -15 36 4 21
31 -11 22 -11 22 -6 -4z"/>
<path d="M4475 14579 c-4 -6 -5 -12 -2 -15 2 -3 7 2 10 11 7 17 1 20 -8 4z"/>
<path d="M4400 14549 c0 -5 5 -7 10 -4 6 3 10 8 10 11 0 2 -4 4 -10 4 -5 0
-10 -5 -10 -11z"/>
<path d="M4468 14519 c-19 -11 -24 -29 -8 -29 5 0 14 9 20 20 12 23 12 23 -12
9z"/>
<path d="M3276 14497 c3 -10 9 -15 12 -12 3 3 0 11 -7 18 -10 9 -11 8 -5 -6z"/>
<path d="M3400 14490 c0 -5 5 -10 11 -10 5 0 7 5 4 10 -3 6 -8 10 -11 10 -2 0
-4 -4 -4 -10z"/>
<path d="M3265 14460 c3 -5 8 -10 11 -10 2 0 4 5 4 10 0 6 -5 10 -11 10 -5 0
-7 -4 -4 -10z"/>
<path d="M4440 14439 c-12 -16 -20 -32 -17 -35 6 -6 47 45 47 57 0 16 -8 10
-30 -22z"/>
<path d="M4531 14456 c-10 -12 -8 -13 8 -9 12 3 18 9 15 14 -7 12 -10 11 -23
-5z"/>
<path d="M8115 14420 c3 -5 8 -10 11 -10 2 0 4 5 4 10 0 6 -5 10 -11 10 -5 0
-7 -4 -4 -10z"/>
<path d="M3240 14410 c0 -5 5 -10 11 -10 5 0 7 5 4 10 -3 6 -8 10 -11 10 -2 0
-4 -4 -4 -10z"/>
<path d="M4469 14403 c-1 -5 -1 -11 0 -15 0 -5 -3 -8 -9 -8 -5 0 -10 -4 -10
-10 0 -5 7 -10 15 -10 9 0 15 9 15 25 0 23 -8 36 -11 18z"/>
<path d="M4493 14385 c0 -20 2 -23 13 -14 7 6 10 17 7 25 -8 23 -20 16 -20
-11z"/>
<path d="M3270 14381 c0 -10 19 -25 25 -20 1 2 -3 10 -11 17 -8 7 -14 8 -14 3z"/>
<path d="M4360 14376 c-6 -9 -10 -21 -8 -28 3 -8 9 -4 17 10 15 28 9 39 -9 18z"/>
<path d="M3229 14333 c5 -26 6 -27 9 -5 2 16 8 22 18 18 9 -3 12 -1 9 4 -3 6
-14 10 -24 10 -15 0 -17 -6 -12 -27z"/>
<path d="M4390 14349 c0 -5 5 -7 10 -4 6 3 10 8 10 11 0 2 -4 4 -10 4 -5 0
-10 -5 -10 -11z"/>
<path d="M4482 14325 c-17 -38 -15 -42 9 -16 13 14 18 26 12 32 -6 6 -14 0
-21 -16z"/>
<path d="M4446 14324 c-9 -24 -7 -27 9 -10 17 17 19 26 6 26 -5 0 -12 -7 -15
-16z"/>
<path d="M4370 14315 c-7 -9 -11 -18 -8 -20 3 -3 11 1 18 10 7 9 11 18 8 20
-3 3 -11 -1 -18 -10z"/>
<path d="M3256 14312 c-2 -4 4 -8 14 -8 10 0 16 4 14 8 -3 4 -9 8 -14 8 -5 0
-11 -4 -14 -8z"/>
<path d="M4240 14309 c0 -5 5 -7 10 -4 6 3 10 8 10 11 0 2 -4 4 -10 4 -5 0
-10 -5 -10 -11z"/>
<path d="M4310 14306 c0 -2 7 -7 16 -10 8 -3 12 -2 9 4 -6 10 -25 14 -25 6z"/>
<path d="M4379 14273 c-13 -16 -12 -17 4 -4 9 7 17 15 17 17 0 8 -8 3 -21 -13z"/>
<path d="M3220 14275 c0 -2 10 -10 23 -16 20 -11 21 -11 8 4 -13 16 -31 23
-31 12z"/>
<path d="M8101 14244 c0 -11 3 -14 6 -6 3 7 2 16 -1 19 -3 4 -6 -2 -5 -13z"/>
<path d="M3210 14240 c0 -5 7 -10 15 -10 8 0 15 5 15 10 0 6 -7 10 -15 10 -8
0 -15 -4 -15 -10z"/>
<path d="M5315 14130 c-3 -5 -1 -10 4 -10 6 0 11 5 11 10 0 6 -2 10 -4 10 -3
0 -8 -4 -11 -10z"/>
<path d="M2640 14120 c-8 -5 -11 -12 -7 -16 4 -4 13 -2 19 4 15 15 7 24 -12
12z"/>
<path d="M6518 14123 c7 -3 16 -2 19 1 4 3 -2 6 -13 5 -11 0 -14 -3 -6 -6z"/>
<path d="M5447 14096 c-4 -10 -1 -13 9 -9 15 6 19 23 5 23 -5 0 -11 -7 -14
-14z"/>
<path d="M6340 14095 c0 -10 29 -24 34 -17 3 6 -3 12 -14 15 -11 3 -20 4 -20
2z"/>
<path d="M5546 14075 c-3 -8 -1 -15 4 -15 6 0 10 7 10 15 0 8 -2 15 -4 15 -2
0 -6 -7 -10 -15z"/>
<path d="M5505 14050 c3 -5 8 -10 11 -10 2 0 4 5 4 10 0 6 -5 10 -11 10 -5 0
-7 -4 -4 -10z"/>
<path d="M6343 14050 c-30 -12 -29 -18 2 -12 14 2 25 8 25 13 0 5 -1 9 -2 8
-2 0 -13 -4 -25 -9z"/>
<path d="M5565 14020 c-3 -5 1 -10 10 -10 9 0 13 5 10 10 -3 6 -8 10 -10 10
-2 0 -7 -4 -10 -10z"/>
<path d="M5495 13980 c-3 -5 -1 -10 4 -10 6 0 11 5 11 10 0 6 -2 10 -4 10 -3
0 -8 -4 -11 -10z"/>
<path d="M5410 13954 c-12 -32 -12 -34 0 -34 6 0 10 7 10 15 0 7 7 18 16 23
15 8 15 10 0 15 -12 5 -20 -1 -26 -19z"/>
<path d="M5375 13885 l-30 -24 32 11 c18 7 35 18 37 25 8 20 -6 16 -39 -12z"/>
<path d="M6383 13903 c-15 -5 -17 -23 -4 -23 5 0 11 7 15 15 3 8 4 15 3 14 -1
0 -8 -3 -14 -6z"/>
<path d="M6370 13849 c0 -5 5 -7 10 -4 6 3 10 8 10 11 0 2 -4 4 -10 4 -5 0
-10 -5 -10 -11z"/>
<path d="M5317 13843 c-4 -3 -7 -11 -7 -17 0 -6 5 -5 12 2 6 6 9 14 7 17 -3 3
-9 2 -12 -2z"/>
<path d="M5352 13813 c-6 -2 -9 -9 -6 -15 4 -6 10 -5 15 3 7 11 9 10 9 -5 0
-15 3 -16 15 -6 8 6 20 9 27 5 7 -4 4 1 -6 9 -20 16 -31 18 -54 9z"/>
<path d="M5350 13739 c0 -5 5 -7 10 -4 6 3 10 8 10 11 0 2 -4 4 -10 4 -5 0
-10 -5 -10 -11z"/>
<path d="M5298 13700 c-3 -16 -1 -30 3 -30 12 0 27 33 22 48 -8 22 -21 13 -25
-18z"/>
<path d="M5344 13698 c-9 -14 -2 -16 26 -8 25 6 25 6 3 12 -13 3 -26 2 -29 -4z"/>
<path d="M5350 13649 c0 -11 4 -18 10 -14 5 3 7 12 3 20 -7 21 -13 19 -13 -6z"/>
<path d="M5315 13650 c-3 -5 -2 -10 4 -10 5 0 13 5 16 10 3 6 2 10 -4 10 -5 0
-13 -4 -16 -10z"/>
<path d="M5280 13639 c0 -5 5 -7 10 -4 6 3 10 8 10 11 0 2 -4 4 -10 4 -5 0
-10 -5 -10 -11z"/>
<path d="M5207 13633 c-4 -3 -7 -11 -7 -17 0 -6 5 -5 12 2 6 6 9 14 7 17 -3 3
-9 2 -12 -2z"/>
<path d="M5373 13610 c-3 -11 -10 -20 -15 -20 -6 0 -8 7 -4 15 3 8 1 15 -4 15
-18 0 -10 -29 11 -41 15 -8 19 -8 15 0 -4 6 -3 11 1 11 5 0 14 9 21 20 10 17
10 20 -4 20 -9 0 -18 -9 -21 -20z"/>
<path d="M5340 13555 c0 -12 -5 -26 -12 -33 -9 -9 -9 -12 0 -12 17 0 32 34 21
51 -7 11 -9 10 -9 -6z"/>
<path d="M5289 13543 c-13 -15 -12 -15 7 -5 12 6 25 8 29 4 5 -4 5 -1 1 6 -10
16 -21 15 -37 -5z"/>
<path d="M5301 13504 c0 -11 3 -14 6 -6 3 7 2 16 -1 19 -3 4 -6 -2 -5 -13z"/>
<path d="M5308 13450 c-10 -11 -13 -22 -8 -25 6 -4 10 -1 10 5 0 6 5 8 10 5 6
-3 10 3 10 14 0 25 0 25 -22 1z"/>
<path d="M5323 13414 c4 -4 1 -14 -6 -22 -10 -13 -9 -14 11 -3 27 14 27 17 5
25 -10 4 -14 4 -10 0z"/>
<path d="M5205 13360 c-3 -5 -1 -10 4 -10 6 0 11 5 11 10 0 6 -2 10 -4 10 -3
0 -8 -4 -11 -10z"/>
<path d="M5245 13340 c-3 -5 -1 -10 4 -10 6 0 11 5 11 10 0 6 -2 10 -4 10 -3
0 -8 -4 -11 -10z"/>
<path d="M5215 13322 c-5 -4 -11 -18 -12 -32 -1 -14 0 -18 4 -10 3 8 10 23 15
33 10 19 8 21 -7 9z"/>
<path d="M5234 13259 c-3 -6 -2 -15 3 -20 5 -5 9 -1 10 11 2 22 -2 25 -13 9z"/>
<path d="M5310 13160 c0 -5 5 -10 10 -10 6 0 10 5 10 10 0 6 -4 10 -10 10 -5
0 -10 -4 -10 -10z"/>
<path d="M5350 13139 c0 -5 9 -9 19 -9 11 0 22 4 25 9 3 5 -6 9 -19 9 -14 0
-25 -4 -25 -9z"/>
<path d="M4727 12873 c-1 0 -157 -4 -347 -8 -190 -4 -361 -8 -380 -9 -94 -6
-260 -18 -300 -21 -25 -2 -74 -6 -110 -9 -164 -15 -385 -38 -389 -41 -10 -10
47 -21 127 -26 48 -2 186 -3 307 -1 121 1 1008 3 1970 5 963 2 1761 4 1775 6
55 6 -35 21 -185 31 -82 5 -181 14 -220 19 -38 5 -120 12 -182 16 -61 3 -119
7 -130 9 -10 2 -115 7 -233 11 -118 4 -242 9 -275 12 -52 4 -1424 11 -1428 6z"/>
<path d="M4620 12753 c-533 -9 -1247 -36 -1115 -42 32 -1 37 -4 23 -12 -17 -9
-18 -36 -18 -325 0 -208 3 -313 10 -309 6 3 8 16 5 28 -2 12 -1 47 4 77 6 39
9 -11 10 -179 0 -129 3 -237 6 -239 3 -3 4 163 3 369 -1 227 -4 323 -8 244 -7
-174 -17 -106 -20 133 -1 167 0 185 17 198 17 13 123 21 110 8 -3 -3 7 -17 24
-31 16 -14 35 -35 42 -47 9 -15 14 -147 18 -491 5 -444 9 -515 30 -515 5 0 5
8 2 18 -7 16 -6 16 11 0 9 -10 15 -22 12 -27 -8 -12 85 -47 194 -73 80 -19
112 -20 580 -18 272 1 870 3 1328 4 660 1 828 4 805 13 l-28 12 41 1 c100 1
185 48 217 119 19 43 20 73 26 497 l6 450 28 42 c25 39 31 42 75 43 31 1 10 6
-61 14 -60 7 -114 16 -122 19 -27 10 -1857 26 -2255 19z m-716 -1049 c3 -8 2
-12 -4 -9 -6 3 -10 10 -10 16 0 14 7 11 14 -7z m391 -24 c-19 -21 -9 -31 20
-19 11 4 14 8 7 8 -10 1 -10 4 0 15 11 13 16 12 31 -7 10 -12 17 -17 16 -12
-1 6 -1 19 0 30 2 18 3 18 12 -3 5 -13 6 -29 3 -34 -4 -6 -1 -8 7 -6 8 3 13
11 11 18 -1 6 3 10 10 7 7 -2 12 -12 12 -21 -1 -9 3 -17 10 -17 6 -1 20 -3 31
-5 80 -15 171 -19 177 -10 6 8 8 8 8 0 0 -17 43 -26 52 -11 6 8 10 9 16 1 4
-5 23 -11 42 -13 19 -1 51 -5 70 -10 58 -13 -469 -23 -615 -11 -136 10 -192
21 -237 48 -34 20 -35 27 -6 29 11 1 24 7 28 14 4 6 13 8 19 5 6 -4 9 -12 6
-17 -10 -16 5 -10 27 11 12 10 25 17 31 13 5 -3 3 -9 -4 -14 -9 -6 -10 -9 -2
-9 6 0 19 7 27 16 15 14 16 14 17 -3 1 -17 1 -17 6 0 5 18 5 18 25 0 15 -13
22 -14 25 -6 3 9 9 10 23 1 14 -9 22 -9 36 3 9 8 26 12 38 11 17 -3 18 -2 7
11 -10 13 -9 15 9 10 19 -5 20 -7 5 -23z m628 -97 c-7 -2 -19 -2 -25 0 -7 3
-2 5 12 5 14 0 19 -2 13 -5z"/>
<path d="M4255 11650 c3 -5 8 -10 11 -10 2 0 4 5 4 10 0 6 -5 10 -11 10 -5 0
-7 -4 -4 -10z"/>
<path d="M7153 12733 c20 -2 54 -2 75 0 20 2 3 4 -38 4 -41 0 -58 -2 -37 -4z"/>
<path d="M7128 12682 c-8 -29 -10 -967 -3 -960 4 4 9 220 11 480 3 260 7 479
9 486 2 6 1 12 -4 12 -5 0 -11 -8 -13 -18z"/>
<path d="M3535 12540 c3 -5 8 -10 11 -10 2 0 4 5 4 10 0 6 -5 10 -11 10 -5 0
-7 -4 -4 -10z"/>
<path d="M3512 12005 c0 -16 2 -22 5 -12 2 9 2 23 0 30 -3 6 -5 -1 -5 -18z"/>
<path d="M3512 11750 c0 -19 2 -27 5 -17 2 9 2 25 0 35 -3 9 -5 1 -5 -18z"/>
<path d="M6920 11520 c-30 -5 -85 -15 -123 -24 -80 -19 -270 -32 -642 -46
-148 -5 -281 -12 -295 -14 -31 -5 582 4 630 9 120 13 218 16 224 6 4 -6 43 -8
109 -5 64 3 96 1 87 -4 -8 -5 -67 -13 -130 -16 -63 -4 -116 -11 -118 -17 -2
-5 -15 -9 -28 -9 -14 0 -22 4 -19 10 4 6 -5 10 -20 10 -15 0 -24 -4 -20 -10 3
-5 1 -10 -4 -10 -6 0 -11 5 -11 10 0 6 -10 10 -22 10 -19 0 -20 -2 -8 -10 11
-7 1 -10 -35 -10 -27 0 -60 -3 -72 -6 -14 -4 -23 -2 -23 4 0 6 25 12 58 14 31
2 -382 3 -918 3 -536 0 -994 4 -1017 8 -36 6 -41 5 -37 -8 7 -18 15 -18 -409
-4 -356 12 -477 25 -262 30 107 2 118 3 63 8 -36 3 -70 9 -74 14 -4 4 -1 7 7
7 11 0 12 2 1 9 -9 5 17 10 67 13 135 8 113 23 -37 26 -223 4 -329 -11 -259
-37 22 -9 22 -9 -5 -16 -16 -4 -35 -5 -43 -1 -9 3 -15 0 -15 -9 0 -7 -6 -15
-14 -17 -12 -2 -11 -9 2 -38 15 -31 22 -35 71 -43 30 -4 57 -10 60 -14 6 -5
-34 -2 -149 13 -103 14 30 -36 145 -54 28 -4 65 -8 83 -7 17 0 32 -2 32 -5 0
-3 24 -4 52 -3 105 4 229 3 238 -2 6 -4 178 -6 280 -2 14 0 165 -4 335 -9 405
-12 1772 -8 1895 5 52 6 140 13 195 16 98 6 122 8 215 21 33 4 41 3 30 -5 -20
-14 -11 -13 90 9 47 10 76 19 65 20 -15 1 -9 7 20 21 l40 19 -50 -4 c-27 -2
-41 -1 -30 1 29 7 43 23 20 23 -15 1 -12 4 10 14 l30 13 -55 8 c-75 10 -95 22
-52 31 33 7 45 24 15 24 -9 0 -13 3 -10 7 10 10 -51 33 -82 32 -14 -1 -51 -5
-81 -9z m-40 -50 c0 -6 -26 -9 -62 -8 l-63 1 55 7 c30 4 58 7 63 8 4 1 7 -2 7
-8z m148 -57 c-10 -2 -26 -2 -35 0 -10 3 -2 5 17 5 19 0 27 -2 18 -5z m-2243
-44 c460 -9 789 -9 1274 0 360 6 656 9 658 7 15 -14 -378 -21 -1227 -21 -950
0 -1771 13 -1680 26 25 4 115 5 200 3 85 -2 434 -9 775 -15z m-1100 -29 c3 -5
1 -10 -4 -10 -6 0 -11 5 -11 10 0 6 2 10 4 10 3 0 8 -4 11 -10z m448 3 c-7 -2
-21 -2 -30 0 -10 3 -4 5 12 5 17 0 24 -2 18 -5z m70 0 c-7 -2 -19 -2 -25 0 -7
3 -2 5 12 5 14 0 19 -2 13 -5z m2652 -12 l50 -8 -65 -3 c-36 -2 -96 -4 -135
-6 -38 -1 -110 -4 -160 -7 -53 -4 -79 -2 -64 2 25 8 130 17 254 22 l50 3 -65
6 -65 7 75 -3 c41 -2 98 -8 125 -13z m-2874 -7 c59 -3 112 -10 119 -14 6 -4
-10 -6 -37 -4 -26 2 -106 6 -178 8 -71 3 -143 10 -160 15 -31 11 -1 10 256 -5z
m2457 -21 c-10 -2 -26 -2 -35 0 -10 3 -2 5 17 5 19 0 27 -2 18 -5z"/>
<path d="M4073 11433 c31 -2 83 -2 115 0 31 2 5 3 -58 3 -63 0 -89 -1 -57 -3z"/>
<path d="M5648 11433 c7 -3 16 -2 19 1 4 3 -2 6 -13 5 -11 0 -14 -3 -6 -6z"/>
<path d="M5698 11433 c12 -2 32 -2 45 0 12 2 2 4 -23 4 -25 0 -35 -2 -22 -4z"/>
<path d="M5793 11433 c9 -2 23 -2 30 0 6 3 -1 5 -18 5 -16 0 -22 -2 -12 -5z"/>
<path d="M4393 11423 c15 -2 39 -2 55 0 15 2 2 4 -28 4 -30 0 -43 -2 -27 -4z"/>
<path d="M3525 11290 c3 -5 16 -10 28 -9 21 0 21 1 2 9 -28 12 -37 12 -30 0z"/>
<path d="M6748 11253 c7 -3 16 -2 19 1 4 3 -2 6 -13 5 -11 0 -14 -3 -6 -6z"/>
<path d="M6693 11243 c9 -2 23 -2 30 0 6 3 -1 5 -18 5 -16 0 -22 -2 -12 -5z"/>
<path d="M4928 11233 c7 -3 16 -2 19 1 4 3 -2 6 -13 5 -11 0 -14 -3 -6 -6z"/>
<path d="M4968 11233 c7 -3 16 -2 19 1 4 3 -2 6 -13 5 -11 0 -14 -3 -6 -6z"/>
<path d="M5097 11233 c18 -2 50 -2 70 0 21 2 7 4 -32 4 -38 0 -55 -2 -38 -4z"/>
<path d="M5218 11233 c7 -3 16 -2 19 1 4 3 -2 6 -13 5 -11 0 -14 -3 -6 -6z"/>
<path d="M3465 10094 c-75 -39 -100 -89 -93 -189 3 -46 11 -73 30 -103 15 -21
23 -43 19 -48 -4 -5 -13 -27 -20 -49 -8 -22 -22 -64 -33 -92 l-19 -53 -59 0
-59 0 -19 43 c-29 64 -65 92 -117 92 -83 0 -145 -79 -145 -186 0 -71 19 -117
65 -158 30 -26 44 -31 84 -31 43 0 53 4 75 31 14 17 29 43 32 57 3 15 7 33 10
40 2 8 25 12 67 12 l63 0 42 -134 c23 -74 42 -139 42 -145 0 -6 -12 -29 -26
-50 -53 -80 -41 -206 25 -272 68 -69 155 -59 226 24 55 64 56 175 3 250 -28
39 -91 69 -140 66 -27 -2 -42 1 -48 11 -12 23 -80 271 -80 294 0 12 14 67 31
123 l32 102 51 -2 c111 -4 186 80 186 209 0 120 -127 209 -225 158z m40 -14
c-3 -5 -14 -10 -23 -10 -15 0 -15 -2 -2 -11 12 -9 12 -10 1 -7 -22 6 -24 26
-4 31 30 8 34 7 28 -3z m52 4 c-3 -3 -12 -4 -19 -1 -8 3 -5 6 6 6 11 1 17 -2
13 -5z m85 -50 c9 -11 19 -32 23 -49 5 -24 2 -22 -14 13 -12 24 -30 46 -45 51
-13 6 -27 15 -31 21 -11 17 47 -14 67 -36z m-92 32 c0 -2 -7 -6 -15 -10 -8 -3
-15 -1 -15 4 0 6 7 10 15 10 8 0 15 -2 15 -4z m-114 -22 c-1 -8 -9 -20 -17
-25 -13 -8 -6 -13 14 -10 5 1 6 -3 2 -8 -3 -6 -11 -8 -19 -5 -7 3 -13 -1 -14
-8 -1 -7 -6 -31 -11 -53 -10 -39 -10 -39 -6 13 2 32 12 64 25 82 24 34 29 37
26 14z m44 -25 c0 -5 -4 -9 -8 -9 -5 0 -9 7 -9 15 0 8 4 12 9 9 4 -3 8 -9 8
-15z m200 -83 c0 -3 -4 -8 -10 -11 -5 -3 -10 -1 -10 4 0 6 5 11 10 11 6 0 10
-2 10 -4z m-255 -26 c-4 -6 -2 -17 4 -24 9 -10 8 -15 -2 -19 -9 -3 -12 3 -11
22 2 30 2 31 10 31 3 0 2 -5 -1 -10z m241 -45 c-4 -19 -11 -35 -16 -35 -6 0
-10 -6 -10 -14 0 -21 -26 -40 -36 -25 -4 8 -3 9 4 5 12 -7 52 70 52 100 0 10
3 15 6 11 4 -3 3 -22 0 -42z m-251 -15 c9 0 12 -6 8 -15 -3 -9 3 -26 13 -38
17 -20 18 -20 1 -8 -23 18 -47 65 -46 88 1 13 3 11 6 -4 2 -13 11 -23 18 -23z
m142 -66 c-4 -23 -2 -25 22 -20 l26 6 -25 -15 c-14 -8 -43 -14 -65 -13 -26 0
-31 2 -16 5 26 5 52 26 50 40 -2 13 1 23 7 23 4 0 4 -12 1 -26z m-147 -139
c-18 -53 -31 -112 -31 -147 -1 -32 -5 -55 -9 -53 -18 11 -1 124 30 208 18 48
34 86 36 84 2 -2 -10 -43 -26 -92z m-253 10 c15 -13 23 -25 17 -25 -7 0 -15 7
-18 16 -4 9 -13 14 -22 10 -8 -3 -12 -2 -9 4 4 6 -7 10 -25 10 -29 0 -85 -30
-102 -55 -5 -7 -8 -7 -8 1 0 12 38 49 60 57 37 13 80 6 107 -18z m-6 -58 c-10
-9 -11 -8 -5 6 3 10 9 15 12 12 3 -3 0 -11 -7 -18z m43 7 c4 -9 4 -19 1 -22
-3 -3 -5 0 -5 7 0 7 -4 10 -8 7 -5 -3 -9 1 -9 9 0 20 13 19 21 -1z m-169 -34
c-3 -5 -12 -10 -18 -10 -7 0 -6 4 3 10 19 12 23 12 15 0z m262 -45 c-10 -10
-13 -10 -19 4 -5 11 -7 7 -8 -14 -1 -16 -4 -24 -7 -17 -2 6 -9 10 -13 7 -5 -3
-12 0 -16 6 -4 8 -3 9 4 5 6 -3 16 2 21 13 7 12 18 17 30 14 16 -4 17 -8 8
-18z m48 15 c3 -5 -1 -10 -9 -10 -9 0 -16 5 -16 10 0 6 4 10 9 10 6 0 13 -4
16 -10z m-345 -10 c-9 -6 -14 -23 -13 -47 l2 -38 -10 39 c-9 39 -2 56 26 56 6
0 3 -5 -5 -10z m55 -10 c3 -6 -1 -7 -9 -4 -18 7 -21 14 -7 14 6 0 13 -4 16
-10z m45 -4 c0 -2 -7 -7 -16 -10 -8 -3 -12 -2 -9 4 6 10 25 14 25 6z m233 -21
c-7 -21 -13 -19 -13 6 0 11 4 18 10 14 5 -3 7 -12 3 -20z m-26 -21 c-3 -3 -12
-4 -19 -1 -8 3 -5 6 6 6 11 1 17 -2 13 -5z m-102 -41 c-5 -15 -9 -34 -11 -41
-5 -24 -36 -52 -58 -52 -17 0 -18 2 -6 9 8 6 18 7 22 5 9 -6 48 79 48 103 0 9
3 14 6 10 4 -3 3 -19 -1 -34z m-191 -14 c-8 -14 -24 -10 -24 6 0 9 6 12 15 9
8 -4 12 -10 9 -15z m156 -5 c-6 -6 -6 -14 -2 -18 4 -4 0 -6 -8 -4 -17 3 -31
19 -25 28 2 3 13 6 24 6 14 0 17 -4 11 -12z m247 -56 c12 -40 25 -82 28 -93 6
-20 6 -20 -6 0 -17 27 -59 165 -50 165 4 0 17 -33 28 -72z m-347 52 c0 -5 -4
-10 -10 -10 -5 0 -10 5 -10 10 0 6 5 10 10 10 6 0 10 -4 10 -10z m-50 -19 c0
-5 19 -18 43 -30 31 -16 36 -21 20 -21 -23 0 -98 59 -75 60 6 0 12 -4 12 -9z
m499 -208 c17 3 31 1 31 -4 0 -4 6 -6 14 -3 8 3 22 2 31 -3 10 -6 -10 -9 -57
-7 -61 2 -74 5 -77 20 -3 16 -1 16 12 5 9 -7 29 -10 46 -8z m157 -100 c8 -18
14 -57 14 -86 0 -44 -6 -62 -30 -95 -33 -46 -37 -49 -37 -27 0 8 5 15 12 15
19 0 45 75 44 123 -1 26 -6 44 -10 41 -5 -3 -6 2 -3 11 4 9 -6 31 -22 53 -24
32 -24 34 -4 17 12 -11 29 -34 36 -52z m-263 -49 c-3 -37 -2 -76 1 -88 8 -28
63 -89 75 -82 5 3 11 -1 15 -9 7 -20 0 -19 -39 5 -42 26 -64 73 -66 141 -2 47
6 99 15 99 2 0 1 -30 -1 -66z m184 4 c-3 -8 -6 -5 -6 6 -1 11 2 17 5 13 3 -3
4 -12 1 -19z m-170 -50 c-3 -8 -6 -5 -6 6 -1 11 2 17 5 13 3 -3 4 -12 1 -19z
m33 12 c0 -5 -5 -10 -11 -10 -5 0 -7 5 -4 10 3 6 8 10 11 10 2 0 4 -4 4 -10z
m-17 -71 c-9 -9 -12 -7 -10 9 1 14 5 18 11 12 7 -7 6 -14 -1 -21z m207 -3 c0
-2 -9 -6 -20 -9 -11 -3 -18 -1 -14 4 5 9 34 13 34 5z m-55 -74 c-3 -3 -11 0
-18 7 -9 10 -8 11 6 5 10 -3 15 -9 12 -12z m-34 -2 c18 0 8 -16 -11 -17 -11
-1 -18 2 -15 7 3 4 2 10 -2 13 -5 2 -2 2 5 0 8 -1 18 -3 23 -3z"/>
<path d="M6623 9800 c-69 -28 -42 -140 34 -140 33 0 63 34 63 73 0 38 -7 50
-37 66 -25 13 -30 13 -60 1z"/>
<path d="M4162 9521 c6 -300 5 -313 -44 -340 -22 -13 -35 -13 -68 -4 l-41 11
-24 -50 -23 -49 23 -15 c28 -19 128 -29 179 -20 48 9 100 62 114 117 7 27 13
156 14 337 l3 292 -69 0 -69 0 5 -279z m115 172 c-3 -10 -5 -4 -5 12 0 17 2
24 5 18 2 -7 2 -21 0 -30z m0 -145 c-2 -24 -4 -5 -4 42 0 47 2 66 4 43 2 -24
2 -62 0 -85z m0 -150 c-2 -18 -4 -6 -4 27 0 33 2 48 4 33 2 -15 2 -42 0 -60z
m0 -125 c-2 -16 -4 -3 -4 27 0 30 2 43 4 28 2 -16 2 -40 0 -55z m-15 -85 c-8
-8 -9 -4 -5 13 4 13 8 18 11 10 2 -7 -1 -18 -6 -23z m-251 -52 c-14 -36 -22
-33 -9 5 6 16 12 28 14 26 3 -2 0 -16 -5 -31z m39 -56 c8 -5 11 -10 5 -10 -5
0 -17 5 -25 10 -8 5 -10 10 -5 10 6 0 17 -5 25 -10z"/>
<path d="M4390 9431 l0 -371 70 0 70 0 0 130 0 130 115 0 c138 0 209 22 266
80 55 57 73 155 47 243 -17 56 -82 122 -133 135 -22 6 -129 13 -237 17 l-198
7 0 -371z m83 342 c-7 -2 -21 -2 -30 0 -10 3 -4 5 12 5 17 0 24 -2 18 -5z
m110 0 c-13 -2 -33 -2 -45 0 -13 2 -3 4 22 4 25 0 35 -2 23 -4z m177 -91 c41
-20 70 -71 70 -122 0 -51 -29 -102 -70 -122 -26 -14 -60 -18 -132 -18 l-98 0
0 140 0 140 98 0 c70 -1 107 -6 132 -18z m-97 -289 c-7 -2 -19 -2 -25 0 -7 3
-2 5 12 5 14 0 19 -2 13 -5z"/>
<path d="M6279 9663 c-2 -93 0 -88 -46 -87 l-43 1 0 -48 0 -48 43 -3 42 -3 3
-179 c3 -207 10 -229 71 -247 41 -12 166 -4 176 11 3 5 0 29 -7 53 -11 44 -12
45 -50 40 -65 -9 -68 -1 -68 173 l0 154 60 0 60 0 0 45 0 45 -60 0 -60 0 0 75
0 75 -60 0 -60 0 -1 -57z"/>
<path d="M7364 9580 c-63 -32 -88 -73 -92 -152 -4 -65 -3 -69 27 -97 17 -16
61 -39 96 -51 81 -27 97 -42 93 -89 -2 -28 -9 -39 -32 -50 -26 -12 -33 -12
-55 0 -14 8 -30 25 -36 37 -8 18 -18 22 -57 22 -42 0 -48 -3 -48 -20 0 -29 23
-70 54 -100 34 -31 136 -41 183 -16 38 19 83 105 83 156 0 85 -31 120 -137
155 -60 19 -82 43 -75 81 11 59 95 68 116 13 9 -25 16 -29 49 -29 38 0 39 0
32 33 -24 107 -110 154 -201 107z"/>
<path d="M6954 9583 c-33 -6 -102 -70 -126 -117 -17 -32 -23 -63 -26 -146 -4
-100 -2 -108 25 -160 86 -163 299 -159 368 7 27 64 22 75 -32 71 -41 -3 -48
-6 -51 -25 -5 -32 -58 -73 -93 -73 -41 0 -83 23 -97 55 -18 40 -15 190 4 231
18 38 58 64 99 64 29 0 85 -49 85 -74 0 -13 11 -16 51 -16 l52 0 -7 32 c-23
116 -124 176 -252 151z"/>
<path d="M5167 9565 c-59 -22 -91 -49 -121 -106 -75 -137 -25 -318 106 -384
43 -21 161 -30 214 -16 60 16 154 105 154 146 0 3 -27 5 -59 5 -43 0 -60 -4
-65 -15 -9 -25 -69 -55 -110 -55 -74 0 -146 64 -146 129 0 21 4 21 191 21
l192 0 -5 65 c-12 144 -100 226 -242 224 -39 0 -88 -7 -109 -14z m156 -79 c43
-18 67 -46 74 -90 l6 -36 -132 0 c-119 0 -131 2 -131 18 0 32 36 85 71 104 40
22 69 23 112 4z"/>
<path d="M5814 9561 c-23 -10 -45 -24 -48 -30 -14 -22 -33 -12 -28 14 4 25 3
25 -62 25 l-66 0 0 -334 0 -334 23 -6 c12 -3 41 -6 65 -6 l42 0 0 110 c0 61 2
110 4 110 3 0 27 -14 54 -31 136 -84 298 -24 342 127 20 66 9 189 -22 256 -38
82 -87 112 -187 116 -58 2 -86 -2 -117 -17z m151 -95 c37 -24 58 -73 62 -146
5 -73 -13 -120 -58 -153 -35 -25 -107 -26 -150 -1 -63 36 -97 145 -68 221 12
33 56 81 84 94 28 13 100 4 130 -15z"/>
<path d="M6653 9572 l-53 -3 0 -260 0 -259 60 0 61 0 -1 260 c-1 143 -4 261
-8 262 -4 2 -31 2 -59 0z"/>
<path d="M4670 8772 c0 -6 7 -13 16 -16 10 -4 14 -15 12 -33 -3 -24 -7 -28
-30 -25 -32 4 -78 -36 -78 -67 0 -22 20 -70 29 -72 3 -1 34 -3 69 -5 49 -2 61
0 53 10 -6 7 -12 57 -13 112 l-3 99 -27 3 c-16 2 -28 -1 -28 -6z m11 -92 c13
-7 19 -21 19 -45 0 -48 -9 -65 -36 -65 -41 0 -60 72 -28 104 18 19 20 19 45 6z"/>
<path d="M5840 8770 c0 -5 5 -10 10 -10 6 0 10 -15 10 -33 0 -32 -2 -33 -30
-29 -53 8 -91 -48 -70 -102 12 -33 51 -52 76 -38 12 7 23 6 36 -1 13 -9 21 -8
30 1 9 9 9 12 0 12 -9 0 -12 30 -12 105 l0 105 -25 0 c-14 0 -25 -4 -25 -10z
m8 -89 c9 -5 12 -24 10 -57 -2 -39 -7 -50 -22 -52 -25 -5 -46 23 -46 63 0 46
26 67 58 46z"/>
<path d="M3921 8743 l0 -28 16 23 c9 12 26 22 39 22 24 0 24 -2 24 -94 0 -82
-2 -95 -17 -99 -10 -3 5 -5 32 -5 28 0 42 2 33 5 -16 4 -18 17 -18 99 0 92 0
94 24 94 13 0 31 -10 40 -22 l16 -23 -2 25 c-3 24 -5 25 -95 28 l-93 3 1 -28z"/>
<path d="M4870 8743 l0 -27 20 22 c12 12 30 22 40 22 18 0 20 -7 20 -91 0 -76
-3 -94 -17 -105 -16 -12 -11 -13 37 -13 48 0 53 1 38 13 -15 11 -18 29 -18
105 0 84 1 91 20 91 11 0 25 -9 32 -20 17 -27 30 -25 26 3 -3 21 -8 22 -100
25 l-98 3 0 -28z"/>
<path d="M6061 8743 l0 -28 16 23 c9 12 26 22 39 22 24 0 24 -2 24 -95 0 -91
-1 -95 -22 -95 -12 0 -18 -3 -14 -7 9 -9 96 -10 96 -2 0 4 -6 9 -13 12 -10 4
-13 29 -13 94 1 84 2 88 24 91 17 3 25 -2 29 -17 7 -29 23 -26 23 4 0 25 0 25
-95 25 l-95 0 1 -27z"/>
<path d="M7449 8740 c-3 -20 -4 -25 -12 -37 -4 -6 -3 -14 2 -17 5 -3 7 -25 4
-48 -6 -52 14 -86 43 -73 17 7 18 8 2 12 -14 4 -18 15 -18 58 0 43 4 54 18 58
16 4 16 5 0 6 -12 1 -18 9 -18 26 0 24 -19 37 -21 15z"/>
<path d="M4366 8733 c-3 -3 -6 -15 -6 -25 0 -10 -6 -18 -12 -18 -10 0 -10 -2
-1 -8 6 -4 13 -32 15 -61 3 -59 21 -80 54 -66 18 8 17 9 -3 12 -14 3 -23 12
-24 24 -4 80 -3 83 22 90 23 7 23 7 2 8 -16 1 -23 7 -23 20 0 21 -13 34 -24
24z"/>
<path d="M5520 8722 c0 -10 -5 -23 -12 -30 -9 -9 -9 -12 0 -12 8 0 12 -20 12
-60 0 -56 2 -60 26 -66 14 -4 30 -2 37 5 8 8 5 11 -11 11 -20 0 -22 5 -22 54
0 49 2 55 23 59 l22 4 -22 2 c-17 1 -23 7 -23 26 0 16 -6 25 -15 25 -8 0 -15
-8 -15 -18z"/>
<path d="M7146 8703 c-4 -4 -23 -6 -44 -5 -30 2 -34 0 -24 -10 16 -16 16 -115
0 -121 -7 -3 7 -6 31 -6 39 -1 43 1 27 12 -13 10 -17 24 -14 57 3 40 6 45 26
43 13 -2 22 3 22 12 0 16 -14 27 -24 18z"/>
<path d="M7200 8690 c-41 -41 -17 -130 36 -130 24 0 51 17 41 26 -3 4 -14 1
-23 -7 -14 -11 -19 -10 -35 10 -24 29 -17 41 27 41 29 0 34 3 34 24 0 27 -24
56 -46 56 -8 0 -23 -9 -34 -20z m58 -23 c3 -13 -3 -17 -28 -17 -28 0 -30 2
-20 21 13 24 43 22 48 -4z"/>
<path d="M7325 8701 c-26 -4 -35 -9 -27 -14 16 -10 16 -99 0 -115 -9 -9 -5
-12 20 -12 29 0 32 2 22 19 -14 28 -13 74 4 96 12 16 16 17 30 6 19 -16 22
-91 4 -109 -9 -9 -6 -12 16 -12 22 0 27 4 22 16 -3 9 -6 35 -6 59 0 40 -20 77
-38 74 -4 -1 -25 -5 -47 -8z"/>
<path d="M4107 8682 c-20 -22 -23 -95 -4 -110 23 -20 61 -23 82 -8 19 15 18
15 -14 9 -26 -5 -37 -2 -48 12 -24 34 -16 45 32 45 38 0 45 3 45 19 0 46 -62
67 -93 33z m62 -11 c12 -22 5 -31 -24 -31 -12 0 -25 3 -28 6 -10 10 12 44 28
44 8 0 19 -8 24 -19z"/>
<path d="M4242 8688 c-24 -24 -14 -57 23 -72 36 -16 46 -42 19 -53 -8 -3 -25
4 -40 17 -24 23 -24 23 -24 3 0 -16 8 -23 29 -28 40 -9 71 9 71 41 0 19 -8 28
-36 40 -23 10 -34 20 -32 31 4 23 23 27 41 8 19 -19 27 -19 27 -1 0 7 -10 16
-22 20 -33 8 -43 7 -56 -6z"/>
<path d="M4482 8690 c-12 -5 -27 -21 -32 -35 -27 -71 47 -133 105 -89 19 14
17 15 -22 8 -35 -5 -43 -3 -53 15 -16 31 -5 41 46 41 50 0 58 16 24 50 -22 22
-33 23 -68 10z m56 -32 c3 -14 -3 -18 -27 -18 -29 0 -41 17 -24 34 13 13 48 1
51 -16z"/>
<path d="M5156 8693 c-3 -4 -26 -6 -49 -5 -33 2 -38 0 -24 -8 23 -14 23 -86 0
-112 -15 -17 -14 -18 28 -18 39 1 42 2 27 14 -12 9 -18 27 -18 53 0 45 19 70
38 51 15 -15 38 4 28 21 -8 13 -20 14 -30 4z"/>
<path d="M5398 8689 c-36 -20 -13 -67 40 -83 25 -8 30 -34 7 -42 -8 -4 -26 1
-40 10 -31 21 -35 20 -35 -4 0 -17 7 -20 43 -20 46 0 67 13 67 42 0 16 -42 50
-75 61 -6 2 -4 11 4 21 12 15 16 15 36 2 19 -13 24 -13 28 -2 9 23 -45 33 -75
15z"/>
<path d="M5632 8683 c-11 -10 -23 -32 -27 -50 -11 -57 53 -101 106 -73 10 6
19 16 19 22 0 9 -3 9 -12 0 -19 -19 -55 -14 -72 10 -21 29 -12 38 40 38 37 0
44 3 44 19 0 22 -35 51 -61 51 -9 0 -26 -8 -37 -17z m52 1 c9 -3 16 -15 16
-25 0 -14 -7 -19 -30 -19 -31 0 -39 17 -18 38 14 14 12 14 32 6z"/>
<path d="M6250 8689 c0 -5 5 -9 10 -9 14 0 12 -94 -2 -108 -9 -9 -3 -12 28
-11 21 0 33 3 27 6 -14 5 -18 94 -6 106 3 4 13 1 21 -6 15 -11 18 -9 25 18 1
5 -22 10 -50 11 -29 2 -53 -2 -53 -7z"/>
<path d="M6386 8684 c-9 -8 -13 -21 -9 -27 4 -7 12 -3 21 11 18 27 28 28 42 3
8 -17 5 -22 -28 -38 -28 -14 -37 -24 -37 -43 0 -24 3 -25 59 -27 43 -1 55 2
47 10 -6 6 -11 32 -11 57 0 25 -5 51 -12 58 -17 17 -54 15 -72 -4z m52 -81
c-4 -32 -38 -46 -38 -16 0 20 18 43 33 43 4 0 7 -12 5 -27z"/>
<path d="M6500 8689 c0 -5 5 -9 10 -9 15 0 13 -107 -2 -113 -7 -3 5 -6 27 -6
25 0 35 2 27 8 -9 5 -12 25 -10 57 3 45 5 49 28 49 23 0 25 -4 28 -49 2 -32
-1 -52 -10 -57 -9 -6 -3 -9 17 -9 l30 0 -3 57 c-2 32 -8 63 -13 70 -11 13
-129 15 -129 2z"/>
<path d="M6682 8687 c-19 -22 -2 -57 35 -72 20 -8 33 -20 31 -27 -7 -20 -38
-21 -59 -2 -18 16 -19 16 -19 -4 0 -12 6 -22 13 -22 6 0 21 -3 33 -6 25 -7 54
19 54 47 0 12 -13 25 -35 36 -19 9 -36 22 -39 30 -9 22 23 27 46 7 20 -19 20
-19 17 1 -5 24 -60 33 -77 12z"/>
<path d="M6780 8689 c0 -5 5 -9 10 -9 15 0 13 -163 -2 -178 -9 -9 -3 -12 27
-12 36 0 37 1 22 18 -29 32 -22 50 19 49 62 -2 96 67 59 120 -13 19 -25 22
-75 21 -33 0 -60 -5 -60 -9z m112 -34 c17 -38 0 -80 -32 -80 -22 0 -25 5 -28
39 -2 21 -1 44 2 52 9 23 45 16 58 -11z"/>
<path d="M6962 8688 c-16 -16 -15 -28 3 -28 8 0 14 6 13 13 -2 6 6 12 17 12
12 0 21 -8 23 -20 2 -16 -6 -24 -33 -34 -31 -11 -36 -17 -33 -39 3 -25 7 -27
56 -29 28 -1 52 2 52 7 0 6 -4 10 -10 10 -5 0 -10 26 -12 58 -3 55 -4 57 -33
60 -17 2 -36 -3 -43 -10z m58 -83 c0 -14 -2 -25 -4 -25 -2 0 -11 -3 -19 -6
-21 -8 -29 23 -11 41 22 22 34 19 34 -10z"/>
<path d="M5208 8677 c6 -7 12 -37 14 -67 l3 -55 69 -2 c51 -1 66 1 57 10 -6 6
-11 37 -11 69 0 56 -1 58 -26 58 -22 0 -24 -3 -15 -14 7 -8 11 -34 9 -58 -3
-39 -6 -43 -30 -46 -28 -3 -28 -3 -28 57 0 59 -1 61 -26 61 -20 0 -24 -3 -16
-13z"/>
<path d="M7520 8580 c0 -11 5 -20 10 -20 6 0 10 9 10 20 0 11 -4 20 -10 20 -5
0 -10 -9 -10 -20z"/>
<path d="M4777 8584 c-14 -14 -7 -35 11 -32 9 2 17 10 17 17 0 16 -18 25 -28
15z"/>
<path d="M5945 8580 c-8 -13 4 -32 16 -25 12 8 12 35 0 35 -6 0 -13 -4 -16
-10z"/>
<path d="M3129 8046 c-133 -47 -211 -222 -196 -436 16 -218 111 -363 249 -377
81 -8 120 2 171 47 l45 40 6 -40 c6 -40 7 -40 51 -40 l45 0 0 204 0 205 -126
3 c-69 2 -127 1 -129 -2 -1 -3 0 -31 2 -62 l5 -57 67 -3 66 -3 -3 -35 c-9 -86
-75 -136 -170 -128 -50 5 -60 9 -93 46 -20 23 -42 63 -50 89 -20 69 -18 245 4
309 19 56 68 109 110 119 68 17 145 -26 176 -98 l17 -40 63 -2 63 -3 -5 35
c-15 93 -101 199 -184 227 -56 19 -134 20 -184 2z"/>
<path d="M7659 8045 c-3 -3 7 -50 22 -105 43 -153 53 -243 46 -425 -6 -153
-28 -276 -66 -378 l-11 -28 47 3 47 3 18 60 c82 269 84 565 4 805 -21 65 -21
65 -61 68 -23 2 -43 0 -46 -3z"/>
<path d="M6296 7978 c-90 -162 -123 -294 -112 -453 8 -122 28 -199 83 -322
l46 -103 69 0 68 0 -19 38 c-35 69 -79 207 -91 287 -25 160 2 359 70 526 16
40 30 77 30 82 0 4 -25 7 -55 7 l-54 0 -35 -62z"/>
<path d="M3650 7637 l0 -394 98 -6 c133 -9 400 -9 404 1 2 4 2 34 0 67 l-4 61
-171 3 c-95 1 -174 4 -176 6 -2 2 -5 149 -8 327 l-4 323 -70 3 -69 3 0 -394z"/>
<path d="M6793 8022 l-283 -2 0 -70 0 -70 110 0 110 0 0 -325 0 -325 75 0 75
0 0 324 0 324 31 6 c17 3 65 6 105 6 l74 0 0 64 c0 36 -3 66 -7 68 -5 2 -135
2 -290 0z"/>
<path d="M7144 8016 c-3 -8 -4 -39 -2 -68 l5 -53 146 0 c81 0 147 -3 147 -8 0
-4 -46 -83 -102 -175 -241 -397 -218 -353 -218 -421 l0 -61 63 0 c34 0 140 3
235 7 l172 6 0 64 0 64 -155 -3 c-85 -2 -155 0 -155 4 0 5 70 127 155 273 153
262 155 265 155 325 l0 60 -220 0 c-182 0 -222 -2 -226 -14z"/>
<path d="M4270 7625 l0 -395 80 0 80 0 0 133 0 134 123 6 c188 10 270 47 314
144 22 48 25 65 21 137 -5 97 -24 137 -83 178 -67 46 -137 58 -347 58 l-188 0
0 -395z m397 241 c38 -23 53 -54 53 -109 0 -88 -52 -121 -190 -121 l-95 0 -3
128 -3 128 103 -4 c78 -3 111 -8 135 -22z"/>
<path d="M5605 8011 c-45 -12 -107 -46 -131 -73 -31 -33 -62 -100 -70 -148
l-7 -41 79 3 78 3 7 33 c14 68 77 104 143 82 45 -15 67 -41 76 -92 14 -76 -26
-127 -269 -343 l-90 -80 0 -67 -1 -68 265 0 265 0 0 69 0 68 -160 -4 c-88 -2
-160 -2 -160 1 0 3 24 27 52 53 218 199 253 243 264 335 13 113 -30 204 -120
250 -45 23 -166 34 -221 19z"/>
<path d="M4990 7506 l0 -64 158 2 157 1 3 63 3 62 -161 0 -160 0 0 -64z"/>
<path d="M3068 6801 c-56 -45 -59 -81 -56 -582 3 -433 4 -456 23 -488 38 -64
54 -70 225 -81 382 -23 1089 -34 2265 -33 1300 0 2005 15 2068 44 15 7 38 29
50 48 22 36 22 39 25 523 3 531 2 538 -53 574 -25 16 -53 17 -473 5 -859 -23
-3272 -20 -3862 4 -181 7 -186 7 -212 -14z m515 -11 c114 0 156 -3 151 -11 -4
-7 -22 -9 -45 -6 -22 3 -41 2 -44 -3 -6 -9 28 -19 70 -21 l30 -1 -30 -7 c-16
-4 -34 -4 -39 1 -17 14 -34 9 -42 -14 -6 -20 -7 -20 -16 -3 -8 12 -7 20 3 27
11 8 11 9 -2 5 -9 -3 -21 -1 -27 5 -13 13 -32 2 -32 -18 0 -20 -55 -15 -98 8
-41 23 -42 23 -42 -4 0 -19 -2 -20 -10 -8 -8 12 -10 12 -11 -5 l0 -20 -9 20
c-5 11 -9 14 -9 6 -1 -9 -9 -11 -28 -6 -44 11 -48 11 -46 -1 1 -7 -6 -14 -16
-17 -14 -3 -17 1 -14 22 4 25 4 25 -11 7 -8 -10 -13 -23 -10 -27 3 -5 -3 -9
-12 -9 -14 0 -15 3 -6 12 19 19 14 28 -13 26 -20 -2 -24 -7 -19 -23 5 -19 4
-19 -9 -2 -8 9 -25 17 -38 16 l-24 -1 25 -7 c23 -7 22 -8 -12 -12 -27 -4 -38
-1 -38 8 0 7 -7 13 -15 13 -8 0 -15 5 -15 10 0 6 5 10 12 10 6 0 8 3 5 7 -4 3
-16 -2 -27 -12 -18 -16 -19 -20 -5 -27 8 -5 19 -7 24 -4 11 7 36 -42 26 -51
-4 -5 -10 -2 -12 5 -7 17 -33 15 -33 -3 0 -9 7 -18 15 -21 22 -9 18 -24 -5
-24 -13 0 -18 -5 -14 -15 4 -9 0 -15 -10 -15 -23 0 -21 -61 4 -93 11 -14 20
-31 20 -39 -1 -8 -6 -6 -16 7 -12 17 -16 18 -24 5 -6 -9 -5 -17 3 -22 9 -6 9
-10 1 -15 -12 -9 -11 -64 1 -84 5 -8 4 -10 -3 -5 -14 8 -15 -27 -3 -58 7 -19
8 -19 15 0 7 19 8 19 22 0 8 -11 14 -28 14 -37 0 -10 8 -20 18 -22 13 -4 12
-5 -4 -6 -12 0 -24 -8 -28 -16 -3 -8 -10 -15 -16 -15 -7 0 -8 6 0 19 5 11 10
28 10 38 0 14 -3 13 -17 -7 -16 -22 -18 -47 -17 -185 3 -291 3 -288 18 -282 7
3 20 -2 28 -12 12 -14 12 -19 1 -29 -14 -14 -18 -33 -5 -30 4 1 17 -3 29 -10
17 -10 22 -9 27 5 9 21 0 29 -18 14 -11 -9 -16 -9 -21 0 -9 13 11 28 34 24 10
-1 15 -11 14 -27 -1 -15 4 -25 13 -25 9 0 13 7 9 21 -3 12 -2 16 1 9 9 -20 35
-3 29 18 -4 11 -3 19 2 18 15 -2 53 13 53 22 0 14 -28 11 -33 -3 -2 -7 -8 -9
-13 -5 -5 4 -2 12 6 17 14 9 12 11 -20 14 -8 0 -14 10 -13 20 1 11 -3 30 -8
44 -7 18 -6 28 3 33 15 9 19 91 4 101 -6 4 -7 11 -2 15 5 4 11 2 14 -6 3 -8 7
-10 11 -3 4 7 12 8 21 2 13 -8 12 -10 -2 -10 -10 0 -19 -3 -19 -7 -5 -28 -5
-70 0 -78 3 -5 6 -14 6 -20 2 -25 18 -65 26 -65 5 0 5 8 2 18 -6 15 -5 16 12
2 17 -14 18 -12 11 47 -5 41 -3 64 4 68 8 5 11 -2 9 -21 -1 -16 -1 -50 -1 -76
2 -41 5 -48 23 -48 11 0 17 -4 14 -10 -4 -6 -15 -8 -25 -5 -14 5 -18 1 -16
-20 1 -18 5 -24 16 -20 8 4 47 13 87 22 40 9 73 20 73 25 0 4 -4 8 -10 8 -5 0
-10 5 -10 11 0 8 5 8 15 -1 8 -7 22 -9 32 -5 28 11 62 14 68 5 2 -4 -14 -10
-36 -13 -22 -3 -48 -12 -58 -21 -10 -9 -29 -16 -44 -16 -14 0 -29 -4 -32 -10
-3 -5 2 -10 13 -10 10 0 21 -3 24 -6 9 -9 -3 -44 -14 -38 -5 3 -4 12 3 20 9
11 8 14 -9 14 -11 0 -33 3 -50 6 -26 5 -30 3 -28 -12 2 -12 13 -20 30 -22 20
-3 26 0 21 9 -6 8 -4 10 4 4 19 -11 0 -25 -45 -31 -29 -4 -35 -3 -24 5 10 7
11 11 3 11 -7 0 -10 7 -7 15 4 9 0 15 -8 15 -20 0 -29 -11 -20 -24 3 -6 7 -17
7 -25 0 -15 51 -21 71 -8 6 3 23 4 37 1 16 -2 27 0 27 7 0 8 4 8 15 -1 9 -8
15 -8 15 -2 0 6 -5 12 -12 14 -6 2 -8 10 -4 17 5 8 13 2 26 -21 23 -44 50 -50
50 -11 1 24 2 26 11 10 6 -10 8 -25 5 -34 -6 -14 -25 -15 -159 -9 -250 12
-270 17 -303 83 -18 35 -19 70 -21 472 -2 290 1 449 9 478 13 55 43 94 65 86
12 -5 14 -3 8 7 -6 10 23 11 156 6 90 -3 235 -6 322 -6z m284 -16 c-3 -3 -12
-4 -19 -1 -8 3 -5 6 6 6 11 1 17 -2 13 -5z m111 -1 c-16 -2 -40 -2 -55 0 -16
2 -3 4 27 4 30 0 43 -2 28 -4z m59 1 c-3 -3 -12 -4 -19 -1 -8 3 -5 6 6 6 11 1
17 -2 13 -5z m166 -1 c-24 -2 -62 -2 -85 0 -24 2 -5 4 42 4 47 0 66 -2 43 -4z
m80 0 c-7 -2 -19 -2 -25 0 -7 3 -2 5 12 5 14 0 19 -2 13 -5z m114 0 c-20 -2
-52 -2 -70 0 -17 2 0 4 38 4 39 0 53 -2 32 -4z m-947 -33 c0 -5 -4 -10 -10
-10 -5 0 -10 5 -10 10 0 6 5 10 10 10 6 0 10 -4 10 -10z m-300 -50 c0 -11 -4
-20 -10 -20 -5 0 -10 9 -10 20 0 11 5 20 10 20 6 0 10 -9 10 -20z m32 -46 c-7
-12 -9 -8 -10 17 0 18 2 38 6 43 11 17 15 -41 4 -60z m122 51 c3 -8 1 -15 -4
-15 -6 0 -10 7 -10 15 0 8 2 15 4 15 2 0 6 -7 10 -15z m36 5 c0 -5 -4 -10 -10
-10 -5 0 -10 5 -10 10 0 6 5 10 10 10 6 0 10 -4 10 -10z m97 -12 c-3 -8 -6 -5
-6 6 -1 11 2 17 5 13 3 -3 4 -12 1 -19z m-52 2 c3 -5 -1 -10 -9 -10 -9 0 -16
5 -16 10 0 6 4 10 9 10 6 0 13 -4 16 -10z m-105 -10 c0 -5 -7 -10 -16 -10 -8
0 -12 5 -9 10 3 6 10 10 16 10 5 0 9 -4 9 -10z m280 -36 c0 -8 -4 -14 -10 -14
-5 0 -10 9 -10 21 0 11 5 17 10 14 6 -3 10 -13 10 -21z m-180 6 c0 -5 -11 -12
-25 -16 -26 -6 -32 -18 -16 -29 5 -3 17 2 26 11 14 14 18 15 30 3 7 -8 16 -25
19 -39 7 -25 7 -25 -11 3 -23 35 -31 34 -49 -8 -8 -19 -20 -35 -27 -34 -9 0
-9 2 1 6 14 5 17 40 4 45 -5 2 -12 17 -16 33 -4 19 -3 25 2 16 7 -9 12 -10 16
-2 4 6 12 9 17 6 5 -4 9 -1 9 4 0 6 5 11 10 11 6 0 10 -4 10 -10z m65 0 c3 -5
1 -10 -4 -10 -6 0 -11 5 -11 10 0 6 2 10 4 10 3 0 8 -4 11 -10z m175 6 c0 -3
-4 -8 -10 -11 -5 -3 -10 -1 -10 4 0 6 5 11 10 11 6 0 10 -2 10 -4z m-340 -57
c0 -6 -9 0 -20 14 -11 14 -20 29 -20 33 0 4 9 -2 20 -14 11 -12 20 -26 20 -33z
m19 11 c0 -10 -3 -8 -9 5 -12 27 -12 43 0 25 5 -8 9 -22 9 -30z m221 30 c0 -5
-5 -10 -11 -10 -5 0 -7 5 -4 10 3 6 8 10 11 10 2 0 4 -4 4 -10z m-81 -38 c0
-14 -2 -14 -6 -2 -4 8 -13 21 -22 28 -14 11 -13 11 7 2 12 -6 22 -18 21 -28z
m-299 1 c0 -29 -2 -29 -19 5 -10 18 -9 22 4 22 10 0 15 -9 15 -27z m90 -29 c0
-3 -6 -1 -13 5 -8 6 -17 8 -20 4 -4 -3 -7 -2 -7 4 0 18 12 22 26 8 8 -7 14
-17 14 -21z m997 30 c-3 -3 -12 -4 -19 -1 -8 3 -5 6 6 6 11 1 17 -2 13 -5z
m-1125 -34 c-17 -30 -36 -38 -46 -21 -11 18 6 42 25 36 11 -4 19 -2 19 4 0 6
4 11 10 11 5 0 1 -13 -8 -30z m415 8 c-3 -8 -6 -5 -6 6 -1 11 2 17 5 13 3 -3
4 -12 1 -19z m796 15 c-7 -2 -19 -2 -25 0 -7 3 -2 5 12 5 14 0 19 -2 13 -5z
m8 -25 c137 -41 196 -223 102 -317 -24 -24 -31 -37 -22 -40 29 -9 68 -60 79
-102 22 -81 -8 -182 -67 -225 -69 -51 -115 -67 -193 -67 -146 0 -238 76 -256
212 l-7 51 82 0 81 0 6 -40 c10 -59 43 -90 98 -90 57 0 94 30 103 82 11 73
-38 128 -116 128 l-31 0 0 60 0 60 43 0 c72 0 105 62 70 129 -22 43 -62 58
-104 41 -34 -14 -50 -39 -59 -90 l-5 -35 -70 0 c-65 0 -70 2 -73 23 -5 36 27
121 62 159 17 20 49 44 71 54 46 22 148 25 206 7z m-1165 -14 c-4 -12 -2 -15
9 -11 8 4 17 2 20 -3 4 -6 -9 -10 -29 -10 -35 0 -35 1 -18 19 21 24 26 25 18
5z m134 0 c0 -8 -5 -12 -10 -9 -6 4 -8 11 -5 16 9 14 15 11 15 -7z m330 1 c0
-8 -4 -15 -10 -15 -5 0 -7 7 -4 15 4 8 8 15 10 15 2 0 4 -7 4 -15z m1337 -19
c101 -67 148 -195 141 -381 -4 -94 -8 -119 -33 -173 -65 -145 -207 -209 -335
-151 -123 55 -184 178 -183 369 0 141 34 239 105 307 53 51 92 64 183 60 68
-3 86 -8 122 -31z m-1572 6 c-3 -3 -11 0 -18 7 -9 10 -8 11 6 5 10 -3 15 -9
12 -12z m35 -2 c0 -5 -4 -10 -10 -10 -5 0 -10 5 -10 10 0 6 5 10 10 10 6 0 10
-4 10 -10z m110 -9 c0 -11 -3 -22 -7 -24 -5 -3 -8 6 -8 19 0 13 3 24 8 24 4 0
7 -9 7 -19z m124 4 c-4 -8 -8 -15 -10 -15 -2 0 -4 7 -4 15 0 8 4 15 10 15 5 0
7 -7 4 -15z m-394 -5 c0 -5 -4 -10 -10 -10 -5 0 -10 5 -10 10 0 6 5 10 10 10
6 0 10 -4 10 -10z m48 -20 c-7 -11 -19 -18 -25 -15 -7 2 -13 0 -13 -5 0 -15
-39 -32 -61 -25 -10 4 -17 10 -14 15 3 5 -5 11 -17 13 -20 4 -19 4 5 6 15 0
27 -3 27 -9 0 -5 7 -10 15 -10 8 0 15 5 15 10 0 6 7 10 15 10 8 0 15 5 15 11
0 5 4 8 9 4 5 -3 12 -1 16 5 3 5 10 10 16 10 5 0 4 -9 -3 -20z m151 -3 c12
-15 12 -17 -3 -11 -9 3 -16 13 -16 22 0 8 1 13 3 11 1 -2 9 -12 16 -22z m-312
7 c-3 -3 -12 -4 -19 -1 -8 3 -5 6 6 6 11 1 17 -2 13 -5z m483 -4 c0 -5 -4 -10
-10 -10 -5 0 -10 5 -10 10 0 6 5 10 10 10 6 0 10 -4 10 -10z m-263 -42 c1 -26
-1 -28 -7 -13 -6 18 -9 17 -24 -13 -17 -32 -36 -43 -36 -19 0 7 6 19 12 25 10
10 10 15 -2 23 -11 7 -8 8 12 3 20 -4 29 -2 34 10 9 23 11 20 11 -16z m33 22
c0 -5 -4 -10 -10 -10 -5 0 -10 5 -10 10 0 6 5 10 10 10 6 0 10 -4 10 -10z m34
-50 c4 -38 3 -50 -4 -40 -9 13 -15 109 -6 99 2 -2 6 -29 10 -59z m-264 30 c0
-5 -4 -10 -10 -10 -5 0 -10 5 -10 10 0 6 5 10 10 10 6 0 10 -4 10 -10z m217
-62 c-2 -13 -4 -3 -4 22 0 25 2 35 4 23 2 -13 2 -33 0 -45z m20 0 c-2 -13 -4
-3 -4 22 0 25 2 35 4 23 2 -13 2 -33 0 -45z m103 47 c0 -8 -4 -15 -10 -15 -5
0 -10 7 -10 15 0 8 5 15 10 15 6 0 10 -7 10 -15z m70 5 c0 -5 -4 -10 -10 -10
-5 0 -10 5 -10 10 0 6 5 10 10 10 6 0 10 -4 10 -10z m73 3 c-7 -2 -19 -2 -25
0 -7 3 -2 5 12 5 14 0 19 -2 13 -5z m-188 -13 c-3 -5 -10 -10 -16 -10 -5 0 -9
5 -9 10 0 6 7 10 16 10 8 0 12 -4 9 -10z m-309 -15 c9 -8 11 -15 6 -15 -5 0
-15 7 -22 15 -7 8 -9 15 -6 15 4 0 14 -7 22 -15z m-81 -14 c-3 -6 -11 -11 -17
-11 -6 0 -6 6 2 15 14 17 26 13 15 -4z m168 2 c-3 -7 -9 -13 -13 -13 -4 0 -12
6 -18 13 -8 9 -5 12 13 12 14 0 21 -5 18 -12z m-113 -13 c0 -5 -7 -7 -15 -4
-8 4 -15 8 -15 10 0 2 7 4 15 4 8 0 15 -4 15 -10z m103 -19 c26 -10 38 -31 17
-31 -5 0 -10 4 -10 9 0 11 -39 26 -59 22 -11 -2 -11 0 0 12 8 8 16 11 19 7 3
-5 18 -13 33 -19z m121 -2 c-10 -4 -13 -8 -6 -8 6 -1 12 -5 12 -10 0 -5 -11
-4 -24 2 l-24 11 22 12 c11 6 25 8 30 6 5 -3 1 -9 -10 -13z m297 -45 c-7 -31
-9 -34 -10 -12 -1 27 9 62 15 55 3 -2 0 -22 -5 -43z m2914 31 c17 -3 40 -16
53 -27 l22 -21 0 21 c0 20 5 22 48 22 26 0 57 3 70 6 l22 6 0 -244 c0 -265 -9
-341 -45 -404 -34 -59 -78 -77 -196 -82 -126 -5 -180 15 -209 80 -11 24 -20
53 -20 66 0 21 4 22 78 22 71 0 78 -2 87 -22 11 -24 56 -35 101 -24 28 7 54
53 54 96 l0 32 -37 -24 c-30 -18 -52 -23 -100 -22 -79 1 -130 32 -164 101 -21
42 -24 62 -24 158 0 122 13 162 74 219 29 28 111 58 141 51 8 -2 29 -6 45 -10z
m-3394 -25 c5 0 9 6 9 12 0 7 7 2 16 -11 14 -19 14 -25 3 -32 -22 -13 -30 -11
-36 11 -6 22 -23 28 -23 8 0 -7 -5 -6 -12 4 -7 9 -20 18 -28 21 -10 4 -7 6 8
6 12 1 22 -5 22 -11 0 -7 6 -4 12 7 11 18 13 18 16 3 2 -10 8 -18 13 -18z
m110 -3 c-16 -16 -13 -27 6 -20 11 4 14 3 9 -5 -9 -15 -33 -16 -41 -2 -3 6 1
17 9 26 9 8 16 21 17 27 0 8 3 7 6 -1 3 -8 0 -19 -6 -25z m158 29 c-12 -10
-59 -15 -59 -6 0 5 14 10 32 10 17 0 29 -2 27 -4z m161 -6 c0 -5 -2 -10 -4
-10 -3 0 -8 5 -11 10 -3 6 -1 10 4 10 6 0 11 -4 11 -10z m2525 -13 c64 -35 79
-77 83 -235 3 -73 1 -166 -3 -207 l-7 -75 -74 0 -74 0 0 185 c0 172 -1 186
-20 205 -22 22 -60 26 -90 10 -30 -16 -40 -74 -40 -242 l0 -158 -80 0 -80 0 0
171 c0 205 -8 229 -76 229 -20 0 -39 -9 -55 -26 -23 -25 -24 -31 -27 -199 l-3
-173 -74 -4 -74 -3 -3 263 -3 262 78 0 c76 0 77 0 77 -26 l0 -25 36 28 c69 52
210 42 253 -19 13 -19 14 -19 45 11 17 16 42 34 56 40 44 17 112 12 155 -12z
m-2895 -8 c0 -14 -17 -10 -23 5 -4 10 -1 13 9 9 7 -3 14 -9 14 -14z m293 1
c-3 -11 -7 -20 -8 -20 -1 0 -5 9 -8 20 -3 12 0 20 8 20 8 0 11 -8 8 -20z m434
-2 c-3 -8 -6 -5 -6 6 -1 11 2 17 5 13 3 -3 4 -12 1 -19z m-840 -14 c-1 -1 -18
-4 -37 -8 -25 -4 -31 -3 -20 4 8 5 11 10 7 10 -5 0 -6 4 -3 9 4 5 16 4 30 -2
14 -7 24 -12 23 -13z m213 16 c0 -5 -4 -10 -10 -10 -5 0 -10 5 -10 10 0 6 5
10 10 10 6 0 10 -4 10 -10z m135 -10 c22 -5 12 -7 -33 -5 -34 1 -65 5 -69 8
-8 9 64 7 102 -3z m1022 -12 c-3 -8 -6 -5 -6 6 -1 11 2 17 5 13 3 -3 4 -12 1
-19z m-1367 -18 c0 -5 -7 -10 -15 -10 -8 0 -15 5 -15 10 0 6 7 10 15 10 8 0
15 -4 15 -10z m296 -6 c-5 -13 -2 -15 14 -11 24 6 36 -8 14 -17 -30 -11 -66
-7 -61 8 3 7 0 19 -6 25 -8 8 -4 11 17 11 22 0 27 -4 22 -16z m99 6 c-3 -5
-16 -10 -28 -9 -20 1 -20 2 3 9 14 4 26 8 28 9 2 1 0 -3 -3 -9z m-353 -52 c2
-20 0 -34 -4 -32 -4 3 -8 17 -8 31 0 21 -2 24 -15 13 -12 -10 -15 -10 -15 4 0
9 7 16 15 16 8 0 15 6 16 13 1 19 7 -5 11 -45z m382 37 c-4 -8 -10 -15 -15
-15 -4 0 -6 7 -3 15 4 8 10 15 15 15 4 0 6 -7 3 -15z m-324 1 c0 -3 -4 -8 -10
-11 -5 -3 -10 -1 -10 4 0 6 5 11 10 11 6 0 10 -2 10 -4z m135 -7 c-5 -6 -20
-9 -37 -5 -24 5 -29 3 -24 -9 8 -21 -7 -19 -21 3 -10 17 -7 19 39 21 34 1 47
-2 43 -10z m235 -33 c0 -5 -7 -3 -15 4 -8 7 -15 20 -15 28 0 13 3 12 15 -4 8
-10 15 -23 15 -28z m-356 9 c-7 -16 -24 -21 -24 -6 0 8 7 13 27 20 1 1 0 -6
-3 -14z m261 5 c3 -5 1 -10 -4 -10 -6 0 -11 5 -11 10 0 6 2 10 4 10 3 0 8 -4
11 -10z m-94 -15 c51 -4 64 -15 17 -15 -50 0 -98 11 -98 22 0 5 9 6 21 3 11
-4 38 -8 60 -10z m-195 -9 c3 -8 15 -11 30 -8 26 5 30 -8 13 -43 -8 -17 -8
-15 -4 8 4 20 1 27 -10 27 -8 0 -15 -6 -15 -12 0 -10 -2 -10 -8 -1 -4 6 -11
10 -17 10 -5 -1 -11 6 -13 16 -4 20 16 23 24 3z m354 -6 c0 -5 -2 -10 -4 -10
-3 0 -8 5 -11 10 -3 6 -1 10 4 10 6 0 11 -4 11 -10z m597 -57 c-2 -16 -4 -5
-4 22 0 28 2 40 4 28 2 -13 2 -35 0 -50z m-832 46 c4 -6 4 -13 0 -17 -3 -3 -9
-1 -13 5 -4 6 -16 13 -27 16 -16 4 -14 5 7 6 15 0 30 -4 33 -10z m312 -26 c-3
-10 -5 -4 -5 12 0 17 2 24 5 18 2 -7 2 -21 0 -30z m108 19 c-3 -3 -11 0 -18 7
-9 10 -8 11 6 5 10 -3 15 -9 12 -12z m-368 -32 c20 -38 15 -59 -6 -22 -6 9
-11 11 -11 5 0 -15 -50 -18 -50 -3 0 6 9 10 19 10 26 0 36 17 21 35 -7 8 -9
15 -4 15 5 0 19 -18 31 -40z m17 24 c5 -14 4 -15 -9 -4 -17 14 -19 20 -6 20 5
0 12 -7 15 -16z m37 -10 c13 -37 7 -39 -13 -3 -9 16 -13 29 -7 29 5 0 14 -12
20 -26z m81 -6 c-9 -9 -12 -7 -12 12 0 19 3 21 12 12 9 -9 9 -15 0 -24z m-217
-31 c3 -57 7 -62 35 -47 11 6 26 9 33 7 7 -2 -3 -11 -20 -21 -32 -16 -45 -38
-20 -35 28 3 35 -2 32 -26 -1 -14 2 -28 6 -31 5 -3 9 -10 9 -15 0 -6 -7 -4
-15 5 -8 8 -15 26 -15 39 0 17 -5 24 -17 23 -12 0 -19 7 -21 22 -2 12 -7 20
-12 17 -5 -3 -6 -13 -3 -22 4 -11 3 -14 -5 -9 -7 4 -12 1 -12 -8 0 -9 -4 -16
-10 -16 -14 0 -12 28 3 33 6 2 8 8 4 13 -5 5 -17 -1 -28 -15 -11 -13 -23 -21
-27 -17 -4 4 2 14 13 22 11 8 28 21 37 29 12 10 18 11 22 2 7 -14 0 38 -10 78
-5 20 -3 26 5 24 7 -3 14 -26 16 -52z m182 31 c-3 -8 -6 -5 -6 6 -1 11 2 17 5
13 3 -3 4 -12 1 -19z m-347 2 c8 -5 11 -12 8 -16 -4 -3 -14 1 -23 10 -18 17
-9 21 15 6z m-59 -33 c-13 -13 -26 -3 -16 12 3 6 11 8 17 5 6 -4 6 -10 -1 -17z
m149 -27 c-8 -5 -11 -12 -8 -15 10 -10 49 20 40 30 -4 5 -1 5 7 0 11 -7 9 -12
-10 -27 -13 -10 -30 -23 -38 -30 -12 -10 -14 -9 -9 4 4 8 1 21 -5 27 -8 8 -8
11 1 11 7 0 12 8 12 17 0 14 3 14 12 5 10 -10 10 -15 -2 -22z m260 20 c0 -5
-5 -10 -11 -10 -5 0 -7 5 -4 10 3 6 8 10 11 10 2 0 4 -4 4 -10z m65 0 c-3 -5
-12 -10 -18 -10 -7 0 -6 4 3 10 19 12 23 12 15 0z m97 -4 c7 4 8 2 4 -4 -11
-18 -26 -14 -25 6 0 10 3 12 6 4 2 -6 10 -9 15 -6z m-212 -12 c0 -8 -5 -12
-10 -9 -6 4 -8 11 -5 16 9 14 15 11 15 -7z m-362 -35 c-12 -22 -24 -35 -26
-29 -3 7 1 17 7 23 6 6 11 19 11 29 0 10 7 18 16 18 13 0 11 -7 -8 -41z m89
-6 c-3 -10 -5 -4 -5 12 0 17 2 24 5 18 2 -7 2 -21 0 -30z m248 27 c3 -5 1 -10
-4 -10 -6 0 -11 5 -11 10 0 6 2 10 4 10 3 0 8 -4 11 -10z m98 3 c-13 -2 -33
-2 -45 0 -13 2 -3 4 22 4 25 0 35 -2 23 -4z m-363 -33 c0 -5 -2 -10 -4 -10 -3
0 -8 5 -11 10 -3 6 -1 10 4 10 6 0 11 -4 11 -10z m42 -15 c3 -14 1 -25 -3 -25
-5 0 -9 11 -9 25 0 14 2 25 4 25 2 0 6 -11 8 -25z m208 11 c0 -3 -4 -8 -10
-11 -5 -3 -10 -1 -10 4 0 6 5 11 10 11 6 0 10 -2 10 -4z m23 -24 c-3 -12 -11
-22 -19 -22 -8 0 -11 -6 -7 -17 4 -11 3 -14 -5 -9 -7 4 -12 16 -12 27 0 11 4
17 10 14 5 -3 15 3 22 14 15 25 19 22 11 -7z m-305 -9 c-2 -10 3 -17 10 -15 6
1 12 -2 12 -8 0 -16 -22 -12 -37 8 -10 12 -16 14 -19 5 -7 -16 -24 -17 -24 -3
0 10 33 28 53 29 4 1 7 -7 5 -16z m46 5 c-3 -4 -9 -8 -15 -8 -5 0 -9 4 -9 8 0
5 7 9 15 9 8 0 12 -4 9 -9z m280 -24 c3 -8 2 -12 -4 -9 -6 3 -10 10 -10 16 0
14 7 11 14 -7z m-224 -4 c0 -5 -4 -10 -10 -10 -5 0 -10 5 -10 10 0 6 5 10 10
10 6 0 10 -4 10 -10z m330 -16 c0 -9 12 -14 33 -15 24 0 27 -2 13 -8 -27 -10
-82 -1 -65 11 11 7 11 11 2 15 -18 7 -16 24 2 17 8 -4 15 -12 15 -20z m80 18
c0 -5 -7 -9 -15 -9 -8 0 -12 4 -9 9 3 4 9 8 15 8 5 0 9 -4 9 -8z m-532 -41 c3
-8 -1 -12 -9 -9 -7 2 -15 10 -17 17 -3 8 1 12 9 9 7 -2 15 -10 17 -17z m242
-3 c0 -19 -2 -20 -10 -8 -13 19 -13 30 0 30 6 0 10 -10 10 -22z m120 7 c0 -8
-4 -15 -10 -15 -5 0 -7 7 -4 15 4 8 8 15 10 15 2 0 4 -7 4 -15z m-313 -8 c0
-8 -6 -14 -14 -14 -9 0 -10 4 -2 14 6 7 12 13 14 13 1 0 2 -6 2 -13z m237 -36
c-7 -9 -34 10 -34 24 0 13 3 12 18 -2 10 -10 17 -20 16 -22z m250 14 c-17 -26
-24 -31 -24 -16 0 10 28 41 36 41 2 0 -3 -11 -12 -25z m86 10 c0 -12 -19 -12
-23 0 -4 9 -1 12 9 8 7 -3 14 -7 14 -8z m-634 -9 c8 -8 14 -27 14 -43 0 -23
-2 -25 -11 -13 -9 13 -10 12 -5 -2 3 -10 1 -20 -5 -24 -6 -3 -6 -10 -1 -17 5
-7 8 -23 7 -37 -5 -36 -5 -36 -14 -20 -14 22 -18 170 -5 170 3 0 12 -6 20 -14z
m224 -1 c0 -8 -4 -15 -10 -15 -5 0 -7 7 -4 15 4 8 8 15 10 15 2 0 4 -7 4 -15z
m185 8 c-11 -3 -26 -10 -32 -15 -9 -7 -13 -7 -13 0 0 13 18 21 45 20 l20 0
-20 -5z m50 -13 c-3 -5 -10 -10 -16 -10 -5 0 -9 5 -9 10 0 6 7 10 16 10 8 0
12 -4 9 -10z m120 0 c3 -5 1 -10 -4 -10 -6 0 -11 5 -11 10 0 6 2 10 4 10 3 0
8 -4 11 -10z m608 3 c-7 -2 -19 -2 -25 0 -7 3 -2 5 12 5 14 0 19 -2 13 -5z
m-1125 -42 c-1 -15 2 -33 5 -39 4 -5 0 -12 -8 -16 -20 -7 -19 -28 1 -24 10 2
19 -3 21 -10 3 -7 1 -11 -4 -10 -17 6 -16 -8 1 -34 18 -28 15 -65 -4 -53 -7 4
-8 11 -1 18 12 15 -3 36 -42 62 -21 13 -25 20 -15 26 10 7 10 11 0 21 -15 15
-16 28 -2 28 6 0 10 -7 10 -15 0 -9 6 -12 16 -8 11 4 14 14 11 31 -4 23 0 52
8 52 2 0 3 -13 3 -29z m83 2 c-8 -15 -10 -15 -11 -2 0 17 10 32 18 25 2 -3 -1
-13 -7 -23z m109 17 c0 -5 -4 -10 -10 -10 -5 0 -10 5 -10 10 0 6 5 10 10 10 6
0 10 -4 10 -10z m75 -20 c-3 -5 -10 -10 -16 -10 -5 0 -9 5 -9 10 0 6 7 10 16
10 8 0 12 -4 9 -10z m-90 -10 c3 -5 1 -10 -4 -10 -6 0 -11 5 -11 10 0 6 2 10
4 10 3 0 8 -4 11 -10z m152 -6 c-3 -3 -12 -4 -19 -1 -8 3 -5 6 6 6 11 1 17 -2
13 -5z m88 -4 c3 -5 1 -10 -4 -10 -6 0 -11 5 -11 10 0 6 2 10 4 10 3 0 8 -4
11 -10z m-315 -16 c0 -8 -5 -12 -10 -9 -6 4 -8 11 -5 16 9 14 15 11 15 -7z
m265 6 c3 -5 1 -10 -4 -10 -6 0 -11 5 -11 10 0 6 2 10 4 10 3 0 8 -4 11 -10z
m125 -6 c0 -8 -4 -12 -10 -9 -5 3 -10 10 -10 16 0 5 5 9 10 9 6 0 10 -7 10
-16z m-268 -3 c17 -1 19 -4 10 -13 -8 -8 -15 -8 -27 2 -15 12 -37 3 -56 -24
-4 -4 -6 2 -6 15 0 25 -1 25 79 20z m86 -16 c-3 -3 -9 2 -12 12 -6 14 -5 15 5
6 7 -7 10 -15 7 -18z m578 -6 c3 -6 -2 -18 -12 -27 -17 -16 -17 -16 -5 0 12
15 10 21 -10 39 -23 19 -23 20 -2 10 12 -6 25 -16 29 -22z m-502 -3 c-7 -18
-44 -22 -44 -5 0 5 4 8 9 4 6 -3 16 1 23 9 16 17 21 14 12 -8z m-169 -6 c4 -6
23 -8 43 -6 20 3 29 3 20 0 -16 -5 -22 -16 -20 -35 1 -4 -11 -9 -25 -12 l-27
-5 25 19 c14 12 18 19 9 18 -20 -3 -50 11 -50 22 0 12 17 11 25 -1z m225 0 c0
-5 -4 -10 -10 -10 -5 0 -10 5 -10 10 0 6 5 10 10 10 6 0 10 -4 10 -10z m68
-25 c-3 -3 -9 2 -12 12 -6 14 -5 15 5 6 7 -7 10 -15 7 -18z m-318 5 c8 -5 11
-10 5 -10 -5 0 -17 5 -25 10 -8 5 -10 10 -5 10 6 0 17 -5 25 -10z m140 0 c0
-5 -4 -10 -9 -10 -6 0 -13 5 -16 10 -3 6 1 10 9 10 9 0 16 -4 16 -10z m-371
-37 c0 -5 -3 -9 -9 -11 -5 -2 -10 4 -10 13 0 16 16 14 19 -2z m400 -8 c3 -12
-13 -9 -17 4 -2 7 0 11 6 7 5 -3 10 -8 11 -11z m41 -24 c0 -6 -4 -13 -10 -16
-16 -10 -12 -35 4 -29 11 4 16 -4 18 -27 2 -18 10 -34 18 -36 12 -4 13 -3 1 5
-8 6 -10 15 -6 22 6 9 13 6 27 -11 l19 -24 -7 30 -7 30 33 -30 c22 -20 34 -26
37 -17 3 6 14 12 26 11 21 0 21 -1 2 -9 -16 -6 -12 -9 20 -12 22 -3 -10 -5
-72 -6 -62 -1 -114 2 -118 7 -7 13 -14 104 -8 113 6 11 23 10 23 -1z m140 -1
c0 -5 -4 -10 -9 -10 -6 0 -13 5 -16 10 -3 6 1 10 9 10 9 0 16 -4 16 -10z
m-206 -18 c-6 -4 -14 -14 -17 -22 -4 -10 -6 -8 -6 8 -1 15 5 22 17 22 10 0 13
-3 6 -8z m313 -78 c-3 -3 -12 -4 -19 -1 -8 3 -5 6 6 6 11 1 17 -2 13 -5z m53
-23 c0 -6 -17 -7 -37 -4 -52 8 -54 13 -5 13 23 0 42 -4 42 -9z m375 -5 c17 -1
-60 -3 -170 -3 -110 0 -171 3 -135 6 62 6 241 4 305 -3z m383 -13 c-42 -2
-114 -2 -160 0 -46 1 -11 3 77 3 88 0 125 -2 83 -3z m109 1 c-3 -3 -12 -4 -19
-1 -8 3 -5 6 6 6 11 1 17 -2 13 -5z m311 -1 c-54 -2 -142 -2 -195 0 -54 1 -10
3 97 3 107 0 151 -2 98 -3z"/>
<path d="M3158 6753 c7 -3 16 -2 19 1 4 3 -2 6 -13 5 -11 0 -14 -3 -6 -6z"/>
<path d="M3046 6711 c-4 -7 -5 -15 -2 -18 9 -9 19 4 14 18 -4 11 -6 11 -12 0z"/>
<path d="M3046 6659 c-2 -8 -7 -22 -10 -31 -9 -28 3 -21 15 8 5 15 7 29 5 32
-3 3 -7 -1 -10 -9z"/>
<path d="M3183 5867 c4 -10 7 -24 7 -30 0 -14 49 -39 61 -31 15 9 10 26 -6 20
-21 -8 -45 3 -39 18 3 7 -3 19 -12 27 -16 12 -17 12 -11 -4z"/>
<path d="M3238 5753 c7 -3 16 -2 19 1 4 3 -2 6 -13 5 -11 0 -14 -3 -6 -6z"/>
<path d="M3180 5700 c0 -5 5 -10 11 -10 5 0 7 5 4 10 -3 6 -8 10 -11 10 -2 0
-4 -4 -4 -10z"/>
<path d="M3215 5700 c-3 -5 1 -10 10 -10 9 0 13 5 10 10 -3 6 -8 10 -10 10 -2
0 -7 -4 -10 -10z"/>
<path d="M4782 6415 c-52 -23 -66 -67 -66 -215 -1 -146 11 -193 58 -221 40
-24 67 -24 99 1 42 34 61 101 61 215 -1 55 -6 118 -12 141 -21 72 -79 105
-140 79z"/>
<path d="M6476 6220 c-59 -70 -41 -199 33 -229 74 -31 140 57 125 166 -9 59
-42 93 -93 93 -31 0 -44 -6 -65 -30z"/>
<path d="M3181 6334 c0 -11 3 -14 6 -6 3 7 2 16 -1 19 -3 4 -6 -2 -5 -13z"/>
<path d="M2853 5315 c-2 -6 -2 -80 -1 -165 3 -130 5 -155 18 -155 12 0 15 14
15 65 l0 65 38 3 c20 2 37 7 37 12 0 5 3 15 6 24 4 11 -4 15 -38 18 l-43 3 0
40 0 40 41 0 c42 0 44 1 44 34 0 16 -9 20 -56 23 -33 2 -58 -1 -61 -7z"/>
<path d="M3035 5294 c-30 -33 -38 -73 -33 -168 4 -81 22 -118 70 -145 53 -30
111 21 129 114 29 145 -88 284 -166 199z m108 -74 c14 -26 17 -49 14 -93 -8
-91 -54 -125 -96 -71 -27 34 -30 147 -5 182 24 35 64 26 87 -18z"/>
<path d="M7668 5314 c-4 -3 9 -51 29 -107 27 -82 33 -113 30 -159 -3 -51 -1
-58 15 -58 15 0 18 8 18 53 0 30 14 102 30 160 17 59 30 109 30 112 0 3 -9 5
-19 5 -16 0 -22 -12 -32 -57 -16 -74 -25 -84 -34 -37 -13 70 -45 111 -67 88z"/>
<path d="M3250 5138 c0 -161 1 -168 20 -168 21 0 23 9 20 88 l-2 42 41 0 c48
0 54 -8 61 -80 4 -47 8 -55 26 -58 21 -3 22 0 17 65 -3 37 -10 76 -15 85 -6
12 -3 26 8 43 23 34 11 110 -19 129 -12 8 -52 16 -89 18 l-68 4 0 -168z m115
102 c22 -8 26 -15 23 -42 -3 -32 -5 -33 -48 -33 -42 0 -45 2 -48 28 -7 56 15
69 73 47z"/>
<path d="M7460 5203 c0 -67 -4 -103 -9 -97 -6 5 -25 50 -44 99 -32 85 -36 90
-66 93 l-31 3 0 -165 0 -166 25 0 c24 0 24 0 27 112 l3 113 39 -100 c44 -111
57 -131 80 -122 14 5 16 30 16 172 0 158 -1 165 -20 165 -19 0 -20 -7 -20
-107z"/>
<path d="M7550 5145 l0 -166 68 3 c65 3 67 4 70 31 3 26 2 27 -49 27 l-52 0 5
135 5 135 -24 0 -23 0 0 -165z"/>
<path d="M3582 5133 l3 -168 24 0 c22 0 24 4 25 60 1 59 1 60 31 63 45 4 64
-16 66 -70 3 -56 7 -62 36 -65 20 -2 21 1 16 60 -2 34 -9 72 -15 84 -8 16 -7
27 6 44 19 27 20 54 5 97 -12 36 -40 48 -132 57 l-67 6 2 -168z m144 86 c21
-17 17 -57 -6 -69 -12 -6 -35 -10 -53 -8 -28 3 -32 7 -35 36 -5 54 3 65 44 59
20 -3 42 -11 50 -18z"/>
<path d="M7073 5271 c-68 -68 -70 -216 -3 -283 53 -52 148 -29 183 45 22 45
22 144 1 196 -20 50 -51 71 -108 71 -36 0 -50 -6 -73 -29z m112 -45 c28 -28
40 -81 31 -132 -14 -72 -76 -97 -116 -46 -19 23 -21 37 -18 91 4 54 8 67 32
87 34 30 41 30 71 0z"/>
<path d="M3848 5283 c-2 -5 -2 -81 0 -170 l3 -163 99 0 100 0 0 30 0 30 -76 0
-75 0 3 43 3 42 65 0 c63 0 65 1 68 27 3 26 2 27 -67 34 l-71 7 0 35 0 35 75
-6 75 -7 0 29 c0 26 -4 29 -46 35 -64 8 -152 8 -156 -1z"/>
<path d="M4148 5279 c-35 -13 -62 -70 -54 -114 8 -42 20 -52 102 -78 37 -12
72 -29 77 -39 17 -27 -9 -48 -58 -48 -35 0 -48 5 -63 25 -22 28 -62 34 -62 10
0 -31 29 -72 60 -85 17 -7 51 -10 81 -8 67 7 104 41 104 97 0 54 -33 87 -109
109 -66 20 -88 41 -67 66 22 26 78 20 97 -9 11 -17 25 -25 45 -25 33 0 35 9
13 51 -25 50 -101 71 -166 48z"/>
<path d="M6441 5276 c-54 -30 -68 -110 -27 -151 13 -13 37 -27 53 -30 72 -16
98 -30 98 -55 0 -46 -101 -54 -112 -10 -4 15 -14 20 -39 20 -39 0 -42 -11 -14
-57 30 -50 127 -66 192 -32 29 16 51 67 44 105 -9 43 -44 70 -112 85 -58 13
-80 30 -70 54 14 37 106 38 106 1 0 -19 60 -27 67 -9 8 21 -18 63 -49 79 -34
17 -105 18 -137 0z"/>
<path d="M6680 5119 l0 -172 77 7 c42 3 89 6 105 6 25 0 28 4 28 31 l0 30 -72
-2 c-40 -1 -72 1 -70 4 1 4 2 23 2 42 l0 34 63 3 c59 3 62 4 65 31 l3 27 -65
0 -66 0 0 35 0 35 70 0 70 0 0 30 0 30 -105 0 -105 0 0 -171z"/>
<path d="M4380 5110 l0 -170 120 0 120 0 0 30 0 30 -85 0 -85 0 0 40 0 40 76
0 75 0 -3 33 -3 32 -72 3 -73 3 0 35 0 36 80 -4 80 -3 0 33 0 32 -115 0 -115
0 0 -170z"/>
<path d="M4749 5253 c-16 -41 -109 -306 -109 -310 0 -1 15 -3 34 -3 29 0 34 4
42 33 9 31 11 32 71 35 l61 3 12 -36 c10 -31 15 -35 46 -35 19 0 34 3 34 8 0
4 -25 79 -55 167 l-54 160 -36 3 c-30 3 -36 0 -46 -25z m66 -115 c8 -28 15
-55 15 -60 0 -4 -18 -8 -41 -8 -35 0 -40 3 -34 18 3 9 11 36 18 60 6 23 15 42
19 42 4 0 14 -23 23 -52z"/>
<path d="M5390 5273 c-24 -9 -61 -46 -75 -73 -34 -68 -23 -175 22 -222 71 -74
209 -50 242 42 10 30 10 30 -27 30 -29 0 -39 -5 -47 -22 -14 -31 -57 -45 -90
-30 -84 39 -60 222 29 222 32 0 66 -25 66 -48 0 -7 15 -12 35 -12 46 0 47 27
2 77 -30 32 -40 36 -88 39 -30 2 -61 1 -69 -3z"/>
<path d="M5868 5272 c-27 -3 -28 -5 -28 -63 l0 -59 -65 0 -65 0 0 60 0 60 -35
0 -35 0 0 -165 0 -165 35 0 35 0 0 69 c0 77 0 77 75 77 l50 -1 3 -73 3 -73 32
3 32 3 3 159 c1 88 -1 162 -5 166 -5 3 -20 4 -35 2z"/>
<path d="M6080 5144 l0 -136 34 -34 c30 -30 40 -34 85 -34 113 0 133 30 139
207 l5 133 -37 0 -36 0 0 -123 c0 -139 -8 -157 -68 -157 -45 0 -52 21 -52 159
l0 121 -35 0 -35 0 0 -136z"/>
<path d="M4980 5106 l0 -166 35 0 35 0 0 65 0 65 50 0 c58 0 70 -14 70 -84 l0
-46 36 0 c33 0 36 2 30 23 -3 12 -6 41 -6 64 0 25 -6 48 -16 58 -15 15 -15 18
5 39 27 28 28 85 2 117 -18 22 -28 24 -130 27 l-111 4 0 -166z m187 91 c14
-13 14 -21 5 -42 -10 -22 -17 -25 -67 -25 l-55 0 0 38 c0 21 3 41 6 44 12 13
95 1 111 -15z"/>
<path d="M2820 4516 c0 -79 4 -137 10 -141 6 -4 10 27 10 86 0 51 3 89 7 85 4
-4 19 -46 33 -93 39 -131 50 -121 50 46 0 87 -4 141 -10 141 -6 0 -10 -38 -11
-92 0 -102 -3 -100 -41 21 -36 118 -48 105 -48 -53z"/>
<path d="M2997 4611 c-69 -82 -26 -269 59 -259 23 2 34 13 52 48 35 70 25 168
-23 216 -32 32 -58 30 -88 -5z m77 -43 c24 -34 21 -133 -4 -158 -22 -22 -52
-15 -64 16 -10 25 -7 124 4 145 14 26 45 24 64 -3z"/>
<path d="M3140 4608 c0 -20 6 -27 30 -31 l30 -6 0 -116 c0 -96 3 -115 15 -115
12 0 15 19 15 115 l0 115 30 0 c25 0 30 4 30 25 0 21 -5 25 -29 25 -15 0 -49
3 -75 6 -44 6 -46 6 -46 -18z"/>
<path d="M7747 4624 c-4 -4 -7 -67 -7 -141 0 -110 3 -133 15 -133 11 0 15 19
17 93 l3 92 18 -60 c32 -102 45 -129 60 -117 17 15 17 264 0 269 -10 4 -13
-17 -13 -83 0 -48 -3 -84 -7 -80 -5 4 -20 42 -34 84 -24 72 -37 91 -52 76z"/>
<path d="M3382 4479 c3 -128 5 -144 21 -147 15 -3 17 5 17 57 l0 61 45 0 c41
0 45 2 45 25 0 23 -4 25 -45 25 -43 0 -45 1 -45 30 0 29 1 30 50 30 47 0 50 2
50 25 0 22 -5 25 -32 25 -18 0 -50 3 -71 6 l-38 7 3 -144z"/>
<path d="M7490 4518 c0 -57 -3 -120 -6 -140 -6 -34 -4 -38 15 -38 20 0 21 4
21 140 0 118 -2 140 -15 140 -12 0 -15 -18 -15 -102z"/>
<path d="M7578 4588 c-19 -28 -23 -46 -23 -110 0 -88 22 -131 70 -136 82 -10
122 159 61 253 -25 39 -78 35 -108 -7z m93 -45 c24 -65 0 -153 -42 -153 -25 0
-39 36 -39 101 0 79 57 116 81 52z"/>
<path d="M3580 4580 c-77 -83 -27 -260 73 -260 103 0 145 174 62 257 -45 45
-95 46 -135 3z m114 -42 c10 -13 16 -43 16 -73 0 -63 -20 -95 -60 -95 -37 0
-60 40 -60 102 0 56 22 88 60 88 18 0 34 -8 44 -22z"/>
<path d="M7306 4601 c-12 -19 7 -41 35 -41 l30 0 -7 -116 -7 -116 24 4 c24 3
24 5 27 116 3 110 3 112 26 112 22 0 42 31 28 44 -9 10 -150 7 -156 -3z"/>
<path d="M3800 4461 l0 -141 25 0 c24 0 25 3 25 55 0 54 1 55 29 55 37 0 49
-15 53 -70 2 -38 7 -46 26 -48 20 -3 22 1 22 45 0 27 -7 58 -15 70 -13 18 -13
22 0 33 9 7 15 30 15 55 0 60 -24 78 -111 83 l-69 4 0 -141z m134 67 c17 -27
-5 -52 -48 -56 l-36 -3 0 41 0 41 36 -3 c22 -2 42 -10 48 -20z"/>
<path d="M6892 4592 l-33 -3 3 -137 c3 -133 4 -137 26 -140 22 -3 22 -1 23
100 l1 103 20 -97 c19 -91 22 -98 44 -98 13 0 24 3 24 8 0 4 9 48 19 97 l20
90 0 -98 c1 -96 2 -98 24 -95 21 3 22 7 25 141 l4 137 -35 0 -35 0 -16 -71
c-9 -39 -16 -80 -16 -90 0 -10 -4 -20 -9 -23 -9 -6 -23 46 -37 134 -8 46 -8
47 -52 42z"/>
<path d="M7139 4475 c-1 -69 -2 -131 -3 -137 -1 -7 8 -13 19 -13 17 0 20 8 23
46 3 46 4 47 42 53 49 8 70 36 70 97 0 62 -20 79 -93 79 l-57 0 -1 -125z m92
75 c21 -12 25 -50 7 -68 -7 -7 -22 -12 -35 -12 -21 0 -23 5 -23 45 0 48 11 56
51 35z"/>
<path d="M4110 4450 l0 -140 25 0 c24 0 25 3 25 60 l0 60 50 0 49 0 3 -62 c3
-55 5 -63 23 -63 19 0 20 8 23 143 l3 142 -26 0 c-24 0 -25 -3 -25 -55 l0 -55
-50 0 -50 0 0 55 c0 52 -1 55 -25 55 l-25 0 0 -140z"/>
<path d="M4365 4581 c-9 -9 -5 -177 6 -214 12 -46 47 -70 101 -70 34 0 47 6
70 32 27 30 28 35 28 141 0 110 0 110 -24 110 -24 0 -24 -2 -28 -105 -3 -116
-16 -143 -60 -132 -36 9 -48 47 -48 150 0 87 -1 93 -20 93 -12 0 -23 -2 -25
-5z"/>
<path d="M5923 4579 c-63 -18 -103 -96 -90 -176 17 -103 126 -144 206 -77 59
49 59 179 -1 229 -16 14 -36 25 -43 25 -7 0 -19 2 -27 4 -7 2 -27 0 -45 -5z
m82 -64 c53 -52 22 -175 -44 -175 -73 0 -102 140 -39 185 32 21 55 19 83 -10z"/>
<path d="M6415 4565 c-27 -26 -33 -72 -15 -105 6 -11 33 -26 64 -35 64 -19 85
-38 66 -60 -19 -22 -77 -19 -92 5 -7 11 -23 20 -35 20 -31 0 -30 -34 2 -65 19
-20 34 -25 74 -25 66 0 102 29 104 83 1 47 -18 68 -86 87 -44 14 -52 19 -52
40 0 22 5 25 38 28 26 2 39 -1 43 -12 3 -9 17 -16 30 -16 28 0 29 2 9 39 -24
48 -110 57 -150 16z"/>
<path d="M6630 4470 c0 -115 1 -122 25 -145 27 -28 60 -31 109 -11 41 17 56
67 56 190 0 85 0 86 -25 86 -25 0 -25 0 -25 -98 0 -105 -13 -142 -50 -142 -37
0 -51 41 -49 142 2 88 1 93 -20 96 -20 3 -21 0 -21 -118z"/>
<path d="M4629 4483 c0 -54 -2 -117 -5 -140 -5 -42 -4 -43 24 -43 l28 0 -1
100 c-1 55 1 100 4 100 3 0 16 -45 29 -100 21 -92 25 -100 47 -100 20 0 26 8
38 53 9 28 18 68 22 87 16 78 25 63 23 -38 l-3 -102 28 0 27 0 0 140 0 140
-39 0 c-44 0 -35 16 -83 -155 l-14 -50 -18 80 c-9 44 -19 90 -22 103 -4 18
-11 22 -44 22 l-40 0 -1 -97z"/>
<path d="M4996 4503 c-15 -43 -38 -106 -51 -140 l-23 -63 29 0 c22 0 30 6 35
25 6 23 11 25 63 25 53 0 58 -2 67 -26 6 -19 17 -28 37 -30 18 -2 27 2 25 9
-2 7 -23 72 -47 145 l-44 132 -32 0 c-31 0 -33 -3 -59 -77z m74 -34 c6 -22 14
-47 17 -55 4 -10 -4 -14 -31 -14 -22 0 -36 5 -36 12 0 14 31 98 36 98 2 0 8
-18 14 -41z"/>
<path d="M5220 4435 c0 -146 0 -146 23 -143 20 3 22 9 27 92 6 101 6 101 65
-11 35 -69 66 -96 85 -76 5 4 10 69 11 143 l1 135 -23 0 c-23 0 -24 -3 -29
-90 l-5 -90 -50 90 c-42 75 -55 91 -78 93 l-27 3 0 -146z"/>
<path d="M5618 4563 c-53 -33 -72 -127 -42 -203 34 -86 155 -95 204 -15 26 42
25 45 -8 45 -21 0 -32 -7 -40 -25 -9 -19 -19 -25 -45 -25 -50 0 -72 29 -72 97
0 48 4 58 28 79 37 31 53 30 87 -6 46 -49 86 -35 54 19 -10 16 -28 34 -41 40
-35 16 -94 13 -125 -6z"/>
<path d="M6130 4440 l0 -140 25 0 c25 0 25 0 25 98 l0 97 53 -97 c46 -87 55
-98 80 -98 l27 0 0 140 0 140 -25 0 c-24 0 -24 -2 -27 -90 l-3 -91 -50 91
c-44 80 -53 90 -77 90 l-28 0 0 -140z"/>
<path d="M2563 2933 c9 -9 20 -13 24 -9 4 4 1 11 -7 16 -25 16 -35 11 -17 -7z"/>
<path d="M2600 2879 c0 -5 4 -8 8 -5 8 5 112 -16 147 -29 14 -6 17 -5 10 3
-10 11 -120 42 -149 42 -9 0 -16 -5 -16 -11z"/>
<path d="M7800 2840 c-47 -10 -74 -18 -60 -18 14 -1 66 7 115 17 50 10 77 19
60 19 -16 0 -68 -8 -115 -18z"/>
<path d="M7850 2819 c-163 -35 -365 -63 -600 -84 -96 -8 -206 -20 -245 -25
-62 -8 -337 -22 -705 -35 -816 -29 -2621 -2 -3015 45 -44 5 -118 14 -165 19
-85 10 -260 42 -444 80 -55 12 -106 21 -114 21 -33 0 0 -12 94 -35 55 -14 115
-31 134 -40 53 -22 385 -70 555 -80 66 -4 247 -16 310 -21 28 -2 79 -8 115
-13 51 -8 33 -9 -85 -5 -82 3 -174 10 -202 15 -29 6 -81 10 -115 9 -56 -2
-178 8 -293 24 -170 23 -335 51 -418 71 -69 16 -94 19 -87 9 6 -7 25 -16 41
-19 16 -4 29 -10 29 -13 0 -9 144 -36 330 -63 136 -19 181 -29 131 -29 -34 0
-201 20 -348 41 -155 22 -180 23 -138 5 32 -14 178 -42 260 -51 269 -27 716
-53 1060 -61 121 -3 226 -7 233 -9 8 -3 10 0 6 6 -5 8 52 9 212 3 257 -11
1527 -12 1759 -2 88 4 148 3 134 -2 -52 -15 -341 -20 -1339 -20 -987 0 -1124
3 -1599 35 -123 9 -226 13 -229 10 -3 -3 6 -6 19 -6 13 -1 33 -3 44 -5 11 -2
121 -10 245 -19 132 -9 239 -22 260 -30 22 -9 113 -18 250 -24 290 -15 521
-19 490 -10 -14 4 -79 8 -145 9 -66 1 -181 6 -255 9 -74 4 212 6 635 4 914 -4
1143 -8 1169 -19 14 -5 17 -4 12 4 -4 7 -2 12 3 12 6 0 11 -3 11 -7 0 -5 44
-7 97 -6 279 7 371 7 366 1 -2 -5 -30 -9 -61 -9 -31 -1 -70 -5 -87 -10 -20 -5
-1 -7 55 -4 47 2 175 7 285 10 236 7 561 30 695 50 118 17 215 24 395 30 135
4 324 33 368 56 27 15 15 21 -19 9 -29 -9 -192 -27 -329 -35 -38 -2 -117 -9
-175 -15 -162 -16 -581 -49 -615 -48 -60 1 58 16 235 28 164 11 413 36 610 61
117 15 270 48 300 65 14 8 43 21 65 28 22 8 35 15 28 15 -7 1 -32 -6 -55 -13
-56 -19 -220 -52 -328 -66 -46 -7 -87 -13 -90 -15 -24 -15 -713 -67 -1065 -81
-71 -2 -152 -7 -180 -9 -34 -3 -45 -1 -35 5 8 5 56 10 105 10 50 0 126 4 170
10 44 5 179 14 300 20 405 21 774 61 1003 111 104 22 42 19 -111 -6 -86 -14
-169 -24 -184 -24 -15 1 34 12 110 25 148 25 286 60 302 76 7 7 1 8 -20 4 -16
-4 -54 -12 -85 -17 -30 -6 -62 -12 -70 -15 -8 -3 -35 -7 -60 -8 -25 -2 -85 -6
-135 -9 l-90 -6 85 13 c118 18 284 55 350 76 80 27 26 22 -130 -11z m-4953
-65 c-3 -3 -12 -4 -19 -1 -8 3 -5 6 6 6 11 1 17 -2 13 -5z m4626 -21 c-7 -2
-19 -2 -25 0 -7 3 -2 5 12 5 14 0 19 -2 13 -5z m-156 -9 c-3 -3 -12 -4 -19 -1
-8 3 -5 6 6 6 11 1 17 -2 13 -5z m181 -41 c-10 -2 -28 -2 -40 0 -13 2 -5 4 17
4 22 1 32 -1 23 -4z m-130 -10 c-16 -2 -40 -2 -55 0 -16 2 -3 4 27 4 30 0 43
-2 28 -4z m-115 -10 c-7 -2 -19 -2 -25 0 -7 3 -2 5 12 5 14 0 19 -2 13 -5z
m-3403 -23 c0 -6 -11 -8 -27 -4 -40 10 -41 14 -5 14 18 0 32 -5 32 -10z m35 0
c3 -5 -1 -10 -10 -10 -9 0 -13 5 -10 10 3 6 8 10 10 10 2 0 7 -4 10 -10z
m3035 1 c-14 -9 -94 -16 -115 -10 -8 2 61 12 115 17 13 1 13 0 0 -7z m83 2
c-13 -2 -33 -2 -45 0 -13 2 -3 4 22 4 25 0 35 -2 23 -4z m-273 -23 c-83 -10
-301 -18 -294 -11 6 6 184 17 294 18 l65 0 -65 -7z m-2517 -7 c-7 -2 -19 -2
-25 0 -7 3 -2 5 12 5 14 0 19 -2 13 -5z m380 0 c-7 -2 -19 -2 -25 0 -7 3 -2 5
12 5 14 0 19 -2 13 -5z m195 0 c-21 -2 -57 -2 -80 0 -24 2 -7 4 37 4 44 0 63
-2 43 -4z m285 0 c-40 -2 -107 -2 -150 0 -43 1 -10 3 72 3 83 0 118 -2 78 -3z
m290 0 c-40 -2 -106 -2 -145 0 -40 1 -8 3 72 3 80 0 112 -2 73 -3z m-1555 -10
c-16 -2 -40 -2 -55 0 -16 2 -3 4 27 4 30 0 43 -2 28 -4z m2570 0 c-26 -2 -71
-2 -100 0 -29 2 -8 3 47 3 55 0 79 -1 53 -3z m361 -47 c-12 -10 -60 -16 -54
-6 3 5 18 10 32 10 15 0 24 -2 22 -4z"/>
<path d="M7640 2810 c-20 -6 -21 -8 -5 -8 11 0 34 4 50 8 27 7 27 8 5 8 -14 0
-36 -4 -50 -8z"/>
<path d="M2649 2632 c65 -46 827 -119 946 -91 22 5 11 7 -40 8 -38 1 -97 4
-130 7 -111 9 -261 24 -283 29 -12 2 -59 7 -105 10 -45 4 -89 8 -97 11 -8 2
-62 8 -120 14 -58 5 -123 12 -145 16 -28 4 -36 3 -26 -4z"/>
<path d="M7935 2600 c-104 -19 -177 -29 -255 -35 -47 -3 -98 -9 -114 -12 -20
-3 -26 -2 -21 6 8 13 -13 12 -235 -19 -74 -11 -211 -24 -305 -30 -268 -16
-455 -33 -450 -39 2 -4 68 -1 147 5 204 17 706 39 714 31 16 -16 -12 -20 -138
-19 -73 0 -124 -3 -113 -8 19 -7 -109 -22 -340 -41 -76 -6 -56 -7 85 -3 102 2
214 8 250 13 36 5 131 15 213 22 81 7 147 17 147 22 0 5 -7 7 -15 3 -8 -3 -30
-2 -48 2 -30 6 -29 7 23 14 30 4 111 12 180 17 69 5 141 14 160 20 19 7 57 16
83 21 27 5 58 17 70 25 23 16 22 16 -38 5z"/>
<path d="M2687 2589 c7 -7 15 -10 18 -7 3 3 -2 9 -12 12 -14 6 -15 5 -6 -5z"/>
<path d="M2800 2559 l55 -19 -50 5 c-83 8 -29 -11 85 -30 58 -9 114 -21 125
-25 24 -10 182 -26 385 -40 80 -5 170 -13 200 -16 30 -3 52 -3 49 0 -6 6 -175
25 -243 28 -20 1 -36 4 -36 7 0 3 -42 7 -93 9 -83 2 -335 37 -346 48 -6 6 14
5 109 -6 47 -5 126 -12 175 -15 50 -3 142 -10 205 -16 63 -6 138 -9 165 -7 44
4 41 5 -20 6 -39 1 -109 7 -155 13 -47 6 -105 13 -130 14 -103 6 -372 38 -459
55 -77 14 -84 11 -21 -11z m95 -19 c18 -8 17 -9 -7 -9 -16 -1 -28 4 -28 9 0
12 8 12 35 0z"/>
<path d="M3635 2540 c4 -6 11 -8 16 -5 14 9 11 15 -7 15 -8 0 -12 -5 -9 -10z"/>
<path d="M7880 2533 c-19 -1 -62 -8 -95 -14 -33 -6 -99 -11 -146 -11 -79 0
-122 -9 -108 -23 9 -8 287 14 337 27 23 6 45 15 48 19 3 5 4 8 2 7 -2 0 -19
-3 -38 -5z"/>
<path d="M3555 2510 c33 -4 78 -8 100 -8 38 1 38 1 -10 8 -27 5 -72 8 -100 8
l-50 -1 60 -7z"/>
<path d="M4463 2503 c9 -2 23 -2 30 0 6 3 -1 5 -18 5 -16 0 -22 -2 -12 -5z"/>
<path d="M4650 2504 c56 -7 370 -8 370 -1 0 4 -89 6 -197 6 -109 -1 -187 -3
-173 -5z"/>
<path d="M7865 2490 c-38 -10 -95 -19 -127 -19 -31 -1 -116 -10 -190 -21 -73
-11 -214 -27 -313 -36 -99 -9 -211 -20 -250 -24 -185 -22 380 14 678 43 16 2
30 0 33 -5 3 -4 2 -8 -3 -9 -11 -1 -53 -7 -138 -18 -240 -34 -287 -39 -438
-47 -56 -3 -151 -9 -212 -15 -60 -5 -220 -10 -355 -11 -135 -1 -197 -4 -137
-5 60 -2 107 -8 107 -13 0 -12 -410 -15 -1345 -12 -724 3 -1126 14 -1495 38
-129 9 -298 18 -375 19 -77 2 -203 13 -280 24 -76 11 -141 19 -143 17 -12 -13
327 -59 518 -71 52 -3 151 -10 220 -15 420 -31 597 -35 1585 -35 1022 0 1064
1 1705 40 540 34 824 64 973 106 59 16 37 21 -35 8 -73 -13 -163 -4 -119 12
15 6 28 5 37 -2 10 -8 17 -7 28 4 8 8 45 23 81 32 36 10 68 22 71 27 6 10 5
10 -81 -12z"/>
<path d="M3838 2493 c6 -2 18 -2 25 0 6 3 1 5 -13 5 -14 0 -19 -2 -12 -5z"/>
<path d="M5428 2493 c39 -2 105 -2 145 0 39 1 7 3 -73 3 -80 0 -112 -2 -72 -3z"/>
<path d="M5793 2493 c48 -2 126 -2 175 0 48 1 8 3 -88 3 -96 0 -136 -2 -87 -3z"/>
<path d="M6078 2493 c12 -2 30 -2 40 0 9 3 -1 5 -23 4 -22 0 -30 -2 -17 -4z"/>
<path d="M2790 2485 c0 -2 19 -8 43 -14 23 -5 60 -15 82 -20 56 -15 492 -58
660 -65 77 -3 354 -11 615 -17 716 -17 2421 3 2685 31 59 6 39 7 -80 3 -489
-17 -848 -20 -1765 -18 -576 1 -1104 7 -1220 14 -269 14 -639 46 -832 72 -82
11 -188 18 -188 14z"/>
<path d="M3983 2483 c15 -2 39 -2 55 0 15 2 2 4 -28 4 -30 0 -43 -2 -27 -4z"/>
<path d="M3670 2478 c3 -3 59 -8 124 -12 65 -4 167 -12 225 -17 67 -7 461 -11
1081 -11 960 0 1326 6 1405 23 25 5 -17 6 -115 3 -85 -2 -560 -7 -1055 -10
-832 -5 -1045 -2 -1535 22 -74 4 -133 4 -130 2z"/>
<path d="M4218 2473 c23 -2 61 -2 85 0 23 2 4 4 -43 4 -47 0 -66 -2 -42 -4z"/>
<path d="M4393 2473 c15 -2 37 -2 50 0 12 2 0 4 -28 4 -27 0 -38 -2 -22 -4z"/>
<path d="M4603 2473 c15 -2 37 -2 50 0 12 2 0 4 -28 4 -27 0 -38 -2 -22 -4z"/>
<path d="M4708 2473 c12 -2 32 -2 45 0 12 2 2 4 -23 4 -25 0 -35 -2 -22 -4z"/>
<path d="M5073 2473 c20 -2 54 -2 75 0 20 2 3 4 -38 4 -41 0 -58 -2 -37 -4z"/>
<path d="M6798 2463 c7 -3 16 -2 19 1 4 3 -2 6 -13 5 -11 0 -14 -3 -6 -6z"/>
<path d="M7398 2453 c12 -2 30 -2 40 0 9 3 -1 5 -23 4 -22 0 -30 -2 -17 -4z"/>
<path d="M3748 2433 c6 -2 18 -2 25 0 6 3 1 5 -13 5 -14 0 -19 -2 -12 -5z"/>
<path d="M3810 2430 c0 -5 5 -10 10 -10 6 0 10 5 10 10 0 6 -4 10 -10 10 -5 0
-10 -4 -10 -10z"/>
<path d="M3983 2423 c9 -2 23 -2 30 0 6 3 -1 5 -18 5 -16 0 -22 -2 -12 -5z"/>
<path d="M5805 2420 l-150 -6 173 -2 c94 -1 172 1 172 6 0 8 -4 8 -195 2z"/>
<path d="M4091 2416 c2 -2 119 -6 259 -9 152 -3 221 -1 170 3 -86 8 -437 13
-429 6z"/>
<path d="M4665 2410 c-33 -4 104 -7 305 -8 201 0 385 3 410 8 53 9 -625 9
-715 0z"/>
<path d="M7810 2384 c-52 -12 -149 -28 -215 -34 -66 -6 -165 -16 -220 -21 -55
-6 -122 -13 -150 -15 -27 -3 -52 -7 -55 -11 -3 -3 36 -3 85 1 171 13 192 14
204 7 16 -10 -382 -46 -799 -72 -348 -22 -377 -28 -115 -23 302 5 709 33 940
65 181 25 375 79 415 115 8 8 12 14 10 13 -3 -1 -48 -12 -100 -25z"/>
<path d="M6660 2370 l-95 -6 85 -1 c47 0 126 2 175 6 l90 8 -80 0 c-44 -1
-123 -4 -175 -7z"/>
<path d="M3773 2353 c15 -2 37 -2 50 0 12 2 0 4 -28 4 -27 0 -38 -2 -22 -4z"/>
<path d="M3898 2353 c12 -2 32 -2 45 0 12 2 2 4 -23 4 -25 0 -35 -2 -22 -4z"/>
<path d="M4000 2350 c25 -8 437 -14 429 -6 -2 2 -105 6 -229 8 -124 3 -214 2
-200 -2z"/>
<path d="M5640 2350 l-235 -6 255 -1 c140 0 336 3 435 6 l180 7 -200 0 c-110
0 -306 -3 -435 -6z"/>
<path d="M6388 2353 c34 -2 88 -2 120 0 31 2 3 3 -63 3 -66 0 -92 -1 -57 -3z"/>
<path d="M3040 2325 c116 -24 284 -45 209 -25 -37 9 -194 34 -279 44 -25 3 7
-5 70 -19z"/>
<path d="M4473 2343 c15 -2 37 -2 50 0 12 2 0 4 -28 4 -27 0 -38 -2 -22 -4z"/>
<path d="M4643 2343 c9 -2 25 -2 35 0 9 3 1 5 -18 5 -19 0 -27 -2 -17 -5z"/>
<path d="M4713 2343 c9 -2 25 -2 35 0 9 3 1 5 -18 5 -19 0 -27 -2 -17 -5z"/>
<path d="M4813 2343 c26 -2 67 -2 90 0 23 2 2 3 -48 3 -49 0 -68 -1 -42 -3z"/>
<path d="M5043 2343 c9 -2 25 -2 35 0 9 3 1 5 -18 5 -19 0 -27 -2 -17 -5z"/>
<path d="M5148 2343 c12 -2 30 -2 40 0 9 3 -1 5 -23 4 -22 0 -30 -2 -17 -4z"/>
<path d="M3328 2283 c6 -2 18 -2 25 0 6 3 1 5 -13 5 -14 0 -19 -2 -12 -5z"/>
<path d="M6948 2283 c6 -2 18 -2 25 0 6 3 1 5 -13 5 -14 0 -19 -2 -12 -5z"/>
<path d="M3388 2273 c7 -3 16 -2 19 1 4 3 -2 6 -13 5 -11 0 -14 -3 -6 -6z"/>
<path d="M6698 2273 c6 -2 18 -2 25 0 6 3 1 5 -13 5 -14 0 -19 -2 -12 -5z"/>
<path d="M3478 2263 c12 -2 30 -2 40 0 9 3 -1 5 -23 4 -22 0 -30 -2 -17 -4z"/>
<path d="M6438 2263 c34 -2 88 -2 120 0 31 2 3 3 -63 3 -66 0 -92 -1 -57 -3z"/>
<path d="M3583 2253 c15 -2 37 -2 50 0 12 2 0 4 -28 4 -27 0 -38 -2 -22 -4z"/>
<path d="M4228 2253 c6 -2 18 -2 25 0 6 3 1 5 -13 5 -14 0 -19 -2 -12 -5z"/>
<path d="M4288 2253 c7 -3 16 -2 19 1 4 3 -2 6 -13 5 -11 0 -14 -3 -6 -6z"/>
<path d="M6203 2253 c9 -2 25 -2 35 0 9 3 1 5 -18 5 -19 0 -27 -2 -17 -5z"/>
<path d="M6288 2253 c6 -2 18 -2 25 0 6 3 1 5 -13 5 -14 0 -19 -2 -12 -5z"/>
<path d="M6338 2253 c7 -3 16 -2 19 1 4 3 -2 6 -13 5 -11 0 -14 -3 -6 -6z"/>
<path d="M3703 2243 c15 -2 39 -2 55 0 15 2 2 4 -28 4 -30 0 -43 -2 -27 -4z"/>
<path d="M4543 2243 c9 -2 23 -2 30 0 6 3 -1 5 -18 5 -16 0 -22 -2 -12 -5z"/>
<path d="M4893 2243 c9 -2 23 -2 30 0 6 3 -1 5 -18 5 -16 0 -22 -2 -12 -5z"/>
<path d="M5598 2243 c29 -2 74 -2 100 0 26 2 2 3 -53 3 -55 0 -76 -1 -47 -3z"/>
<path d="M5778 2243 c12 -2 30 -2 40 0 9 3 -1 5 -23 4 -22 0 -30 -2 -17 -4z"/>
<path d="M5858 2243 c12 -2 32 -2 45 0 12 2 2 4 -23 4 -25 0 -35 -2 -22 -4z"/>
<path d="M3838 2233 c23 -2 59 -2 80 0 20 2 1 4 -43 4 -44 0 -61 -2 -37 -4z"/>
<path d="M3976 2229 c10 -4 60 -7 109 -7 110 0 93 6 -34 11 -52 2 -85 0 -75
-4z"/>
<path d="M4293 2213 c31 -2 83 -2 115 0 31 2 5 3 -58 3 -63 0 -89 -1 -57 -3z"/>
<path d="M4638 2203 c46 -2 118 -2 160 0 42 1 5 3 -83 3 -88 0 -123 -2 -77 -3z"/>
<path d="M4908 2203 c18 -2 45 -2 60 0 15 2 0 4 -33 4 -33 0 -45 -2 -27 -4z"/>
<path d="M5030 2200 c-13 -8 -12 -10 3 -10 9 0 17 5 17 10 0 12 -1 12 -20 0z"/>
<path d="M5067 2198 c-7 -4 151 -8 351 -8 199 0 362 4 362 8 0 10 -697 10
-713 0z"/>
<path d="M5800 2200 c0 -5 7 -10 15 -10 8 0 15 5 15 10 0 6 -7 10 -15 10 -8 0
-15 -4 -15 -10z"/>
<path d="M5853 2203 c9 -2 25 -2 35 0 9 3 1 5 -18 5 -19 0 -27 -2 -17 -5z"/>
<path d="M5993 2203 c26 -2 68 -2 95 0 26 2 4 3 -48 3 -52 0 -74 -1 -47 -3z"/>
<path d="M6168 2203 c12 -2 30 -2 40 0 9 3 -1 5 -23 4 -22 0 -30 -2 -17 -4z"/>
</g>
</svg>
